<?xml version="1.0" standalone="no"?>
<!DOCTYPE svg PUBLIC "-//W3C//DTD SVG 1.1//EN" "http://www.w3.org/Graphics/SVG/1.1/DTD/svg11.dtd" >
<svg xmlns="http://www.w3.org/2000/svg">
<metadata>
<json>
<![CDATA[
{
	"fontFamily": "icomoon-app-info",
	"majorVersion": 1,
	"minorVersion": 3,
	"description": "Radio-Canada\nFont generated by IcoMoon.",
	"license": "Copyright Radio-Canada",
	"version": "Version 1.3",
	"fontId": "icomoon-app-info",
	"psName": "icomoon-app-info",
	"subFamily": "Regular",
	"fullName": "icomoon-app-info"
}
]]>
</json>
</metadata>
<defs>
<font id="icomoon-app-info" horiz-adv-x="1024">
<font-face units-per-em="1024" ascent="960" descent="-64" />
<missing-glyph horiz-adv-x="1024" />
<glyph unicode="&#x20;" horiz-adv-x="512" d="" />
<glyph unicode="&#xe900;" glyph-name="gem" data-tags="font-info_gem" d="M328.909 448c0 101.171 81.92 183.091 183.091 183.091 100.966 0 183.091-81.92 183.091-183.091 0-100.966-82.125-182.886-183.091-182.886s-183.091 81.92-183.091 182.886zM300.646 265.114c-100.966 0-182.886 81.715-182.886 182.886s81.92 183.091 182.886 183.091v-365.978zM723.354 63.181v173.875l173.875-0.205c0-96.256-78.029-173.67-173.875-173.67zM300.646 833.024v-173.875h-173.67c0 96.051 77.619 173.875 173.67 173.875zM300.646 63.181l0.205 173.875-173.875-0.41c0-96.051 77.619-173.466 173.67-173.466zM934.502 290.918v314.368c53.658-31.949 89.498-90.317 89.498-157.286 0-66.765-35.84-125.133-89.498-157.082zM354.918 870.912h314.368c-32.154 53.453-90.317 89.088-157.286 89.088s-125.338-35.635-157.082-89.088zM666.829 25.498h-314.368c31.744-53.658 90.317-89.498 157.082-89.498 66.97 0 125.338 35.84 157.286 89.498zM695.091 236.851c0-101.376-82.125-183.091-183.091-183.091-101.171 0-183.091 81.92-183.091 183.091h366.182zM723.354 265.114c100.966 0 182.886 81.715 182.886 182.886s-81.92 183.091-182.886 183.091v-365.978zM695.091 658.944c0 101.171-82.125 183.091-183.091 183.091-101.171 0-183.091-81.92-183.091-183.091h366.182zM89.293 290.918l0.205 314.368c-53.453-31.949-89.498-90.317-89.498-157.286 0-66.765 35.84-125.133 89.293-157.082zM897.229 659.354h-173.875v173.67c95.846 0 173.875-77.824 173.875-173.67z" />
<glyph unicode="&#xe901;" glyph-name="radio-canada" data-tags="font-info_radio-canada" horiz-adv-x="4118" d="M1172.216 660.275c-14.541 0-26.829-12.698-26.829-27.443v-369.050c0-14.95 12.083-27.238 26.829-27.238 15.155 0 26.624 11.674 26.624 27.238v369.050c0 15.565-11.469 27.443-26.624 27.443zM889.387 660.479h-100.966c-26.419 0-43.418-16.794-43.418-42.394v-338.739c0-24.986 18.022-42.394 43.418-42.394h100.966c113.254 0 184.934 66.97 191.693 178.995 1.229 19.866 1.229 43.827 0 65.536-6.758 113.664-76.595 178.995-191.693 178.995zM1028.037 417.382c-5.325-84.787-53.248-129.843-138.65-129.843h-91.341v322.15h91.341c86.016 0 133.939-45.056 138.65-130.253 1.229-17.408 1.229-42.394 0-62.054zM201.874 410.009c46.285 8.806 99.738 36.864 99.738 119.398 0 65.126-42.394 130.867-137.216 130.867h-121.856c-25.6 0-42.803-17.203-42.803-42.394v-354.099c0-14.541 12.493-27.238 26.624-27.238 14.336 0 26.829 12.493 26.829 27.238v136.602h70.042c15.974 0 22.733-6.963 31.744-18.227l110.592-136.192c4.71-5.734 11.878-9.011 19.456-9.011 6.554 0 13.107 2.458 18.227 6.963 10.445 9.216 11.878 26.419 3.277 37.069l-104.653 129.024zM53.189 451.379v157.082h108.339c55.706 0 86.221-28.058 86.221-79.053 0-52.429-29.082-78.029-89.293-78.029h-105.267zM513.17 660.275c-51.2 0-99.123-15.36-124.314-28.262-10.24-5.53-16.179-15.36-16.179-26.214 0-6.554 2.458-12.902 6.758-17.408 4.506-4.71 11.059-7.168 18.432-7.168 4.71 0 9.83 1.024 14.746 3.277 36.659 15.36 69.632 22.733 100.557 22.733 73.318 0 104.858-30.106 104.858-100.762v-23.962c-47.104 12.493-78.643 17.203-115.917 17.203-97.485 0-160.563-52.019-160.563-132.506 0-84.378 58.368-134.963 156.467-134.963 80.077 0 140.698 29.082 161.382 44.442 9.83 7.168 11.878 14.746 11.878 24.371v212.378c0.205 98.714-51.61 146.842-158.106 146.842zM618.027 317.030c-25.805-18.637-74.342-32.563-112.845-32.563-73.318 0-110.387 27.443-110.387 81.715 0 51.61 41.37 82.33 110.387 82.33 36.454 0 66.765-6.349 112.845-19.046v-112.435zM1444.19 663.756c-95.232 0-169.779-70.861-177.357-168.55-2.458-31.949-2.458-58.368 0-90.726 6.758-97.69 81.51-168.755 177.357-168.755 95.232 0 172.237 72.499 178.995 168.55 2.458 32.563 2.458 58.982 0 90.726-6.758 96.256-83.763 168.755-178.995 168.755zM1569.323 407.142c-5.939-70.656-57.344-119.808-124.928-119.808-66.355 0-117.35 49.152-123.904 119.808-2.458 30.31-2.458 55.706 0 86.016 6.554 70.246 57.549 119.398 123.904 119.398 67.584 0 118.989-49.152 124.928-119.398 2.867-30.31 2.867-55.91 0-86.016zM1798.29 448.716h-106.496c-14.95 0-26.214-11.059-26.214-25.6 0-13.926 12.083-25.6 26.214-25.6h106.496c14.336 0 26.010 11.469 26.010 25.6 0 14.541-11.264 25.6-26.010 25.6zM3188.677 660.275c-51.2 0-98.918-15.36-124.518-28.262-10.24-5.53-16.179-15.36-16.179-26.214 0-6.554 2.458-12.902 6.963-17.408 4.71-4.71 11.059-7.168 18.432-7.168 4.71 0 9.626 1.024 14.746 3.277 36.659 15.36 69.427 22.733 100.557 22.733 73.318 0 104.858-30.106 104.858-100.762v-23.962c-47.309 12.493-78.643 17.203-115.917 17.203-97.485 0-160.563-52.019-160.563-132.506 0-84.378 58.573-134.963 156.467-134.963 80.282 0 140.698 29.082 161.382 44.442 9.83 7.168 11.878 14.746 11.878 24.371v212.378c0 98.714-51.61 146.842-158.106 146.842zM3293.534 317.030c-25.805-18.637-74.342-32.563-112.845-32.563-73.318 0-110.387 27.443-110.387 81.715 0 51.61 41.37 82.33 110.387 82.33 36.454 0 66.56-6.349 112.845-19.046v-112.435zM3959.954 660.275c-51.2 0-99.123-15.36-124.314-28.262-10.24-5.53-16.384-15.36-16.384-26.214 0-6.554 2.458-12.902 6.963-17.408 4.71-4.71 11.059-7.168 18.432-7.168 4.915 0 9.83 1.024 14.746 3.277 36.659 15.36 69.427 22.733 100.557 22.733 73.318 0 104.858-30.106 104.858-100.762v-23.962c-47.309 12.493-78.643 17.203-115.917 17.203-97.485 0-160.563-52.019-160.563-132.506 0-84.378 58.573-134.963 156.467-134.963 80.282 0 140.698 29.082 161.587 44.442 9.626 7.168 11.878 14.746 11.878 24.371v212.378c-0.205 98.714-52.019 146.842-158.31 146.842zM4064.606 317.030c-25.805-18.637-74.342-32.563-112.64-32.563-73.318 0-110.592 27.443-110.592 81.715 0 51.61 41.37 82.33 110.592 82.33 36.454 0 66.56-6.349 112.64-19.046v-112.435zM2397.739 660.275c-51.2 0-98.918-15.36-124.314-28.262-10.24-5.53-16.179-15.36-16.179-26.214 0-6.554 2.458-12.902 6.758-17.408 4.506-4.71 11.059-7.168 18.432-7.168 4.915 0 9.83 1.024 14.746 3.277 36.659 15.36 69.632 22.733 100.557 22.733 73.318 0 104.858-30.106 104.858-100.762v-23.962c-47.104 12.493-78.643 17.203-115.917 17.203-97.485 0-160.563-52.019-160.563-132.506 0-84.378 58.573-134.963 156.672-134.963 80.077 0 140.698 29.082 161.382 44.442 9.83 7.168 11.878 14.746 11.878 24.371v212.378c0 98.714-51.814 146.842-158.31 146.842zM2502.597 317.030c-25.805-18.637-74.138-32.563-112.64-32.563-73.318 0-110.387 27.443-110.387 81.715 0 51.61 41.165 82.33 110.387 82.33 36.659 0 66.56-6.349 112.64-19.046v-112.435zM2038.725 612.556c46.899 0 87.654-26.624 106.496-69.427 2.662-6.144 9.421-16.589 24.576-16.589 11.878 0 25.19 10.445 25.19 24.576 0 3.686-0.614 7.578-2.048 12.288-23.962 60.006-86.016 100.352-154.214 100.352-93.798 0-164.659-69.222-172.237-168.55-2.253-31.949-2.253-58.163 0-90.726 6.963-99.328 77.824-168.755 172.237-168.755 68.198 0 130.048 40.755 154.419 101.376 1.024 4.096 1.843 7.373 1.843 11.264 0 14.95-13.312 25.395-25.19 25.395-11.264 0-19.866-5.939-24.576-16.794-18.637-43.213-59.392-70.042-106.496-70.042-65.331 0-113.254 48.333-119.398 120.218-1.638 30.515-1.638 55.091 0 85.402 6.144 71.68 54.067 120.013 119.398 120.013zM2802.014 658.636c-76.8 0-135.782-23.757-162.611-43.827-9.421-6.554-12.493-13.517-12.493-26.624v-327.27c0-15.36 11.674-27.238 26.624-27.238 15.155 0 26.419 11.674 26.419 27.238v316.416c24.986 14.95 71.475 29.696 120.627 29.696 72.909 0 116.531-42.803 116.531-114.278v-232.038c0-15.36 11.674-27.238 26.419-27.238 15.565 0 26.624 11.264 26.624 27.238v233.677c0 105.882-59.597 164.25-168.141 164.25zM3562.027 660.479h-100.966c-26.419 0-43.418-16.794-43.418-42.394v-338.739c0-24.986 17.818-42.394 43.418-42.394h100.966c113.254 0 184.934 66.97 191.488 178.995 1.229 19.866 1.229 43.827 0 65.536-6.758 113.664-76.595 178.995-191.488 178.995zM3700.677 417.382c-5.325-84.787-53.248-129.843-138.65-129.843h-91.341v322.15h91.341c86.016 0 133.939-45.056 138.65-130.253 1.024-17.408 1.024-42.394 0-62.054z" />
<glyph unicode="&#xe902;" glyph-name="burger" data-tags="font-info_burger" d="M-0.41 868.045h1024.614v-121.856h-1024.614v121.856zM-0.41 508.826h1024.614v-121.856h-1024.614v121.856zM-0.41 149.606h1024.614v-121.856h-1024.614v121.856z" />
<glyph unicode="&#xe903;" glyph-name="check" data-tags="font-info_check" d="M904.192 842.65l-564.429-569.549-229.786 229.786-109.978-119.808 339.763-329.728 684.237 679.322z" />
<glyph unicode="&#xe904;" glyph-name="left-arrow" data-tags="font-info_left-arrow" d="M816.742 862.515l-97.485 97.485-512-507.085 512-516.915 97.485 97.485-414.515 419.43z" />
<glyph unicode="&#xe905;" glyph-name="right-arrow" data-tags="font-info_right-arrow" d="M207.258 862.515l97.485 97.485 512-507.085-512-516.915-97.485 97.485 414.515 419.43z" />
<glyph unicode="&#xe906;" glyph-name="up-arrow" data-tags="font-info_up-arrow" d="M512 722.637l-512-497.869 53.043-51.405 458.957 446.259 458.957-446.259 53.043 51.405z" />
<glyph unicode="&#xe907;" glyph-name="down-arrow" data-tags="font-info_down-arrow" d="M512 173.363l512 497.869-53.043 51.405-458.957-446.259-458.957 446.259-53.043-51.405z" />
<glyph unicode="&#xe908;" glyph-name="close" data-tags="font-info_close" d="M1024.614 870.502l-84.582 84.378-428.032-425.984-428.032 425.984-84.582-84.378 427.622-426.394-420.25-418.816 84.378-84.173 420.864 419.43 420.864-419.43 84.378 84.173-420.25 418.816z" />
<glyph unicode="&#xe909;" glyph-name="dot" data-tags="font-info_dot" d="M736 448c0-123.718-100.282-224-224-224s-224 100.282-224 224c0 123.718 100.282 224 224 224s224-100.282 224-224z" />
<glyph unicode="&#xe90a;" glyph-name="video-camera" data-tags="font-info_video-camera" d="M548.659 155.34h-438.886c-60.621 0-109.773 49.152-109.773 109.773v365.773c0 60.621 49.152 109.773 109.773 109.773h438.886c60.621 0 109.773-49.152 109.773-109.773v-365.773c-0.205-60.621-49.357-109.773-109.773-109.773zM1024 155.34l-292.659 256v73.318l292.659 256z" />
<glyph unicode="&#xe90b;" glyph-name="play" data-tags="font-info_play" d="M751.616 472.781l-353.69 204.186c-19.866 11.469-44.851-2.867-44.851-25.805v-408.166c0-22.938 24.986-37.274 44.851-25.805l353.69 204.186c19.661 11.264 19.866 39.936 0 51.405zM511.795 960c-282.829 0-512-229.171-512-512s229.171-512 512-512 512 229.171 512 512c0 282.829-229.171 512-512 512zM842.752 117.043c-43.008-43.008-92.979-76.8-148.685-100.352-57.754-24.371-118.989-36.659-182.067-36.659s-124.518 12.288-182.067 36.659c-55.706 23.552-105.677 57.344-148.685 100.352s-76.8 92.979-100.352 148.685c-24.371 57.754-36.659 118.989-36.659 182.067s12.288 124.518 36.659 182.067c23.552 55.706 57.344 105.677 100.352 148.685s92.979 76.8 148.685 100.352c57.754 24.371 118.989 36.659 182.067 36.659s124.518-12.288 182.067-36.659c55.706-23.552 105.677-57.344 148.685-100.352s76.8-92.979 100.352-148.685c24.371-57.754 36.659-118.989 36.659-182.067s-12.288-124.518-36.659-182.067c-23.552-55.706-57.344-105.677-100.352-148.685z" />
<glyph unicode="&#xe90c;" glyph-name="settings" data-tags="font-info_settings" d="M980.378 529.306l-97.28 14.746c-9.216 36.25-23.347 70.246-41.984 101.581l58.778 79.462c15.36 20.685 13.312 49.562-5.12 67.789l-38.707 38.912c-10.035 10.035-23.552 15.36-36.864 15.36-10.854 0-21.709-3.277-30.925-10.24l-79.667-58.778c-31.334 18.637-65.331 32.973-101.581 42.189l-14.746 96.461c-3.686 25.6-25.6 43.213-51.405 43.213h-54.886c-25.805 0-47.718-17.613-51.61-43.213l-14.746-97.075c-36.25-9.216-70.246-23.142-101.581-41.779l-79.462 58.778c-9.216 6.758-20.275 10.24-31.13 10.24-13.312 0-26.829-5.12-36.864-15.155l-38.707-38.707c-18.227-18.227-20.48-47.104-5.12-67.789l58.778-79.462c-18.637-31.334-32.973-65.331-42.189-101.581l-98.304-14.95c-25.6-3.891-45.056-25.805-45.056-51.61v-54.886c0-25.805 19.661-47.718 45.056-51.61l98.099-14.746c9.216-36.25 23.552-70.246 42.394-101.581l-58.778-79.258c-15.36-20.685-13.107-49.562 5.12-67.789l38.707-38.707c10.035-10.035 23.552-15.36 36.864-15.36 10.854 0 21.709 3.277 30.925 10.24l79.462 58.778c31.334-18.637 65.331-32.973 101.581-42.189l14.746-98.918c3.891-25.6 25.805-45.67 51.61-45.67h54.886c25.805 0 47.718 20.070 51.61 45.67l14.746 98.304c36.25 9.216 70.246 23.757 101.581 42.394l79.462-58.573c9.216-6.758 20.070-10.24 30.925-10.24 13.517 0 26.829 5.12 37.069 15.36l38.707 38.707c18.227 18.227 20.48 47.104 5.12 67.789l-58.778 79.462c18.637 31.334 32.973 65.331 42.189 101.581l97.075 14.746c25.6 3.891 43.622 25.805 43.622 51.61v54.886c0 25.805-18.227 47.923-43.622 51.61zM513.434 247.296c-112.026 0-203.162 91.136-203.162 203.162s91.136 203.162 203.162 203.162 203.162-91.136 203.162-203.162c0-112.026-91.136-203.162-203.162-203.162z" />
<glyph unicode="&#xe90d;" glyph-name="action" data-tags="font-info_action" d="M683.418 787.354l-171.418 172.646-173.875-172.646 27.443-27.443 127.181 126.157v-583.066h38.502v582.656l124.928-125.747zM608.666 670.208v-38.707h231.834v-656.794h-656.998v656.794h231.834v38.707h-270.336v-734.208h734.003v734.208z" />
<glyph unicode="&#xe90e;" glyph-name="speaker" data-tags="font-info_speaker" d="M753.869 728.986c-11.264 11.264-29.491 11.059-40.55 0-11.264-11.264-11.264-29.286 0-40.55 64.512-64.307 100.147-149.709 100.147-240.64 0-90.726-35.43-175.923-99.533-240.23-11.264-11.264-11.264-29.286 0-40.55 5.53-5.53 12.902-8.397 20.275-8.397s14.746 2.867 20.275 8.397c74.957 74.957 116.326 174.694 116.326 280.781 0 106.291-41.37 206.234-116.941 281.19zM859.546 839.782c-11.264 11.059-29.491 11.059-40.55-0.41-11.059-11.264-11.059-29.491 0.41-40.55 95.027-93.389 147.251-218.112 147.251-351.232 0-132.71-52.224-257.229-146.842-350.618-11.264-11.059-11.469-29.286-0.205-40.55 5.53-5.734 13.107-8.602 20.48-8.602s14.541 2.662 20.275 8.192c105.677 104.243 163.84 243.098 163.84 391.373-0.205 148.89-58.573 287.949-164.659 392.397zM653.517 623.309c-11.059 11.264-29.286 11.469-40.55 0.41s-11.674-29.286-0.41-40.55c35.635-36.454 55.296-84.787 55.296-135.782 0-50.586-19.456-98.714-54.886-135.168-11.059-11.469-10.65-29.491 0.614-40.55 5.53-5.325 12.698-7.987 19.866-7.987 7.578 0 14.95 2.867 20.685 8.806 45.875 47.309 71.066 109.363 71.066 175.104 0 66.15-25.6 128.614-71.68 175.718zM81.51 631.296h-24.781c-31.744 0-57.139-26.419-57.139-58.163v-245.965c0-31.539 25.6-56.32 57.139-56.32h24.986c31.744 0 55.091 24.781 55.091 56.32v245.965c-0.205 31.539-23.552 58.163-55.296 58.163zM404.685 822.784l-176.333-191.488h-1.638v-360.448h1.638l175.923-194.97c35.226-38.707 98.714-14.336 98.714 38.093v669.696c0.205 52.019-62.874 77.414-98.304 39.117z" />
<glyph unicode="&#xe90f;" glyph-name="folder" data-tags="font-info_folder" d="M409.6 857.6h-307.2c-56.32 0-101.99-46.080-101.99-102.4l-0.41-614.4c0-56.32 46.080-102.4 102.4-102.4h819.2c56.32 0 102.4 46.080 102.4 102.4v512c0 56.32-46.080 102.4-102.4 102.4h-409.6l-102.4 102.4z" />
<glyph unicode="&#xe910;" glyph-name="ici-rdi" data-tags="font-info_ici-rdi" horiz-adv-x="3002" d="M2379.776 406.835c46.080 8.806 99.123 36.659 99.123 118.579 0 64.717-42.189 130.048-136.192 130.048h-121.242c-25.395 0-42.598-16.794-42.598-41.984v-351.846c0-14.336 12.288-27.034 26.419-27.034s26.419 12.698 26.419 27.034v135.782h69.837c15.77 0 22.528-6.963 31.539-18.227l109.773-135.373c4.71-5.734 11.674-9.011 19.456-9.011 6.554 0 13.107 2.458 18.227 6.963 10.24 9.011 11.674 26.214 3.277 36.864l-104.038 128.205zM2231.706 448v156.262h107.725c55.296 0 85.811-27.853 85.811-78.643 0-52.224-28.877-77.414-88.678-77.414h-104.858zM2975.949 655.462c-14.336 0-26.419-12.288-26.419-27.034v-366.592c0-14.95 11.878-27.238 26.419-27.238 15.155 0 26.419 11.674 26.419 27.238v366.387c0 15.565-11.264 27.238-26.419 27.238zM2691.072 653.619h-100.352c-26.214 0-43.213-16.589-43.213-42.189v-336.486c0-24.781 17.613-42.189 43.213-42.189h100.352c112.64 0 183.706 66.56 190.464 177.971 1.229 19.866 1.229 43.622 0 65.126-6.758 113.050-76.186 177.766-190.464 177.766zM2828.902 411.955c-5.325-84.173-52.838-128.819-137.83-128.819h-90.931v320.102h90.931c85.402 0 133.12-44.646 137.83-129.434 1.024-17.203 1.024-42.189 0-61.85zM1407.181 629.248c-101.171 0-183.091-81.92-183.091-183.091 0-100.966 81.92-182.886 183.091-182.886 100.966 0 183.091 81.715 183.091 182.886s-82.125 183.091-183.091 183.091zM1012.941 446.157c0-100.966 81.92-182.886 182.886-182.886v365.978c-100.966 0-182.886-81.92-182.886-183.091zM1618.534 61.338c95.846 0 173.875 77.619 173.875 173.466l-173.875 0.205v-173.67zM1022.157 657.51h173.875v173.67c-96.256 0-173.875-77.824-173.875-173.67zM1195.827 61.338l0.205 173.67-173.67-0.205c-0.205-96.051 77.414-173.466 173.466-173.466zM1829.683 603.443v-314.368c53.658 31.949 89.498 90.317 89.498 157.082 0 66.97-35.84 125.338-89.498 157.286zM1407.181 958.157c-66.97 0-125.338-35.635-157.082-89.088h314.368c-31.949 53.453-90.317 89.088-157.286 89.088zM1404.723-65.843c66.97 0 125.338 35.84 157.286 89.498h-314.368c31.744-53.658 90.317-89.498 157.082-89.498zM1407.181 51.917c100.966 0 183.091 81.92 183.091 183.091h-366.182c0-101.171 82.125-183.091 183.091-183.091zM1618.534 629.248v-365.773c100.966 0 182.886 81.715 182.886 182.886 0 100.966-81.92 182.886-182.886 182.886zM1407.181 839.987c-101.171 0-183.091-81.92-183.091-183.091h366.182c0 101.376-82.125 183.091-183.091 183.091zM895.181 446.157c0-66.765 35.84-125.338 89.293-157.082l0.205 314.368c-53.453-31.949-89.498-90.317-89.498-157.286zM1618.534 831.181v-173.67h173.875c0 95.846-78.029 173.67-173.875 173.67zM40.96 658.125c-21.914 0-40.96-18.432-40.96-41.574v-340.582c0-23.142 18.432-42.189 40.96-42.189 23.142 0 40.346 18.842 40.346 42.189v340.582c0 23.142-17.203 41.574-40.346 41.574zM595.354 658.125c-21.914 0-40.96-18.432-40.96-41.574v-340.582c0-23.142 18.432-42.189 40.96-42.189 23.142 0 40.346 18.842 40.346 42.189v340.582c0 23.142-17.203 41.574-40.346 41.574zM327.885 583.373c36.864 0 67.174-19.661 84.378-52.224 7.168-11.878 16.589-23.757 35.635-23.757s39.731 16.179 39.731 38.093c0 7.168-0.614 12.493-4.096 21.914-25.6 60.006-89.088 94.413-155.648 94.413-100.966 0-170.598-74.342-178.176-169.37-2.458-30.31-2.458-63.078 0-94.413 7.782-95.027 77.21-168.755 178.176-168.755 66.56 0 130.048 34.406 155.648 94.413 3.482 9.421 4.096 14.746 4.096 21.914 0 21.914-20.685 37.888-39.731 37.888s-27.853-10.035-35.635-23.757c-17.203-32.768-47.514-52.224-84.378-52.224-57.549 0-93.184 39.731-97.485 98.509-1.843 24.986-1.843 51.2 0 76.186 4.301 58.368 39.936 101.171 97.485 101.171z" />
<glyph unicode="&#xe911;" glyph-name="speaker-circle" data-tags="font-info_speaker-circle" d="M512 960c-282.829 0-512-229.171-512-512s229.171-512 512-512 512 229.171 512 512c0 282.829-229.171 512-512 512zM842.957 117.043c-43.008-43.008-92.979-76.8-148.685-100.352-57.754-24.371-118.989-36.659-182.067-36.659s-124.518 12.288-182.067 36.659c-55.706 23.552-105.677 57.344-148.685 100.352s-76.8 92.979-100.352 148.685c-24.371 57.754-36.659 118.989-36.659 182.067 0 63.283 12.288 124.518 36.659 182.067 23.552 55.706 57.344 105.677 100.352 148.685s92.979 76.8 148.685 100.352c57.754 24.371 118.989 36.659 182.067 36.659s124.518-12.288 182.067-36.659c55.706-23.552 105.677-57.344 148.685-100.352s76.8-92.979 100.352-148.685c24.371-57.754 36.659-118.989 36.659-182.067 0-63.283-12.288-124.518-36.659-182.067-23.552-55.706-57.344-105.677-100.352-148.685zM653.517 611.635c-6.554 6.554-17.203 6.554-23.757 0s-6.554-17.203 0-23.552c37.683-37.478 58.368-87.245 58.368-140.288 0-52.838-20.685-102.605-57.958-139.878-6.554-6.554-6.554-16.998 0-23.552 3.277-3.277 7.578-4.915 11.878-4.915s8.602 1.638 11.878 4.915c43.622 43.622 67.789 101.786 67.789 163.43 0 62.054-24.166 120.218-68.198 163.84zM715.162 676.147c-6.554 6.554-17.203 6.349-23.757-0.205s-6.349-17.203 0.205-23.552c55.296-54.477 85.811-126.976 85.811-204.595 0-77.414-30.31-149.914-85.606-204.186-6.554-6.554-6.554-16.998-0.205-23.552 3.277-3.277 7.578-4.915 11.878-4.915s8.397 1.638 11.674 4.915c61.645 60.621 95.437 141.722 95.437 227.942 0.41 86.426-33.792 167.526-95.437 228.147zM594.944 550.195c-6.349 6.554-16.998 6.758-23.757 0.205-6.554-6.349-6.758-16.998-0.205-23.552 20.89-21.299 32.154-49.357 32.154-79.053 0-29.491-11.264-57.549-31.949-78.643-6.349-6.554-6.349-17.203 0.41-23.552 3.277-3.072 7.373-4.71 11.674-4.71s8.806 1.638 12.083 5.12c26.624 27.443 41.37 63.693 41.37 101.99s-14.746 74.547-41.779 102.195zM261.734 555.11h-14.541c-18.432 0-34.406-15.974-34.406-34.202v-143.36c0-18.432 15.974-31.334 34.406-31.334h14.541c18.432 0 32.973 12.902 32.973 31.334v143.36c0.205 18.432-14.336 34.202-32.973 34.202zM450.355 666.522l-102.81-111.411h-1.434v-208.896h1.434l102.81-114.483c20.48-22.528 57.754-9.011 57.754 21.299v390.349c-0.205 30.515-37.274 45.466-57.754 23.142z" />
<glyph unicode="&#xe912;" glyph-name="camera-circle" data-tags="camera-circle" d="M512 960c-282.829 0-512-229.171-512-512s229.171-512 512-512 512 229.171 512 512c0 282.829-229.171 512-512 512zM842.957 117.043c-43.008-43.008-92.979-76.8-148.685-100.352-57.754-24.371-118.989-36.659-182.067-36.659s-124.518 12.288-182.067 36.659c-55.706 23.552-105.677 57.344-148.685 100.352s-76.8 92.979-100.352 148.685c-24.371 57.754-36.659 118.989-36.659 182.067 0 63.283 12.288 124.518 36.659 182.067 23.552 55.706 57.344 105.677 100.352 148.685s92.979 76.8 148.685 100.352c57.754 24.371 118.989 36.659 182.067 36.659s124.518-12.288 182.067-36.659c55.706-23.552 105.677-57.344 148.685-100.352s76.8-92.979 100.352-148.685c24.371-57.754 36.659-118.989 36.659-182.067 0-63.283-12.288-124.518-36.659-182.067-23.552-55.706-57.344-105.677-100.352-148.685zM512 505.344c-46.694 0-84.582-38.502-84.582-86.016s37.888-86.016 84.582-86.016c46.694 0 84.582 38.502 84.582 86.016s-37.888 86.016-84.582 86.016zM737.69 591.36h-67.789c-9.216 0-19.251 7.373-22.323 16.384l-17.408 53.248c-2.867 9.011-12.902 16.384-22.323 16.384h-191.898c-9.216 0-19.251-7.373-22.323-16.384l-17.408-53.248c-2.867-9.011-12.902-16.384-22.323-16.384h-67.789c-31.13 0-56.525-25.805-56.525-57.344v-258.048c0-31.539 25.395-57.344 56.525-57.344h451.379c31.13 0 56.525 25.805 56.525 57.344v258.048c0.205 31.539-25.19 57.344-56.32 57.344zM512 275.968c-77.824 0-141.107 64.102-141.107 143.36 0 79.053 63.078 143.36 141.107 143.36 77.824 0 141.107-64.102 141.107-143.36 0-79.053-63.283-143.36-141.107-143.36zM718.029 493.875c-10.854 0-19.661 9.011-19.661 20.070s8.806 20.070 19.661 20.070c10.854 0 19.661-9.011 19.661-20.070s-8.806-20.070-19.661-20.070z" />
<glyph unicode="&#xe913;" glyph-name="pause" data-tags="pause" d="M458.547 673.075c0 4.096-3.277 7.373-7.373 7.373h-101.99c-4.096 0-7.373-3.277-7.373-7.373v-448.102c0-4.096 3.277-7.373 7.373-7.373h101.99c4.096 0 7.373 3.277 7.373 7.373v448.102zM681.779 673.075c0 4.096-3.277 7.373-7.373 7.373h-101.99c-4.096 0-7.373-3.277-7.373-7.373v-448.102c0-4.096 3.277-7.373 7.373-7.373h101.99c4.096 0 7.373 3.277 7.373 7.373v448.102zM512 960c-282.829 0-512-229.171-512-512s229.171-512 512-512c282.829 0 512 229.171 512 512s-229.171 512-512 512zM842.957 117.043c-43.008-43.008-92.979-76.8-148.685-100.352-57.754-24.371-118.989-36.659-182.067-36.659-63.283 0-124.518 12.288-182.067 36.659-55.706 23.552-105.677 57.344-148.685 100.352s-76.8 92.979-100.352 148.685c-24.371 57.754-36.659 118.989-36.659 182.067s12.288 124.518 36.659 182.067c23.552 55.706 57.344 105.677 100.352 148.685s92.979 76.8 148.685 100.352c57.754 24.371 118.989 36.659 182.067 36.659 63.283 0 124.518-12.288 182.067-36.659 55.706-23.552 105.677-57.344 148.685-100.352s76.8-92.979 100.352-148.685c24.371-57.754 36.659-118.989 36.659-182.067s-12.288-124.518-36.659-182.067c-23.552-55.706-57.344-105.677-100.352-148.685z" />
<glyph unicode="&#xe914;" glyph-name="radiojournal" data-tags="radiojournal" d="M903.782 475.853c0 11.059-0.205 22.118-0.41 33.382 0 8.192-2.253 78.029-48.947 149.094-80.282 121.651-225.69 151.142-333.824 154.214h-1.638c-144.794-3.277-253.133-42.598-321.946-116.736-74.547-80.486-74.957-173.466-74.752-187.187-0.205-9.626-0.41-19.046-0.41-28.467-50.995-4.096-127.795-23.347-121.651-101.99l25.395-208.691c0 0 6.758-124.109 197.018-74.138 0 0 24.166 8.397 15.36 39.731-0.41 1.638-60.006 167.526-53.453 372.531v2.458c0 0.819-2.458 78.848 58.982 144.384 56.934 60.621 149.914 92.979 276.275 96.051 316.006-9.626 321.331-232.448 321.331-241.869v-1.024c6.554-204.595-52.429-369.869-53.453-372.531-11.469-35.021 29.901-41.779 30.106-41.779 181.453-28.672 183.706 53.658 188.621 77.824l17.613 213.811c0 79.872-73.114 91.546-120.218 90.931zM679.117 365.466l-259.072 149.504c-14.541 8.397-33.178-2.048-33.178-18.842v-298.803c0-16.794 18.432-27.238 33.178-18.842l259.072 149.504c14.541 8.192 14.746 29.082 0 37.478z" />
<glyph unicode="&#xe915;" glyph-name="accessibility" data-tags="font-info_accessibility" d="M358.605 135.27c0-9.626-3.277-18.432-9.83-26.419s-15.77-12.083-27.648-12.083c-7.782 0-14.746 2.048-21.299 6.349-6.349 4.301-10.854 10.035-13.517 17.408l-30.31 88.678h-153.6l-30.31-88.883c-2.867-7.373-7.782-13.312-14.336-17.613-6.554-4.506-13.517-6.554-20.89-6.554-11.674 0-20.89 4.096-27.238 12.083s-9.626 16.794-9.626 26.419c0 4.71 0.819 9.216 2.253 13.312l104.653 291.021c6.554 18.432 16.384 31.949 29.286 40.55s27.443 12.902 43.622 12.902c16.589 0 31.13-4.301 44.032-12.902s22.528-22.118 29.286-40.55l103.629-291.021c1.229-3.482 1.843-7.578 1.843-12.698zM125.133 276.173h107.93l-44.646 131.686c-1.434 4.71-4.506 7.168-8.806 7.168-4.71 0-7.987-2.458-9.421-7.168l-45.056-131.686zM1020.723 170.291l-195.789 547.021c-10.854 29.696-27.034 52.019-48.128 66.355s-44.851 21.504-70.656 21.504c-26.419 0-50.586-7.168-71.68-21.504s-37.069-36.659-47.104-66.355l-196.813-547.226c-2.048-6.349-3.277-13.517-3.277-21.299 0-14.131 4.915-27.443 14.336-39.526 9.83-12.288 23.757-18.637 41.779-18.637 11.469 0 22.118 3.277 32.154 9.626 10.035 6.554 17.408 15.565 21.709 27.034l63.693 181.658h288.154l63.693-180.634c4.301-12.083 11.469-21.504 21.094-28.058 9.626-6.349 20.685-9.626 32.768-9.626 17.818 0 32.154 6.554 42.189 19.661 9.83 12.698 14.746 26.214 14.746 40.346 0.41 6.554-0.614 13.107-2.867 19.661zM706.15 687.002c7.782 0 12.288-3.482 14.95-11.469l91.136-260.096h-214.221l92.16 260.096c2.662 7.987 7.578 11.469 15.974 11.469z" />
<glyph unicode="&#xe916;" glyph-name="add" data-tags="font-info_add" d="M512 960c-282.829 0-512-229.171-512-512s229.171-512 512-512 512 229.171 512 512c0 282.829-229.171 512-512 512zM842.957 117.043c-43.008-43.008-92.979-76.8-148.685-100.352-57.754-24.371-118.989-36.659-182.067-36.659s-124.518 12.288-182.067 36.659c-55.706 23.552-105.677 57.344-148.685 100.352s-76.8 92.979-100.352 148.685c-24.371 57.754-36.659 118.989-36.659 182.067 0 63.283 12.288 124.518 36.659 182.067 23.552 55.706 57.344 105.677 100.352 148.685s92.979 76.8 148.685 100.352c57.754 24.371 118.989 36.659 182.067 36.659s124.518-12.288 182.067-36.659c55.706-23.552 105.677-57.344 148.685-100.352s76.8-92.979 100.352-148.685c24.371-57.754 36.659-118.989 36.659-182.067 0-63.283-12.288-124.518-36.659-182.067-23.552-55.706-57.344-105.677-100.352-148.685zM717.619 482.816h-171.008v170.803c0 19.046-15.77 34.406-34.816 34.406s-34.816-15.36-34.816-34.406v-170.803h-171.622c-19.046 0-34.406-15.77-34.406-34.816s15.36-34.816 34.406-34.816h171.622v-171.622c0-19.046 15.77-34.406 34.816-34.406s34.816 15.36 34.816 34.406v171.622h171.008c19.046 0 34.406 15.77 34.406 34.816s-15.36 34.816-34.406 34.816z" />
<glyph unicode="&#xe917;" glyph-name="edit" data-tags="font-info_edit" d="M1008.23 787.968l-157.696 157.491c-20.070 20.070-52.429 20.070-72.294 0l-70.246-70.246c-20.070-20.070-20.070-52.429 0-72.294l157.491-157.491c20.070-20.070 52.429-20.070 72.294 0l70.246 70.246c20.070 19.866 20.070 52.224 0.205 72.294zM669.491 764.211c-20.070 20.070-52.429 20.070-72.294 0l-586.752-586.547-11.264-241.254 241.254 11.264 586.547 586.547c20.070 20.070 20.070 52.429 0 72.294l-157.491 157.696z" />
</font>
</defs>
</svg>
