<?xml version="1.0" encoding="utf-8"?>
<!-- Generator: Adobe Illustrator 18.1.0, SVG Export Plug-In . SVG Version: 6.00 Build 0)  -->
<svg version="1.1" id="Layer_1" xmlns="http://www.w3.org/2000/svg" xmlns:xlink="http://www.w3.org/1999/xlink" x="0px" y="0px"
	 viewBox="0 0 1024 768" enable-background="new 0 0 1024 768" xml:space="preserve">
<rect x="27.7" y="147.7" fill="#ED1C24" width="151" height="91"/>
<g>
	<rect x="649.3" y="311.2" fill="#BEBEBE" width="155" height="94.1"/>
	<rect x="472.2" y="311.2" fill="#ED1C24" width="155" height="94.1"/>
	<rect x="649.3" y="259.9" fill="#9B9B9B" width="155" height="54"/>
	<rect x="472.2" y="259.9" fill="#B2151B" width="155" height="54"/>
	<rect x="649.3" y="207.3" fill="#6E6E6E" width="155" height="52.6"/>
	<rect x="472.2" y="207.3" fill="#770E12" width="155" height="52.6"/>
	<rect x="649.3" y="153.4" fill="#3C3C3C" width="155" height="54"/>
	<rect x="472.2" y="153.4" fill="#3B0709" width="155" height="54"/>
	<rect x="649.3" y="510.5" fill="#F0F0F0" width="155" height="52.6"/>
	<rect x="472.2" y="510.5" fill="#F8A4A7" width="155" height="52.6"/>
	<rect x="649.3" y="563.1" fill="#F8F8F8" width="155" height="55.4"/>
	<rect x="472.2" y="563.1" fill="#FBD2D3" width="155" height="55.4"/>
	<rect x="649.3" y="457.9" fill="#E1E1E1" width="155" height="52.6"/>
	<rect x="472.2" y="457.9" fill="#F4777C" width="155" height="52.6"/>
	<rect x="649.3" y="405.3" fill="#CDCDCD" width="155" height="52.6"/>
	<rect x="827.9" y="311.2" fill="#647D87" width="155" height="92.7"/>
	<rect x="827.9" y="258.6" fill="#556973" width="155" height="54"/>
	<rect x="827.9" y="206" fill="#374650" width="155" height="52.6"/>
	<rect x="827.9" y="152" fill="#191E23" width="155" height="54"/>
	<rect x="827.9" y="510.5" fill="#B7C7CC" width="155" height="51.2"/>
	<rect x="827.9" y="561.7" fill="#D7DEE1" width="155" height="55.4"/>
	<rect x="827.9" y="456.5" fill="#96AAB4" width="155" height="54"/>
	<rect x="827.9" y="403.9" fill="#7D96A0" width="155" height="52.6"/>
	<rect x="472.2" y="405.3" fill="#F14950" width="155" height="52.6"/>
</g>
<g>
	<rect x="206.6" y="152" fill="none" width="288.1" height="101.7"/>
	<text transform="matrix(1 0 0 1 206.6048 166.1479)"><tspan x="0" y="0" font-family="'Rubrik-ExtraLight'" font-size="20">Rouge Radio-Canada</tspan><tspan x="0" y="28" font-family="'Rubrik-Medium'" font-size="20">R</tspan><tspan x="13.6" y="28" font-family="'Rubrik-SemiBold'" font-size="20"> </tspan><tspan x="19.3" y="28" font-family="'Rubrik-ExtraLight'" font-size="20">237 </tspan><tspan x="57.8" y="28" font-family="'Rubrik-Medium'" font-size="20">G</tspan><tspan x="71.8" y="28" font-family="'Rubrik-SemiBold'" font-size="20"> </tspan><tspan x="77.5" y="28" font-family="'Rubrik-ExtraLight'" font-size="20">28 </tspan><tspan x="107.6" y="28" font-family="'Rubrik-Medium'" font-size="20">B</tspan><tspan x="121" y="28" font-family="'Rubrik-SemiBold'" font-size="20"> </tspan><tspan x="126.8" y="28" font-family="'Rubrik-ExtraLight'" font-size="20">36</tspan><tspan x="0" y="56" font-family="'Rubrik-Medium'" font-size="20">#</tspan><tspan x="13.5" y="56" font-family="'Rubrik-SemiBold'" font-size="20"> </tspan><tspan x="19.2" y="56" font-family="'Rubrik-ExtraLight'" font-size="20">ED1C24</tspan></text>
</g>
<rect x="27.7" y="262.7" fill="#BEBEBE" width="151" height="91"/>
<g>
	<rect x="206.6" y="267" fill="none" width="288.1" height="115"/>
	<text transform="matrix(1 0 0 1 206.6048 281.1479)"><tspan x="0" y="0" font-family="'Rubrik-ExtraLight'" font-size="20">gris neutre</tspan><tspan x="0" y="28" font-family="'Rubrik-Medium'" font-size="20">R</tspan><tspan x="13.6" y="28" font-family="'Rubrik-SemiBold'" font-size="20"> </tspan><tspan x="19.3" y="28" font-family="'Rubrik-ExtraLight'" font-size="20">190 </tspan><tspan x="59.5" y="28" font-family="'Rubrik-Medium'" font-size="20">G</tspan><tspan x="73.5" y="28" font-family="'Rubrik-SemiBold'" font-size="20"> </tspan><tspan x="79.2" y="28" font-family="'Rubrik-ExtraLight'" font-size="20">190 </tspan><tspan x="119.4" y="28" font-family="'Rubrik-Medium'" font-size="20">B</tspan><tspan x="132.8" y="28" font-family="'Rubrik-SemiBold'" font-size="20"> </tspan><tspan x="138.6" y="28" font-family="'Rubrik-ExtraLight'" font-size="20">190</tspan><tspan x="0" y="56" font-family="'Rubrik-Medium'" font-size="20">#</tspan><tspan x="13.5" y="56" font-family="'Rubrik-SemiBold'" font-size="20"> </tspan><tspan x="19.2" y="56" font-family="'Rubrik-ExtraLight'" font-size="20">BEBEBE</tspan></text>
</g>
<rect x="27.7" y="377.7" fill="#647D87" width="151" height="91"/>
<g>
	<rect x="206.6" y="382" fill="none" width="288.1" height="86.7"/>
	<text transform="matrix(1 0 0 1 206.6048 396.1479)"><tspan x="0" y="0" font-family="'Rubrik-ExtraLight'" font-size="20">gris froid</tspan><tspan x="0" y="28" font-family="'Rubrik-Medium'" font-size="20">R</tspan><tspan x="13.6" y="28" font-family="'Rubrik-SemiBold'" font-size="20"> </tspan><tspan x="19.3" y="28" font-family="'Rubrik-ExtraLight'" font-size="20">100 </tspan><tspan x="60.2" y="28" font-family="'Rubrik-Medium'" font-size="20">G</tspan><tspan x="74.2" y="28" font-family="'Rubrik-SemiBold'" font-size="20"> </tspan><tspan x="79.9" y="28" font-family="'Rubrik-ExtraLight'" font-size="20">125 </tspan><tspan x="116.9" y="28" font-family="'Rubrik-Medium'" font-size="20">B</tspan><tspan x="130.3" y="28" font-family="'Rubrik-SemiBold'" font-size="20"> </tspan><tspan x="136" y="28" font-family="'Rubrik-ExtraLight'" font-size="20">135</tspan><tspan x="0" y="56" font-family="'Rubrik-Medium'" font-size="20">#</tspan><tspan x="13.5" y="56" font-family="'Rubrik-SemiBold'" font-size="20"> </tspan><tspan x="19.2" y="56" font-family="'Rubrik-ExtraLight'" font-size="20">647D87</tspan></text>
</g>
<rect x="23.9" y="64.5" fill="none" width="1115.9" height="103.4"/>
<text transform="matrix(1 0 0 1 23.9386 95.5603)" font-family="'Rubrik-ExtraLight'" font-size="44">palette DE COULEURS</text>
<rect x="28.1" y="492.8" fill="#A0C3D2" width="151" height="91"/>
<g>
	<rect x="207" y="495" fill="none" width="576.1" height="86.7"/>
	<text transform="matrix(1 0 0 1 207.0474 509.0884)"><tspan x="0" y="0" font-family="'Rubrik-ExtraLight'" font-size="20">BLEU FONCÉ</tspan><tspan x="0" y="28" font-family="'Rubrik-Medium'" font-size="20">R</tspan><tspan x="13.6" y="28" font-family="'Rubrik-SemiBold'" font-size="20"> </tspan><tspan x="19.3" y="28" font-family="'Rubrik-ExtraLight'" font-size="20">50 </tspan><tspan x="50" y="28" font-family="'Rubrik-Medium'" font-size="20">G</tspan><tspan x="64" y="28" font-family="'Rubrik-SemiBold'" font-size="20"> </tspan><tspan x="69.8" y="28" font-family="'Rubrik-ExtraLight'" font-size="20">85 </tspan><tspan x="100.3" y="28" font-family="'Rubrik-Medium'" font-size="20">B</tspan><tspan x="113.7" y="28" font-family="'Rubrik-SemiBold'" font-size="20"> </tspan><tspan x="119.4" y="28" font-family="'Rubrik-ExtraLight'" font-size="20">115</tspan><tspan x="0" y="56" font-family="'Rubrik-Medium'" font-size="20"># </tspan><tspan x="19.1" y="56" font-family="'Rubrik-ExtraLight'" font-size="20">325573</tspan></text>
</g>
<rect x="28.1" y="492.8" fill="#325573" width="151" height="91"/>
<rect x="28.1" y="561.8" fill="#557D9B" width="151" height="22"/>
<rect x="28.1" y="607.8" fill="#A0C3D2" width="151" height="91"/>
<g>
	<rect x="207" y="610" fill="none" width="576.1" height="86.7"/>
	<text transform="matrix(1 0 0 1 207.0474 624.0884)"><tspan x="0" y="0" font-family="'Rubrik-ExtraLight'" font-size="20">BLEU PÂLE</tspan><tspan x="0" y="28" font-family="'Rubrik-Medium'" font-size="20">R</tspan><tspan x="13.6" y="28" font-family="'Rubrik-SemiBold'" font-size="20"> </tspan><tspan x="19.3" y="28" font-family="'Rubrik-ExtraLight'" font-size="20">160 </tspan><tspan x="59.7" y="28" font-family="'Rubrik-Medium'" font-size="20">G</tspan><tspan x="73.7" y="28" font-family="'Rubrik-SemiBold'" font-size="20"> </tspan><tspan x="79.4" y="28" font-family="'Rubrik-ExtraLight'" font-size="20">195 </tspan><tspan x="117.9" y="28" font-family="'Rubrik-Medium'" font-size="20">B</tspan><tspan x="131.3" y="28" font-family="'Rubrik-SemiBold'" font-size="20"> </tspan><tspan x="137" y="28" font-family="'Rubrik-ExtraLight'" font-size="20">210</tspan><tspan x="0" y="56" font-family="'Rubrik-Medium'" font-size="20"># </tspan><tspan x="19.1" y="56" font-family="'Rubrik-ExtraLight'" font-size="20">A0C8D7</tspan></text>
</g>
<rect x="28.1" y="607.8" fill="#A0C8D7" width="151" height="91"/>
<rect x="28.1" y="676.8" fill="#B9E1F0" width="151" height="22"/>
</svg>
