<?xml version="1.0" encoding="UTF-8"?>
<svg xmlns="http://www.w3.org/2000/svg" xmlns:xlink="http://www.w3.org/1999/xlink" version="1.2" >
<font id="Rubrik Italic">
<font-face  font-family="Rubrik" units-per-em="1000" ascent="750" descent="-250" font-style="italic" font-weight="400" font-stretch="normal" cap-height="702" x-height="528" underline-position="-100" underline-thickness="50" />
<missing-glyph  horiz-adv-x="301" />
<glyph glyph-name="uni00A0" unicode="&#xa0;" horiz-adv-x="255" />
<glyph glyph-name="A" unicode="A" horiz-adv-x="657" d="M511 37 C516 11 533 -4 554 -4 C584 -4 598 22 592 54 L481 627 C470 685 433 711 390 711 C347 711 314 695 282 633 L-20 59 C-38 25 -18 -4 12 -4 C28 -4 43 7 53 26 L162 234 L474 234 Z M354 607 C362 623 370 629 383 629 C396 629 403 620 405 607 L462 305 L197 305 Z " />
<glyph glyph-name="B" unicode="B" horiz-adv-x="663" d="M108 0 L330 0 C487 0 588 80 588 216 C588 296 549 341 503 365 L503 367 C581 398 613 467 613 532 C613 634 539 702 380 702 L226 702 C183 702 159 681 152 638 L56 63 C50 26 69 0 108 0 Z M179 332 L387 332 C458 332 507 287 507 217 C507 123 431 76 331 76 L137 76 Z M190 399 L228 625 L389 625 C487 625 532 588 532 523 C532 440 459 399 374 399 Z " />
<glyph glyph-name="C" unicode="C" horiz-adv-x="648" d="M312 69 C192 69 124 147 133 271 C136 311 149 389 160 431 C192 551 268 632 382 632 C460 632 524 595 552 515 C559 496 571 485 590 485 C614 485 628 504 628 525 C628 535 624 548 620 558 C591 643 508 711 386 711 C231 711 129 616 84 463 C68 408 55 328 52 279 C41 104 149 -10 316 -10 C464 -10 538 80 570 151 C574 161 578 172 578 182 C578 205 560 218 540 218 C519 218 508 203 500 188 C466 118 406 69 312 69 Z " />
<glyph glyph-name="D" unicode="D" horiz-adv-x="691" d="M107 0 L261 0 C474 0 592 72 638 276 C645 309 653 359 657 403 C671 576 568 702 361 702 L226 702 C186 702 159 678 152 638 L56 64 C49 25 71 0 107 0 Z M139 76 L230 625 L361 625 C511 625 591 539 574 395 C572 376 566 327 558 293 C522 137 436 76 279 76 Z " />
<glyph glyph-name="E" unicode="E" horiz-adv-x="609" d="M225 702 C182 702 159 682 152 638 L57 66 C50 27 64 0 109 0 L463 0 C486 0 505 15 505 38 C505 59 490 76 464 76 L139 76 L179 316 L492 316 C514 316 532 331 532 352 C532 372 518 389 493 389 L191 389 L230 625 L559 625 C582 625 601 640 601 662 C601 684 586 702 560 702 Z " />
<glyph glyph-name="F" unicode="F" horiz-adv-x="579" d="M56 44 C51 16 69 -4 95 -4 C116 -4 131 10 135 35 L179 299 L489 299 C512 299 529 315 529 336 C529 356 515 374 490 374 L191 374 L233 625 L561 625 C583 625 602 640 602 662 C602 684 587 702 561 702 L228 702 C186 702 162 682 155 639 Z " />
<glyph glyph-name="G" unicode="G" horiz-adv-x="680" d="M393 369 C366 367 348 353 348 330 C348 309 366 293 389 293 L526 293 L516 238 C497 135 423 69 316 69 C193 69 122 154 134 277 C139 327 148 386 161 437 C193 564 272 632 380 632 C466 632 528 589 549 518 C554 502 570 493 585 493 C607 493 624 508 624 534 C624 544 621 554 617 565 C586 653 496 711 384 711 C227 711 127 621 84 465 C68 410 56 332 52 272 C42 107 149 -10 318 -10 C490 -10 573 107 596 232 C600 254 603 275 608 316 C612 348 596 369 558 369 Z " />
<glyph glyph-name="H" unicode="H" horiz-adv-x="748" d="M520 43 C516 17 533 -4 559 -4 C580 -4 595 10 599 35 L703 655 C708 684 691 704 664 704 C644 704 628 691 624 666 L578 390 L194 390 L238 655 C243 684 226 704 199 704 C179 704 163 691 159 666 L56 44 C51 16 69 -4 95 -4 C116 -4 131 10 135 35 L181 312 L565 312 Z " />
<glyph glyph-name="I" unicode="I" horiz-adv-x="283" d="M238 655 C243 684 226 704 199 704 C179 704 163 691 159 666 L56 46 C51 17 68 -4 95 -4 C114 -4 131 10 135 34 Z " />
<glyph glyph-name="J" unicode="J" horiz-adv-x="481" d="M437 657 C441 684 425 704 399 704 C378 704 362 691 358 666 L282 201 C268 117 231 69 168 69 C107 69 74 103 56 140 C48 157 35 164 20 164 C0 164 -19 148 -19 123 C-19 114 -17 107 -11 93 C12 43 76 -10 167 -10 C272 -10 340 56 362 194 Z " />
<glyph glyph-name="K" unicode="K" horiz-adv-x="633" d="M181 318 L208 318 C231 318 242 316 260 294 L480 15 C489 3 502 -4 516 -4 C542 -4 556 16 556 34 C556 45 552 55 545 63 L311 356 L610 633 C622 644 628 655 628 669 C628 689 611 704 591 704 C578 704 567 699 556 689 L275 423 C250 399 239 398 219 398 L195 398 L238 657 C243 684 226 704 200 704 C179 704 163 690 159 666 L56 43 C52 17 68 -4 94 -4 C115 -4 131 10 135 35 Z " />
<glyph glyph-name="L" unicode="L" horiz-adv-x="537" d="M138 76 L235 655 C240 684 224 704 197 704 C176 704 161 691 157 666 L56 64 C49 23 68 0 109 0 L462 0 C484 0 503 15 503 38 C503 59 488 76 462 76 Z " />
<glyph glyph-name="M" unicode="M" horiz-adv-x="891" d="M716 39 C715 13 734 -4 758 -4 C783 -4 796 14 797 39 L810 626 C811 679 778 711 732 711 C689 711 662 685 640 632 L424 100 C422 94 418 90 412 90 C406 90 403 94 403 100 L360 630 C356 680 323 711 280 711 C239 711 206 688 188 629 L10 48 C1 19 20 -4 48 -4 C67 -4 82 8 88 28 L263 609 C266 619 270 625 277 625 C283 625 287 620 288 610 L332 75 C336 29 366 -4 406 -4 C445 -4 470 21 487 64 L710 610 C714 619 717 625 723 625 C729 625 732 620 732 609 Z " />
<glyph glyph-name="N" unicode="N" horiz-adv-x="765" d="M548 98 L290 655 C279 678 265 704 225 704 C191 704 163 685 154 634 L56 44 C51 16 69 -4 95 -4 C116 -4 131 10 135 35 L196 402 C208 476 220 550 228 606 L230 607 L486 44 C498 17 517 -4 551 -4 C590 -4 613 24 621 69 L720 654 C725 684 708 704 681 704 C661 704 645 691 641 666 L581 306 C574 263 561 192 549 98 Z " />
<glyph glyph-name="O" unicode="O" horiz-adv-x="690" d="M329 -10 C487 -10 597 88 631 264 C640 309 647 365 652 409 C669 576 555 711 379 711 C207 711 99 595 68 429 C59 382 54 346 49 303 C25 96 179 -10 329 -10 Z M328 69 C232 69 110 137 130 295 C137 350 140 376 151 426 C178 549 260 632 376 632 C501 632 581 543 570 419 C566 366 558 312 545 258 C517 141 439 69 328 69 Z " />
<glyph glyph-name="P" unicode="P" horiz-adv-x="637" d="M173 264 L341 264 C528 264 628 365 628 504 C628 616 541 702 400 702 L222 702 C183 702 162 678 156 642 L56 44 C51 16 69 -4 95 -4 C116 -4 131 10 135 35 Z M186 342 L233 625 L394 625 C496 625 544 571 544 499 C544 393 461 342 338 342 Z " />
<glyph glyph-name="Q" unicode="Q" horiz-adv-x="697" d="M330 -10 C376 -10 414 -2 454 16 L525 -91 C532 -101 543 -107 556 -107 C577 -107 592 -90 592 -72 C592 -62 589 -55 584 -48 L517 53 C576 98 616 170 635 264 C644 309 651 367 656 411 C673 574 558 711 384 711 C212 711 104 597 72 429 C63 382 57 339 52 293 C32 97 179 -10 330 -10 Z M326 69 C228 69 117 135 133 286 C139 341 144 376 155 426 C182 549 264 632 380 632 C505 632 583 543 574 419 C570 366 562 312 549 258 C535 200 510 152 471 118 L383 252 C374 265 363 272 350 272 C331 272 314 256 314 239 C314 229 318 220 323 212 L408 83 C384 73 355 69 326 69 Z " />
<glyph glyph-name="R" unicode="R" horiz-adv-x="675" d="M300 280 C328 280 336 270 349 248 L492 20 C502 4 517 -4 532 -4 C556 -4 571 14 571 34 C571 44 568 53 562 62 L419 289 C555 307 629 393 629 506 C629 625 538 702 389 702 L224 702 C185 702 161 678 155 642 L56 45 C51 16 69 -4 95 -4 C116 -4 131 10 135 35 L175 280 Z M187 352 L232 625 L390 625 C484 625 545 582 545 501 C545 414 481 352 337 352 Z " />
<glyph glyph-name="S" unicode="S" horiz-adv-x="623" d="M334 394 C255 422 187 450 187 515 C187 574 237 632 345 632 C422 632 478 602 509 583 C518 577 531 570 546 570 C571 570 585 590 585 609 C585 624 577 637 560 650 C522 678 435 711 345 711 C212 711 105 640 105 515 C105 399 211 352 318 314 C397 286 462 261 462 191 C462 116 389 69 293 69 C212 69 135 105 100 129 C85 139 75 150 56 150 C32 150 17 133 17 112 C17 97 24 86 34 77 C77 37 183 -10 298 -10 C441 -10 544 75 544 193 C544 313 444 355 334 394 Z " />
<glyph glyph-name="T" unicode="T" horiz-adv-x="566" d="M282 625 L185 44 C180 16 198 -4 223 -4 C245 -4 259 10 263 36 L363 625 L569 625 C592 625 610 640 610 662 C610 684 596 702 569 702 L86 702 C63 702 45 686 45 663 C45 642 59 625 86 625 Z " />
<glyph glyph-name="U" unicode="U" horiz-adv-x="709" d="M689 655 C694 682 678 704 651 704 C630 704 614 690 610 666 L545 279 C522 141 447 69 340 69 C239 69 123 126 153 306 L212 655 C217 685 199 704 174 704 C153 704 137 691 133 666 L75 318 C36 85 192 -10 342 -10 C477 -10 591 69 625 271 Z " />
<glyph glyph-name="V" unicode="V" horiz-adv-x="653" d="M285 85 C282 79 279 75 274 75 C268 75 264 79 263 85 L149 668 C144 693 128 704 108 704 C76 704 61 677 67 647 L185 68 C195 19 225 -10 270 -10 C310 -10 336 13 363 63 L673 640 C678 649 680 658 680 666 C680 688 661 704 639 704 C621 704 607 696 595 673 Z " />
<glyph glyph-name="W" unicode="W" horiz-adv-x="917" d="M584 631 C580 680 552 704 517 704 C481 704 457 681 440 640 L206 82 C203 75 196 75 195 83 L167 666 C166 691 146 704 126 704 C101 704 81 686 83 654 L118 61 C120 20 153 -10 193 -10 C225 -10 252 9 270 52 L505 612 C507 617 513 615 513 612 L564 63 C569 12 604 -10 639 -10 C673 -10 701 12 716 52 L948 646 C951 653 952 661 952 666 C952 688 932 704 910 704 C894 704 877 697 867 669 L645 82 C643 75 635 75 634 82 Z " />
<glyph glyph-name="X" unicode="X" horiz-adv-x="658" d="M646 630 C658 643 663 654 663 666 C663 689 644 704 625 704 C611 704 600 699 588 687 L334 417 L175 680 C165 697 151 704 135 704 C111 704 96 685 96 665 C96 656 98 646 104 637 L271 361 L0 71 C-12 58 -17 45 -17 35 C-17 11 3 -4 21 -4 C38 -4 50 4 62 17 L315 288 L478 21 C489 4 504 -4 518 -4 C543 -4 559 14 559 36 C559 45 556 55 550 64 L378 346 Z " />
<glyph glyph-name="Y" unicode="Y" horiz-adv-x="620" d="M243 341 C255 322 259 308 256 289 L215 44 C210 17 227 -4 254 -4 C275 -4 290 10 294 35 L336 289 C339 308 348 320 365 338 L650 632 C661 642 666 655 666 665 C666 692 646 704 625 704 C614 704 601 699 591 689 L306 391 L124 681 C115 696 101 704 87 704 C63 704 46 687 46 665 C46 656 50 645 55 637 Z " />
<glyph glyph-name="Z" unicode="Z" horiz-adv-x="583" d="M462 0 C485 0 504 15 504 38 C504 59 489 76 463 76 L114 76 L564 598 C579 616 592 633 592 655 C592 680 575 702 536 702 L146 702 C123 702 104 685 104 663 C104 642 119 625 145 625 L481 625 L31 103 C15 85 4 70 4 49 C4 23 23 0 62 0 Z " />
<glyph glyph-name="Agrave" unicode="&#xc0;" horiz-adv-x="657" d="M511 37 C516 11 533 -4 554 -4 C584 -4 598 22 592 54 L481 627 C470 685 433 711 390 711 C347 711 314 695 282 633 L-20 59 C-38 25 -18 -4 12 -4 C28 -4 43 7 53 26 L162 234 L474 234 Z M354 607 C362 623 370 629 383 629 C396 629 403 620 405 607 L462 305 L197 305 Z M417 754 C436 754 450 768 450 786 C450 797 445 808 432 815 L304 887 C296 891 289 893 282 893 C264 893 249 879 249 859 C249 849 254 836 268 829 L394 760 C402 755 410 754 417 754 Z " />
<glyph glyph-name="Aacute" unicode="&#xc1;" horiz-adv-x="657" d="M511 37 C516 11 533 -4 554 -4 C584 -4 598 22 592 54 L481 627 C470 685 433 711 390 711 C347 711 314 695 282 633 L-20 59 C-38 25 -18 -4 12 -4 C28 -4 43 7 53 26 L162 234 L474 234 Z M354 607 C362 623 370 629 383 629 C396 629 403 620 405 607 L462 305 L197 305 Z M364 818 C347 811 342 798 342 787 C342 767 358 755 374 755 C380 755 387 756 392 759 L534 826 C555 836 562 849 562 861 C562 877 550 892 529 892 C523 892 515 891 508 887 Z " />
<glyph glyph-name="Acircumflex" unicode="&#xc2;" horiz-adv-x="657" d="M511 37 C516 11 533 -4 554 -4 C584 -4 598 22 592 54 L481 627 C470 685 433 711 390 711 C347 711 314 695 282 633 L-20 59 C-38 25 -18 -4 12 -4 C28 -4 43 7 53 26 L162 234 L474 234 Z M354 607 C362 623 370 629 383 629 C396 629 403 620 405 607 L462 305 L197 305 Z M418 822 L484 760 C493 753 500 749 511 749 C528 749 542 763 542 781 C542 791 538 799 528 809 L453 879 C444 888 433 892 422 892 C410 892 400 888 389 881 L285 811 C273 803 266 793 266 780 C266 763 279 750 296 750 C304 750 311 752 320 757 Z " />
<glyph glyph-name="Atilde" unicode="&#xc3;" horiz-adv-x="657" d="M511 37 C516 11 533 -4 554 -4 C584 -4 598 22 592 54 L481 627 C470 685 433 711 390 711 C347 711 314 695 282 633 L-20 59 C-38 25 -18 -4 12 -4 C28 -4 43 7 53 26 L162 234 L474 234 Z M354 607 C362 623 370 629 383 629 C396 629 403 620 405 607 L462 305 L197 305 Z M466 752 C490 752 517 765 542 783 C555 794 563 804 563 818 C563 835 547 848 532 848 C507 848 494 818 468 818 C437 818 405 856 358 856 C332 856 302 843 280 822 C270 814 262 804 262 792 C262 776 277 761 294 761 C317 761 327 790 356 790 C387 790 418 752 466 752 Z " />
<glyph glyph-name="Adieresis" unicode="&#xc4;" horiz-adv-x="657" d="M511 37 C516 11 533 -4 554 -4 C584 -4 598 22 592 54 L481 627 C470 685 433 711 390 711 C347 711 314 695 282 633 L-20 59 C-38 25 -18 -4 12 -4 C28 -4 43 7 53 26 L162 234 L474 234 Z M354 607 C362 623 370 629 383 629 C396 629 403 620 405 607 L462 305 L197 305 Z M338 852 C309 852 288 828 288 803 C288 777 306 761 331 761 C358 761 380 783 380 810 C380 835 362 852 338 852 Z M498 852 C469 852 448 828 448 803 C448 777 466 761 491 761 C518 761 540 783 540 810 C540 835 522 852 498 852 Z " />
<glyph glyph-name="Amacron" unicode="&#x100;" horiz-adv-x="657" d="M511 37 C516 11 533 -4 554 -4 C584 -4 598 22 592 54 L481 627 C470 685 433 711 390 711 C347 711 314 695 282 633 L-20 59 C-38 25 -18 -4 12 -4 C28 -4 43 7 53 26 L162 234 L474 234 Z M354 607 C362 623 370 629 383 629 C396 629 403 620 405 607 L462 305 L197 305 Z M494 767 C517 768 532 785 532 804 C532 821 520 836 498 836 L337 836 C312 836 297 818 297 800 C297 783 310 767 333 767 Z " />
<glyph glyph-name="Abreve" unicode="&#x102;" horiz-adv-x="657" d="M511 37 C516 11 533 -4 554 -4 C584 -4 598 22 592 54 L481 627 C470 685 433 711 390 711 C347 711 314 695 282 633 L-20 59 C-38 25 -18 -4 12 -4 C28 -4 43 7 53 26 L162 234 L474 234 Z M354 607 C362 623 370 629 383 629 C396 629 403 620 405 607 L462 305 L197 305 Z M413 753 C478 753 519 794 536 835 C540 843 543 853 543 861 C543 878 530 890 513 890 C492 890 484 874 480 864 C468 835 451 814 414 814 C376 814 366 839 360 859 C357 874 351 890 331 890 C315 890 298 880 298 856 C298 845 301 835 303 828 C320 777 364 753 413 753 Z " />
<glyph glyph-name="Aring" unicode="&#xc5;" horiz-adv-x="657" d="M511 37 C516 11 533 -4 554 -4 C584 -4 598 22 592 54 L481 627 C470 685 433 711 390 711 C347 711 314 695 282 633 L-20 59 C-38 25 -18 -4 12 -4 C28 -4 43 7 53 26 L162 234 L474 234 Z M354 607 C362 623 370 629 383 629 C396 629 403 620 405 607 L462 305 L197 305 Z M416 749 C478 749 515 800 515 851 C515 899 482 937 428 937 C364 937 327 886 327 836 C327 787 363 749 416 749 Z M417 795 C390 795 374 814 374 837 C374 864 394 890 426 890 C453 890 468 871 468 848 C468 821 450 795 417 795 Z " />
<glyph glyph-name="Aogonek" unicode="&#x104;" horiz-adv-x="642" d="M462 305 L197 305 L354 607 C362 623 370 629 383 629 C396 629 403 620 405 607 Z M499 -206 C526 -206 550 -199 569 -184 C580 -175 586 -165 586 -153 C586 -138 573 -127 559 -127 C551 -127 543 -131 537 -135 C525 -143 511 -147 498 -147 C476 -147 454 -135 454 -103 C454 -49 523 -17 561 -2 C591 10 597 25 592 54 L481 627 C470 685 433 711 390 711 C347 711 314 695 282 633 L-20 59 C-38 25 -18 -4 12 -4 C28 -4 43 7 53 26 L162 234 L474 234 L512 31 C447 2 392 -42 392 -110 C392 -174 444 -206 499 -206 Z " />
<glyph glyph-name="AE" unicode="&#xc6;" horiz-adv-x="1015" d="M493 248 L463 66 C456 27 470 0 515 0 L869 0 C892 0 911 15 911 38 C911 59 896 76 870 76 L545 76 L585 316 L898 316 C920 316 938 331 938 352 C938 372 924 389 899 389 L596 389 L634 625 L965 625 C988 625 1007 640 1007 662 C1007 684 992 702 966 702 L589 702 C526 702 488 693 451 644 L2 60 C-4 51 -8 42 -8 30 C-8 10 8 -4 28 -4 C40 -4 54 3 64 16 L243 248 Z M505 321 L294 321 L510 602 C523 618 538 624 551 624 L555 624 Z " />
<glyph glyph-name="Cacute" unicode="&#x106;" horiz-adv-x="648" d="M312 69 C192 69 124 147 133 271 C136 311 149 389 160 431 C192 551 268 632 382 632 C460 632 524 595 552 515 C559 496 571 485 590 485 C614 485 628 504 628 525 C628 535 624 548 620 558 C591 643 508 711 386 711 C231 711 129 616 84 463 C68 408 55 328 52 279 C41 104 149 -10 316 -10 C464 -10 538 80 570 151 C574 161 578 172 578 182 C578 205 560 218 540 218 C519 218 508 203 500 188 C466 118 406 69 312 69 Z M354 818 C337 811 332 798 332 787 C332 767 348 755 364 755 C370 755 377 756 382 759 L524 826 C545 836 552 849 552 861 C552 877 540 892 519 892 C513 892 505 891 498 887 Z " />
<glyph glyph-name="Ccaron" unicode="&#x10c;" horiz-adv-x="648" d="M312 69 C192 69 124 147 133 271 C136 311 149 389 160 431 C192 551 268 632 382 632 C460 632 524 595 552 515 C559 496 571 485 590 485 C614 485 628 504 628 525 C628 535 624 548 620 558 C591 643 508 711 386 711 C231 711 129 616 84 463 C68 408 55 328 52 279 C41 104 149 -10 316 -10 C464 -10 538 80 570 151 C574 161 578 172 578 182 C578 205 560 218 540 218 C519 218 508 203 500 188 C466 118 406 69 312 69 Z M409 751 C420 751 429 756 440 763 L538 828 C550 836 557 847 557 860 C557 876 545 891 525 891 C519 891 511 889 503 883 L413 822 L344 881 C337 887 329 891 321 891 C301 891 287 875 287 858 C287 848 290 839 299 832 L380 763 C388 756 397 751 409 751 Z " />
<glyph glyph-name="Cdotaccent" unicode="&#x10a;" horiz-adv-x="648" d="M312 69 C192 69 124 147 133 271 C136 311 149 389 160 431 C192 551 268 632 382 632 C460 632 524 595 552 515 C559 496 571 485 590 485 C614 485 628 504 628 525 C628 535 624 548 620 558 C591 643 508 711 386 711 C231 711 129 616 84 463 C68 408 55 328 52 279 C41 104 149 -10 316 -10 C464 -10 538 80 570 151 C574 161 578 172 578 182 C578 205 560 218 540 218 C519 218 508 203 500 188 C466 118 406 69 312 69 Z M422 852 C393 852 372 828 372 803 C372 777 390 761 415 761 C442 761 464 783 464 810 C464 835 446 852 422 852 Z " />
<glyph glyph-name="Ccedilla" unicode="&#xc7;" horiz-adv-x="648" d="M234 -251 C241 -251 249 -250 255 -248 C311 -231 386 -195 386 -125 C386 -81 351 -50 305 -50 L328 -9 C467 -4 539 82 570 151 C574 161 578 172 578 182 C578 205 560 218 540 218 C519 218 508 203 500 188 C466 118 405 69 312 69 C186 69 124 155 133 271 C136 311 149 389 160 431 C192 551 268 632 382 632 C460 632 524 595 552 515 C559 496 571 485 590 485 C614 485 628 504 628 525 C628 535 624 548 620 558 C591 643 508 711 386 711 C231 711 129 616 84 463 C68 408 55 328 52 279 C42 120 131 9 272 -7 L242 -66 C232 -86 243 -105 263 -105 C274 -105 282 -99 296 -99 C312 -99 327 -107 327 -126 C327 -167 264 -186 233 -196 C217 -202 207 -210 207 -225 C207 -240 219 -251 234 -251 Z " />
<glyph glyph-name="Dcaron" unicode="&#x10e;" horiz-adv-x="691" d="M107 0 L261 0 C474 0 592 72 638 276 C645 309 653 359 657 403 C671 576 568 702 361 702 L226 702 C186 702 159 678 152 638 L56 64 C49 25 71 0 107 0 Z M139 76 L230 625 L361 625 C511 625 591 539 574 395 C572 376 566 327 558 293 C522 137 436 76 279 76 Z M410 751 C421 751 430 756 441 763 L539 828 C551 836 558 847 558 860 C558 876 546 891 526 891 C520 891 512 889 504 883 L414 822 L345 881 C338 887 330 891 322 891 C302 891 288 875 288 858 C288 848 291 839 300 832 L381 763 C389 756 398 751 410 751 Z " />
<glyph glyph-name="Dcroat" unicode="&#x110;" horiz-adv-x="684" d="M100 0 L254 0 C467 0 585 72 631 276 C638 309 646 359 650 403 C664 576 561 702 354 702 L218 702 C178 702 152 678 145 638 L103 385 L38 385 C11 385 -5 366 -5 346 C-5 328 7 311 33 311 L90 311 L49 64 C42 25 64 0 100 0 Z M132 76 L171 311 L336 311 C363 311 377 330 377 349 C377 368 363 385 339 385 L183 385 L223 625 L354 625 C504 625 584 539 567 395 C565 376 559 327 551 293 C515 137 429 76 272 76 Z " />
<glyph glyph-name="Egrave" unicode="&#xc8;" horiz-adv-x="609" d="M225 702 C182 702 159 682 152 638 L57 66 C50 27 64 0 109 0 L463 0 C486 0 505 15 505 38 C505 59 490 76 464 76 L139 76 L179 316 L492 316 C514 316 532 331 532 352 C532 372 518 389 493 389 L191 389 L230 625 L559 625 C582 625 601 640 601 662 C601 684 586 702 560 702 Z M428 754 C447 754 461 768 461 786 C461 797 456 808 443 815 L315 887 C307 891 300 893 293 893 C275 893 260 879 260 859 C260 849 265 836 279 829 L405 760 C413 755 421 754 428 754 Z " />
<glyph glyph-name="Eacute" unicode="&#xc9;" horiz-adv-x="609" d="M225 702 C182 702 159 682 152 638 L57 66 C50 27 64 0 109 0 L463 0 C486 0 505 15 505 38 C505 59 490 76 464 76 L139 76 L179 316 L492 316 C514 316 532 331 532 352 C532 372 518 389 493 389 L191 389 L230 625 L559 625 C582 625 601 640 601 662 C601 684 586 702 560 702 Z M338 818 C321 811 316 798 316 787 C316 767 332 755 348 755 C354 755 361 756 366 759 L508 826 C529 836 536 849 536 861 C536 877 524 892 503 892 C497 892 489 891 482 887 Z " />
<glyph glyph-name="Ecircumflex" unicode="&#xca;" horiz-adv-x="609" d="M225 702 C182 702 159 682 152 638 L57 66 C50 27 64 0 109 0 L463 0 C486 0 505 15 505 38 C505 59 490 76 464 76 L139 76 L179 316 L492 316 C514 316 532 331 532 352 C532 372 518 389 493 389 L191 389 L230 625 L559 625 C582 625 601 640 601 662 C601 684 586 702 560 702 Z M412 822 L478 760 C487 753 494 749 505 749 C522 749 536 763 536 781 C536 791 532 799 522 809 L447 879 C438 888 427 892 416 892 C404 892 394 888 383 881 L279 811 C267 803 260 793 260 780 C260 763 273 750 290 750 C298 750 305 752 314 757 Z " />
<glyph glyph-name="Ecaron" unicode="&#x11a;" horiz-adv-x="609" d="M225 702 C182 702 159 682 152 638 L57 66 C50 27 64 0 109 0 L463 0 C486 0 505 15 505 38 C505 59 490 76 464 76 L139 76 L179 316 L492 316 C514 316 532 331 532 352 C532 372 518 389 493 389 L191 389 L230 625 L559 625 C582 625 601 640 601 662 C601 684 586 702 560 702 Z M404 751 C415 751 424 756 435 763 L533 828 C545 836 552 847 552 860 C552 876 540 891 520 891 C514 891 506 889 498 883 L408 822 L339 881 C332 887 324 891 316 891 C296 891 282 875 282 858 C282 848 285 839 294 832 L375 763 C383 756 392 751 404 751 Z " />
<glyph glyph-name="Edieresis" unicode="&#xcb;" horiz-adv-x="609" d="M225 702 C182 702 159 682 152 638 L57 66 C50 27 64 0 109 0 L463 0 C486 0 505 15 505 38 C505 59 490 76 464 76 L139 76 L179 316 L492 316 C514 316 532 331 532 352 C532 372 518 389 493 389 L191 389 L230 625 L559 625 C582 625 601 640 601 662 C601 684 586 702 560 702 Z M334 852 C305 852 284 828 284 803 C284 777 302 761 327 761 C354 761 376 783 376 810 C376 835 358 852 334 852 Z M494 852 C465 852 444 828 444 803 C444 777 462 761 487 761 C514 761 536 783 536 810 C536 835 518 852 494 852 Z " />
<glyph glyph-name="Emacron" unicode="&#x112;" horiz-adv-x="609" d="M225 702 C182 702 159 682 152 638 L57 66 C50 27 64 0 109 0 L463 0 C486 0 505 15 505 38 C505 59 490 76 464 76 L139 76 L179 316 L492 316 C514 316 532 331 532 352 C532 372 518 389 493 389 L191 389 L230 625 L559 625 C582 625 601 640 601 662 C601 684 586 702 560 702 Z M486 767 C509 768 524 785 524 804 C524 821 512 836 490 836 L329 836 C304 836 289 818 289 800 C289 783 302 767 325 767 Z " />
<glyph glyph-name="Edotaccent" unicode="&#x116;" horiz-adv-x="609" d="M225 702 C182 702 159 682 152 638 L57 66 C50 27 64 0 109 0 L463 0 C486 0 505 15 505 38 C505 59 490 76 464 76 L139 76 L179 316 L492 316 C514 316 532 331 532 352 C532 372 518 389 493 389 L191 389 L230 625 L559 625 C582 625 601 640 601 662 C601 684 586 702 560 702 Z M413 852 C384 852 363 828 363 803 C363 777 381 761 406 761 C433 761 455 783 455 810 C455 835 437 852 413 852 Z " />
<glyph glyph-name="Eogonek" unicode="&#x118;" horiz-adv-x="603" d="M412 -206 C432 -206 456 -201 476 -187 C488 -178 497 -168 497 -153 C497 -138 485 -127 470 -127 C462 -127 455 -131 448 -135 C436 -143 423 -147 410 -147 C387 -147 365 -135 365 -103 C365 -47 433 -17 472 -1 C491 7 505 18 505 38 C505 59 490 76 464 76 L139 76 L179 316 L492 316 C514 316 532 331 532 352 C532 372 518 389 493 389 L191 389 L230 625 L559 625 C582 625 601 640 601 662 C601 684 586 702 560 702 L225 702 C182 702 159 682 152 638 L57 66 C50 27 64 0 109 0 L371 0 C331 -24 303 -66 303 -110 C303 -171 353 -206 412 -206 Z " />
<glyph glyph-name="Gbreve" unicode="&#x11e;" horiz-adv-x="680" d="M393 369 C366 367 348 353 348 330 C348 309 366 293 389 293 L526 293 L516 238 C497 135 423 69 316 69 C193 69 122 154 134 277 C139 327 148 386 161 437 C193 564 272 632 380 632 C466 632 528 589 549 518 C554 502 570 493 585 493 C607 493 624 508 624 534 C624 544 621 554 617 565 C586 653 496 711 384 711 C227 711 127 621 84 465 C68 410 56 332 52 272 C42 107 149 -10 318 -10 C490 -10 573 107 596 232 C600 254 603 275 608 316 C612 348 596 369 558 369 Z M420 752 C485 752 526 793 543 834 C547 842 550 852 550 860 C550 877 537 889 520 889 C499 889 491 873 487 863 C475 834 458 813 421 813 C383 813 373 838 367 858 C364 873 358 889 338 889 C322 889 305 879 305 855 C305 844 308 834 310 827 C327 776 371 752 420 752 Z " />
<glyph glyph-name="Gdotaccent" unicode="&#x120;" horiz-adv-x="680" d="M393 369 C366 367 348 353 348 330 C348 309 366 293 389 293 L526 293 L516 238 C497 135 423 69 316 69 C193 69 122 154 134 277 C139 327 148 386 161 437 C193 564 272 632 380 632 C466 632 528 589 549 518 C554 502 570 493 585 493 C607 493 624 508 624 534 C624 544 621 554 617 565 C586 653 496 711 384 711 C227 711 127 621 84 465 C68 410 56 332 52 272 C42 107 149 -10 318 -10 C490 -10 573 107 596 232 C600 254 603 275 608 316 C612 348 596 369 558 369 Z M425 852 C396 852 375 828 375 803 C375 777 393 761 418 761 C445 761 467 783 467 810 C467 835 449 852 425 852 Z " />
<glyph glyph-name="Gcommaaccent" unicode="&#x122;" horiz-adv-x="680" d="M393 369 C366 367 348 353 348 330 C348 309 366 293 389 293 L526 293 L516 238 C497 135 423 69 316 69 C193 69 122 154 134 277 C139 327 148 386 161 437 C193 564 272 632 380 632 C466 632 528 589 549 518 C554 502 570 493 585 493 C607 493 624 508 624 534 C624 544 621 554 617 565 C586 653 496 711 384 711 C227 711 127 621 84 465 C68 410 56 332 52 272 C42 107 149 -10 318 -10 C490 -10 573 107 596 232 C600 254 603 275 608 316 C612 348 596 369 558 369 Z M232 -241 C248 -241 260 -231 269 -221 C294 -193 305 -169 315 -120 L325 -72 C329 -51 319 -29 294 -29 C278 -29 263 -41 259 -61 L249 -117 C244 -147 235 -166 214 -189 C207 -197 202 -204 202 -214 C202 -229 214 -241 232 -241 Z " />
<glyph glyph-name="Igrave" unicode="&#xcc;" horiz-adv-x="285" d="M235 655 C240 684 223 704 196 704 C176 704 160 691 156 666 L53 46 C48 17 65 -4 92 -4 C111 -4 128 10 132 34 Z M214 754 C233 754 247 768 247 786 C247 797 242 808 229 815 L101 887 C93 891 86 893 79 893 C61 893 46 879 46 859 C46 849 51 836 65 829 L191 760 C199 755 207 754 214 754 Z " />
<glyph glyph-name="Iacute" unicode="&#xcd;" horiz-adv-x="285" d="M233 655 C238 684 221 704 194 704 C174 704 158 691 154 666 L51 46 C46 17 63 -4 90 -4 C109 -4 126 10 130 34 Z M184 818 C167 811 162 798 162 787 C162 767 178 755 194 755 C200 755 207 756 212 759 L354 826 C375 836 382 849 382 861 C382 877 370 892 349 892 C343 892 335 891 328 887 Z " />
<glyph glyph-name="Icircumflex" unicode="&#xce;" horiz-adv-x="285" d="M233 655 C238 684 221 704 194 704 C174 704 158 691 154 666 L51 46 C46 17 63 -4 90 -4 C109 -4 126 10 130 34 Z M218 822 L284 760 C293 753 300 749 311 749 C328 749 342 763 342 781 C342 791 338 799 328 809 L253 879 C244 888 233 892 222 892 C210 892 200 888 189 881 L85 811 C73 803 66 793 66 780 C66 763 79 750 96 750 C104 750 111 752 120 757 Z " />
<glyph glyph-name="Idieresis" unicode="&#xcf;" horiz-adv-x="285" d="M235 655 C240 684 223 704 196 704 C176 704 160 691 156 666 L53 46 C48 17 65 -4 92 -4 C111 -4 128 10 132 34 Z M145 852 C116 852 95 828 95 803 C95 777 113 761 138 761 C165 761 187 783 187 810 C187 835 169 852 145 852 Z M305 852 C276 852 255 828 255 803 C255 777 273 761 298 761 C325 761 347 783 347 810 C347 835 329 852 305 852 Z " />
<glyph glyph-name="Iogonek" unicode="&#x12e;" horiz-adv-x="285" d="M59 -206 C84 -206 108 -201 129 -186 C141 -177 149 -167 149 -153 C149 -138 135 -127 123 -127 C116 -127 109 -129 103 -133 C90 -142 76 -147 63 -147 C40 -147 17 -135 17 -106 C17 -50 78 -20 116 -3 C134 6 141 14 144 34 L248 655 C252 684 236 704 209 704 C188 704 173 691 169 666 L67 59 C65 47 65 36 69 27 C11 -6 -44 -48 -44 -114 C-44 -174 8 -206 59 -206 Z " />
<glyph glyph-name="Imacron" unicode="&#x12a;" horiz-adv-x="285" d="M237 655 C242 684 225 704 198 704 C178 704 162 691 158 666 L55 46 C50 17 67 -4 94 -4 C113 -4 130 10 134 34 Z M299 767 C322 768 337 785 337 804 C337 821 325 836 303 836 L142 836 C117 836 102 818 102 800 C102 783 115 767 138 767 Z " />
<glyph glyph-name="Idotaccent" unicode="&#x130;" horiz-adv-x="285" d="M238 655 C243 684 226 704 199 704 C179 704 163 691 159 666 L56 46 C51 17 68 -4 95 -4 C114 -4 131 10 135 34 Z M223 852 C194 852 173 828 173 803 C173 777 191 761 216 761 C243 761 265 783 265 810 C265 835 247 852 223 852 Z " />
<glyph glyph-name="Kcommaaccent" unicode="&#x136;" horiz-adv-x="633" d="M181 318 L208 318 C231 318 242 316 260 294 L480 15 C489 3 502 -4 516 -4 C542 -4 556 16 556 34 C556 45 552 55 545 63 L311 356 L610 633 C622 644 628 655 628 669 C628 689 611 704 591 704 C578 704 567 699 556 689 L275 423 C250 399 239 398 219 398 L195 398 L238 657 C243 684 226 704 200 704 C179 704 163 690 159 666 L56 43 C52 17 68 -4 94 -4 C115 -4 131 10 135 35 Z M211 -241 C227 -241 239 -231 248 -221 C273 -193 284 -169 294 -120 L304 -72 C308 -51 298 -29 273 -29 C257 -29 242 -41 238 -61 L228 -117 C223 -147 214 -166 193 -189 C186 -197 181 -204 181 -214 C181 -229 193 -241 211 -241 Z " />
<glyph glyph-name="Lacute" unicode="&#x139;" horiz-adv-x="537" d="M138 76 L235 655 C240 684 224 704 197 704 C176 704 161 691 157 666 L56 64 C49 23 68 0 109 0 L462 0 C484 0 503 15 503 38 C503 59 488 76 462 76 Z M193 818 C176 811 171 798 171 787 C171 767 187 755 203 755 C209 755 216 756 221 759 L363 826 C384 836 391 849 391 861 C391 877 379 892 358 892 C352 892 344 891 337 887 Z " />
<glyph glyph-name="Lcaron" unicode="&#x13d;" horiz-adv-x="537" d="M138 76 L235 655 C240 684 224 704 197 704 C176 704 161 691 157 666 L56 64 C49 23 68 0 109 0 L462 0 C484 0 503 15 503 38 C503 59 488 76 462 76 Z M334 545 C349 545 362 554 375 569 C396 593 406 616 415 658 L424 704 C428 726 415 743 394 743 C377 743 362 731 359 711 L349 661 C344 633 339 623 318 600 C310 591 304 584 304 573 C304 557 316 545 334 545 Z " />
<glyph glyph-name="Lcommaaccent" unicode="&#x13b;" horiz-adv-x="537" d="M138 76 L235 655 C240 684 224 704 197 704 C176 704 161 691 157 666 L56 64 C49 23 68 0 109 0 L462 0 C484 0 503 15 503 38 C503 59 488 76 462 76 Z M219 -241 C235 -241 247 -231 256 -221 C281 -193 292 -169 302 -120 L312 -72 C316 -51 306 -29 281 -29 C265 -29 250 -41 246 -61 L236 -117 C231 -147 222 -166 201 -189 C194 -197 189 -204 189 -214 C189 -229 201 -241 219 -241 Z " />
<glyph glyph-name="Lslash" unicode="&#x141;" horiz-adv-x="559" d="M159 76 L200 319 L347 401 C365 411 372 425 372 439 C372 458 357 472 337 472 C330 472 323 470 315 466 L215 409 L256 655 C261 684 244 704 217 704 C197 704 182 691 177 666 L127 362 L35 312 C20 303 12 289 12 275 C12 255 28 241 46 241 C53 241 59 243 65 246 L111 272 L77 64 C70 23 89 0 130 0 L482 0 C505 0 524 15 524 38 C524 59 509 76 483 76 Z " />
<glyph glyph-name="Nacute" unicode="&#x143;" horiz-adv-x="765" d="M548 98 L290 655 C279 678 265 704 225 704 C191 704 163 685 154 634 L56 44 C51 16 69 -4 95 -4 C116 -4 131 10 135 35 L196 402 C208 476 220 550 228 606 L230 607 L486 44 C498 17 517 -4 551 -4 C590 -4 613 24 621 69 L720 654 C725 684 708 704 681 704 C661 704 645 691 641 666 L581 306 C574 263 561 192 549 98 Z M406 818 C389 811 384 798 384 787 C384 767 400 755 416 755 C422 755 429 756 434 759 L576 826 C597 836 604 849 604 861 C604 877 592 892 571 892 C565 892 557 891 550 887 Z " />
<glyph glyph-name="Ncaron" unicode="&#x147;" horiz-adv-x="765" d="M548 98 L290 655 C279 678 265 704 225 704 C191 704 163 685 154 634 L56 44 C51 16 69 -4 95 -4 C116 -4 131 10 135 35 L196 402 C208 476 220 550 228 606 L230 607 L486 44 C498 17 517 -4 551 -4 C590 -4 613 24 621 69 L720 654 C725 684 708 704 681 704 C661 704 645 691 641 666 L581 306 C574 263 561 192 549 98 Z M458 751 C469 751 478 756 489 763 L587 828 C599 836 606 847 606 860 C606 876 594 891 574 891 C568 891 560 889 552 883 L462 822 L393 881 C386 887 378 891 370 891 C350 891 336 875 336 858 C336 848 339 839 348 832 L429 763 C437 756 446 751 458 751 Z " />
<glyph glyph-name="Ntilde" unicode="&#xd1;" horiz-adv-x="765" d="M548 98 L290 655 C279 678 265 704 225 704 C191 704 163 685 154 634 L56 44 C51 16 69 -4 95 -4 C116 -4 131 10 135 35 L196 402 C208 476 220 550 228 606 L230 607 L486 44 C498 17 517 -4 551 -4 C590 -4 613 24 621 69 L720 654 C725 684 708 704 681 704 C661 704 645 691 641 666 L581 306 C574 263 561 192 549 98 Z M519 752 C543 752 570 765 595 783 C608 794 616 804 616 818 C616 835 600 848 585 848 C560 848 547 818 521 818 C490 818 458 856 411 856 C385 856 355 843 333 822 C323 814 315 804 315 792 C315 776 330 761 347 761 C370 761 380 790 409 790 C440 790 471 752 519 752 Z " />
<glyph glyph-name="Ncommaaccent" unicode="&#x145;" horiz-adv-x="765" d="M548 98 L290 655 C279 678 265 704 225 704 C191 704 163 685 154 634 L56 44 C51 16 69 -4 95 -4 C116 -4 131 10 135 35 L196 402 C208 476 220 550 228 606 L230 607 L486 44 C498 17 517 -4 551 -4 C590 -4 613 24 621 69 L720 654 C725 684 708 704 681 704 C661 704 645 691 641 666 L581 306 C574 263 561 192 549 98 Z M266 -241 C282 -241 294 -231 303 -221 C328 -193 339 -169 349 -120 L359 -72 C363 -51 353 -29 328 -29 C312 -29 297 -41 293 -61 L283 -117 C278 -147 269 -166 248 -189 C241 -197 236 -204 236 -214 C236 -229 248 -241 266 -241 Z " />
<glyph glyph-name="Ograve" unicode="&#xd2;" horiz-adv-x="690" d="M333 -10 C491 -10 601 88 635 264 C644 309 651 365 656 409 C673 576 559 711 383 711 C211 711 103 595 72 429 C63 382 58 346 53 303 C29 96 183 -10 333 -10 Z M332 69 C236 69 114 137 134 295 C141 350 144 376 155 426 C182 549 264 632 380 632 C505 632 585 543 574 419 C570 366 562 312 549 258 C521 141 443 69 332 69 Z M444 754 C463 754 477 768 477 786 C477 797 472 808 459 815 L331 887 C323 891 316 893 309 893 C291 893 276 879 276 859 C276 849 281 836 295 829 L421 760 C429 755 437 754 444 754 Z " />
<glyph glyph-name="Oacute" unicode="&#xd3;" horiz-adv-x="690" d="M333 -10 C491 -10 601 88 635 264 C644 309 651 365 656 409 C673 576 559 711 383 711 C211 711 103 595 72 429 C63 382 58 346 53 303 C29 96 183 -10 333 -10 Z M332 69 C236 69 114 137 134 295 C141 350 144 376 155 426 C182 549 264 632 380 632 C505 632 585 543 574 419 C570 366 562 312 549 258 C521 141 443 69 332 69 Z M389 818 C372 811 367 798 367 787 C367 767 383 755 399 755 C405 755 412 756 417 759 L559 826 C580 836 587 849 587 861 C587 877 575 892 554 892 C548 892 540 891 533 887 Z " />
<glyph glyph-name="Ocircumflex" unicode="&#xd4;" horiz-adv-x="690" d="M333 -10 C491 -10 601 88 635 264 C644 309 651 365 656 409 C673 576 559 711 383 711 C211 711 103 595 72 429 C63 382 58 346 53 303 C29 96 183 -10 333 -10 Z M332 69 C236 69 114 137 134 295 C141 350 144 376 155 426 C182 549 264 632 380 632 C505 632 585 543 574 419 C570 366 562 312 549 258 C521 141 443 69 332 69 Z M438 822 L504 760 C513 753 520 749 531 749 C548 749 562 763 562 781 C562 791 558 799 548 809 L473 879 C464 888 453 892 442 892 C430 892 420 888 409 881 L305 811 C293 803 286 793 286 780 C286 763 299 750 316 750 C324 750 331 752 340 757 Z " />
<glyph glyph-name="Otilde" unicode="&#xd5;" horiz-adv-x="690" d="M333 -10 C491 -10 601 88 635 264 C644 309 651 365 656 409 C673 576 559 711 383 711 C211 711 103 595 72 429 C63 382 58 346 53 303 C29 96 183 -10 333 -10 Z M332 69 C236 69 114 137 134 295 C141 350 144 376 155 426 C182 549 264 632 380 632 C505 632 585 543 574 419 C570 366 562 312 549 258 C521 141 443 69 332 69 Z M475 752 C499 752 526 765 551 783 C564 794 572 804 572 818 C572 835 556 848 541 848 C516 848 503 818 477 818 C446 818 414 856 367 856 C341 856 311 843 289 822 C279 814 271 804 271 792 C271 776 286 761 303 761 C326 761 336 790 365 790 C396 790 427 752 475 752 Z " />
<glyph glyph-name="Odieresis" unicode="&#xd6;" horiz-adv-x="690" d="M333 -10 C491 -10 601 88 635 264 C644 309 651 365 656 409 C673 576 559 711 383 711 C211 711 103 595 72 429 C63 382 58 346 53 303 C29 96 183 -10 333 -10 Z M332 69 C236 69 114 137 134 295 C141 350 144 376 155 426 C182 549 264 632 380 632 C505 632 585 543 574 419 C570 366 562 312 549 258 C521 141 443 69 332 69 Z M360 852 C331 852 310 828 310 803 C310 777 328 761 353 761 C380 761 402 783 402 810 C402 835 384 852 360 852 Z M520 852 C491 852 470 828 470 803 C470 777 488 761 513 761 C540 761 562 783 562 810 C562 835 544 852 520 852 Z " />
<glyph glyph-name="Omacron" unicode="&#x14c;" horiz-adv-x="690" d="M333 -10 C491 -10 601 88 635 264 C644 309 651 365 656 409 C673 576 559 711 383 711 C211 711 103 595 72 429 C63 382 58 346 53 303 C29 96 183 -10 333 -10 Z M332 69 C236 69 114 137 134 295 C141 350 144 376 155 426 C182 549 264 632 380 632 C505 632 585 543 574 419 C570 366 562 312 549 258 C521 141 443 69 332 69 Z M512 767 C535 768 550 785 550 804 C550 821 538 836 516 836 L355 836 C330 836 315 818 315 800 C315 783 328 767 351 767 Z " />
<glyph glyph-name="Ohungarumlaut" unicode="&#x150;" horiz-adv-x="690" d="M333 -10 C491 -10 601 88 635 264 C644 309 651 365 656 409 C673 576 559 711 383 711 C211 711 103 595 72 429 C63 382 58 346 53 303 C29 96 183 -10 333 -10 Z M332 69 C236 69 114 137 134 295 C141 350 144 376 155 426 C182 549 264 632 380 632 C505 632 585 543 574 419 C570 366 562 312 549 258 C521 141 443 69 332 69 Z M459 845 C468 853 473 865 473 874 C473 893 459 908 439 908 C428 908 419 903 410 895 L311 816 C301 807 295 796 295 786 C295 765 310 753 328 753 C338 753 348 757 357 765 Z M624 845 C633 853 639 865 639 874 C639 893 624 908 605 908 C593 908 584 903 576 895 L476 816 C466 807 460 796 460 786 C460 765 475 753 493 753 C503 753 513 757 522 765 Z " />
<glyph glyph-name="Oslash" unicode="&#xd8;" horiz-adv-x="690" d="M334 -10 C491 -10 601 88 635 264 C644 309 651 366 656 410 C665 489 641 565 597 614 L625 650 C633 660 637 670 637 679 C637 698 620 711 603 711 C592 711 581 705 572 693 L548 661 C504 691 448 711 384 711 C212 711 104 597 72 429 C63 382 59 349 53 303 C42 214 67 137 109 89 L81 51 C73 41 68 32 68 22 C68 5 82 -10 101 -10 C111 -10 124 -5 133 7 L160 43 C206 12 266 -10 334 -10 Z M332 69 C295 69 247 78 213 103 L543 554 C571 512 579 465 573 406 C567 347 561 310 549 258 C520 141 445 69 332 69 Z M163 148 C137 181 127 234 134 295 C140 343 144 377 155 426 C183 550 264 632 380 632 C424 632 464 621 495 601 Z " />
<glyph glyph-name="OE" unicode="&#x152;" horiz-adv-x="1030" d="M560 76 L600 316 L913 316 C935 316 953 331 953 352 C953 372 939 389 914 389 L611 389 L650 625 L980 625 C1003 625 1022 640 1022 662 C1022 684 1007 702 981 702 L651 702 C582 702 476 711 407 711 C203 711 106 600 71 428 C65 395 55 329 52 297 C33 115 153 -10 337 -10 C420 -10 503 0 531 0 L884 0 C907 0 926 15 926 38 C926 59 911 76 885 76 Z M480 79 C434 70 394 69 347 69 C186 69 119 168 133 294 C137 325 145 377 153 420 C183 561 266 632 401 632 C448 632 507 631 569 624 Z " />
<glyph glyph-name="Racute" unicode="&#x154;" horiz-adv-x="675" d="M300 280 C328 280 336 270 349 248 L492 20 C502 4 517 -4 532 -4 C556 -4 571 14 571 34 C571 44 568 53 562 62 L419 289 C555 307 629 393 629 506 C629 625 538 702 389 702 L224 702 C185 702 161 678 155 642 L56 45 C51 16 69 -4 95 -4 C116 -4 131 10 135 35 L175 280 Z M187 352 L232 625 L390 625 C484 625 545 582 545 501 C545 414 481 352 337 352 Z M342 818 C325 811 320 798 320 787 C320 767 336 755 352 755 C358 755 365 756 370 759 L512 826 C533 836 540 849 540 861 C540 877 528 892 507 892 C501 892 493 891 486 887 Z " />
<glyph glyph-name="Rcaron" unicode="&#x158;" horiz-adv-x="675" d="M300 280 C328 280 336 270 349 248 L492 20 C502 4 517 -4 532 -4 C556 -4 571 14 571 34 C571 44 568 53 562 62 L419 289 C555 307 629 393 629 506 C629 625 538 702 389 702 L224 702 C185 702 161 678 155 642 L56 45 C51 16 69 -4 95 -4 C116 -4 131 10 135 35 L175 280 Z M187 352 L232 625 L390 625 C484 625 545 582 545 501 C545 414 481 352 337 352 Z M386 751 C397 751 406 756 417 763 L515 828 C527 836 534 847 534 860 C534 876 522 891 502 891 C496 891 488 889 480 883 L390 822 L321 881 C314 887 306 891 298 891 C278 891 264 875 264 858 C264 848 267 839 276 832 L357 763 C365 756 374 751 386 751 Z " />
<glyph glyph-name="Rcommaaccent" unicode="&#x156;" horiz-adv-x="675" d="M300 280 C328 280 336 270 349 248 L492 20 C502 4 517 -4 532 -4 C556 -4 571 14 571 34 C571 44 568 53 562 62 L419 289 C555 307 629 393 629 506 C629 625 538 702 389 702 L224 702 C185 702 161 678 155 642 L56 45 C51 16 69 -4 95 -4 C116 -4 131 10 135 35 L175 280 Z M187 352 L232 625 L390 625 C484 625 545 582 545 501 C545 414 481 352 337 352 Z M219 -241 C235 -241 247 -231 256 -221 C281 -193 292 -169 302 -120 L312 -72 C316 -51 306 -29 281 -29 C265 -29 250 -41 246 -61 L236 -117 C231 -147 222 -166 201 -189 C194 -197 189 -204 189 -214 C189 -229 201 -241 219 -241 Z " />
<glyph glyph-name="Sacute" unicode="&#x15a;" horiz-adv-x="623" d="M332 394 C253 422 185 450 185 515 C185 574 235 632 343 632 C420 632 476 602 507 583 C516 577 529 570 544 570 C569 570 583 590 583 609 C583 624 575 637 558 650 C520 678 433 711 343 711 C210 711 103 640 103 515 C103 399 209 352 316 314 C395 286 460 261 460 191 C460 116 387 69 291 69 C210 69 133 105 98 129 C83 139 73 150 54 150 C30 150 15 133 15 112 C15 97 22 86 32 77 C75 37 181 -10 296 -10 C439 -10 542 75 542 193 C542 313 442 355 332 394 Z M338 818 C321 811 316 798 316 787 C316 767 332 755 348 755 C354 755 361 756 366 759 L508 826 C529 836 536 849 536 861 C536 877 524 892 503 892 C497 892 489 891 482 887 Z " />
<glyph glyph-name="Scaron" unicode="&#x160;" horiz-adv-x="623" d="M333 394 C254 422 186 450 186 515 C186 574 236 632 344 632 C421 632 477 602 508 583 C517 577 530 570 545 570 C570 570 584 590 584 609 C584 624 576 637 559 650 C521 678 434 711 344 711 C211 711 104 640 104 515 C104 399 210 352 317 314 C396 286 461 261 461 191 C461 116 388 69 292 69 C211 69 134 105 99 129 C84 139 74 150 55 150 C31 150 16 133 16 112 C16 97 23 86 33 77 C76 37 182 -10 297 -10 C440 -10 543 75 543 193 C543 313 443 355 333 394 Z M385 751 C396 751 405 756 416 763 L514 828 C526 836 533 847 533 860 C533 876 521 891 501 891 C495 891 487 889 479 883 L389 822 L320 881 C313 887 305 891 297 891 C277 891 263 875 263 858 C263 848 266 839 275 832 L356 763 C364 756 373 751 385 751 Z " />
<glyph glyph-name="Scedilla" unicode="&#x15e;" horiz-adv-x="623" d="M201 -251 C208 -251 216 -249 222 -248 C277 -233 353 -195 353 -125 C353 -81 319 -50 272 -50 L294 -11 L294 -10 L301 -10 C444 -10 547 75 547 193 C547 313 447 355 337 394 C258 422 190 450 190 515 C190 574 240 632 348 632 C425 632 481 602 512 583 C521 577 534 570 549 570 C574 570 588 590 588 609 C588 624 580 637 563 650 C525 678 438 711 348 711 C215 711 108 640 108 515 C108 399 214 352 321 314 C400 286 465 261 465 191 C465 116 392 69 296 69 C215 69 138 105 103 129 C88 139 78 150 59 150 C35 150 20 133 20 112 C20 97 27 86 37 77 C72 44 149 7 239 -5 L209 -66 C199 -86 210 -105 230 -105 C242 -105 250 -99 263 -99 C280 -99 294 -107 294 -126 C294 -167 230 -186 199 -196 C183 -201 174 -210 174 -225 C174 -240 186 -251 201 -251 Z " />
<glyph glyph-name="Scommaaccent" unicode="&#x218;" horiz-adv-x="623" d="M333 394 C254 422 186 450 186 515 C186 574 236 632 344 632 C421 632 477 602 508 583 C517 577 530 570 545 570 C570 570 584 590 584 609 C584 624 576 637 559 650 C521 678 434 711 344 711 C211 711 104 640 104 515 C104 399 210 352 317 314 C396 286 461 261 461 191 C461 116 388 69 292 69 C211 69 134 105 99 129 C84 139 74 150 55 150 C31 150 16 133 16 112 C16 97 23 86 33 77 C76 37 182 -10 297 -10 C440 -10 543 75 543 193 C543 313 443 355 333 394 Z M214 -241 C230 -241 242 -231 251 -221 C276 -193 287 -169 297 -120 L307 -72 C311 -51 301 -29 276 -29 C260 -29 245 -41 241 -61 L231 -117 C226 -147 217 -166 196 -189 C189 -197 184 -204 184 -214 C184 -229 196 -241 214 -241 Z " />
<glyph glyph-name="Tcaron" unicode="&#x164;" horiz-adv-x="566" d="M282 625 L185 44 C180 16 198 -4 223 -4 C245 -4 259 10 263 36 L363 625 L569 625 C592 625 610 640 610 662 C610 684 596 702 569 702 L86 702 C63 702 45 686 45 663 C45 642 59 625 86 625 Z M342 751 C353 751 362 756 373 763 L471 828 C483 836 490 847 490 860 C490 876 478 891 458 891 C452 891 444 889 436 883 L346 822 L277 881 C270 887 262 891 254 891 C234 891 220 875 220 858 C220 848 223 839 232 832 L313 763 C321 756 330 751 342 751 Z " />
<glyph glyph-name="Tcommaaccent" unicode="&#x162;" horiz-adv-x="566" d="M282 625 L185 44 C180 16 198 -4 223 -4 C245 -4 259 10 263 36 L363 625 L569 625 C592 625 610 640 610 662 C610 684 596 702 569 702 L86 702 C63 702 45 686 45 663 C45 642 59 625 86 625 Z M137 -285 C153 -285 165 -275 174 -265 C199 -237 210 -213 220 -164 L230 -116 C234 -95 224 -73 199 -73 C183 -73 168 -85 164 -105 L154 -161 C149 -191 140 -210 119 -233 C112 -241 107 -248 107 -258 C107 -273 119 -285 137 -285 Z " />
<glyph glyph-name="Ugrave" unicode="&#xd9;" horiz-adv-x="709" d="M689 655 C694 682 678 704 651 704 C630 704 614 690 610 666 L545 279 C522 141 447 69 340 69 C239 69 123 126 153 306 L212 655 C217 685 199 704 174 704 C153 704 137 691 133 666 L75 318 C36 85 192 -10 342 -10 C477 -10 591 69 625 271 Z M456 754 C475 754 489 768 489 786 C489 797 484 808 471 815 L343 887 C335 891 328 893 321 893 C303 893 288 879 288 859 C288 849 293 836 307 829 L433 760 C441 755 449 754 456 754 Z " />
<glyph glyph-name="Uacute" unicode="&#xda;" horiz-adv-x="709" d="M689 655 C694 682 678 704 651 704 C630 704 614 690 610 666 L545 279 C522 141 447 69 340 69 C239 69 123 126 153 306 L212 655 C217 685 199 704 174 704 C153 704 137 691 133 666 L75 318 C36 85 192 -10 342 -10 C477 -10 591 69 625 271 Z M376 818 C359 811 354 798 354 787 C354 767 370 755 386 755 C392 755 399 756 404 759 L546 826 C567 836 574 849 574 861 C574 877 562 892 541 892 C535 892 527 891 520 887 Z " />
<glyph glyph-name="Ucircumflex" unicode="&#xdb;" horiz-adv-x="709" d="M689 655 C694 682 678 704 651 704 C630 704 614 690 610 666 L545 279 C522 141 447 69 340 69 C239 69 123 126 153 306 L212 655 C217 685 199 704 174 704 C153 704 137 691 133 666 L75 318 C36 85 192 -10 342 -10 C477 -10 591 69 625 271 Z M445 822 L511 760 C520 753 527 749 538 749 C555 749 569 763 569 781 C569 791 565 799 555 809 L480 879 C471 888 460 892 449 892 C437 892 427 888 416 881 L312 811 C300 803 293 793 293 780 C293 763 306 750 323 750 C331 750 338 752 347 757 Z " />
<glyph glyph-name="Udieresis" unicode="&#xdc;" horiz-adv-x="709" d="M689 655 C694 682 678 704 651 704 C630 704 614 690 610 666 L545 279 C522 141 447 69 340 69 C239 69 123 126 153 306 L212 655 C217 685 199 704 174 704 C153 704 137 691 133 666 L75 318 C36 85 192 -10 342 -10 C477 -10 591 69 625 271 Z M366 852 C337 852 316 828 316 803 C316 777 334 761 359 761 C386 761 408 783 408 810 C408 835 390 852 366 852 Z M526 852 C497 852 476 828 476 803 C476 777 494 761 519 761 C546 761 568 783 568 810 C568 835 550 852 526 852 Z " />
<glyph glyph-name="Umacron" unicode="&#x16a;" horiz-adv-x="709" d="M689 655 C694 682 678 704 651 704 C630 704 614 690 610 666 L545 279 C522 141 447 69 340 69 C239 69 123 126 153 306 L212 655 C217 685 199 704 174 704 C153 704 137 691 133 666 L75 318 C36 85 192 -10 342 -10 C477 -10 591 69 625 271 Z M512 767 C535 768 550 785 550 804 C550 821 538 836 516 836 L355 836 C330 836 315 818 315 800 C315 783 328 767 351 767 Z " />
<glyph glyph-name="Uring" unicode="&#x16e;" horiz-adv-x="709" d="M689 655 C694 682 678 704 651 704 C630 704 614 690 610 666 L545 279 C522 141 447 69 340 69 C239 69 123 126 153 306 L212 655 C217 685 199 704 174 704 C153 704 137 691 133 666 L75 318 C36 85 192 -10 342 -10 C477 -10 591 69 625 271 Z M436 749 C498 749 535 800 535 851 C535 899 502 937 448 937 C384 937 347 886 347 836 C347 787 383 749 436 749 Z M437 795 C410 795 394 814 394 837 C394 864 414 890 446 890 C473 890 488 871 488 848 C488 821 470 795 437 795 Z " />
<glyph glyph-name="Uhungarumlaut" unicode="&#x170;" horiz-adv-x="709" d="M689 655 C694 682 678 704 651 704 C630 704 614 690 610 666 L545 279 C522 141 447 69 340 69 C239 69 123 126 153 306 L212 655 C217 685 199 704 174 704 C153 704 137 691 133 666 L75 318 C36 85 192 -10 342 -10 C477 -10 591 69 625 271 Z M473 845 C482 853 487 865 487 874 C487 893 473 908 453 908 C442 908 433 903 424 895 L325 816 C315 807 309 796 309 786 C309 765 324 753 342 753 C352 753 362 757 371 765 Z M638 845 C647 853 653 865 653 874 C653 893 638 908 619 908 C607 908 598 903 590 895 L490 816 C480 807 474 796 474 786 C474 765 489 753 507 753 C517 753 527 757 536 765 Z " />
<glyph glyph-name="Uogonek" unicode="&#x172;" horiz-adv-x="709" d="M331 -206 C352 -206 379 -201 399 -186 C410 -177 419 -168 419 -153 C419 -138 405 -127 393 -127 C386 -127 379 -129 373 -133 C360 -142 346 -147 334 -147 C312 -147 287 -137 287 -104 C287 -48 365 -12 399 -4 C519 24 596 96 627 283 L689 655 C694 684 677 704 650 704 C630 704 614 690 610 666 L545 279 C522 139 445 69 341 69 C232 69 124 132 153 306 L212 655 C217 684 200 704 173 704 C153 704 137 691 133 666 L75 318 C39 105 166 15 290 -5 C254 -29 226 -67 226 -114 C226 -167 272 -206 331 -206 Z " />
<glyph glyph-name="Wgrave" unicode="&#x1e80;" horiz-adv-x="917" d="M584 631 C580 680 552 704 517 704 C481 704 457 681 440 640 L206 82 C203 75 196 75 195 83 L167 666 C166 691 146 704 126 704 C101 704 81 686 83 654 L118 61 C120 20 153 -10 193 -10 C225 -10 252 9 270 52 L505 612 C507 617 513 615 513 612 L564 63 C569 12 604 -10 639 -10 C673 -10 701 12 716 52 L948 646 C951 653 952 661 952 666 C952 688 932 704 910 704 C894 704 877 697 867 669 L645 82 C643 75 635 75 634 82 Z M548 754 C567 754 581 768 581 786 C581 797 576 808 563 815 L435 887 C427 891 420 893 413 893 C395 893 380 879 380 859 C380 849 385 836 399 829 L525 760 C533 755 541 754 548 754 Z " />
<glyph glyph-name="Wacute" unicode="&#x1e82;" horiz-adv-x="917" d="M584 631 C580 680 552 704 517 704 C481 704 457 681 440 640 L206 82 C203 75 196 75 195 83 L167 666 C166 691 146 704 126 704 C101 704 81 686 83 654 L118 61 C120 20 153 -10 193 -10 C225 -10 252 9 270 52 L505 612 C507 617 513 615 513 612 L564 63 C569 12 604 -10 639 -10 C673 -10 701 12 716 52 L948 646 C951 653 952 661 952 666 C952 688 932 704 910 704 C894 704 877 697 867 669 L645 82 C643 75 635 75 634 82 Z M491 818 C474 811 469 798 469 787 C469 767 485 755 501 755 C507 755 514 756 519 759 L661 826 C682 836 689 849 689 861 C689 877 677 892 656 892 C650 892 642 891 635 887 Z " />
<glyph glyph-name="Wcircumflex" unicode="&#x174;" horiz-adv-x="917" d="M584 631 C580 680 552 704 517 704 C481 704 457 681 440 640 L206 82 C203 75 196 75 195 83 L167 666 C166 691 146 704 126 704 C101 704 81 686 83 654 L118 61 C120 20 153 -10 193 -10 C225 -10 252 9 270 52 L505 612 C507 617 513 615 513 612 L564 63 C569 12 604 -10 639 -10 C673 -10 701 12 716 52 L948 646 C951 653 952 661 952 666 C952 688 932 704 910 704 C894 704 877 697 867 669 L645 82 C643 75 635 75 634 82 Z M539 822 L605 760 C614 753 621 749 632 749 C649 749 663 763 663 781 C663 791 659 799 649 809 L574 879 C565 888 554 892 543 892 C531 892 521 888 510 881 L406 811 C394 803 387 793 387 780 C387 763 400 750 417 750 C425 750 432 752 441 757 Z " />
<glyph glyph-name="Wdieresis" unicode="&#x1e84;" horiz-adv-x="917" d="M584 631 C580 680 552 704 517 704 C481 704 457 681 440 640 L206 82 C203 75 196 75 195 83 L167 666 C166 691 146 704 126 704 C101 704 81 686 83 654 L118 61 C120 20 153 -10 193 -10 C225 -10 252 9 270 52 L505 612 C507 617 513 615 513 612 L564 63 C569 12 604 -10 639 -10 C673 -10 701 12 716 52 L948 646 C951 653 952 661 952 666 C952 688 932 704 910 704 C894 704 877 697 867 669 L645 82 C643 75 635 75 634 82 Z M464 852 C435 852 414 828 414 803 C414 777 432 761 457 761 C484 761 506 783 506 810 C506 835 488 852 464 852 Z M624 852 C595 852 574 828 574 803 C574 777 592 761 617 761 C644 761 666 783 666 810 C666 835 648 852 624 852 Z " />
<glyph glyph-name="Ygrave" unicode="&#x1ef2;" horiz-adv-x="620" d="M243 341 C255 322 259 308 256 289 L215 44 C210 17 227 -4 254 -4 C275 -4 290 10 294 35 L336 289 C339 308 348 320 365 338 L650 632 C661 642 666 655 666 665 C666 692 646 704 625 704 C614 704 601 699 591 689 L306 391 L124 681 C115 696 101 704 87 704 C63 704 46 687 46 665 C46 656 50 645 55 637 Z M394 754 C413 754 427 768 427 786 C427 797 422 808 409 815 L281 887 C273 891 266 893 259 893 C241 893 226 879 226 859 C226 849 231 836 245 829 L371 760 C379 755 387 754 394 754 Z " />
<glyph glyph-name="Yacute" unicode="&#xdd;" horiz-adv-x="620" d="M243 341 C255 322 259 308 256 289 L215 44 C210 17 227 -4 254 -4 C275 -4 290 10 294 35 L336 289 C339 308 348 320 365 338 L650 632 C661 642 666 655 666 665 C666 692 646 704 625 704 C614 704 601 699 591 689 L306 391 L124 681 C115 696 101 704 87 704 C63 704 46 687 46 665 C46 656 50 645 55 637 Z M328 818 C311 811 306 798 306 787 C306 767 322 755 338 755 C344 755 351 756 356 759 L498 826 C519 836 526 849 526 861 C526 877 514 892 493 892 C487 892 479 891 472 887 Z " />
<glyph glyph-name="Ycircumflex" unicode="&#x176;" horiz-adv-x="620" d="M243 341 C255 322 259 308 256 289 L215 44 C210 17 227 -4 254 -4 C275 -4 290 10 294 35 L336 289 C339 308 348 320 365 338 L650 632 C661 642 666 655 666 665 C666 692 646 704 625 704 C614 704 601 699 591 689 L306 391 L124 681 C115 696 101 704 87 704 C63 704 46 687 46 665 C46 656 50 645 55 637 Z M386 822 L452 760 C461 753 468 749 479 749 C496 749 510 763 510 781 C510 791 506 799 496 809 L421 879 C412 888 401 892 390 892 C378 892 368 888 357 881 L253 811 C241 803 234 793 234 780 C234 763 247 750 264 750 C272 750 279 752 288 757 Z " />
<glyph glyph-name="Ydieresis" unicode="&#x178;" horiz-adv-x="620" d="M243 341 C255 322 259 308 256 289 L215 44 C210 17 227 -4 254 -4 C275 -4 290 10 294 35 L336 289 C339 308 348 320 365 338 L650 632 C661 642 666 655 666 665 C666 692 646 704 625 704 C614 704 601 699 591 689 L306 391 L124 681 C115 696 101 704 87 704 C63 704 46 687 46 665 C46 656 50 645 55 637 Z M292 801 C263 801 242 777 242 752 C242 726 260 710 285 710 C312 710 334 732 334 759 C334 784 316 801 292 801 Z M452 801 C423 801 402 777 402 752 C402 726 420 710 445 710 C472 710 494 732 494 759 C494 784 476 801 452 801 Z " />
<glyph glyph-name="Zacute" unicode="&#x179;" horiz-adv-x="583" d="M462 0 C485 0 504 15 504 38 C504 59 489 76 463 76 L114 76 L564 598 C579 616 592 633 592 655 C592 680 575 702 536 702 L146 702 C123 702 104 685 104 663 C104 642 119 625 145 625 L481 625 L31 103 C15 85 4 70 4 49 C4 23 23 0 62 0 Z M330 818 C313 811 308 798 308 787 C308 767 324 755 340 755 C346 755 353 756 358 759 L500 826 C521 836 528 849 528 861 C528 877 516 892 495 892 C489 892 481 891 474 887 Z " />
<glyph glyph-name="Zcaron" unicode="&#x17d;" horiz-adv-x="583" d="M462 0 C485 0 504 15 504 38 C504 59 489 76 463 76 L114 76 L564 598 C579 616 592 633 592 655 C592 680 575 702 536 702 L146 702 C123 702 104 685 104 663 C104 642 119 625 145 625 L481 625 L31 103 C15 85 4 70 4 49 C4 23 23 0 62 0 Z M359 751 C370 751 379 756 390 763 L488 828 C500 836 507 847 507 860 C507 876 495 891 475 891 C469 891 461 889 453 883 L363 822 L294 881 C287 887 279 891 271 891 C251 891 237 875 237 858 C237 848 240 839 249 832 L330 763 C338 756 347 751 359 751 Z " />
<glyph glyph-name="Zdotaccent" unicode="&#x17b;" horiz-adv-x="583" d="M462 0 C485 0 504 15 504 38 C504 59 489 76 463 76 L114 76 L564 598 C579 616 592 633 592 655 C592 680 575 702 536 702 L146 702 C123 702 104 685 104 663 C104 642 119 625 145 625 L481 625 L31 103 C15 85 4 70 4 49 C4 23 23 0 62 0 Z M379 852 C350 852 329 828 329 803 C329 777 347 761 372 761 C399 761 421 783 421 810 C421 835 403 852 379 852 Z " />
<glyph glyph-name="Eth" unicode="&#xd0;" horiz-adv-x="684" d="M100 0 L254 0 C467 0 585 72 631 276 C638 309 646 359 650 403 C664 576 561 702 354 702 L218 702 C178 702 152 678 145 638 L103 385 L38 385 C11 385 -5 366 -5 346 C-5 328 7 311 33 311 L90 311 L49 64 C42 25 64 0 100 0 Z M132 76 L171 311 L336 311 C363 311 377 330 377 349 C377 368 363 385 339 385 L183 385 L223 625 L354 625 C504 625 584 539 567 395 C565 376 559 327 551 293 C515 137 429 76 272 76 Z " />
<glyph glyph-name="Thorn" unicode="&#xde;" horiz-adv-x="614" d="M152 133 L313 133 C502 133 605 229 605 369 C605 492 509 573 359 573 L225 573 L240 666 C245 695 224 711 203 711 C177 711 163 690 159 664 L56 42 C52 16 69 -4 93 -4 C115 -4 132 13 136 38 Z M164 211 L212 498 L351 498 C477 498 521 439 521 367 C521 264 441 211 333 211 Z " />
<glyph glyph-name="a" unicode="a" horiz-adv-x="543" d="M478 336 C501 468 415 533 290 533 C244 533 182 518 151 502 C135 494 125 481 125 465 C125 442 149 420 176 431 C204 442 248 459 291 459 C372 459 418 423 403 342 L393 287 C339 311 280 322 227 322 C127 322 34 263 34 153 C34 69 102 -10 242 -10 C321 -10 381 22 412 42 C429 53 431 64 434 82 Z M240 60 C152 60 113 104 113 152 C113 230 183 254 248 254 C288 254 337 243 382 221 L361 97 C336 78 292 60 240 60 Z " />
<glyph glyph-name="b" unicode="b" horiz-adv-x="573" d="M526 318 C536 464 441 533 332 533 C283 533 243 518 206 500 L232 661 C237 690 220 710 193 710 C173 710 157 697 153 672 L56 89 C53 72 54 62 66 52 C86 35 172 -10 276 -10 C402 -10 477 53 507 188 C516 231 524 286 526 318 Z M428 196 C409 116 360 66 280 66 C227 66 171 80 138 100 L192 417 C218 431 263 455 322 455 C405 455 452 406 448 322 C446 292 437 230 428 196 Z " />
<glyph glyph-name="c" unicode="c" horiz-adv-x="543" d="M266 68 C187 68 119 115 130 214 C132 238 141 294 147 321 C166 408 216 455 296 455 C349 455 404 436 422 373 C427 357 443 347 457 347 C483 347 498 365 498 388 C498 396 495 407 491 418 C473 470 411 533 298 533 C185 533 97 468 70 333 C62 294 55 247 52 220 C36 67 149 -10 269 -10 C391 -10 445 73 462 118 C465 127 466 133 466 141 C466 163 449 179 429 179 C410 179 397 168 392 155 C366 86 315 68 266 68 Z " />
<glyph glyph-name="d" unicode="d" horiz-adv-x="593" d="M70 333 C62 292 55 253 52 220 C36 67 136 -10 261 -10 C336 -10 399 19 434 41 C452 52 457 59 460 78 L557 661 C562 690 545 710 518 710 C498 710 483 697 478 672 L449 493 C414 512 360 533 292 533 C184 533 97 468 70 333 Z M130 214 C134 247 141 295 147 321 C166 408 214 455 297 455 C357 455 411 431 435 414 L384 105 C358 87 312 68 262 68 C176 68 119 112 130 214 Z " />
<glyph glyph-name="e" unicode="e" horiz-adv-x="543" d="M134 231 L421 231 C461 231 480 254 489 289 L493 306 C529 458 419 533 303 533 C201 533 104 482 71 328 C64 296 56 257 52 219 C39 83 126 -10 275 -10 C324 -10 376 6 414 27 C429 35 443 48 443 65 C443 87 427 103 408 103 C402 103 395 101 388 98 C346 78 305 68 266 68 C182 68 119 118 131 208 Z M145 296 C165 404 210 459 305 459 C383 459 445 416 418 310 C415 299 412 296 400 296 Z " />
<glyph glyph-name="f" unicode="f" horiz-adv-x="394" d="M145 505 L102 505 C81 505 63 490 63 469 C63 449 76 432 102 432 L132 432 L68 46 C63 16 80 -4 107 -4 C127 -4 143 9 147 34 L213 432 L353 432 C375 432 392 447 392 468 C392 488 378 505 354 505 L223 505 L230 545 C239 605 267 642 330 642 C372 642 389 630 410 630 C433 630 445 649 445 667 C445 681 437 692 422 700 C407 706 370 718 335 718 C226 718 170 656 152 551 Z " />
<glyph glyph-name="g" unicode="g" horiz-adv-x="579" d="M531 434 C534 455 526 466 514 474 C482 498 410 533 316 533 C193 533 109 468 83 333 C74 286 68 254 65 221 C53 89 129 5 271 5 C303 5 356 16 388 36 C373 -77 309 -121 231 -121 C173 -121 131 -96 100 -75 C90 -68 81 -65 72 -65 C49 -65 34 -83 34 -104 C34 -117 43 -128 56 -138 C84 -162 151 -196 237 -196 C327 -196 436 -149 464 23 Z M316 455 C378 455 421 438 450 422 L400 121 C366 96 326 76 271 76 C177 76 135 124 143 214 C146 247 154 294 159 321 C177 408 227 455 316 455 Z " />
<glyph glyph-name="h" unicode="h" horiz-adv-x="602" d="M239 661 C244 690 227 710 200 710 C180 710 164 697 160 672 L56 46 C51 16 68 -4 95 -4 C114 -4 131 9 135 34 L194 387 C238 427 306 455 352 455 C423 455 471 423 452 312 L407 44 C402 15 420 -4 444 -4 C466 -4 482 9 486 35 L533 316 C560 476 466 533 363 533 C306 533 250 511 209 483 Z " />
<glyph glyph-name="i" unicode="i" horiz-adv-x="282" d="M250 670 C250 696 233 717 205 717 C172 717 152 691 152 664 C152 638 170 616 199 616 C231 616 250 644 250 670 Z M56 46 C51 16 68 -4 95 -4 C114 -4 131 9 135 34 L208 476 C213 505 197 526 170 526 C149 526 134 512 130 488 Z " />
<glyph glyph-name="j" unicode="j" horiz-adv-x="281" d="M64 69 C50 -12 23 -67 -55 -120 C-68 -129 -74 -142 -74 -154 C-74 -176 -56 -190 -37 -190 C-27 -190 -16 -187 -5 -179 C73 -122 122 -68 147 83 L212 476 C217 505 201 526 174 526 C153 526 138 512 134 488 Z M251 670 C251 696 233 717 205 717 C173 717 152 691 152 664 C152 638 170 616 199 616 C231 616 251 644 251 670 Z " />
<glyph glyph-name="k" unicode="k" horiz-adv-x="534" d="M200 710 C180 710 164 697 160 672 L56 46 C51 16 68 -4 95 -4 C114 -4 131 9 135 34 L168 232 L197 232 C223 232 234 228 247 209 L388 16 C399 0 410 -4 424 -4 C448 -4 462 14 462 32 C462 42 458 53 450 63 L299 267 L498 456 C508 467 513 478 513 490 C513 512 495 526 475 526 C463 526 453 521 443 511 L261 332 C239 311 231 307 204 307 L180 307 L239 661 C244 690 227 710 200 710 Z " />
<glyph glyph-name="l" unicode="l" horiz-adv-x="272" d="M56 46 C51 16 68 -4 95 -4 C114 -4 131 9 135 34 L239 661 C244 690 227 710 200 710 C180 710 164 697 160 672 Z " />
<glyph glyph-name="m" unicode="m" horiz-adv-x="855" d="M787 319 C810 455 740 533 625 533 C552 533 493 501 449 465 C423 510 369 533 306 533 C240 533 174 508 139 483 C123 471 115 460 112 444 L46 46 C41 16 58 -4 85 -4 C104 -4 121 9 125 34 L188 419 C215 437 259 454 307 454 C376 454 416 415 401 326 L353 44 C348 15 366 -4 391 -4 C412 -4 428 9 432 35 L479 319 C484 348 484 377 482 399 C510 422 557 454 613 454 C686 454 722 408 707 319 L661 44 C656 16 673 -4 699 -4 C721 -4 736 10 740 35 Z " />
<glyph glyph-name="n" unicode="n" horiz-adv-x="591" d="M523 315 C550 477 442 533 331 533 C244 533 172 501 139 481 C121 470 115 461 112 443 L46 46 C41 16 58 -4 85 -4 C104 -4 121 9 125 34 L188 415 C218 433 273 454 326 454 C384 454 463 432 442 312 L397 44 C392 15 410 -4 434 -4 C456 -4 471 9 476 35 Z " />
<glyph glyph-name="o" unicode="o" horiz-adv-x="560" d="M302 533 C187 533 100 471 70 337 C61 295 53 240 51 214 C39 67 154 -10 271 -10 C383 -10 465 57 494 186 C503 228 511 283 513 309 C525 456 414 533 302 533 Z M434 306 C432 285 425 235 419 206 C399 116 350 68 267 68 C200 68 118 109 130 216 C132 236 139 288 145 317 C165 407 216 455 300 455 C368 455 445 409 434 306 Z " />
<glyph glyph-name="p" unicode="p" horiz-adv-x="566" d="M500 191 C508 232 515 271 518 304 C534 456 434 533 309 533 C234 533 171 505 137 483 C118 471 114 464 110 446 L11 -146 C7 -176 23 -196 50 -196 C70 -196 86 -182 90 -158 L121 30 C156 12 210 -10 279 -10 C388 -10 474 56 500 191 Z M439 310 C436 277 428 229 423 203 C405 116 356 68 273 68 C224 68 175 84 134 105 L186 419 C213 437 258 455 308 455 C394 455 450 412 439 310 Z " />
<glyph glyph-name="q" unicode="q" horiz-adv-x="563" d="M45 210 C36 64 127 -6 245 -6 C276 -6 324 1 365 21 L337 -147 C332 -176 349 -197 376 -197 C396 -197 412 -183 416 -159 L514 434 C517 451 517 460 504 471 C484 488 395 533 290 533 C175 533 93 469 64 335 C54 292 47 242 45 210 Z M143 327 C163 407 209 455 289 455 C338 455 396 439 433 421 L379 106 C352 92 307 68 249 68 C166 68 120 108 124 201 C125 231 134 293 143 327 Z " />
<glyph glyph-name="r" unicode="r" horiz-adv-x="376" d="M371 518 C347 526 316 533 277 533 C188 533 121 494 101 374 L46 46 C41 16 58 -4 85 -4 C104 -4 121 9 125 34 L178 357 C190 434 227 454 275 454 C315 454 343 440 363 440 C386 440 403 455 403 478 C403 495 392 511 371 518 Z " />
<glyph glyph-name="s" unicode="s" horiz-adv-x="497" d="M259 304 C205 326 169 344 169 385 C169 431 219 459 272 459 C316 459 356 443 389 423 C398 417 408 413 419 413 C441 413 454 430 454 449 C454 460 449 471 436 482 C412 503 349 533 273 533 C184 533 90 487 90 384 C90 305 156 269 216 242 C280 213 345 201 345 144 C345 97 301 63 236 63 C178 63 126 92 90 118 C80 125 71 130 61 130 C40 130 24 111 24 92 C24 80 30 70 39 61 C67 34 148 -10 238 -10 C347 -10 424 55 424 145 C424 240 339 272 259 304 Z " />
<glyph glyph-name="t" unicode="t" horiz-adv-x="416" d="M310 13 C329 23 339 36 339 54 C339 74 324 91 304 91 C293 91 285 88 269 81 C255 75 239 68 216 68 C150 68 136 112 147 174 L192 437 L346 437 C368 437 386 452 386 473 C386 493 372 509 347 509 L204 509 L217 590 C221 614 206 633 181 633 C163 633 142 623 137 591 L69 181 C47 50 109 -10 216 -10 C242 -10 281 -2 310 13 Z " />
<glyph glyph-name="u" unicode="u" horiz-adv-x="578" d="M64 235 C38 78 129 -10 269 -10 C347 -10 411 18 446 43 C459 52 467 61 470 79 L536 476 C541 507 522 526 498 526 C477 526 461 512 457 488 L394 104 C357 80 307 68 265 68 C188 68 124 106 144 226 L185 478 C190 506 172 526 147 526 C126 526 110 512 106 486 Z " />
<glyph glyph-name="v" unicode="v" horiz-adv-x="517" d="M230 80 C226 71 213 72 211 83 C210 104 205 145 199 176 L135 489 C131 511 116 526 94 526 C68 526 48 505 55 471 L141 62 C151 16 178 -10 214 -10 C251 -10 271 14 294 56 L517 464 C535 498 511 526 484 526 C466 526 454 518 442 496 L271 176 C247 132 238 101 230 80 Z " />
<glyph glyph-name="w" unicode="w" horiz-adv-x="803" d="M473 58 C477 15 504 -10 543 -10 C576 -10 599 9 617 50 L802 467 C817 502 794 526 769 526 C752 526 739 518 730 496 L583 156 C573 133 565 107 552 76 C550 70 547 69 544 69 C541 69 538 70 537 78 C535 108 535 138 532 166 L500 463 C495 508 471 526 439 526 C408 526 387 511 370 471 L234 163 C221 135 212 105 201 76 C199 72 197 69 192 69 C188 69 184 71 183 78 C182 111 183 141 180 170 L146 487 C143 516 125 526 107 526 C79 526 62 507 66 475 L114 59 C120 11 150 -10 183 -10 C218 -10 238 7 257 51 L421 424 C423 429 425 431 428 431 C431 431 434 429 435 422 Z " />
<glyph glyph-name="x" unicode="x" horiz-adv-x="530" d="M372 17 C380 4 392 -4 408 -4 C430 -4 445 13 445 32 C445 42 443 51 435 61 L312 261 L494 454 C504 465 510 477 510 488 C510 508 494 526 471 526 C461 526 450 520 440 510 L269 328 L160 507 C153 519 140 526 128 526 C104 526 88 508 88 487 C88 479 92 469 97 461 L212 274 L13 65 C2 54 -2 43 -2 32 C-2 11 15 -4 37 -4 C47 -4 58 0 67 9 L255 207 Z " />
<glyph glyph-name="y" unicode="y" horiz-adv-x="509" d="M138 488 C132 512 119 526 97 526 C70 526 50 503 59 469 L176 33 C125 -57 80 -99 30 -125 C13 -134 4 -143 4 -161 C4 -182 22 -196 42 -196 C54 -196 71 -191 88 -180 C144 -147 198 -85 252 11 L508 464 C525 493 511 526 476 526 C458 526 447 515 437 497 L282 219 C260 178 246 147 237 128 C235 124 233 122 230 122 C226 122 225 126 224 130 C221 159 217 191 209 223 Z " />
<glyph glyph-name="z" unicode="z" horiz-adv-x="492" d="M459 426 C470 438 478 452 478 468 C478 493 461 516 420 516 L131 516 C108 516 91 500 91 477 C91 458 104 440 131 440 L370 440 L37 89 C25 76 17 62 17 47 C17 22 35 0 70 0 L374 0 C397 0 414 16 414 38 C414 58 402 76 377 76 L128 76 Z " />
<glyph glyph-name="agrave" unicode="&#xe0;" horiz-adv-x="543" d="M478 336 C501 468 415 533 290 533 C244 533 182 518 151 502 C135 494 125 481 125 465 C125 442 149 420 176 431 C204 442 248 459 291 459 C372 459 418 423 403 342 L393 287 C339 311 280 322 227 322 C127 322 34 263 34 153 C34 69 102 -10 242 -10 C321 -10 381 22 412 42 C429 53 431 64 434 82 Z M240 60 C152 60 113 104 113 152 C113 230 183 254 248 254 C288 254 337 243 382 221 L361 97 C336 78 292 60 240 60 Z M365 589 C384 589 398 603 398 621 C398 632 393 643 380 650 L252 722 C244 726 237 728 230 728 C212 728 197 714 197 694 C197 684 202 671 216 664 L342 595 C350 590 358 589 365 589 Z " />
<glyph glyph-name="aacute" unicode="&#xe1;" horiz-adv-x="545" d="M478 336 C501 468 415 533 290 533 C244 533 182 518 151 502 C135 494 125 481 125 465 C125 442 149 420 176 431 C204 442 248 459 291 459 C372 459 418 423 403 342 L393 287 C339 311 280 322 227 322 C127 322 34 263 34 153 C34 69 102 -10 242 -10 C321 -10 381 22 412 42 C429 53 431 64 434 82 Z M240 60 C152 60 113 104 113 152 C113 230 183 254 248 254 C288 254 337 243 382 221 L361 97 C336 78 292 60 240 60 Z M276 653 C259 646 254 633 254 622 C254 602 270 590 286 590 C292 590 299 591 304 594 L446 661 C467 671 474 684 474 696 C474 712 462 727 441 727 C435 727 427 726 420 722 Z " />
<glyph glyph-name="acircumflex" unicode="&#xe2;" horiz-adv-x="545" d="M478 336 C501 468 415 533 290 533 C244 533 182 518 151 502 C135 494 125 481 125 465 C125 442 149 420 176 431 C204 442 248 459 291 459 C372 459 418 423 403 342 L393 287 C339 311 280 322 227 322 C127 322 34 263 34 153 C34 69 102 -10 242 -10 C321 -10 381 22 412 42 C429 53 431 64 434 82 Z M240 60 C152 60 113 104 113 152 C113 230 183 254 248 254 C288 254 337 243 382 221 L361 97 C336 78 292 60 240 60 Z M337 646 L403 584 C412 577 419 573 430 573 C447 573 461 587 461 605 C461 615 457 623 447 633 L372 703 C363 712 352 716 341 716 C329 716 319 712 308 705 L204 635 C192 627 185 617 185 604 C185 587 198 574 215 574 C223 574 230 576 239 581 Z " />
<glyph glyph-name="atilde" unicode="&#xe3;" horiz-adv-x="547" d="M478 336 C501 468 415 533 290 533 C244 533 182 518 151 502 C135 494 125 481 125 465 C125 442 149 420 176 431 C204 442 248 459 291 459 C372 459 418 423 403 342 L393 287 C339 311 280 322 227 322 C127 322 34 263 34 153 C34 69 102 -10 242 -10 C321 -10 381 22 412 42 C429 53 431 64 434 82 Z M240 60 C152 60 113 104 113 152 C113 230 183 254 248 254 C288 254 337 243 382 221 L361 97 C336 78 292 60 240 60 Z M389 594 C413 594 440 607 465 625 C478 636 486 646 486 660 C486 677 470 690 455 690 C430 690 417 660 391 660 C360 660 328 698 281 698 C255 698 225 685 203 664 C193 656 185 646 185 634 C185 618 200 603 217 603 C240 603 250 632 279 632 C310 632 341 594 389 594 Z " />
<glyph glyph-name="adieresis" unicode="&#xe4;" horiz-adv-x="544" d="M478 336 C501 468 415 533 290 533 C244 533 182 518 151 502 C135 494 125 481 125 465 C125 442 149 420 176 431 C204 442 248 459 291 459 C372 459 418 423 403 342 L393 287 C339 311 280 322 227 322 C127 322 34 263 34 153 C34 69 102 -10 242 -10 C321 -10 381 22 412 42 C429 53 431 64 434 82 Z M240 60 C152 60 113 104 113 152 C113 230 183 254 248 254 C288 254 337 243 382 221 L361 97 C336 78 292 60 240 60 Z M259 690 C230 690 209 666 209 641 C209 615 227 599 252 599 C279 599 301 621 301 648 C301 673 283 690 259 690 Z M419 690 C390 690 369 666 369 641 C369 615 387 599 412 599 C439 599 461 621 461 648 C461 673 443 690 419 690 Z " />
<glyph glyph-name="amacron" unicode="&#x101;" horiz-adv-x="543" d="M478 336 C501 468 415 533 290 533 C244 533 182 518 151 502 C135 494 125 481 125 465 C125 442 149 420 176 431 C204 442 248 459 291 459 C372 459 418 423 403 342 L393 287 C339 311 280 322 227 322 C127 322 34 263 34 153 C34 69 102 -10 242 -10 C321 -10 381 22 412 42 C429 53 431 64 434 82 Z M240 60 C152 60 113 104 113 152 C113 230 183 254 248 254 C288 254 337 243 382 221 L361 97 C336 78 292 60 240 60 Z M415 608 C438 609 453 626 453 645 C453 662 441 677 419 677 L258 677 C233 677 218 659 218 641 C218 624 231 608 254 608 Z " />
<glyph glyph-name="abreve" unicode="&#x103;" horiz-adv-x="544" d="M478 336 C501 468 415 533 290 533 C244 533 182 518 151 502 C135 494 125 481 125 465 C125 442 149 420 176 431 C204 442 248 459 291 459 C372 459 418 423 403 342 L393 287 C339 311 280 322 227 322 C127 322 34 263 34 153 C34 69 102 -10 242 -10 C321 -10 381 22 412 42 C429 53 431 64 434 82 Z M240 60 C152 60 113 104 113 152 C113 230 183 254 248 254 C288 254 337 243 382 221 L361 97 C336 78 292 60 240 60 Z M336 588 C401 588 442 629 459 670 C463 678 466 688 466 696 C466 713 453 725 436 725 C415 725 407 709 403 699 C391 670 374 649 337 649 C299 649 289 674 283 694 C280 709 274 725 254 725 C238 725 221 715 221 691 C221 680 224 670 226 663 C243 612 287 588 336 588 Z " />
<glyph glyph-name="aring" unicode="&#xe5;" horiz-adv-x="543" d="M478 336 C501 468 415 533 290 533 C244 533 182 518 151 502 C135 494 125 481 125 465 C125 442 149 420 176 431 C204 442 248 459 291 459 C372 459 418 423 403 342 L393 287 C339 311 280 322 227 322 C127 322 34 263 34 153 C34 69 102 -10 242 -10 C321 -10 381 22 412 42 C429 53 431 64 434 82 Z M240 60 C152 60 113 104 113 152 C113 230 183 254 248 254 C288 254 337 243 382 221 L361 97 C336 78 292 60 240 60 Z M335 568 C397 568 434 619 434 670 C434 718 401 756 347 756 C283 756 246 705 246 655 C246 606 282 568 335 568 Z M336 614 C309 614 293 633 293 656 C293 683 313 709 345 709 C372 709 387 690 387 667 C387 640 369 614 336 614 Z " />
<glyph glyph-name="aogonek" unicode="&#x105;" horiz-adv-x="543" d="M385 -169 C398 -161 406 -150 406 -137 C406 -122 394 -109 378 -109 C371 -109 364 -113 358 -117 C345 -125 333 -130 318 -130 C293 -130 274 -111 274 -89 C274 -25 352 8 394 32 C423 48 430 56 434 82 L478 336 C501 468 414 533 290 533 C243 533 182 518 151 502 C135 494 125 482 125 465 C125 442 149 420 176 431 C204 442 247 459 291 459 C372 459 418 423 403 342 L393 287 C339 311 280 322 227 322 C127 322 34 263 34 153 C34 58 116 -9 237 -9 C240 -9 244 -9 250 -8 C225 -32 211 -66 211 -93 C211 -154 265 -188 316 -188 C345 -188 364 -182 385 -169 Z M240 60 C152 60 113 104 113 152 C113 230 183 254 248 254 C288 254 337 243 382 221 L361 97 C336 78 292 60 240 60 Z " />
<glyph glyph-name="ae" unicode="&#xe6;" horiz-adv-x="876" d="M395 286 C341 311 278 322 227 322 C128 322 34 264 34 153 C34 60 113 -10 241 -10 C324 -10 383 22 430 59 C467 16 530 -10 607 -10 C658 -10 710 7 746 27 C762 36 775 48 775 65 C775 85 761 103 740 103 C734 103 726 101 720 98 C679 78 635 68 597 68 C525 68 461 108 461 187 C461 196 463 217 466 231 L753 231 C792 231 813 254 821 289 L825 306 C862 463 744 533 638 533 C568 533 509 509 460 452 C432 506 370 533 290 533 C242 533 180 517 151 502 C134 493 125 480 125 465 C125 443 148 420 176 431 C204 442 247 459 291 459 C372 459 420 422 405 341 Z M239 60 C152 60 113 104 113 153 C113 229 182 254 250 254 C293 254 340 241 386 219 C381 175 384 142 395 115 C356 85 301 60 239 60 Z M473 296 C491 409 543 459 637 459 C708 459 776 423 751 314 C748 301 746 296 730 296 Z " />
<glyph glyph-name="cacute" unicode="&#x107;" horiz-adv-x="543" d="M266 68 C187 68 119 115 130 214 C132 238 141 294 147 321 C166 408 216 455 296 455 C349 455 404 436 422 373 C427 357 443 347 457 347 C483 347 498 365 498 388 C498 396 495 407 491 418 C473 470 411 533 298 533 C185 533 97 468 70 333 C62 294 55 247 52 220 C36 67 149 -10 269 -10 C391 -10 445 73 462 118 C465 127 466 133 466 141 C466 163 449 179 429 179 C410 179 397 168 392 155 C366 86 315 68 266 68 Z M272 653 C255 646 250 633 250 622 C250 602 266 590 282 590 C288 590 295 591 300 594 L442 661 C463 671 470 684 470 696 C470 712 458 727 437 727 C431 727 423 726 416 722 Z " />
<glyph glyph-name="ccaron" unicode="&#x10d;" horiz-adv-x="545" d="M266 68 C187 68 119 115 130 214 C132 238 141 294 147 321 C166 408 216 455 296 455 C349 455 404 436 422 373 C427 357 443 347 457 347 C483 347 498 365 498 388 C498 396 495 407 491 418 C473 470 411 533 298 533 C185 533 97 468 70 333 C62 294 55 247 52 220 C36 67 149 -10 269 -10 C391 -10 445 73 462 118 C465 127 466 133 466 141 C466 163 449 179 429 179 C410 179 397 168 392 155 C366 86 315 68 266 68 Z M321 589 C332 589 341 594 352 601 L450 666 C462 674 469 685 469 698 C469 714 457 729 437 729 C431 729 423 727 415 721 L325 660 L256 719 C249 725 241 729 233 729 C213 729 199 713 199 696 C199 686 202 677 211 670 L292 601 C300 594 309 589 321 589 Z " />
<glyph glyph-name="cdotaccent" unicode="&#x10b;" horiz-adv-x="543" d="M266 68 C187 68 119 115 130 214 C132 238 141 294 147 321 C166 408 216 455 296 455 C349 455 404 436 422 373 C427 357 443 347 457 347 C483 347 498 365 498 388 C498 396 495 407 491 418 C473 470 411 533 298 533 C185 533 97 468 70 333 C62 294 55 247 52 220 C36 67 149 -10 269 -10 C391 -10 445 73 462 118 C465 127 466 133 466 141 C466 163 449 179 429 179 C410 179 397 168 392 155 C366 86 315 68 266 68 Z M333 690 C304 690 283 666 283 641 C283 615 301 599 326 599 C353 599 375 621 375 648 C375 673 357 690 333 690 Z " />
<glyph glyph-name="ccedilla" unicode="&#xe7;" horiz-adv-x="543" d="M458 347 C484 347 498 365 498 388 C498 396 495 407 491 418 C473 470 411 533 298 533 C185 533 97 468 70 333 C62 294 55 247 52 220 C38 87 121 13 218 -5 L188 -66 C178 -86 190 -105 209 -105 C221 -105 229 -99 242 -99 C259 -99 273 -107 273 -126 C273 -167 210 -186 180 -196 C163 -202 153 -210 153 -225 C153 -240 165 -251 180 -251 C187 -251 195 -249 201 -248 C256 -233 332 -195 332 -125 C332 -81 298 -50 251 -50 L274 -9 C394 -6 445 75 462 118 C465 127 466 133 466 141 C466 163 449 179 429 179 C410 179 397 168 392 155 C366 86 315 68 266 68 C187 68 119 115 130 214 C132 238 140 292 147 321 C166 408 216 455 296 455 C349 455 404 436 422 373 C427 356 444 347 458 347 Z " />
<glyph glyph-name="dcaron" unicode="&#x10f;" horiz-adv-x="630" d="M70 333 C62 292 55 253 52 220 C36 67 136 -10 261 -10 C336 -10 399 19 434 41 C452 52 457 59 460 78 L557 661 C562 690 545 710 518 710 C498 710 483 697 478 672 L449 493 C414 512 360 533 292 533 C184 533 97 468 70 333 Z M130 214 C134 247 141 295 147 321 C166 408 214 455 297 455 C357 455 411 431 435 414 L384 105 C358 87 312 68 262 68 C176 68 119 112 130 214 Z M627 545 C642 545 655 554 668 569 C689 593 699 616 708 658 L717 704 C721 726 708 743 687 743 C670 743 655 731 652 711 L642 661 C637 633 632 623 611 600 C603 591 597 584 597 573 C597 557 609 545 627 545 Z " />
<glyph glyph-name="dcroat" unicode="&#x111;" horiz-adv-x="593" d="M334 613 C334 596 348 582 368 582 L463 582 L449 493 C414 512 359 533 292 533 C184 533 97 468 70 333 C63 297 55 252 52 220 C36 67 136 -10 261 -10 C336 -10 399 19 434 41 C452 52 457 59 460 78 L544 582 L572 582 C598 582 613 600 613 619 C613 636 600 649 578 649 L552 649 L557 680 C561 705 542 724 519 724 C503 724 484 713 481 690 L475 649 L373 649 C350 649 334 632 334 613 Z M384 105 C358 87 312 68 262 68 C176 68 119 112 130 214 C134 247 141 295 147 321 C166 408 214 455 297 455 C357 455 411 431 435 414 Z " />
<glyph glyph-name="egrave" unicode="&#xe8;" horiz-adv-x="543" d="M134 231 L421 231 C461 231 480 254 489 289 L493 306 C529 458 419 533 303 533 C201 533 104 482 71 328 C64 296 56 257 52 219 C39 83 126 -10 275 -10 C324 -10 376 6 414 27 C429 35 443 48 443 65 C443 87 427 103 408 103 C402 103 395 101 388 98 C346 78 305 68 266 68 C182 68 119 118 131 208 Z M145 296 C165 404 210 459 305 459 C383 459 445 416 418 310 C415 299 412 296 400 296 Z M370 589 C389 589 403 603 403 621 C403 632 398 643 385 650 L257 722 C249 726 242 728 235 728 C217 728 202 714 202 694 C202 684 207 671 221 664 L347 595 C355 590 363 589 370 589 Z " />
<glyph glyph-name="eacute" unicode="&#xe9;" horiz-adv-x="543" d="M134 231 L421 231 C461 231 480 254 489 289 L493 306 C529 458 419 533 303 533 C201 533 104 482 71 328 C64 296 56 257 52 219 C39 83 126 -10 275 -10 C324 -10 376 6 414 27 C429 35 443 48 443 65 C443 87 427 103 408 103 C402 103 395 101 388 98 C346 78 305 68 266 68 C182 68 119 118 131 208 Z M145 296 C165 404 210 459 305 459 C383 459 445 416 418 310 C415 299 412 296 400 296 Z M289 654 C272 647 267 634 267 623 C267 603 283 591 299 591 C305 591 312 592 317 595 L459 662 C480 672 487 685 487 697 C487 713 475 728 454 728 C448 728 440 727 433 723 Z " />
<glyph glyph-name="ecircumflex" unicode="&#xea;" horiz-adv-x="545" d="M134 231 L421 231 C461 231 480 254 489 289 L493 306 C529 458 419 533 303 533 C201 533 104 482 71 328 C64 296 56 257 52 219 C39 83 126 -10 275 -10 C324 -10 376 6 414 27 C429 35 443 48 443 65 C443 87 427 103 408 103 C402 103 395 101 388 98 C346 78 305 68 266 68 C182 68 119 118 131 208 Z M145 296 C165 404 210 459 305 459 C383 459 445 416 418 310 C415 299 412 296 400 296 Z M348 660 L414 598 C423 591 430 587 441 587 C458 587 472 601 472 619 C472 629 468 637 458 647 L383 717 C374 726 363 730 352 730 C340 730 330 726 319 719 L215 649 C203 641 196 631 196 618 C196 601 209 588 226 588 C234 588 241 590 250 595 Z " />
<glyph glyph-name="ecaron" unicode="&#x11b;" horiz-adv-x="547" d="M134 231 L421 231 C461 231 480 254 489 289 L493 306 C529 458 419 533 303 533 C201 533 104 482 71 328 C64 296 56 257 52 219 C39 83 126 -10 275 -10 C324 -10 376 6 414 27 C429 35 443 48 443 65 C443 87 427 103 408 103 C402 103 395 101 388 98 C346 78 305 68 266 68 C182 68 119 118 131 208 Z M145 296 C165 404 210 459 305 459 C383 459 445 416 418 310 C415 299 412 296 400 296 Z M337 588 C348 588 357 593 368 600 L466 665 C478 673 485 684 485 697 C485 713 473 728 453 728 C447 728 439 726 431 720 L341 659 L272 718 C265 724 257 728 249 728 C229 728 215 712 215 695 C215 685 218 676 227 669 L308 600 C316 593 325 588 337 588 Z " />
<glyph glyph-name="edieresis" unicode="&#xeb;" horiz-adv-x="543" d="M134 231 L421 231 C461 231 480 254 489 289 L493 306 C529 458 419 533 303 533 C201 533 104 482 71 328 C64 296 56 257 52 219 C39 83 126 -10 275 -10 C324 -10 376 6 414 27 C429 35 443 48 443 65 C443 87 427 103 408 103 C402 103 395 101 388 98 C346 78 305 68 266 68 C182 68 119 118 131 208 Z M145 296 C165 404 210 459 305 459 C383 459 445 416 418 310 C415 299 412 296 400 296 Z M265 690 C236 690 215 666 215 641 C215 615 233 599 258 599 C285 599 307 621 307 648 C307 673 289 690 265 690 Z M425 690 C396 690 375 666 375 641 C375 615 393 599 418 599 C445 599 467 621 467 648 C467 673 449 690 425 690 Z " />
<glyph glyph-name="emacron" unicode="&#x113;" horiz-adv-x="543" d="M134 231 L421 231 C461 231 480 254 489 289 L493 306 C529 458 419 533 303 533 C201 533 104 482 71 328 C64 296 56 257 52 219 C39 83 126 -10 275 -10 C324 -10 376 6 414 27 C429 35 443 48 443 65 C443 87 427 103 408 103 C402 103 395 101 388 98 C346 78 305 68 266 68 C182 68 119 118 131 208 Z M145 296 C165 404 210 459 305 459 C383 459 445 416 418 310 C415 299 412 296 400 296 Z M427 609 C450 610 465 627 465 646 C465 663 453 678 431 678 L270 678 C245 678 230 660 230 642 C230 625 243 609 266 609 Z " />
<glyph glyph-name="edotaccent" unicode="&#x117;" horiz-adv-x="543" d="M134 231 L421 231 C461 231 480 254 489 289 L493 306 C529 458 419 533 303 533 C201 533 104 482 71 328 C64 296 56 257 52 219 C39 83 126 -10 275 -10 C324 -10 376 6 414 27 C429 35 443 48 443 65 C443 87 427 103 408 103 C402 103 395 101 388 98 C346 78 305 68 266 68 C182 68 119 118 131 208 Z M145 296 C165 404 210 459 305 459 C383 459 445 416 418 310 C415 299 412 296 400 296 Z M345 689 C316 689 295 665 295 640 C295 614 313 598 338 598 C365 598 387 620 387 647 C387 672 369 689 345 689 Z " />
<glyph glyph-name="eogonek" unicode="&#x119;" horiz-adv-x="543" d="M319 -194 C345 -194 368 -187 386 -175 C401 -165 407 -155 407 -143 C407 -127 394 -115 379 -115 C372 -115 365 -119 359 -123 C345 -132 332 -136 318 -136 C294 -136 275 -118 275 -95 C275 -36 351 -1 394 17 C432 33 443 48 443 67 C443 84 429 103 408 103 C402 103 395 101 388 98 C346 78 305 68 266 68 C182 68 119 118 131 208 L134 231 L421 231 C461 231 480 254 489 289 L493 306 C529 462 415 533 303 533 C196 533 103 477 71 328 C64 296 56 257 52 219 C39 88 121 -2 255 -9 C230 -34 212 -67 212 -99 C212 -160 265 -194 319 -194 Z M145 296 C165 404 210 459 305 459 C383 459 445 417 418 310 C415 298 411 296 399 296 Z " />
<glyph glyph-name="gbreve" unicode="&#x11f;" horiz-adv-x="579" d="M530 434 C533 455 525 466 513 474 C481 498 409 533 315 533 C192 533 108 468 82 333 C73 286 67 254 64 221 C52 89 128 5 270 5 C302 5 355 16 387 36 C372 -77 308 -121 230 -121 C172 -121 130 -96 99 -75 C89 -68 80 -65 71 -65 C48 -65 33 -83 33 -104 C33 -117 42 -128 55 -138 C83 -162 150 -196 236 -196 C326 -196 435 -149 463 23 Z M315 455 C377 455 420 438 449 422 L399 121 C365 96 325 76 270 76 C176 76 134 124 142 214 C145 247 153 294 158 321 C176 408 226 455 315 455 Z M384 588 C449 588 490 629 507 670 C511 678 514 688 514 696 C514 713 501 725 484 725 C463 725 455 709 451 699 C439 670 422 649 385 649 C347 649 337 674 331 694 C328 709 322 725 302 725 C286 725 269 715 269 691 C269 680 272 670 274 663 C291 612 335 588 384 588 Z " />
<glyph glyph-name="gdotaccent" unicode="&#x121;" horiz-adv-x="579" d="M530 434 C533 455 525 466 513 474 C481 498 409 533 315 533 C192 533 108 468 82 333 C73 286 67 254 64 221 C52 89 128 5 270 5 C302 5 355 16 387 36 C372 -77 308 -121 230 -121 C172 -121 130 -96 99 -75 C89 -68 80 -65 71 -65 C48 -65 33 -83 33 -104 C33 -117 42 -128 55 -138 C83 -162 150 -196 236 -196 C326 -196 435 -149 463 23 Z M315 455 C377 455 420 438 449 422 L399 121 C365 96 325 76 270 76 C176 76 134 124 142 214 C145 247 153 294 158 321 C176 408 226 455 315 455 Z M390 690 C361 690 340 666 340 641 C340 615 358 599 383 599 C410 599 432 621 432 648 C432 673 414 690 390 690 Z " />
<glyph glyph-name="gcommaaccent" unicode="&#x123;" horiz-adv-x="579" d="M530 434 C533 455 525 466 513 474 C481 498 409 533 315 533 C192 533 108 468 82 333 C73 286 67 254 64 221 C52 89 128 5 270 5 C302 5 355 16 387 36 C372 -77 308 -121 230 -121 C172 -121 130 -96 99 -75 C89 -68 80 -65 71 -65 C48 -65 33 -83 33 -104 C33 -117 42 -128 55 -138 C83 -162 150 -196 236 -196 C326 -196 435 -149 463 23 Z M315 455 C377 455 420 438 449 422 L399 121 C365 96 325 76 270 76 C176 76 134 124 142 214 C145 247 153 294 158 321 C176 408 226 455 315 455 Z M368 565 C384 565 396 575 405 585 C430 613 441 637 451 686 L461 734 C465 755 455 777 430 777 C414 777 399 765 395 745 L385 689 C380 659 371 640 350 617 C343 609 338 602 338 592 C338 577 350 565 368 565 Z " />
<glyph glyph-name="igrave" unicode="&#xec;" horiz-adv-x="282" d="M197 589 C216 589 230 603 230 621 C230 632 225 643 212 650 L84 722 C76 726 69 728 62 728 C44 728 29 714 29 694 C29 684 34 671 48 664 L174 595 C182 590 190 589 197 589 Z M53 46 C48 16 65 -4 92 -4 C112 -4 128 9 132 34 L206 476 C211 505 194 526 167 526 C147 526 131 512 127 488 Z " />
<glyph glyph-name="iacute" unicode="&#xed;" horiz-adv-x="282" d="M169 653 C152 646 147 633 147 622 C147 602 163 590 179 590 C185 590 192 591 197 594 L339 661 C360 671 367 684 367 696 C367 712 355 727 334 727 C328 727 320 726 313 722 Z M53 46 C48 16 65 -4 92 -4 C112 -4 128 9 132 34 L206 476 C211 505 194 526 167 526 C147 526 131 512 127 488 Z " />
<glyph glyph-name="icircumflex" unicode="&#xee;" horiz-adv-x="282" d="M53 46 C48 16 65 -4 92 -4 C112 -4 128 9 132 34 L206 476 C211 505 194 526 167 526 C147 526 131 512 127 488 Z M199 660 L265 598 C274 591 281 587 292 587 C309 587 323 601 323 619 C323 629 319 637 309 647 L234 717 C225 726 214 730 203 730 C191 730 181 726 170 719 L66 649 C54 641 47 631 47 618 C47 601 60 588 77 588 C85 588 92 590 101 595 Z " />
<glyph glyph-name="idieresis" unicode="&#xef;" horiz-adv-x="282" d="M118 690 C89 690 68 666 68 641 C68 615 86 599 111 599 C138 599 160 621 160 648 C160 673 142 690 118 690 Z M278 690 C249 690 228 666 228 641 C228 615 246 599 271 599 C298 599 320 621 320 648 C320 673 302 690 278 690 Z M53 46 C48 16 65 -4 92 -4 C112 -4 128 9 132 34 L206 476 C211 505 194 526 167 526 C147 526 131 512 127 488 Z " />
<glyph glyph-name="imacron" unicode="&#x12b;" horiz-adv-x="282" d="M269 609 C292 610 307 627 307 646 C307 663 295 678 273 678 L112 678 C87 678 72 660 72 642 C72 625 85 609 108 609 Z M53 46 C48 16 65 -4 92 -4 C112 -4 128 9 132 34 L206 476 C211 505 194 526 167 526 C147 526 131 512 127 488 Z " />
<glyph glyph-name="iogonek" unicode="&#x12f;" horiz-adv-x="283" d="M52 -205 C78 -205 102 -198 121 -185 C134 -176 140 -167 140 -152 C140 -137 125 -126 113 -126 C106 -126 97 -130 92 -134 C79 -143 65 -147 53 -147 C32 -147 8 -137 8 -103 C8 -49 66 -21 104 -5 C121 3 132 13 135 34 L209 476 C214 505 197 526 170 526 C150 526 134 512 130 488 L58 59 C56 46 57 31 63 22 C3 -2 -54 -44 -54 -111 C-54 -174 4 -205 52 -205 Z M251 670 C251 696 233 717 205 717 C173 717 152 691 152 664 C152 638 170 616 200 616 C231 616 251 644 251 670 Z " />
<glyph glyph-name="dotlessi" unicode="&#x131;" horiz-adv-x="259" d="M52 46 C47 16 64 -4 91 -4 C111 -4 127 9 131 34 L205 476 C210 505 193 526 166 526 C146 526 130 512 126 488 Z " />
<glyph glyph-name="kcommaaccent" unicode="&#x137;" horiz-adv-x="534" d="M200 710 C180 710 164 697 160 672 L56 46 C51 16 68 -4 95 -4 C114 -4 131 9 135 34 L168 232 L197 232 C223 232 234 228 247 209 L388 16 C399 0 410 -4 424 -4 C448 -4 462 14 462 32 C462 42 458 53 450 63 L299 267 L498 456 C508 467 513 478 513 490 C513 512 495 526 475 526 C463 526 453 521 443 511 L261 332 C239 311 231 307 204 307 L180 307 L239 661 C244 690 227 710 200 710 Z M175 -241 C191 -241 203 -231 212 -221 C237 -193 248 -169 258 -120 L268 -72 C272 -51 262 -29 237 -29 C221 -29 206 -41 202 -61 L192 -117 C187 -147 178 -166 157 -189 C150 -197 145 -204 145 -214 C145 -229 157 -241 175 -241 Z " />
<glyph glyph-name="lacute" unicode="&#x13a;" horiz-adv-x="266" d="M49 46 C44 16 61 -4 88 -4 C107 -4 124 9 128 34 L232 661 C237 690 220 710 193 710 C173 710 157 697 153 672 Z M188 818 C171 811 166 798 166 787 C166 767 182 755 198 755 C204 755 211 756 216 759 L358 826 C379 836 386 849 386 861 C386 877 374 892 353 892 C347 892 339 891 332 887 Z " />
<glyph glyph-name="lcaron" unicode="&#x13e;" horiz-adv-x="335" d="M56 46 C51 16 68 -4 95 -4 C114 -4 131 9 135 34 L239 661 C244 690 227 710 200 710 C180 710 164 697 160 672 Z M296 545 C311 545 324 554 337 569 C358 593 368 616 377 658 L386 704 C390 726 377 743 356 743 C339 743 324 731 321 711 L311 661 C306 633 301 623 280 600 C272 591 266 584 266 573 C266 557 278 545 296 545 Z " />
<glyph glyph-name="lcommaaccent" unicode="&#x13c;" horiz-adv-x="266" d="M49 46 C44 16 61 -4 88 -4 C107 -4 124 9 128 34 L232 661 C237 690 220 710 193 710 C173 710 157 697 153 672 Z M14 -241 C30 -241 42 -231 51 -221 C76 -193 87 -169 97 -120 L107 -72 C111 -51 101 -29 76 -29 C60 -29 45 -41 41 -61 L31 -117 C26 -147 17 -166 -4 -189 C-11 -197 -16 -204 -16 -214 C-16 -229 -4 -241 14 -241 Z " />
<glyph glyph-name="lslash" unicode="&#x142;" horiz-adv-x="305" d="M59 46 C54 16 71 -4 98 -4 C118 -4 134 9 138 34 L189 344 L287 398 C303 407 310 419 310 432 C310 449 297 462 278 462 C271 462 265 460 257 456 L203 426 L242 661 C247 690 231 710 204 710 C183 710 168 697 164 672 L114 378 L24 328 C10 320 3 308 3 296 C3 278 15 264 34 264 C40 264 46 266 51 268 L101 296 Z " />
<glyph glyph-name="nacute" unicode="&#x144;" horiz-adv-x="591" d="M523 315 C550 477 442 533 331 533 C244 533 172 501 139 481 C121 470 115 461 112 443 L46 46 C41 16 58 -4 85 -4 C104 -4 121 9 125 34 L188 415 C218 433 273 454 326 454 C384 454 463 432 442 312 L397 44 C392 15 410 -4 434 -4 C456 -4 471 9 476 35 Z M301 653 C284 646 279 633 279 622 C279 602 295 590 311 590 C317 590 324 591 329 594 L471 661 C492 671 499 684 499 696 C499 712 487 727 466 727 C460 727 452 726 445 722 Z " />
<glyph glyph-name="ncaron" unicode="&#x148;" horiz-adv-x="591" d="M523 315 C550 477 442 533 331 533 C244 533 172 501 139 481 C121 470 115 461 112 443 L46 46 C41 16 58 -4 85 -4 C104 -4 121 9 125 34 L188 415 C218 433 273 454 326 454 C384 454 463 432 442 312 L397 44 C392 15 410 -4 434 -4 C456 -4 471 9 476 35 Z M344 589 C355 589 364 594 375 601 L473 666 C485 674 492 685 492 698 C492 714 480 729 460 729 C454 729 446 727 438 721 L348 660 L279 719 C272 725 264 729 256 729 C236 729 222 713 222 696 C222 686 225 677 234 670 L315 601 C323 594 332 589 344 589 Z " />
<glyph glyph-name="ntilde" unicode="&#xf1;" horiz-adv-x="592" d="M523 315 C550 477 442 533 331 533 C244 533 172 501 139 481 C121 470 115 461 112 443 L46 46 C41 16 58 -4 85 -4 C104 -4 121 9 125 34 L188 415 C218 433 273 454 326 454 C384 454 463 432 442 312 L397 44 C392 15 410 -4 434 -4 C456 -4 471 9 476 35 Z M396 594 C420 594 447 607 472 625 C485 636 493 646 493 660 C493 677 477 690 462 690 C437 690 424 660 398 660 C367 660 335 698 288 698 C262 698 232 685 210 664 C200 656 192 646 192 634 C192 618 207 603 224 603 C247 603 257 632 286 632 C317 632 348 594 396 594 Z " />
<glyph glyph-name="ncommaaccent" unicode="&#x146;" horiz-adv-x="591" d="M523 315 C550 477 442 533 331 533 C244 533 172 501 139 481 C121 470 115 461 112 443 L46 46 C41 16 58 -4 85 -4 C104 -4 121 9 125 34 L188 415 C218 433 273 454 326 454 C384 454 463 432 442 312 L397 44 C392 15 410 -4 434 -4 C456 -4 471 9 476 35 Z M198 -241 C214 -241 226 -231 235 -221 C260 -193 271 -169 281 -120 L291 -72 C295 -51 285 -29 260 -29 C244 -29 229 -41 225 -61 L215 -117 C210 -147 201 -166 180 -189 C173 -197 168 -204 168 -214 C168 -229 180 -241 198 -241 Z " />
<glyph glyph-name="ograve" unicode="&#xf2;" horiz-adv-x="560" d="M302 533 C187 533 100 471 70 337 C61 295 53 240 51 214 C39 67 154 -10 271 -10 C383 -10 465 57 494 186 C503 228 511 283 513 309 C525 456 414 533 302 533 Z M434 306 C432 285 425 235 419 206 C399 116 350 68 267 68 C200 68 118 109 130 216 C132 236 139 288 145 317 C165 407 216 455 300 455 C368 455 445 409 434 306 Z M372 589 C391 589 405 603 405 621 C405 632 400 643 387 650 L259 722 C251 726 244 728 237 728 C219 728 204 714 204 694 C204 684 209 671 223 664 L349 595 C357 590 365 589 372 589 Z " />
<glyph glyph-name="oacute" unicode="&#xf3;" horiz-adv-x="560" d="M302 533 C187 533 100 471 70 337 C61 295 53 240 51 214 C39 67 154 -10 271 -10 C383 -10 465 57 494 186 C503 228 511 283 513 309 C525 456 414 533 302 533 Z M434 306 C432 285 425 235 419 206 C399 116 350 68 267 68 C200 68 118 109 130 216 C132 236 139 288 145 317 C165 407 216 455 300 455 C368 455 445 409 434 306 Z M297 653 C280 646 275 633 275 622 C275 602 291 590 307 590 C313 590 320 591 325 594 L467 661 C488 671 495 684 495 696 C495 712 483 727 462 727 C456 727 448 726 441 722 Z " />
<glyph glyph-name="ocircumflex" unicode="&#xf4;" horiz-adv-x="560" d="M302 533 C187 533 100 471 70 337 C61 295 53 240 51 214 C39 67 154 -10 271 -10 C383 -10 465 57 494 186 C503 228 511 283 513 309 C525 456 414 533 302 533 Z M434 306 C432 285 425 235 419 206 C399 116 350 68 267 68 C200 68 118 109 130 216 C132 236 139 288 145 317 C165 407 216 455 300 455 C368 455 445 409 434 306 Z M345 659 L411 597 C420 590 427 586 438 586 C455 586 469 600 469 618 C469 628 465 636 455 646 L380 716 C371 725 360 729 349 729 C337 729 327 725 316 718 L212 648 C200 640 193 630 193 617 C193 600 206 587 223 587 C231 587 238 589 247 594 Z " />
<glyph glyph-name="otilde" unicode="&#xf5;" horiz-adv-x="561" d="M302 533 C187 533 100 471 70 337 C61 295 53 240 51 214 C39 67 154 -10 271 -10 C383 -10 465 57 494 186 C503 228 511 283 513 309 C525 456 414 533 302 533 Z M434 306 C432 285 425 235 419 206 C399 116 350 68 267 68 C200 68 118 109 130 216 C132 236 139 288 145 317 C165 407 216 455 300 455 C368 455 445 409 434 306 Z M393 594 C417 594 444 607 469 625 C482 636 490 646 490 660 C490 677 474 690 459 690 C434 690 421 660 395 660 C364 660 332 698 285 698 C259 698 229 685 207 664 C197 656 189 646 189 634 C189 618 204 603 221 603 C244 603 254 632 283 632 C314 632 345 594 393 594 Z " />
<glyph glyph-name="odieresis" unicode="&#xf6;" horiz-adv-x="560" d="M302 533 C187 533 100 471 70 337 C61 295 53 240 51 214 C39 67 154 -10 271 -10 C383 -10 465 57 494 186 C503 228 511 283 513 309 C525 456 414 533 302 533 Z M434 306 C432 285 425 235 419 206 C399 116 350 68 267 68 C200 68 118 109 130 216 C132 236 139 288 145 317 C165 407 216 455 300 455 C368 455 445 409 434 306 Z M268 690 C239 690 218 666 218 641 C218 615 236 599 261 599 C288 599 310 621 310 648 C310 673 292 690 268 690 Z M428 690 C399 690 378 666 378 641 C378 615 396 599 421 599 C448 599 470 621 470 648 C470 673 452 690 428 690 Z " />
<glyph glyph-name="omacron" unicode="&#x14d;" horiz-adv-x="560" d="M302 533 C187 533 100 471 70 337 C61 295 53 240 51 214 C39 67 154 -10 271 -10 C383 -10 465 57 494 186 C503 228 511 283 513 309 C525 456 414 533 302 533 Z M434 306 C432 285 425 235 419 206 C399 116 350 68 267 68 C200 68 118 109 130 216 C132 236 139 288 145 317 C165 407 216 455 300 455 C368 455 445 409 434 306 Z M421 609 C444 610 459 627 459 646 C459 663 447 678 425 678 L264 678 C239 678 224 660 224 642 C224 625 237 609 260 609 Z " />
<glyph glyph-name="ohungarumlaut" unicode="&#x151;" horiz-adv-x="560" d="M302 533 C187 533 100 471 70 337 C61 295 53 240 51 214 C39 67 154 -10 271 -10 C383 -10 465 57 494 186 C503 228 511 283 513 309 C525 456 414 533 302 533 Z M434 306 C432 285 425 235 419 206 C399 116 350 68 267 68 C200 68 118 109 130 216 C132 236 139 288 145 317 C165 407 216 455 300 455 C368 455 445 409 434 306 Z M388 681 C397 689 402 701 402 710 C402 729 388 744 368 744 C357 744 348 739 339 731 L240 652 C230 643 224 632 224 622 C224 601 239 589 257 589 C267 589 277 593 286 601 Z M553 681 C562 689 568 701 568 710 C568 729 553 744 534 744 C522 744 513 739 505 731 L405 652 C395 643 389 632 389 622 C389 601 404 589 422 589 C432 589 442 593 451 601 Z " />
<glyph glyph-name="oslash" unicode="&#xf8;" horiz-adv-x="566" d="M269 -10 C379 -10 465 56 493 191 C501 228 506 263 510 299 C515 348 508 392 490 427 L538 473 C550 484 554 494 554 502 C554 516 541 528 526 528 C517 528 507 523 498 514 L455 473 C415 513 356 533 298 533 C184 533 94 468 67 332 C59 294 54 259 50 223 C44 175 53 131 70 99 L23 52 C13 42 8 32 8 22 C8 8 20 -4 35 -4 C45 -4 54 3 64 12 L105 52 C147 11 207 -10 269 -10 Z M265 68 C228 68 188 79 160 106 L427 366 C435 346 433 312 430 288 C427 265 421 225 416 202 C396 115 347 68 265 68 Z M131 158 C126 176 125 199 129 225 C132 248 138 295 143 317 C162 404 216 455 298 455 C331 455 368 446 398 417 Z " />
<glyph glyph-name="oe" unicode="&#x153;" horiz-adv-x="906" d="M506 296 C525 406 573 459 667 459 C740 459 808 421 780 311 C777 300 772 296 760 296 Z M268 68 C194 68 119 115 131 216 C134 244 141 291 146 317 C164 403 216 455 298 455 C380 455 448 401 434 297 C431 272 425 228 419 202 C399 117 351 68 268 68 Z M448 81 C479 22 551 -10 635 -10 C691 -10 740 8 774 26 C793 36 805 48 805 67 C805 84 791 103 771 103 C765 103 757 101 750 98 C708 78 668 68 630 68 C546 68 481 114 493 208 L496 231 L783 231 C822 231 843 254 851 289 L855 306 C891 464 775 533 668 533 C596 533 532 509 483 438 C451 491 389 533 301 533 C187 533 99 469 70 333 C63 297 55 256 52 214 C41 62 159 -10 272 -10 C349 -10 405 22 448 81 Z " />
<glyph glyph-name="racute" unicode="&#x155;" horiz-adv-x="377" d="M369 518 C345 526 314 533 275 533 C186 533 119 494 99 374 L44 46 C39 16 56 -4 83 -4 C102 -4 119 9 123 34 L176 357 C188 434 225 454 273 454 C313 454 341 440 361 440 C384 440 401 455 401 478 C401 495 390 511 369 518 Z M214 652 C197 645 192 632 192 621 C192 601 208 589 224 589 C230 589 237 590 242 593 L384 660 C405 670 412 683 412 695 C412 711 400 726 379 726 C373 726 365 725 358 721 Z " />
<glyph glyph-name="rcaron" unicode="&#x159;" horiz-adv-x="377" d="M369 518 C345 526 314 533 275 533 C186 533 119 494 99 374 L44 46 C39 16 56 -4 83 -4 C102 -4 119 9 123 34 L176 357 C188 434 225 454 273 454 C313 454 341 440 361 440 C384 440 401 455 401 478 C401 495 390 511 369 518 Z M278 588 C289 588 298 593 309 600 L407 665 C419 673 426 684 426 697 C426 713 414 728 394 728 C388 728 380 726 372 720 L282 659 L213 718 C206 724 198 728 190 728 C170 728 156 712 156 695 C156 685 159 676 168 669 L249 600 C257 593 266 588 278 588 Z " />
<glyph glyph-name="rcommaaccent" unicode="&#x157;" horiz-adv-x="377" d="M371 518 C347 526 316 533 277 533 C188 533 121 494 101 374 L46 46 C41 16 58 -4 85 -4 C104 -4 121 9 125 34 L178 357 C190 434 227 454 275 454 C315 454 343 440 363 440 C386 440 403 455 403 478 C403 495 392 511 371 518 Z M12 -241 C28 -241 40 -231 49 -221 C74 -193 85 -169 95 -120 L105 -72 C109 -51 99 -29 74 -29 C58 -29 43 -41 39 -61 L29 -117 C24 -147 15 -166 -6 -189 C-13 -197 -18 -204 -18 -214 C-18 -229 -6 -241 12 -241 Z " />
<glyph glyph-name="sacute" unicode="&#x15b;" horiz-adv-x="504" d="M260 304 C206 326 170 344 170 385 C170 431 220 459 273 459 C317 459 357 443 390 423 C399 417 409 413 420 413 C442 413 455 430 455 449 C455 460 450 471 437 482 C413 503 350 533 274 533 C185 533 91 487 91 384 C91 305 157 269 217 242 C281 213 346 201 346 144 C346 97 302 63 237 63 C179 63 127 92 91 118 C81 125 72 130 62 130 C41 130 25 111 25 92 C25 80 31 70 40 61 C68 34 149 -10 239 -10 C348 -10 425 55 425 145 C425 240 340 272 260 304 Z M267 653 C250 646 245 633 245 622 C245 602 261 590 277 590 C283 590 290 591 295 594 L437 661 C458 671 465 684 465 696 C465 712 453 727 432 727 C426 727 418 726 411 722 Z " />
<glyph glyph-name="scaron" unicode="&#x161;" horiz-adv-x="503" d="M260 304 C206 326 170 344 170 385 C170 431 220 459 273 459 C317 459 357 443 390 423 C399 417 409 413 420 413 C442 413 455 430 455 449 C455 460 450 471 437 482 C413 503 350 533 274 533 C185 533 91 487 91 384 C91 305 157 269 217 242 C281 213 346 201 346 144 C346 97 302 63 237 63 C179 63 127 92 91 118 C81 125 72 130 62 130 C41 130 25 111 25 92 C25 80 31 70 40 61 C68 34 149 -10 239 -10 C348 -10 425 55 425 145 C425 240 340 272 260 304 Z M322 577 C333 577 342 582 353 589 L451 654 C463 662 470 673 470 686 C470 702 458 717 438 717 C432 717 424 715 416 709 L326 648 L257 707 C250 713 242 717 234 717 C214 717 200 701 200 684 C200 674 203 665 212 658 L293 589 C301 582 310 577 322 577 Z " />
<glyph glyph-name="scedilla" unicode="&#x15f;" horiz-adv-x="497" d="M154 -251 C161 -251 169 -249 175 -248 C230 -233 306 -195 306 -125 C306 -81 272 -50 225 -50 L247 -11 L247 -10 C351 -6 424 57 424 145 C424 240 339 272 259 304 C205 326 169 344 169 385 C169 431 219 459 272 459 C316 459 356 443 389 423 C398 417 408 413 419 413 C441 413 454 430 454 449 C454 460 449 471 436 482 C412 503 349 533 273 533 C184 533 90 487 90 384 C90 305 156 269 216 242 C280 213 345 201 345 144 C345 97 301 66 236 66 C178 66 126 92 90 118 C80 125 71 130 61 130 C40 130 24 111 24 92 C24 80 30 70 39 61 C62 38 122 5 193 -5 L162 -66 C152 -86 163 -105 183 -105 C195 -105 203 -99 216 -99 C233 -99 247 -107 247 -126 C247 -167 183 -186 152 -196 C136 -201 127 -210 127 -225 C127 -240 139 -251 154 -251 Z " />
<glyph glyph-name="scommaaccent" unicode="&#x219;" horiz-adv-x="497" d="M260 304 C206 326 170 344 170 385 C170 431 220 459 273 459 C317 459 357 443 390 423 C399 417 409 413 420 413 C442 413 455 430 455 449 C455 460 450 471 437 482 C413 503 350 533 274 533 C185 533 91 487 91 384 C91 305 157 269 217 242 C281 213 346 201 346 144 C346 97 302 63 237 63 C179 63 127 92 91 118 C81 125 72 130 62 130 C41 130 25 111 25 92 C25 80 31 70 40 61 C68 34 149 -10 239 -10 C348 -10 425 55 425 145 C425 240 340 272 260 304 Z M162 -241 C178 -241 190 -231 199 -221 C224 -193 235 -169 245 -120 L255 -72 C259 -51 249 -29 224 -29 C208 -29 193 -41 189 -61 L179 -117 C174 -147 165 -166 144 -189 C137 -197 132 -204 132 -214 C132 -229 144 -241 162 -241 Z " />
<glyph glyph-name="germandbls" unicode="&#xdf;" horiz-adv-x="613" d="M79 -4 C101 -4 115 12 119 37 L195 493 C212 596 267 637 337 637 C403 637 446 610 446 563 C446 505 331 464 331 377 C331 321 385 284 433 250 C470 224 498 203 498 162 C498 110 456 66 393 66 C330 66 292 99 277 108 C266 115 257 119 246 119 C225 119 209 103 209 82 C209 70 215 59 227 49 C260 19 324 -10 396 -10 C507 -10 577 69 577 160 C577 243 515 284 467 317 C437 338 412 356 412 380 C412 426 526 472 526 568 C526 653 450 711 340 711 C239 711 142 657 116 498 L41 43 C36 16 54 -4 79 -4 Z " />
<glyph glyph-name="tcaron" unicode="&#x165;" horiz-adv-x="419" d="M313 13 C332 23 342 36 342 54 C342 74 327 91 307 91 C296 91 288 88 272 81 C258 75 242 68 219 68 C153 68 139 112 150 174 L195 437 L349 437 C371 437 389 452 389 473 C389 493 375 509 350 509 L207 509 L220 590 C224 614 209 633 184 633 C166 633 145 623 140 591 L72 181 C50 50 112 -10 219 -10 C245 -10 284 -2 313 13 Z M308 545 C323 545 336 554 349 569 C370 593 380 616 389 658 L398 704 C402 726 389 743 368 743 C351 743 336 731 333 711 L323 661 C318 633 313 623 292 600 C284 591 278 584 278 573 C278 557 290 545 308 545 Z " />
<glyph glyph-name="tcommaaccent" unicode="&#x163;" horiz-adv-x="418" d="M313 13 C332 23 342 36 342 54 C342 74 327 91 307 91 C296 91 288 88 272 81 C258 75 242 68 219 68 C153 68 139 112 150 174 L195 437 L349 437 C371 437 389 452 389 473 C389 493 375 509 350 509 L207 509 L220 590 C224 614 209 633 184 633 C166 633 145 623 140 591 L72 181 C50 50 112 -10 219 -10 C245 -10 284 -2 313 13 Z M134 -241 C150 -241 162 -231 171 -221 C196 -193 207 -169 217 -120 L227 -72 C231 -51 221 -29 196 -29 C180 -29 165 -41 161 -61 L151 -117 C146 -147 137 -166 116 -189 C109 -197 104 -204 104 -214 C104 -229 116 -241 134 -241 Z " />
<glyph glyph-name="ugrave" unicode="&#xf9;" horiz-adv-x="578" d="M64 235 C38 78 129 -10 269 -10 C347 -10 411 18 446 43 C459 52 467 61 470 79 L536 476 C541 507 522 526 498 526 C477 526 461 512 457 488 L394 104 C357 80 307 68 265 68 C188 68 124 106 144 226 L185 478 C190 506 172 526 147 526 C126 526 110 512 106 486 Z M374 589 C393 589 407 603 407 621 C407 632 402 643 389 650 L261 722 C253 726 246 728 239 728 C221 728 206 714 206 694 C206 684 211 671 225 664 L351 595 C359 590 367 589 374 589 Z " />
<glyph glyph-name="uacute" unicode="&#xfa;" horiz-adv-x="578" d="M64 235 C38 78 129 -10 269 -10 C347 -10 411 18 446 43 C459 52 467 61 470 79 L536 476 C541 507 522 526 498 526 C477 526 461 512 457 488 L394 104 C357 80 307 68 265 68 C188 68 124 106 144 226 L185 478 C190 506 172 526 147 526 C126 526 110 512 106 486 Z M304 653 C287 646 282 633 282 622 C282 602 298 590 314 590 C320 590 327 591 332 594 L474 661 C495 671 502 684 502 696 C502 712 490 727 469 727 C463 727 455 726 448 722 Z " />
<glyph glyph-name="ucircumflex" unicode="&#xfb;" horiz-adv-x="578" d="M64 235 C38 78 129 -10 269 -10 C347 -10 411 18 446 43 C459 52 467 61 470 79 L536 476 C541 507 522 526 498 526 C477 526 461 512 457 488 L394 104 C357 80 307 68 265 68 C188 68 124 106 144 226 L185 478 C190 506 172 526 147 526 C126 526 110 512 106 486 Z M352 660 L418 598 C427 591 434 587 445 587 C462 587 476 601 476 619 C476 629 472 637 462 647 L387 717 C378 726 367 730 356 730 C344 730 334 726 323 719 L219 649 C207 641 200 631 200 618 C200 601 213 588 230 588 C238 588 245 590 254 595 Z " />
<glyph glyph-name="udieresis" unicode="&#xfc;" horiz-adv-x="578" d="M64 235 C38 78 129 -10 269 -10 C347 -10 411 18 446 43 C459 52 467 61 470 79 L536 476 C541 507 522 526 498 526 C477 526 461 512 457 488 L394 104 C357 80 307 68 265 68 C188 68 124 106 144 226 L185 478 C190 506 172 526 147 526 C126 526 110 512 106 486 Z M271 690 C242 690 221 666 221 641 C221 615 239 599 264 599 C291 599 313 621 313 648 C313 673 295 690 271 690 Z M431 690 C402 690 381 666 381 641 C381 615 399 599 424 599 C451 599 473 621 473 648 C473 673 455 690 431 690 Z " />
<glyph glyph-name="umacron" unicode="&#x16b;" horiz-adv-x="578" d="M64 235 C38 78 129 -10 269 -10 C347 -10 411 18 446 43 C459 52 467 61 470 79 L536 476 C541 507 522 526 498 526 C477 526 461 512 457 488 L394 104 C357 80 307 68 265 68 C188 68 124 106 144 226 L185 478 C190 506 172 526 147 526 C126 526 110 512 106 486 Z M425 609 C448 610 463 627 463 646 C463 663 451 678 429 678 L268 678 C243 678 228 660 228 642 C228 625 241 609 264 609 Z " />
<glyph glyph-name="uring" unicode="&#x16f;" horiz-adv-x="578" d="M64 235 C38 78 129 -10 269 -10 C347 -10 411 18 446 43 C459 52 467 61 470 79 L536 476 C541 507 522 526 498 526 C477 526 461 512 457 488 L394 104 C357 80 307 68 265 68 C188 68 124 106 144 226 L185 478 C190 506 172 526 147 526 C126 526 110 512 106 486 Z M346 590 C408 590 445 641 445 692 C445 740 412 778 358 778 C294 778 257 727 257 677 C257 628 293 590 346 590 Z M347 636 C320 636 304 655 304 678 C304 705 324 731 356 731 C383 731 398 712 398 689 C398 662 380 636 347 636 Z " />
<glyph glyph-name="uhungarumlaut" unicode="&#x171;" horiz-adv-x="578" d="M64 235 C38 78 129 -10 269 -10 C347 -10 411 18 446 43 C459 52 467 61 470 79 L536 476 C541 507 522 526 498 526 C477 526 461 512 457 488 L394 104 C357 80 307 68 265 68 C188 68 124 106 144 226 L185 478 C190 506 172 526 147 526 C126 526 110 512 106 486 Z M385 682 C394 690 399 702 399 711 C399 730 385 745 365 745 C354 745 345 740 336 732 L237 653 C227 644 221 633 221 623 C221 602 236 590 254 590 C264 590 274 594 283 602 Z M550 682 C559 690 565 702 565 711 C565 730 550 745 531 745 C519 745 510 740 502 732 L402 653 C392 644 386 633 386 623 C386 602 401 590 419 590 C429 590 439 594 448 602 Z " />
<glyph glyph-name="uogonek" unicode="&#x173;" horiz-adv-x="578" d="M343 -188 C367 -188 388 -183 410 -169 C423 -161 431 -150 431 -137 C431 -122 418 -109 404 -109 C396 -109 389 -113 383 -117 C370 -125 359 -130 344 -130 C318 -130 299 -110 299 -84 C299 -13 391 10 439 39 C461 52 467 63 471 85 L536 476 C541 505 524 526 498 526 C478 526 461 513 457 488 L394 104 C360 82 311 68 264 68 C185 68 125 108 144 226 L185 478 C190 506 172 526 148 526 C125 526 110 511 106 486 L64 235 C37 75 134 -8 256 -8 L276 -8 C251 -32 236 -63 236 -93 C236 -150 286 -188 343 -188 Z " />
<glyph glyph-name="wgrave" unicode="&#x1e81;" horiz-adv-x="803" d="M473 58 C477 15 504 -10 543 -10 C576 -10 599 9 617 50 L802 467 C817 502 794 526 769 526 C752 526 739 518 730 496 L583 156 C573 133 565 107 552 76 C550 70 547 69 544 69 C541 69 538 70 537 78 C535 108 535 138 532 166 L500 463 C495 508 471 526 439 526 C408 526 387 511 370 471 L234 163 C221 135 212 105 201 76 C199 72 197 69 192 69 C188 69 184 71 183 78 C182 111 183 141 180 170 L146 487 C143 516 125 526 107 526 C79 526 62 507 66 475 L114 59 C120 11 150 -10 183 -10 C218 -10 238 7 257 51 L421 424 C423 429 425 431 428 431 C431 431 434 429 435 422 Z M480 589 C499 589 513 603 513 621 C513 632 508 643 495 650 L367 722 C359 726 352 728 345 728 C327 728 312 714 312 694 C312 684 317 671 331 664 L457 595 C465 590 473 589 480 589 Z " />
<glyph glyph-name="wacute" unicode="&#x1e83;" horiz-adv-x="803" d="M473 58 C477 15 504 -10 543 -10 C576 -10 599 9 617 50 L802 467 C817 502 794 526 769 526 C752 526 739 518 730 496 L583 156 C573 133 565 107 552 76 C550 70 547 69 544 69 C541 69 538 70 537 78 C535 108 535 138 532 166 L500 463 C495 508 471 526 439 526 C408 526 387 511 370 471 L234 163 C221 135 212 105 201 76 C199 72 197 69 192 69 C188 69 184 71 183 78 C182 111 183 141 180 170 L146 487 C143 516 125 526 107 526 C79 526 62 507 66 475 L114 59 C120 11 150 -10 183 -10 C218 -10 238 7 257 51 L421 424 C423 429 425 431 428 431 C431 431 434 429 435 422 Z M405 653 C388 646 383 633 383 622 C383 602 399 590 415 590 C421 590 428 591 433 594 L575 661 C596 671 603 684 603 696 C603 712 591 727 570 727 C564 727 556 726 549 722 Z " />
<glyph glyph-name="wcircumflex" unicode="&#x175;" horiz-adv-x="803" d="M473 58 C477 15 504 -10 543 -10 C576 -10 599 9 617 50 L802 467 C817 502 794 526 769 526 C752 526 739 518 730 496 L583 156 C573 133 565 107 552 76 C550 70 547 69 544 69 C541 69 538 70 537 78 C535 108 535 138 532 166 L500 463 C495 508 471 526 439 526 C408 526 387 511 370 471 L234 163 C221 135 212 105 201 76 C199 72 197 69 192 69 C188 69 184 71 183 78 C182 111 183 141 180 170 L146 487 C143 516 125 526 107 526 C79 526 62 507 66 475 L114 59 C120 11 150 -10 183 -10 C218 -10 238 7 257 51 L421 424 C423 429 425 431 428 431 C431 431 434 429 435 422 Z M465 659 L531 597 C540 590 547 586 558 586 C575 586 589 600 589 618 C589 628 585 636 575 646 L500 716 C491 725 480 729 469 729 C457 729 447 725 436 718 L332 648 C320 640 313 630 313 617 C313 600 326 587 343 587 C351 587 358 589 367 594 Z " />
<glyph glyph-name="wdieresis" unicode="&#x1e85;" horiz-adv-x="803" d="M473 58 C477 15 504 -10 543 -10 C576 -10 599 9 617 50 L802 467 C817 502 794 526 769 526 C752 526 739 518 730 496 L583 156 C573 133 565 107 552 76 C550 70 547 69 544 69 C541 69 538 70 537 78 C535 108 535 138 532 166 L500 463 C495 508 471 526 439 526 C408 526 387 511 370 471 L234 163 C221 135 212 105 201 76 C199 72 197 69 192 69 C188 69 184 71 183 78 C182 111 183 141 180 170 L146 487 C143 516 125 526 107 526 C79 526 62 507 66 475 L114 59 C120 11 150 -10 183 -10 C218 -10 238 7 257 51 L421 424 C423 429 425 431 428 431 C431 431 434 429 435 422 Z M388 690 C359 690 338 666 338 641 C338 615 356 599 381 599 C408 599 430 621 430 648 C430 673 412 690 388 690 Z M548 690 C519 690 498 666 498 641 C498 615 516 599 541 599 C568 599 590 621 590 648 C590 673 572 690 548 690 Z " />
<glyph glyph-name="ygrave" unicode="&#x1ef3;" horiz-adv-x="509" d="M138 488 C132 512 119 526 97 526 C70 526 50 503 59 469 L176 33 C125 -57 80 -99 30 -125 C13 -134 4 -143 4 -161 C4 -182 22 -196 42 -196 C54 -196 71 -191 88 -180 C144 -147 198 -85 252 11 L508 464 C525 493 511 526 476 526 C458 526 447 515 437 497 L282 219 C260 178 246 147 237 128 C235 124 233 122 230 122 C226 122 225 126 224 130 C221 159 217 191 209 223 Z M330 589 C349 589 363 603 363 621 C363 632 358 643 345 650 L217 722 C209 726 202 728 195 728 C177 728 162 714 162 694 C162 684 167 671 181 664 L307 595 C315 590 323 589 330 589 Z " />
<glyph glyph-name="yacute" unicode="&#xfd;" horiz-adv-x="509" d="M138 488 C132 512 119 526 97 526 C70 526 50 503 59 469 L176 33 C125 -57 80 -99 30 -125 C13 -134 4 -143 4 -161 C4 -182 22 -196 42 -196 C54 -196 71 -191 88 -180 C144 -147 198 -85 252 11 L508 464 C525 493 511 526 476 526 C458 526 447 515 437 497 L282 219 C260 178 246 147 237 128 C235 124 233 122 230 122 C226 122 225 126 224 130 C221 159 217 191 209 223 Z M264 654 C247 647 242 634 242 623 C242 603 258 591 274 591 C280 591 287 592 292 595 L434 662 C455 672 462 685 462 697 C462 713 450 728 429 728 C423 728 415 727 408 723 Z " />
<glyph glyph-name="ycircumflex" unicode="&#x177;" horiz-adv-x="509" d="M138 488 C132 512 119 526 97 526 C70 526 50 503 59 469 L176 33 C125 -57 80 -99 30 -125 C13 -134 4 -143 4 -161 C4 -182 22 -196 42 -196 C54 -196 71 -191 88 -180 C144 -147 198 -85 252 11 L508 464 C525 493 511 526 476 526 C458 526 447 515 437 497 L282 219 C260 178 246 147 237 128 C235 124 233 122 230 122 C226 122 225 126 224 130 C221 159 217 191 209 223 Z M317 660 L383 598 C392 591 399 587 410 587 C427 587 441 601 441 619 C441 629 437 637 427 647 L352 717 C343 726 332 730 321 730 C309 730 299 726 288 719 L184 649 C172 641 165 631 165 618 C165 601 178 588 195 588 C203 588 210 590 219 595 Z " />
<glyph glyph-name="ydieresis" unicode="&#xff;" horiz-adv-x="509" d="M138 488 C132 512 119 526 97 526 C70 526 50 503 59 469 L176 33 C125 -57 80 -99 30 -125 C13 -134 4 -143 4 -161 C4 -182 22 -196 42 -196 C54 -196 71 -191 88 -180 C144 -147 198 -85 252 11 L508 464 C525 493 511 526 476 526 C458 526 447 515 437 497 L282 219 C260 178 246 147 237 128 C235 124 233 122 230 122 C226 122 225 126 224 130 C221 159 217 191 209 223 Z M235 690 C206 690 185 666 185 641 C185 615 203 599 228 599 C255 599 277 621 277 648 C277 673 259 690 235 690 Z M395 690 C366 690 345 666 345 641 C345 615 363 599 388 599 C415 599 437 621 437 648 C437 673 419 690 395 690 Z " />
<glyph glyph-name="zacute" unicode="&#x17a;" horiz-adv-x="492" d="M459 426 C470 438 478 452 478 468 C478 493 461 516 420 516 L131 516 C108 516 91 500 91 477 C91 458 104 440 131 440 L370 440 L37 89 C25 76 17 62 17 47 C17 22 35 0 70 0 L374 0 C397 0 414 16 414 38 C414 58 402 76 377 76 L128 76 Z M256 653 C239 646 234 633 234 622 C234 602 250 590 266 590 C272 590 279 591 284 594 L426 661 C447 671 454 684 454 696 C454 712 442 727 421 727 C415 727 407 726 400 722 Z " />
<glyph glyph-name="zcaron" unicode="&#x17e;" horiz-adv-x="492" d="M459 426 C470 438 478 452 478 468 C478 493 461 516 420 516 L131 516 C108 516 91 500 91 477 C91 458 104 440 131 440 L370 440 L37 89 C25 76 17 62 17 47 C17 22 35 0 70 0 L374 0 C397 0 414 16 414 38 C414 58 402 76 377 76 L128 76 Z M305 589 C316 589 325 594 336 601 L434 666 C446 674 453 685 453 698 C453 714 441 729 421 729 C415 729 407 727 399 721 L309 660 L240 719 C233 725 225 729 217 729 C197 729 183 713 183 696 C183 686 186 677 195 670 L276 601 C284 594 293 589 305 589 Z " />
<glyph glyph-name="zdotaccent" unicode="&#x17c;" horiz-adv-x="492" d="M459 426 C470 438 478 452 478 468 C478 493 461 516 420 516 L131 516 C108 516 91 500 91 477 C91 458 104 440 131 440 L370 440 L37 89 C25 76 17 62 17 47 C17 22 35 0 70 0 L374 0 C397 0 414 16 414 38 C414 58 402 76 377 76 L128 76 Z M318 689 C289 689 268 665 268 640 C268 614 286 598 311 598 C338 598 360 620 360 647 C360 672 342 689 318 689 Z " />
<glyph glyph-name="eth" unicode="&#xf0;" horiz-adv-x="583" d="M286 501 C178 501 94 438 67 307 C62 285 53 237 51 209 C41 82 132 -10 266 -10 C384 -10 461 75 483 203 C499 294 505 329 514 385 C531 487 515 564 491 613 L543 636 C561 644 568 656 568 668 C568 688 547 706 520 695 L457 668 C442 685 425 704 408 717 C401 722 393 725 383 725 C362 725 347 709 347 691 C347 682 351 673 359 665 C370 654 376 648 386 638 L323 611 C306 604 299 593 299 580 C299 553 328 544 347 552 L426 586 C449 541 456 486 447 425 C408 476 343 501 286 501 Z M289 423 C368 423 425 369 417 301 C414 277 408 226 400 194 C383 125 339 68 260 68 C183 68 125 122 131 205 C133 229 140 275 146 301 C166 380 218 423 289 423 Z " />
<glyph glyph-name="thorn" unicode="&#xfe;" horiz-adv-x="568" d="M133 104 L187 429 C231 445 265 455 312 455 C404 455 448 399 440 313 C437 280 426 223 419 195 C399 115 350 68 267 68 C213 68 157 88 133 104 Z M119 26 C154 10 205 -10 273 -10 C384 -10 469 53 500 189 C507 221 519 290 521 327 C527 444 450 533 314 533 C279 533 236 524 199 509 L226 667 C230 688 218 711 190 711 C169 711 152 698 147 668 L11 -152 C7 -176 23 -197 49 -197 C72 -197 84 -182 89 -152 Z " />
<glyph glyph-name="grave" unicode="&#x60;" horiz-adv-x="341" d="M299 754 C318 754 332 768 332 786 C332 797 327 808 314 815 L186 887 C178 891 171 893 164 893 C146 893 131 879 131 859 C131 849 136 836 150 829 L276 760 C284 755 292 754 299 754 Z " />
<glyph glyph-name="acute" unicode="&#xb4;" horiz-adv-x="341" d="M141 818 C124 811 119 798 119 787 C119 767 135 755 151 755 C157 755 164 756 169 759 L311 826 C332 836 339 849 339 861 C339 877 327 892 306 892 C300 892 292 891 285 887 Z " />
<glyph glyph-name="circumflex" unicode="&#x2c6;" horiz-adv-x="341" d="M238 822 L304 760 C313 753 320 749 331 749 C348 749 362 763 362 781 C362 791 358 799 348 809 L273 879 C264 888 253 892 242 892 C230 892 220 888 209 881 L105 811 C93 803 86 793 86 780 C86 763 99 750 116 750 C124 750 131 752 140 757 Z " />
<glyph glyph-name="caron" unicode="&#x2c7;" horiz-adv-x="341" d="M231 751 C242 751 251 756 262 763 L360 828 C372 836 379 847 379 860 C379 876 367 891 347 891 C341 891 333 889 325 883 L235 822 L166 881 C159 887 151 891 143 891 C123 891 109 875 109 858 C109 848 112 839 121 832 L202 763 C210 756 219 751 231 751 Z " />
<glyph glyph-name="tilde" unicode="&#x2dc;" horiz-adv-x="341" d="M285 752 C309 752 336 765 361 783 C374 794 382 804 382 818 C382 835 366 848 351 848 C326 848 313 818 287 818 C256 818 224 856 177 856 C151 856 121 843 99 822 C89 814 81 804 81 792 C81 776 96 761 113 761 C136 761 146 790 175 790 C206 790 237 752 285 752 Z " />
<glyph glyph-name="dieresis" unicode="&#xa8;" horiz-adv-x="341" d="M144 852 C115 852 94 828 94 803 C94 777 112 761 137 761 C164 761 186 783 186 810 C186 835 168 852 144 852 Z M304 852 C275 852 254 828 254 803 C254 777 272 761 297 761 C324 761 346 783 346 810 C346 835 328 852 304 852 Z " />
<glyph glyph-name="macron" unicode="&#xaf;" horiz-adv-x="341" d="M311 767 C334 768 349 785 349 804 C349 821 337 836 315 836 L154 836 C129 836 114 818 114 800 C114 783 127 767 150 767 Z " />
<glyph glyph-name="breve" unicode="&#x2d8;" horiz-adv-x="341" d="M242 757 C307 757 348 798 365 839 C369 847 372 857 372 865 C372 882 359 894 342 894 C321 894 313 878 309 868 C297 839 280 818 243 818 C205 818 195 843 189 863 C186 878 180 894 160 894 C144 894 127 884 127 860 C127 849 130 839 132 832 C149 781 193 757 242 757 Z " />
<glyph glyph-name="ring" unicode="&#x2da;" horiz-adv-x="343" d="M241 749 C303 749 340 800 340 851 C340 899 307 937 253 937 C189 937 152 886 152 836 C152 787 188 749 241 749 Z M242 795 C215 795 199 814 199 837 C199 864 219 890 251 890 C278 890 293 871 293 848 C293 821 275 795 242 795 Z " />
<glyph glyph-name="hungarumlaut" unicode="&#x2dd;" horiz-adv-x="341" d="M224 845 C233 853 238 865 238 874 C238 893 224 908 204 908 C193 908 184 903 175 895 L76 816 C66 807 60 796 60 786 C60 765 75 753 93 753 C103 753 113 757 122 765 Z M389 845 C398 853 404 865 404 874 C404 893 389 908 370 908 C358 908 349 903 341 895 L241 816 C231 807 225 796 225 786 C225 765 240 753 258 753 C268 753 278 757 287 765 Z " />
<glyph glyph-name="dotaccent" unicode="&#x2d9;" horiz-adv-x="341" d="M241 852 C212 852 191 828 191 803 C191 777 209 761 234 761 C261 761 283 783 283 810 C283 835 265 852 241 852 Z " />
<glyph glyph-name="cedilla" unicode="&#xb8;" horiz-adv-x="341" d="M128 -251 C135 -251 143 -249 149 -248 C204 -233 280 -195 280 -125 C280 -81 246 -50 199 -50 L221 -11 C234 10 224 31 203 31 C190 31 181 24 174 9 L136 -66 C126 -86 137 -105 157 -105 C169 -105 177 -99 190 -99 C207 -99 221 -107 221 -126 C221 -167 157 -186 126 -196 C110 -201 101 -210 101 -225 C101 -240 113 -251 128 -251 Z " />
<glyph glyph-name="ogonek" unicode="&#x2db;" horiz-adv-x="341" d="M232 -204 C256 -204 276 -199 298 -185 C313 -176 319 -164 319 -152 C319 -137 305 -125 292 -125 C285 -125 277 -129 271 -133 C258 -141 245 -146 232 -146 C212 -146 187 -136 187 -104 C187 -49 251 -19 291 -2 C309 5 315 13 315 25 C315 40 305 51 289 51 C283 51 277 49 271 46 C194 17 126 -33 126 -109 C126 -173 180 -204 232 -204 Z " />
<glyph glyph-name="comma" unicode="&#x2c;" horiz-adv-x="220" d="M51 -103 C69 -103 82 -91 92 -79 C118 -50 131 -27 140 28 L150 82 C155 109 136 125 116 125 C100 125 81 113 77 90 L67 28 C61 -2 53 -21 32 -44 C24 -53 18 -60 18 -71 C18 -88 32 -103 51 -103 Z " />
<glyph glyph-name="semicolon" unicode="&#x3b;" horiz-adv-x="267" d="M161 340 C182 340 197 355 200 376 L214 460 C217 482 201 499 180 499 C159 499 143 485 140 463 L126 379 C123 357 139 340 161 340 Z M54 -103 C72 -103 85 -91 95 -79 C121 -50 134 -27 143 28 L153 82 C158 109 139 125 119 125 C103 125 84 113 80 90 L70 28 C64 -2 56 -21 35 -44 C27 -53 21 -60 21 -71 C21 -88 35 -103 54 -103 Z " />
<glyph glyph-name="colon" unicode="&#x3a;" horiz-adv-x="257" d="M147 340 C168 340 183 355 186 376 L200 460 C203 482 187 499 166 499 C145 499 129 485 126 463 L112 379 C109 357 125 340 147 340 Z M89 -10 C110 -10 124 6 127 27 L141 111 C144 133 128 150 107 150 C86 150 70 135 67 114 L53 30 C50 8 67 -10 89 -10 Z " />
<glyph glyph-name="period" unicode="&#x2e;" horiz-adv-x="246" d="M89 -10 C109 -10 124 4 128 26 L142 113 C146 135 130 152 108 152 C88 152 72 138 68 116 L54 30 C51 8 67 -10 89 -10 Z " />
<glyph glyph-name="ellipsis" unicode="&#x2026;" horiz-adv-x="644" d="M517 -10 C537 -10 552 4 556 26 L570 113 C574 135 558 152 536 152 C516 152 500 138 496 116 L482 30 C479 8 495 -10 517 -10 Z M305 -10 C325 -10 340 4 344 26 L358 113 C362 135 346 152 324 152 C304 152 288 138 284 116 L270 30 C267 8 283 -10 305 -10 Z M89 -10 C109 -10 124 4 128 26 L142 113 C146 135 130 152 108 152 C88 152 72 138 68 116 L54 30 C51 8 67 -10 89 -10 Z " />
<glyph glyph-name="uni00AD" unicode="&#xad;" horiz-adv-x="326" d="M44 287 C44 265 58 247 86 247 L236 247 C261 247 282 263 282 288 C282 309 266 327 239 327 L89 327 C64 327 44 311 44 287 Z " />
<glyph glyph-name="exclam" unicode="&#x21;" horiz-adv-x="228" d="M105 228 C122 228 137 239 141 264 L212 654 C217 683 200 701 175 701 C156 701 135 688 131 658 L72 266 C69 246 84 228 105 228 Z M65 -10 C88 -10 99 7 103 28 L116 105 C120 127 104 148 82 148 C60 148 46 132 43 112 L30 30 C26 9 43 -10 65 -10 Z " />
<glyph glyph-name="exclamdown" unicode="&#xa1;" horiz-adv-x="231" d="M149 464 C132 464 117 453 113 428 L42 38 C37 9 54 -9 79 -9 C98 -9 119 4 123 34 L182 426 C185 446 170 464 149 464 Z M189 702 C166 702 155 685 151 664 L138 587 C134 565 150 544 172 544 C194 544 208 560 211 580 L224 662 C228 683 211 702 189 702 Z " />
<glyph glyph-name="question" unicode="&#x3f;" horiz-adv-x="571" d="M200 -10 C221 -10 235 6 238 27 L251 108 C255 130 239 148 217 148 C197 148 181 133 178 111 L164 30 C160 8 178 -10 200 -10 Z M242 257 C249 257 256 259 267 263 C420 321 522 397 522 528 C522 641 434 709 322 709 C238 709 157 663 114 612 C103 599 99 589 99 576 C99 557 113 542 133 542 C150 542 163 554 169 559 C207 594 250 630 321 630 C401 630 442 584 442 521 C442 404 298 360 241 335 C224 327 205 317 205 295 C205 276 217 257 242 257 Z " />
<glyph glyph-name="questiondown" unicode="&#xbf;" horiz-adv-x="571" d="M367 711 C346 711 332 695 329 674 L316 593 C312 571 328 553 350 553 C370 553 386 568 389 590 L403 671 C407 693 389 711 367 711 Z M325 444 C318 444 311 442 300 438 C147 380 45 304 45 173 C45 60 133 -8 245 -8 C329 -8 410 38 453 89 C464 102 468 112 468 125 C468 144 454 159 434 159 C417 159 404 147 398 142 C360 107 317 71 246 71 C166 71 125 117 125 180 C125 297 269 341 326 366 C343 374 362 384 362 406 C362 425 350 444 325 444 Z " />
<glyph glyph-name="quoteleft" unicode="&#x2018;" horiz-adv-x="212" d="M120 475 C138 475 155 487 159 510 L169 569 C175 601 185 620 206 645 C214 653 219 661 219 671 C219 689 206 702 186 702 C169 702 153 691 143 679 C116 649 106 623 97 572 L87 517 C83 494 97 475 120 475 Z " />
<glyph glyph-name="quoteright" unicode="&#x2019;" horiz-adv-x="209" d="M107 475 C125 475 140 486 151 498 C177 527 188 553 197 604 L206 659 C210 683 196 702 173 702 C155 702 138 689 134 666 L124 608 C118 575 109 556 87 531 C79 523 74 516 74 505 C74 488 87 475 107 475 Z " />
<glyph glyph-name="quotedblleft" unicode="&#x201c;" horiz-adv-x="350" d="M258 475 C276 475 293 487 297 510 L307 569 C313 601 323 620 344 645 C352 653 357 661 357 671 C357 689 344 702 324 702 C307 702 291 691 281 679 C254 649 244 623 235 572 L225 517 C221 494 235 475 258 475 Z M120 475 C138 475 155 487 159 510 L169 569 C175 601 185 620 206 645 C214 653 219 661 219 671 C219 689 206 702 186 702 C169 702 153 691 143 679 C116 649 106 623 97 572 L87 517 C83 494 97 475 120 475 Z " />
<glyph glyph-name="quotedblright" unicode="&#x201d;" horiz-adv-x="347" d="M246 475 C264 475 279 486 290 498 C316 527 327 553 336 604 L345 659 C349 683 335 702 312 702 C294 702 277 689 273 666 L263 608 C257 575 248 556 226 531 C218 523 213 516 213 505 C213 488 226 475 246 475 Z M107 475 C125 475 140 486 151 498 C177 527 188 553 197 604 L206 659 C210 683 196 702 173 702 C155 702 138 689 134 666 L124 608 C118 575 109 556 87 531 C79 523 74 516 74 505 C74 488 87 475 107 475 Z " />
<glyph glyph-name="quotesinglbase" unicode="&#x201a;" horiz-adv-x="193" d="M54 -102 C72 -102 87 -91 98 -79 C124 -50 135 -24 144 27 L153 82 C157 106 143 125 120 125 C102 125 85 112 81 89 L71 31 C65 -2 56 -21 34 -46 C26 -54 21 -61 21 -72 C21 -89 34 -102 54 -102 Z " />
<glyph glyph-name="quotedblbase" unicode="&#x201e;" horiz-adv-x="337" d="M209 -102 C227 -102 242 -91 253 -79 C279 -50 290 -24 299 27 L308 82 C312 106 298 125 275 125 C257 125 240 112 236 89 L226 31 C220 -2 211 -21 189 -46 C181 -54 176 -61 176 -72 C176 -89 189 -102 209 -102 Z M70 -102 C88 -102 103 -91 114 -79 C140 -50 151 -24 160 27 L169 82 C173 106 159 125 136 125 C118 125 101 112 97 89 L87 31 C81 -2 72 -21 50 -46 C42 -54 37 -61 37 -72 C37 -89 50 -102 70 -102 Z " />
<glyph glyph-name="guilsinglleft" unicode="&#x2039;" horiz-adv-x="338" d="M36 345 C36 325 43 308 64 290 L171 188 C182 178 192 174 202 174 C223 174 238 192 238 210 C238 219 235 228 226 235 L132 328 C125 335 122 341 122 347 C122 356 129 363 140 371 L267 465 C281 475 287 487 287 498 C287 516 272 532 252 532 C243 532 234 529 225 523 L80 417 C50 397 36 374 36 345 Z " />
<glyph glyph-name="guilsinglright" unicode="&#x203a;" horiz-adv-x="341" d="M306 361 C306 381 299 398 279 416 L172 519 C160 528 150 532 140 532 C119 532 104 514 104 496 C104 488 107 479 116 471 L210 378 C217 371 220 365 220 359 C220 351 213 343 202 335 L75 241 C61 232 56 220 56 208 C56 190 70 175 90 175 C99 175 108 178 118 184 L262 289 C292 310 306 332 306 361 Z " />
<glyph glyph-name="guillemotleft" unicode="&#xab;" horiz-adv-x="549" d="M243 345 C243 325 250 308 271 290 L378 188 C389 178 399 174 409 174 C430 174 445 192 445 210 C445 219 442 228 433 235 L339 328 C332 335 329 341 329 347 C329 356 336 363 347 371 L474 465 C488 475 494 487 494 498 C494 516 479 532 459 532 C450 532 441 529 432 523 L287 417 C257 397 243 374 243 345 Z M36 345 C36 325 43 308 64 290 L171 188 C182 178 192 174 202 174 C223 174 238 192 238 210 C238 219 235 228 226 235 L132 328 C125 335 122 341 122 347 C122 356 129 363 140 371 L267 465 C281 475 287 487 287 498 C287 516 272 532 252 532 C243 532 234 529 225 523 L80 417 C50 397 36 374 36 345 Z " />
<glyph glyph-name="guillemotright" unicode="&#xbb;" horiz-adv-x="548" d="M515 361 C515 381 508 398 488 416 L381 519 C369 528 359 532 349 532 C328 532 313 514 313 496 C313 488 316 479 325 471 L419 378 C426 371 429 365 429 359 C429 351 422 343 411 335 L284 241 C270 232 265 220 265 208 C265 190 279 175 299 175 C308 175 317 178 327 184 L471 289 C501 310 515 332 515 361 Z M309 361 C309 381 302 398 282 416 L175 519 C163 528 153 532 143 532 C122 532 107 514 107 496 C107 488 110 479 119 471 L213 378 C220 371 223 365 223 359 C223 351 216 343 205 335 L78 241 C64 232 59 220 59 208 C59 190 73 175 93 175 C102 175 111 178 121 184 L265 289 C295 310 309 332 309 361 Z " />
<glyph glyph-name="slash" unicode="&#x2f;" horiz-adv-x="329" d="M29 -32 C49 -32 62 -20 69 -5 L336 675 C348 704 330 731 303 732 C282 732 267 719 261 704 L-6 24 C-18 -7 4 -32 29 -32 Z " />
<glyph glyph-name="bar" unicode="&#x7c;" horiz-adv-x="292" d="M140 -140 C164 -140 181 -121 181 -98 L181 793 C181 816 163 835 140 835 C117 835 100 816 100 793 L100 -98 C100 -120 117 -140 140 -140 Z " />
<glyph glyph-name="endash" unicode="&#x2013;" horiz-adv-x="578" d="M44 286 C44 265 58 246 86 246 L489 246 C513 246 534 262 534 288 C534 308 519 327 491 327 L89 327 C64 327 44 310 44 286 Z " />
<glyph glyph-name="emdash" unicode="&#x2014;" horiz-adv-x="942" d="M44 286 C44 265 58 246 86 246 L853 246 C877 246 898 262 898 288 C898 308 883 327 856 327 L89 327 C64 327 44 310 44 286 Z " />
<glyph glyph-name="bullet" unicode="&#x2022;" horiz-adv-x="465" d="M107 350 C107 281 164 224 233 224 C302 224 359 281 359 350 C359 419 302 476 233 476 C164 476 107 419 107 350 Z " />
<glyph glyph-name="periodcentered" unicode="&#xb7;" horiz-adv-x="245" d="M115 283 C135 283 150 297 154 319 L168 406 C172 428 156 445 134 445 C114 445 98 431 94 409 L80 323 C77 301 93 283 115 283 Z " />
<glyph glyph-name="parenleft" unicode="&#x28;" horiz-adv-x="335" d="M224 -177 C246 -177 265 -159 265 -138 C265 -128 261 -118 255 -108 C197 -25 148 102 148 243 C148 540 321 678 365 721 C380 734 386 746 386 758 C386 779 365 794 347 794 C337 794 325 790 315 781 C145 641 70 448 70 246 C70 99 105 -37 192 -160 C200 -171 211 -177 224 -177 Z " />
<glyph glyph-name="parenright" unicode="&#x29;" horiz-adv-x="342" d="M-12 -177 C-2 -177 10 -172 21 -163 C190 -23 266 170 266 371 C266 518 230 655 144 777 C135 789 124 794 112 794 C89 794 70 776 70 755 C70 745 74 736 80 726 C138 643 187 515 187 375 C187 77 14 -61 -30 -103 C-44 -117 -51 -128 -51 -140 C-51 -162 -30 -177 -12 -177 Z " />
<glyph glyph-name="bracketleft" unicode="&#x5b;" horiz-adv-x="354" d="M98 -95 L233 713 L374 713 C401 713 421 732 421 756 C421 776 408 793 385 793 L212 793 C179 793 160 770 156 741 L14 -123 C9 -153 22 -175 55 -175 L228 -175 C256 -175 277 -155 277 -131 C277 -110 262 -95 239 -95 Z " />
<glyph glyph-name="bracketright" unicode="&#x5d;" horiz-adv-x="350" d="M115 -95 L-26 -95 C-54 -95 -74 -114 -74 -138 C-74 -159 -60 -175 -35 -175 L136 -175 C169 -175 187 -153 192 -124 L334 741 C339 770 325 793 293 793 L114 793 C89 793 70 776 70 750 C70 729 85 713 111 713 L249 713 Z " />
<glyph glyph-name="braceleft" unicode="&#x7b;" horiz-adv-x="361" d="M240 -175 C267 -173 288 -156 288 -132 C288 -111 274 -95 250 -95 L140 -95 C124 -95 112 -84 115 -65 L155 166 C170 251 137 293 112 313 C150 333 194 378 207 464 L242 682 C246 702 261 712 278 712 L388 712 C415 712 436 730 436 755 C436 774 421 792 398 792 L257 792 C209 792 174 764 166 716 L126 464 C117 404 91 372 49 345 C37 337 26 326 26 311 C26 298 33 289 40 284 C72 255 85 223 75 166 L32 -84 C23 -138 61 -175 109 -175 Z " />
<glyph glyph-name="braceright" unicode="&#x7d;" horiz-adv-x="361" d="M104 -175 C151 -175 187 -147 195 -98 L235 153 C244 213 270 245 312 272 C324 280 335 291 335 307 C335 319 328 328 321 334 C289 362 276 394 286 451 L329 702 C338 755 300 792 251 792 L121 792 C93 792 73 773 73 749 C73 729 87 712 111 712 L221 712 C237 712 249 701 246 682 L205 451 C191 367 224 324 249 304 C210 284 167 239 154 153 L119 -65 C115 -85 100 -95 83 -95 L-27 -95 C-54 -95 -75 -113 -75 -138 C-75 -157 -60 -175 -37 -175 Z " />
<glyph glyph-name="asterisk" unicode="&#x2a;" horiz-adv-x="369" d="M173 355 C189 355 204 366 204 392 L216 491 L292 436 C308 424 328 428 337 441 C347 457 343 476 324 485 L244 530 L341 577 C363 585 371 605 364 620 C357 636 335 642 318 629 L228 574 L249 670 C256 695 242 711 222 711 C204 711 190 696 191 673 L180 574 L105 629 C90 641 70 639 59 625 C48 610 52 590 70 580 L150 534 L53 488 C32 480 23 460 31 445 C39 429 62 426 78 437 L168 491 L146 393 C139 370 155 355 173 355 Z " />
<glyph glyph-name="dagger" unicode="&#x2020;" horiz-adv-x="479" d="M218 410 L135 -95 C131 -121 148 -140 174 -140 C196 -140 211 -123 215 -100 L299 410 L447 410 C475 410 494 428 494 453 C494 473 477 490 454 490 L312 490 L342 666 C346 691 329 709 305 709 C282 709 265 693 261 667 L231 490 L85 490 C58 490 38 471 38 448 C38 427 53 410 77 410 Z " />
<glyph glyph-name="daggerdbl" unicode="&#x2021;" horiz-adv-x="479" d="M217 410 L176 159 L30 159 C3 159 -17 140 -17 116 C-17 95 -3 79 20 79 L163 79 L134 -95 C129 -121 148 -140 173 -140 C196 -140 210 -123 214 -100 L244 79 L392 79 C421 79 439 98 439 122 C439 142 426 159 402 159 L257 159 L298 410 L447 410 C475 410 494 430 494 453 C494 473 480 490 457 490 L312 490 L341 666 C345 691 329 709 305 709 C282 709 264 693 260 667 L231 490 L85 490 C57 490 37 471 37 447 C37 426 51 410 74 410 Z " />
<glyph glyph-name="section" unicode="&#xa7;" horiz-adv-x="560" d="M239 -103 C382 -103 465 -12 465 95 C465 132 453 163 433 185 C464 213 483 247 483 286 C483 348 439 383 328 416 C249 441 201 463 201 516 C201 586 263 629 341 629 C386 629 434 612 469 590 C478 586 486 580 497 580 C520 580 537 596 537 620 C537 629 532 640 525 648 C505 669 432 709 344 709 C216 709 118 630 118 513 C118 479 131 445 150 423 C119 395 93 359 93 312 C93 259 125 222 248 186 C323 163 381 155 381 91 C381 27 330 -22 246 -22 C201 -22 135 -6 94 22 C86 27 77 31 68 31 C44 31 25 12 25 -10 C25 -21 30 -33 40 -43 C64 -66 151 -103 239 -103 Z M383 215 C352 229 330 236 281 250 C192 275 164 295 164 326 C164 350 182 376 200 391 C231 375 245 368 297 352 C378 326 413 312 413 275 C413 249 398 230 383 215 Z " />
<glyph glyph-name="paragraph" unicode="&#xb6;" horiz-adv-x="681" d="M320 -192 C343 -192 358 -175 362 -150 L490 617 L569 617 L442 -148 C438 -174 457 -192 481 -192 C503 -192 519 -175 523 -150 L653 635 C659 673 644 699 594 699 L352 699 C205 699 107 603 107 464 C107 349 200 259 334 259 L349 259 L282 -148 C278 -173 296 -192 320 -192 Z M363 338 L344 338 C261 338 195 379 195 466 C195 568 276 620 365 620 L410 620 Z " />
<glyph glyph-name="asciicircum" unicode="&#x5e;" horiz-adv-x="589" d="M141 342 C160 337 183 346 188 365 L282 611 C283 616 288 621 295 621 C301 621 305 616 307 611 L401 365 C407 346 429 337 448 342 C470 347 483 373 475 394 L369 650 C352 693 326 713 295 713 C263 713 238 695 220 652 L114 394 C106 373 119 347 141 342 Z " />
<glyph glyph-name="asciitilde" unicode="&#x7e;" horiz-adv-x="626" d="M408 286 C445 286 481 301 526 320 C545 329 559 342 559 364 C559 381 544 404 518 404 C510 404 501 402 492 397 C459 380 435 373 410 373 C336 373 289 425 213 425 C179 425 145 412 97 391 C79 384 64 369 64 346 C64 329 78 307 105 307 C113 307 122 309 133 314 C164 331 186 338 211 338 C284 338 332 286 408 286 Z " />
<glyph glyph-name="brokenbar" unicode="&#xa6;" horiz-adv-x="285" d="M139 -140 C163 -140 180 -121 180 -98 L180 269 C180 292 163 311 139 311 C117 311 100 292 100 269 L100 -98 C100 -120 117 -140 139 -140 Z M139 384 C163 384 180 403 180 426 L180 793 C180 816 163 835 139 835 C117 835 100 816 100 793 L100 426 C100 404 117 384 139 384 Z " />
<glyph glyph-name="backslash" unicode="&#x5c;" horiz-adv-x="332" d="M246 -43 C274 -43 291 -18 285 9 L123 712 C118 733 102 746 84 746 C53 746 38 718 44 693 L206 -9 C210 -29 226 -43 246 -43 Z " />
<glyph glyph-name="underscore" unicode="&#x5f;" horiz-adv-x="459" d="M465 -129 L-7 -129 L-7 -196 L465 -196 Z " />
<glyph glyph-name="quotesingle" unicode="&#x27;" horiz-adv-x="224" d="M201 664 C205 686 189 703 167 703 C146 703 130 689 127 667 L101 515 C98 492 114 475 136 475 C157 475 172 489 175 511 Z " />
<glyph glyph-name="quotedbl" unicode="&#x22;" horiz-adv-x="355" d="M192 664 C196 686 180 703 158 703 C137 703 121 689 118 667 L93 515 C89 492 105 475 128 475 C148 475 163 489 167 511 Z M332 664 C336 686 320 703 298 703 C277 703 261 689 258 667 L233 515 C229 492 245 475 268 475 C288 475 303 489 307 511 Z " />
<glyph glyph-name="at" unicode="&#x40;" horiz-adv-x="844" d="M389 62 C424 62 450 70 465 79 C478 87 482 100 482 108 C482 126 468 137 453 137 C435 137 425 125 394 125 C335 125 295 155 309 239 L318 295 C331 379 377 416 437 416 C505 416 549 371 537 297 L521 204 C507 128 559 66 644 66 C703 66 757 105 771 192 L795 335 C830 544 686 704 448 704 C284 704 124 600 75 373 C64 323 51 236 47 184 C27 -50 192 -158 360 -158 C409 -158 472 -146 507 -130 C528 -121 537 -108 537 -92 C537 -72 517 -53 483 -64 C443 -77 412 -88 367 -88 C218 -88 105 3 121 180 C125 226 137 317 149 370 C189 540 305 633 456 633 C631 633 753 516 724 344 L698 190 C693 159 675 134 641 134 C609 134 582 156 589 200 L606 299 C624 404 553 485 442 485 C339 485 267 424 250 303 L241 239 C224 125 288 62 389 62 Z " />
<glyph glyph-name="copyright" unicode="&#xa9;" horiz-adv-x="786" d="M392 707 C232 707 98 585 88 419 C85 374 85 326 88 281 C98 113 232 -7 392 -7 C552 -7 687 113 697 281 C700 325 700 374 697 419 C687 585 552 707 392 707 Z M392 647 C516 647 624 552 634 424 C638 379 638 320 634 274 C624 147 517 53 392 53 C268 53 161 147 151 274 C147 320 147 379 151 424 C161 552 268 647 392 647 Z M393 561 C299 561 234 491 227 399 C225 368 224 336 227 305 C234 213 299 143 393 143 C459 143 518 179 541 232 C545 240 548 248 548 254 C548 274 533 283 519 283 C505 283 497 274 492 264 C477 228 442 201 393 201 C334 201 293 247 289 310 C287 338 286 366 289 394 C293 458 334 503 393 503 C442 503 477 476 492 441 C497 430 505 421 519 421 C533 421 548 431 548 450 C548 456 545 464 541 472 C518 525 459 561 393 561 Z " />
<glyph glyph-name="registered" unicode="&#xae;" horiz-adv-x="596" d="M246 452 L246 538 L305 538 C338 538 353 521 353 495 C353 470 338 452 303 452 Z M223 307 C238 307 247 317 247 331 L247 412 L282 412 C290 412 294 410 299 403 L365 318 C369 312 376 306 386 306 C400 306 410 316 410 329 C410 336 407 342 404 346 L341 423 C374 433 400 453 400 500 C400 551 360 581 311 581 L232 581 C211 581 200 566 200 549 L200 331 C200 317 210 307 223 307 Z M296 229 C199 229 127 288 118 398 C116 421 116 467 118 490 C127 600 199 660 296 660 C392 660 464 600 473 490 C475 467 475 421 473 398 C464 288 392 229 296 229 Z M296 178 C421 178 515 263 525 401 C527 425 527 463 525 488 C515 625 421 710 296 710 C170 710 77 625 66 488 C64 463 64 425 66 401 C77 263 170 178 296 178 Z " />
<glyph glyph-name="trademark" unicode="&#x2122;" horiz-adv-x="550" d="M128 445 C143 445 152 456 154 470 L185 656 L244 656 C260 656 271 668 271 682 C271 693 264 704 249 704 L80 704 C65 704 54 691 54 678 C54 667 61 656 74 656 L136 656 L105 471 C103 457 114 445 128 445 Z M270 446 C283 446 291 454 294 467 L346 640 C347 644 348 645 350 645 C352 645 353 643 353 640 L364 482 C365 461 381 447 398 447 C416 447 428 459 437 480 L500 641 C502 644 503 645 504 645 C506 645 507 644 507 640 L501 470 C501 456 511 446 525 446 C539 446 548 457 548 473 L551 667 C551 695 533 706 513 706 C494 706 479 698 469 670 L409 514 C407 511 406 509 404 509 C402 509 401 511 401 515 L391 669 C390 693 374 706 354 706 C334 706 317 696 308 667 L249 478 C243 459 254 446 270 446 Z " />
<glyph glyph-name="ordfeminine" unicode="&#xaa;" horiz-adv-x="460" d="M179 275 C233 275 272 297 314 328 C318 314 327 295 335 286 C342 278 351 275 360 275 C378 275 394 289 394 308 C394 314 392 321 388 328 C373 359 361 382 373 450 L402 624 C405 642 401 654 386 665 C367 680 309 707 236 707 C136 707 71 656 48 548 C42 518 35 477 32 446 C22 336 90 275 179 275 Z M184 342 C124 342 94 381 101 450 C103 474 111 520 115 540 C129 601 165 638 233 638 C273 638 313 626 333 613 L317 518 C309 473 301 428 300 394 C265 361 226 342 184 342 Z " />
<glyph glyph-name="ordmasculine" unicode="&#xba;" horiz-adv-x="448" d="M238 704 C146 704 76 647 55 537 C50 509 48 484 46 455 C39 340 121 277 215 277 C313 277 373 349 388 444 C392 467 397 506 398 525 C405 625 343 704 238 704 Z M234 634 C297 634 330 584 326 527 C325 505 321 473 316 446 C302 377 263 346 211 346 C160 346 110 377 116 457 C118 483 122 510 126 533 C138 594 179 634 234 634 Z " />
<glyph glyph-name="numbersign" unicode="&#x23;" horiz-adv-x="623" d="M53 -9 C68 -9 80 1 89 17 L183 207 L294 207 L212 42 C197 13 219 -9 242 -9 C257 -9 269 1 277 17 L371 207 L453 207 C484 207 500 225 500 246 C500 265 486 281 461 281 L408 281 L483 432 L562 432 C593 432 608 452 608 471 C608 489 594 506 569 506 L518 506 L593 658 C607 686 591 709 566 709 C550 709 537 699 528 682 L442 506 L329 506 L404 658 C418 686 402 709 377 709 C361 709 348 699 339 682 L253 506 L172 506 C143 506 125 489 125 466 C125 448 141 432 161 432 L216 432 L141 281 L63 281 C34 281 16 263 16 241 C16 224 31 207 52 207 L105 207 L24 42 C10 16 26 -9 53 -9 Z M219 281 L293 432 L405 432 L330 281 Z " />
<glyph glyph-name="currency" unicode="&#xa4;" horiz-adv-x="615" d="M311 141 C362 141 396 159 426 185 L508 103 C515 95 526 91 536 91 C556 91 572 108 572 127 C572 136 568 146 560 154 L473 243 C485 267 492 293 493 319 C494 340 494 360 493 381 C492 408 484 437 472 460 L560 548 C568 557 572 566 572 576 C572 595 554 612 536 612 C526 612 517 608 508 599 L426 517 C395 542 360 560 311 560 C261 560 226 542 196 517 L114 599 C106 607 96 612 85 612 C66 612 50 594 50 576 C50 567 54 557 62 548 L149 459 C138 436 130 408 129 381 C128 360 128 340 129 319 C130 292 138 266 149 243 L62 154 C54 146 50 136 50 127 C50 107 67 91 85 91 C94 91 104 94 114 103 L196 185 C226 159 261 141 311 141 Z M311 210 C249 210 200 258 197 318 C196 339 196 362 197 383 C202 444 249 491 311 491 C372 491 420 443 424 382 C426 360 426 339 424 319 C420 259 372 210 311 210 Z " />
<glyph glyph-name="Euro" unicode="&#x20ac;" horiz-adv-x="631" d="M93 447 C70 447 52 430 52 411 C52 394 64 379 85 379 L127 379 L119 323 L70 323 C47 323 30 306 30 286 C30 268 45 253 63 253 L110 253 C98 69 213 -8 342 -8 C408 -8 479 17 534 62 C547 73 556 85 556 99 C556 116 544 133 522 133 C511 133 503 129 494 122 C442 82 391 64 344 64 C234 64 177 135 187 253 L372 253 C402 253 416 272 416 291 C416 307 405 323 381 323 L196 323 L205 379 L395 379 C421 379 435 397 435 415 C435 431 424 447 399 447 L223 447 C248 565 324 635 435 635 C489 635 530 622 570 584 C581 575 590 568 605 568 C626 568 642 585 642 604 C642 613 638 622 631 630 C588 681 513 709 436 709 C280 709 175 607 141 447 Z " />
<glyph glyph-name="dollar" unicode="&#x24;" horiz-adv-x="589" d="M227 -89 C244 -89 261 -78 265 -54 L277 16 C422 17 518 93 518 209 C518 319 414 359 315 389 C240 412 171 429 171 499 C171 571 248 608 327 608 C377 608 425 594 463 570 C473 564 482 560 493 560 C517 560 531 579 531 599 C531 609 527 619 518 628 C496 650 440 673 388 682 L398 744 C402 770 389 788 363 788 C345 788 328 776 324 749 L314 684 C206 682 86 621 86 496 C86 393 182 346 281 317 C373 291 433 273 433 206 C433 131 359 93 278 93 C206 93 141 112 92 149 C83 156 73 162 59 162 C36 162 19 143 19 122 C19 112 22 101 33 91 C70 59 148 28 205 20 L192 -49 C188 -74 207 -89 227 -89 Z " />
<glyph glyph-name="cent" unicode="&#xa2;" horiz-adv-x="522" d="M236 -9 C257 -9 271 7 275 30 L289 115 C359 118 414 166 437 214 C442 224 446 237 446 245 C446 266 431 283 409 283 C386 283 376 262 368 248 C347 210 315 188 274 188 C192 188 163 237 169 307 C171 336 176 365 184 396 C203 472 256 511 313 511 C354 511 389 487 406 449 C412 435 422 421 443 421 C466 421 482 440 482 459 C482 468 479 476 476 483 C458 529 420 563 366 578 L382 669 C386 691 370 709 347 709 C326 709 311 694 307 669 L293 584 C192 573 131 511 107 403 C98 363 95 332 92 305 C83 209 132 141 216 120 L201 34 C197 11 213 -9 236 -9 Z " />
<glyph glyph-name="sterling" unicode="&#xa3;" horiz-adv-x="604" d="M147 81 C190 135 226 203 233 290 L372 290 C403 290 420 310 420 332 C420 352 405 368 382 368 L236 368 C232 421 227 464 234 506 C243 562 285 629 372 629 C423 629 461 609 503 569 C513 561 524 557 534 557 C553 557 572 572 572 596 C572 606 566 616 559 626 C527 666 454 709 377 709 C252 709 170 629 154 510 C148 463 150 416 154 368 L99 368 C71 368 52 349 52 327 C52 307 66 290 89 290 L152 290 C147 211 103 138 60 77 C40 42 53 0 101 0 L474 0 C506 0 524 21 524 43 C524 63 508 81 485 81 Z " />
<glyph glyph-name="florin" unicode="&#x192;" horiz-adv-x="555" d="M42 -203 C61 -203 77 -191 82 -173 L230 313 L400 313 C424 313 441 330 441 351 C441 374 424 389 400 389 L254 389 L305 558 C319 600 342 628 397 628 C444 628 470 611 487 596 C497 587 509 582 520 582 C540 582 558 597 558 622 C558 632 554 642 546 651 C516 682 464 709 391 709 C318 709 255 670 230 591 L167 389 L99 389 C76 389 59 374 59 351 C59 327 78 313 99 313 L143 313 L3 -146 C-6 -175 9 -203 42 -203 Z " />
<glyph glyph-name="yen" unicode="&#xa5;" horiz-adv-x="627" d="M257 -4 C279 -4 294 10 298 35 L327 216 L452 216 C479 216 499 235 499 257 C499 279 482 294 459 294 L339 294 L342 306 C345 320 354 332 372 350 L653 632 C663 643 668 655 668 667 C668 688 652 705 629 705 C617 705 605 700 594 689 L311 401 L130 682 C120 697 107 705 93 705 C69 705 52 687 52 665 C52 656 56 645 61 637 L246 352 C258 334 264 322 261 306 L259 294 L143 294 C117 294 97 277 97 253 C97 233 112 216 135 216 L247 216 L219 44 C214 17 230 -4 257 -4 Z " />
<glyph glyph-name="zero" unicode="0" horiz-adv-x="661" d="M317 -10 C460 -10 547 91 577 244 C589 306 601 377 606 434 C618 581 524 711 357 711 C213 711 116 608 91 456 C80 390 70 334 64 269 C51 120 144 -10 317 -10 Z M312 68 C197 68 133 148 143 273 C148 330 159 389 171 448 C191 553 246 632 356 632 C472 632 535 545 525 427 C520 369 508 300 498 252 C477 146 423 68 312 68 Z " />
<glyph glyph-name="one" unicode="1" horiz-adv-x="441" d="M209 -4 C231 -4 244 11 249 38 L351 654 C357 687 338 704 315 704 C305 704 292 699 280 693 L98 595 C80 586 68 571 68 555 C68 532 86 518 106 518 C113 518 121 520 128 524 L261 595 L169 42 C164 14 186 -4 209 -4 Z " />
<glyph glyph-name="two" unicode="2" horiz-adv-x="577" d="M102 81 C107 136 163 175 280 249 C400 325 531 396 531 531 C531 635 442 711 326 711 C233 711 156 657 117 614 C105 601 97 590 97 575 C97 554 115 538 134 538 C149 538 158 545 170 556 C207 592 261 632 327 632 C402 632 449 590 449 525 C449 430 322 369 197 285 C89 213 33 165 13 71 C5 35 21 0 63 0 L418 0 C446 0 469 17 469 43 C469 64 452 81 428 81 Z " />
<glyph glyph-name="three" unicode="3" horiz-adv-x="571" d="M399 619 L207 441 C192 429 183 419 183 403 C183 382 202 369 223 369 C234 369 255 372 269 372 C355 372 412 322 412 256 C412 117 220 76 106 76 C86 76 75 77 61 77 C32 77 15 61 15 37 C15 16 30 -4 70 -4 C255 -4 492 52 492 264 C492 353 414 433 302 437 L488 607 C505 623 514 639 514 657 C514 683 495 700 462 700 L133 700 C107 700 87 682 87 658 C87 638 105 622 129 622 L398 622 Z " />
<glyph glyph-name="four" unicode="4" horiz-adv-x="645" d="M379 169 L357 41 C352 13 373 -4 396 -4 C421 -4 433 14 437 38 L459 169 L531 169 C563 169 581 191 581 213 C581 233 567 250 542 250 L472 250 L538 639 C544 676 522 704 486 704 C457 704 441 689 418 665 L46 272 C30 256 20 237 20 218 C20 191 42 169 82 169 Z M392 248 L122 248 L451 594 Z " />
<glyph glyph-name="five" unicode="5" horiz-adv-x="589" d="M524 282 C524 383 444 460 326 460 C275 460 221 448 175 423 L208 622 L496 622 C525 622 547 637 547 663 C547 685 531 700 508 700 L200 700 C170 700 139 691 131 641 L89 389 C81 343 122 321 161 341 C210 366 258 387 307 387 C395 387 444 338 444 276 C444 132 241 76 101 76 C82 76 70 78 57 78 C34 78 13 62 13 37 C13 2 54 -4 74 -4 C280 -4 524 67 524 282 Z " />
<glyph glyph-name="six" unicode="6" horiz-adv-x="649" d="M304 -10 C460 -10 557 108 557 252 C557 366 469 448 340 448 C268 448 205 427 161 406 C196 558 301 632 442 632 C484 632 523 622 544 622 C572 622 585 640 585 660 C585 678 572 690 555 696 C533 704 480 711 444 711 C171 711 59 483 59 262 C59 89 162 -10 304 -10 Z M300 68 C212 68 139 132 139 257 C139 276 141 297 144 323 C190 348 253 373 326 373 C423 373 476 322 476 246 C476 147 407 68 300 68 Z " />
<glyph glyph-name="seven" unicode="7" horiz-adv-x="515" d="M108 -4 C126 -4 139 7 150 30 C220 200 329 355 530 614 C543 630 548 643 548 658 C548 686 526 700 495 700 L113 700 C85 700 66 683 66 658 C66 638 80 620 104 620 L435 620 C231 355 138 221 71 54 C58 22 78 -4 108 -4 Z " />
<glyph glyph-name="eight" unicode="8" horiz-adv-x="663" d="M354 399 C263 399 199 440 199 506 C199 597 289 636 369 636 C470 636 524 585 524 525 C524 453 460 399 354 399 Z M318 68 C203 68 142 114 142 181 C142 288 227 329 324 329 C429 329 493 286 493 209 C493 106 406 68 318 68 Z M314 -10 C465 -10 578 66 578 209 C578 292 525 338 469 364 C561 388 604 458 604 536 C604 633 517 711 363 711 C236 711 119 645 119 509 C119 451 156 399 210 373 C111 357 57 273 57 185 C57 64 168 -10 314 -10 Z " />
<glyph glyph-name="nine" unicode="9" horiz-adv-x="642" d="M480 292 C433 145 300 68 101 73 C75 74 55 59 55 35 C55 12 71 -5 117 -5 C426 -5 582 179 582 449 C582 621 467 711 329 711 C184 711 83 609 83 473 C83 345 178 254 327 254 C383 254 445 273 480 292 Z M497 372 C450 347 394 326 324 326 C215 326 165 399 165 465 C165 563 234 632 338 632 C424 632 497 570 501 454 C502 435 502 407 497 372 Z " />
<glyph glyph-name="onesuperior" unicode="&#xb9;" horiz-adv-x="314" d="M154 243 C175 243 187 258 191 281 L254 658 C258 685 242 699 223 699 C214 699 201 694 193 690 L73 628 C58 620 50 607 50 594 C50 566 80 557 101 568 L174 603 L120 284 C117 264 130 243 154 243 Z " />
<glyph glyph-name="twosuperior" unicode="&#xb2;" horiz-adv-x="437" d="M110 316 C110 350 164 383 229 418 C311 462 374 507 374 587 C374 666 308 711 235 711 C178 711 123 679 93 640 C87 632 81 622 81 611 C81 595 96 583 111 583 C123 583 133 589 142 598 C163 620 192 645 235 645 C280 645 305 618 305 582 C305 516 210 480 160 451 C97 415 35 368 35 283 C35 260 49 246 73 246 L294 246 C324 246 339 265 339 283 C339 300 327 316 302 316 Z " />
<glyph glyph-name="threesuperior" unicode="&#xb3;" horiz-adv-x="412" d="M274 625 L153 525 C144 518 140 509 140 500 C140 484 153 470 170 470 C183 470 198 473 210 473 C263 473 283 445 283 411 C283 326 165 300 100 300 C90 300 77 300 69 300 C42 300 29 287 29 268 C29 253 39 241 57 237 C67 235 82 235 95 235 C221 235 349 291 349 411 C349 484 300 522 237 525 L339 610 C356 624 367 642 367 658 C367 679 350 694 323 694 L122 694 C96 694 81 675 81 656 C81 638 96 625 122 625 Z " />
<glyph glyph-name="fraction" unicode="&#x2044;" horiz-adv-x="282" d="M-58 -32 C-44 -32 -32 -25 -24 -10 L362 673 C367 681 370 692 370 699 C370 720 352 733 332 733 C319 733 305 726 296 711 L-90 26 C-94 18 -97 11 -97 3 C-97 -17 -77 -32 -58 -32 Z " />
<glyph glyph-name="onequarter" unicode="&#xbc;" horiz-adv-x="983" d="M798 0 C815 0 827 12 830 34 L842 101 L885 101 C912 101 926 119 926 136 C926 151 915 165 893 165 L853 165 L893 406 C898 436 882 457 852 457 C835 457 820 447 802 430 L562 188 C547 173 534 158 534 138 C534 116 549 100 577 100 L780 100 L769 35 C765 12 780 0 798 0 Z M791 165 L620 165 L826 375 Z M164 243 C185 243 197 258 201 281 L264 658 C268 685 252 699 233 699 C224 699 211 694 203 690 L83 628 C68 620 61 607 61 594 C61 566 90 557 111 568 L184 603 L130 284 C127 264 140 243 164 243 Z M236 -30 C249 -30 262 -22 270 -8 L656 675 C661 684 663 694 663 701 C663 723 645 736 626 736 C613 736 599 729 590 713 L204 29 C200 21 197 14 197 6 C197 -15 216 -30 236 -30 Z " />
<glyph glyph-name="onehalf" unicode="&#xbd;" horiz-adv-x="994" d="M243 -32 C257 -32 269 -25 277 -10 L663 673 C668 681 671 692 671 699 C671 720 653 733 633 733 C620 733 606 726 597 711 L211 26 C207 18 204 11 204 3 C204 -17 224 -32 243 -32 Z M170 243 C191 243 203 258 207 281 L270 658 C274 685 258 699 239 699 C230 699 217 694 209 690 L89 628 C74 620 66 607 66 594 C66 566 96 557 117 568 L190 603 L136 284 C133 264 146 243 170 243 Z M667 70 C667 104 721 137 786 172 C868 216 931 261 931 341 C931 420 865 465 792 465 C735 465 680 433 650 394 C644 386 638 376 638 365 C638 349 653 337 668 337 C680 337 690 343 699 352 C720 374 749 399 792 399 C837 399 862 372 862 336 C862 270 767 234 717 205 C654 169 592 122 592 37 C592 14 606 0 630 0 L851 0 C881 0 896 19 896 37 C896 54 884 70 859 70 Z " />
<glyph glyph-name="threequarters" unicode="&#xbe;" horiz-adv-x="1040" d="M857 0 C874 0 886 12 890 34 L901 101 L945 101 C972 101 985 119 985 136 C985 151 974 165 952 165 L912 165 L952 406 C958 436 941 457 912 457 C894 457 879 447 862 430 L621 188 C606 173 594 158 594 138 C594 116 609 100 636 100 L840 100 L829 35 C825 12 840 0 857 0 Z M850 165 L680 165 L886 375 Z M320 -32 C333 -32 346 -25 354 -10 L740 673 C745 681 747 692 747 699 C747 720 729 733 710 733 C697 733 683 726 674 711 L288 26 C284 18 281 11 281 3 C281 -17 300 -32 320 -32 Z M285 625 L164 525 C155 518 151 509 151 500 C151 484 164 470 181 470 C194 470 209 473 221 473 C274 473 294 445 294 411 C294 326 176 300 111 300 C101 300 88 300 80 300 C53 300 40 287 40 268 C40 253 50 241 68 237 C78 235 93 235 106 235 C232 235 360 291 360 411 C360 484 311 522 248 525 L350 610 C367 624 378 642 378 658 C378 679 361 694 334 694 L133 694 C107 694 92 675 92 656 C92 638 107 625 133 625 Z " />
<glyph glyph-name="percent" unicode="&#x25;" horiz-adv-x="736" d="M131 89 C141 89 151 93 161 103 L626 554 C636 564 640 575 640 584 C640 603 624 618 605 618 C595 618 585 614 575 604 L111 154 C101 144 97 133 97 124 C97 105 112 89 131 89 Z M192 366 C269 366 331 415 352 507 C356 524 359 549 360 567 C366 650 305 709 222 709 C138 709 75 657 59 568 C56 552 53 530 51 512 C44 429 103 366 192 366 Z M190 428 C143 428 110 462 115 512 C116 528 119 547 123 563 C134 613 174 647 221 647 C268 647 300 613 296 563 C294 547 291 528 287 512 C276 462 237 428 190 428 Z M513 -6 C593 -6 651 43 672 135 C676 152 680 177 681 195 C687 278 626 337 543 337 C458 337 396 285 379 196 C376 180 373 158 372 140 C365 57 428 -6 513 -6 Z M511 56 C463 56 431 90 435 140 C437 156 440 175 444 191 C455 241 494 275 541 275 C589 275 621 241 616 191 C615 175 612 156 608 140 C597 90 558 56 511 56 Z " />
<glyph glyph-name="perthousand" unicode="&#x2030;" horiz-adv-x="1082" d="M132 89 C141 89 152 93 161 103 L627 554 C636 564 640 575 640 584 C640 603 624 618 605 618 C596 618 586 614 576 604 L112 154 C101 144 97 133 97 124 C97 105 113 89 132 89 Z M193 366 C273 366 331 415 352 507 C356 524 360 549 361 567 C367 650 306 709 223 709 C138 709 76 657 59 568 C56 552 53 530 52 512 C45 429 108 366 193 366 Z M191 428 C143 428 111 462 115 512 C117 528 120 547 124 563 C135 613 174 647 222 647 C269 647 301 613 296 563 C295 547 292 528 288 512 C277 462 238 428 191 428 Z M513 -6 C594 -6 652 43 673 135 C677 152 680 177 682 195 C688 278 626 337 543 337 C459 337 397 285 380 196 C377 180 374 158 373 140 C365 57 428 -6 513 -6 Z M511 56 C464 56 431 90 436 140 C437 156 441 175 444 191 C455 241 495 275 542 275 C589 275 621 241 617 191 C615 175 612 156 608 140 C598 90 559 56 511 56 Z M858 -6 C939 -6 997 43 1018 135 C1022 152 1025 177 1027 195 C1033 278 971 337 889 337 C804 337 742 285 725 196 C722 180 719 158 718 140 C710 57 774 -6 858 -6 Z M856 56 C809 56 776 90 781 140 C782 156 786 175 789 191 C800 241 840 275 887 275 C934 275 966 241 962 191 C961 175 958 156 954 140 C943 90 904 56 856 56 Z " />
<glyph glyph-name="plus" unicode="&#x2b;" horiz-adv-x="621" d="M310 95 C333 95 349 112 349 135 L349 312 L522 312 C543 312 563 328 563 350 C563 373 545 389 522 389 L349 389 L349 564 C349 587 333 605 310 605 C288 605 272 587 272 564 L272 389 L96 389 C73 389 55 373 55 350 C55 328 73 312 96 312 L272 312 L272 135 C272 113 288 95 310 95 Z " />
<glyph glyph-name="minus" unicode="&#x2212;" horiz-adv-x="621" d="M523 312 C545 312 565 328 565 350 C565 373 546 389 523 389 L97 389 C74 389 56 373 56 350 C56 328 74 312 97 312 Z " />
<glyph glyph-name="plusminus" unicode="&#xb1;" horiz-adv-x="621" d="M311 120 C334 120 350 138 350 161 L350 337 L523 337 C545 337 565 353 565 375 C565 398 546 414 523 414 L350 414 L350 589 C350 612 334 630 311 630 C290 630 273 612 273 589 L273 414 L97 414 C74 414 56 398 56 375 C56 353 74 337 97 337 L273 337 L273 161 C273 138 289 120 311 120 Z M523 0 C545 0 565 17 565 38 C565 61 546 77 523 77 L97 77 C74 77 56 61 56 38 C56 17 74 0 97 0 Z " />
<glyph glyph-name="multiply" unicode="&#xd7;" horiz-adv-x="621" d="M311 297 L472 138 C489 121 513 120 529 137 C544 154 542 177 527 194 L366 351 L526 510 C541 526 543 550 529 566 C513 583 487 581 471 565 L311 406 L148 568 C131 584 108 586 91 569 C76 554 77 529 93 513 L256 351 L94 190 C77 174 76 148 93 133 C109 118 132 119 149 135 Z " />
<glyph glyph-name="divide" unicode="&#xf7;" horiz-adv-x="621" d="M287 568 C271 555 268 531 280 514 C293 498 317 495 333 507 C350 520 353 543 341 559 C328 576 303 580 287 568 Z M287 194 C271 181 268 157 280 141 C293 124 317 121 333 134 C350 146 353 170 341 187 C328 203 303 206 287 194 Z M523 311 C545 311 565 328 565 350 C565 373 546 389 523 389 L97 389 C74 389 56 373 56 350 C56 328 74 311 97 311 Z " />
<glyph glyph-name="equal" unicode="&#x3d;" horiz-adv-x="621" d="M516 404 C538 404 558 421 558 443 C558 465 539 482 516 482 L104 482 C81 482 64 465 64 443 C64 421 81 404 104 404 Z M516 219 C538 219 558 236 558 257 C558 280 540 297 516 297 L104 297 C81 297 64 280 64 257 C64 236 81 219 104 219 Z " />
<glyph glyph-name="less" unicode="&#x3c;" horiz-adv-x="621" d="M450 656 C441 656 432 653 424 646 L142 416 C120 398 104 377 104 350 C104 323 120 302 142 284 L425 54 C433 47 442 44 451 44 C471 44 489 62 489 82 C489 94 483 106 473 114 L208 329 C198 338 193 342 193 350 C193 358 198 362 208 371 L473 586 C483 594 488 606 488 618 C488 639 469 656 450 656 Z " />
<glyph glyph-name="greater" unicode="&#x3e;" horiz-adv-x="621" d="M176 44 C184 44 193 47 202 54 L484 284 C506 302 521 323 521 350 C521 377 506 398 484 416 L201 646 C193 653 183 656 175 656 C154 656 137 638 137 618 C137 606 142 594 152 586 L417 371 C428 362 432 358 432 350 C432 342 428 338 417 329 L153 114 C143 106 138 94 138 82 C138 61 156 44 176 44 Z " />
<glyph glyph-name="lessequal" unicode="&#x2264;" horiz-adv-x="621" d="M219 348 C211 353 206 356 206 363 C206 370 211 373 219 378 L490 538 C508 548 513 573 503 592 C492 609 469 615 450 605 L151 425 C120 406 110 385 110 363 C110 341 120 319 151 301 L450 121 C469 110 492 116 503 134 C513 153 507 178 490 188 Z M469 -6 C491 -6 510 11 510 32 C510 55 492 71 469 71 L151 71 C128 71 110 55 110 32 C110 11 128 -6 151 -6 Z " />
<glyph glyph-name="greaterequal" unicode="&#x2265;" horiz-adv-x="621" d="M132 188 C114 178 108 153 119 134 C130 116 153 110 171 121 L470 301 C501 319 511 341 511 363 C511 385 502 406 470 425 L171 605 C152 615 130 609 119 592 C108 573 114 548 132 538 L403 378 C411 373 416 370 416 363 C416 356 411 353 403 348 Z M471 -6 C494 -6 511 11 511 32 C511 55 494 71 471 71 L153 71 C130 71 111 55 111 32 C111 11 131 -6 153 -6 Z " />
<glyph glyph-name="logicalnot" unicode="&#xac;" horiz-adv-x="621" d="M484 313 L484 136 C484 114 502 95 523 95 C547 95 562 112 562 136 L562 339 C562 367 543 390 509 390 L94 390 C71 390 54 374 54 351 C54 329 71 313 94 313 Z " />
<glyph glyph-name="degree" unicode="&#xb0;" horiz-adv-x="357" d="M185 455 C269 455 317 525 317 593 C317 654 273 705 202 705 C114 705 68 635 68 568 C68 506 114 455 185 455 Z M186 511 C144 511 125 540 125 571 C125 608 152 648 198 648 C241 648 260 619 260 588 C260 551 233 511 186 511 Z " />
<glyph glyph-name="&amp;#xb5;" unicode="&#xb5;" horiz-adv-x="604" d="M63 -196 C86 -196 100 -180 104 -154 L140 65 C171 13 221 -10 289 -10 C367 -10 440 26 471 48 C486 58 492 67 495 83 L562 481 C567 510 548 526 525 526 C504 526 488 513 483 481 L420 110 C386 86 334 68 289 68 C210 68 149 112 168 226 L210 479 C215 509 198 526 174 526 C149 526 135 509 131 480 L27 -150 C22 -177 40 -196 63 -196 Z " />
<glyph glyph-name="&amp;#x3bc;" unicode="&#x3bc;" horiz-adv-x="604" d="M63 -196 C86 -196 100 -180 104 -154 L140 65 C171 13 221 -10 289 -10 C367 -10 440 26 471 48 C486 58 492 67 495 83 L562 481 C567 510 548 526 525 526 C504 526 488 513 483 481 L420 110 C386 86 334 68 289 68 C210 68 149 112 168 226 L210 479 C215 509 198 526 174 526 C149 526 135 509 131 480 L27 -150 C22 -177 40 -196 63 -196 Z " />
<glyph glyph-name="fi" unicode="&#xfb01;" horiz-adv-x="660" d="M145 505 L102 505 C81 505 63 490 63 469 C63 449 76 432 102 432 L132 432 L68 46 C63 16 80 -4 107 -4 C127 -4 143 9 147 34 L213 432 L353 432 C375 432 392 447 392 468 C392 488 378 505 354 505 L223 505 L230 545 C239 605 267 642 330 642 C372 642 389 630 410 630 C433 630 445 649 445 667 C445 681 437 692 422 700 C407 706 370 718 335 718 C226 718 170 656 152 551 Z M633 670 C633 696 616 717 588 717 C555 717 535 691 535 664 C535 638 553 616 582 616 C614 616 633 644 633 670 Z M439 46 C434 16 451 -4 478 -4 C497 -4 514 9 518 34 L591 476 C596 505 580 526 553 526 C532 526 517 512 513 488 Z " />
<glyph glyph-name="fl" unicode="&#xfb02;" horiz-adv-x="659" d="M145 505 L102 505 C81 505 63 490 63 469 C63 449 76 432 102 432 L132 432 L68 46 C63 16 80 -4 107 -4 C127 -4 143 9 147 34 L213 432 L353 432 C375 432 392 447 392 468 C392 488 378 505 354 505 L223 505 L230 545 C239 605 267 642 330 642 C372 642 389 630 410 630 C433 630 445 649 445 667 C445 681 437 692 422 700 C407 706 370 718 335 718 C226 718 170 656 152 551 Z M450 46 C445 16 462 -4 489 -4 C508 -4 525 9 529 34 L633 661 C638 690 621 710 594 710 C574 710 558 697 554 672 Z " />
<glyph glyph-name="ampersand" unicode="&#x26;" horiz-adv-x="675" d="M262 -10 C352 -10 429 22 492 86 L580 5 C598 -11 624 -7 639 9 C653 27 648 52 631 67 L541 147 C559 174 575 204 589 238 C606 277 579 297 557 297 C536 297 526 284 507 246 C499 231 491 215 482 200 L334 333 C477 384 533 453 533 533 C533 633 444 702 320 702 C201 702 112 632 112 526 C112 456 153 407 198 362 C117 334 30 278 30 176 C30 60 139 -10 262 -10 Z M261 68 C168 68 111 109 111 177 C111 250 190 286 253 307 L435 139 C394 97 339 68 261 68 Z M275 386 C225 431 191 470 191 517 C191 583 249 627 323 627 C408 627 453 581 453 531 C453 451 368 420 275 386 Z " />
<glyph glyph-name="ampersand.alt" horiz-adv-x="675" d="M254 -8 C384 -8 513 70 546 228 L620 228 C649 228 665 250 665 271 C665 291 651 309 622 309 L541 309 C496 309 480 288 470 241 C451 151 375 69 253 69 C173 69 103 104 103 173 C103 278 233 309 306 325 C449 357 547 412 547 533 C547 626 461 702 331 702 C208 702 107 627 107 509 C107 445 142 392 181 363 C75 323 20 260 20 173 C20 65 126 -8 254 -8 Z M264 387 C228 409 189 443 189 502 C189 582 257 627 340 627 C420 627 465 578 465 528 C465 428 347 405 264 387 Z " />
<glyph glyph-name="Q.alt" horiz-adv-x="698" d="M287 -163 C303 -163 319 -153 323 -128 L343 -10 C499 -2 601 95 634 264 C643 309 650 363 655 407 C674 574 558 711 383 711 C211 711 103 597 71 429 C62 382 57 348 52 302 C32 121 148 19 269 -3 L250 -114 C245 -143 262 -163 287 -163 Z M376 190 C381 220 364 238 341 238 C323 238 307 226 303 200 L282 73 C204 90 118 153 132 286 C138 341 144 380 155 430 C182 551 264 632 380 632 C505 632 582 543 573 419 C569 366 561 312 548 258 C523 153 454 78 355 70 Z " />
<glyph glyph-name="r.alt" horiz-adv-x="361" d="M185 422 C211 441 249 453 284 453 C314 453 335 444 353 444 C381 444 395 464 395 484 C395 501 385 513 371 519 C349 529 314 533 284 533 C227 533 170 515 132 486 C120 478 112 470 109 452 L42 46 C38 19 56 -1 80 -1 C105 -1 117 18 121 41 Z " />
<glyph glyph-name="zero.onum" horiz-adv-x="613" d="M320 533 C202 533 98 471 65 326 C60 304 54 261 52 230 C41 73 160 -10 298 -10 C426 -10 513 63 544 185 C552 217 557 254 560 288 C572 439 461 533 320 533 Z M320 455 C415 455 492 390 480 278 C477 250 474 230 469 210 C445 104 370 68 294 68 C200 68 119 124 130 236 C133 263 136 284 141 305 C164 406 232 455 320 455 Z " />
<glyph glyph-name="one.onum" horiz-adv-x="434" d="M225 -4 C249 -4 262 12 266 39 L340 482 C345 512 331 532 303 532 C294 532 283 529 271 524 L87 447 C64 439 52 422 52 406 C52 375 83 365 109 375 L253 436 L187 40 C182 12 203 -4 225 -4 Z " />
<glyph glyph-name="two.onum" horiz-adv-x="579" d="M121 76 C122 138 179 166 317 205 C416 233 521 270 521 384 C521 474 436 533 328 533 C254 533 182 507 123 454 C109 441 98 429 98 414 C98 397 112 375 136 375 C150 375 160 382 168 388 C214 426 266 459 327 459 C400 459 442 423 442 381 C442 305 308 281 235 257 C122 220 38 174 38 54 C38 21 58 0 94 0 L440 0 C470 0 490 18 490 40 C490 60 476 76 449 76 Z " />
<glyph glyph-name="three.onum" horiz-adv-x="557" d="M382 433 L189 251 C176 238 167 229 167 214 C167 193 186 179 207 179 C218 179 236 182 254 182 C339 182 390 127 390 65 C390 -50 256 -119 79 -119 C61 -119 50 -118 36 -118 C6 -118 -10 -133 -10 -156 C-10 -178 5 -196 44 -196 C330 -196 469 -82 469 68 C469 156 400 241 283 245 L470 421 C488 437 497 453 497 472 C497 497 477 515 444 515 L116 515 C89 515 70 496 70 473 C70 452 88 436 111 436 L381 436 Z " />
<glyph glyph-name="four.onum" horiz-adv-x="644" d="M378 1 L354 -153 C349 -181 369 -197 392 -197 C417 -197 429 -180 433 -155 L458 1 L531 1 C562 1 581 23 581 44 C581 64 567 82 541 82 L471 82 L535 458 C541 496 519 524 486 524 C455 524 435 504 415 484 L45 103 C31 87 20 69 20 50 C20 23 42 1 81 1 Z M391 80 L121 80 L448 414 Z " />
<glyph glyph-name="five.onum" horiz-adv-x="598" d="M526 88 C526 191 446 268 324 268 C277 268 223 256 177 231 L212 438 L500 438 C529 438 551 454 551 480 C551 502 535 515 512 515 L204 515 C174 515 143 508 135 458 L91 197 C83 151 124 129 163 149 C212 174 260 195 309 195 C397 195 446 146 446 89 C446 -60 243 -117 103 -117 C84 -117 72 -115 59 -115 C36 -115 15 -130 15 -155 C15 -190 56 -196 76 -196 C295 -196 526 -113 526 88 Z " />
<glyph glyph-name="six.onum" horiz-adv-x="660" d="M304 -10 C460 -10 557 108 557 252 C557 366 469 448 340 448 C268 448 205 427 161 406 C196 558 301 632 442 632 C484 632 523 622 544 622 C572 622 585 640 585 660 C585 678 572 690 555 696 C533 704 480 711 444 711 C171 711 59 483 59 262 C59 89 162 -10 304 -10 Z M300 68 C212 68 139 132 139 257 C139 276 141 297 144 323 C190 348 253 373 326 373 C423 373 476 322 476 246 C476 147 407 68 300 68 Z " />
<glyph glyph-name="seven.onum" horiz-adv-x="510" d="M86 -197 C104 -197 118 -186 128 -162 C198 10 309 169 511 429 C522 443 529 458 529 472 C529 500 506 515 475 515 L93 515 C66 515 46 497 46 473 C46 453 63 438 88 438 L419 438 C214 173 118 32 49 -139 C36 -171 56 -197 86 -197 Z " />
<glyph glyph-name="eight.onum" horiz-adv-x="678" d="M357 399 C266 399 202 440 202 506 C202 597 292 636 372 636 C473 636 527 585 527 525 C527 453 463 399 357 399 Z M321 68 C206 68 145 114 145 181 C145 288 230 329 327 329 C432 329 496 286 496 209 C496 106 409 68 321 68 Z M317 -10 C468 -10 581 66 581 209 C581 292 528 338 472 364 C564 388 607 458 607 536 C607 633 520 711 366 711 C239 711 122 645 122 509 C122 451 159 399 213 373 C114 357 60 273 60 185 C60 64 171 -10 317 -10 Z " />
<glyph glyph-name="nine.onum" horiz-adv-x="653" d="M476 114 C429 -33 296 -119 97 -114 C71 -113 51 -128 51 -152 C51 -175 67 -192 113 -192 C422 -192 578 1 578 271 C578 443 463 533 325 533 C180 533 79 431 79 295 C79 167 174 76 323 76 C379 76 441 95 476 114 Z M493 194 C446 169 390 148 320 148 C211 148 161 221 161 287 C161 385 230 454 329 454 C420 454 493 392 497 276 C498 257 498 229 493 194 Z " />
<glyph glyph-name="sterling.alt" horiz-adv-x="568" d="M390 291 C421 289 436 312 436 333 C436 352 424 370 394 370 L242 370 C255 403 266 437 282 474 C328 592 372 632 441 632 C466 632 485 625 503 616 C511 612 521 607 534 607 C557 607 572 625 572 645 C572 655 567 668 550 680 C521 700 484 711 444 711 C325 711 257 637 199 477 C185 440 172 401 159 370 L86 370 C56 370 40 348 40 327 C40 308 53 291 79 291 L127 291 C105 240 86 201 71 175 C45 129 30 105 24 90 C3 44 21 0 74 0 L429 0 C460 0 476 20 476 40 C476 58 462 76 431 76 L120 76 C113 76 111 79 111 83 C111 87 115 94 119 100 C144 139 176 207 211 291 Z " />
<glyph glyph-name="commaaccent" horiz-adv-x="341" d="M134 -241 C150 -241 162 -231 171 -221 C196 -193 207 -169 217 -120 L227 -72 C231 -51 221 -29 196 -29 C180 -29 165 -41 161 -61 L151 -117 C146 -147 137 -166 116 -189 C109 -197 104 -204 104 -214 C104 -229 116 -241 134 -241 Z " />
<glyph glyph-name="caronSlovak" horiz-adv-x="341" d="M139 545 C154 545 167 554 180 569 C201 593 211 616 220 658 L229 704 C233 726 220 743 199 743 C182 743 167 731 164 711 L154 661 C149 633 144 623 123 600 C115 591 109 584 109 573 C109 557 121 545 139 545 Z " />
<glyph glyph-name="g.alt" horiz-adv-x="575" d="M245 -194 C366 -194 457 -129 457 -31 C457 47 400 102 285 102 L211 102 C171 102 154 111 154 132 C154 159 183 167 225 167 L277 167 C418 167 488 255 488 351 C488 378 480 416 465 438 L531 438 C562 438 575 457 575 475 C575 493 561 509 533 509 L401 509 C371 524 332 533 289 533 C163 533 79 450 79 346 C79 285 110 230 156 202 C108 190 80 156 80 117 C80 72 117 28 220 28 L282 28 C353 28 376 2 376 -32 C376 -87 312 -118 243 -118 C179 -118 109 -92 65 -43 C56 -33 47 -22 29 -22 C7 -22 -10 -39 -10 -60 C-10 -71 -6 -82 7 -97 C52 -149 144 -194 245 -194 Z M277 230 C200 230 156 276 156 339 C156 422 218 462 294 462 C364 462 413 422 413 355 C413 282 359 230 277 230 Z " />
<glyph glyph-name="gbreve.alt" horiz-adv-x="575" d="M245 -194 C366 -194 457 -129 457 -31 C457 47 400 102 285 102 L211 102 C171 102 154 111 154 132 C154 159 183 167 225 167 L277 167 C418 167 488 255 488 351 C488 378 480 416 465 438 L531 438 C562 438 575 457 575 475 C575 493 561 509 533 509 L401 509 C371 524 332 533 289 533 C163 533 79 450 79 346 C79 285 110 230 156 202 C108 190 80 156 80 117 C80 72 117 28 220 28 L282 28 C353 28 376 2 376 -32 C376 -87 312 -118 243 -118 C179 -118 109 -92 65 -43 C56 -33 47 -22 29 -22 C7 -22 -10 -39 -10 -60 C-10 -71 -6 -82 7 -97 C52 -149 144 -194 245 -194 Z M277 230 C200 230 156 276 156 339 C156 422 218 462 294 462 C364 462 413 422 413 355 C413 282 359 230 277 230 Z M339 586 C404 586 445 627 462 668 C466 676 469 686 469 694 C469 711 456 723 439 723 C418 723 410 707 406 697 C394 668 377 647 340 647 C302 647 292 672 286 692 C283 707 277 723 257 723 C241 723 224 713 224 689 C224 678 227 668 229 661 C246 610 290 586 339 586 Z " />
<glyph glyph-name="gdotaccent.alt" horiz-adv-x="575" d="M245 -194 C366 -194 457 -129 457 -31 C457 47 400 102 285 102 L211 102 C171 102 154 111 154 132 C154 159 183 167 225 167 L277 167 C418 167 488 255 488 351 C488 378 480 416 465 438 L531 438 C562 438 575 457 575 475 C575 493 561 509 533 509 L401 509 C371 524 332 533 289 533 C163 533 79 450 79 346 C79 285 110 230 156 202 C108 190 80 156 80 117 C80 72 117 28 220 28 L282 28 C353 28 376 2 376 -32 C376 -87 312 -118 243 -118 C179 -118 109 -92 65 -43 C56 -33 47 -22 29 -22 C7 -22 -10 -39 -10 -60 C-10 -71 -6 -82 7 -97 C52 -149 144 -194 245 -194 Z M277 230 C200 230 156 276 156 339 C156 422 218 462 294 462 C364 462 413 422 413 355 C413 282 359 230 277 230 Z M347 691 C318 691 297 667 297 642 C297 616 315 600 340 600 C367 600 389 622 389 649 C389 674 371 691 347 691 Z " />
<glyph glyph-name="gcommaaccent.alt" horiz-adv-x="575" d="M245 -194 C366 -194 457 -129 457 -31 C457 47 400 102 285 102 L211 102 C171 102 154 111 154 132 C154 159 183 167 225 167 L277 167 C418 167 488 255 488 351 C488 378 480 416 465 438 L531 438 C562 438 575 457 575 475 C575 493 561 509 533 509 L401 509 C371 524 332 533 289 533 C163 533 79 450 79 346 C79 285 110 230 156 202 C108 190 80 156 80 117 C80 72 117 28 220 28 L282 28 C353 28 376 2 376 -32 C376 -87 312 -118 243 -118 C179 -118 109 -92 65 -43 C56 -33 47 -22 29 -22 C7 -22 -10 -39 -10 -60 C-10 -71 -6 -82 7 -97 C52 -149 144 -194 245 -194 Z M277 230 C200 230 156 276 156 339 C156 422 218 462 294 462 C364 462 413 422 413 355 C413 282 359 230 277 230 Z M313 565 C329 565 341 575 350 585 C375 613 386 637 396 686 L406 734 C410 755 400 777 375 777 C359 777 344 765 340 745 L330 689 C325 659 316 640 295 617 C288 609 283 602 283 592 C283 577 295 565 313 565 Z " />
<glyph glyph-name="racute.alt" horiz-adv-x="361" d="M185 422 C211 441 249 453 284 453 C314 453 335 444 353 444 C381 444 395 464 395 484 C395 501 385 513 371 519 C349 529 314 533 284 533 C227 533 170 515 132 486 C120 478 112 470 109 452 L42 46 C38 19 56 -1 80 -1 C105 -1 117 18 121 41 Z M210 653 C193 646 188 633 188 622 C188 602 204 590 220 590 C226 590 233 591 238 594 L380 661 C401 671 408 684 408 696 C408 712 396 727 375 727 C369 727 361 726 354 722 Z " />
<glyph glyph-name="rcaron.alt" horiz-adv-x="361" d="M185 422 C211 441 249 453 284 453 C314 453 335 444 353 444 C381 444 395 464 395 484 C395 501 385 513 371 519 C349 529 314 533 284 533 C227 533 170 515 132 486 C120 478 112 470 109 452 L42 46 C38 19 56 -1 80 -1 C105 -1 117 18 121 41 Z M276 584 C287 584 296 589 307 596 L405 661 C417 669 424 680 424 693 C424 709 412 724 392 724 C386 724 378 722 370 716 L280 655 L211 714 C204 720 196 724 188 724 C168 724 154 708 154 691 C154 681 157 672 166 665 L247 596 C255 589 264 584 276 584 Z " />
<glyph glyph-name="rcommaaccent.alt" horiz-adv-x="361" d="M185 422 C211 441 249 453 284 453 C314 453 335 444 353 444 C381 444 395 464 395 484 C395 501 385 513 371 519 C349 529 314 533 284 533 C227 533 170 515 132 486 C120 478 112 470 109 452 L42 46 C38 19 56 -1 80 -1 C105 -1 117 18 121 41 Z M1 -241 C17 -241 29 -231 38 -221 C63 -193 74 -169 84 -120 L94 -72 C98 -51 88 -29 63 -29 C47 -29 32 -41 28 -61 L18 -117 C13 -147 4 -166 -17 -189 C-24 -197 -29 -204 -29 -214 C-29 -229 -17 -241 1 -241 Z " />
<glyph glyph-name="hyphen" unicode="&#x2d;" horiz-adv-x="326" d="M44 287 C44 265 58 247 86 247 L236 247 C261 247 282 263 282 288 C282 309 266 327 239 327 L89 327 C64 327 44 311 44 287 Z " />
<glyph glyph-name="space" unicode="&#x20;" horiz-adv-x="255" />
</font>
</svg>
