<?xml version="1.0" encoding="UTF-8"?>
<svg xmlns="http://www.w3.org/2000/svg" xmlns:xlink="http://www.w3.org/1999/xlink" version="1.2" >
<font id="Rubrik SemiBold Italic">
<font-face  font-family="Rubrik" units-per-em="1000" ascent="750" descent="-250" font-style="italic" font-weight="600" font-stretch="normal" cap-height="702" x-height="518" underline-position="-100" underline-thickness="50" />
<missing-glyph  horiz-adv-x="301" />
<glyph glyph-name="uni00A0" unicode="&#xa0;" horiz-adv-x="245" />
<glyph glyph-name="A" unicode="A" horiz-adv-x="670" d="M479 61 C486 20 515 -2 548 -2 C602 -2 621 44 613 88 L517 605 C502 686 449 716 397 716 C341 716 294 695 254 618 L-17 95 C-42 47 -12 -3 40 -3 C66 -3 88 10 104 41 L185 198 L455 198 Z M365 562 C371 573 374 577 382 577 C390 577 394 571 395 563 L436 317 L242 317 Z " />
<glyph glyph-name="B" unicode="B" horiz-adv-x="669" d="M341 0 C490 0 601 85 601 223 C601 296 562 348 520 366 L520 368 C587 401 623 467 623 534 C623 630 549 707 404 707 L241 707 C177 707 141 675 130 609 L44 94 C34 36 66 0 123 0 Z M209 310 L377 310 C431 310 467 278 467 230 C467 161 412 125 343 125 L178 125 Z M227 418 L255 580 L391 580 C458 580 488 555 488 508 C488 447 433 418 376 418 Z " />
<glyph glyph-name="C" unicode="C" horiz-adv-x="662" d="M326 119 C224 119 180 192 182 272 C183 313 195 380 205 415 C230 508 281 585 383 585 C447 585 490 554 514 498 C527 469 550 455 578 455 C618 455 644 486 644 520 C644 538 639 555 632 572 C597 657 509 716 388 716 C240 716 134 635 82 485 C62 426 45 343 44 276 C40 96 157 -12 322 -12 C470 -12 554 70 590 154 C595 167 599 181 599 195 C599 234 568 256 534 256 C501 256 484 234 471 212 C442 161 398 119 326 119 Z " />
<glyph glyph-name="D" unicode="D" horiz-adv-x="706" d="M122 0 L280 0 C479 0 601 75 649 269 C657 299 667 351 670 406 C679 581 581 707 364 707 L240 707 C179 707 142 674 131 611 L44 96 C34 39 68 0 122 0 Z M184 125 L259 577 L365 577 C481 577 541 513 531 395 C529 366 523 329 515 297 C485 174 420 125 276 125 Z " />
<glyph glyph-name="E" unicode="E" horiz-adv-x="612" d="M239 707 C177 707 140 677 129 611 L44 102 C34 41 58 0 123 0 L455 0 C492 0 523 26 523 62 C523 97 499 125 456 125 L182 125 L210 293 L467 293 C505 293 534 318 534 353 C534 387 511 414 469 414 L229 414 L257 581 L539 581 C576 581 607 607 607 643 C607 678 583 707 540 707 Z " />
<glyph glyph-name="F" unicode="F" horiz-adv-x="578" d="M43 78 C35 31 63 -4 108 -4 C139 -4 167 17 174 59 L209 269 L469 269 C505 269 534 296 534 330 C534 363 511 390 470 390 L229 390 L261 581 L532 581 C569 581 599 607 599 643 C599 678 576 707 533 707 L241 707 C180 707 143 677 132 612 Z " />
<glyph glyph-name="G" unicode="G" horiz-adv-x="686" d="M411 386 C365 386 336 359 336 323 C336 287 367 263 402 263 L485 263 L478 232 C458 153 406 113 322 113 C233 113 178 175 181 274 C183 324 193 383 209 435 C238 534 294 585 381 585 C455 585 493 550 514 503 C525 479 548 466 571 466 C609 466 637 494 637 535 C637 552 632 565 626 580 C596 654 506 716 390 716 C233 716 134 638 83 490 C63 434 45 336 43 268 C39 97 154 -12 331 -12 C515 -12 591 120 612 234 C616 255 619 276 622 316 C625 359 598 386 550 386 Z " />
<glyph glyph-name="H" unicode="H" horiz-adv-x="744" d="M481 78 C473 31 500 -4 546 -4 C578 -4 604 17 612 59 L706 624 C714 672 687 707 642 707 C611 707 582 686 576 644 L537 412 L232 412 L268 624 C276 672 249 707 204 707 C171 707 145 686 137 644 L43 78 C35 31 63 -4 108 -4 C139 -4 167 17 174 59 L214 290 L517 290 Z " />
<glyph glyph-name="I" unicode="I" horiz-adv-x="306" d="M268 624 C276 672 249 707 204 707 C171 707 144 686 137 644 L43 79 C35 31 62 -4 108 -4 C138 -4 167 17 174 59 Z " />
<glyph glyph-name="J" unicode="J" horiz-adv-x="518" d="M483 625 C490 671 465 707 420 707 C388 707 359 688 352 644 L285 225 C274 155 239 122 187 122 C143 122 115 146 97 183 C84 213 60 221 40 221 C6 221 -26 198 -26 152 C-26 138 -23 124 -15 106 C11 48 81 -12 192 -12 C318 -12 396 65 419 213 Z " />
<glyph glyph-name="K" unicode="K" horiz-adv-x="660" d="M213 298 L225 298 C246 298 259 295 275 274 L456 29 C471 7 493 -4 516 -4 C558 -4 580 29 580 59 C580 78 573 92 563 107 L375 358 L625 592 C644 609 653 627 653 650 C653 681 626 707 594 707 C571 707 553 698 534 681 L301 454 C277 430 267 426 248 426 L235 426 L268 625 C276 673 249 707 204 707 C171 707 144 685 137 644 L43 78 C35 31 62 -4 107 -4 C139 -4 166 17 174 59 Z " />
<glyph glyph-name="L" unicode="L" horiz-adv-x="541" d="M182 125 L266 624 C274 672 247 707 201 707 C169 707 142 686 135 644 L44 96 C33 34 62 0 124 0 L454 0 C491 0 521 26 521 62 C521 97 498 125 455 125 Z " />
<glyph glyph-name="M" unicode="M" horiz-adv-x="913" d="M689 71 C686 23 720 -3 759 -3 C790 -3 821 22 823 71 L843 584 C846 661 801 711 733 711 C675 711 630 681 597 592 L441 166 C439 161 437 159 433 159 C430 159 427 161 427 166 L412 586 C409 666 355 711 297 711 C238 711 186 685 159 590 L14 86 C0 38 28 -3 76 -3 C108 -3 135 20 144 53 L280 551 C281 556 285 559 289 559 C292 559 295 556 295 552 L316 108 C319 36 360 -3 421 -3 C461 -3 506 24 530 88 L702 552 C704 557 707 559 710 559 C714 559 716 556 716 551 Z " />
<glyph glyph-name="N" unicode="N" horiz-adv-x="769" d="M526 173 L345 625 C328 668 305 707 242 707 C192 707 144 679 130 596 L43 78 C35 31 63 -3 108 -3 C139 -3 167 17 174 59 L219 326 C232 403 243 479 248 537 L251 538 L431 73 C451 23 488 -3 536 -3 C594 -3 630 36 643 110 L731 624 C739 672 712 707 666 707 C634 707 607 686 600 644 L564 425 C555 373 539 288 529 173 Z " />
<glyph glyph-name="O" unicode="O" horiz-adv-x="715" d="M351 -12 C510 -12 628 92 660 277 C666 312 674 374 677 406 C692 582 572 716 383 716 C209 716 93 604 61 437 C53 398 46 342 43 304 C28 112 169 -12 351 -12 Z M338 119 C249 119 167 181 179 296 C184 346 190 384 199 423 C225 532 298 585 379 585 C479 585 546 516 538 412 C535 364 528 319 516 271 C493 176 433 119 338 119 Z " />
<glyph glyph-name="P" unicode="P" horiz-adv-x="655" d="M203 235 L362 235 C549 235 647 358 647 495 C647 609 565 707 396 707 L231 707 C174 707 141 668 133 620 L43 78 C35 31 64 -3 109 -3 C140 -3 167 17 174 59 Z M225 364 L261 580 L390 580 C461 580 508 543 508 487 C508 399 436 364 359 364 Z " />
<glyph glyph-name="Q" unicode="Q" horiz-adv-x="718" d="M341 -12 C386 -12 426 -6 463 8 L522 -77 C533 -92 551 -101 571 -101 C604 -101 628 -74 628 -44 C628 -31 625 -19 617 -8 L562 71 C612 118 646 189 662 277 C668 312 676 374 679 406 C694 582 574 716 385 716 C211 716 95 604 63 437 C55 398 47 339 44 301 C29 109 174 -12 341 -12 Z M340 119 C250 119 171 184 181 296 C186 346 192 384 201 423 C227 532 300 585 381 585 C481 585 548 516 540 412 C537 364 530 319 518 271 C510 238 497 208 480 185 L408 289 C395 308 378 316 359 316 C325 316 302 288 302 259 C302 247 306 233 314 222 L383 123 C366 120 354 119 340 119 Z " />
<glyph glyph-name="R" unicode="R" horiz-adv-x="680" d="M291 257 C319 257 327 246 340 225 L459 33 C474 9 498 -5 523 -5 C563 -5 588 26 588 60 C588 74 582 90 574 103 L466 272 C586 306 647 391 647 494 C647 623 549 707 396 707 L231 707 C175 707 141 669 133 620 L43 79 C35 31 63 -3 109 -3 C140 -3 167 17 174 59 L207 257 Z M225 371 L260 580 L389 580 C462 580 508 545 508 487 C508 424 460 371 363 371 Z " />
<glyph glyph-name="S" unicode="S" horiz-adv-x="635" d="M348 420 C274 442 228 463 228 506 C228 545 263 585 340 585 C406 585 460 563 485 548 C500 540 520 529 541 529 C583 529 606 561 606 594 C606 625 586 647 561 662 C517 688 441 716 355 716 C208 716 90 634 90 500 C90 376 206 320 324 284 C377 268 431 246 431 200 C431 153 379 117 309 117 C246 117 177 146 141 171 C125 182 109 196 77 196 C40 196 13 166 13 130 C13 107 25 89 40 75 C82 37 186 -12 305 -12 C463 -12 570 78 570 210 C570 332 476 381 348 420 Z " />
<glyph glyph-name="T" unicode="T" horiz-adv-x="600" d="M267 581 L182 78 C174 31 202 -3 247 -3 C278 -3 305 17 312 60 L400 581 L575 581 C612 581 643 607 643 643 C643 678 619 707 576 707 L110 707 C73 707 42 680 42 644 C42 609 66 581 109 581 Z " />
<glyph glyph-name="U" unicode="U" horiz-adv-x="719" d="M698 624 C706 672 679 707 636 707 C602 707 575 686 568 644 L510 297 C492 187 439 117 340 117 C247 117 174 179 198 323 L248 625 C256 674 227 707 185 707 C151 707 125 686 118 644 L67 344 C25 99 177 -12 347 -12 C503 -12 608 81 644 299 Z " />
<glyph glyph-name="V" unicode="V" horiz-adv-x="680" d="M305 140 C302 134 299 131 296 131 C292 131 290 134 289 140 L202 646 C195 687 168 707 134 707 C75 707 56 658 64 614 L162 104 C175 34 221 -12 286 -12 C346 -12 389 21 427 93 L692 600 C701 617 704 633 704 644 C704 680 674 707 636 707 C606 707 583 693 564 655 Z " />
<glyph glyph-name="W" unicode="W" horiz-adv-x="944" d="M619 596 C615 672 571 707 520 707 C470 707 429 678 405 611 L233 139 C232 134 226 134 226 140 L209 640 C208 684 175 707 140 707 C104 707 67 680 70 623 L100 101 C104 39 150 -12 213 -12 C257 -12 303 15 328 84 L502 552 C504 557 509 555 509 552 L534 106 C539 22 594 -12 649 -12 C699 -12 739 21 762 84 L962 615 C964 623 968 636 968 646 C968 681 940 707 899 707 C872 707 845 695 828 646 L654 139 C652 134 646 134 646 139 Z " />
<glyph glyph-name="X" unicode="X" horiz-adv-x="690" d="M659 586 C679 607 686 626 686 646 C686 683 654 707 623 707 C602 707 582 701 562 681 L352 461 L225 667 C208 696 186 707 158 707 C114 707 91 673 91 642 C91 627 96 612 105 598 L246 369 L8 119 C-8 102 -17 82 -17 62 C-17 25 14 -3 48 -3 C72 -3 96 11 117 33 L320 249 L451 36 C466 11 489 -3 516 -3 C561 -3 585 28 585 64 C585 78 580 94 572 108 L426 343 Z " />
<glyph glyph-name="Y" unicode="Y" horiz-adv-x="632" d="M223 330 C235 311 240 293 236 270 L203 78 C195 31 223 -3 269 -3 C300 -3 327 17 334 59 L369 270 C373 292 384 306 402 325 L657 585 C674 603 684 624 684 645 C684 679 658 707 617 707 C597 707 577 699 560 681 L318 428 L169 668 C152 695 129 707 105 707 C65 707 36 679 36 641 C36 625 43 607 50 596 Z " />
<glyph glyph-name="Z" unicode="Z" horiz-adv-x="607" d="M472 0 C509 0 540 26 540 62 C540 97 516 125 473 125 L194 125 L564 547 C588 574 610 600 610 635 C610 673 584 707 527 707 L162 707 C125 707 95 679 95 644 C95 609 118 581 161 581 L417 581 L47 160 C23 132 5 109 5 77 C5 36 34 0 91 0 Z " />
<glyph glyph-name="Agrave" unicode="&#xc0;" horiz-adv-x="670" d="M479 61 C486 20 515 -2 548 -2 C602 -2 621 44 613 88 L517 605 C502 686 449 716 397 716 C341 716 294 695 254 618 L-17 95 C-42 47 -12 -3 40 -3 C66 -3 88 10 104 41 L185 198 L455 198 Z M365 562 C371 573 374 577 382 577 C390 577 394 571 395 563 L436 317 L242 317 Z M422 755 C453 755 474 780 474 806 C474 822 466 840 445 851 L309 927 C300 932 290 935 280 935 C252 935 227 913 227 881 C227 864 235 846 256 835 L387 764 C399 757 412 755 422 755 Z " />
<glyph glyph-name="Aacute" unicode="&#xc1;" horiz-adv-x="670" d="M479 61 C486 20 515 -2 548 -2 C602 -2 621 44 613 88 L517 605 C502 686 449 716 397 716 C341 716 294 695 254 618 L-17 95 C-42 47 -12 -3 40 -3 C66 -3 88 10 104 41 L185 198 L455 198 Z M365 562 C371 573 374 577 382 577 C390 577 394 571 395 563 L436 317 L242 317 Z M359 857 C334 845 326 826 326 809 C326 775 354 757 377 757 C386 757 396 759 403 763 L540 827 C571 842 583 862 583 881 C583 907 564 931 530 931 C520 931 508 928 496 923 Z " />
<glyph glyph-name="Acircumflex" unicode="&#xc2;" horiz-adv-x="670" d="M479 61 C486 20 515 -2 548 -2 C602 -2 621 44 613 88 L517 605 C502 686 449 716 397 716 C341 716 294 695 254 618 L-17 95 C-42 47 -12 -3 40 -3 C66 -3 88 10 104 41 L185 198 L455 198 Z M365 562 C371 573 374 577 382 577 C390 577 394 571 395 563 L436 317 L242 317 Z M420 828 L489 765 C502 752 516 747 530 747 C557 747 579 769 579 796 C579 813 573 826 558 841 L469 924 C457 936 442 941 427 941 C412 941 398 936 386 927 L271 844 C253 831 243 817 243 795 C243 770 263 748 289 748 C301 748 313 752 325 760 Z " />
<glyph glyph-name="Atilde" unicode="&#xc3;" horiz-adv-x="670" d="M479 61 C486 20 515 -2 548 -2 C602 -2 621 44 613 88 L517 605 C502 686 449 716 397 716 C341 716 294 695 254 618 L-17 95 C-42 47 -12 -3 40 -3 C66 -3 88 10 104 41 L185 198 L455 198 Z M365 562 C371 573 374 577 382 577 C390 577 394 571 395 563 L436 317 L242 317 Z M474 750 C502 750 534 764 566 790 C585 805 599 822 599 843 C599 870 575 891 552 891 C519 891 506 852 478 852 C448 852 407 892 357 892 C327 892 291 876 261 850 C245 836 233 821 233 804 C233 779 258 757 283 757 C312 757 322 789 354 789 C388 789 424 750 474 750 Z " />
<glyph glyph-name="Adieresis" unicode="&#xc4;" horiz-adv-x="670" d="M479 61 C486 20 515 -2 548 -2 C602 -2 621 44 613 88 L517 605 C502 686 449 716 397 716 C341 716 294 695 254 618 L-17 95 C-42 47 -12 -3 40 -3 C66 -3 88 10 104 41 L185 198 L455 198 Z M365 562 C371 573 374 577 382 577 C390 577 394 571 395 563 L436 317 L242 317 Z M333 888 C292 888 261 854 261 816 C261 780 286 757 322 757 C360 757 393 789 393 828 C393 866 366 888 333 888 Z M515 888 C475 888 444 854 444 816 C444 780 469 757 505 757 C543 757 575 789 575 828 C575 866 549 888 515 888 Z " />
<glyph glyph-name="Amacron" unicode="&#x100;" horiz-adv-x="670" d="M479 61 C486 20 515 -2 548 -2 C602 -2 621 44 613 88 L517 605 C502 686 449 716 397 716 C341 716 294 695 254 618 L-17 95 C-42 47 -12 -3 40 -3 C66 -3 88 10 104 41 L185 198 L455 198 Z M365 562 C371 573 374 577 382 577 C390 577 394 571 395 563 L436 317 L242 317 Z M496 760 C536 760 558 790 558 819 C558 845 541 870 505 870 L355 870 C312 870 289 840 289 811 C289 785 309 760 346 760 Z " />
<glyph glyph-name="Abreve" unicode="&#x102;" horiz-adv-x="670" d="M479 61 C486 20 515 -2 548 -2 C602 -2 621 44 613 88 L517 605 C502 686 449 716 397 716 C341 716 294 695 254 618 L-17 95 C-42 47 -12 -3 40 -3 C66 -3 88 10 104 41 L185 198 L455 198 Z M365 562 C371 573 374 577 382 577 C390 577 394 571 395 563 L436 317 L242 317 Z M423 752 C503 752 551 801 571 847 C575 857 579 870 579 881 C579 905 561 926 531 926 C500 926 488 903 482 890 C469 863 456 845 424 845 C391 845 383 864 377 883 C372 902 363 926 331 926 C308 926 280 912 280 876 C280 863 283 849 287 839 C308 783 360 752 423 752 Z " />
<glyph glyph-name="Aring" unicode="&#xc5;" horiz-adv-x="670" d="M479 61 C486 20 515 -2 548 -2 C602 -2 621 44 613 88 L517 605 C502 686 449 716 397 716 C341 716 294 695 254 618 L-17 95 C-42 47 -12 -3 40 -3 C66 -3 88 10 104 41 L185 198 L455 198 Z M365 562 C371 573 374 577 382 577 C390 577 394 571 395 563 L436 317 L242 317 Z M421 750 C492 750 538 807 538 868 C538 927 495 970 434 970 C362 970 315 911 315 851 C315 793 359 750 421 750 Z M423 818 C402 818 386 833 386 855 C386 879 404 900 429 900 C450 900 466 885 466 863 C466 839 449 818 423 818 Z " />
<glyph glyph-name="Aogonek" unicode="&#x104;" horiz-adv-x="660" d="M437 313 L240 313 L365 562 C371 573 374 577 382 577 C390 577 394 571 395 563 Z M484 -221 C513 -221 543 -212 565 -195 C581 -183 591 -168 591 -151 C591 -130 576 -115 558 -115 C548 -115 540 -120 532 -124 C523 -129 513 -132 503 -132 C484 -132 466 -122 466 -95 C466 -46 541 -13 574 2 C609 17 621 43 613 88 L517 605 C502 686 449 716 397 716 C341 716 294 695 254 618 L-17 95 C-42 47 -12 -3 40 -3 C66 -3 88 10 104 41 L185 198 L455 198 L483 39 C419 6 370 -41 370 -110 C370 -183 425 -221 484 -221 Z " />
<glyph glyph-name="AE" unicode="&#xc6;" horiz-adv-x="1039" d="M490 215 L471 102 C461 41 485 0 550 0 L882 0 C919 0 950 26 950 62 C950 97 926 125 883 125 L609 125 L638 295 L897 295 C933 295 961 319 961 353 C961 385 939 412 899 412 L656 412 L684 581 L966 581 C1003 581 1034 607 1034 643 C1034 678 1010 707 967 707 L588 707 C504 707 457 690 410 629 L5 99 C-5 87 -10 71 -10 56 C-10 22 18 -3 51 -3 C71 -3 93 7 109 27 L254 215 Z M510 335 L337 335 L504 550 C520 570 534 579 548 579 L551 579 Z " />
<glyph glyph-name="Cacute" unicode="&#x106;" horiz-adv-x="662" d="M326 119 C224 119 180 192 182 272 C183 313 195 380 205 415 C230 508 281 585 383 585 C447 585 490 554 514 498 C527 469 550 455 578 455 C618 455 644 486 644 520 C644 538 639 555 632 572 C597 657 509 716 388 716 C240 716 134 635 82 485 C62 426 45 343 44 276 C40 96 157 -12 322 -12 C470 -12 554 70 590 154 C595 167 599 181 599 195 C599 234 568 256 534 256 C501 256 484 234 471 212 C442 161 398 119 326 119 Z M362 857 C337 845 329 826 329 809 C329 775 357 757 380 757 C389 757 399 759 406 763 L543 827 C574 842 586 862 586 881 C586 907 567 931 533 931 C523 931 511 928 499 923 Z " />
<glyph glyph-name="Ccaron" unicode="&#x10c;" horiz-adv-x="662" d="M326 119 C224 119 180 192 182 272 C183 313 195 380 205 415 C230 508 281 585 383 585 C447 585 490 554 514 498 C527 469 550 455 578 455 C618 455 644 486 644 520 C644 538 639 555 632 572 C597 657 509 716 388 716 C240 716 134 635 82 485 C62 426 45 343 44 276 C40 96 157 -12 322 -12 C470 -12 554 70 590 154 C595 167 599 181 599 195 C599 234 568 256 534 256 C501 256 484 234 471 212 C442 161 398 119 326 119 Z M410 755 C424 755 437 761 450 770 L560 843 C577 855 591 873 591 892 C591 918 571 941 541 941 C531 941 518 939 506 930 L419 868 L351 928 C341 936 331 941 317 941 C285 941 264 916 264 888 C264 875 269 861 281 850 L374 770 C385 761 397 755 410 755 Z " />
<glyph glyph-name="Cdotaccent" unicode="&#x10a;" horiz-adv-x="662" d="M326 119 C224 119 180 192 182 272 C183 313 195 380 205 415 C230 508 281 585 383 585 C447 585 490 554 514 498 C527 469 550 455 578 455 C618 455 644 486 644 520 C644 538 639 555 632 572 C597 657 509 716 388 716 C240 716 134 635 82 485 C62 426 45 343 44 276 C40 96 157 -12 322 -12 C470 -12 554 70 590 154 C595 167 599 181 599 195 C599 234 568 256 534 256 C501 256 484 234 471 212 C442 161 398 119 326 119 Z M428 888 C388 888 357 854 357 816 C357 780 382 757 417 757 C456 757 488 789 488 828 C488 866 462 888 428 888 Z " />
<glyph glyph-name="Ccedilla" unicode="&#xc7;" horiz-adv-x="662" d="M243 -273 C251 -273 261 -271 268 -269 C341 -248 414 -204 414 -128 C414 -77 377 -42 324 -39 L341 -11 C479 -5 556 75 590 154 C595 167 599 181 599 195 C599 234 568 256 534 256 C501 256 484 234 471 212 C442 161 398 119 326 119 C224 119 180 192 182 272 C183 313 195 380 205 415 C230 508 281 585 383 585 C447 585 490 554 514 498 C527 469 549 455 579 455 C617 455 644 486 644 520 C644 538 639 555 632 572 C597 657 509 716 388 716 C240 716 134 635 82 485 C62 426 46 347 44 276 C40 117 132 14 262 -7 L236 -57 C222 -83 241 -111 268 -111 C281 -111 289 -106 301 -106 C317 -106 327 -113 327 -127 C327 -165 267 -180 241 -189 C219 -197 202 -211 202 -233 C202 -258 222 -273 243 -273 Z " />
<glyph glyph-name="Dcaron" unicode="&#x10e;" horiz-adv-x="706" d="M122 0 L280 0 C479 0 601 75 649 269 C657 299 667 351 670 406 C679 581 581 707 364 707 L240 707 C179 707 142 674 131 611 L44 96 C34 39 68 0 122 0 Z M184 125 L259 577 L365 577 C481 577 541 513 531 395 C529 366 523 329 515 297 C485 174 420 125 276 125 Z M399 755 C413 755 426 761 439 770 L549 843 C566 855 580 873 580 892 C580 918 560 941 530 941 C520 941 507 939 495 930 L408 868 L340 928 C330 936 320 941 306 941 C274 941 253 916 253 888 C253 875 258 861 270 850 L363 770 C374 761 386 755 399 755 Z " />
<glyph glyph-name="Dcroat" unicode="&#x110;" horiz-adv-x="702" d="M118 0 L270 0 C476 0 594 73 645 269 C653 300 663 351 666 406 C674 581 574 707 365 707 L237 707 C176 707 139 674 128 611 L94 412 L62 412 C16 412 -10 380 -10 349 C-10 320 9 293 50 293 L74 293 L41 96 C31 39 65 0 118 0 Z M180 125 L208 293 L329 293 C372 293 395 324 395 355 C395 385 375 412 335 412 L228 412 L255 577 L362 577 C475 577 537 513 527 395 C525 366 519 329 511 297 C481 174 416 125 272 125 Z " />
<glyph glyph-name="Egrave" unicode="&#xc8;" horiz-adv-x="612" d="M239 707 C177 707 140 677 129 611 L44 102 C34 41 58 0 123 0 L455 0 C492 0 523 26 523 62 C523 97 499 125 456 125 L182 125 L210 293 L467 293 C505 293 534 318 534 353 C534 387 511 414 469 414 L229 414 L257 581 L539 581 C576 581 607 607 607 643 C607 678 583 707 540 707 Z M424 755 C455 755 476 780 476 806 C476 822 468 840 447 851 L311 927 C302 932 292 935 282 935 C254 935 229 913 229 881 C229 864 237 846 258 835 L389 764 C401 757 414 755 424 755 Z " />
<glyph glyph-name="Eacute" unicode="&#xc9;" horiz-adv-x="612" d="M239 707 C177 707 140 677 129 611 L44 102 C34 41 58 0 123 0 L455 0 C492 0 523 26 523 62 C523 97 499 125 456 125 L182 125 L210 293 L467 293 C505 293 534 318 534 353 C534 387 511 414 469 414 L229 414 L257 581 L539 581 C576 581 607 607 607 643 C607 678 583 707 540 707 Z M336 857 C311 845 303 826 303 809 C303 775 331 757 354 757 C363 757 373 759 380 763 L517 827 C548 842 560 862 560 881 C560 907 541 931 507 931 C497 931 485 928 473 923 Z " />
<glyph glyph-name="Ecircumflex" unicode="&#xca;" horiz-adv-x="612" d="M239 707 C177 707 140 677 129 611 L44 102 C34 41 58 0 123 0 L455 0 C492 0 523 26 523 62 C523 97 499 125 456 125 L182 125 L210 293 L467 293 C505 293 534 318 534 353 C534 387 511 414 469 414 L229 414 L257 581 L539 581 C576 581 607 607 607 643 C607 678 583 707 540 707 Z M404 828 L473 765 C486 752 500 747 514 747 C541 747 563 769 563 796 C563 813 557 826 542 841 L453 924 C441 936 426 941 411 941 C396 941 382 936 370 927 L255 844 C237 831 227 817 227 795 C227 770 247 748 273 748 C285 748 297 752 309 760 Z " />
<glyph glyph-name="Ecaron" unicode="&#x11a;" horiz-adv-x="612" d="M239 707 C177 707 140 677 129 611 L44 102 C34 41 58 0 123 0 L455 0 C492 0 523 26 523 62 C523 97 499 125 456 125 L182 125 L210 293 L467 293 C505 293 534 318 534 353 C534 387 511 414 469 414 L229 414 L257 581 L539 581 C576 581 607 607 607 643 C607 678 583 707 540 707 Z M395 755 C409 755 422 761 435 770 L545 843 C562 855 576 873 576 892 C576 918 556 941 526 941 C516 941 503 939 491 930 L404 868 L336 928 C326 936 316 941 302 941 C270 941 249 916 249 888 C249 875 254 861 266 850 L359 770 C370 761 382 755 395 755 Z " />
<glyph glyph-name="Edieresis" unicode="&#xcb;" horiz-adv-x="612" d="M239 707 C177 707 140 677 129 611 L44 102 C34 41 58 0 123 0 L455 0 C492 0 523 26 523 62 C523 97 499 125 456 125 L182 125 L210 293 L467 293 C505 293 534 318 534 353 C534 387 511 414 469 414 L229 414 L257 581 L539 581 C576 581 607 607 607 643 C607 678 583 707 540 707 Z M327 888 C286 888 255 854 255 816 C255 780 280 757 316 757 C354 757 387 789 387 828 C387 866 360 888 327 888 Z M509 888 C469 888 438 854 438 816 C438 780 463 757 499 757 C537 757 569 789 569 828 C569 866 543 888 509 888 Z " />
<glyph glyph-name="Emacron" unicode="&#x112;" horiz-adv-x="612" d="M239 707 C177 707 140 677 129 611 L44 102 C34 41 58 0 123 0 L455 0 C492 0 523 26 523 62 C523 97 499 125 456 125 L182 125 L210 293 L467 293 C505 293 534 318 534 353 C534 387 511 414 469 414 L229 414 L257 581 L539 581 C576 581 607 607 607 643 C607 678 583 707 540 707 Z M474 760 C514 760 536 790 536 819 C536 845 519 870 483 870 L333 870 C290 870 267 840 267 811 C267 785 287 760 324 760 Z " />
<glyph glyph-name="Edotaccent" unicode="&#x116;" horiz-adv-x="612" d="M239 707 C177 707 140 677 129 611 L44 102 C34 41 58 0 123 0 L455 0 C492 0 523 26 523 62 C523 97 499 125 456 125 L182 125 L210 293 L467 293 C505 293 534 318 534 353 C534 387 511 414 469 414 L229 414 L257 581 L539 581 C576 581 607 607 607 643 C607 678 583 707 540 707 Z M411 888 C371 888 340 854 340 816 C340 780 365 757 400 757 C439 757 471 789 471 828 C471 866 445 888 411 888 Z " />
<glyph glyph-name="Eogonek" unicode="&#x118;" horiz-adv-x="606" d="M392 -221 C421 -221 450 -212 473 -195 C489 -183 499 -168 499 -151 C499 -130 484 -115 466 -115 C456 -115 448 -120 440 -124 C431 -129 421 -132 411 -132 C392 -132 374 -122 374 -95 C374 -43 436 -12 474 2 C502 12 523 32 523 62 C523 97 499 125 456 125 L182 125 L211 295 L470 295 C506 295 534 319 534 353 C534 385 512 412 472 412 L229 412 L257 581 L539 581 C576 581 607 607 607 643 C607 678 583 707 540 707 L239 707 C177 707 140 677 129 611 L44 102 C34 41 58 0 123 0 L334 0 C300 -28 278 -64 278 -110 C278 -183 333 -221 392 -221 Z " />
<glyph glyph-name="Gbreve" unicode="&#x11e;" horiz-adv-x="686" d="M411 386 C365 386 336 359 336 323 C336 287 367 263 402 263 L485 263 L478 232 C458 153 406 113 322 113 C233 113 178 175 181 274 C183 324 193 383 209 435 C238 534 294 585 381 585 C455 585 493 550 514 503 C525 479 548 466 571 466 C609 466 637 494 637 535 C637 552 632 565 626 580 C596 654 506 716 390 716 C233 716 134 638 83 490 C63 434 45 336 43 268 C39 97 154 -12 331 -12 C515 -12 591 120 612 234 C616 255 619 276 622 316 C625 359 598 386 550 386 Z M421 750 C501 750 549 799 569 845 C573 855 577 868 577 879 C577 903 559 924 529 924 C498 924 486 901 480 888 C467 861 454 843 422 843 C389 843 381 862 375 881 C370 900 361 924 329 924 C306 924 278 910 278 874 C278 861 281 847 285 837 C306 781 358 750 421 750 Z " />
<glyph glyph-name="Gdotaccent" unicode="&#x120;" horiz-adv-x="686" d="M411 386 C365 386 336 359 336 323 C336 287 367 263 402 263 L485 263 L478 232 C458 153 406 113 322 113 C233 113 178 175 181 274 C183 324 193 383 209 435 C238 534 294 585 381 585 C455 585 493 550 514 503 C525 479 548 466 571 466 C609 466 637 494 637 535 C637 552 632 565 626 580 C596 654 506 716 390 716 C233 716 134 638 83 490 C63 434 45 336 43 268 C39 97 154 -12 331 -12 C515 -12 591 120 612 234 C616 255 619 276 622 316 C625 359 598 386 550 386 Z M427 888 C387 888 356 854 356 816 C356 780 381 757 416 757 C455 757 487 789 487 828 C487 866 461 888 427 888 Z " />
<glyph glyph-name="Gcommaaccent" unicode="&#x122;" horiz-adv-x="686" d="M411 386 C365 386 336 359 336 323 C336 287 367 263 402 263 L485 263 L478 232 C458 153 406 113 322 113 C233 113 178 175 181 274 C183 324 193 383 209 435 C238 534 294 585 381 585 C455 585 493 550 514 503 C525 479 548 466 571 466 C609 466 637 494 637 535 C637 552 632 565 626 580 C596 654 506 716 390 716 C233 716 134 638 83 490 C63 434 45 336 43 268 C39 97 154 -12 331 -12 C515 -12 591 120 612 234 C616 255 619 276 622 316 C625 359 598 386 550 386 Z M242 -270 C266 -270 285 -255 300 -237 C325 -208 333 -178 342 -136 L352 -88 C358 -57 338 -28 304 -28 C278 -28 255 -47 249 -78 L239 -135 C235 -160 225 -176 211 -193 C203 -203 196 -213 196 -227 C196 -252 214 -270 242 -270 Z " />
<glyph glyph-name="Igrave" unicode="&#xcc;" horiz-adv-x="310" d="M267 624 C275 672 248 707 203 707 C170 707 143 686 136 644 L42 79 C34 31 61 -4 107 -4 C137 -4 166 17 173 59 Z M229 755 C260 755 281 780 281 806 C281 822 273 840 252 851 L116 927 C107 932 97 935 87 935 C59 935 34 913 34 881 C34 864 42 846 63 835 L194 764 C206 757 219 755 229 755 Z " />
<glyph glyph-name="Iacute" unicode="&#xcd;" horiz-adv-x="310" d="M266 624 C274 672 247 707 202 707 C169 707 142 686 135 644 L41 79 C33 31 60 -4 106 -4 C136 -4 165 17 172 59 Z M187 857 C162 845 154 826 154 809 C154 775 182 757 205 757 C214 757 224 759 231 763 L368 827 C399 842 411 862 411 881 C411 907 392 931 358 931 C348 931 336 928 324 923 Z " />
<glyph glyph-name="Icircumflex" unicode="&#xce;" horiz-adv-x="310" d="M266 624 C274 672 247 707 202 707 C169 707 142 686 135 644 L41 79 C33 31 60 -4 106 -4 C136 -4 165 17 172 59 Z M227 828 L296 765 C309 752 323 747 337 747 C364 747 386 769 386 796 C386 813 380 826 365 841 L276 924 C264 936 249 941 234 941 C219 941 205 936 193 927 L78 844 C60 831 50 817 50 795 C50 770 70 748 96 748 C108 748 120 752 132 760 Z " />
<glyph glyph-name="Idieresis" unicode="&#xcf;" horiz-adv-x="310" d="M267 624 C275 672 248 707 203 707 C170 707 143 686 136 644 L42 79 C34 31 61 -4 107 -4 C137 -4 166 17 173 59 Z M146 888 C105 888 74 854 74 816 C74 780 99 757 135 757 C173 757 206 789 206 828 C206 866 179 888 146 888 Z M328 888 C288 888 257 854 257 816 C257 780 282 757 318 757 C356 757 388 789 388 828 C388 866 362 888 328 888 Z " />
<glyph glyph-name="Iogonek" unicode="&#x12e;" horiz-adv-x="310" d="M79 -221 C107 -221 137 -212 160 -195 C176 -183 186 -168 186 -151 C186 -130 171 -115 153 -115 C144 -115 137 -119 130 -123 C119 -128 109 -132 97 -132 C79 -132 58 -123 58 -93 C58 -48 111 -14 142 2 C168 17 175 30 180 59 L275 624 C283 672 256 707 210 707 C178 707 151 686 144 644 L51 84 C47 59 51 38 63 23 C10 -10 -27 -57 -27 -119 C-27 -183 20 -221 79 -221 Z " />
<glyph glyph-name="Imacron" unicode="&#x12a;" horiz-adv-x="310" d="M268 624 C276 672 249 707 204 707 C171 707 144 686 137 644 L43 79 C35 31 62 -4 108 -4 C138 -4 167 17 174 59 Z M298 760 C338 760 360 790 360 819 C360 845 343 870 307 870 L157 870 C114 870 91 840 91 811 C91 785 111 760 148 760 Z " />
<glyph glyph-name="Idotaccent" unicode="&#x130;" horiz-adv-x="310" d="M268 624 C276 672 249 707 204 707 C171 707 144 686 137 644 L43 79 C35 31 62 -4 108 -4 C138 -4 167 17 174 59 Z M235 888 C195 888 164 854 164 816 C164 780 189 757 224 757 C263 757 295 789 295 828 C295 866 269 888 235 888 Z " />
<glyph glyph-name="Kcommaaccent" unicode="&#x136;" horiz-adv-x="660" d="M213 298 L225 298 C246 298 259 295 275 274 L456 29 C471 7 493 -4 516 -4 C558 -4 580 29 580 59 C580 78 573 92 563 107 L375 358 L625 592 C644 609 653 627 653 650 C653 681 626 707 594 707 C571 707 553 698 534 681 L301 454 C277 430 267 426 248 426 L235 426 L268 625 C276 673 249 707 204 707 C171 707 144 685 137 644 L43 78 C35 31 62 -4 107 -4 C139 -4 166 17 174 59 Z M226 -270 C250 -270 269 -255 284 -237 C309 -208 317 -178 326 -136 L336 -88 C342 -57 322 -28 288 -28 C262 -28 239 -47 233 -78 L223 -135 C219 -160 209 -176 195 -193 C187 -203 180 -213 180 -227 C180 -252 198 -270 226 -270 Z " />
<glyph glyph-name="Lacute" unicode="&#x139;" horiz-adv-x="541" d="M182 125 L266 624 C274 672 247 707 201 707 C169 707 142 686 135 644 L44 96 C33 34 62 0 124 0 L454 0 C491 0 521 26 521 62 C521 97 498 125 455 125 Z M200 857 C175 845 167 826 167 809 C167 775 195 757 218 757 C227 757 237 759 244 763 L381 827 C412 842 424 862 424 881 C424 907 405 931 371 931 C361 931 349 928 337 923 Z " />
<glyph glyph-name="Lcaron" unicode="&#x13d;" horiz-adv-x="541" d="M182 125 L266 624 C274 672 247 707 201 707 C169 707 142 686 135 644 L44 96 C33 34 62 0 124 0 L454 0 C491 0 521 26 521 62 C521 97 498 125 455 125 Z M381 546 C404 546 424 561 440 581 C463 608 472 638 480 678 L491 730 C498 761 477 789 443 789 C417 789 395 770 389 740 L378 679 C374 657 367 645 354 630 C344 617 335 607 335 589 C335 565 353 546 381 546 Z " />
<glyph glyph-name="Lcommaaccent" unicode="&#x13b;" horiz-adv-x="541" d="M182 125 L266 624 C274 672 247 707 201 707 C169 707 142 686 135 644 L44 96 C33 34 62 0 124 0 L454 0 C491 0 521 26 521 62 C521 97 498 125 455 125 Z M221 -270 C245 -270 264 -255 279 -237 C304 -208 312 -178 321 -136 L331 -88 C337 -57 317 -28 283 -28 C257 -28 234 -47 228 -78 L218 -135 C214 -160 204 -176 190 -193 C182 -203 175 -213 175 -227 C175 -252 193 -270 221 -270 Z " />
<glyph glyph-name="Lslash" unicode="&#x141;" horiz-adv-x="570" d="M209 125 L239 304 L382 380 C410 394 422 418 422 442 C422 475 394 496 363 496 C352 496 341 494 330 488 L263 451 L292 624 C300 672 273 707 228 707 C196 707 169 686 162 644 L117 375 L24 325 C0 313 -14 290 -14 267 C-14 232 15 210 45 210 C54 210 63 212 71 216 L92 227 L71 96 C61 34 89 0 150 0 L480 0 C518 0 548 26 548 62 C548 97 524 125 482 125 Z " />
<glyph glyph-name="Nacute" unicode="&#x143;" horiz-adv-x="769" d="M526 173 L345 625 C328 668 305 707 242 707 C192 707 144 679 130 596 L43 78 C35 31 63 -3 108 -3 C139 -3 167 17 174 59 L219 326 C232 403 243 479 248 537 L251 538 L431 73 C451 23 488 -3 536 -3 C594 -3 630 36 643 110 L731 624 C739 672 712 707 666 707 C634 707 607 686 600 644 L564 425 C555 373 539 288 529 173 Z M400 857 C375 845 367 826 367 809 C367 775 395 757 418 757 C427 757 437 759 444 763 L581 827 C612 842 624 862 624 881 C624 907 605 931 571 931 C561 931 549 928 537 923 Z " />
<glyph glyph-name="Ncaron" unicode="&#x147;" horiz-adv-x="769" d="M526 173 L345 625 C328 668 305 707 242 707 C192 707 144 679 130 596 L43 78 C35 31 63 -3 108 -3 C139 -3 167 17 174 59 L219 326 C232 403 243 479 248 537 L251 538 L431 73 C451 23 488 -3 536 -3 C594 -3 630 36 643 110 L731 624 C739 672 712 707 666 707 C634 707 607 686 600 644 L564 425 C555 373 539 288 529 173 Z M456 755 C470 755 483 761 496 770 L606 843 C623 855 637 873 637 892 C637 918 617 941 587 941 C577 941 564 939 552 930 L465 868 L397 928 C387 936 377 941 363 941 C331 941 310 916 310 888 C310 875 315 861 327 850 L420 770 C431 761 443 755 456 755 Z " />
<glyph glyph-name="Ntilde" unicode="&#xd1;" horiz-adv-x="769" d="M526 173 L345 625 C328 668 305 707 242 707 C192 707 144 679 130 596 L43 78 C35 31 63 -3 108 -3 C139 -3 167 17 174 59 L219 326 C232 403 243 479 248 537 L251 538 L431 73 C451 23 488 -3 536 -3 C594 -3 630 36 643 110 L731 624 C739 672 712 707 666 707 C634 707 607 686 600 644 L564 425 C555 373 539 288 529 173 Z M523 750 C551 750 583 764 615 790 C634 805 648 822 648 843 C648 870 624 891 601 891 C568 891 555 852 527 852 C497 852 456 892 406 892 C376 892 340 876 310 850 C294 836 282 821 282 804 C282 779 307 757 332 757 C361 757 371 789 403 789 C437 789 473 750 523 750 Z " />
<glyph glyph-name="Ncommaaccent" unicode="&#x145;" horiz-adv-x="769" d="M526 173 L345 625 C328 668 305 707 242 707 C192 707 144 679 130 596 L43 78 C35 31 63 -3 108 -3 C139 -3 167 17 174 59 L219 326 C232 403 243 479 248 537 L251 538 L431 73 C451 23 488 -3 536 -3 C594 -3 630 36 643 110 L731 624 C739 672 712 707 666 707 C634 707 607 686 600 644 L564 425 C555 373 539 288 529 173 Z M267 -270 C291 -270 310 -255 325 -237 C350 -208 358 -178 367 -136 L377 -88 C383 -57 363 -28 329 -28 C303 -28 280 -47 274 -78 L264 -135 C260 -160 250 -176 236 -193 C228 -203 221 -213 221 -227 C221 -252 239 -270 267 -270 Z " />
<glyph glyph-name="Ograve" unicode="&#xd2;" horiz-adv-x="716" d="M353 -12 C512 -12 630 92 662 277 C668 312 676 374 679 406 C694 582 574 716 385 716 C211 716 95 604 63 437 C55 398 48 342 45 304 C30 112 171 -12 353 -12 Z M340 119 C251 119 169 181 181 296 C186 346 192 384 201 423 C227 532 300 585 381 585 C481 585 548 516 540 412 C537 364 530 319 518 271 C495 176 435 119 340 119 Z M445 755 C476 755 497 780 497 806 C497 822 489 840 468 851 L332 927 C323 932 313 935 303 935 C275 935 250 913 250 881 C250 864 258 846 279 835 L410 764 C422 757 435 755 445 755 Z " />
<glyph glyph-name="Oacute" unicode="&#xd3;" horiz-adv-x="716" d="M353 -12 C512 -12 630 92 662 277 C668 312 676 374 679 406 C694 582 574 716 385 716 C211 716 95 604 63 437 C55 398 48 342 45 304 C30 112 171 -12 353 -12 Z M340 119 C251 119 169 181 181 296 C186 346 192 384 201 423 C227 532 300 585 381 585 C481 585 548 516 540 412 C537 364 530 319 518 271 C495 176 435 119 340 119 Z M380 857 C355 845 347 826 347 809 C347 775 375 757 398 757 C407 757 417 759 424 763 L561 827 C592 842 604 862 604 881 C604 907 585 931 551 931 C541 931 529 928 517 923 Z " />
<glyph glyph-name="Ocircumflex" unicode="&#xd4;" horiz-adv-x="716" d="M353 -12 C512 -12 630 92 662 277 C668 312 676 374 679 406 C694 582 574 716 385 716 C211 716 95 604 63 437 C55 398 48 342 45 304 C30 112 171 -12 353 -12 Z M340 119 C251 119 169 181 181 296 C186 346 192 384 201 423 C227 532 300 585 381 585 C481 585 548 516 540 412 C537 364 530 319 518 271 C495 176 435 119 340 119 Z M437 828 L506 765 C519 752 533 747 547 747 C574 747 596 769 596 796 C596 813 590 826 575 841 L486 924 C474 936 459 941 444 941 C429 941 415 936 403 927 L288 844 C270 831 260 817 260 795 C260 770 280 748 306 748 C318 748 330 752 342 760 Z " />
<glyph glyph-name="Otilde" unicode="&#xd5;" horiz-adv-x="716" d="M353 -12 C512 -12 630 92 662 277 C668 312 676 374 679 406 C694 582 574 716 385 716 C211 716 95 604 63 437 C55 398 48 342 45 304 C30 112 171 -12 353 -12 Z M340 119 C251 119 169 181 181 296 C186 346 192 384 201 423 C227 532 300 585 381 585 C481 585 548 516 540 412 C537 364 530 319 518 271 C495 176 435 119 340 119 Z M482 750 C510 750 542 764 574 790 C593 805 607 822 607 843 C607 870 583 891 560 891 C527 891 514 852 486 852 C456 852 415 892 365 892 C335 892 299 876 269 850 C253 836 241 821 241 804 C241 779 266 757 291 757 C320 757 330 789 362 789 C396 789 432 750 482 750 Z " />
<glyph glyph-name="Odieresis" unicode="&#xd6;" horiz-adv-x="716" d="M353 -12 C512 -12 630 92 662 277 C668 312 676 374 679 406 C694 582 574 716 385 716 C211 716 95 604 63 437 C55 398 48 342 45 304 C30 112 171 -12 353 -12 Z M340 119 C251 119 169 181 181 296 C186 346 192 384 201 423 C227 532 300 585 381 585 C481 585 548 516 540 412 C537 364 530 319 518 271 C495 176 435 119 340 119 Z M352 888 C311 888 280 854 280 816 C280 780 305 757 341 757 C379 757 412 789 412 828 C412 866 385 888 352 888 Z M534 888 C494 888 463 854 463 816 C463 780 488 757 524 757 C562 757 594 789 594 828 C594 866 568 888 534 888 Z " />
<glyph glyph-name="Omacron" unicode="&#x14c;" horiz-adv-x="716" d="M353 -12 C512 -12 630 92 662 277 C668 312 676 374 679 406 C694 582 574 716 385 716 C211 716 95 604 63 437 C55 398 48 342 45 304 C30 112 171 -12 353 -12 Z M340 119 C251 119 169 181 181 296 C186 346 192 384 201 423 C227 532 300 585 381 585 C481 585 548 516 540 412 C537 364 530 319 518 271 C495 176 435 119 340 119 Z M507 760 C547 760 569 790 569 819 C569 845 552 870 516 870 L366 870 C323 870 300 840 300 811 C300 785 320 760 357 760 Z " />
<glyph glyph-name="Ohungarumlaut" unicode="&#x150;" horiz-adv-x="716" d="M353 -12 C512 -12 630 92 662 277 C668 312 676 374 679 406 C694 582 574 716 385 716 C211 716 95 604 63 437 C55 398 48 342 45 304 C30 112 171 -12 353 -12 Z M340 119 C251 119 169 181 181 296 C186 346 192 384 201 423 C227 532 300 585 381 585 C481 585 548 516 540 412 C537 364 530 319 518 271 C495 176 435 119 340 119 Z M465 862 C477 872 484 890 484 905 C484 936 463 959 431 959 C412 959 398 949 387 939 L290 850 C278 839 270 821 270 808 C270 772 295 754 322 754 C338 754 354 761 367 773 Z M661 862 C673 872 681 890 681 905 C681 936 659 959 627 959 C608 959 594 949 583 939 L487 850 C474 839 466 821 466 808 C466 772 491 754 518 754 C534 754 550 761 563 773 Z " />
<glyph glyph-name="Oslash" unicode="&#xd8;" horiz-adv-x="716" d="M350 -12 C513 -12 630 92 662 277 C668 312 676 374 679 406 C684 474 671 535 640 585 L670 619 C684 635 691 650 691 665 C691 694 666 716 638 716 C623 716 606 709 591 692 L565 664 C518 697 456 716 385 716 C211 716 95 604 63 437 C55 398 48 340 45 302 C39 231 57 171 86 124 L53 86 C39 69 31 54 31 39 C31 11 54 -12 83 -12 C98 -12 115 -5 131 12 L161 45 C213 9 279 -12 350 -12 Z M340 119 C309 119 278 126 252 142 L535 475 C541 451 542 426 539 398 C535 356 529 314 518 271 C495 176 435 119 340 119 Z M186 228 C177 257 180 288 184 322 C189 365 193 387 201 423 C227 532 300 585 381 585 C415 585 445 577 470 562 Z " />
<glyph glyph-name="OE" unicode="&#x152;" horiz-adv-x="1049" d="M618 125 L648 295 L907 295 C943 295 971 319 971 353 C971 385 948 412 909 412 L666 412 L694 581 L976 581 C1013 581 1044 607 1044 643 C1044 678 1020 706 977 706 L694 706 C634 706 482 716 419 716 C197 716 96 606 63 437 C56 403 47 336 44 302 C30 111 162 -12 345 -12 C412 -12 518 0 563 0 L892 0 C929 0 960 26 960 62 C960 97 936 125 893 125 Z M486 132 C439 121 402 119 366 119 C220 119 170 209 182 306 C185 328 190 364 200 414 C224 541 305 585 413 585 C458 585 511 581 559 572 Z " />
<glyph glyph-name="Racute" unicode="&#x154;" horiz-adv-x="680" d="M291 257 C319 257 327 246 340 225 L459 33 C474 9 498 -5 523 -5 C563 -5 588 26 588 60 C588 74 582 90 574 103 L466 272 C586 306 647 391 647 494 C647 623 549 707 396 707 L231 707 C175 707 141 669 133 620 L43 79 C35 31 63 -3 109 -3 C140 -3 167 17 174 59 L207 257 Z M225 371 L260 580 L389 580 C462 580 508 545 508 487 C508 424 460 371 363 371 Z M346 857 C321 845 313 826 313 809 C313 775 341 757 364 757 C373 757 383 759 390 763 L527 827 C558 842 570 862 570 881 C570 907 551 931 517 931 C507 931 495 928 483 923 Z " />
<glyph glyph-name="Rcaron" unicode="&#x158;" horiz-adv-x="680" d="M291 257 C319 257 327 246 340 225 L459 33 C474 9 498 -5 523 -5 C563 -5 588 26 588 60 C588 74 582 90 574 103 L466 272 C586 306 647 391 647 494 C647 623 549 707 396 707 L231 707 C175 707 141 669 133 620 L43 79 C35 31 63 -3 109 -3 C140 -3 167 17 174 59 L207 257 Z M225 371 L260 580 L389 580 C462 580 508 545 508 487 C508 424 460 371 363 371 Z M389 755 C403 755 416 761 429 770 L539 843 C556 855 570 873 570 892 C570 918 550 941 520 941 C510 941 497 939 485 930 L398 868 L330 928 C320 936 310 941 296 941 C264 941 243 916 243 888 C243 875 248 861 260 850 L353 770 C364 761 376 755 389 755 Z " />
<glyph glyph-name="Rcommaaccent" unicode="&#x156;" horiz-adv-x="680" d="M291 257 C319 257 327 246 340 225 L459 33 C474 9 498 -5 523 -5 C563 -5 588 26 588 60 C588 74 582 90 574 103 L466 272 C586 306 647 391 647 494 C647 623 549 707 396 707 L231 707 C175 707 141 669 133 620 L43 79 C35 31 63 -3 109 -3 C140 -3 167 17 174 59 L207 257 Z M225 371 L260 580 L389 580 C462 580 508 545 508 487 C508 424 460 371 363 371 Z M229 -270 C253 -270 272 -255 287 -237 C312 -208 320 -178 329 -136 L339 -88 C345 -57 325 -28 291 -28 C265 -28 242 -47 236 -78 L226 -135 C222 -160 212 -176 198 -193 C190 -203 183 -213 183 -227 C183 -252 201 -270 229 -270 Z " />
<glyph glyph-name="Sacute" unicode="&#x15a;" horiz-adv-x="635" d="M347 420 C273 442 227 463 227 506 C227 545 262 585 339 585 C405 585 459 563 484 548 C499 540 519 529 540 529 C582 529 605 561 605 594 C605 625 585 647 560 662 C516 688 440 716 354 716 C207 716 89 634 89 500 C89 376 205 320 323 284 C376 268 430 246 430 200 C430 153 378 117 308 117 C245 117 176 146 140 171 C124 182 108 196 76 196 C39 196 12 166 12 130 C12 107 24 89 39 75 C81 37 185 -12 304 -12 C462 -12 569 78 569 210 C569 332 475 381 347 420 Z M336 857 C311 845 303 826 303 809 C303 775 331 757 354 757 C363 757 373 759 380 763 L517 827 C548 842 560 862 560 881 C560 907 541 931 507 931 C497 931 485 928 473 923 Z " />
<glyph glyph-name="Scaron" unicode="&#x160;" horiz-adv-x="635" d="M348 420 C274 442 228 463 228 506 C228 545 263 585 340 585 C406 585 460 563 485 548 C500 540 520 529 541 529 C583 529 606 561 606 594 C606 625 586 647 561 662 C517 688 441 716 355 716 C208 716 90 634 90 500 C90 376 206 320 324 284 C377 268 431 246 431 200 C431 153 379 117 309 117 C246 117 177 146 141 171 C125 182 109 196 77 196 C40 196 13 166 13 130 C13 107 25 89 40 75 C82 37 186 -12 305 -12 C463 -12 570 78 570 210 C570 332 476 381 348 420 Z M388 755 C402 755 415 761 428 770 L538 843 C555 855 569 873 569 892 C569 918 549 941 519 941 C509 941 496 939 484 930 L397 868 L329 928 C319 936 309 941 295 941 C263 941 242 916 242 888 C242 875 247 861 259 850 L352 770 C363 761 375 755 388 755 Z " />
<glyph glyph-name="Scedilla" unicode="&#x15e;" horiz-adv-x="635" d="M213 -273 C221 -273 230 -271 237 -269 C311 -248 384 -204 384 -128 C384 -77 346 -42 294 -39 L308 -12 L320 -12 C468 -12 571 82 571 210 C571 332 477 382 349 420 C275 442 229 463 229 506 C229 545 264 585 341 585 C408 585 461 563 486 548 C502 540 521 529 543 529 C584 529 607 561 607 594 C607 625 587 647 562 662 C518 688 442 716 356 716 C209 716 91 634 91 500 C91 376 207 320 326 284 C379 268 432 246 432 200 C432 153 381 117 310 117 C247 117 178 146 142 171 C126 182 111 196 78 196 C42 196 14 166 14 130 C14 107 26 89 42 75 C74 45 146 8 232 -6 L206 -57 C192 -83 211 -111 238 -111 C251 -111 259 -106 271 -106 C286 -106 297 -113 297 -127 C297 -165 237 -180 211 -189 C189 -197 172 -211 172 -233 C172 -258 192 -273 213 -273 Z " />
<glyph glyph-name="Scommaaccent" unicode="&#x218;" horiz-adv-x="635" d="M348 420 C274 442 228 463 228 506 C228 545 263 585 340 585 C406 585 460 563 485 548 C500 540 520 529 541 529 C583 529 606 561 606 594 C606 625 586 647 561 662 C517 688 441 716 355 716 C208 716 90 634 90 500 C90 376 206 320 324 284 C377 268 431 246 431 200 C431 153 379 117 309 117 C246 117 177 146 141 171 C125 182 109 196 77 196 C40 196 13 166 13 130 C13 107 25 89 40 75 C82 37 186 -12 305 -12 C463 -12 570 78 570 210 C570 332 476 381 348 420 Z M234 -270 C258 -270 277 -255 292 -237 C317 -208 325 -178 334 -136 L344 -88 C350 -57 330 -28 296 -28 C270 -28 247 -47 241 -78 L231 -135 C227 -160 217 -176 203 -193 C195 -203 188 -213 188 -227 C188 -252 206 -270 234 -270 Z " />
<glyph glyph-name="Tcaron" unicode="&#x164;" horiz-adv-x="600" d="M267 581 L182 78 C174 31 202 -3 247 -3 C278 -3 305 17 312 60 L400 581 L575 581 C612 581 643 607 643 643 C643 678 619 707 576 707 L110 707 C73 707 42 680 42 644 C42 609 66 581 109 581 Z M354 755 C368 755 381 761 394 770 L504 843 C521 855 535 873 535 892 C535 918 515 941 485 941 C475 941 462 939 450 930 L363 868 L295 928 C285 936 275 941 261 941 C229 941 208 916 208 888 C208 875 213 861 225 850 L318 770 C329 761 341 755 354 755 Z " />
<glyph glyph-name="Tcommaaccent" unicode="&#x162;" horiz-adv-x="600" d="M267 581 L182 78 C174 31 202 -3 247 -3 C278 -3 305 17 312 60 L400 581 L575 581 C612 581 643 607 643 643 C643 678 619 707 576 707 L110 707 C73 707 42 680 42 644 C42 609 66 581 109 581 Z M156 -286 C180 -286 199 -271 214 -253 C239 -224 247 -194 256 -152 L266 -104 C272 -73 252 -44 218 -44 C192 -44 169 -63 163 -94 L153 -151 C149 -176 139 -192 125 -209 C117 -219 110 -229 110 -243 C110 -268 128 -286 156 -286 Z " />
<glyph glyph-name="Ugrave" unicode="&#xd9;" horiz-adv-x="719" d="M698 624 C706 672 679 707 636 707 C602 707 575 686 568 644 L510 297 C492 187 439 117 340 117 C247 117 174 179 198 323 L248 625 C256 674 227 707 185 707 C151 707 125 686 118 644 L67 344 C25 99 177 -12 347 -12 C503 -12 608 81 644 299 Z M454 755 C485 755 506 780 506 806 C506 822 498 840 477 851 L341 927 C332 932 322 935 312 935 C284 935 259 913 259 881 C259 864 267 846 288 835 L419 764 C431 757 444 755 454 755 Z " />
<glyph glyph-name="Uacute" unicode="&#xda;" horiz-adv-x="719" d="M698 624 C706 672 679 707 636 707 C602 707 575 686 568 644 L510 297 C492 187 439 117 340 117 C247 117 174 179 198 323 L248 625 C256 674 227 707 185 707 C151 707 125 686 118 644 L67 344 C25 99 177 -12 347 -12 C503 -12 608 81 644 299 Z M376 857 C351 845 343 826 343 809 C343 775 371 757 394 757 C403 757 413 759 420 763 L557 827 C588 842 600 862 600 881 C600 907 581 931 547 931 C537 931 525 928 513 923 Z " />
<glyph glyph-name="Ucircumflex" unicode="&#xdb;" horiz-adv-x="719" d="M698 624 C706 672 679 707 636 707 C602 707 575 686 568 644 L510 297 C492 187 439 117 340 117 C247 117 174 179 198 323 L248 625 C256 674 227 707 185 707 C151 707 125 686 118 644 L67 344 C25 99 177 -12 347 -12 C503 -12 608 81 644 299 Z M445 828 L514 765 C527 752 541 747 555 747 C582 747 604 769 604 796 C604 813 598 826 583 841 L494 924 C482 936 467 941 452 941 C437 941 423 936 411 927 L296 844 C278 831 268 817 268 795 C268 770 288 748 314 748 C326 748 338 752 350 760 Z " />
<glyph glyph-name="Udieresis" unicode="&#xdc;" horiz-adv-x="719" d="M698 624 C706 672 679 707 636 707 C602 707 575 686 568 644 L510 297 C492 187 439 117 340 117 C247 117 174 179 198 323 L248 625 C256 674 227 707 185 707 C151 707 125 686 118 644 L67 344 C25 99 177 -12 347 -12 C503 -12 608 81 644 299 Z M359 888 C318 888 287 854 287 816 C287 780 312 757 348 757 C386 757 419 789 419 828 C419 866 392 888 359 888 Z M541 888 C501 888 470 854 470 816 C470 780 495 757 531 757 C569 757 601 789 601 828 C601 866 575 888 541 888 Z " />
<glyph glyph-name="Umacron" unicode="&#x16a;" horiz-adv-x="719" d="M698 624 C706 672 679 707 636 707 C602 707 575 686 568 644 L510 297 C492 187 439 117 340 117 C247 117 174 179 198 323 L248 625 C256 674 227 707 185 707 C151 707 125 686 118 644 L67 344 C25 99 177 -12 347 -12 C503 -12 608 81 644 299 Z M507 760 C547 760 569 790 569 819 C569 845 552 870 516 870 L366 870 C323 870 300 840 300 811 C300 785 320 760 357 760 Z " />
<glyph glyph-name="Uring" unicode="&#x16e;" horiz-adv-x="719" d="M698 624 C706 672 679 707 636 707 C602 707 575 686 568 644 L510 297 C492 187 439 117 340 117 C247 117 174 179 198 323 L248 625 C256 674 227 707 185 707 C151 707 125 686 118 644 L67 344 C25 99 177 -12 347 -12 C503 -12 608 81 644 299 Z M440 750 C511 750 557 807 557 868 C557 927 514 970 453 970 C381 970 334 911 334 851 C334 793 378 750 440 750 Z M442 818 C421 818 405 833 405 855 C405 879 423 900 448 900 C469 900 485 885 485 863 C485 839 468 818 442 818 Z " />
<glyph glyph-name="Uhungarumlaut" unicode="&#x170;" horiz-adv-x="719" d="M698 624 C706 672 679 707 636 707 C602 707 575 686 568 644 L510 297 C492 187 439 117 340 117 C247 117 174 179 198 323 L248 625 C256 674 227 707 185 707 C151 707 125 686 118 644 L67 344 C25 99 177 -12 347 -12 C503 -12 608 81 644 299 Z M483 862 C495 872 502 890 502 905 C502 936 481 959 449 959 C430 959 416 949 405 939 L308 850 C296 839 288 821 288 808 C288 772 313 754 340 754 C356 754 372 761 385 773 Z M679 862 C691 872 699 890 699 905 C699 936 677 959 645 959 C626 959 612 949 601 939 L505 850 C492 839 484 821 484 808 C484 772 509 754 536 754 C552 754 568 761 581 773 Z " />
<glyph glyph-name="Uogonek" unicode="&#x172;" horiz-adv-x="719" d="M321 -221 C350 -221 380 -213 402 -196 C418 -184 428 -168 428 -151 C428 -130 413 -115 395 -115 C388 -115 381 -118 375 -121 C363 -127 353 -132 341 -132 C321 -132 302 -119 302 -89 C302 -41 355 -13 388 -8 C537 14 613 110 644 299 L698 624 C706 672 680 707 634 707 C603 707 575 686 568 644 L510 297 C492 187 439 117 340 117 C247 117 174 179 198 323 L248 625 C256 672 229 707 184 707 C152 707 125 686 118 644 L67 344 C32 139 134 29 261 -2 C227 -32 206 -68 206 -112 C206 -182 262 -221 321 -221 Z " />
<glyph glyph-name="Wgrave" unicode="&#x1e80;" horiz-adv-x="944" d="M619 596 C615 672 571 707 520 707 C470 707 429 678 405 611 L233 139 C232 134 226 134 226 140 L209 640 C208 684 175 707 140 707 C104 707 67 680 70 623 L100 101 C104 39 150 -12 213 -12 C257 -12 303 15 328 84 L502 552 C504 557 509 555 509 552 L534 106 C539 22 594 -12 649 -12 C699 -12 739 21 762 84 L962 615 C964 623 968 636 968 646 C968 681 940 707 899 707 C872 707 845 695 828 646 L654 139 C652 134 646 134 646 139 Z M551 755 C582 755 603 780 603 806 C603 822 595 840 574 851 L438 927 C429 932 419 935 409 935 C381 935 356 913 356 881 C356 864 364 846 385 835 L516 764 C528 757 541 755 551 755 Z " />
<glyph glyph-name="Wacute" unicode="&#x1e82;" horiz-adv-x="944" d="M619 596 C615 672 571 707 520 707 C470 707 429 678 405 611 L233 139 C232 134 226 134 226 140 L209 640 C208 684 175 707 140 707 C104 707 67 680 70 623 L100 101 C104 39 150 -12 213 -12 C257 -12 303 15 328 84 L502 552 C504 557 509 555 509 552 L534 106 C539 22 594 -12 649 -12 C699 -12 739 21 762 84 L962 615 C964 623 968 636 968 646 C968 681 940 707 899 707 C872 707 845 695 828 646 L654 139 C652 134 646 134 646 139 Z M488 857 C463 845 455 826 455 809 C455 775 483 757 506 757 C515 757 525 759 532 763 L669 827 C700 842 712 862 712 881 C712 907 693 931 659 931 C649 931 637 928 625 923 Z " />
<glyph glyph-name="Wcircumflex" unicode="&#x174;" horiz-adv-x="944" d="M619 596 C615 672 571 707 520 707 C470 707 429 678 405 611 L233 139 C232 134 226 134 226 140 L209 640 C208 684 175 707 140 707 C104 707 67 680 70 623 L100 101 C104 39 150 -12 213 -12 C257 -12 303 15 328 84 L502 552 C504 557 509 555 509 552 L534 106 C539 22 594 -12 649 -12 C699 -12 739 21 762 84 L962 615 C964 623 968 636 968 646 C968 681 940 707 899 707 C872 707 845 695 828 646 L654 139 C652 134 646 134 646 139 Z M538 828 L607 765 C620 752 634 747 648 747 C675 747 697 769 697 796 C697 813 691 826 676 841 L587 924 C575 936 560 941 545 941 C530 941 516 936 504 927 L389 844 C371 831 361 817 361 795 C361 770 381 748 407 748 C419 748 431 752 443 760 Z " />
<glyph glyph-name="Wdieresis" unicode="&#x1e84;" horiz-adv-x="944" d="M619 596 C615 672 571 707 520 707 C470 707 429 678 405 611 L233 139 C232 134 226 134 226 140 L209 640 C208 684 175 707 140 707 C104 707 67 680 70 623 L100 101 C104 39 150 -12 213 -12 C257 -12 303 15 328 84 L502 552 C504 557 509 555 509 552 L534 106 C539 22 594 -12 649 -12 C699 -12 739 21 762 84 L962 615 C964 623 968 636 968 646 C968 681 940 707 899 707 C872 707 845 695 828 646 L654 139 C652 134 646 134 646 139 Z M456 888 C415 888 384 854 384 816 C384 780 409 757 445 757 C483 757 516 789 516 828 C516 866 489 888 456 888 Z M638 888 C598 888 567 854 567 816 C567 780 592 757 628 757 C666 757 698 789 698 828 C698 866 672 888 638 888 Z " />
<glyph glyph-name="Ygrave" unicode="&#x1ef2;" horiz-adv-x="632" d="M223 330 C235 311 240 293 236 270 L203 78 C195 31 223 -3 269 -3 C300 -3 327 17 334 59 L369 270 C373 292 384 306 402 325 L657 585 C674 603 684 624 684 645 C684 679 658 707 617 707 C597 707 577 699 560 681 L318 428 L169 668 C152 695 129 707 105 707 C65 707 36 679 36 641 C36 625 43 607 50 596 Z M398 755 C429 755 450 780 450 806 C450 822 442 840 421 851 L285 927 C276 932 266 935 256 935 C228 935 203 913 203 881 C203 864 211 846 232 835 L363 764 C375 757 388 755 398 755 Z " />
<glyph glyph-name="Yacute" unicode="&#xdd;" horiz-adv-x="632" d="M223 330 C235 311 240 293 236 270 L203 78 C195 31 223 -3 269 -3 C300 -3 327 17 334 59 L369 270 C373 292 384 306 402 325 L657 585 C674 603 684 624 684 645 C684 679 658 707 617 707 C597 707 577 699 560 681 L318 428 L169 668 C152 695 129 707 105 707 C65 707 36 679 36 641 C36 625 43 607 50 596 Z M327 857 C302 845 294 826 294 809 C294 775 322 757 345 757 C354 757 364 759 371 763 L508 827 C539 842 551 862 551 881 C551 907 532 931 498 931 C488 931 476 928 464 923 Z " />
<glyph glyph-name="Ycircumflex" unicode="&#x176;" horiz-adv-x="632" d="M223 330 C235 311 240 293 236 270 L203 78 C195 31 223 -3 269 -3 C300 -3 327 17 334 59 L369 270 C373 292 384 306 402 325 L657 585 C674 603 684 624 684 645 C684 679 658 707 617 707 C597 707 577 699 560 681 L318 428 L169 668 C152 695 129 707 105 707 C65 707 36 679 36 641 C36 625 43 607 50 596 Z M391 828 L460 765 C473 752 487 747 501 747 C528 747 550 769 550 796 C550 813 544 826 529 841 L440 924 C428 936 413 941 398 941 C383 941 369 936 357 927 L242 844 C224 831 214 817 214 795 C214 770 234 748 260 748 C272 748 284 752 296 760 Z " />
<glyph glyph-name="Ydieresis" unicode="&#x178;" horiz-adv-x="632" d="M223 330 C235 311 240 293 236 270 L203 78 C195 31 223 -3 269 -3 C300 -3 327 17 334 59 L369 270 C373 292 384 306 402 325 L657 585 C674 603 684 624 684 645 C684 679 658 707 617 707 C597 707 577 699 560 681 L318 428 L169 668 C152 695 129 707 105 707 C65 707 36 679 36 641 C36 625 43 607 50 596 Z M296 837 C255 837 224 803 224 765 C224 729 249 706 285 706 C323 706 356 738 356 777 C356 815 329 837 296 837 Z M478 837 C438 837 407 803 407 765 C407 729 432 706 468 706 C506 706 538 738 538 777 C538 815 512 837 478 837 Z " />
<glyph glyph-name="Zacute" unicode="&#x179;" horiz-adv-x="607" d="M472 0 C509 0 540 26 540 62 C540 97 516 125 473 125 L194 125 L564 547 C588 574 610 600 610 635 C610 673 584 707 527 707 L162 707 C125 707 95 679 95 644 C95 609 118 581 161 581 L417 581 L47 160 C23 132 5 109 5 77 C5 36 34 0 91 0 Z M339 857 C314 845 306 826 306 809 C306 775 334 757 357 757 C366 757 376 759 383 763 L520 827 C551 842 563 862 563 881 C563 907 544 931 510 931 C500 931 488 928 476 923 Z " />
<glyph glyph-name="Zcaron" unicode="&#x17d;" horiz-adv-x="607" d="M472 0 C509 0 540 26 540 62 C540 97 516 125 473 125 L194 125 L564 547 C588 574 610 600 610 635 C610 673 584 707 527 707 L162 707 C125 707 95 679 95 644 C95 609 118 581 161 581 L417 581 L47 160 C23 132 5 109 5 77 C5 36 34 0 91 0 Z M365 755 C379 755 392 761 405 770 L515 843 C532 855 546 873 546 892 C546 918 526 941 496 941 C486 941 473 939 461 930 L374 868 L306 928 C296 936 286 941 272 941 C240 941 219 916 219 888 C219 875 224 861 236 850 L329 770 C340 761 352 755 365 755 Z " />
<glyph glyph-name="Zdotaccent" unicode="&#x17b;" horiz-adv-x="607" d="M472 0 C509 0 540 26 540 62 C540 97 516 125 473 125 L194 125 L564 547 C588 574 610 600 610 635 C610 673 584 707 527 707 L162 707 C125 707 95 679 95 644 C95 609 118 581 161 581 L417 581 L47 160 C23 132 5 109 5 77 C5 36 34 0 91 0 Z M397 888 C357 888 326 854 326 816 C326 780 351 757 386 757 C425 757 457 789 457 828 C457 866 431 888 397 888 Z " />
<glyph glyph-name="Eth" unicode="&#xd0;" horiz-adv-x="702" d="M118 0 L270 0 C476 0 594 73 645 269 C653 300 663 351 666 406 C674 581 574 707 365 707 L237 707 C176 707 139 674 128 611 L94 412 L62 412 C16 412 -10 380 -10 349 C-10 320 9 293 50 293 L74 293 L41 96 C31 39 65 0 118 0 Z M180 125 L208 293 L329 293 C372 293 395 324 395 355 C395 385 375 412 335 412 L228 412 L255 577 L362 577 C475 577 537 513 527 395 C525 366 519 329 511 297 C481 174 416 125 272 125 Z " />
<glyph glyph-name="Thorn" unicode="&#xde;" horiz-adv-x="632" d="M186 118 L325 118 C548 118 624 256 624 372 C624 490 548 590 365 590 L264 590 L271 633 C279 682 245 707 208 707 C163 707 142 669 135 629 L43 71 C36 30 65 -3 107 -3 C147 -3 170 26 177 66 Z M207 245 L244 467 L360 467 C445 467 483 430 483 369 C483 290 419 245 319 245 Z " />
<glyph glyph-name="a" unicode="a" horiz-adv-x="540" d="M487 331 C512 472 424 546 300 546 C254 546 191 536 151 518 C123 505 106 486 106 459 C106 424 135 394 187 406 C205 410 242 425 286 425 C347 425 375 397 365 347 L357 306 C323 320 279 330 232 330 C116 330 24 268 24 162 C24 70 93 -10 240 -10 C334 -10 392 22 412 35 C438 52 441 68 444 85 Z M240 99 C188 99 151 121 151 162 C151 215 205 234 250 234 C277 234 310 227 341 214 L325 119 C299 106 270 99 240 99 Z " />
<glyph glyph-name="b" unicode="b" horiz-adv-x="585" d="M543 314 C553 474 446 545 339 545 C306 545 274 536 247 523 L266 634 C274 682 247 717 201 717 C169 717 142 696 135 654 L43 103 C40 82 42 69 59 55 C84 35 166 -10 285 -10 C399 -10 492 55 523 188 C534 237 541 284 543 314 Z M397 214 C382 155 345 117 287 117 C241 117 202 128 183 141 L225 390 C244 401 273 419 316 419 C378 419 416 379 413 315 C412 293 404 241 397 214 Z " />
<glyph glyph-name="c" unicode="c" horiz-adv-x="544" d="M270 117 C211 117 163 156 168 223 C170 246 177 296 183 320 C198 381 235 419 294 419 C338 419 372 400 391 359 C401 337 421 327 443 327 C486 327 509 357 509 394 C509 403 507 416 501 432 C479 487 408 546 300 546 C182 546 88 480 58 347 C49 309 41 255 39 227 C27 72 140 -10 267 -10 C393 -10 456 63 476 116 C480 128 482 138 482 148 C482 183 453 208 421 208 C392 208 377 192 367 174 C345 135 317 117 270 117 Z " />
<glyph glyph-name="d" unicode="d" horiz-adv-x="595" d="M58 347 C47 297 41 257 39 227 C27 72 135 -10 266 -10 C341 -10 406 17 447 43 C466 55 475 62 480 90 L571 634 C579 682 552 717 507 717 C474 717 448 696 441 654 L418 516 C390 530 344 546 286 546 C181 546 87 485 58 347 Z M168 223 C170 248 178 298 183 320 C198 382 233 419 296 419 C340 419 380 401 396 389 L356 147 C334 130 306 117 265 117 C203 117 162 150 168 223 Z " />
<glyph glyph-name="e" unicode="e" horiz-adv-x="549" d="M169 220 L424 220 C469 220 492 247 502 290 L506 308 C540 463 431 546 305 546 C200 546 94 492 58 338 C50 305 41 252 38 213 C29 75 122 -10 265 -10 C318 -10 372 3 418 28 C438 39 461 60 461 91 C461 122 438 150 405 150 C393 150 382 147 370 142 C338 130 309 112 265 112 C206 112 157 140 167 207 Z M186 317 C200 389 234 433 303 433 C362 433 403 401 388 330 C386 320 382 317 373 317 Z " />
<glyph glyph-name="f" unicode="f" horiz-adv-x="430" d="M142 506 L109 506 C74 506 46 481 46 449 C46 415 67 389 108 389 L122 389 L71 78 C63 30 89 -4 135 -4 C166 -4 194 16 201 58 L256 389 L366 389 C402 389 430 413 430 447 C430 479 407 506 368 506 L272 506 L276 534 C283 576 302 605 349 605 C387 605 404 591 432 591 C470 591 489 624 489 652 C489 675 476 691 455 704 C441 711 399 727 353 727 C229 727 168 660 148 541 Z " />
<glyph glyph-name="g" unicode="g" horiz-adv-x="580" d="M542 428 C547 456 532 472 519 482 C490 504 415 546 311 546 C181 546 94 480 66 347 C55 295 49 257 47 227 C37 87 118 9 243 9 C278 9 310 16 347 33 C339 -36 302 -81 232 -81 C182 -81 145 -62 117 -45 C104 -37 91 -32 76 -32 C39 -32 17 -61 17 -92 C17 -121 30 -137 52 -153 C83 -175 152 -203 221 -203 C349 -203 449 -140 476 25 Z M307 417 C353 417 389 401 404 390 L365 153 C340 133 314 121 270 121 C206 121 171 156 176 223 C178 248 186 296 191 320 C205 382 240 417 307 417 Z " />
<glyph glyph-name="h" unicode="h" horiz-adv-x="600" d="M269 634 C277 682 251 717 205 717 C173 717 146 696 139 654 L43 78 C35 30 62 -4 108 -4 C138 -4 167 16 174 58 L226 369 C249 393 291 414 329 414 C391 414 423 385 411 315 L371 78 C363 29 390 -4 434 -4 C467 -4 494 16 501 59 L545 322 C571 477 478 546 372 546 C323 546 278 530 247 507 Z " />
<glyph glyph-name="i" unicode="i" horiz-adv-x="302" d="M281 675 C281 713 253 743 214 743 C170 743 138 707 138 667 C138 628 166 598 207 598 C250 598 281 636 281 675 Z M43 78 C35 30 62 -4 108 -4 C138 -4 167 16 174 58 L240 456 C248 504 221 539 176 539 C143 539 117 518 110 476 Z " />
<glyph glyph-name="j" unicode="j" horiz-adv-x="301" d="M51 98 C40 33 19 -19 -61 -72 C-81 -86 -92 -107 -92 -126 C-92 -164 -62 -187 -30 -187 C-14 -187 3 -183 21 -171 C116 -108 161 -39 188 122 L244 456 C252 504 225 539 180 539 C147 539 121 518 114 476 Z M284 675 C284 713 257 743 218 743 C174 743 141 707 141 667 C141 628 169 598 210 598 C253 598 284 636 284 675 Z " />
<glyph glyph-name="k" unicode="k" horiz-adv-x="562" d="M205 717 C173 717 146 696 139 654 L43 78 C35 30 62 -4 108 -4 C138 -4 167 16 174 58 L200 213 L216 213 C236 213 248 210 260 194 L380 28 C398 2 421 -5 441 -5 C479 -5 501 25 501 56 C501 73 495 88 483 103 L360 268 L526 429 C543 445 550 464 550 483 C550 518 520 541 488 541 C465 541 450 533 434 516 L281 358 C259 336 255 334 233 334 L219 334 L269 634 C277 682 251 717 205 717 Z " />
<glyph glyph-name="l" unicode="l" horiz-adv-x="292" d="M43 78 C35 30 62 -4 108 -4 C138 -4 167 16 174 58 L269 634 C278 682 251 717 205 717 C173 717 146 696 139 654 Z " />
<glyph glyph-name="m" unicode="m" horiz-adv-x="844" d="M790 323 C814 466 729 546 615 546 C546 546 490 521 445 486 C412 526 365 546 303 546 C225 546 161 514 128 492 C108 479 98 467 94 443 L33 78 C25 30 52 -4 98 -4 C128 -4 157 16 164 58 L219 389 C241 403 269 415 302 415 C354 415 377 380 367 324 L324 78 C315 29 344 -4 388 -4 C420 -4 448 16 455 59 L497 318 C500 336 502 359 502 381 C525 397 555 415 591 415 C644 415 665 377 656 322 L615 78 C607 29 634 -4 679 -4 C712 -4 739 17 746 59 Z " />
<glyph glyph-name="n" unicode="n" horiz-adv-x="589" d="M535 321 C561 473 456 546 325 546 C231 546 162 514 127 492 C107 479 98 467 94 442 L33 78 C25 30 52 -4 98 -4 C128 -4 157 16 164 58 L218 388 C240 400 282 415 314 415 C366 415 413 390 401 316 L361 78 C353 29 380 -4 424 -4 C457 -4 484 16 491 59 Z " />
<glyph glyph-name="o" unicode="o" horiz-adv-x="568" d="M302 546 C182 546 89 480 58 349 C47 305 40 253 38 225 C27 78 143 -10 274 -10 C387 -10 476 56 506 187 C516 231 524 283 526 311 C536 464 422 546 302 546 Z M396 309 C394 288 387 242 381 218 C364 155 330 117 270 117 C213 117 163 156 168 224 C169 244 177 295 183 318 C198 381 235 419 300 419 C353 419 402 380 396 309 Z " />
<glyph glyph-name="p" unicode="p" horiz-adv-x="584" d="M522 189 C532 238 540 286 542 309 C556 464 446 546 315 546 C243 546 180 522 134 493 C115 481 106 475 101 447 L5 -119 C-3 -168 24 -202 70 -202 C102 -202 129 -181 136 -140 L162 20 C192 6 243 -10 296 -10 C400 -10 495 51 522 189 Z M412 313 C410 288 401 234 397 216 C384 155 346 117 281 117 C242 117 204 129 183 142 L225 394 C251 410 278 419 313 419 C379 419 418 386 412 313 Z " />
<glyph glyph-name="q" unicode="q" horiz-adv-x="574" d="M36 221 C25 61 132 -10 251 -10 C276 -10 314 -2 330 6 L310 -120 C302 -168 329 -203 374 -203 C406 -203 433 -182 440 -140 L535 432 C539 453 536 466 519 480 C494 500 408 546 296 546 C180 546 86 480 56 347 C45 298 38 251 36 221 Z M180 317 C194 370 228 418 300 418 C331 418 373 409 396 395 L352 140 C329 127 295 117 259 117 C194 117 161 150 165 220 C166 241 173 290 180 317 Z " />
<glyph glyph-name="r" unicode="r" horiz-adv-x="397" d="M377 529 C353 538 322 546 275 546 C166 546 105 504 83 375 L33 78 C25 30 52 -5 98 -5 C128 -5 156 16 164 58 L211 346 C219 398 244 415 279 415 C298 415 313 412 327 409 C336 407 346 404 360 404 C401 404 425 434 425 467 C425 494 409 516 377 529 Z " />
<glyph glyph-name="s" unicode="s" horiz-adv-x="511" d="M265 332 C229 345 207 357 207 383 C207 417 248 429 277 429 C317 429 346 414 374 400 C389 392 403 386 421 386 C456 386 478 412 478 443 C478 461 469 480 448 497 C417 521 356 546 285 546 C178 546 78 487 78 378 C78 303 133 262 200 234 C258 208 317 198 317 158 C317 131 290 106 239 106 C186 106 144 132 117 150 C104 158 92 163 77 163 C44 163 18 138 18 106 C18 86 28 69 44 55 C82 20 165 -10 243 -10 C365 -10 447 61 447 160 C447 269 346 304 265 332 Z " />
<glyph glyph-name="t" unicode="t" horiz-adv-x="435" d="M326 11 C354 25 372 48 372 76 C372 108 347 132 319 132 C309 132 299 129 286 124 C271 119 254 114 235 114 C189 114 173 142 182 195 L217 399 L354 399 C390 399 418 424 418 458 C418 490 396 516 356 516 L238 516 L249 584 C256 623 230 655 187 655 C159 655 126 641 116 585 L51 206 C28 70 100 -10 231 -10 C243 -10 288 -8 326 11 Z " />
<glyph glyph-name="u" unicode="u" horiz-adv-x="582" d="M49 239 C23 80 131 -10 259 -10 C348 -10 420 24 454 46 C473 59 482 72 486 95 L546 456 C554 504 527 539 481 539 C450 539 423 518 416 476 L362 150 C338 135 306 121 266 121 C213 121 167 149 181 232 L219 458 C227 505 199 539 155 539 C123 539 95 518 88 476 Z " />
<glyph glyph-name="v" unicode="v" horiz-adv-x="532" d="M244 133 C241 124 230 125 229 134 C228 166 222 228 214 276 L178 478 C171 517 144 539 110 539 C67 539 32 504 43 447 L114 96 C127 32 166 -8 227 -8 C280 -8 311 25 345 89 L532 434 C562 489 532 539 478 539 C448 539 427 523 410 490 L300 276 C266 210 255 165 244 133 Z " />
<glyph glyph-name="w" unicode="w" horiz-adv-x="806" d="M442 96 C446 35 487 -8 544 -8 C598 -8 635 22 661 86 L805 440 C829 500 795 539 750 539 C717 539 698 522 685 487 L584 218 C574 190 567 162 557 130 C555 126 553 125 550 125 C548 125 546 126 545 131 C545 170 545 208 543 244 L529 448 C525 505 494 539 442 539 C393 539 363 513 341 460 L251 237 C237 202 226 166 214 130 C213 127 211 125 208 125 C205 125 202 126 202 131 C204 173 206 211 204 248 L188 474 C185 518 156 539 123 539 C79 539 51 509 56 454 L87 96 C93 30 138 -8 189 -8 C247 -8 277 22 303 88 L413 364 C415 368 417 370 420 370 C422 370 425 368 425 364 Z " />
<glyph glyph-name="x" unicode="x" horiz-adv-x="546" d="M360 25 C372 6 392 -8 417 -8 C453 -8 479 21 479 54 C479 69 474 85 463 102 L360 260 L516 420 C533 438 544 458 544 478 C544 510 517 539 478 539 C459 539 444 532 428 515 L285 369 L194 510 C183 527 161 539 141 539 C99 539 75 509 75 475 C75 461 82 443 90 430 L188 282 L15 108 C-1 92 -9 72 -9 54 C-9 16 23 -8 55 -8 C73 -8 93 3 106 16 L263 174 Z " />
<glyph glyph-name="y" unicode="y" horiz-adv-x="524" d="M186 478 C176 517 153 539 119 539 C69 539 41 500 54 447 L158 34 C121 -30 88 -61 45 -84 C17 -99 2 -114 2 -145 C2 -178 30 -202 63 -202 C91 -202 119 -191 143 -174 C199 -134 249 -63 288 5 L532 437 C558 482 536 539 476 539 C449 539 430 523 415 494 L321 320 C287 257 267 208 255 178 C253 175 251 172 247 172 C243 172 241 176 241 179 C239 219 237 271 224 322 Z " />
<glyph glyph-name="z" unicode="z" horiz-adv-x="497" d="M459 399 C476 416 485 438 485 460 C485 496 460 528 405 528 L131 528 C94 528 65 503 65 467 C65 436 87 408 130 408 L300 408 L33 129 C15 111 5 90 5 69 C5 33 31 0 80 0 L370 0 C407 0 436 26 436 62 C436 93 414 120 372 120 L192 120 Z " />
<glyph glyph-name="agrave" unicode="&#xe0;" horiz-adv-x="540" d="M487 331 C512 472 424 546 300 546 C254 546 191 536 151 518 C123 505 106 486 106 459 C106 424 135 394 187 406 C205 410 242 425 286 425 C347 425 375 397 365 347 L357 306 C323 320 279 330 232 330 C116 330 24 268 24 162 C24 70 93 -10 240 -10 C334 -10 392 22 412 35 C438 52 441 68 444 85 Z M240 99 C188 99 151 121 151 162 C151 215 205 234 250 234 C277 234 310 227 341 214 L325 119 C299 106 270 99 240 99 Z M360 590 C391 590 412 615 412 641 C412 657 404 675 383 686 L247 762 C238 767 228 770 218 770 C190 770 165 748 165 716 C165 699 173 681 194 670 L325 599 C337 592 350 590 360 590 Z " />
<glyph glyph-name="aacute" unicode="&#xe1;" horiz-adv-x="545" d="M487 331 C512 472 424 546 300 546 C254 546 191 536 151 518 C123 505 106 486 106 459 C106 424 135 394 187 406 C205 410 242 425 286 425 C347 425 375 397 365 347 L357 306 C323 320 279 330 232 330 C116 330 24 268 24 162 C24 70 93 -10 240 -10 C334 -10 392 22 412 35 C438 52 441 68 444 85 Z M240 99 C188 99 151 121 151 162 C151 215 205 234 250 234 C277 234 310 227 341 214 L325 119 C299 106 270 99 240 99 Z M269 693 C244 681 236 662 236 645 C236 611 264 593 287 593 C296 593 306 595 313 599 L450 663 C481 678 493 698 493 717 C493 743 474 767 440 767 C430 767 418 764 406 759 Z " />
<glyph glyph-name="acircumflex" unicode="&#xe2;" horiz-adv-x="546" d="M487 331 C512 472 424 546 300 546 C254 546 191 536 151 518 C123 505 106 486 106 459 C106 424 135 394 187 406 C205 410 242 425 286 425 C347 425 375 397 365 347 L357 306 C323 320 279 330 232 330 C116 330 24 268 24 162 C24 70 93 -10 240 -10 C334 -10 392 22 412 35 C438 52 441 68 444 85 Z M240 99 C188 99 151 121 151 162 C151 215 205 234 250 234 C277 234 310 227 341 214 L325 119 C299 106 270 99 240 99 Z M329 653 L398 590 C411 577 425 572 439 572 C466 572 488 594 488 621 C488 638 482 651 467 666 L378 749 C366 761 351 766 336 766 C321 766 307 761 295 752 L180 669 C162 656 152 642 152 620 C152 595 172 573 198 573 C210 573 222 577 234 585 Z " />
<glyph glyph-name="atilde" unicode="&#xe3;" horiz-adv-x="550" d="M487 331 C512 472 424 546 300 546 C254 546 191 536 151 518 C123 505 106 486 106 459 C106 424 135 394 187 406 C205 410 242 425 286 425 C347 425 375 397 365 347 L357 306 C323 320 279 330 232 330 C116 330 24 268 24 162 C24 70 93 -10 240 -10 C334 -10 392 22 412 35 C438 52 441 68 444 85 Z M240 99 C188 99 151 121 151 162 C151 215 205 234 250 234 C277 234 310 227 341 214 L325 119 C299 106 270 99 240 99 Z M390 592 C418 592 450 606 482 632 C501 647 515 664 515 685 C515 712 491 733 468 733 C435 733 422 694 394 694 C364 694 323 734 273 734 C243 734 207 718 177 692 C161 678 149 663 149 646 C149 621 174 599 199 599 C228 599 238 631 270 631 C304 631 340 592 390 592 Z " />
<glyph glyph-name="adieresis" unicode="&#xe4;" horiz-adv-x="543" d="M487 331 C512 472 424 546 300 546 C254 546 191 536 151 518 C123 505 106 486 106 459 C106 424 135 394 187 406 C205 410 242 425 286 425 C347 425 375 397 365 347 L357 306 C323 320 279 330 232 330 C116 330 24 268 24 162 C24 70 93 -10 240 -10 C334 -10 392 22 412 35 C438 52 441 68 444 85 Z M240 99 C188 99 151 121 151 162 C151 215 205 234 250 234 C277 234 310 227 341 214 L325 119 C299 106 270 99 240 99 Z M244 726 C203 726 172 692 172 654 C172 618 197 595 233 595 C271 595 304 627 304 666 C304 704 277 726 244 726 Z M426 726 C386 726 355 692 355 654 C355 618 380 595 416 595 C454 595 486 627 486 666 C486 704 460 726 426 726 Z " />
<glyph glyph-name="amacron" unicode="&#x101;" horiz-adv-x="540" d="M487 331 C512 472 424 546 300 546 C254 546 191 536 151 518 C123 505 106 486 106 459 C106 424 135 394 187 406 C205 410 242 425 286 425 C347 425 375 397 365 347 L357 306 C323 320 279 330 232 330 C116 330 24 268 24 162 C24 70 93 -10 240 -10 C334 -10 392 22 412 35 C438 52 441 68 444 85 Z M240 99 C188 99 151 121 151 162 C151 215 205 234 250 234 C277 234 310 227 341 214 L325 119 C299 106 270 99 240 99 Z M405 601 C445 601 467 631 467 660 C467 686 450 711 414 711 L264 711 C221 711 198 681 198 652 C198 626 218 601 255 601 Z " />
<glyph glyph-name="abreve" unicode="&#x103;" horiz-adv-x="543" d="M487 331 C512 472 424 546 300 546 C254 546 191 536 151 518 C123 505 106 486 106 459 C106 424 135 394 187 406 C205 410 242 425 286 425 C347 425 375 397 365 347 L357 306 C323 320 279 330 232 330 C116 330 24 268 24 162 C24 70 93 -10 240 -10 C334 -10 392 22 412 35 C438 52 441 68 444 85 Z M240 99 C188 99 151 121 151 162 C151 215 205 234 250 234 C277 234 310 227 341 214 L325 119 C299 106 270 99 240 99 Z M333 586 C413 586 461 635 481 681 C485 691 489 704 489 715 C489 739 471 760 441 760 C410 760 398 737 392 724 C379 697 366 679 334 679 C301 679 293 698 287 717 C282 736 273 760 241 760 C218 760 190 746 190 710 C190 697 193 683 197 673 C218 617 270 586 333 586 Z " />
<glyph glyph-name="aring" unicode="&#xe5;" horiz-adv-x="540" d="M487 331 C512 472 424 546 300 546 C254 546 191 536 151 518 C123 505 106 486 106 459 C106 424 135 394 187 406 C205 410 242 425 286 425 C347 425 375 397 365 347 L357 306 C323 320 279 330 232 330 C116 330 24 268 24 162 C24 70 93 -10 240 -10 C334 -10 392 22 412 35 C438 52 441 68 444 85 Z M240 99 C188 99 151 121 151 162 C151 215 205 234 250 234 C277 234 310 227 341 214 L325 119 C299 106 270 99 240 99 Z M332 571 C403 571 449 628 449 689 C449 748 406 791 345 791 C273 791 226 732 226 672 C226 614 270 571 332 571 Z M334 639 C313 639 297 654 297 676 C297 700 315 721 340 721 C361 721 377 706 377 684 C377 660 360 639 334 639 Z " />
<glyph glyph-name="aogonek" unicode="&#x105;" horiz-adv-x="540" d="M308 -215 C337 -215 365 -206 386 -190 C402 -178 412 -162 412 -146 C412 -124 397 -108 378 -108 C369 -108 362 -111 355 -114 C345 -119 336 -127 323 -127 C306 -127 287 -115 287 -89 C287 -36 331 -4 383 20 C422 38 438 49 444 85 L487 331 C510 467 432 546 298 546 C253 546 191 536 151 518 C124 506 106 486 106 460 C106 424 135 394 187 406 C211 412 246 425 284 425 C348 425 375 397 365 347 L357 306 C323 320 279 330 232 330 C116 330 24 268 24 161 C24 42 133 -9 220 -9 C225 -9 229 -9 232 -9 C203 -39 191 -77 191 -104 C191 -175 248 -215 308 -215 Z M240 99 C188 99 151 121 151 162 C151 215 205 234 250 234 C279 234 310 227 341 214 L325 119 C299 106 271 99 240 99 Z " />
<glyph glyph-name="ae" unicode="&#xe6;" horiz-adv-x="862" d="M361 305 C326 319 279 330 232 330 C116 330 24 268 24 161 C24 70 91 -10 238 -10 C311 -10 369 18 412 49 C451 11 510 -10 578 -10 C632 -10 688 4 731 28 C756 42 774 63 774 91 C774 118 754 150 718 150 C708 150 695 147 683 142 C651 130 622 112 578 112 C525 112 469 136 480 207 L482 220 L738 220 C780 220 804 244 815 290 L820 310 C855 465 744 546 614 546 C545 546 496 522 451 483 C419 524 367 546 297 546 C250 546 185 534 151 518 C122 505 106 485 106 460 C106 423 136 394 187 406 C211 412 246 425 284 425 C348 425 379 396 369 346 Z M240 97 C179 97 151 128 151 164 C151 215 203 234 254 234 C288 234 320 223 352 209 C350 180 353 159 359 138 C326 115 286 97 240 97 Z M493 317 C505 394 548 433 614 433 C673 433 715 403 701 330 C699 320 694 317 685 317 Z " />
<glyph glyph-name="cacute" unicode="&#x107;" horiz-adv-x="544" d="M270 117 C211 117 163 156 168 223 C170 246 177 296 183 320 C198 381 235 419 294 419 C338 419 372 400 391 359 C401 337 421 327 443 327 C486 327 509 357 509 394 C509 403 507 416 501 432 C479 487 408 546 300 546 C182 546 88 480 58 347 C49 309 41 255 39 227 C27 72 140 -10 267 -10 C393 -10 456 63 476 116 C480 128 482 138 482 148 C482 183 453 208 421 208 C392 208 377 192 367 174 C345 135 317 117 270 117 Z M270 692 C245 680 237 661 237 644 C237 610 265 592 288 592 C297 592 307 594 314 598 L451 662 C482 677 494 697 494 716 C494 742 475 766 441 766 C431 766 419 763 407 758 Z " />
<glyph glyph-name="ccaron" unicode="&#x10d;" horiz-adv-x="548" d="M270 117 C211 117 163 156 168 223 C170 246 177 296 183 320 C198 381 235 419 294 419 C338 419 372 400 391 359 C401 337 421 327 443 327 C486 327 509 357 509 394 C509 403 507 416 501 432 C479 487 408 546 300 546 C182 546 88 480 58 347 C49 309 41 255 39 227 C27 72 140 -10 267 -10 C393 -10 456 63 476 116 C480 128 482 138 482 148 C482 183 453 208 421 208 C392 208 377 192 367 174 C345 135 317 117 270 117 Z M321 593 C335 593 348 599 361 608 L471 681 C488 693 502 711 502 730 C502 756 482 779 452 779 C442 779 429 777 417 768 L330 706 L262 766 C252 774 242 779 228 779 C196 779 175 754 175 726 C175 713 180 699 192 688 L285 608 C296 599 308 593 321 593 Z " />
<glyph glyph-name="cdotaccent" unicode="&#x10b;" horiz-adv-x="544" d="M270 117 C211 117 163 156 168 223 C170 246 177 296 183 320 C198 381 235 419 294 419 C338 419 372 400 391 359 C401 337 421 327 443 327 C486 327 509 357 509 394 C509 403 507 416 501 432 C479 487 408 546 300 546 C182 546 88 480 58 347 C49 309 41 255 39 227 C27 72 140 -10 267 -10 C393 -10 456 63 476 116 C480 128 482 138 482 148 C482 183 453 208 421 208 C392 208 377 192 367 174 C345 135 317 117 270 117 Z M339 726 C299 726 268 692 268 654 C268 618 293 595 328 595 C367 595 399 627 399 666 C399 704 373 726 339 726 Z " />
<glyph glyph-name="ccedilla" unicode="&#xe7;" horiz-adv-x="544" d="M443 327 C486 327 509 356 509 393 C509 402 507 415 501 431 C480 486 408 546 300 546 C182 546 88 480 58 347 C49 309 41 255 39 227 C29 97 106 19 208 -4 L180 -57 C166 -83 185 -111 212 -111 C225 -111 233 -106 245 -106 C261 -106 271 -113 271 -127 C271 -165 211 -180 186 -189 C163 -197 147 -211 147 -233 C147 -258 166 -273 187 -273 C195 -273 205 -271 212 -269 C285 -248 358 -204 358 -128 C358 -77 321 -42 268 -39 L287 -9 C400 -2 457 66 476 116 C480 128 482 138 482 148 C482 183 453 208 421 208 C392 208 377 192 367 174 C345 135 317 117 270 117 C211 117 163 156 168 223 C170 246 176 291 183 320 C198 381 235 419 294 419 C341 419 374 400 391 358 C402 337 421 327 443 327 Z " />
<glyph glyph-name="dcaron" unicode="&#x10f;" horiz-adv-x="673" d="M58 347 C47 297 41 257 39 227 C27 72 135 -10 266 -10 C341 -10 406 17 447 43 C466 55 475 62 480 90 L571 634 C579 682 552 717 507 717 C474 717 448 696 441 654 L418 516 C390 530 344 546 286 546 C181 546 87 485 58 347 Z M168 223 C170 248 178 298 183 320 C198 382 233 419 296 419 C340 419 380 401 396 389 L356 147 C334 130 306 117 265 117 C203 117 162 150 168 223 Z M652 546 C675 546 695 561 711 581 C734 608 743 638 751 678 L762 730 C769 761 748 789 714 789 C688 789 666 770 660 740 L649 679 C645 657 638 645 625 630 C615 617 606 607 606 589 C606 565 624 546 652 546 Z " />
<glyph glyph-name="dcroat" unicode="&#x111;" horiz-adv-x="595" d="M310 622 C310 595 331 576 360 576 L427 576 L418 516 C390 530 343 546 288 546 C184 546 89 490 58 347 C47 297 41 257 39 227 C27 72 135 -10 266 -10 C338 -10 402 15 447 43 C467 55 476 65 480 90 L561 576 L577 576 C614 576 638 604 638 634 C638 660 619 681 587 681 L572 681 L575 699 C575 729 545 748 514 748 C487 748 457 733 450 702 L446 681 L372 681 C335 681 310 652 310 622 Z M356 147 C334 130 306 117 265 117 C203 117 162 150 168 223 C170 248 178 298 183 320 C198 382 233 419 296 419 C340 419 380 401 396 389 Z " />
<glyph glyph-name="egrave" unicode="&#xe8;" horiz-adv-x="549" d="M169 220 L424 220 C469 220 492 247 502 290 L506 308 C540 463 431 546 305 546 C200 546 94 492 58 338 C50 305 41 252 38 213 C29 75 122 -10 265 -10 C318 -10 372 3 418 28 C438 39 461 60 461 91 C461 122 438 150 405 150 C393 150 382 147 370 142 C338 130 309 112 265 112 C206 112 157 140 167 207 Z M186 317 C200 389 234 433 303 433 C362 433 403 401 388 330 C386 320 382 317 373 317 Z M367 591 C398 591 419 616 419 642 C419 658 411 676 390 687 L254 763 C245 768 235 771 225 771 C197 771 172 749 172 717 C172 700 180 682 201 671 L332 600 C344 593 357 591 367 591 Z " />
<glyph glyph-name="eacute" unicode="&#xe9;" horiz-adv-x="549" d="M169 220 L424 220 C469 220 492 247 502 290 L506 308 C540 463 431 546 305 546 C200 546 94 492 58 338 C50 305 41 252 38 213 C29 75 122 -10 265 -10 C318 -10 372 3 418 28 C438 39 461 60 461 91 C461 122 438 150 405 150 C393 150 382 147 370 142 C338 130 309 112 265 112 C206 112 157 140 167 207 Z M186 317 C200 389 234 433 303 433 C362 433 403 401 388 330 C386 320 382 317 373 317 Z M282 692 C257 680 249 661 249 644 C249 610 277 592 300 592 C309 592 319 594 326 598 L463 662 C494 677 506 697 506 716 C506 742 487 766 453 766 C443 766 431 763 419 758 Z " />
<glyph glyph-name="ecircumflex" unicode="&#xea;" horiz-adv-x="552" d="M169 220 L424 220 C469 220 492 247 502 290 L506 308 C540 463 431 546 305 546 C200 546 94 492 58 338 C50 305 41 252 38 213 C29 75 122 -10 265 -10 C318 -10 372 3 418 28 C438 39 461 60 461 91 C461 122 438 150 405 150 C393 150 382 147 370 142 C338 130 309 112 265 112 C206 112 157 140 167 207 Z M186 317 C200 389 234 433 303 433 C362 433 403 401 388 330 C386 320 382 317 373 317 Z M347 666 L416 603 C429 590 443 585 457 585 C484 585 506 607 506 634 C506 651 500 664 485 679 L396 762 C384 774 369 779 354 779 C339 779 325 774 313 765 L198 682 C180 669 170 655 170 633 C170 608 190 586 216 586 C228 586 240 590 252 598 Z " />
<glyph glyph-name="ecaron" unicode="&#x11b;" horiz-adv-x="557" d="M169 220 L424 220 C469 220 492 247 502 290 L506 308 C540 463 431 546 305 546 C200 546 94 492 58 338 C50 305 41 252 38 213 C29 75 122 -10 265 -10 C318 -10 372 3 418 28 C438 39 461 60 461 91 C461 122 438 150 405 150 C393 150 382 147 370 142 C338 130 309 112 265 112 C206 112 157 140 167 207 Z M186 317 C200 389 234 433 303 433 C362 433 403 401 388 330 C386 320 382 317 373 317 Z M335 592 C349 592 362 598 375 607 L485 680 C502 692 516 710 516 729 C516 755 496 778 466 778 C456 778 443 776 431 767 L344 705 L276 765 C266 773 256 778 242 778 C210 778 189 753 189 725 C189 712 194 698 206 687 L299 607 C310 598 322 592 335 592 Z " />
<glyph glyph-name="edieresis" unicode="&#xeb;" horiz-adv-x="549" d="M169 220 L424 220 C469 220 492 247 502 290 L506 308 C540 463 431 546 305 546 C200 546 94 492 58 338 C50 305 41 252 38 213 C29 75 122 -10 265 -10 C318 -10 372 3 418 28 C438 39 461 60 461 91 C461 122 438 150 405 150 C393 150 382 147 370 142 C338 130 309 112 265 112 C206 112 157 140 167 207 Z M186 317 C200 389 234 433 303 433 C362 433 403 401 388 330 C386 320 382 317 373 317 Z M258 726 C217 726 186 692 186 654 C186 618 211 595 247 595 C285 595 318 627 318 666 C318 704 291 726 258 726 Z M440 726 C400 726 369 692 369 654 C369 618 394 595 430 595 C468 595 500 627 500 666 C500 704 474 726 440 726 Z " />
<glyph glyph-name="emacron" unicode="&#x113;" horiz-adv-x="549" d="M169 220 L424 220 C469 220 492 247 502 290 L506 308 C540 463 431 546 305 546 C200 546 94 492 58 338 C50 305 41 252 38 213 C29 75 122 -10 265 -10 C318 -10 372 3 418 28 C438 39 461 60 461 91 C461 122 438 150 405 150 C393 150 382 147 370 142 C338 130 309 112 265 112 C206 112 157 140 167 207 Z M186 317 C200 389 234 433 303 433 C362 433 403 401 388 330 C386 320 382 317 373 317 Z M418 602 C458 602 480 632 480 661 C480 687 463 712 427 712 L277 712 C234 712 211 682 211 653 C211 627 231 602 268 602 Z " />
<glyph glyph-name="edotaccent" unicode="&#x117;" horiz-adv-x="549" d="M169 220 L424 220 C469 220 492 247 502 290 L506 308 C540 463 431 546 305 546 C200 546 94 492 58 338 C50 305 41 252 38 213 C29 75 122 -10 265 -10 C318 -10 372 3 418 28 C438 39 461 60 461 91 C461 122 438 150 405 150 C393 150 382 147 370 142 C338 130 309 112 265 112 C206 112 157 140 167 207 Z M186 317 C200 389 234 433 303 433 C362 433 403 401 388 330 C386 320 382 317 373 317 Z M348 725 C308 725 277 691 277 653 C277 617 302 594 337 594 C376 594 408 626 408 665 C408 703 382 725 348 725 Z " />
<glyph glyph-name="eogonek" unicode="&#x119;" horiz-adv-x="549" d="M289 -217 C317 -217 347 -208 369 -191 C386 -179 396 -164 396 -147 C396 -126 380 -111 363 -111 C354 -111 347 -115 339 -119 C329 -124 318 -128 307 -128 C289 -128 270 -118 270 -90 C270 -37 353 -1 390 15 C440 37 461 59 461 92 C461 122 438 150 405 150 C394 150 382 147 370 142 C338 130 309 112 265 112 C202 112 157 143 167 207 L169 220 L424 220 C469 220 492 247 502 290 L507 310 C542 465 430 546 307 546 C198 546 88 484 58 338 C51 305 41 252 38 213 C30 90 103 10 217 -6 C191 -34 175 -67 175 -106 C175 -179 230 -217 289 -217 Z M184 310 C197 392 234 433 303 433 C363 433 406 399 386 323 C384 313 380 310 371 310 Z " />
<glyph glyph-name="gbreve" unicode="&#x11f;" horiz-adv-x="580" d="M539 428 C544 456 529 472 516 482 C487 504 412 546 308 546 C178 546 91 480 63 347 C52 295 46 257 44 227 C34 87 115 9 240 9 C275 9 307 16 344 33 C336 -36 299 -81 229 -81 C179 -81 142 -62 114 -45 C101 -37 88 -32 73 -32 C36 -32 14 -61 14 -92 C14 -121 27 -137 49 -153 C80 -175 149 -203 218 -203 C346 -203 446 -140 473 25 Z M304 417 C350 417 386 401 401 390 L362 153 C337 133 311 121 267 121 C203 121 168 156 173 223 C175 248 183 296 188 320 C202 382 237 417 304 417 Z M370 586 C450 586 498 635 518 681 C522 691 526 704 526 715 C526 739 508 760 478 760 C447 760 435 737 429 724 C416 697 403 679 371 679 C338 679 330 698 324 717 C319 736 310 760 278 760 C255 760 227 746 227 710 C227 697 230 683 234 673 C255 617 307 586 370 586 Z " />
<glyph glyph-name="gdotaccent" unicode="&#x121;" horiz-adv-x="580" d="M539 428 C544 456 529 472 516 482 C487 504 412 546 308 546 C178 546 91 480 63 347 C52 295 46 257 44 227 C34 87 115 9 240 9 C275 9 307 16 344 33 C336 -36 299 -81 229 -81 C179 -81 142 -62 114 -45 C101 -37 88 -32 73 -32 C36 -32 14 -61 14 -92 C14 -121 27 -137 49 -153 C80 -175 149 -203 218 -203 C346 -203 446 -140 473 25 Z M304 417 C350 417 386 401 401 390 L362 153 C337 133 311 121 267 121 C203 121 168 156 173 223 C175 248 183 296 188 320 C202 382 237 417 304 417 Z M373 726 C333 726 302 692 302 654 C302 618 327 595 362 595 C401 595 433 627 433 666 C433 704 407 726 373 726 Z " />
<glyph glyph-name="gcommaaccent" unicode="&#x123;" horiz-adv-x="580" d="M539 428 C544 456 529 472 516 482 C487 504 412 546 308 546 C178 546 91 480 63 347 C52 295 46 257 44 227 C34 87 115 9 240 9 C275 9 307 16 344 33 C336 -36 299 -81 229 -81 C179 -81 142 -62 114 -45 C101 -37 88 -32 73 -32 C36 -32 14 -61 14 -92 C14 -121 27 -137 49 -153 C80 -175 149 -203 218 -203 C346 -203 446 -140 473 25 Z M304 417 C350 417 386 401 401 390 L362 153 C337 133 311 121 267 121 C203 121 168 156 173 223 C175 248 183 296 188 320 C202 382 237 417 304 417 Z M348 587 C372 587 391 602 406 620 C431 649 439 679 448 721 L458 769 C464 800 444 829 410 829 C384 829 361 810 355 779 L345 722 C341 697 331 681 317 664 C309 654 302 644 302 630 C302 605 320 587 348 587 Z " />
<glyph glyph-name="igrave" unicode="&#xec;" horiz-adv-x="302" d="M209 590 C240 590 261 615 261 641 C261 657 253 675 232 686 L96 762 C87 767 77 770 67 770 C39 770 14 748 14 716 C14 699 22 681 43 670 L174 599 C186 592 199 590 209 590 Z M42 78 C34 30 61 -5 106 -5 C137 -5 165 16 172 58 L239 456 C247 504 220 539 174 539 C142 539 115 518 108 476 Z " />
<glyph glyph-name="iacute" unicode="&#xed;" horiz-adv-x="302" d="M165 692 C140 680 132 661 132 644 C132 610 160 592 183 592 C192 592 202 594 209 598 L346 662 C377 677 389 697 389 716 C389 742 370 766 336 766 C326 766 314 763 302 758 Z M42 78 C34 30 61 -5 106 -5 C137 -5 165 16 172 58 L239 456 C247 504 220 539 174 539 C142 539 115 518 108 476 Z " />
<glyph glyph-name="icircumflex" unicode="&#xee;" horiz-adv-x="302" d="M42 78 C34 30 61 -5 106 -5 C137 -5 165 16 172 58 L239 456 C247 504 220 539 174 539 C142 539 115 518 108 476 Z M208 666 L277 603 C290 590 304 585 318 585 C345 585 367 607 367 634 C367 651 361 664 346 679 L257 762 C245 774 230 779 215 779 C200 779 186 774 174 765 L59 682 C41 669 31 655 31 633 C31 608 51 586 77 586 C89 586 101 590 113 598 Z " />
<glyph glyph-name="idieresis" unicode="&#xef;" horiz-adv-x="302" d="M122 726 C81 726 50 692 50 654 C50 618 75 595 111 595 C149 595 182 627 182 666 C182 704 155 726 122 726 Z M304 726 C264 726 233 692 233 654 C233 618 258 595 294 595 C332 595 364 627 364 666 C364 704 338 726 304 726 Z M42 78 C34 30 61 -5 106 -5 C137 -5 165 16 172 58 L239 456 C247 504 220 539 174 539 C142 539 115 518 108 476 Z " />
<glyph glyph-name="imacron" unicode="&#x12b;" horiz-adv-x="302" d="M270 602 C310 602 332 632 332 661 C332 687 315 712 279 712 L129 712 C86 712 63 682 63 653 C63 627 83 602 120 602 Z M42 78 C34 30 61 -5 106 -5 C137 -5 165 16 172 58 L239 456 C247 504 220 539 174 539 C142 539 115 518 108 476 Z " />
<glyph glyph-name="iogonek" unicode="&#x12f;" horiz-adv-x="305" d="M78 -221 C106 -221 136 -212 158 -195 C175 -183 185 -168 185 -151 C185 -130 169 -115 151 -115 C143 -115 135 -119 129 -122 C118 -128 108 -132 96 -132 C77 -132 57 -123 57 -93 C57 -46 102 -17 134 -2 C157 10 173 26 178 58 L245 456 C253 504 226 539 180 539 C148 539 121 518 114 476 L49 83 C44 59 49 37 60 22 C9 -11 -29 -57 -29 -119 C-29 -183 18 -221 78 -221 Z M285 675 C285 713 258 743 219 743 C175 743 143 707 143 667 C143 628 171 598 211 598 C255 598 285 636 285 675 Z " />
<glyph glyph-name="dotlessi" unicode="&#x131;" horiz-adv-x="294" d="M42 78 C34 30 61 -5 106 -5 C137 -5 165 16 172 58 L239 456 C247 504 220 539 174 539 C142 539 115 518 108 476 Z " />
<glyph glyph-name="kcommaaccent" unicode="&#x137;" horiz-adv-x="562" d="M205 717 C173 717 146 696 139 654 L43 78 C35 30 62 -4 108 -4 C138 -4 167 16 174 58 L200 213 L216 213 C236 213 248 210 260 194 L380 28 C398 2 421 -5 441 -5 C479 -5 501 25 501 56 C501 73 495 88 483 103 L360 268 L526 429 C543 445 550 464 550 483 C550 518 520 541 488 541 C465 541 450 533 434 516 L281 358 C259 336 255 334 233 334 L219 334 L269 634 C277 682 251 717 205 717 Z M198 -270 C222 -270 241 -255 256 -237 C281 -208 289 -178 298 -136 L308 -88 C314 -57 294 -28 260 -28 C234 -28 211 -47 205 -78 L195 -135 C191 -160 181 -176 167 -193 C159 -203 152 -213 152 -227 C152 -252 170 -270 198 -270 Z " />
<glyph glyph-name="lacute" unicode="&#x13a;" horiz-adv-x="290" d="M40 78 C32 30 59 -4 105 -4 C135 -4 164 16 171 58 L266 634 C275 682 248 717 202 717 C170 717 143 696 136 654 Z M192 857 C167 845 159 826 159 809 C159 775 187 757 210 757 C219 757 229 759 236 763 L373 827 C404 842 416 862 416 881 C416 907 397 931 363 931 C353 931 341 928 329 923 Z " />
<glyph glyph-name="lcaron" unicode="&#x13e;" horiz-adv-x="395" d="M43 78 C35 30 62 -4 108 -4 C138 -4 167 16 174 58 L269 634 C278 682 251 717 205 717 C173 717 146 696 139 654 Z M357 546 C380 546 400 561 416 581 C439 608 448 638 456 678 L467 730 C474 761 453 789 419 789 C393 789 371 770 365 740 L354 679 C350 657 343 645 330 630 C320 617 311 607 311 589 C311 565 329 546 357 546 Z " />
<glyph glyph-name="lcommaaccent" unicode="&#x13c;" horiz-adv-x="290" d="M40 78 C32 30 59 -4 105 -4 C135 -4 164 16 171 58 L266 634 C275 682 248 717 202 717 C170 717 143 696 136 654 Z M30 -270 C54 -270 73 -255 88 -237 C113 -208 121 -178 130 -136 L140 -88 C146 -57 126 -28 92 -28 C66 -28 43 -47 37 -78 L27 -135 C23 -160 13 -176 -1 -193 C-9 -203 -16 -213 -16 -227 C-16 -252 2 -270 30 -270 Z " />
<glyph glyph-name="lslash" unicode="&#x142;" horiz-adv-x="348" d="M58 78 C50 30 77 -5 123 -5 C154 -5 182 16 189 58 L236 341 L328 390 C353 404 363 422 363 443 C363 471 343 492 312 492 C302 492 293 489 283 484 L257 470 L285 634 C293 682 266 717 220 717 C188 717 162 696 154 654 L110 393 L26 348 C5 337 -7 319 -7 299 C-7 270 14 247 45 247 C53 247 61 249 68 253 L89 265 Z " />
<glyph glyph-name="nacute" unicode="&#x144;" horiz-adv-x="589" d="M535 321 C561 473 456 546 325 546 C231 546 162 514 127 492 C107 479 98 467 94 442 L33 78 C25 30 52 -4 98 -4 C128 -4 157 16 164 58 L218 388 C240 400 282 415 314 415 C366 415 413 390 401 316 L361 78 C353 29 380 -4 424 -4 C457 -4 484 16 491 59 Z M292 692 C267 680 259 661 259 644 C259 610 287 592 310 592 C319 592 329 594 336 598 L473 662 C504 677 516 697 516 716 C516 742 497 766 463 766 C453 766 441 763 429 758 Z " />
<glyph glyph-name="ncaron" unicode="&#x148;" horiz-adv-x="589" d="M535 321 C561 473 456 546 325 546 C231 546 162 514 127 492 C107 479 98 467 94 442 L33 78 C25 30 52 -4 98 -4 C128 -4 157 16 164 58 L218 388 C240 400 282 415 314 415 C366 415 413 390 401 316 L361 78 C353 29 380 -4 424 -4 C457 -4 484 16 491 59 Z M339 593 C353 593 366 599 379 608 L489 681 C506 693 520 711 520 730 C520 756 500 779 470 779 C460 779 447 777 435 768 L348 706 L280 766 C270 774 260 779 246 779 C214 779 193 754 193 726 C193 713 198 699 210 688 L303 608 C314 599 326 593 339 593 Z " />
<glyph glyph-name="ntilde" unicode="&#xf1;" horiz-adv-x="591" d="M535 321 C561 473 456 546 325 546 C231 546 162 514 127 492 C107 479 98 467 94 442 L33 78 C25 30 52 -4 98 -4 C128 -4 157 16 164 58 L218 388 C240 400 282 415 314 415 C366 415 413 390 401 316 L361 78 C353 29 380 -4 424 -4 C457 -4 484 16 491 59 Z M403 592 C431 592 463 606 495 632 C514 647 528 664 528 685 C528 712 504 733 481 733 C448 733 435 694 407 694 C377 694 336 734 286 734 C256 734 220 718 190 692 C174 678 162 663 162 646 C162 621 187 599 212 599 C241 599 251 631 283 631 C317 631 353 592 403 592 Z " />
<glyph glyph-name="ncommaaccent" unicode="&#x146;" horiz-adv-x="589" d="M535 321 C561 473 456 546 325 546 C231 546 162 514 127 492 C107 479 98 467 94 442 L33 78 C25 30 52 -4 98 -4 C128 -4 157 16 164 58 L218 388 C240 400 282 415 314 415 C366 415 413 390 401 316 L361 78 C353 29 380 -4 424 -4 C457 -4 484 16 491 59 Z M193 -270 C217 -270 236 -255 251 -237 C276 -208 284 -178 293 -136 L303 -88 C309 -57 289 -28 255 -28 C229 -28 206 -47 200 -78 L190 -135 C186 -160 176 -176 162 -193 C154 -203 147 -213 147 -227 C147 -252 165 -270 193 -270 Z " />
<glyph glyph-name="ograve" unicode="&#xf2;" horiz-adv-x="568" d="M302 546 C182 546 89 480 58 349 C47 305 40 253 38 225 C27 78 143 -10 274 -10 C387 -10 476 56 506 187 C516 231 524 283 526 311 C536 464 422 546 302 546 Z M396 309 C394 288 387 242 381 218 C364 155 330 117 270 117 C213 117 163 156 168 224 C169 244 177 295 183 318 C198 381 235 419 300 419 C353 419 402 380 396 309 Z M371 590 C402 590 423 615 423 641 C423 657 415 675 394 686 L258 762 C249 767 239 770 229 770 C201 770 176 748 176 716 C176 699 184 681 205 670 L336 599 C348 592 361 590 371 590 Z " />
<glyph glyph-name="oacute" unicode="&#xf3;" horiz-adv-x="568" d="M302 546 C182 546 89 480 58 349 C47 305 40 253 38 225 C27 78 143 -10 274 -10 C387 -10 476 56 506 187 C516 231 524 283 526 311 C536 464 422 546 302 546 Z M396 309 C394 288 387 242 381 218 C364 155 330 117 270 117 C213 117 163 156 168 224 C169 244 177 295 183 318 C198 381 235 419 300 419 C353 419 402 380 396 309 Z M284 692 C259 680 251 661 251 644 C251 610 279 592 302 592 C311 592 321 594 328 598 L465 662 C496 677 508 697 508 716 C508 742 489 766 455 766 C445 766 433 763 421 758 Z " />
<glyph glyph-name="ocircumflex" unicode="&#xf4;" horiz-adv-x="568" d="M302 546 C182 546 89 480 58 349 C47 305 40 253 38 225 C27 78 143 -10 274 -10 C387 -10 476 56 506 187 C516 231 524 283 526 311 C536 464 422 546 302 546 Z M396 309 C394 288 387 242 381 218 C364 155 330 117 270 117 C213 117 163 156 168 224 C169 244 177 295 183 318 C198 381 235 419 300 419 C353 419 402 380 396 309 Z M345 665 L414 602 C427 589 441 584 455 584 C482 584 504 606 504 633 C504 650 498 663 483 678 L394 761 C382 773 367 778 352 778 C337 778 323 773 311 764 L196 681 C178 668 168 654 168 632 C168 607 188 585 214 585 C226 585 238 589 250 597 Z " />
<glyph glyph-name="otilde" unicode="&#xf5;" horiz-adv-x="569" d="M302 546 C182 546 89 480 58 349 C47 305 40 253 38 225 C27 78 143 -10 274 -10 C387 -10 476 56 506 187 C516 231 524 283 526 311 C536 464 422 546 302 546 Z M396 309 C394 288 387 242 381 218 C364 155 330 117 270 117 C213 117 163 156 168 224 C169 244 177 295 183 318 C198 381 235 419 300 419 C353 419 402 380 396 309 Z M394 592 C422 592 454 606 486 632 C505 647 519 664 519 685 C519 712 495 733 472 733 C439 733 426 694 398 694 C368 694 327 734 277 734 C247 734 211 718 181 692 C165 678 153 663 153 646 C153 621 178 599 203 599 C232 599 242 631 274 631 C308 631 344 592 394 592 Z " />
<glyph glyph-name="odieresis" unicode="&#xf6;" horiz-adv-x="568" d="M302 546 C182 546 89 480 58 349 C47 305 40 253 38 225 C27 78 143 -10 274 -10 C387 -10 476 56 506 187 C516 231 524 283 526 311 C536 464 422 546 302 546 Z M396 309 C394 288 387 242 381 218 C364 155 330 117 270 117 C213 117 163 156 168 224 C169 244 177 295 183 318 C198 381 235 419 300 419 C353 419 402 380 396 309 Z M260 726 C219 726 188 692 188 654 C188 618 213 595 249 595 C287 595 320 627 320 666 C320 704 293 726 260 726 Z M442 726 C402 726 371 692 371 654 C371 618 396 595 432 595 C470 595 502 627 502 666 C502 704 476 726 442 726 Z " />
<glyph glyph-name="omacron" unicode="&#x14d;" horiz-adv-x="568" d="M302 546 C182 546 89 480 58 349 C47 305 40 253 38 225 C27 78 143 -10 274 -10 C387 -10 476 56 506 187 C516 231 524 283 526 311 C536 464 422 546 302 546 Z M396 309 C394 288 387 242 381 218 C364 155 330 117 270 117 C213 117 163 156 168 224 C169 244 177 295 183 318 C198 381 235 419 300 419 C353 419 402 380 396 309 Z M416 602 C456 602 478 632 478 661 C478 687 461 712 425 712 L275 712 C232 712 209 682 209 653 C209 627 229 602 266 602 Z " />
<glyph glyph-name="ohungarumlaut" unicode="&#x151;" horiz-adv-x="567" d="M302 546 C182 546 89 480 58 349 C47 305 40 253 38 225 C27 78 143 -10 274 -10 C387 -10 476 56 506 187 C516 231 524 283 526 311 C536 464 422 546 302 546 Z M396 309 C394 288 387 242 381 218 C364 155 330 117 270 117 C213 117 163 156 168 224 C169 244 177 295 183 318 C198 381 235 419 300 419 C353 419 402 380 396 309 Z M381 698 C393 708 400 726 400 741 C400 772 379 795 347 795 C328 795 314 785 303 775 L206 686 C194 675 186 657 186 644 C186 608 211 590 238 590 C254 590 270 597 283 609 Z M577 698 C589 708 597 726 597 741 C597 772 575 795 543 795 C524 795 510 785 499 775 L403 686 C390 675 382 657 382 644 C382 608 407 590 434 590 C450 590 466 597 479 609 Z " />
<glyph glyph-name="oslash" unicode="&#xf8;" horiz-adv-x="573" d="M274 -10 C387 -10 475 55 506 187 C516 229 523 278 526 311 C530 353 521 394 505 427 L540 460 C555 476 562 492 562 505 C562 527 546 543 523 543 C509 543 495 537 481 524 L451 495 C410 529 357 546 302 546 C187 546 91 486 58 349 C47 303 41 258 38 227 C34 181 43 144 58 111 L20 74 C5 60 0 45 0 32 C0 11 17 -6 40 -6 C53 -6 68 -1 82 13 L113 44 C154 9 216 -10 274 -10 Z M270 117 C247 117 225 123 208 136 L397 321 C396 306 393 281 390 264 C387 248 385 234 381 218 C366 159 332 117 270 117 Z M168 219 C168 229 169 239 171 253 C174 274 179 302 183 318 C198 380 235 419 300 419 C318 419 336 415 356 403 Z " />
<glyph glyph-name="oe" unicode="&#x153;" horiz-adv-x="882" d="M519 317 C535 400 576 433 637 433 C697 433 737 400 722 330 C720 320 716 317 707 317 Z M271 117 C214 117 164 156 169 224 C170 244 178 295 184 318 C201 388 242 419 301 419 C355 419 403 379 397 309 C395 288 388 242 382 218 C366 157 332 117 271 117 Z M275 -10 C343 -10 396 20 431 53 C476 14 527 -10 599 -10 C655 -10 713 6 752 28 C776 42 795 62 795 92 C795 122 772 150 739 150 C726 150 716 147 704 142 C670 129 642 112 599 112 C536 112 491 143 501 207 L503 220 L758 220 C800 220 826 244 836 290 L840 308 C875 466 761 546 639 546 C565 546 514 523 468 475 C435 513 378 546 303 546 C188 546 92 486 59 349 C50 311 41 257 39 225 C27 68 156 -10 275 -10 Z " />
<glyph glyph-name="racute" unicode="&#x155;" horiz-adv-x="397" d="M373 529 C349 538 318 546 271 546 C162 546 101 504 79 375 L29 78 C21 30 48 -5 94 -5 C124 -5 152 16 160 58 L207 346 C215 398 240 415 275 415 C294 415 309 412 323 409 C332 407 342 404 356 404 C397 404 421 434 421 467 C421 494 405 516 373 529 Z M211 691 C186 679 178 660 178 643 C178 609 206 591 229 591 C238 591 248 593 255 597 L392 661 C423 676 435 696 435 715 C435 741 416 765 382 765 C372 765 360 762 348 757 Z " />
<glyph glyph-name="rcaron" unicode="&#x159;" horiz-adv-x="397" d="M373 529 C349 538 318 546 271 546 C162 546 101 504 79 375 L29 78 C21 30 48 -5 94 -5 C124 -5 152 16 160 58 L207 346 C215 398 240 415 275 415 C294 415 309 412 323 409 C332 407 342 404 356 404 C397 404 421 434 421 467 C421 494 405 516 373 529 Z M273 592 C287 592 300 598 313 607 L423 680 C440 692 454 710 454 729 C454 755 434 778 404 778 C394 778 381 776 369 767 L282 705 L214 765 C204 773 194 778 180 778 C148 778 127 753 127 725 C127 712 132 698 144 687 L237 607 C248 598 260 592 273 592 Z " />
<glyph glyph-name="rcommaaccent" unicode="&#x157;" horiz-adv-x="397" d="M377 529 C353 538 322 546 275 546 C166 546 105 504 83 375 L33 78 C25 30 52 -5 98 -5 C128 -5 156 16 164 58 L211 346 C219 398 244 415 279 415 C298 415 313 412 327 409 C336 407 346 404 360 404 C401 404 425 434 425 467 C425 494 409 516 377 529 Z M20 -270 C44 -270 63 -255 78 -237 C103 -208 111 -178 120 -136 L130 -88 C136 -57 116 -28 82 -28 C56 -28 33 -47 27 -78 L17 -135 C13 -160 3 -176 -11 -193 C-19 -203 -26 -213 -26 -227 C-26 -252 -8 -270 20 -270 Z " />
<glyph glyph-name="sacute" unicode="&#x15b;" horiz-adv-x="515" d="M267 332 C231 345 209 357 209 383 C209 417 250 429 279 429 C319 429 348 414 376 400 C391 392 405 386 423 386 C458 386 480 412 480 443 C480 461 471 480 450 497 C419 521 358 546 287 546 C180 546 80 487 80 378 C80 303 135 262 202 234 C260 208 319 198 319 158 C319 131 292 106 241 106 C188 106 146 132 119 150 C106 158 94 163 79 163 C46 163 20 138 20 106 C20 86 30 69 46 55 C84 20 167 -10 245 -10 C367 -10 449 61 449 160 C449 269 348 304 267 332 Z M266 692 C241 680 233 661 233 644 C233 610 261 592 284 592 C293 592 303 594 310 598 L447 662 C478 677 490 697 490 716 C490 742 471 766 437 766 C427 766 415 763 403 758 Z " />
<glyph glyph-name="scaron" unicode="&#x161;" horiz-adv-x="515" d="M267 332 C231 345 209 357 209 383 C209 417 250 429 279 429 C319 429 348 414 376 400 C391 392 405 386 423 386 C458 386 480 412 480 443 C480 461 471 480 450 497 C419 521 358 546 287 546 C180 546 80 487 80 378 C80 303 135 262 202 234 C260 208 319 198 319 158 C319 131 292 106 241 106 C188 106 146 132 119 150 C106 158 94 163 79 163 C46 163 20 138 20 106 C20 86 30 69 46 55 C84 20 167 -10 245 -10 C367 -10 449 61 449 160 C449 269 348 304 267 332 Z M322 581 C336 581 349 587 362 596 L472 669 C489 681 503 699 503 718 C503 744 483 767 453 767 C443 767 430 765 418 756 L331 694 L263 754 C253 762 243 767 229 767 C197 767 176 742 176 714 C176 701 181 687 193 676 L286 596 C297 587 309 581 322 581 Z " />
<glyph glyph-name="scedilla" unicode="&#x15f;" horiz-adv-x="512" d="M164 -273 C172 -273 181 -271 188 -269 C262 -248 335 -204 335 -128 C335 -77 297 -42 245 -39 L263 -9 C375 -2 448 66 448 160 C448 269 348 304 267 332 C231 345 208 357 208 383 C208 417 250 429 279 429 C319 429 348 415 376 400 C390 393 405 386 422 386 C458 386 479 412 479 443 C479 461 471 480 449 497 C418 521 358 546 287 546 C179 546 79 487 79 378 C79 303 135 262 201 234 C260 208 319 198 319 158 C319 131 291 106 241 106 C188 106 146 132 118 150 C105 158 94 163 79 163 C46 163 20 138 20 106 C20 86 29 69 45 55 C72 30 125 5 185 -4 L157 -57 C143 -83 162 -111 189 -111 C202 -111 210 -106 222 -106 C237 -106 248 -113 248 -127 C248 -165 188 -180 162 -189 C140 -197 123 -211 123 -233 C123 -258 143 -273 164 -273 Z " />
<glyph glyph-name="scommaaccent" unicode="&#x219;" horiz-adv-x="512" d="M267 332 C231 345 209 357 209 383 C209 417 250 429 279 429 C319 429 348 414 376 400 C391 392 405 386 423 386 C458 386 480 412 480 443 C480 461 471 480 450 497 C419 521 358 546 287 546 C180 546 80 487 80 378 C80 303 135 262 202 234 C260 208 319 198 319 158 C319 131 292 106 241 106 C188 106 146 132 119 150 C106 158 94 163 79 163 C46 163 20 138 20 106 C20 86 30 69 46 55 C84 20 167 -10 245 -10 C367 -10 449 61 449 160 C449 269 348 304 267 332 Z M164 -270 C188 -270 207 -255 222 -237 C247 -208 255 -178 264 -136 L274 -88 C280 -57 260 -28 226 -28 C200 -28 177 -47 171 -78 L161 -135 C157 -160 147 -176 133 -193 C125 -203 118 -213 118 -227 C118 -252 136 -270 164 -270 Z " />
<glyph glyph-name="germandbls" unicode="&#xdf;" horiz-adv-x="650" d="M101 -5 C135 -5 160 19 167 62 L239 490 C252 571 295 601 354 601 C400 601 435 581 435 548 C435 501 332 470 332 375 C332 320 369 287 422 258 C467 234 492 217 492 182 C492 142 459 114 412 114 C376 114 349 131 333 140 C313 152 300 159 282 159 C249 159 225 132 225 100 C225 81 234 63 252 48 C288 16 351 -6 419 -6 C538 -6 622 72 622 178 C622 248 583 290 543 319 C503 348 463 365 463 387 C463 424 567 461 567 561 C567 653 473 724 354 724 C225 724 134 662 108 502 L38 75 C30 27 61 -5 101 -5 Z " />
<glyph glyph-name="tcaron" unicode="&#x165;" horiz-adv-x="437" d="M327 11 C355 25 373 48 373 76 C373 108 348 132 320 132 C310 132 300 129 287 124 C272 119 255 114 236 114 C190 114 174 142 183 195 L218 399 L355 399 C391 399 419 424 419 458 C419 490 397 516 357 516 L239 516 L250 584 C257 623 231 655 188 655 C160 655 127 641 117 585 L52 206 C29 70 101 -10 232 -10 C244 -10 289 -8 327 11 Z M353 546 C376 546 396 561 412 581 C435 608 444 638 452 678 L463 730 C470 761 449 789 415 789 C389 789 367 770 361 740 L350 679 C346 657 339 645 326 630 C316 617 307 607 307 589 C307 565 325 546 353 546 Z " />
<glyph glyph-name="tcommaaccent" unicode="&#x163;" horiz-adv-x="436" d="M327 11 C355 25 373 48 373 76 C373 108 348 132 320 132 C310 132 300 129 287 124 C272 119 255 114 236 114 C190 114 174 142 183 195 L218 399 L355 399 C391 399 419 424 419 458 C419 490 397 516 357 516 L239 516 L250 584 C257 623 231 655 188 655 C160 655 127 641 117 585 L52 206 C29 70 101 -10 232 -10 C244 -10 289 -8 327 11 Z M134 -270 C158 -270 177 -255 192 -237 C217 -208 225 -178 234 -136 L244 -88 C250 -57 230 -28 196 -28 C170 -28 147 -47 141 -78 L131 -135 C127 -160 117 -176 103 -193 C95 -203 88 -213 88 -227 C88 -252 106 -270 134 -270 Z " />
<glyph glyph-name="ugrave" unicode="&#xf9;" horiz-adv-x="582" d="M49 239 C23 80 131 -10 259 -10 C348 -10 420 24 454 46 C473 59 482 72 486 95 L546 456 C554 504 527 539 481 539 C450 539 423 518 416 476 L362 150 C338 135 306 121 266 121 C213 121 167 149 181 232 L219 458 C227 505 199 539 155 539 C123 539 95 518 88 476 Z M373 590 C404 590 425 615 425 641 C425 657 417 675 396 686 L260 762 C251 767 241 770 231 770 C203 770 178 748 178 716 C178 699 186 681 207 670 L338 599 C350 592 363 590 373 590 Z " />
<glyph glyph-name="uacute" unicode="&#xfa;" horiz-adv-x="582" d="M49 239 C23 80 131 -10 259 -10 C348 -10 420 24 454 46 C473 59 482 72 486 95 L546 456 C554 504 527 539 481 539 C450 539 423 518 416 476 L362 150 C338 135 306 121 266 121 C213 121 167 149 181 232 L219 458 C227 505 199 539 155 539 C123 539 95 518 88 476 Z M303 692 C278 680 270 661 270 644 C270 610 298 592 321 592 C330 592 340 594 347 598 L484 662 C515 677 527 697 527 716 C527 742 508 766 474 766 C464 766 452 763 440 758 Z " />
<glyph glyph-name="ucircumflex" unicode="&#xfb;" horiz-adv-x="582" d="M49 239 C23 80 131 -10 259 -10 C348 -10 420 24 454 46 C473 59 482 72 486 95 L546 456 C554 504 527 539 481 539 C450 539 423 518 416 476 L362 150 C338 135 306 121 266 121 C213 121 167 149 181 232 L219 458 C227 505 199 539 155 539 C123 539 95 518 88 476 Z M351 666 L420 603 C433 590 447 585 461 585 C488 585 510 607 510 634 C510 651 504 664 489 679 L400 762 C388 774 373 779 358 779 C343 779 329 774 317 765 L202 682 C184 669 174 655 174 633 C174 608 194 586 220 586 C232 586 244 590 256 598 Z " />
<glyph glyph-name="udieresis" unicode="&#xfc;" horiz-adv-x="582" d="M49 239 C23 80 131 -10 259 -10 C348 -10 420 24 454 46 C473 59 482 72 486 95 L546 456 C554 504 527 539 481 539 C450 539 423 518 416 476 L362 150 C338 135 306 121 266 121 C213 121 167 149 181 232 L219 458 C227 505 199 539 155 539 C123 539 95 518 88 476 Z M263 726 C222 726 191 692 191 654 C191 618 216 595 252 595 C290 595 323 627 323 666 C323 704 296 726 263 726 Z M445 726 C405 726 374 692 374 654 C374 618 399 595 435 595 C473 595 505 627 505 666 C505 704 479 726 445 726 Z " />
<glyph glyph-name="umacron" unicode="&#x16b;" horiz-adv-x="582" d="M49 239 C23 80 131 -10 259 -10 C348 -10 420 24 454 46 C473 59 482 72 486 95 L546 456 C554 504 527 539 481 539 C450 539 423 518 416 476 L362 150 C338 135 306 121 266 121 C213 121 167 149 181 232 L219 458 C227 505 199 539 155 539 C123 539 95 518 88 476 Z M420 602 C460 602 482 632 482 661 C482 687 465 712 429 712 L279 712 C236 712 213 682 213 653 C213 627 233 602 270 602 Z " />
<glyph glyph-name="uring" unicode="&#x16f;" horiz-adv-x="582" d="M49 239 C23 80 131 -10 259 -10 C348 -10 420 24 454 46 C473 59 482 72 486 95 L546 456 C554 504 527 539 481 539 C450 539 423 518 416 476 L362 150 C338 135 306 121 266 121 C213 121 167 149 181 232 L219 458 C227 505 199 539 155 539 C123 539 95 518 88 476 Z M348 591 C419 591 465 648 465 709 C465 768 422 811 361 811 C289 811 242 752 242 692 C242 634 286 591 348 591 Z M350 659 C329 659 313 674 313 696 C313 720 331 741 356 741 C377 741 393 726 393 704 C393 680 376 659 350 659 Z " />
<glyph glyph-name="uhungarumlaut" unicode="&#x171;" horiz-adv-x="582" d="M49 239 C23 80 131 -10 259 -10 C348 -10 420 24 454 46 C473 59 482 72 486 95 L546 456 C554 504 527 539 481 539 C450 539 423 518 416 476 L362 150 C338 135 306 121 266 121 C213 121 167 149 181 232 L219 458 C227 505 199 539 155 539 C123 539 95 518 88 476 Z M382 699 C394 709 401 727 401 742 C401 773 380 796 348 796 C329 796 315 786 304 776 L207 687 C195 676 187 658 187 645 C187 609 212 591 239 591 C255 591 271 598 284 610 Z M578 699 C590 709 598 727 598 742 C598 773 576 796 544 796 C525 796 511 786 500 776 L404 687 C391 676 383 658 383 645 C383 609 408 591 435 591 C451 591 467 598 480 610 Z " />
<glyph glyph-name="uogonek" unicode="&#x173;" horiz-adv-x="582" d="M332 -215 C360 -215 390 -206 412 -190 C428 -177 439 -162 439 -146 C439 -124 423 -110 405 -110 C397 -110 389 -113 383 -116 C372 -122 362 -127 350 -127 C332 -127 313 -113 313 -83 C313 -8 406 16 452 45 C474 59 482 72 486 97 L546 456 C554 504 527 539 483 539 C451 539 423 521 416 476 L362 150 C338 135 306 121 266 121 C211 121 167 151 181 232 L219 458 C227 505 199 539 156 539 C120 539 95 516 88 476 L49 239 C23 81 131 -9 250 -9 C253 -9 257 -9 260 -9 C232 -38 217 -76 217 -105 C217 -175 272 -215 332 -215 Z " />
<glyph glyph-name="wgrave" unicode="&#x1e81;" horiz-adv-x="806" d="M442 96 C446 35 487 -8 544 -8 C598 -8 635 22 661 86 L805 440 C829 500 795 539 750 539 C717 539 698 522 685 487 L584 218 C574 190 567 162 557 130 C555 126 553 125 550 125 C548 125 546 126 545 131 C545 170 545 208 543 244 L529 448 C525 505 494 539 442 539 C393 539 363 513 341 460 L251 237 C237 202 226 166 214 130 C213 127 211 125 208 125 C205 125 202 126 202 131 C204 173 206 211 204 248 L188 474 C185 518 156 539 123 539 C79 539 51 509 56 454 L87 96 C93 30 138 -8 189 -8 C247 -8 277 22 303 88 L413 364 C415 368 417 370 420 370 C422 370 425 368 425 364 Z M483 592 C514 592 535 617 535 643 C535 659 527 677 506 688 L370 764 C361 769 351 772 341 772 C313 772 288 750 288 718 C288 701 296 683 317 672 L448 601 C460 594 473 592 483 592 Z " />
<glyph glyph-name="wacute" unicode="&#x1e83;" horiz-adv-x="806" d="M442 96 C446 35 487 -8 544 -8 C598 -8 635 22 661 86 L805 440 C829 500 795 539 750 539 C717 539 698 522 685 487 L584 218 C574 190 567 162 557 130 C555 126 553 125 550 125 C548 125 546 126 545 131 C545 170 545 208 543 244 L529 448 C525 505 494 539 442 539 C393 539 363 513 341 460 L251 237 C237 202 226 166 214 130 C213 127 211 125 208 125 C205 125 202 126 202 131 C204 173 206 211 204 248 L188 474 C185 518 156 539 123 539 C79 539 51 509 56 454 L87 96 C93 30 138 -8 189 -8 C247 -8 277 22 303 88 L413 364 C415 368 417 370 420 370 C422 370 425 368 425 364 Z M404 693 C379 681 371 662 371 645 C371 611 399 593 422 593 C431 593 441 595 448 599 L585 663 C616 678 628 698 628 717 C628 743 609 767 575 767 C565 767 553 764 541 759 Z " />
<glyph glyph-name="wcircumflex" unicode="&#x175;" horiz-adv-x="806" d="M442 96 C446 35 487 -8 544 -8 C598 -8 635 22 661 86 L805 440 C829 500 795 539 750 539 C717 539 698 522 685 487 L584 218 C574 190 567 162 557 130 C555 126 553 125 550 125 C548 125 546 126 545 131 C545 170 545 208 543 244 L529 448 C525 505 494 539 442 539 C393 539 363 513 341 460 L251 237 C237 202 226 166 214 130 C213 127 211 125 208 125 C205 125 202 126 202 131 C204 173 206 211 204 248 L188 474 C185 518 156 539 123 539 C79 539 51 509 56 454 L87 96 C93 30 138 -8 189 -8 C247 -8 277 22 303 88 L413 364 C415 368 417 370 420 370 C422 370 425 368 425 364 Z M467 665 L536 602 C549 589 563 584 577 584 C604 584 626 606 626 633 C626 650 620 663 605 678 L516 761 C504 773 489 778 474 778 C459 778 445 773 433 764 L318 681 C300 668 290 654 290 632 C290 607 310 585 336 585 C348 585 360 589 372 597 Z " />
<glyph glyph-name="wdieresis" unicode="&#x1e85;" horiz-adv-x="806" d="M442 96 C446 35 487 -8 544 -8 C598 -8 635 22 661 86 L805 440 C829 500 795 539 750 539 C717 539 698 522 685 487 L584 218 C574 190 567 162 557 130 C555 126 553 125 550 125 C548 125 546 126 545 131 C545 170 545 208 543 244 L529 448 C525 505 494 539 442 539 C393 539 363 513 341 460 L251 237 C237 202 226 166 214 130 C213 127 211 125 208 125 C205 125 202 126 202 131 C204 173 206 211 204 248 L188 474 C185 518 156 539 123 539 C79 539 51 509 56 454 L87 96 C93 30 138 -8 189 -8 C247 -8 277 22 303 88 L413 364 C415 368 417 370 420 370 C422 370 425 368 425 364 Z M382 726 C341 726 310 692 310 654 C310 618 335 595 371 595 C409 595 442 627 442 666 C442 704 415 726 382 726 Z M564 726 C524 726 493 692 493 654 C493 618 518 595 554 595 C592 595 624 627 624 666 C624 704 598 726 564 726 Z " />
<glyph glyph-name="ygrave" unicode="&#x1ef3;" horiz-adv-x="524" d="M186 478 C176 517 153 539 119 539 C69 539 41 500 54 447 L158 34 C121 -30 88 -61 45 -84 C17 -99 2 -114 2 -145 C2 -178 30 -202 63 -202 C91 -202 119 -191 143 -174 C199 -134 249 -63 288 5 L532 437 C558 482 536 539 476 539 C449 539 430 523 415 494 L321 320 C287 257 267 208 255 178 C253 175 251 172 247 172 C243 172 241 176 241 179 C239 219 237 271 224 322 Z M332 590 C363 590 384 615 384 641 C384 657 376 675 355 686 L219 762 C210 767 200 770 190 770 C162 770 137 748 137 716 C137 699 145 681 166 670 L297 599 C309 592 322 590 332 590 Z " />
<glyph glyph-name="yacute" unicode="&#xfd;" horiz-adv-x="524" d="M186 478 C176 517 153 539 119 539 C69 539 41 500 54 447 L158 34 C121 -30 88 -61 45 -84 C17 -99 2 -114 2 -145 C2 -178 30 -202 63 -202 C91 -202 119 -191 143 -174 C199 -134 249 -63 288 5 L532 437 C558 482 536 539 476 539 C449 539 430 523 415 494 L321 320 C287 257 267 208 255 178 C253 175 251 172 247 172 C243 172 241 176 241 179 C239 219 237 271 224 322 Z M272 693 C247 681 239 662 239 645 C239 611 267 593 290 593 C299 593 309 595 316 599 L453 663 C484 678 496 698 496 717 C496 743 477 767 443 767 C433 767 421 764 409 759 Z " />
<glyph glyph-name="ycircumflex" unicode="&#x177;" horiz-adv-x="524" d="M186 478 C176 517 153 539 119 539 C69 539 41 500 54 447 L158 34 C121 -30 88 -61 45 -84 C17 -99 2 -114 2 -145 C2 -178 30 -202 63 -202 C91 -202 119 -191 143 -174 C199 -134 249 -63 288 5 L532 437 C558 482 536 539 476 539 C449 539 430 523 415 494 L321 320 C287 257 267 208 255 178 C253 175 251 172 247 172 C243 172 241 176 241 179 C239 219 237 271 224 322 Z M328 666 L397 603 C410 590 424 585 438 585 C465 585 487 607 487 634 C487 651 481 664 466 679 L377 762 C365 774 350 779 335 779 C320 779 306 774 294 765 L179 682 C161 669 151 655 151 633 C151 608 171 586 197 586 C209 586 221 590 233 598 Z " />
<glyph glyph-name="ydieresis" unicode="&#xff;" horiz-adv-x="524" d="M186 478 C176 517 153 539 119 539 C69 539 41 500 54 447 L158 34 C121 -30 88 -61 45 -84 C17 -99 2 -114 2 -145 C2 -178 30 -202 63 -202 C91 -202 119 -191 143 -174 C199 -134 249 -63 288 5 L532 437 C558 482 536 539 476 539 C449 539 430 523 415 494 L321 320 C287 257 267 208 255 178 C253 175 251 172 247 172 C243 172 241 176 241 179 C239 219 237 271 224 322 Z M237 726 C196 726 165 692 165 654 C165 618 190 595 226 595 C264 595 297 627 297 666 C297 704 270 726 237 726 Z M419 726 C379 726 348 692 348 654 C348 618 373 595 409 595 C447 595 479 627 479 666 C479 704 453 726 419 726 Z " />
<glyph glyph-name="zacute" unicode="&#x17a;" horiz-adv-x="497" d="M459 399 C476 416 485 438 485 460 C485 496 460 528 405 528 L131 528 C94 528 65 503 65 467 C65 436 87 408 130 408 L300 408 L33 129 C15 111 5 90 5 69 C5 33 31 0 80 0 L370 0 C407 0 436 26 436 62 C436 93 414 120 372 120 L192 120 Z M253 692 C228 680 220 661 220 644 C220 610 248 592 271 592 C280 592 290 594 297 598 L434 662 C465 677 477 697 477 716 C477 742 458 766 424 766 C414 766 402 763 390 758 Z " />
<glyph glyph-name="zcaron" unicode="&#x17e;" horiz-adv-x="497" d="M459 399 C476 416 485 438 485 460 C485 496 460 528 405 528 L131 528 C94 528 65 503 65 467 C65 436 87 408 130 408 L300 408 L33 129 C15 111 5 90 5 69 C5 33 31 0 80 0 L370 0 C407 0 436 26 436 62 C436 93 414 120 372 120 L192 120 Z M296 593 C310 593 323 599 336 608 L446 681 C463 693 477 711 477 730 C477 756 457 779 427 779 C417 779 404 777 392 768 L305 706 L237 766 C227 774 217 779 203 779 C171 779 150 754 150 726 C150 713 155 699 167 688 L260 608 C271 599 283 593 296 593 Z " />
<glyph glyph-name="zdotaccent" unicode="&#x17c;" horiz-adv-x="497" d="M459 399 C476 416 485 438 485 460 C485 496 460 528 405 528 L131 528 C94 528 65 503 65 467 C65 436 87 408 130 408 L300 408 L33 129 C15 111 5 90 5 69 C5 33 31 0 80 0 L370 0 C407 0 436 26 436 62 C436 93 414 120 372 120 L192 120 Z M321 725 C281 725 250 691 250 653 C250 617 275 594 310 594 C349 594 381 626 381 665 C381 703 355 725 321 725 Z " />
<glyph glyph-name="eth" unicode="&#xf0;" horiz-adv-x="596" d="M277 518 C169 518 79 451 52 314 C46 287 41 247 39 226 C30 94 122 -10 269 -10 C408 -10 483 84 506 217 C519 291 522 310 529 359 C545 466 537 566 523 621 L559 637 C587 650 597 666 597 684 C597 723 557 741 525 727 L485 710 C475 725 462 740 449 749 C438 757 424 762 410 762 C378 762 354 737 354 709 C354 700 356 693 360 686 C365 678 370 672 375 666 L320 643 C298 634 287 617 287 599 C287 556 330 543 360 555 L420 580 C429 548 429 508 427 463 C396 492 345 518 277 518 Z M291 386 C349 386 388 342 383 291 C381 269 377 239 371 214 C357 159 323 120 266 120 C209 120 165 159 170 220 C172 242 175 272 181 295 C195 353 234 386 291 386 Z " />
<glyph glyph-name="thorn" unicode="&#xfe;" horiz-adv-x="583" d="M181 146 L222 393 C241 403 276 419 315 419 C377 419 418 376 407 304 C404 280 397 243 392 218 C379 156 339 117 281 117 C237 117 197 133 181 146 Z M159 20 C193 6 232 -10 291 -10 C414 -10 494 70 522 197 C529 231 541 303 541 342 C541 456 461 546 326 546 C298 546 267 540 244 534 L262 643 C268 677 251 717 204 717 C174 717 142 700 133 646 L5 -127 C-1 -165 22 -203 68 -203 C104 -203 125 -179 134 -128 Z " />
<glyph glyph-name="grave" unicode="&#x60;" horiz-adv-x="389" d="M329 755 C360 755 381 780 381 806 C381 822 373 840 352 851 L216 927 C207 932 197 935 187 935 C159 935 134 913 134 881 C134 864 142 846 163 835 L294 764 C306 757 319 755 329 755 Z " />
<glyph glyph-name="acute" unicode="&#xb4;" horiz-adv-x="389" d="M154 857 C129 845 121 826 121 809 C121 775 149 757 172 757 C181 757 191 759 198 763 L335 827 C366 842 378 862 378 881 C378 907 359 931 325 931 C315 931 303 928 291 923 Z " />
<glyph glyph-name="circumflex" unicode="&#x2c6;" horiz-adv-x="389" d="M255 828 L324 765 C337 752 351 747 365 747 C392 747 414 769 414 796 C414 813 408 826 393 841 L304 924 C292 936 277 941 262 941 C247 941 233 936 221 927 L106 844 C88 831 78 817 78 795 C78 770 98 748 124 748 C136 748 148 752 160 760 Z " />
<glyph glyph-name="caron" unicode="&#x2c7;" horiz-adv-x="389" d="M242 755 C256 755 269 761 282 770 L392 843 C409 855 423 873 423 892 C423 918 403 941 373 941 C363 941 350 939 338 930 L251 868 L183 928 C173 936 163 941 149 941 C117 941 96 916 96 888 C96 875 101 861 113 850 L206 770 C217 761 229 755 242 755 Z " />
<glyph glyph-name="tilde" unicode="&#x2dc;" horiz-adv-x="389" d="M307 750 C335 750 367 764 399 790 C418 805 432 822 432 843 C432 870 408 891 385 891 C352 891 339 852 311 852 C281 852 240 892 190 892 C160 892 124 876 94 850 C78 836 66 821 66 804 C66 779 91 757 116 757 C145 757 155 789 187 789 C221 789 257 750 307 750 Z " />
<glyph glyph-name="dieresis" unicode="&#xa8;" horiz-adv-x="389" d="M159 888 C118 888 87 854 87 816 C87 780 112 757 148 757 C186 757 219 789 219 828 C219 866 192 888 159 888 Z M341 888 C301 888 270 854 270 816 C270 780 295 757 331 757 C369 757 401 789 401 828 C401 866 375 888 341 888 Z " />
<glyph glyph-name="macron" unicode="&#xaf;" horiz-adv-x="389" d="M326 760 C366 760 388 790 388 819 C388 845 371 870 335 870 L185 870 C142 870 119 840 119 811 C119 785 139 760 176 760 Z " />
<glyph glyph-name="breve" unicode="&#x2d8;" horiz-adv-x="389" d="M271 755 C351 755 399 804 419 850 C423 860 427 873 427 884 C427 908 409 929 379 929 C348 929 336 906 330 893 C317 866 304 848 272 848 C239 848 231 867 225 886 C220 905 211 929 179 929 C156 929 128 915 128 879 C128 866 131 852 135 842 C156 786 208 755 271 755 Z " />
<glyph glyph-name="ring" unicode="&#x2da;" horiz-adv-x="389" d="M261 750 C332 750 378 807 378 868 C378 927 335 970 274 970 C202 970 155 911 155 851 C155 793 199 750 261 750 Z M263 818 C242 818 226 833 226 855 C226 879 244 900 269 900 C290 900 306 885 306 863 C306 839 289 818 263 818 Z " />
<glyph glyph-name="hungarumlaut" unicode="&#x2dd;" horiz-adv-x="389" d="M243 862 C255 872 262 890 262 905 C262 936 241 959 209 959 C190 959 176 949 165 939 L68 850 C56 839 48 821 48 808 C48 772 73 754 100 754 C116 754 132 761 145 773 Z M439 862 C451 872 459 890 459 905 C459 936 437 959 405 959 C386 959 372 949 361 939 L265 850 C252 839 244 821 244 808 C244 772 269 754 296 754 C312 754 328 761 341 773 Z " />
<glyph glyph-name="dotaccent" unicode="&#x2d9;" horiz-adv-x="389" d="M263 888 C223 888 192 854 192 816 C192 780 217 757 252 757 C291 757 323 789 323 828 C323 866 297 888 263 888 Z " />
<glyph glyph-name="cedilla" unicode="&#xb8;" horiz-adv-x="389" d="M166 -273 C174 -273 183 -271 190 -269 C264 -248 337 -204 337 -128 C337 -77 299 -42 247 -39 L265 -10 C284 17 267 46 239 46 C219 46 208 36 196 14 L159 -57 C145 -83 164 -111 191 -111 C204 -111 212 -106 224 -106 C239 -106 250 -113 250 -127 C250 -165 190 -180 163 -189 C141 -197 125 -211 125 -233 C125 -258 145 -273 166 -273 Z " />
<glyph glyph-name="ogonek" unicode="&#x2db;" horiz-adv-x="389" d="M243 -220 C271 -220 301 -212 324 -195 C340 -183 350 -168 350 -151 C350 -130 334 -115 317 -115 C308 -115 301 -118 294 -122 C283 -128 272 -132 261 -132 C243 -132 225 -121 225 -94 C225 -45 284 -21 320 -7 C343 2 351 14 351 31 C351 55 335 69 314 69 C306 69 297 66 289 63 C204 30 130 -25 130 -110 C130 -183 184 -220 243 -220 Z " />
<glyph glyph-name="comma" unicode="&#x2c;" horiz-adv-x="242" d="M57 -114 C84 -114 106 -96 124 -75 C150 -43 161 -16 171 39 L180 94 C188 137 155 162 124 162 C98 162 68 144 62 105 L50 34 C46 8 37 -8 22 -24 C11 -36 1 -45 1 -63 C1 -91 26 -114 57 -114 Z " />
<glyph glyph-name="semicolon" unicode="&#x3b;" horiz-adv-x="251" d="M45 -114 C72 -114 92 -96 110 -75 C137 -42 149 -7 157 39 L166 94 C173 137 143 162 113 162 C86 162 58 144 52 105 L41 34 C37 11 29 -4 16 -19 C4 -33 -8 -42 -8 -64 C-8 -90 12 -114 45 -114 Z M153 327 C189 327 211 354 216 386 L225 443 C231 478 207 506 170 506 C135 506 111 480 106 448 L97 390 C92 357 117 327 153 327 Z " />
<glyph glyph-name="colon" unicode="&#x3a;" horiz-adv-x="248" d="M141 327 C176 327 198 354 203 386 L213 443 C218 478 194 506 158 506 C123 506 99 480 93 448 L84 390 C79 357 104 327 141 327 Z M80 -7 C116 -7 138 20 143 51 L152 108 C158 143 134 172 97 172 C62 172 38 146 33 113 L24 56 C19 23 44 -7 80 -7 Z " />
<glyph glyph-name="period" unicode="&#x2e;" horiz-adv-x="261" d="M101 -9 C135 -9 158 16 164 49 L175 113 C180 148 156 176 120 176 C85 176 61 152 55 119 L45 54 C39 22 62 -9 101 -9 Z " />
<glyph glyph-name="ellipsis" unicode="&#x2026;" horiz-adv-x="692" d="M558 -9 C592 -9 615 16 621 49 L632 113 C637 148 613 176 577 176 C542 176 518 152 512 119 L502 54 C496 22 519 -9 558 -9 Z M332 -9 C366 -9 389 16 395 49 L406 113 C411 148 387 176 351 176 C316 176 292 152 286 119 L276 54 C270 22 293 -9 332 -9 Z M99 -9 C133 -9 156 16 162 49 L173 113 C178 148 154 176 118 176 C83 176 59 152 53 119 L43 54 C37 22 60 -9 99 -9 Z " />
<glyph glyph-name="uni00AD" unicode="&#xad;" horiz-adv-x="334" d="M38 286 C38 251 60 220 108 220 L220 220 C260 220 296 248 296 291 C296 324 271 355 226 355 L113 355 C72 355 38 327 38 286 Z " />
<glyph glyph-name="exclam" unicode="&#x21;" horiz-adv-x="247" d="M111 233 C136 233 164 247 172 289 L236 627 C245 674 218 706 174 706 C143 706 110 684 103 636 L55 294 C51 262 75 233 111 233 Z M69 -7 C104 -7 126 20 131 52 L140 103 C146 137 122 166 85 166 C50 166 26 140 21 107 L12 56 C6 23 32 -7 69 -7 Z " />
<glyph glyph-name="exclamdown" unicode="&#xa1;" horiz-adv-x="247" d="M153 466 C128 466 100 452 92 410 L28 72 C19 25 46 -7 90 -7 C121 -7 154 15 161 63 L209 405 C213 437 189 466 153 466 Z M195 706 C160 706 138 679 133 647 L124 596 C118 562 142 533 179 533 C214 533 238 559 243 592 L252 643 C258 676 232 706 195 706 Z " />
<glyph glyph-name="question" unicode="&#x3f;" horiz-adv-x="547" d="M190 -7 C225 -7 247 20 252 51 L261 102 C267 137 242 166 206 166 C171 166 147 140 142 107 L133 56 C127 23 153 -7 190 -7 Z M227 239 C238 239 248 241 266 248 C413 305 518 387 518 519 C518 634 427 710 311 710 C226 710 146 666 97 611 C79 591 73 574 73 554 C73 525 95 497 130 497 C158 497 180 516 188 524 C222 555 258 579 305 579 C360 579 387 547 387 506 C387 424 276 384 223 360 C197 349 168 333 168 297 C168 269 184 239 227 239 Z " />
<glyph glyph-name="questiondown" unicode="&#xbf;" horiz-adv-x="547" d="M348 710 C313 710 291 683 286 652 L277 601 C271 566 296 537 332 537 C367 537 391 563 396 596 L405 647 C411 680 385 710 348 710 Z M311 464 C300 464 290 462 272 455 C125 398 20 316 20 184 C20 69 111 -7 227 -7 C312 -7 392 37 441 92 C459 112 465 129 465 149 C465 178 443 206 408 206 C380 206 358 187 350 179 C316 148 280 124 233 124 C178 124 151 156 151 197 C151 279 262 319 315 343 C341 354 370 370 370 406 C370 434 354 464 311 464 Z " />
<glyph glyph-name="quoteleft" unicode="&#x2018;" horiz-adv-x="244" d="M128 431 C157 431 184 452 189 488 L200 552 C205 583 219 600 234 619 C243 630 250 641 250 656 C250 686 230 706 197 706 C170 706 147 689 130 667 C102 635 91 600 83 554 L74 499 C68 464 88 431 128 431 Z " />
<glyph glyph-name="quoteright" unicode="&#x2019;" horiz-adv-x="243" d="M115 431 C143 431 165 448 183 470 C210 502 222 537 229 584 L239 638 C245 673 224 706 184 706 C155 706 129 685 123 650 L112 585 C107 555 94 538 78 518 C69 507 62 497 62 481 C62 452 83 431 115 431 Z " />
<glyph glyph-name="quotedblleft" unicode="&#x201c;" horiz-adv-x="420" d="M304 431 C333 431 360 452 365 488 L376 552 C381 583 395 600 410 619 C419 630 426 641 426 656 C426 686 406 706 373 706 C346 706 323 689 306 667 C278 635 267 600 259 554 L250 499 C244 464 264 431 304 431 Z M128 431 C157 431 184 452 189 488 L200 552 C205 583 219 600 234 619 C243 630 250 641 250 656 C250 686 230 706 197 706 C170 706 147 689 130 667 C102 635 91 600 83 554 L74 499 C68 464 88 431 128 431 Z " />
<glyph glyph-name="quotedblright" unicode="&#x201d;" horiz-adv-x="419" d="M291 431 C319 431 341 448 359 470 C386 502 398 537 405 584 L415 638 C421 673 400 706 360 706 C331 706 305 685 299 650 L288 585 C283 555 270 538 254 518 C245 507 238 497 238 481 C238 452 259 431 291 431 Z M115 431 C143 431 165 448 183 470 C210 502 222 537 229 584 L239 638 C245 673 224 706 184 706 C155 706 129 685 123 650 L112 585 C107 555 94 538 78 518 C69 507 62 497 62 481 C62 452 83 431 115 431 Z " />
<glyph glyph-name="quotesinglbase" unicode="&#x201a;" horiz-adv-x="212" d="M65 -113 C93 -113 115 -96 133 -74 C160 -42 172 -7 179 40 L189 94 C195 129 174 162 134 162 C105 162 79 141 73 106 L62 41 C57 11 44 -6 28 -26 C19 -37 12 -47 12 -63 C12 -92 33 -113 65 -113 Z " />
<glyph glyph-name="quotedblbase" unicode="&#x201e;" horiz-adv-x="414" d="M261 -114 C289 -114 311 -97 329 -75 C356 -43 368 -8 375 39 L385 93 C391 128 370 161 330 161 C301 161 275 140 269 105 L258 40 C253 10 240 -7 224 -27 C215 -38 208 -48 208 -64 C208 -93 229 -114 261 -114 Z M83 -113 C111 -113 133 -96 151 -74 C178 -42 190 -7 197 40 L207 94 C213 129 192 162 152 162 C123 162 97 141 91 106 L80 41 C75 11 62 -6 46 -26 C37 -37 30 -47 30 -63 C30 -92 51 -113 83 -113 Z " />
<glyph glyph-name="guilsinglleft" unicode="&#x2039;" horiz-adv-x="341" d="M24 353 C24 326 33 306 62 283 L166 195 C185 180 203 173 219 173 C253 173 277 202 277 232 C277 246 272 261 257 273 L178 341 C173 345 171 350 171 355 C171 362 177 368 185 373 L289 443 C311 458 321 477 321 495 C321 524 297 550 264 550 C250 550 236 546 220 537 L79 444 C42 420 24 393 24 353 Z " />
<glyph glyph-name="guilsinglright" unicode="&#x203a;" horiz-adv-x="347" d="M328 371 C328 399 319 418 290 442 L186 530 C167 545 149 551 134 551 C99 551 75 522 75 493 C75 478 80 464 95 452 L174 384 C179 379 181 375 181 370 C181 363 175 357 168 352 L63 281 C41 267 32 248 32 230 C32 201 55 174 89 174 C102 174 116 179 132 188 L273 281 C310 305 328 331 328 371 Z " />
<glyph glyph-name="guillemotleft" unicode="&#xab;" horiz-adv-x="614" d="M288 353 C288 326 297 306 326 283 L430 195 C449 180 467 173 483 173 C517 173 541 202 541 232 C541 246 536 261 521 273 L442 341 C437 345 435 350 435 355 C435 362 441 368 449 373 L553 443 C575 458 585 477 585 495 C585 524 561 550 528 550 C514 550 500 546 484 537 L343 444 C306 420 288 393 288 353 Z M24 353 C24 326 33 306 62 283 L166 195 C185 180 203 173 219 173 C253 173 277 202 277 232 C277 246 272 261 257 273 L178 341 C173 345 171 350 171 355 C171 362 177 368 185 373 L289 443 C311 458 321 477 321 495 C321 524 297 550 264 550 C250 550 236 546 220 537 L79 444 C42 420 24 393 24 353 Z " />
<glyph glyph-name="guillemotright" unicode="&#xbb;" horiz-adv-x="613" d="M594 371 C594 399 585 418 556 442 L452 530 C433 545 415 551 400 551 C365 551 341 522 341 493 C341 478 346 464 361 452 L440 384 C445 379 447 375 447 370 C447 363 441 357 434 352 L329 281 C307 267 298 248 298 230 C298 201 321 174 355 174 C368 174 382 179 398 188 L539 281 C576 305 594 331 594 371 Z M333 371 C333 399 324 418 295 442 L191 530 C172 545 154 551 139 551 C104 551 80 522 80 493 C80 478 85 464 100 452 L179 384 C184 379 186 375 186 370 C186 363 180 357 173 352 L68 281 C46 267 37 248 37 230 C37 201 60 174 94 174 C107 174 121 179 137 188 L278 281 C315 305 333 331 333 371 Z " />
<glyph glyph-name="slash" unicode="&#x2f;" horiz-adv-x="366" d="M59 -32 C90 -32 114 -11 124 13 L369 638 C388 688 356 732 310 732 C279 732 254 710 245 686 L-2 61 C-22 9 15 -32 59 -32 Z " />
<glyph glyph-name="bar" unicode="&#x7c;" horiz-adv-x="286" d="M140 -140 C179 -140 208 -110 208 -71 L208 765 C208 804 177 835 140 835 C102 835 73 804 73 765 L73 -71 C73 -109 103 -140 140 -140 Z " />
<glyph glyph-name="endash" unicode="&#x2013;" horiz-adv-x="566" d="M38 286 C38 251 60 220 108 220 L451 220 C492 220 528 248 528 291 C528 324 502 355 457 355 L113 355 C72 355 38 327 38 286 Z " />
<glyph glyph-name="emdash" unicode="&#x2014;" horiz-adv-x="931" d="M38 286 C38 251 60 220 108 220 L816 220 C857 220 892 248 892 291 C892 324 867 355 822 355 L113 355 C72 355 38 327 38 286 Z " />
<glyph glyph-name="bullet" unicode="&#x2022;" horiz-adv-x="457" d="M102 350 C102 281 159 224 228 224 C297 224 354 281 354 350 C354 419 297 476 228 476 C159 476 102 419 102 350 Z " />
<glyph glyph-name="periodcentered" unicode="&#xb7;" horiz-adv-x="259" d="M124 265 C158 265 181 290 187 323 L198 387 C203 422 179 450 143 450 C108 450 84 426 78 393 L68 328 C62 296 85 265 124 265 Z " />
<glyph glyph-name="parenleft" unicode="&#x28;" horiz-adv-x="350" d="M218 -178 C254 -178 285 -150 285 -115 C285 -98 279 -81 270 -67 C235 -12 174 112 174 246 C174 494 318 625 368 671 C391 693 403 713 403 733 C403 768 368 793 338 793 C320 793 302 787 284 772 C127 641 44 451 44 253 C44 108 82 -33 165 -150 C178 -168 197 -178 218 -178 Z " />
<glyph glyph-name="parenright" unicode="&#x29;" horiz-adv-x="366" d="M6 -178 C24 -178 42 -171 60 -156 C217 -25 300 165 300 363 C300 508 262 649 179 766 C166 784 147 793 126 793 C90 793 58 766 58 731 C58 714 65 697 74 683 C109 628 170 504 170 370 C170 122 26 -9 -24 -55 C-47 -77 -59 -98 -59 -117 C-59 -152 -24 -178 6 -178 Z " />
<glyph glyph-name="bracketleft" unicode="&#x5b;" horiz-adv-x="398" d="M139 -43 L256 660 L378 660 C420 660 455 689 455 731 C455 766 432 792 396 792 L207 792 C162 792 136 764 129 722 L-4 -105 C-11 -147 11 -175 54 -175 L243 -175 C286 -175 324 -142 324 -101 C324 -65 297 -43 261 -43 Z " />
<glyph glyph-name="bracketright" unicode="&#x5d;" horiz-adv-x="387" d="M127 -43 L5 -43 C-37 -43 -72 -72 -72 -114 C-72 -149 -49 -175 -8 -175 L176 -175 C220 -175 247 -147 254 -105 L387 723 C394 764 372 792 329 792 L128 792 C91 792 58 766 58 721 C58 685 86 660 127 660 L243 660 Z " />
<glyph glyph-name="braceleft" unicode="&#x7b;" horiz-adv-x="416" d="M274 -176 C317 -176 354 -147 354 -105 C354 -70 329 -44 292 -44 L199 -44 C182 -44 172 -30 175 -13 L208 166 C224 250 191 294 165 314 C203 333 250 378 262 464 L287 630 C291 648 306 660 323 660 L414 660 C457 660 494 686 494 730 C494 763 468 792 432 792 L268 792 C216 792 171 753 163 701 L128 464 C120 411 95 379 50 348 C38 340 25 328 25 310 C25 297 32 287 40 281 C75 249 83 217 74 165 L35 -57 C23 -123 72 -176 136 -176 Z " />
<glyph glyph-name="braceright" unicode="&#x7d;" horiz-adv-x="416" d="M151 -176 C203 -176 248 -137 256 -84 L291 152 C299 205 324 237 369 268 C381 277 393 288 393 306 C393 320 386 329 379 336 C344 367 336 399 345 451 L384 674 C396 739 347 792 283 792 L145 792 C101 792 65 763 65 721 C65 686 90 660 127 660 L220 660 C236 660 247 646 244 630 L211 450 C195 366 228 322 254 302 C216 283 169 238 157 152 L132 -13 C128 -31 113 -44 96 -44 L5 -44 C-38 -44 -75 -70 -75 -113 C-75 -146 -49 -176 -13 -176 Z " />
<glyph glyph-name="asterisk" unicode="&#x2a;" horiz-adv-x="398" d="M205 338 C230 338 254 356 251 398 L252 475 L313 426 C336 406 369 411 383 433 C400 459 389 490 360 500 L293 529 L371 560 C405 572 421 602 409 628 C398 654 362 660 337 640 L268 590 L290 665 C303 702 281 728 249 728 C220 728 200 704 202 669 L203 590 L144 640 C123 661 89 659 72 635 C55 611 65 580 92 567 L161 533 L83 505 C49 495 33 463 48 437 C62 411 98 411 119 427 L187 475 L163 398 C150 362 177 338 205 338 Z " />
<glyph glyph-name="dagger" unicode="&#x2020;" horiz-adv-x="562" d="M228 380 L154 -68 C147 -107 176 -140 220 -140 C260 -140 282 -110 289 -71 L363 380 L488 380 C533 380 568 408 568 451 C568 484 538 514 502 514 L383 514 L404 639 C411 678 384 710 343 710 C302 710 276 679 269 640 L248 514 L124 514 C82 514 45 484 45 443 C45 409 73 380 109 380 Z " />
<glyph glyph-name="daggerdbl" unicode="&#x2021;" horiz-adv-x="562" d="M225 380 L194 189 L71 189 C27 189 -9 158 -9 117 C-9 82 16 55 52 55 L172 55 L152 -68 C146 -107 175 -140 219 -140 C258 -140 281 -110 287 -71 L308 55 L435 55 C482 55 515 87 515 126 C515 160 492 189 454 189 L329 189 L360 380 L488 380 C535 380 568 412 568 452 C568 485 545 514 507 514 L382 514 L403 639 C409 678 382 710 341 710 C301 710 274 679 268 640 L247 514 L124 514 C80 514 44 483 44 442 C44 407 69 380 105 380 Z " />
<glyph glyph-name="section" unicode="&#xa7;" horiz-adv-x="549" d="M250 -103 C403 -103 484 -15 484 90 C484 116 479 156 444 195 C479 224 502 260 502 297 C502 357 467 405 338 440 C276 457 239 471 239 508 C239 546 269 578 330 578 C373 578 407 562 435 547 C449 540 462 536 475 536 C513 536 542 561 542 601 C542 618 531 637 519 649 C492 675 423 710 328 710 C194 710 100 628 100 515 C100 469 117 439 134 416 C100 387 75 342 75 304 C75 237 115 199 240 164 C299 147 347 134 347 95 C347 58 315 25 254 25 C218 25 162 38 121 63 C109 70 94 73 82 73 C43 73 17 43 17 6 C17 -11 28 -32 47 -46 C82 -72 175 -103 250 -103 Z M375 237 C350 247 328 254 292 264 C216 284 187 301 187 326 C187 339 194 354 208 368 C232 357 252 350 289 339 C362 319 393 304 393 277 C393 262 386 249 375 237 Z " />
<glyph glyph-name="paragraph" unicode="&#xb6;" horiz-adv-x="740" d="M339 -192 C379 -192 402 -162 409 -123 L523 565 L587 565 L472 -120 C465 -161 498 -192 539 -192 C579 -192 601 -162 608 -123 L728 603 C737 660 706 702 638 702 L342 702 C159 702 66 591 66 453 C66 330 164 224 314 224 L331 224 L274 -120 C267 -160 297 -192 339 -192 Z M353 355 L335 355 C262 355 212 387 212 451 C212 536 279 571 344 571 L390 571 Z " />
<glyph glyph-name="asciicircum" unicode="&#x5e;" horiz-adv-x="507" d="M100 314 C132 302 173 318 182 350 L242 539 C243 544 249 548 254 548 C258 548 262 544 264 539 L325 350 C335 317 375 302 407 314 C440 325 458 366 446 397 L353 627 C333 678 300 708 254 708 C207 708 174 682 154 630 L62 397 C49 365 68 325 100 314 Z " />
<glyph glyph-name="asciitilde" unicode="&#x7e;" horiz-adv-x="640" d="M416 269 C468 269 512 290 550 306 C580 319 604 343 604 379 C604 408 580 447 536 447 C523 447 508 443 493 435 C463 421 441 416 418 416 C344 416 297 466 221 466 C180 466 140 451 89 429 C59 416 35 392 35 356 C35 325 60 287 105 287 C118 287 133 291 150 299 C176 312 197 319 219 319 C290 319 340 269 416 269 Z " />
<glyph glyph-name="brokenbar" unicode="&#xa6;" horiz-adv-x="283" d="M140 -140 C179 -140 207 -110 207 -71 L207 241 C207 280 177 311 140 311 C102 311 73 280 73 241 L73 -71 C73 -109 103 -140 140 -140 Z M140 384 C179 384 207 414 207 453 L207 765 C207 804 177 835 140 835 C102 835 73 804 73 765 L73 453 C73 415 103 384 140 384 Z " />
<glyph glyph-name="backslash" unicode="&#x5c;" horiz-adv-x="382" d="M269 -56 C315 -56 345 -16 334 29 L174 707 C167 740 140 762 109 762 C60 762 33 716 43 676 L203 -1 C210 -33 237 -56 269 -56 Z " />
<glyph glyph-name="underscore" unicode="&#x5f;" horiz-adv-x="467" d="M470 -98 L-2 -98 L-2 -202 L470 -202 Z " />
<glyph glyph-name="quotesingle" unicode="&#x27;" horiz-adv-x="244" d="M226 645 C232 678 207 707 170 707 C134 707 110 682 105 649 L79 495 C74 462 99 431 137 431 C171 431 194 455 199 488 Z " />
<glyph glyph-name="quotedbl" unicode="&#x22;" horiz-adv-x="418" d="M223 645 C229 678 204 707 167 707 C131 707 107 682 102 649 L76 495 C71 462 96 431 134 431 C168 431 190 455 196 488 Z M400 645 C405 678 380 707 344 707 C308 707 284 682 279 649 L253 495 C248 462 272 431 311 431 C345 431 367 455 373 488 Z " />
<glyph glyph-name="at" unicode="&#x40;" horiz-adv-x="870" d="M391 58 C427 58 454 66 469 79 C480 88 485 101 485 118 C485 142 468 158 444 158 C431 158 422 153 406 153 C367 153 340 175 351 240 L359 289 C370 356 404 387 450 387 C497 387 536 356 524 294 L509 219 C492 136 553 60 648 60 C723 60 796 107 813 209 L829 302 C867 532 710 708 463 708 C286 708 114 614 61 370 C51 322 43 268 38 216 C14 -43 188 -157 376 -157 C420 -157 486 -148 527 -129 C563 -113 574 -91 574 -69 C574 -37 546 -5 493 -23 C457 -35 423 -44 386 -44 C238 -44 137 37 157 210 C162 254 173 326 181 360 C215 510 332 594 465 594 C626 594 748 485 716 316 L696 210 C691 186 678 167 654 167 C631 167 611 184 616 214 L631 297 C653 420 557 497 454 497 C362 497 272 445 252 306 L242 238 C225 121 297 58 391 58 Z " />
<glyph glyph-name="copyright" unicode="&#xa9;" horiz-adv-x="766" d="M383 709 C216 709 76 584 68 404 C67 370 67 332 68 297 C76 118 216 -6 383 -6 C549 -6 689 118 697 297 C699 331 699 370 697 404 C689 584 549 709 383 709 Z M383 619 C498 619 596 531 604 410 C606 381 606 319 604 291 C597 171 498 82 383 82 C268 82 169 171 162 291 C160 319 160 381 162 410 C169 531 268 619 383 619 Z M384 560 C291 560 225 494 218 402 C215 372 215 331 218 301 C226 210 291 144 384 144 C456 144 510 182 530 230 C535 241 539 250 539 258 C539 287 517 299 496 299 C477 299 467 286 459 272 C446 245 419 228 385 228 C342 228 312 262 311 311 C309 332 309 371 311 393 C313 441 342 476 385 476 C419 476 446 458 459 431 C467 417 477 405 496 405 C517 405 539 417 539 446 C539 453 535 462 530 473 C510 521 456 560 384 560 Z " />
<glyph glyph-name="registered" unicode="&#xae;" horiz-adv-x="602" d="M266 443 L266 507 L304 507 C328 507 340 494 340 474 C340 456 329 443 302 443 Z M234 290 C255 290 269 306 269 325 L269 388 L286 388 C292 388 296 387 300 380 L350 306 C355 298 365 290 378 290 C399 290 414 305 414 323 C414 333 411 341 406 348 L360 410 C386 423 406 443 406 483 C406 532 368 565 315 565 L236 565 C213 565 199 548 199 528 L199 325 C199 306 215 290 234 290 Z M300 222 C205 222 135 280 127 385 C125 406 125 452 127 474 C135 578 205 637 300 637 C395 637 465 578 473 474 C475 452 475 406 473 385 C465 280 395 222 300 222 Z M300 147 C438 147 542 248 550 388 C551 413 551 445 550 471 C542 611 438 711 300 711 C163 711 60 611 51 471 C49 445 49 413 51 388 C60 248 163 147 300 147 Z " />
<glyph glyph-name="trademark" unicode="&#x2122;" horiz-adv-x="629" d="M139 423 C162 423 176 441 179 462 L207 634 L259 634 C283 634 302 652 302 672 C302 690 289 707 268 707 L86 707 C63 707 44 689 44 668 C44 651 57 634 75 634 L132 634 L103 463 C100 442 117 423 139 423 Z M301 424 C321 424 332 438 338 457 L382 601 C383 606 384 608 386 608 C388 608 389 605 389 601 L397 468 C398 441 418 424 439 424 C463 424 479 441 490 467 L543 601 C545 607 546 608 548 608 C550 608 550 606 550 601 L543 460 C542 440 557 424 580 424 C604 424 617 443 617 467 L618 655 C618 695 592 711 565 711 C539 711 517 697 503 660 L457 538 C455 533 454 531 452 531 C450 531 449 533 449 539 L443 659 C442 692 419 711 392 711 C363 711 340 693 327 655 L267 473 C258 445 274 424 301 424 Z " />
<glyph glyph-name="ordfeminine" unicode="&#xaa;" horiz-adv-x="459" d="M175 272 C220 272 261 289 295 321 C302 306 311 292 321 283 C331 275 343 272 355 272 C383 272 409 294 409 325 C409 334 406 346 400 357 C385 386 372 407 380 454 L406 611 C411 638 405 654 388 666 C369 681 312 709 237 709 C131 709 63 655 43 548 C37 519 33 489 29 450 C17 337 86 272 175 272 Z M194 380 C154 380 130 403 135 453 C137 479 143 514 149 537 C158 575 185 600 229 600 C254 600 283 593 297 585 L284 512 C278 472 272 436 271 409 C248 391 220 380 194 380 Z " />
<glyph glyph-name="ordmasculine" unicode="&#xba;" horiz-adv-x="430" d="M230 708 C124 708 58 642 37 534 C32 506 30 483 28 445 C22 342 103 272 202 272 C308 272 370 340 390 442 C394 466 399 500 401 522 C410 632 339 708 230 708 Z M224 598 C262 598 287 568 285 530 C283 500 280 475 275 449 C266 405 243 381 205 381 C167 381 138 408 142 455 C144 485 147 504 152 529 C160 570 187 598 224 598 Z " />
<glyph glyph-name="numbersign" unicode="&#x23;" horiz-adv-x="691" d="M88 -9 C113 -9 132 8 145 35 L215 176 L300 176 L248 73 C224 26 259 -9 297 -9 C323 -9 341 8 354 35 L425 176 L501 176 C551 176 576 205 576 240 C576 271 553 296 512 296 L484 296 L544 416 L619 416 C670 416 693 448 693 479 C693 508 670 535 628 535 L600 535 L647 629 C667 672 644 710 602 710 C575 710 555 693 542 667 L478 535 L390 535 L437 629 C457 672 434 710 392 710 C365 710 345 693 332 667 L268 535 L190 535 C144 535 116 509 116 473 C116 442 142 416 174 416 L209 416 L149 296 L73 296 C27 296 -2 269 -2 233 C-2 204 23 176 56 176 L91 176 L39 73 C19 33 41 -9 88 -9 Z M274 296 L333 416 L418 416 L359 296 Z " />
<glyph glyph-name="currency" unicode="&#xa4;" horiz-adv-x="603" d="M309 139 C349 139 381 151 408 168 L472 106 C484 94 500 88 517 88 C550 88 574 115 574 145 C574 160 568 176 555 189 L482 262 C490 281 493 297 494 318 C495 338 495 361 494 380 C493 400 488 422 482 440 L554 513 C567 526 574 542 574 558 C574 589 546 615 517 615 C500 615 486 609 472 595 L407 531 C380 549 349 561 309 561 C270 561 239 549 212 531 L147 595 C134 608 118 615 102 615 C71 615 45 587 45 558 C45 543 51 528 65 513 L138 438 C131 420 126 400 125 380 C124 361 124 338 125 318 C126 298 130 280 137 263 L64 189 C51 176 45 160 45 145 C45 113 71 88 102 88 C116 88 132 92 147 106 L211 169 C238 151 269 139 309 139 Z M309 248 C266 248 234 282 232 323 C231 341 231 358 232 376 C235 417 267 452 309 452 C352 452 387 416 387 374 C387 354 387 341 387 324 C387 283 352 248 309 248 Z " />
<glyph glyph-name="Euro" unicode="&#x20ac;" horiz-adv-x="628" d="M106 480 C73 480 44 457 44 425 C44 398 64 373 96 373 L117 373 L110 329 L77 329 C45 329 17 305 17 273 C17 243 42 219 68 219 L98 219 C103 61 216 -9 339 -9 C406 -9 470 14 519 53 C543 71 562 94 562 119 C562 145 543 173 507 173 C490 173 477 166 465 158 C418 123 385 107 341 107 C274 107 227 143 224 219 L356 219 C403 219 424 249 424 278 C424 304 407 329 370 329 L236 329 L244 373 L385 373 C425 373 446 403 446 430 C446 455 428 480 388 480 L274 480 C294 553 355 591 425 591 C465 591 495 580 526 554 C543 541 558 529 583 529 C616 529 641 556 641 588 C641 602 635 617 623 631 C582 679 509 710 424 710 C277 710 176 620 138 480 Z " />
<glyph glyph-name="dollar" unicode="&#x24;" horiz-adv-x="590" d="M232 -89 C259 -89 287 -72 293 -36 L301 14 C439 22 538 104 538 219 C538 338 430 379 349 407 C269 436 214 450 214 496 C214 541 265 565 328 565 C370 565 412 555 450 535 C466 528 479 520 497 520 C537 520 560 552 560 586 C560 601 554 617 540 631 C511 659 453 680 413 689 L420 727 C427 763 404 790 364 790 C333 790 309 773 301 727 L294 688 C191 684 71 613 71 487 C71 383 154 332 273 294 C349 271 394 256 394 213 C394 168 347 142 288 141 C224 141 169 161 123 192 C108 202 93 214 69 214 C30 214 2 182 2 148 C2 131 8 114 24 98 C64 59 141 29 185 22 L176 -26 C168 -65 199 -89 232 -89 Z " />
<glyph glyph-name="cent" unicode="&#xa2;" horiz-adv-x="544" d="M235 -9 C270 -9 291 20 297 54 L308 120 C373 128 416 168 439 209 C448 225 455 244 455 260 C455 289 427 311 400 311 C366 311 351 287 342 272 C327 247 307 229 276 229 C222 229 200 267 203 311 C205 330 211 365 217 388 C231 441 265 468 312 468 C348 468 362 449 372 426 C382 407 393 390 428 390 C463 390 484 417 484 448 C484 462 478 479 473 490 C455 528 422 556 383 571 L396 646 C402 680 379 710 341 710 C304 710 283 682 277 646 L266 575 C179 564 117 504 95 399 C87 364 85 340 82 314 C73 224 114 156 190 128 L178 59 C172 25 196 -9 235 -9 Z " />
<glyph glyph-name="sterling" unicode="&#xa3;" horiz-adv-x="623" d="M232 135 C260 173 279 220 284 268 L381 268 C433 268 463 300 463 338 C463 372 437 397 400 397 L291 397 C288 433 285 465 290 494 C297 533 326 576 386 576 C430 576 459 561 496 532 C512 520 528 514 543 514 C580 514 607 539 607 578 C607 594 601 607 587 625 C551 671 480 710 390 710 C265 710 173 631 157 504 C152 461 153 433 156 397 L119 397 C74 397 42 368 42 330 C42 297 66 268 102 268 L149 268 C142 205 100 154 72 101 C50 48 79 0 138 0 L480 0 C532 0 563 33 563 70 C563 105 536 135 499 135 Z " />
<glyph glyph-name="florin" unicode="&#x192;" horiz-adv-x="581" d="M73 -204 C105 -204 132 -183 141 -154 L273 280 L417 280 C455 280 486 308 486 344 C486 383 456 408 417 408 L312 408 L349 530 C358 557 374 573 407 573 C438 573 456 561 467 551 C484 537 503 530 521 530 C555 530 585 555 585 597 C585 614 579 632 566 645 C532 680 476 710 399 710 C316 710 247 666 218 577 L166 408 L101 408 C62 408 32 382 32 344 C32 304 63 280 101 280 L127 280 L7 -110 C-8 -157 20 -204 73 -204 Z " />
<glyph glyph-name="yen" unicode="&#xa5;" horiz-adv-x="640" d="M264 -5 C295 -5 324 17 330 59 L348 172 L423 172 C469 172 503 204 503 240 C503 276 478 301 438 301 L368 301 L370 308 C373 319 387 333 406 351 L650 587 C668 604 676 624 676 645 C676 679 650 707 611 707 C591 707 572 699 554 681 L316 447 L168 668 C150 695 128 707 104 707 C64 707 35 679 35 641 C35 625 44 606 52 596 L216 354 C228 336 239 323 236 308 L234 301 L162 301 C116 301 82 272 82 233 C82 200 106 172 142 172 L214 172 L200 78 C193 31 219 -5 264 -5 Z " />
<glyph glyph-name="zero" unicode="0" horiz-adv-x="681" d="M325 -10 C467 -10 567 78 603 256 C614 310 624 387 626 420 C637 569 535 707 360 707 C217 707 112 627 78 448 C67 393 57 313 55 280 C44 131 147 -10 325 -10 Z M326 117 C234 117 176 182 187 286 C191 324 201 386 208 427 C226 524 274 577 358 577 C445 577 502 514 493 414 C489 375 478 310 471 274 C453 177 406 117 326 117 Z " />
<glyph glyph-name="one" unicode="1" horiz-adv-x="483" d="M243 -5 C278 -5 302 21 309 65 L404 633 C412 678 383 707 349 707 C333 707 314 699 299 691 L100 587 C71 572 52 548 52 520 C52 482 80 458 114 458 C126 458 138 461 150 467 L252 520 L177 74 C169 25 204 -5 243 -5 Z " />
<glyph glyph-name="two" unicode="2" horiz-adv-x="592" d="M171 134 C184 175 235 200 339 261 C447 324 551 393 551 515 C551 630 458 707 333 707 C229 707 147 653 104 601 C89 583 81 567 81 549 C81 514 110 489 144 489 C169 489 184 502 204 519 C236 546 275 578 330 578 C388 578 416 542 416 507 C416 435 297 387 183 313 C105 263 31 202 15 113 C4 51 25 0 91 0 L419 0 C465 0 501 30 501 71 C501 104 477 134 436 134 Z " />
<glyph glyph-name="three" unicode="3" horiz-adv-x="588" d="M347 567 L197 439 C175 420 159 406 159 381 C159 350 186 330 216 330 C233 330 262 337 289 337 C342 337 382 309 382 259 C382 158 216 125 126 125 C109 125 96 127 82 127 C36 127 9 97 9 63 C9 24 38 -5 128 -5 C292 -5 517 67 517 256 C517 355 455 422 357 437 L508 567 C532 587 543 613 543 638 C543 682 508 705 471 705 L151 705 C107 705 75 672 75 634 C75 600 101 570 147 570 L346 570 Z " />
<glyph glyph-name="four" unicode="4" horiz-adv-x="654" d="M336 154 L322 72 C313 23 348 -3 386 -3 C425 -3 447 24 454 66 L468 154 L520 154 C573 154 603 192 603 228 C603 260 580 289 537 289 L490 289 L547 605 C558 663 521 709 468 709 C421 709 390 681 363 651 L49 309 C27 286 9 259 9 228 C9 187 41 154 101 154 Z M357 284 L184 284 L401 521 Z " />
<glyph glyph-name="five" unicode="5" horiz-adv-x="607" d="M552 277 C552 389 471 472 343 472 C306 472 266 465 219 444 L241 570 L490 570 C538 570 576 600 576 642 C576 677 550 705 512 705 L218 705 C174 705 126 690 114 616 L79 396 C68 329 124 294 190 321 C238 341 273 354 312 354 C371 354 417 325 417 274 C417 189 288 125 145 125 C113 125 95 127 82 127 C43 127 12 105 12 65 C12 -1 93 -5 136 -5 C335 -5 552 83 552 277 Z " />
<glyph glyph-name="six" unicode="6" horiz-adv-x="664" d="M317 -10 C488 -10 586 117 586 255 C586 366 520 461 364 461 C311 461 265 450 220 429 C247 532 331 579 436 579 C480 579 515 573 537 573 C584 573 612 599 612 635 C612 664 594 684 570 694 C544 705 487 712 440 712 C177 712 56 488 56 279 C56 103 141 -10 317 -10 Z M309 122 C242 122 189 167 189 255 C189 268 190 284 193 303 C228 324 282 342 336 342 C408 342 449 311 449 250 C449 175 387 122 309 122 Z " />
<glyph glyph-name="seven" unicode="7" horiz-adv-x="543" d="M135 -4 C165 -4 187 13 205 49 C275 200 372 352 549 576 C565 595 574 616 574 638 C574 680 540 705 492 705 L132 705 C88 705 53 677 53 634 C53 601 77 570 117 570 L383 570 C232 380 134 232 74 89 C52 36 89 -4 135 -4 Z " />
<glyph glyph-name="eight" unicode="8" horiz-adv-x="679" d="M356 417 C291 417 237 445 237 498 C237 561 306 584 371 584 C441 584 492 559 492 509 C492 453 431 417 356 417 Z M328 118 C241 118 191 148 191 201 C191 273 250 305 333 305 C413 305 464 275 464 219 C464 146 397 118 328 118 Z M329 -10 C488 -10 606 64 606 204 C606 291 548 343 504 365 C585 387 624 454 624 528 C624 637 519 707 363 707 C233 707 105 645 105 504 C105 444 132 400 186 370 C89 349 49 263 49 198 C49 55 182 -10 329 -10 Z " />
<glyph glyph-name="nine" unicode="9" horiz-adv-x="661" d="M456 278 C427 183 309 119 125 125 C86 126 53 100 53 63 C53 23 79 -4 142 -4 C460 -4 614 161 614 425 C614 606 501 707 346 707 C194 707 79 619 79 464 C79 338 171 245 318 245 C368 245 425 258 456 278 Z M476 394 C435 374 388 361 339 361 C252 361 215 405 215 457 C215 527 270 577 345 577 C432 577 470 521 476 444 C478 419 478 415 476 394 Z " />
<glyph glyph-name="onesuperior" unicode="&#xb9;" horiz-adv-x="332" d="M178 243 C213 243 232 269 238 304 L293 637 C299 673 278 700 244 700 C234 700 219 696 208 691 L64 615 C40 603 29 581 29 561 C29 516 74 502 107 518 L164 544 L125 310 C119 275 139 243 178 243 Z " />
<glyph glyph-name="twosuperior" unicode="&#xb2;" horiz-adv-x="424" d="M159 358 C159 381 216 404 247 419 C322 456 373 508 373 577 C373 652 309 707 227 707 C172 707 115 683 82 644 C70 631 62 615 62 597 C62 570 84 551 109 551 C128 551 140 561 151 570 C168 585 191 604 220 604 C244 604 261 591 261 568 C261 525 166 489 132 468 C74 432 23 377 23 298 C23 266 42 246 76 246 L274 246 C323 246 347 277 347 306 C347 332 328 358 288 358 Z " />
<glyph glyph-name="threesuperior" unicode="&#xb3;" horiz-adv-x="403" d="M211 579 L131 516 C118 506 114 494 114 484 C114 462 132 447 155 447 C166 447 181 451 196 451 C226 451 240 435 240 414 C240 359 161 342 113 342 C101 342 86 342 78 342 C38 342 15 318 15 290 C15 263 36 245 60 239 C72 236 95 234 113 234 C240 234 351 296 351 413 C351 475 314 515 264 528 L327 581 C349 600 364 623 364 644 C364 676 340 694 303 694 L127 694 C84 694 60 663 60 633 C60 606 79 579 120 579 Z " />
<glyph glyph-name="fraction" unicode="&#x2044;" horiz-adv-x="281" d="M-50 -33 C-29 -33 -8 -22 5 1 L367 638 C375 651 378 666 378 677 C378 712 346 734 314 734 C293 734 271 724 257 699 L-105 62 C-111 50 -115 38 -115 27 C-115 -8 -83 -33 -50 -33 Z " />
<glyph glyph-name="onequarter" unicode="&#xbc;" horiz-adv-x="1013" d="M811 0 C835 0 856 15 862 50 L869 90 L902 90 C944 90 965 117 965 143 C965 166 948 188 913 188 L886 188 L918 382 C927 432 898 457 858 457 C834 457 812 445 791 424 L583 218 C560 196 539 173 539 142 C539 107 566 87 604 87 L773 87 L767 53 C761 18 785 0 811 0 Z M789 188 L679 188 L813 326 Z M181 243 C216 243 236 269 242 304 L297 637 C303 673 282 700 248 700 C238 700 223 696 212 691 L67 615 C43 603 32 581 32 561 C32 516 77 502 111 518 L167 544 L128 310 C122 275 143 243 181 243 Z M265 -32 C285 -32 307 -21 320 2 L681 639 C689 651 692 667 692 678 C692 713 660 735 628 735 C607 735 586 725 572 700 L210 63 C203 51 200 39 200 28 C200 -7 231 -32 265 -32 Z " />
<glyph glyph-name="onehalf" unicode="&#xbd;" horiz-adv-x="1016" d="M280 -33 C301 -33 322 -22 335 1 L697 638 C705 651 708 666 708 677 C708 712 676 734 644 734 C623 734 601 724 587 699 L225 62 C219 50 215 38 215 27 C215 -8 247 -33 280 -33 Z M195 243 C230 243 249 269 255 304 L310 637 C316 673 295 700 261 700 C251 700 236 696 225 691 L81 615 C57 603 46 581 46 561 C46 516 91 502 124 518 L181 544 L142 310 C136 275 156 243 195 243 Z M749 112 C749 135 806 158 837 173 C912 210 963 262 963 331 C963 406 899 461 817 461 C762 461 705 437 672 398 C660 385 652 369 652 351 C652 324 674 305 699 305 C718 305 730 315 741 324 C758 339 781 358 810 358 C834 358 851 345 851 322 C851 279 756 243 722 222 C664 186 613 131 613 52 C613 20 632 0 666 0 L864 0 C913 0 937 31 937 60 C937 86 918 112 878 112 Z " />
<glyph glyph-name="threequarters" unicode="&#xbe;" horiz-adv-x="1075" d="M877 0 C901 0 922 15 928 50 L935 90 L968 90 C1010 90 1032 117 1032 143 C1032 166 1014 188 979 188 L952 188 L985 382 C993 432 964 457 925 457 C900 457 878 445 857 424 L649 218 C626 196 605 173 605 142 C605 107 632 87 670 87 L839 87 L833 53 C827 18 851 0 877 0 Z M855 188 L745 188 L880 326 Z M347 -33 C368 -33 389 -22 402 1 L764 638 C772 651 775 666 775 677 C775 712 743 734 711 734 C690 734 668 724 654 699 L292 62 C286 50 282 38 282 27 C282 -8 314 -33 347 -33 Z M227 579 L147 516 C134 506 130 494 130 484 C130 462 148 447 171 447 C182 447 197 451 212 451 C242 451 256 435 256 414 C256 359 177 342 129 342 C117 342 102 342 94 342 C54 342 31 318 31 290 C31 263 52 245 76 239 C88 236 111 234 129 234 C256 234 367 296 367 413 C367 475 330 515 280 528 L343 581 C365 600 380 623 380 644 C380 676 356 694 319 694 L143 694 C100 694 76 663 76 633 C76 606 95 579 136 579 Z " />
<glyph glyph-name="percent" unicode="&#x25;" horiz-adv-x="834" d="M192 346 C279 346 339 399 359 493 C363 511 367 539 367 560 C367 650 303 710 214 710 C124 710 57 654 41 562 C38 545 35 518 35 499 C35 412 92 346 192 346 Z M194 443 C154 443 134 467 134 502 C134 516 138 539 141 553 C150 588 177 612 208 612 C247 612 265 588 265 553 C265 539 262 518 258 502 C249 468 228 443 194 443 Z M199 83 C215 83 231 90 247 106 L668 519 C684 535 690 552 690 568 C690 599 664 624 633 624 C617 624 601 618 585 602 L165 189 C149 173 142 156 142 140 C142 109 168 83 199 83 Z M616 -8 C703 -8 763 45 783 139 C787 157 791 185 791 206 C791 296 727 356 638 356 C548 356 481 300 465 208 C462 191 459 164 459 145 C459 58 516 -8 616 -8 Z M618 89 C578 89 558 113 558 148 C558 162 562 185 565 199 C574 234 601 258 632 258 C671 258 689 234 689 199 C689 185 686 164 682 148 C673 114 652 89 618 89 Z " />
<glyph glyph-name="perthousand" unicode="&#x2030;" horiz-adv-x="1204" d="M192 346 C279 346 339 399 359 493 C363 511 367 539 367 560 C367 650 303 710 214 710 C124 710 57 654 41 562 C38 545 35 518 35 499 C35 412 92 346 192 346 Z M194 443 C154 443 134 467 134 502 C134 516 138 539 141 553 C150 588 177 612 208 612 C247 612 265 588 265 553 C265 539 262 518 258 502 C249 468 228 443 194 443 Z M199 83 C215 83 231 90 247 106 L668 519 C684 535 690 552 690 568 C690 599 664 624 633 624 C617 624 601 618 585 602 L165 189 C149 173 142 156 142 140 C142 109 168 83 199 83 Z M616 -8 C703 -8 763 45 783 139 C787 157 791 185 791 206 C791 296 727 356 638 356 C548 356 481 300 465 208 C462 191 459 164 459 145 C459 58 516 -8 616 -8 Z M618 89 C578 89 558 113 558 148 C558 162 562 185 565 199 C574 234 601 258 632 258 C671 258 689 234 689 199 C689 185 686 164 682 148 C673 114 652 89 618 89 Z M986 -8 C1073 -8 1133 45 1153 139 C1157 157 1161 185 1161 206 C1161 296 1097 356 1008 356 C918 356 851 300 835 208 C832 191 829 164 829 145 C829 58 886 -8 986 -8 Z M988 89 C948 89 928 113 928 148 C928 162 932 185 935 199 C944 234 971 258 1002 258 C1041 258 1059 234 1059 199 C1059 185 1056 164 1052 148 C1043 114 1022 89 988 89 Z " />
<glyph glyph-name="plus" unicode="&#x2b;" horiz-adv-x="613" d="M306 94 C343 94 370 123 370 159 L370 286 L495 286 C529 286 560 315 560 350 C560 386 531 414 495 414 L370 414 L370 540 C370 576 343 605 306 605 C272 605 243 576 243 540 L243 414 L116 414 C80 414 51 386 51 350 C51 315 80 286 116 286 L243 286 L243 159 C243 125 271 94 306 94 Z " />
<glyph glyph-name="minus" unicode="&#x2212;" horiz-adv-x="613" d="M495 286 C530 286 560 315 560 350 C560 386 531 414 495 414 L117 414 C80 414 52 386 52 350 C52 315 80 286 117 286 Z " />
<glyph glyph-name="plusminus" unicode="&#xb1;" horiz-adv-x="613" d="M307 150 C344 150 370 179 370 216 L370 343 L495 343 C530 343 560 371 560 406 C560 443 531 470 495 470 L370 470 L370 596 C370 632 344 661 307 661 C272 661 243 632 243 596 L243 470 L117 470 C80 470 52 443 52 406 C52 371 80 343 117 343 L243 343 L243 216 C243 181 272 150 307 150 Z M495 0 C530 0 560 28 560 64 C560 100 531 127 495 127 L117 127 C80 127 52 100 52 64 C52 28 80 0 117 0 Z " />
<glyph glyph-name="multiply" unicode="&#xd7;" horiz-adv-x="613" d="M306 262 L428 141 C454 115 495 114 521 142 C544 168 543 208 517 233 L396 351 L518 473 C542 497 544 536 521 562 C495 589 453 588 428 562 L306 441 L182 565 C157 590 118 592 92 566 C67 542 67 500 92 474 L216 351 L93 229 C67 203 67 161 92 137 C119 112 157 113 183 138 Z " />
<glyph glyph-name="divide" unicode="&#xf7;" horiz-adv-x="613" d="M297 628 C262 623 234 588 239 551 C243 515 278 488 314 492 C351 497 378 532 373 567 C369 605 334 632 297 628 Z M297 209 C262 204 234 170 239 133 C243 96 278 70 314 74 C351 79 378 113 373 150 C369 187 334 213 297 209 Z M495 286 C530 286 560 314 560 349 C560 386 531 413 495 413 L117 413 C80 413 52 386 52 349 C52 314 80 286 117 286 Z " />
<glyph glyph-name="equal" unicode="&#x3d;" horiz-adv-x="613" d="M488 393 C523 393 553 422 553 457 C553 493 525 521 488 521 L124 521 C88 521 59 493 59 457 C59 422 88 393 124 393 Z M488 181 C523 181 553 209 553 244 C553 281 526 308 488 308 L124 308 C88 308 59 281 59 244 C59 209 88 181 124 181 Z " />
<glyph glyph-name="less" unicode="&#x3c;" horiz-adv-x="613" d="M443 664 C429 664 415 659 402 648 L140 435 C108 409 93 384 93 350 C93 316 108 291 140 265 L402 52 C415 41 430 36 444 36 C479 36 507 67 507 100 C507 119 498 138 483 150 L256 334 C249 339 245 343 245 350 C245 357 249 361 256 366 L482 550 C498 562 506 581 506 600 C506 635 475 664 443 664 Z " />
<glyph glyph-name="greater" unicode="&#x3e;" horiz-adv-x="613" d="M173 36 C187 36 201 41 215 52 L476 265 C508 291 524 316 524 350 C524 384 508 409 476 435 L214 648 C201 659 186 664 172 664 C138 664 110 633 110 600 C110 581 118 562 134 550 L360 366 C367 361 372 357 372 350 C372 343 367 339 360 334 L134 150 C118 138 110 119 110 100 C110 65 141 36 173 36 Z " />
<glyph glyph-name="lessequal" unicode="&#x2264;" horiz-adv-x="613" d="M281 404 C273 409 268 412 268 419 C268 426 273 429 281 434 L478 549 C509 566 518 606 500 637 C482 666 445 676 414 658 L156 507 C112 481 100 451 100 419 C100 387 112 357 156 331 L414 180 C445 162 482 172 500 201 C518 232 508 273 478 290 Z M447 -3 C482 -3 512 26 512 61 C512 98 483 125 447 125 L164 125 C128 125 100 98 100 61 C100 26 128 -3 164 -3 Z " />
<glyph glyph-name="greaterequal" unicode="&#x2265;" horiz-adv-x="613" d="M134 290 C105 273 95 232 113 201 C131 172 168 162 198 180 L456 331 C500 357 512 387 512 419 C512 451 501 481 456 507 L198 658 C167 676 131 666 113 637 C95 606 104 566 134 549 L332 434 C340 429 344 426 344 419 C344 412 340 409 332 404 Z M448 -3 C484 -3 512 26 512 61 C512 98 484 125 448 125 L166 125 C129 125 100 98 100 61 C100 26 130 -3 166 -3 Z " />
<glyph glyph-name="logicalnot" unicode="&#xac;" horiz-adv-x="613" d="M427 286 L427 159 C427 125 455 94 491 94 C528 94 554 122 554 159 L554 337 C554 379 528 414 477 414 L111 414 C74 414 46 386 46 350 C46 314 74 286 111 286 Z " />
<glyph glyph-name="degree" unicode="&#xb0;" horiz-adv-x="389" d="M198 430 C288 430 344 506 344 585 C344 653 291 709 216 709 C117 709 64 632 64 553 C64 484 118 430 198 430 Z M199 514 C164 514 149 537 149 562 C149 592 171 625 208 625 C242 625 257 602 257 577 C257 547 236 514 199 514 Z " />
<glyph glyph-name="&amp;#xb5;" unicode="&#xb5;" horiz-adv-x="603" d="M80 -201 C115 -201 138 -177 145 -132 L173 32 C205 4 246 -9 293 -9 C369 -9 443 25 476 47 C495 59 503 72 507 95 L570 466 C578 514 547 539 509 539 C474 539 448 518 439 466 L384 149 C359 132 323 124 294 124 C234 124 194 155 207 232 L246 465 C254 511 225 539 185 539 C146 539 122 514 114 465 L17 -122 C9 -169 41 -201 80 -201 Z " />
<glyph glyph-name="&amp;#x3bc;" unicode="&#x3bc;" horiz-adv-x="603" d="M80 -201 C115 -201 138 -177 145 -132 L173 32 C205 4 246 -9 293 -9 C369 -9 443 25 476 47 C495 59 503 72 507 95 L570 466 C578 514 547 539 509 539 C474 539 448 518 439 466 L384 149 C359 132 323 124 294 124 C234 124 194 155 207 232 L246 465 C254 511 225 539 185 539 C146 539 122 514 114 465 L17 -122 C9 -169 41 -201 80 -201 Z " />
<glyph glyph-name="fi" unicode="&#xfb01;" horiz-adv-x="715" d="M142 506 L109 506 C74 506 46 481 46 449 C46 415 67 389 108 389 L122 389 L71 78 C63 30 89 -4 135 -4 C166 -4 194 16 201 58 L256 389 L366 389 C402 389 430 413 430 447 C430 479 407 506 368 506 L272 506 L276 534 C283 576 302 605 349 605 C387 605 404 591 432 591 C470 591 489 624 489 652 C489 675 476 691 455 704 C441 711 399 727 353 727 C229 727 168 660 148 541 Z M693 675 C693 713 665 743 626 743 C582 743 550 707 550 667 C550 628 578 598 619 598 C662 598 693 636 693 675 Z M455 78 C447 30 474 -4 520 -4 C550 -4 579 16 586 58 L652 456 C660 504 633 539 588 539 C555 539 529 518 522 476 Z " />
<glyph glyph-name="fl" unicode="&#xfb02;" horiz-adv-x="729" d="M142 506 L109 506 C74 506 46 481 46 449 C46 415 67 389 108 389 L122 389 L71 78 C63 30 89 -4 135 -4 C166 -4 194 16 201 58 L256 389 L366 389 C402 389 430 413 430 447 C430 479 407 506 368 506 L272 506 L276 534 C283 576 302 605 349 605 C387 605 404 591 432 591 C470 591 489 624 489 652 C489 675 476 691 455 704 C441 711 399 727 353 727 C229 727 168 660 148 541 Z M482 78 C474 30 501 -4 547 -4 C577 -4 606 16 613 58 L708 634 C717 682 690 717 644 717 C612 717 585 696 578 654 Z " />
<glyph glyph-name="ampersand" unicode="&#x26;" horiz-adv-x="696" d="M271 -9 C365 -9 439 20 498 70 L563 10 C592 -16 634 -9 658 19 C682 47 675 89 648 113 L581 171 C594 193 606 216 617 241 C646 308 601 340 565 340 C532 340 518 320 487 262 L484 256 L388 339 C504 390 555 454 555 530 C555 634 464 707 326 707 C205 707 101 640 101 520 C101 456 140 411 174 377 C93 341 23 281 23 187 C23 63 143 -9 271 -9 Z M274 119 C201 119 159 146 159 192 C159 240 208 271 259 291 L401 159 C367 134 324 119 274 119 Z M293 421 C259 452 238 480 238 511 C238 554 279 581 336 581 C390 581 417 553 417 521 C417 478 372 449 293 421 Z " />
<glyph glyph-name="ampersand.alt" horiz-adv-x="696" d="M267 -10 C409 -10 514 64 558 210 L605 210 C652 210 678 247 678 282 C678 314 656 345 608 345 L539 345 C475 345 457 305 440 252 C424 190 364 117 266 117 C201 117 153 147 153 195 C153 258 237 287 302 307 C444 350 561 408 561 531 C561 641 466 707 329 707 C209 707 95 635 95 510 C95 448 129 401 163 372 C69 339 14 271 14 189 C14 54 139 -10 267 -10 Z M282 422 C258 438 233 462 233 500 C233 555 282 581 337 581 C394 581 422 555 422 520 C422 467 357 440 282 422 Z " />
<glyph glyph-name="Q.alt" horiz-adv-x="718" d="M294 -162 C320 -162 346 -145 353 -105 L368 -10 C530 6 631 108 660 277 C666 312 674 374 677 406 C692 582 572 716 383 716 C209 716 93 604 61 437 C53 398 46 342 43 304 C30 144 126 31 247 -2 L234 -80 C226 -128 251 -162 294 -162 Z M406 217 C413 260 392 297 351 297 C320 297 294 277 287 235 L269 132 C212 156 170 212 179 296 C184 346 190 384 199 423 C225 532 298 585 379 585 C479 585 546 516 538 412 C535 364 528 319 516 271 C497 195 455 143 391 125 Z " />
<glyph glyph-name="r.alt" horiz-adv-x="379" d="M216 397 C231 407 254 413 275 413 C301 413 317 405 343 405 C390 405 413 437 413 471 C413 498 398 516 379 527 C353 540 316 546 280 546 C219 546 156 528 117 499 C103 489 96 482 93 463 L29 76 C21 31 52 -3 92 -3 C132 -3 153 27 160 66 Z " />
<glyph glyph-name="zero.onum" horiz-adv-x="619" d="M319 546 C193 546 86 471 54 332 C47 303 42 263 41 232 C38 86 152 -10 303 -10 C444 -10 524 69 557 185 C567 218 571 255 574 294 C584 443 466 546 319 546 Z M319 418 C388 418 451 368 443 282 C441 261 439 248 435 230 C416 147 355 117 299 117 C230 117 165 155 171 247 C172 267 174 278 178 297 C194 378 254 418 319 418 Z " />
<glyph glyph-name="one.onum" horiz-adv-x="468" d="M255 -5 C294 -5 316 23 323 67 L389 463 C397 513 362 539 321 539 C310 539 300 537 291 534 L113 469 C73 455 52 428 52 400 C52 351 102 331 144 346 L244 384 L192 71 C184 23 218 -5 255 -5 Z " />
<glyph glyph-name="two.onum" horiz-adv-x="593" d="M183 125 C202 164 257 172 342 198 C442 228 547 271 547 376 C547 480 449 539 329 539 C269 539 199 522 145 485 C117 466 98 447 98 419 C98 392 119 359 158 359 C179 359 193 369 203 375 C242 399 287 420 339 420 C391 420 416 401 416 380 C416 329 284 307 186 268 C99 234 41 170 41 92 C41 41 73 0 147 0 L434 0 C488 0 516 33 516 67 C516 97 494 125 448 125 Z " />
<glyph glyph-name="three.onum" horiz-adv-x="577" d="M333 390 L184 253 C162 233 150 221 150 196 C150 164 177 145 205 145 C223 145 235 149 260 149 C320 149 354 113 354 70 C354 -14 253 -71 94 -71 C81 -71 69 -70 56 -70 C8 -70 -19 -100 -19 -137 C-19 -172 4 -203 68 -203 C357 -203 489 -86 489 76 C489 147 441 222 340 246 L494 391 C519 411 529 435 529 462 C529 505 494 528 458 528 L138 528 C94 528 62 495 62 458 C62 424 88 393 126 393 L332 393 Z " />
<glyph glyph-name="four.onum" horiz-adv-x="653" d="M334 2 L314 -130 C307 -179 340 -205 377 -205 C417 -205 440 -178 446 -136 L467 2 L518 2 C572 2 601 40 601 76 C601 108 578 137 535 137 L489 137 L541 433 C551 491 515 539 462 539 C414 539 385 508 357 479 L47 158 C24 135 7 107 7 77 C7 36 40 2 99 2 Z M355 133 L182 133 L394 349 Z " />
<glyph glyph-name="five.onum" horiz-adv-x="612" d="M552 77 C552 193 467 279 336 279 C308 279 270 274 220 254 L245 393 L494 393 C542 393 580 423 580 465 C580 500 554 528 516 528 L222 528 C178 528 130 513 118 439 L80 206 C69 139 125 104 191 131 C239 151 274 164 313 164 C372 164 417 125 417 74 C417 -11 288 -73 145 -73 C113 -73 95 -71 82 -71 C43 -71 12 -93 12 -133 C12 -199 93 -203 136 -203 C342 -203 552 -116 552 77 Z " />
<glyph glyph-name="six.onum" horiz-adv-x="665" d="M317 -10 C488 -10 586 117 586 255 C586 366 520 461 364 461 C311 461 265 450 220 429 C247 532 331 579 436 579 C480 579 515 573 537 573 C584 573 612 599 612 635 C612 664 594 684 570 694 C544 705 487 712 440 712 C177 712 56 488 56 279 C56 103 141 -10 317 -10 Z M309 122 C242 122 189 167 189 255 C189 268 190 284 193 303 C228 324 282 342 336 342 C408 342 449 311 449 250 C449 175 387 122 309 122 Z " />
<glyph glyph-name="seven.onum" horiz-adv-x="540" d="M115 -203 C145 -203 167 -186 184 -149 C255 8 360 175 538 400 C553 419 562 440 562 462 C562 503 528 528 480 528 L120 528 C77 528 42 500 42 458 C42 424 66 394 105 394 L371 394 C221 204 116 42 54 -110 C32 -163 69 -203 115 -203 Z " />
<glyph glyph-name="eight.onum" horiz-adv-x="689" d="M362 417 C297 417 243 445 243 498 C243 561 312 584 377 584 C447 584 498 559 498 509 C498 453 437 417 362 417 Z M334 118 C247 118 197 148 197 201 C197 273 256 305 339 305 C419 305 470 275 470 219 C470 146 403 118 334 118 Z M335 -10 C494 -10 612 64 612 204 C612 291 554 343 510 365 C591 387 630 454 630 528 C630 637 525 707 369 707 C239 707 111 645 111 504 C111 444 138 400 192 370 C95 349 55 263 55 198 C55 55 188 -10 335 -10 Z " />
<glyph glyph-name="nine.onum" horiz-adv-x="659" d="M443 100 C410 -4 293 -81 109 -73 C70 -71 37 -97 37 -135 C37 -175 63 -202 126 -202 C450 -202 608 -9 608 286 C608 440 502 546 340 546 C195 546 73 449 73 292 C73 176 155 69 323 69 C359 69 415 82 443 100 Z M466 219 C425 198 379 185 330 185 C243 185 209 232 209 288 C209 358 265 412 349 412 C417 412 472 359 472 282 C472 257 470 240 466 219 Z " />
<glyph glyph-name="sterling.alt" horiz-adv-x="565" d="M392 272 C443 267 468 308 468 342 C468 374 448 403 400 403 L299 403 C308 427 316 450 328 477 C361 552 387 576 432 576 C448 576 463 572 477 564 C489 557 503 554 515 554 C555 554 582 579 582 619 C582 636 573 656 557 672 C527 698 481 710 437 710 C301 710 237 610 189 474 C181 451 173 427 164 403 L105 403 C53 403 27 366 27 331 C27 300 48 272 91 272 L111 272 C96 239 83 214 70 193 C49 158 34 133 28 110 C11 53 40 0 102 0 L420 0 C474 0 500 37 500 72 C500 104 475 135 427 135 L193 135 C186 135 183 137 183 141 C183 145 189 154 193 161 C209 188 228 225 248 272 Z " />
<glyph glyph-name="commaaccent" horiz-adv-x="389" d="M160 -270 C184 -270 203 -255 218 -237 C243 -208 251 -178 260 -136 L270 -88 C276 -57 256 -28 222 -28 C196 -28 173 -47 167 -78 L157 -135 C153 -160 143 -176 129 -193 C121 -203 114 -213 114 -227 C114 -252 132 -270 160 -270 Z " />
<glyph glyph-name="caronSlovak" horiz-adv-x="389" d="M160 546 C183 546 203 561 219 581 C242 608 251 638 259 678 L270 730 C277 761 256 789 222 789 C196 789 174 770 168 740 L157 679 C153 657 146 645 133 630 C123 617 114 607 114 589 C114 565 132 546 160 546 Z " />
<glyph glyph-name="g.alt" horiz-adv-x="576" d="M241 -202 C390 -202 475 -125 475 -23 C475 66 412 124 306 124 L235 124 C209 124 192 128 192 142 C192 161 215 165 241 165 L285 165 C408 165 491 244 491 344 C491 360 490 381 481 402 L522 402 C571 402 592 431 592 462 C592 490 568 515 524 515 L408 515 C370 536 332 546 282 546 C147 546 63 455 63 352 C63 285 95 232 144 199 C98 178 68 144 68 101 C68 59 106 8 209 8 L279 8 C330 8 344 -9 344 -28 C344 -68 277 -81 240 -81 C184 -81 125 -59 93 -30 C77 -19 62 -7 37 -7 C0 -7 -27 -36 -27 -70 C-27 -86 -21 -104 -2 -123 C42 -169 137 -202 241 -202 Z M275 262 C218 262 186 293 186 338 C186 400 235 434 290 434 C340 434 375 404 375 357 C375 301 333 262 275 262 Z " />
<glyph glyph-name="gbreve.alt" horiz-adv-x="576" d="M241 -202 C390 -202 475 -125 475 -23 C475 66 412 124 306 124 L235 124 C209 124 192 128 192 142 C192 161 215 165 241 165 L285 165 C408 165 491 244 491 344 C491 360 490 381 481 402 L522 402 C571 402 592 431 592 462 C592 490 568 515 524 515 L408 515 C370 536 332 546 282 546 C147 546 63 455 63 352 C63 285 95 232 144 199 C98 178 68 144 68 101 C68 59 106 8 209 8 L279 8 C330 8 344 -9 344 -28 C344 -68 277 -81 240 -81 C184 -81 125 -59 93 -30 C77 -19 62 -7 37 -7 C0 -7 -27 -36 -27 -70 C-27 -86 -21 -104 -2 -123 C42 -169 137 -202 241 -202 Z M275 262 C218 262 186 293 186 338 C186 400 235 434 290 434 C340 434 375 404 375 357 C375 301 333 262 275 262 Z M349 585 C429 585 477 634 497 680 C501 690 505 703 505 714 C505 738 487 759 457 759 C426 759 414 736 408 723 C395 696 382 678 350 678 C317 678 309 697 303 716 C298 735 289 759 257 759 C234 759 206 745 206 709 C206 696 209 682 213 672 C234 616 286 585 349 585 Z " />
<glyph glyph-name="gdotaccent.alt" horiz-adv-x="575" d="M241 -202 C390 -202 475 -125 475 -23 C475 66 412 124 306 124 L235 124 C209 124 192 128 192 142 C192 161 215 165 241 165 L285 165 C408 165 491 244 491 344 C491 360 490 381 481 402 L522 402 C571 402 592 431 592 462 C592 490 568 515 524 515 L408 515 C370 536 332 546 282 546 C147 546 63 455 63 352 C63 285 95 232 144 199 C98 178 68 144 68 101 C68 59 106 8 209 8 L279 8 C330 8 344 -9 344 -28 C344 -68 277 -81 240 -81 C184 -81 125 -59 93 -30 C77 -19 62 -7 37 -7 C0 -7 -27 -36 -27 -70 C-27 -86 -21 -104 -2 -123 C42 -169 137 -202 241 -202 Z M275 262 C218 262 186 293 186 338 C186 400 235 434 290 434 C340 434 375 404 375 357 C375 301 333 262 275 262 Z M349 727 C309 727 278 693 278 655 C278 619 303 596 338 596 C377 596 409 628 409 667 C409 705 383 727 349 727 Z " />
<glyph glyph-name="gcommaaccent.alt" horiz-adv-x="576" d="M241 -202 C390 -202 475 -125 475 -23 C475 66 412 124 306 124 L235 124 C209 124 192 128 192 142 C192 161 215 165 241 165 L285 165 C408 165 491 244 491 344 C491 360 490 381 481 402 L522 402 C571 402 592 431 592 462 C592 490 568 515 524 515 L408 515 C370 536 332 546 282 546 C147 546 63 455 63 352 C63 285 95 232 144 199 C98 178 68 144 68 101 C68 59 106 8 209 8 L279 8 C330 8 344 -9 344 -28 C344 -68 277 -81 240 -81 C184 -81 125 -59 93 -30 C77 -19 62 -7 37 -7 C0 -7 -27 -36 -27 -70 C-27 -86 -21 -104 -2 -123 C42 -169 137 -202 241 -202 Z M275 262 C218 262 186 293 186 338 C186 400 235 434 290 434 C340 434 375 404 375 357 C375 301 333 262 275 262 Z M319 581 C343 581 362 596 377 614 C402 643 410 673 419 715 L429 763 C435 794 415 823 381 823 C355 823 332 804 326 773 L316 716 C312 691 302 675 288 658 C280 648 273 638 273 624 C273 599 291 581 319 581 Z " />
<glyph glyph-name="racute.alt" horiz-adv-x="379" d="M216 397 C231 407 254 413 275 413 C301 413 317 405 343 405 C390 405 413 437 413 471 C413 498 398 516 379 527 C353 540 316 546 280 546 C219 546 156 528 117 499 C103 489 96 482 93 463 L29 76 C21 31 52 -3 92 -3 C132 -3 153 27 160 66 Z M214 694 C189 682 181 663 181 646 C181 612 209 594 232 594 C241 594 251 596 258 600 L395 664 C426 679 438 699 438 718 C438 744 419 768 385 768 C375 768 363 765 351 760 Z " />
<glyph glyph-name="rcaron.alt" horiz-adv-x="379" d="M216 397 C231 407 254 413 275 413 C301 413 317 405 343 405 C390 405 413 437 413 471 C413 498 398 516 379 527 C353 540 316 546 280 546 C219 546 156 528 117 499 C103 489 96 482 93 463 L29 76 C21 31 52 -3 92 -3 C132 -3 153 27 160 66 Z M269 600 C283 600 296 606 309 615 L419 688 C436 700 450 718 450 737 C450 763 430 786 400 786 C390 786 377 784 365 775 L278 713 L210 773 C200 781 190 786 176 786 C144 786 123 761 123 733 C123 720 128 706 140 695 L233 615 C244 606 256 600 269 600 Z " />
<glyph glyph-name="rcommaaccent.alt" horiz-adv-x="379" d="M216 397 C231 407 254 413 275 413 C301 413 317 405 343 405 C390 405 413 437 413 471 C413 498 398 516 379 527 C353 540 316 546 280 546 C219 546 156 528 117 499 C103 489 96 482 93 463 L29 76 C21 31 52 -3 92 -3 C132 -3 153 27 160 66 Z M9 -270 C33 -270 52 -255 67 -237 C92 -208 100 -178 109 -136 L119 -88 C125 -57 105 -28 71 -28 C45 -28 22 -47 16 -78 L6 -135 C2 -160 -8 -176 -22 -193 C-30 -203 -37 -213 -37 -227 C-37 -252 -19 -270 9 -270 Z " />
<glyph glyph-name="hyphen" unicode="&#x2d;" horiz-adv-x="334" d="M38 286 C38 251 60 220 108 220 L220 220 C260 220 296 248 296 291 C296 324 271 355 226 355 L113 355 C72 355 38 327 38 286 Z " />
<glyph glyph-name="space" unicode="&#x20;" horiz-adv-x="245" />
</font>
</svg>
