<?xml version="1.0" encoding="UTF-8"?>
<svg xmlns="http://www.w3.org/2000/svg" xmlns:xlink="http://www.w3.org/1999/xlink" version="1.2" >
<font id="Rubrik Light Italic">
<font-face  font-family="Rubrik" units-per-em="1000" ascent="750" descent="-250" font-style="italic" font-weight="300" font-stretch="normal" cap-height="702" x-height="522" underline-position="-100" underline-thickness="50" />
<missing-glyph  horiz-adv-x="301" />
<glyph glyph-name="uni00A0" unicode="&#xa0;" horiz-adv-x="259" />
<glyph glyph-name="A" unicode="A" horiz-adv-x="651" d="M526 22 C529 4 541 -4 556 -4 C577 -4 588 13 584 35 L465 637 C456 684 426 709 386 709 C351 709 323 695 294 639 L-23 40 C-36 15 -20 -4 1 -4 C12 -4 22 3 29 17 L152 250 L482 250 Z M350 626 C360 645 368 652 383 652 C398 652 407 642 409 627 L473 301 L179 301 Z " />
<glyph glyph-name="B" unicode="B" horiz-adv-x="660" d="M101 0 L324 0 C476 0 582 77 582 212 C582 295 540 340 490 364 L490 366 C566 398 609 460 609 538 C609 640 533 699 394 699 L219 699 C186 699 166 683 161 650 L62 49 C57 20 70 0 101 0 Z M165 341 L392 341 C470 341 524 290 524 210 C524 105 432 55 326 55 L118 55 Z M174 390 L216 644 L389 644 C494 644 551 603 551 530 C551 441 469 390 388 390 Z " />
<glyph glyph-name="C" unicode="C" horiz-adv-x="642" d="M314 47 C179 47 103 140 112 271 C115 311 128 393 140 439 C176 570 263 652 381 652 C465 652 536 613 567 522 C572 508 579 499 595 499 C612 499 622 511 622 527 C622 534 620 543 617 551 C590 639 508 709 386 709 C228 709 127 608 85 453 C71 400 58 321 55 281 C40 108 146 -10 312 -10 C457 -10 531 84 562 150 C565 158 569 168 569 176 C569 192 556 202 542 202 C525 202 517 189 512 178 C475 99 409 47 314 47 Z " />
<glyph glyph-name="D" unicode="D" horiz-adv-x="684" d="M100 0 L277 0 C466 0 586 72 632 279 C640 313 647 363 651 402 C668 575 560 699 360 699 L218 699 C187 699 166 680 161 650 L62 49 C57 19 72 0 100 0 Z M120 55 L217 644 L359 644 C520 644 611 553 592 395 C590 376 584 327 576 291 C538 120 443 55 281 55 Z " />
<glyph glyph-name="E" unicode="E" horiz-adv-x="608" d="M219 699 C184 699 168 684 162 650 L62 50 C57 20 67 0 102 0 L467 0 C483 0 497 11 497 27 C497 42 486 55 467 55 L120 55 L165 325 L502 325 C518 325 531 336 531 351 C531 366 521 379 502 379 L173 379 L217 644 L568 644 C585 644 598 655 598 671 C598 686 588 699 569 699 Z " />
<glyph glyph-name="F" unicode="F" horiz-adv-x="580" d="M61 29 C58 9 72 -4 89 -4 C106 -4 114 7 117 25 L166 312 L498 312 C515 312 528 323 528 339 C528 353 517 366 499 366 L175 366 L221 644 L573 644 C590 644 603 655 603 671 C603 686 593 699 574 699 L222 699 C189 699 171 684 165 651 Z " />
<glyph glyph-name="G" unicode="G" horiz-adv-x="678" d="M385 361 C367 359 353 350 353 333 C353 318 366 306 383 306 L545 306 L531 229 C511 120 433 47 315 47 C175 47 99 151 112 278 C117 329 126 387 140 438 C176 576 262 652 381 652 C474 652 542 604 567 524 C571 513 579 505 593 505 C607 505 620 515 620 534 C620 541 618 550 615 559 C583 652 493 709 384 709 C235 709 126 616 84 454 C70 400 58 330 54 274 C42 114 150 -10 312 -10 C479 -10 565 101 588 231 C592 253 596 274 602 316 C606 343 595 361 561 361 Z " />
<glyph glyph-name="H" unicode="H" horiz-adv-x="750" d="M538 28 C535 10 547 -4 565 -4 C581 -4 591 7 594 24 L701 668 C704 689 693 704 674 704 C659 704 648 694 645 676 L596 379 L177 379 L225 668 C229 690 216 704 199 704 C182 704 172 692 169 676 L61 29 C58 9 72 -4 89 -4 C106 -4 114 7 117 25 L168 323 L587 323 Z " />
<glyph glyph-name="I" unicode="I" horiz-adv-x="273" d="M225 668 C229 689 216 704 198 704 C182 704 172 692 169 676 L61 31 C58 10 70 -4 89 -4 C104 -4 114 7 117 23 Z " />
<glyph glyph-name="J" unicode="J" horiz-adv-x="465" d="M417 671 C420 690 408 704 390 704 C374 704 364 692 361 675 L281 191 C266 100 221 47 152 47 C97 47 59 82 39 119 C34 130 24 138 11 138 C-3 138 -16 128 -16 110 C-16 104 -14 98 -9 87 C11 45 66 -10 154 -10 C247 -10 316 53 337 185 Z " />
<glyph glyph-name="K" unicode="K" horiz-adv-x="621" d="M168 328 L200 328 C224 328 235 327 254 303 L491 9 C497 1 506 -4 516 -4 C535 -4 544 10 544 23 C544 31 541 38 537 44 L283 356 L603 651 C612 659 617 668 617 678 C617 692 604 704 590 704 C581 704 573 700 565 692 L264 409 C238 385 227 384 207 384 L177 384 L225 671 C228 690 216 704 198 704 C182 704 172 692 169 675 L61 28 C58 10 71 -4 88 -4 C105 -4 114 7 117 24 Z " />
<glyph glyph-name="L" unicode="L" horiz-adv-x="535" d="M119 55 L222 668 C225 689 214 704 195 704 C179 704 169 692 166 675 L62 49 C57 18 71 0 102 0 L465 0 C481 0 495 11 495 27 C495 42 484 55 465 55 Z " />
<glyph glyph-name="M" unicode="M" horiz-adv-x="881" d="M728 27 C728 7 742 -4 758 -4 C774 -4 786 8 786 27 L795 645 C796 684 768 709 732 709 C696 709 675 687 660 651 L416 72 C413 65 410 59 403 59 C396 59 393 65 392 72 L338 649 C335 684 310 709 273 709 C240 709 214 690 200 646 L8 32 C2 11 17 -4 36 -4 C48 -4 59 4 63 18 L255 635 C258 644 263 650 271 650 C279 650 284 646 285 636 L339 58 C342 23 366 -4 402 -4 C432 -4 452 20 466 54 L711 636 C715 646 720 650 727 650 C733 650 739 646 739 635 Z " />
<glyph glyph-name="N" unicode="N" horiz-adv-x="763" d="M557 65 L266 669 C259 684 248 704 218 704 C190 704 171 688 165 651 L61 29 C58 9 72 -4 89 -4 C106 -4 114 7 117 25 L186 436 C198 509 210 581 219 637 L221 637 L510 32 C518 15 532 -4 559 -4 C589 -4 605 18 611 51 L715 667 C719 689 706 704 688 704 C672 704 662 692 659 676 L589 254 C582 215 571 150 558 65 Z " />
<glyph glyph-name="O" unicode="O" horiz-adv-x="679" d="M320 -10 C470 -10 584 86 619 259 C629 307 637 368 642 417 C659 580 547 709 373 709 C215 709 102 595 71 426 C62 375 56 339 51 290 C29 92 179 -10 320 -10 Z M316 47 C218 47 91 116 107 282 C113 340 118 373 130 427 C157 556 243 652 375 652 C511 652 595 555 584 422 C579 360 571 309 557 252 C527 126 442 47 316 47 Z " />
<glyph glyph-name="P" unicode="P" horiz-adv-x="630" d="M160 276 L360 276 C527 276 620 372 620 512 C620 624 531 699 396 699 L218 699 C187 699 171 682 166 652 L61 29 C58 9 72 -4 89 -4 C106 -4 114 7 117 25 Z M169 332 L221 644 L396 644 C498 644 561 587 561 508 C561 395 481 332 362 332 Z " />
<glyph glyph-name="Q" unicode="Q" horiz-adv-x="688" d="M324 -10 C367 -10 412 -2 451 17 L526 -97 C533 -107 543 -112 552 -112 C565 -112 577 -102 577 -87 C577 -81 575 -74 570 -66 L497 45 C560 91 604 162 624 259 C634 307 642 368 647 417 C665 581 548 709 381 709 C214 709 107 591 76 426 C66 375 62 339 56 290 C34 92 185 -10 324 -10 Z M320 47 C222 47 96 116 112 282 C118 340 124 373 135 427 C163 556 247 652 379 652 C515 652 601 555 589 422 C584 366 575 309 562 252 C545 183 515 130 465 92 L371 239 C364 250 354 255 345 255 C332 255 320 245 320 230 C320 224 322 216 327 208 L419 65 C391 52 356 47 320 47 Z " />
<glyph glyph-name="R" unicode="R" horiz-adv-x="673" d="M304 290 C332 290 340 280 353 258 L507 14 C514 2 524 -4 535 -4 C552 -4 563 9 563 23 C563 30 560 36 556 43 L399 295 C533 306 621 383 621 512 C621 629 527 699 393 699 L220 699 C188 699 170 682 165 652 L61 30 C58 9 72 -4 89 -4 C106 -4 114 7 117 25 L162 290 Z M171 343 L221 644 L385 644 C495 644 562 598 562 507 C562 407 487 343 357 343 Z " />
<glyph glyph-name="S" unicode="S" horiz-adv-x="617" d="M327 383 C256 409 169 440 169 521 C169 587 227 652 346 652 C428 652 483 621 520 598 C526 594 537 588 548 588 C566 588 576 602 576 616 C576 628 569 636 558 644 C524 669 437 708 345 708 C217 708 111 633 111 522 C111 412 215 363 315 327 C406 294 476 267 476 187 C476 100 391 46 288 46 C197 46 112 88 82 110 C68 120 60 130 45 130 C29 130 18 118 18 103 C18 91 26 82 31 77 C68 40 180 -10 291 -10 C433 -10 533 72 533 189 C533 306 434 344 327 383 Z " />
<glyph glyph-name="T" unicode="T" horiz-adv-x="551" d="M289 644 L186 29 C183 9 196 -4 213 -4 C230 -4 239 7 242 25 L346 644 L566 644 C583 644 596 655 596 671 C596 686 586 699 566 699 L76 699 C59 699 46 688 46 672 C46 657 56 644 76 644 Z " />
<glyph glyph-name="U" unicode="U" horiz-adv-x="705" d="M685 668 C689 687 677 704 658 704 C640 704 630 689 628 676 L561 271 C535 114 442 47 333 47 C233 47 101 102 134 298 L196 668 C200 691 186 704 170 704 C152 704 142 689 140 676 L78 307 C39 77 197 -10 336 -10 C482 -10 587 85 618 269 Z " />
<glyph glyph-name="V" unicode="V" horiz-adv-x="641" d="M276 60 C273 54 269 49 263 49 C257 49 253 53 252 60 L126 677 C122 696 110 704 97 704 C76 704 63 686 68 662 L195 51 C203 12 227 -10 262 -10 C294 -10 314 10 335 49 L664 657 C668 664 669 671 669 676 C669 692 656 704 640 704 C628 704 617 697 609 681 Z " />
<glyph glyph-name="W" unicode="W" horiz-adv-x="905" d="M568 646 C564 683 544 704 516 704 C487 704 469 684 455 652 L194 57 C190 48 183 49 182 57 L148 677 C147 694 134 704 119 704 C100 704 88 688 89 668 L126 43 C128 12 154 -10 184 -10 C210 -10 230 7 244 39 L507 639 C509 644 514 644 515 638 L577 44 C581 8 608 -10 635 -10 C662 -10 682 8 694 39 L940 660 C942 666 944 672 944 678 C944 691 933 704 915 704 C904 704 892 698 885 679 L643 57 C639 47 630 49 629 57 Z " />
<glyph glyph-name="X" unicode="X" horiz-adv-x="644" d="M640 650 C649 659 653 667 653 675 C653 692 640 704 625 704 C615 704 607 699 599 690 L327 398 L153 686 C146 698 136 704 125 704 C109 704 96 693 96 675 C96 668 99 661 103 654 L283 358 L-4 50 C-12 41 -17 33 -17 24 C-17 8 -4 -4 11 -4 C20 -4 29 2 37 10 L313 305 L490 15 C497 3 507 -4 518 -4 C535 -4 547 9 547 25 C547 30 545 37 541 44 L357 347 Z " />
<glyph glyph-name="Y" unicode="Y" horiz-adv-x="614" d="M252 346 C264 328 268 315 265 298 L220 29 C217 11 228 -4 247 -4 C264 -4 273 7 276 25 L321 298 C324 315 331 326 349 344 L647 652 C655 659 659 669 659 677 C659 692 646 704 630 704 C621 704 612 700 605 692 L301 376 L106 688 C100 698 90 704 80 704 C63 704 51 691 51 675 C51 669 53 662 57 656 Z " />
<glyph glyph-name="Z" unicode="Z" horiz-adv-x="573" d="M458 0 C475 0 488 11 488 27 C488 42 478 55 459 55 L79 55 L564 621 C575 634 585 647 585 664 C585 683 571 699 540 699 L138 699 C122 699 108 688 108 672 C108 657 119 644 138 644 L509 644 L23 78 C11 64 3 53 3 37 C3 17 18 0 49 0 Z " />
<glyph glyph-name="Agrave" unicode="&#xc0;" horiz-adv-x="651" d="M526 22 C529 4 541 -4 556 -4 C577 -4 588 13 584 35 L465 637 C456 684 426 709 386 709 C351 709 323 695 294 639 L-23 40 C-36 15 -20 -4 1 -4 C12 -4 22 3 29 17 L152 250 L482 250 Z M350 626 C360 645 368 652 383 652 C398 652 407 642 409 627 L473 301 L179 301 Z M415 753 C429 753 441 763 441 777 C441 785 437 794 427 799 L302 870 C296 873 290 874 284 874 C270 874 259 864 259 850 C259 842 263 832 274 827 L398 758 C404 755 410 753 415 753 Z " />
<glyph glyph-name="Aacute" unicode="&#xc1;" horiz-adv-x="651" d="M526 22 C529 4 541 -4 556 -4 C577 -4 588 13 584 35 L465 637 C456 684 426 709 386 709 C351 709 323 695 294 639 L-23 40 C-36 15 -20 -4 1 -4 C12 -4 22 3 29 17 L152 250 L482 250 Z M350 626 C360 645 368 652 383 652 C398 652 407 642 409 627 L473 301 L179 301 Z M365 801 C353 796 349 786 349 778 C349 764 359 754 372 754 C377 754 382 755 387 757 L531 825 C547 833 552 843 552 852 C552 864 544 875 528 875 C523 875 518 874 512 871 Z " />
<glyph glyph-name="Acircumflex" unicode="&#xc2;" horiz-adv-x="651" d="M526 22 C529 4 541 -4 556 -4 C577 -4 588 13 584 35 L465 637 C456 684 426 709 386 709 C351 709 323 695 294 639 L-23 40 C-36 15 -20 -4 1 -4 C12 -4 22 3 29 17 L152 250 L482 250 Z M350 626 C360 645 368 652 383 652 C398 652 407 642 409 627 L473 301 L179 301 Z M417 819 L482 759 C489 753 494 750 503 750 C515 750 526 761 526 774 C526 781 523 788 515 795 L446 860 C438 867 430 871 420 871 C409 871 401 868 391 861 L291 797 C281 790 277 783 277 773 C277 760 287 750 299 750 C305 750 311 752 318 756 Z " />
<glyph glyph-name="Atilde" unicode="&#xc3;" horiz-adv-x="651" d="M526 22 C529 4 541 -4 556 -4 C577 -4 588 13 584 35 L465 637 C456 684 426 709 386 709 C351 709 323 695 294 639 L-23 40 C-36 15 -20 -4 1 -4 C12 -4 22 3 29 17 L152 250 L482 250 Z M350 626 C360 645 368 652 383 652 C398 652 407 642 409 627 L473 301 L179 301 Z M462 752 C485 752 509 765 531 780 C541 788 547 796 547 806 C547 820 534 830 523 830 C502 830 489 803 464 803 C432 803 404 840 358 840 C334 840 307 828 287 810 C281 804 275 797 275 787 C275 775 284 763 299 763 C319 763 329 790 356 790 C386 790 415 752 462 752 Z " />
<glyph glyph-name="Adieresis" unicode="&#xc4;" horiz-adv-x="651" d="M526 22 C529 4 541 -4 556 -4 C577 -4 588 13 584 35 L465 637 C456 684 426 709 386 709 C351 709 323 695 294 639 L-23 40 C-36 15 -20 -4 1 -4 C12 -4 22 3 29 17 L152 250 L482 250 Z M350 626 C360 645 368 652 383 652 C398 652 407 642 409 627 L473 301 L179 301 Z M340 836 C317 836 300 817 300 797 C300 776 315 763 335 763 C357 763 375 780 375 802 C375 822 361 836 340 836 Z M490 836 C467 836 450 817 450 797 C450 776 465 763 485 763 C507 763 524 780 524 802 C524 822 510 836 490 836 Z " />
<glyph glyph-name="Amacron" unicode="&#x100;" horiz-adv-x="651" d="M526 22 C529 4 541 -4 556 -4 C577 -4 588 13 584 35 L465 637 C456 684 426 709 386 709 C351 709 323 695 294 639 L-23 40 C-36 15 -20 -4 1 -4 C12 -4 22 3 29 17 L152 250 L482 250 Z M350 626 C360 645 368 652 383 652 C398 652 407 642 409 627 L473 301 L179 301 Z M494 770 C510 770 521 783 521 797 C521 810 511 821 495 821 L329 821 C312 821 301 809 301 795 C301 782 311 770 328 770 Z " />
<glyph glyph-name="Abreve" unicode="&#x102;" horiz-adv-x="651" d="M526 22 C529 4 541 -4 556 -4 C577 -4 588 13 584 35 L465 637 C456 684 426 709 386 709 C351 709 323 695 294 639 L-23 40 C-36 15 -20 -4 1 -4 C12 -4 22 3 29 17 L152 250 L482 250 Z M350 626 C360 645 368 652 383 652 C398 652 407 642 409 627 L473 301 L179 301 Z M410 752 C468 752 506 790 522 828 C525 836 527 845 527 851 C527 866 517 873 505 873 C490 873 483 861 480 852 C468 823 449 799 411 799 C370 799 358 827 353 848 C351 861 347 873 331 873 C319 873 307 865 307 847 C307 837 309 828 311 823 C326 774 367 752 410 752 Z " />
<glyph glyph-name="Aring" unicode="&#xc5;" horiz-adv-x="651" d="M526 22 C529 4 541 -4 556 -4 C577 -4 588 13 584 35 L465 637 C456 684 426 709 386 709 C351 709 323 695 294 639 L-23 40 C-36 15 -20 -4 1 -4 C12 -4 22 3 29 17 L152 250 L482 250 Z M350 626 C360 645 368 652 383 652 C398 652 407 642 409 627 L473 301 L179 301 Z M413 748 C472 748 505 797 505 843 C505 886 475 923 425 923 C365 923 332 874 332 830 C332 785 363 748 413 748 Z M414 785 C384 785 369 806 369 830 C369 857 388 886 424 886 C453 886 469 865 469 841 C469 814 449 785 414 785 Z " />
<glyph glyph-name="Aogonek" unicode="&#x104;" horiz-adv-x="634" d="M473 301 L179 301 L350 626 C360 645 368 652 383 652 C398 652 407 642 409 627 Z M493 -199 C517 -199 541 -192 560 -178 C570 -171 578 -162 578 -152 C578 -140 568 -132 559 -132 C552 -132 545 -136 539 -140 C525 -150 511 -154 497 -154 C472 -154 448 -141 448 -106 C448 -50 515 -19 556 -4 C583 7 587 18 583 39 L465 637 C456 684 425 709 386 709 C349 709 323 695 294 639 L-23 40 C-36 15 -20 -4 1 -4 C12 -4 22 3 29 17 L152 250 L482 250 L524 28 C459 0 401 -43 401 -110 C401 -170 446 -199 493 -199 Z " />
<glyph glyph-name="AE" unicode="&#xc6;" horiz-adv-x="1005" d="M494 262 L459 50 C454 20 463 0 499 0 L864 0 C880 0 893 11 893 27 C893 42 883 55 864 55 L517 55 L562 325 L899 325 C915 325 928 336 928 351 C928 366 917 379 899 379 L570 379 L614 644 L965 644 C982 644 995 655 995 671 C995 686 985 699 965 699 L590 699 C535 699 502 694 469 650 L1 43 C-5 35 -8 28 -8 21 C-8 7 4 -4 18 -4 C27 -4 36 1 44 11 L237 262 Z M503 314 L275 314 L513 624 C525 639 540 643 553 643 L557 643 Z " />
<glyph glyph-name="Cacute" unicode="&#x106;" horiz-adv-x="642" d="M314 47 C179 47 103 140 112 271 C115 311 128 393 140 439 C176 570 263 652 381 652 C465 652 536 613 567 522 C572 508 579 499 595 499 C612 499 622 511 622 527 C622 534 620 543 617 551 C590 639 508 709 386 709 C228 709 127 608 85 453 C71 400 58 321 55 281 C40 108 146 -10 312 -10 C457 -10 531 84 562 150 C565 158 569 168 569 176 C569 192 556 202 542 202 C525 202 517 189 512 178 C475 99 409 47 314 47 Z M350 801 C338 796 334 786 334 778 C334 764 344 754 357 754 C362 754 367 755 372 757 L516 825 C532 833 537 843 537 852 C537 864 529 875 513 875 C508 875 503 874 497 871 Z " />
<glyph glyph-name="Ccaron" unicode="&#x10c;" horiz-adv-x="642" d="M314 47 C179 47 103 140 112 271 C115 311 128 393 140 439 C176 570 263 652 381 652 C465 652 536 613 567 522 C572 508 579 499 595 499 C612 499 622 511 622 527 C622 534 620 543 617 551 C590 639 508 709 386 709 C228 709 127 608 85 453 C71 400 58 321 55 281 C40 108 146 -10 312 -10 C457 -10 531 84 562 150 C565 158 569 168 569 176 C569 192 556 202 542 202 C525 202 517 189 512 178 C475 99 409 47 314 47 Z M408 749 C418 749 427 754 436 760 L529 821 C538 828 543 836 543 845 C543 857 533 869 519 869 C514 869 508 867 503 863 L411 801 L341 861 C335 866 329 869 323 869 C309 869 298 857 298 844 C298 837 301 830 307 825 L383 760 C390 754 398 749 408 749 Z " />
<glyph glyph-name="Cdotaccent" unicode="&#x10a;" horiz-adv-x="642" d="M314 47 C179 47 103 140 112 271 C115 311 128 393 140 439 C176 570 263 652 381 652 C465 652 536 613 567 522 C572 508 579 499 595 499 C612 499 622 511 622 527 C622 534 620 543 617 551 C590 639 508 709 386 709 C228 709 127 608 85 453 C71 400 58 321 55 281 C40 108 146 -10 312 -10 C457 -10 531 84 562 150 C565 158 569 168 569 176 C569 192 556 202 542 202 C525 202 517 189 512 178 C475 99 409 47 314 47 Z M419 836 C396 836 379 817 379 797 C379 776 394 763 414 763 C436 763 454 780 454 802 C454 822 440 836 419 836 Z " />
<glyph glyph-name="Ccedilla" unicode="&#xc7;" horiz-adv-x="642" d="M230 -241 C236 -241 244 -240 248 -239 C296 -226 373 -191 373 -124 C373 -83 340 -53 296 -56 L320 -10 C460 -6 531 85 562 150 C565 158 569 168 569 176 C569 192 556 202 542 202 C525 202 517 189 512 178 C475 99 409 47 314 47 C179 47 103 140 112 271 C115 311 128 393 140 439 C176 570 263 652 381 652 C465 652 536 613 567 522 C572 508 579 499 595 499 C612 499 622 511 622 527 C622 534 620 543 617 551 C590 639 508 709 386 709 C228 709 127 608 85 453 C71 400 58 321 55 281 C41 121 130 10 276 -7 L244 -70 C235 -87 244 -102 260 -102 C271 -102 279 -96 293 -96 C310 -96 327 -104 327 -125 C327 -168 261 -188 227 -199 C214 -203 208 -210 208 -221 C208 -233 217 -241 230 -241 Z " />
<glyph glyph-name="Dcaron" unicode="&#x10e;" horiz-adv-x="684" d="M100 0 L277 0 C466 0 586 72 632 279 C640 313 647 363 651 402 C668 575 560 699 360 699 L218 699 C187 699 166 680 161 650 L62 49 C57 19 72 0 100 0 Z M120 55 L217 644 L359 644 C520 644 611 553 592 395 C590 376 584 327 576 291 C538 120 443 55 281 55 Z M414 749 C424 749 433 754 442 760 L535 821 C544 828 549 836 549 845 C549 857 539 869 525 869 C520 869 514 867 509 863 L417 801 L347 861 C341 866 335 869 329 869 C315 869 304 857 304 844 C304 837 307 830 313 825 L389 760 C396 754 404 749 414 749 Z " />
<glyph glyph-name="Dcroat" unicode="&#x110;" horiz-adv-x="676" d="M92 0 L268 0 C458 0 577 72 624 279 C632 313 639 363 643 402 C661 575 550 699 351 699 L210 699 C179 699 158 680 153 650 L107 373 L27 373 C10 373 -3 360 -3 345 C-3 332 7 319 25 319 L98 319 L54 49 C49 19 63 0 92 0 Z M112 55 L155 319 L339 319 C359 319 369 333 369 346 C369 361 357 373 341 373 L164 373 L209 644 L350 644 C512 644 604 552 584 395 C581 368 576 327 568 291 C529 120 435 55 272 55 Z " />
<glyph glyph-name="Egrave" unicode="&#xc8;" horiz-adv-x="608" d="M219 699 C184 699 168 684 162 650 L62 50 C57 20 67 0 102 0 L467 0 C483 0 497 11 497 27 C497 42 486 55 467 55 L120 55 L165 325 L502 325 C518 325 531 336 531 351 C531 366 521 379 502 379 L173 379 L217 644 L568 644 C585 644 598 655 598 671 C598 686 588 699 569 699 Z M429 753 C443 753 455 763 455 777 C455 785 451 794 441 799 L316 870 C310 873 304 874 298 874 C284 874 273 864 273 850 C273 842 277 832 288 827 L412 758 C418 755 424 753 429 753 Z " />
<glyph glyph-name="Eacute" unicode="&#xc9;" horiz-adv-x="608" d="M219 699 C184 699 168 684 162 650 L62 50 C57 20 67 0 102 0 L467 0 C483 0 497 11 497 27 C497 42 486 55 467 55 L120 55 L165 325 L502 325 C518 325 531 336 531 351 C531 366 521 379 502 379 L173 379 L217 644 L568 644 C585 644 598 655 598 671 C598 686 588 699 569 699 Z M338 801 C326 796 322 786 322 778 C322 764 332 754 345 754 C350 754 355 755 360 757 L504 825 C520 833 525 843 525 852 C525 864 517 875 501 875 C496 875 491 874 485 871 Z " />
<glyph glyph-name="Ecircumflex" unicode="&#xca;" horiz-adv-x="608" d="M219 699 C184 699 168 684 162 650 L62 50 C57 20 67 0 102 0 L467 0 C483 0 497 11 497 27 C497 42 486 55 467 55 L120 55 L165 325 L502 325 C518 325 531 336 531 351 C531 366 521 379 502 379 L173 379 L217 644 L568 644 C585 644 598 655 598 671 C598 686 588 699 569 699 Z M416 819 L481 759 C488 753 493 750 502 750 C514 750 525 761 525 774 C525 781 522 788 514 795 L445 860 C437 867 429 871 419 871 C408 871 400 868 390 861 L290 797 C280 790 276 783 276 773 C276 760 286 750 298 750 C304 750 310 752 317 756 Z " />
<glyph glyph-name="Ecaron" unicode="&#x11a;" horiz-adv-x="608" d="M219 699 C184 699 168 684 162 650 L62 50 C57 20 67 0 102 0 L467 0 C483 0 497 11 497 27 C497 42 486 55 467 55 L120 55 L165 325 L502 325 C518 325 531 336 531 351 C531 366 521 379 502 379 L173 379 L217 644 L568 644 C585 644 598 655 598 671 C598 686 588 699 569 699 Z M407 749 C417 749 426 754 435 760 L528 821 C537 828 542 836 542 845 C542 857 532 869 518 869 C513 869 507 867 502 863 L410 801 L340 861 C334 866 328 869 322 869 C308 869 297 857 297 844 C297 837 300 830 306 825 L382 760 C389 754 397 749 407 749 Z " />
<glyph glyph-name="Edieresis" unicode="&#xcb;" horiz-adv-x="608" d="M219 699 C184 699 168 684 162 650 L62 50 C57 20 67 0 102 0 L467 0 C483 0 497 11 497 27 C497 42 486 55 467 55 L120 55 L165 325 L502 325 C518 325 531 336 531 351 C531 366 521 379 502 379 L173 379 L217 644 L568 644 C585 644 598 655 598 671 C598 686 588 699 569 699 Z M337 836 C314 836 297 817 297 797 C297 776 312 763 332 763 C354 763 372 780 372 802 C372 822 358 836 337 836 Z M487 836 C464 836 447 817 447 797 C447 776 462 763 482 763 C504 763 521 780 521 802 C521 822 507 836 487 836 Z " />
<glyph glyph-name="Emacron" unicode="&#x112;" horiz-adv-x="608" d="M219 699 C184 699 168 684 162 650 L62 50 C57 20 67 0 102 0 L467 0 C483 0 497 11 497 27 C497 42 486 55 467 55 L120 55 L165 325 L502 325 C518 325 531 336 531 351 C531 366 521 379 502 379 L173 379 L217 644 L568 644 C585 644 598 655 598 671 C598 686 588 699 569 699 Z M492 770 C508 770 519 783 519 797 C519 810 509 821 493 821 L327 821 C310 821 299 809 299 795 C299 782 309 770 326 770 Z " />
<glyph glyph-name="Edotaccent" unicode="&#x116;" horiz-adv-x="608" d="M219 699 C184 699 168 684 162 650 L62 50 C57 20 67 0 102 0 L467 0 C483 0 497 11 497 27 C497 42 486 55 467 55 L120 55 L165 325 L502 325 C518 325 531 336 531 351 C531 366 521 379 502 379 L173 379 L217 644 L568 644 C585 644 598 655 598 671 C598 686 588 699 569 699 Z M414 836 C391 836 374 817 374 797 C374 776 389 763 409 763 C431 763 449 780 449 802 C449 822 435 836 414 836 Z " />
<glyph glyph-name="Eogonek" unicode="&#x118;" horiz-adv-x="602" d="M406 -199 C430 -199 454 -192 473 -178 C483 -171 490 -162 490 -152 C490 -140 481 -132 472 -132 C465 -132 458 -136 452 -140 C438 -150 423 -154 409 -154 C385 -154 361 -141 361 -106 C361 -49 429 -17 471 -2 C486 3 497 12 497 28 C497 42 486 55 467 55 L120 55 L165 325 L502 325 C518 325 531 336 531 351 C531 366 521 379 502 379 L173 379 L217 644 L568 644 C585 644 598 655 598 671 C598 686 588 699 569 699 L219 699 C184 699 167 684 162 650 L62 50 C57 20 67 0 102 0 L388 0 C345 -26 314 -60 314 -110 C314 -170 358 -199 406 -199 Z " />
<glyph glyph-name="Gbreve" unicode="&#x11e;" horiz-adv-x="678" d="M385 361 C367 359 353 350 353 333 C353 318 366 306 383 306 L545 306 L531 229 C511 120 433 47 315 47 C175 47 99 151 112 278 C117 329 126 387 140 438 C176 576 262 652 381 652 C474 652 542 604 567 524 C571 513 579 505 593 505 C607 505 620 515 620 534 C620 541 618 550 615 559 C583 652 493 709 384 709 C235 709 126 616 84 454 C70 400 58 330 54 274 C42 114 150 -10 312 -10 C479 -10 565 101 588 231 C592 253 596 274 602 316 C606 343 595 361 561 361 Z M420 752 C478 752 516 790 532 828 C535 836 537 845 537 851 C537 866 527 873 515 873 C500 873 493 861 490 852 C478 823 459 799 421 799 C380 799 368 827 363 848 C361 861 357 873 341 873 C329 873 317 865 317 847 C317 837 319 828 321 823 C336 774 377 752 420 752 Z " />
<glyph glyph-name="Gdotaccent" unicode="&#x120;" horiz-adv-x="678" d="M385 361 C367 359 353 350 353 333 C353 318 366 306 383 306 L545 306 L531 229 C511 120 433 47 315 47 C175 47 99 151 112 278 C117 329 126 387 140 438 C176 576 262 652 381 652 C474 652 542 604 567 524 C571 513 579 505 593 505 C607 505 620 515 620 534 C620 541 618 550 615 559 C583 652 493 709 384 709 C235 709 126 616 84 454 C70 400 58 330 54 274 C42 114 150 -10 312 -10 C479 -10 565 101 588 231 C592 253 596 274 602 316 C606 343 595 361 561 361 Z M424 836 C401 836 384 817 384 797 C384 776 399 763 419 763 C441 763 459 780 459 802 C459 822 445 836 424 836 Z " />
<glyph glyph-name="Gcommaaccent" unicode="&#x122;" horiz-adv-x="678" d="M385 361 C367 359 353 350 353 333 C353 318 366 306 383 306 L545 306 L531 229 C511 120 433 47 315 47 C175 47 99 151 112 278 C117 329 126 387 140 438 C176 576 262 652 381 652 C474 652 542 604 567 524 C571 513 579 505 593 505 C607 505 620 515 620 534 C620 541 618 550 615 559 C583 652 493 709 384 709 C235 709 126 616 84 454 C70 400 58 330 54 274 C42 114 150 -10 312 -10 C479 -10 565 101 588 231 C592 253 596 274 602 316 C606 343 595 361 561 361 Z M228 -229 C240 -229 249 -221 255 -214 C281 -187 293 -165 303 -113 L313 -62 C317 -42 305 -30 290 -30 C278 -30 266 -38 263 -54 L253 -109 C248 -141 240 -161 216 -187 C209 -194 205 -200 205 -208 C205 -219 214 -229 228 -229 Z " />
<glyph glyph-name="Igrave" unicode="&#xcc;" horiz-adv-x="274" d="M222 668 C226 689 213 704 195 704 C179 704 169 692 166 676 L58 31 C55 10 67 -4 86 -4 C101 -4 111 7 114 23 Z M207 753 C221 753 233 763 233 777 C233 785 229 794 219 799 L94 870 C88 873 82 874 76 874 C62 874 51 864 51 850 C51 842 55 832 66 827 L190 758 C196 755 202 753 207 753 Z " />
<glyph glyph-name="Iacute" unicode="&#xcd;" horiz-adv-x="274" d="M218 668 C222 689 209 704 191 704 C175 704 165 692 162 676 L54 31 C51 10 63 -4 82 -4 C97 -4 107 7 110 23 Z M182 801 C170 796 166 786 166 778 C166 764 176 754 189 754 C194 754 199 755 204 757 L348 825 C364 833 369 843 369 852 C369 864 361 875 345 875 C340 875 335 874 329 871 Z " />
<glyph glyph-name="Icircumflex" unicode="&#xce;" horiz-adv-x="274" d="M218 668 C222 689 209 704 191 704 C175 704 165 692 162 676 L54 31 C51 10 63 -4 82 -4 C97 -4 107 7 110 23 Z M213 819 L278 759 C285 753 290 750 299 750 C311 750 322 761 322 774 C322 781 319 788 311 795 L242 860 C234 867 226 871 216 871 C205 871 197 868 187 861 L87 797 C77 790 73 783 73 773 C73 760 83 750 95 750 C101 750 107 752 114 756 Z " />
<glyph glyph-name="Idieresis" unicode="&#xcf;" horiz-adv-x="274" d="M222 668 C226 689 213 704 195 704 C179 704 169 692 166 676 L58 31 C55 10 67 -4 86 -4 C101 -4 111 7 114 23 Z M144 836 C121 836 104 817 104 797 C104 776 119 763 139 763 C161 763 179 780 179 802 C179 822 165 836 144 836 Z M294 836 C271 836 254 817 254 797 C254 776 269 763 289 763 C311 763 328 780 328 802 C328 822 314 836 294 836 Z " />
<glyph glyph-name="Iogonek" unicode="&#x12e;" horiz-adv-x="274" d="M44 -199 C68 -199 92 -192 111 -178 C121 -171 129 -162 129 -152 C129 -140 119 -132 110 -132 C103 -132 96 -136 91 -140 C77 -150 62 -154 48 -154 C23 -154 -1 -143 -1 -107 C-1 -50 64 -22 105 -5 C119 2 126 7 128 23 L236 668 C239 689 227 704 208 704 C193 704 183 692 180 676 L75 48 C73 39 73 30 76 22 C11 -4 -46 -46 -46 -113 C-46 -172 -3 -199 44 -199 Z " />
<glyph glyph-name="Imacron" unicode="&#x12a;" horiz-adv-x="274" d="M223 668 C227 689 214 704 196 704 C180 704 170 692 167 676 L59 31 C56 10 68 -4 87 -4 C102 -4 112 7 115 23 Z M301 770 C317 770 328 783 328 797 C328 810 318 821 302 821 L136 821 C119 821 108 809 108 795 C108 782 118 770 135 770 Z " />
<glyph glyph-name="Idotaccent" unicode="&#x130;" horiz-adv-x="274" d="M225 668 C229 689 216 704 198 704 C182 704 172 692 169 676 L61 31 C58 10 70 -4 89 -4 C104 -4 114 7 117 23 Z M217 836 C194 836 177 817 177 797 C177 776 192 763 212 763 C234 763 252 780 252 802 C252 822 238 836 217 836 Z " />
<glyph glyph-name="Kcommaaccent" unicode="&#x136;" horiz-adv-x="621" d="M168 328 L200 328 C224 328 235 327 254 303 L491 9 C497 1 506 -4 516 -4 C535 -4 544 10 544 23 C544 31 541 38 537 44 L283 356 L603 651 C612 659 617 668 617 678 C617 692 604 704 590 704 C581 704 573 700 565 692 L264 409 C238 385 227 384 207 384 L177 384 L225 671 C228 690 216 704 198 704 C182 704 172 692 169 675 L61 28 C58 10 71 -4 88 -4 C105 -4 114 7 117 24 Z M205 -229 C217 -229 226 -221 232 -214 C258 -187 270 -165 280 -113 L290 -62 C294 -42 282 -30 267 -30 C255 -30 243 -38 240 -54 L230 -109 C225 -141 217 -161 193 -187 C186 -194 182 -200 182 -208 C182 -219 191 -229 205 -229 Z " />
<glyph glyph-name="Lacute" unicode="&#x139;" horiz-adv-x="535" d="M119 55 L222 668 C225 689 214 704 195 704 C179 704 169 692 166 675 L62 49 C57 18 71 0 102 0 L465 0 C481 0 495 11 495 27 C495 42 484 55 465 55 Z M189 801 C177 796 173 786 173 778 C173 764 183 754 196 754 C201 754 206 755 211 757 L355 825 C371 833 376 843 376 852 C376 864 368 875 352 875 C347 875 342 874 336 871 Z " />
<glyph glyph-name="Lcaron" unicode="&#x13d;" horiz-adv-x="535" d="M119 55 L222 668 C225 689 214 704 195 704 C179 704 169 692 166 675 L62 49 C57 18 71 0 102 0 L465 0 C481 0 495 11 495 27 C495 42 484 55 465 55 Z M314 544 C326 544 335 551 347 563 C367 586 378 606 386 649 L395 693 C398 710 387 722 373 722 C360 722 348 714 346 698 L337 654 C331 622 327 613 303 587 C296 580 292 574 292 565 C292 554 300 544 314 544 Z " />
<glyph glyph-name="Lcommaaccent" unicode="&#x13b;" horiz-adv-x="535" d="M119 55 L222 668 C225 689 214 704 195 704 C179 704 169 692 166 675 L62 49 C57 18 71 0 102 0 L465 0 C481 0 495 11 495 27 C495 42 484 55 465 55 Z M219 -229 C231 -229 240 -221 246 -214 C272 -187 284 -165 294 -113 L304 -62 C308 -42 296 -30 281 -30 C269 -30 257 -38 254 -54 L244 -109 C239 -141 231 -161 207 -187 C200 -194 196 -200 196 -208 C196 -219 205 -229 219 -229 Z " />
<glyph glyph-name="Lslash" unicode="&#x141;" horiz-adv-x="553" d="M137 55 L182 326 L332 410 C345 418 350 428 350 438 C350 451 340 461 326 461 C320 461 315 460 308 456 L194 390 L240 668 C244 689 232 704 213 704 C198 704 187 692 184 675 L131 357 L41 306 C29 299 23 288 23 279 C23 265 33 255 47 255 C52 255 57 257 62 259 L120 292 L80 49 C75 18 89 0 121 0 L483 0 C500 0 513 11 513 27 C513 42 503 55 484 55 Z " />
<glyph glyph-name="Nacute" unicode="&#x143;" horiz-adv-x="763" d="M557 65 L266 669 C259 684 248 704 218 704 C190 704 171 688 165 651 L61 29 C58 9 72 -4 89 -4 C106 -4 114 7 117 25 L186 436 C198 509 210 581 219 637 L221 637 L510 32 C518 15 532 -4 559 -4 C589 -4 605 18 611 51 L715 667 C719 689 706 704 688 704 C672 704 662 692 659 676 L589 254 C582 215 571 150 558 65 Z M409 801 C397 796 393 786 393 778 C393 764 403 754 416 754 C421 754 426 755 431 757 L575 825 C591 833 596 843 596 852 C596 864 588 875 572 875 C567 875 562 874 556 871 Z " />
<glyph glyph-name="Ncaron" unicode="&#x147;" horiz-adv-x="763" d="M557 65 L266 669 C259 684 248 704 218 704 C190 704 171 688 165 651 L61 29 C58 9 72 -4 89 -4 C106 -4 114 7 117 25 L186 436 C198 509 210 581 219 637 L221 637 L510 32 C518 15 532 -4 559 -4 C589 -4 605 18 611 51 L715 667 C719 689 706 704 688 704 C672 704 662 692 659 676 L589 254 C582 215 571 150 558 65 Z M458 749 C468 749 477 754 486 760 L579 821 C588 828 593 836 593 845 C593 857 583 869 569 869 C564 869 558 867 553 863 L461 801 L391 861 C385 866 379 869 373 869 C359 869 348 857 348 844 C348 837 351 830 357 825 L433 760 C440 754 448 749 458 749 Z " />
<glyph glyph-name="Ntilde" unicode="&#xd1;" horiz-adv-x="763" d="M557 65 L266 669 C259 684 248 704 218 704 C190 704 171 688 165 651 L61 29 C58 9 72 -4 89 -4 C106 -4 114 7 117 25 L186 436 C198 509 210 581 219 637 L221 637 L510 32 C518 15 532 -4 559 -4 C589 -4 605 18 611 51 L715 667 C719 689 706 704 688 704 C672 704 662 692 659 676 L589 254 C582 215 571 150 558 65 Z M517 752 C540 752 564 765 586 780 C596 788 602 796 602 806 C602 820 589 830 578 830 C557 830 544 803 519 803 C487 803 459 840 413 840 C389 840 362 828 342 810 C336 804 330 797 330 787 C330 775 339 763 354 763 C374 763 384 790 411 790 C441 790 470 752 517 752 Z " />
<glyph glyph-name="Ncommaaccent" unicode="&#x145;" horiz-adv-x="763" d="M557 65 L266 669 C259 684 248 704 218 704 C190 704 171 688 165 651 L61 29 C58 9 72 -4 89 -4 C106 -4 114 7 117 25 L186 436 C198 509 210 581 219 637 L221 637 L510 32 C518 15 532 -4 559 -4 C589 -4 605 18 611 51 L715 667 C719 689 706 704 688 704 C672 704 662 692 659 676 L589 254 C582 215 571 150 558 65 Z M266 -229 C278 -229 287 -221 293 -214 C319 -187 331 -165 341 -113 L351 -62 C355 -42 343 -30 328 -30 C316 -30 304 -38 301 -54 L291 -109 C286 -141 278 -161 254 -187 C247 -194 243 -200 243 -208 C243 -219 252 -229 266 -229 Z " />
<glyph glyph-name="Ograve" unicode="&#xd2;" horiz-adv-x="679" d="M324 -10 C474 -10 588 86 623 259 C633 307 641 368 646 417 C663 580 551 709 377 709 C219 709 106 595 75 426 C66 375 60 339 55 290 C33 92 183 -10 324 -10 Z M320 47 C222 47 95 116 111 282 C117 340 122 373 134 427 C161 556 247 652 379 652 C515 652 599 555 588 422 C583 360 575 309 561 252 C531 126 446 47 320 47 Z M443 753 C457 753 469 763 469 777 C469 785 465 794 455 799 L330 870 C324 873 318 874 312 874 C298 874 287 864 287 850 C287 842 291 832 302 827 L426 758 C432 755 438 753 443 753 Z " />
<glyph glyph-name="Oacute" unicode="&#xd3;" horiz-adv-x="679" d="M324 -10 C474 -10 588 86 623 259 C633 307 641 368 646 417 C663 580 551 709 377 709 C219 709 106 595 75 426 C66 375 60 339 55 290 C33 92 183 -10 324 -10 Z M320 47 C222 47 95 116 111 282 C117 340 122 373 134 427 C161 556 247 652 379 652 C515 652 599 555 588 422 C583 360 575 309 561 252 C531 126 446 47 320 47 Z M392 801 C380 796 376 786 376 778 C376 764 386 754 399 754 C404 754 409 755 414 757 L558 825 C574 833 579 843 579 852 C579 864 571 875 555 875 C550 875 545 874 539 871 Z " />
<glyph glyph-name="Ocircumflex" unicode="&#xd4;" horiz-adv-x="679" d="M324 -10 C474 -10 588 86 623 259 C633 307 641 368 646 417 C663 580 551 709 377 709 C219 709 106 595 75 426 C66 375 60 339 55 290 C33 92 183 -10 324 -10 Z M320 47 C222 47 95 116 111 282 C117 340 122 373 134 427 C161 556 247 652 379 652 C515 652 599 555 588 422 C583 360 575 309 561 252 C531 126 446 47 320 47 Z M437 819 L502 759 C509 753 514 750 523 750 C535 750 546 761 546 774 C546 781 543 788 535 795 L466 860 C458 867 450 871 440 871 C429 871 421 868 411 861 L311 797 C301 790 297 783 297 773 C297 760 307 750 319 750 C325 750 331 752 338 756 Z " />
<glyph glyph-name="Otilde" unicode="&#xd5;" horiz-adv-x="679" d="M324 -10 C474 -10 588 86 623 259 C633 307 641 368 646 417 C663 580 551 709 377 709 C219 709 106 595 75 426 C66 375 60 339 55 290 C33 92 183 -10 324 -10 Z M320 47 C222 47 95 116 111 282 C117 340 122 373 134 427 C161 556 247 652 379 652 C515 652 599 555 588 422 C583 360 575 309 561 252 C531 126 446 47 320 47 Z M471 752 C494 752 518 765 540 780 C550 788 556 796 556 806 C556 820 543 830 532 830 C511 830 498 803 473 803 C441 803 413 840 367 840 C343 840 316 828 296 810 C290 804 284 797 284 787 C284 775 293 763 308 763 C328 763 338 790 365 790 C395 790 424 752 471 752 Z " />
<glyph glyph-name="Odieresis" unicode="&#xd6;" horiz-adv-x="679" d="M324 -10 C474 -10 588 86 623 259 C633 307 641 368 646 417 C663 580 551 709 377 709 C219 709 106 595 75 426 C66 375 60 339 55 290 C33 92 183 -10 324 -10 Z M320 47 C222 47 95 116 111 282 C117 340 122 373 134 427 C161 556 247 652 379 652 C515 652 599 555 588 422 C583 360 575 309 561 252 C531 126 446 47 320 47 Z M363 836 C340 836 323 817 323 797 C323 776 338 763 358 763 C380 763 398 780 398 802 C398 822 384 836 363 836 Z M513 836 C490 836 473 817 473 797 C473 776 488 763 508 763 C530 763 547 780 547 802 C547 822 533 836 513 836 Z " />
<glyph glyph-name="Omacron" unicode="&#x14c;" horiz-adv-x="679" d="M324 -10 C474 -10 588 86 623 259 C633 307 641 368 646 417 C663 580 551 709 377 709 C219 709 106 595 75 426 C66 375 60 339 55 290 C33 92 183 -10 324 -10 Z M320 47 C222 47 95 116 111 282 C117 340 122 373 134 427 C161 556 247 652 379 652 C515 652 599 555 588 422 C583 360 575 309 561 252 C531 126 446 47 320 47 Z M515 770 C531 770 542 783 542 797 C542 810 532 821 516 821 L350 821 C333 821 322 809 322 795 C322 782 332 770 349 770 Z " />
<glyph glyph-name="Ohungarumlaut" unicode="&#x150;" horiz-adv-x="679" d="M324 -10 C474 -10 588 86 623 259 C633 307 641 368 646 417 C663 580 551 709 377 709 C219 709 106 595 75 426 C66 375 60 339 55 290 C33 92 183 -10 324 -10 Z M320 47 C222 47 95 116 111 282 C117 340 122 373 134 427 C161 556 247 652 379 652 C515 652 599 555 588 422 C583 360 575 309 561 252 C531 126 446 47 320 47 Z M456 838 C465 844 469 853 469 861 C469 875 458 886 444 886 C436 886 428 882 421 876 L320 801 C311 794 307 784 307 777 C307 762 317 752 331 752 C338 752 346 755 353 761 Z M608 838 C616 844 620 853 620 861 C620 875 610 886 595 886 C587 886 580 882 573 876 L472 801 C463 794 458 784 458 777 C458 762 469 752 482 752 C489 752 497 755 504 761 Z " />
<glyph glyph-name="Oslash" unicode="&#xd8;" horiz-adv-x="679" d="M326 -10 C474 -10 589 86 623 259 C633 307 641 368 646 417 C655 500 630 575 579 628 L606 664 C611 671 614 678 614 684 C614 698 604 709 589 709 C580 709 571 704 563 693 L541 662 C499 691 442 709 380 709 C214 709 106 591 75 426 C65 375 60 339 55 290 C45 195 73 124 120 74 L93 36 C88 28 84 22 84 15 C84 2 94 -9 109 -9 C117 -9 126 -5 134 6 L159 40 C209 7 267 -10 326 -10 Z M325 47 C285 47 234 58 194 85 L543 582 C578 542 594 484 588 420 C583 362 575 311 562 255 C532 127 446 47 325 47 Z M156 118 C124 156 103 209 111 283 C117 338 122 374 134 427 C163 559 248 652 379 652 C428 652 471 640 505 617 Z " />
<glyph glyph-name="OE" unicode="&#x152;" horiz-adv-x="1022" d="M534 55 L579 325 L916 325 C932 325 945 336 945 351 C945 366 935 379 916 379 L587 379 L631 644 L982 644 C999 644 1012 655 1012 671 C1012 686 1002 699 983 699 L632 699 C591 699 473 708 401 708 C205 708 107 598 75 424 C69 392 59 326 55 295 C35 117 149 -9 334 -9 C423 -9 496 0 517 0 L881 0 C897 0 911 11 911 27 C911 42 900 55 881 55 Z M477 55 C432 48 391 47 338 47 C181 47 96 149 112 289 C116 323 125 383 133 423 C165 570 249 652 395 652 C444 652 508 650 574 642 Z " />
<glyph glyph-name="Racute" unicode="&#x154;" horiz-adv-x="673" d="M304 290 C332 290 340 280 353 258 L507 14 C514 2 524 -4 535 -4 C552 -4 563 9 563 23 C563 30 560 36 556 43 L399 295 C533 306 621 383 621 512 C621 629 527 699 393 699 L220 699 C188 699 170 682 165 652 L61 30 C58 9 72 -4 89 -4 C106 -4 114 7 117 25 L162 290 Z M171 343 L221 644 L385 644 C495 644 562 598 562 507 C562 407 487 343 357 343 Z M340 801 C328 796 324 786 324 778 C324 764 334 754 347 754 C352 754 357 755 362 757 L506 825 C522 833 527 843 527 852 C527 864 519 875 503 875 C498 875 493 874 487 871 Z " />
<glyph glyph-name="Rcaron" unicode="&#x158;" horiz-adv-x="673" d="M304 290 C332 290 340 280 353 258 L507 14 C514 2 524 -4 535 -4 C552 -4 563 9 563 23 C563 30 560 36 556 43 L399 295 C533 306 621 383 621 512 C621 629 527 699 393 699 L220 699 C188 699 170 682 165 652 L61 30 C58 9 72 -4 89 -4 C106 -4 114 7 117 25 L162 290 Z M171 343 L221 644 L385 644 C495 644 562 598 562 507 C562 407 487 343 357 343 Z M383 749 C393 749 402 754 411 760 L504 821 C513 828 518 836 518 845 C518 857 508 869 494 869 C489 869 483 867 478 863 L386 801 L316 861 C310 866 304 869 298 869 C284 869 273 857 273 844 C273 837 276 830 282 825 L358 760 C365 754 373 749 383 749 Z " />
<glyph glyph-name="Rcommaaccent" unicode="&#x156;" horiz-adv-x="673" d="M304 290 C332 290 340 280 353 258 L507 14 C514 2 524 -4 535 -4 C552 -4 563 9 563 23 C563 30 560 36 556 43 L399 295 C533 306 621 383 621 512 C621 629 527 699 393 699 L220 699 C188 699 170 682 165 652 L61 30 C58 9 72 -4 89 -4 C106 -4 114 7 117 25 L162 290 Z M171 343 L221 644 L385 644 C495 644 562 598 562 507 C562 407 487 343 357 343 Z M215 -229 C227 -229 236 -221 242 -214 C268 -187 280 -165 290 -113 L300 -62 C304 -42 292 -30 277 -30 C265 -30 253 -38 250 -54 L240 -109 C235 -141 227 -161 203 -187 C196 -194 192 -200 192 -208 C192 -219 201 -229 215 -229 Z " />
<glyph glyph-name="Sacute" unicode="&#x15a;" horiz-adv-x="617" d="M324 383 C253 409 166 440 166 521 C166 587 224 652 343 652 C425 652 480 621 517 598 C523 594 534 588 545 588 C563 588 573 602 573 616 C573 628 566 636 555 644 C521 669 434 708 342 708 C214 708 108 633 108 522 C108 412 212 363 312 327 C403 294 473 267 473 187 C473 100 388 46 285 46 C194 46 109 88 79 110 C65 120 57 130 42 130 C26 130 15 118 15 103 C15 91 23 82 28 77 C65 40 177 -10 288 -10 C430 -10 530 72 530 189 C530 306 431 344 324 383 Z M339 801 C327 796 323 786 323 778 C323 764 333 754 346 754 C351 754 356 755 361 757 L505 825 C521 833 526 843 526 852 C526 864 518 875 502 875 C497 875 492 874 486 871 Z " />
<glyph glyph-name="Scaron" unicode="&#x160;" horiz-adv-x="617" d="M325 383 C254 409 167 440 167 521 C167 587 225 652 344 652 C426 652 481 621 518 598 C524 594 535 588 546 588 C564 588 574 602 574 616 C574 628 567 636 556 644 C522 669 435 708 343 708 C215 708 109 633 109 522 C109 412 213 363 313 327 C404 294 474 267 474 187 C474 100 389 46 286 46 C195 46 110 88 80 110 C66 120 58 130 43 130 C27 130 16 118 16 103 C16 91 24 82 29 77 C66 40 178 -10 289 -10 C431 -10 531 72 531 189 C531 306 432 344 325 383 Z M382 749 C392 749 401 754 410 760 L503 821 C512 828 517 836 517 845 C517 857 507 869 493 869 C488 869 482 867 477 863 L385 801 L315 861 C309 866 303 869 297 869 C283 869 272 857 272 844 C272 837 275 830 281 825 L357 760 C364 754 372 749 382 749 Z " />
<glyph glyph-name="Scedilla" unicode="&#x15e;" horiz-adv-x="617" d="M197 -241 C203 -241 211 -240 215 -239 C263 -226 340 -191 340 -124 C340 -83 307 -53 263 -56 L287 -10 L296 -10 C438 -10 538 72 538 189 C538 306 439 344 332 383 C261 409 174 440 174 521 C174 587 232 652 351 652 C433 652 488 621 525 598 C531 594 542 588 553 588 C571 588 581 602 581 616 C581 628 574 636 563 644 C529 669 442 708 350 708 C222 708 116 633 116 522 C116 412 220 363 320 327 C411 294 481 267 481 187 C481 100 396 46 293 46 C202 46 117 88 87 110 C73 120 65 130 50 130 C34 130 23 118 23 103 C23 91 31 82 36 77 C67 46 150 5 242 -6 L211 -70 C202 -87 211 -102 227 -102 C238 -102 246 -96 260 -96 C277 -96 294 -104 294 -125 C294 -168 228 -188 194 -199 C181 -203 175 -210 175 -221 C175 -233 184 -241 197 -241 Z " />
<glyph glyph-name="Scommaaccent" unicode="&#x218;" horiz-adv-x="617" d="M325 383 C254 409 167 440 167 521 C167 587 225 652 344 652 C426 652 481 621 518 598 C524 594 535 588 546 588 C564 588 574 602 574 616 C574 628 567 636 556 644 C522 669 435 708 343 708 C215 708 109 633 109 522 C109 412 213 363 313 327 C404 294 474 267 474 187 C474 100 389 46 286 46 C195 46 110 88 80 110 C66 120 58 130 43 130 C27 130 16 118 16 103 C16 91 24 82 29 77 C66 40 178 -10 289 -10 C431 -10 531 72 531 189 C531 306 432 344 325 383 Z M206 -229 C218 -229 227 -221 233 -214 C259 -187 271 -165 281 -113 L291 -62 C295 -42 283 -30 268 -30 C256 -30 244 -38 241 -54 L231 -109 C226 -141 218 -161 194 -187 C187 -194 183 -200 183 -208 C183 -219 192 -229 206 -229 Z " />
<glyph glyph-name="Tcaron" unicode="&#x164;" horiz-adv-x="551" d="M289 644 L186 29 C183 9 196 -4 213 -4 C230 -4 239 7 242 25 L346 644 L566 644 C583 644 596 655 596 671 C596 686 586 699 566 699 L76 699 C59 699 46 688 46 672 C46 657 56 644 76 644 Z M335 749 C345 749 354 754 363 760 L456 821 C465 828 470 836 470 845 C470 857 460 869 446 869 C441 869 435 867 430 863 L338 801 L268 861 C262 866 256 869 250 869 C236 869 225 857 225 844 C225 837 228 830 234 825 L310 760 C317 754 325 749 335 749 Z " />
<glyph glyph-name="Tcommaaccent" unicode="&#x162;" horiz-adv-x="551" d="M289 644 L186 29 C183 9 196 -4 213 -4 C230 -4 239 7 242 25 L346 644 L566 644 C583 644 596 655 596 671 C596 686 586 699 566 699 L76 699 C59 699 46 688 46 672 C46 657 56 644 76 644 Z M129 -286 C141 -286 150 -278 156 -271 C182 -244 194 -222 204 -170 L214 -119 C218 -99 206 -87 191 -87 C179 -87 167 -95 164 -111 L154 -166 C149 -198 141 -218 117 -244 C110 -251 106 -257 106 -265 C106 -276 115 -286 129 -286 Z " />
<glyph glyph-name="Ugrave" unicode="&#xd9;" horiz-adv-x="705" d="M685 668 C689 687 677 704 658 704 C640 704 630 689 628 676 L561 271 C535 114 442 47 333 47 C233 47 101 102 134 298 L196 668 C200 691 186 704 170 704 C152 704 142 689 140 676 L78 307 C39 77 197 -10 336 -10 C482 -10 587 85 618 269 Z M456 753 C470 753 482 763 482 777 C482 785 478 794 468 799 L343 870 C337 873 331 874 325 874 C311 874 300 864 300 850 C300 842 304 832 315 827 L439 758 C445 755 451 753 456 753 Z " />
<glyph glyph-name="Uacute" unicode="&#xda;" horiz-adv-x="705" d="M685 668 C689 687 677 704 658 704 C640 704 630 689 628 676 L561 271 C535 114 442 47 333 47 C233 47 101 102 134 298 L196 668 C200 691 186 704 170 704 C152 704 142 689 140 676 L78 307 C39 77 197 -10 336 -10 C482 -10 587 85 618 269 Z M376 801 C364 796 360 786 360 778 C360 764 370 754 383 754 C388 754 393 755 398 757 L542 825 C558 833 563 843 563 852 C563 864 555 875 539 875 C534 875 529 874 523 871 Z " />
<glyph glyph-name="Ucircumflex" unicode="&#xdb;" horiz-adv-x="705" d="M685 668 C689 687 677 704 658 704 C640 704 630 689 628 676 L561 271 C535 114 442 47 333 47 C233 47 101 102 134 298 L196 668 C200 691 186 704 170 704 C152 704 142 689 140 676 L78 307 C39 77 197 -10 336 -10 C482 -10 587 85 618 269 Z M444 819 L509 759 C516 753 521 750 530 750 C542 750 553 761 553 774 C553 781 550 788 542 795 L473 860 C465 867 457 871 447 871 C436 871 428 868 418 861 L318 797 C308 790 304 783 304 773 C304 760 314 750 326 750 C332 750 338 752 345 756 Z " />
<glyph glyph-name="Udieresis" unicode="&#xdc;" horiz-adv-x="705" d="M685 668 C689 687 677 704 658 704 C640 704 630 689 628 676 L561 271 C535 114 442 47 333 47 C233 47 101 102 134 298 L196 668 C200 691 186 704 170 704 C152 704 142 689 140 676 L78 307 C39 77 197 -10 336 -10 C482 -10 587 85 618 269 Z M369 836 C346 836 329 817 329 797 C329 776 344 763 364 763 C386 763 404 780 404 802 C404 822 390 836 369 836 Z M519 836 C496 836 479 817 479 797 C479 776 494 763 514 763 C536 763 553 780 553 802 C553 822 539 836 519 836 Z " />
<glyph glyph-name="Umacron" unicode="&#x16a;" horiz-adv-x="705" d="M685 668 C689 687 677 704 658 704 C640 704 630 689 628 676 L561 271 C535 114 442 47 333 47 C233 47 101 102 134 298 L196 668 C200 691 186 704 170 704 C152 704 142 689 140 676 L78 307 C39 77 197 -10 336 -10 C482 -10 587 85 618 269 Z M515 770 C531 770 542 783 542 797 C542 810 532 821 516 821 L350 821 C333 821 322 809 322 795 C322 782 332 770 349 770 Z " />
<glyph glyph-name="Uring" unicode="&#x16e;" horiz-adv-x="705" d="M685 668 C689 687 677 704 658 704 C640 704 630 689 628 676 L561 271 C535 114 442 47 333 47 C233 47 101 102 134 298 L196 668 C200 691 186 704 170 704 C152 704 142 689 140 676 L78 307 C39 77 197 -10 336 -10 C482 -10 587 85 618 269 Z M435 748 C494 748 527 797 527 843 C527 886 497 923 447 923 C387 923 354 874 354 830 C354 785 385 748 435 748 Z M436 785 C406 785 391 806 391 830 C391 857 410 886 446 886 C475 886 491 865 491 841 C491 814 471 785 436 785 Z " />
<glyph glyph-name="Uhungarumlaut" unicode="&#x170;" horiz-adv-x="705" d="M685 668 C689 687 677 704 658 704 C640 704 630 689 628 676 L561 271 C535 114 442 47 333 47 C233 47 101 102 134 298 L196 668 C200 691 186 704 170 704 C152 704 142 689 140 676 L78 307 C39 77 197 -10 336 -10 C482 -10 587 85 618 269 Z M468 838 C477 844 481 853 481 861 C481 875 470 886 456 886 C448 886 440 882 433 876 L332 801 C323 794 319 784 319 777 C319 762 329 752 343 752 C350 752 358 755 365 761 Z M620 838 C628 844 632 853 632 861 C632 875 622 886 607 886 C599 886 592 882 585 876 L484 801 C475 794 470 784 470 777 C470 762 481 752 494 752 C501 752 509 755 516 761 Z " />
<glyph glyph-name="Uogonek" unicode="&#x172;" horiz-adv-x="705" d="M330 -200 C354 -200 378 -193 397 -179 C407 -172 415 -162 415 -152 C415 -140 405 -132 396 -132 C390 -132 384 -135 377 -139 C362 -149 349 -154 335 -154 C309 -154 282 -141 282 -105 C282 -45 363 -15 401 -3 C511 32 589 97 619 276 L685 668 C688 689 676 703 657 703 C642 703 631 692 628 676 L561 271 C536 118 444 47 330 47 C229 47 101 103 134 298 L196 668 C200 689 188 703 169 703 C154 703 143 692 140 676 L78 307 C41 92 175 8 298 -8 C258 -33 235 -66 235 -105 C235 -170 283 -200 330 -200 Z " />
<glyph glyph-name="Wgrave" unicode="&#x1e80;" horiz-adv-x="905" d="M568 646 C564 683 544 704 516 704 C487 704 469 684 455 652 L194 57 C190 48 183 49 182 57 L148 677 C147 694 134 704 119 704 C100 704 88 688 89 668 L126 43 C128 12 154 -10 184 -10 C210 -10 230 7 244 39 L507 639 C509 644 514 644 515 638 L577 44 C581 8 608 -10 635 -10 C662 -10 682 8 694 39 L940 660 C942 666 944 672 944 678 C944 691 933 704 915 704 C904 704 892 698 885 679 L643 57 C639 47 630 49 629 57 Z M546 753 C560 753 572 763 572 777 C572 785 568 794 558 799 L433 870 C427 873 421 874 415 874 C401 874 390 864 390 850 C390 842 394 832 405 827 L529 758 C535 755 541 753 546 753 Z " />
<glyph glyph-name="Wacute" unicode="&#x1e82;" horiz-adv-x="905" d="M568 646 C564 683 544 704 516 704 C487 704 469 684 455 652 L194 57 C190 48 183 49 182 57 L148 677 C147 694 134 704 119 704 C100 704 88 688 89 668 L126 43 C128 12 154 -10 184 -10 C210 -10 230 7 244 39 L507 639 C509 644 514 644 515 638 L577 44 C581 8 608 -10 635 -10 C662 -10 682 8 694 39 L940 660 C942 666 944 672 944 678 C944 691 933 704 915 704 C904 704 892 698 885 679 L643 57 C639 47 630 49 629 57 Z M492 801 C480 796 476 786 476 778 C476 764 486 754 499 754 C504 754 509 755 514 757 L658 825 C674 833 679 843 679 852 C679 864 671 875 655 875 C650 875 645 874 639 871 Z " />
<glyph glyph-name="Wcircumflex" unicode="&#x174;" horiz-adv-x="905" d="M568 646 C564 683 544 704 516 704 C487 704 469 684 455 652 L194 57 C190 48 183 49 182 57 L148 677 C147 694 134 704 119 704 C100 704 88 688 89 668 L126 43 C128 12 154 -10 184 -10 C210 -10 230 7 244 39 L507 639 C509 644 514 644 515 638 L577 44 C581 8 608 -10 635 -10 C662 -10 682 8 694 39 L940 660 C942 666 944 672 944 678 C944 691 933 704 915 704 C904 704 892 698 885 679 L643 57 C639 47 630 49 629 57 Z M539 819 L604 759 C611 753 616 750 625 750 C637 750 648 761 648 774 C648 781 645 788 637 795 L568 860 C560 867 552 871 542 871 C531 871 523 868 513 861 L413 797 C403 790 399 783 399 773 C399 760 409 750 421 750 C427 750 433 752 440 756 Z " />
<glyph glyph-name="Wdieresis" unicode="&#x1e84;" horiz-adv-x="905" d="M568 646 C564 683 544 704 516 704 C487 704 469 684 455 652 L194 57 C190 48 183 49 182 57 L148 677 C147 694 134 704 119 704 C100 704 88 688 89 668 L126 43 C128 12 154 -10 184 -10 C210 -10 230 7 244 39 L507 639 C509 644 514 644 515 638 L577 44 C581 8 608 -10 635 -10 C662 -10 682 8 694 39 L940 660 C942 666 944 672 944 678 C944 691 933 704 915 704 C904 704 892 698 885 679 L643 57 C639 47 630 49 629 57 Z M467 836 C444 836 427 817 427 797 C427 776 442 763 462 763 C484 763 502 780 502 802 C502 822 488 836 467 836 Z M617 836 C594 836 577 817 577 797 C577 776 592 763 612 763 C634 763 651 780 651 802 C651 822 637 836 617 836 Z " />
<glyph glyph-name="Ygrave" unicode="&#x1ef2;" horiz-adv-x="614" d="M252 346 C264 328 268 315 265 298 L220 29 C217 11 228 -4 247 -4 C264 -4 273 7 276 25 L321 298 C324 315 331 326 349 344 L647 652 C655 659 659 669 659 677 C659 692 646 704 630 704 C621 704 612 700 605 692 L301 376 L106 688 C100 698 90 704 80 704 C63 704 51 691 51 675 C51 669 53 662 57 656 Z M391 753 C405 753 417 763 417 777 C417 785 413 794 403 799 L278 870 C272 873 266 874 260 874 C246 874 235 864 235 850 C235 842 239 832 250 827 L374 758 C380 755 386 753 391 753 Z " />
<glyph glyph-name="Yacute" unicode="&#xdd;" horiz-adv-x="614" d="M252 346 C264 328 268 315 265 298 L220 29 C217 11 228 -4 247 -4 C264 -4 273 7 276 25 L321 298 C324 315 331 326 349 344 L647 652 C655 659 659 669 659 677 C659 692 646 704 630 704 C621 704 612 700 605 692 L301 376 L106 688 C100 698 90 704 80 704 C63 704 51 691 51 675 C51 669 53 662 57 656 Z M328 801 C316 796 312 786 312 778 C312 764 322 754 335 754 C340 754 345 755 350 757 L494 825 C510 833 515 843 515 852 C515 864 507 875 491 875 C486 875 481 874 475 871 Z " />
<glyph glyph-name="Ycircumflex" unicode="&#x176;" horiz-adv-x="614" d="M252 346 C264 328 268 315 265 298 L220 29 C217 11 228 -4 247 -4 C264 -4 273 7 276 25 L321 298 C324 315 331 326 349 344 L647 652 C655 659 659 669 659 677 C659 692 646 704 630 704 C621 704 612 700 605 692 L301 376 L106 688 C100 698 90 704 80 704 C63 704 51 691 51 675 C51 669 53 662 57 656 Z M384 819 L449 759 C456 753 461 750 470 750 C482 750 493 761 493 774 C493 781 490 788 482 795 L413 860 C405 867 397 871 387 871 C376 871 368 868 358 861 L258 797 C248 790 244 783 244 773 C244 760 254 750 266 750 C272 750 278 752 285 756 Z " />
<glyph glyph-name="Ydieresis" unicode="&#x178;" horiz-adv-x="614" d="M252 346 C264 328 268 315 265 298 L220 29 C217 11 228 -4 247 -4 C264 -4 273 7 276 25 L321 298 C324 315 331 326 349 344 L647 652 C655 659 659 669 659 677 C659 692 646 704 630 704 C621 704 612 700 605 692 L301 376 L106 688 C100 698 90 704 80 704 C63 704 51 691 51 675 C51 669 53 662 57 656 Z M290 785 C267 785 250 766 250 746 C250 725 265 712 285 712 C307 712 325 729 325 751 C325 771 311 785 290 785 Z M440 785 C417 785 400 766 400 746 C400 725 415 712 435 712 C457 712 474 729 474 751 C474 771 460 785 440 785 Z " />
<glyph glyph-name="Zacute" unicode="&#x179;" horiz-adv-x="573" d="M458 0 C475 0 488 11 488 27 C488 42 478 55 459 55 L79 55 L564 621 C575 634 585 647 585 664 C585 683 571 699 540 699 L138 699 C122 699 108 688 108 672 C108 657 119 644 138 644 L509 644 L23 78 C11 64 3 53 3 37 C3 17 18 0 49 0 Z M326 801 C314 796 310 786 310 778 C310 764 320 754 333 754 C338 754 343 755 348 757 L492 825 C508 833 513 843 513 852 C513 864 505 875 489 875 C484 875 479 874 473 871 Z " />
<glyph glyph-name="Zcaron" unicode="&#x17d;" horiz-adv-x="573" d="M458 0 C475 0 488 11 488 27 C488 42 478 55 459 55 L79 55 L564 621 C575 634 585 647 585 664 C585 683 571 699 540 699 L138 699 C122 699 108 688 108 672 C108 657 119 644 138 644 L509 644 L23 78 C11 64 3 53 3 37 C3 17 18 0 49 0 Z M355 749 C365 749 374 754 383 760 L476 821 C485 828 490 836 490 845 C490 857 480 869 466 869 C461 869 455 867 450 863 L358 801 L288 861 C282 866 276 869 270 869 C256 869 245 857 245 844 C245 837 248 830 254 825 L330 760 C337 754 345 749 355 749 Z " />
<glyph glyph-name="Zdotaccent" unicode="&#x17b;" horiz-adv-x="573" d="M458 0 C475 0 488 11 488 27 C488 42 478 55 459 55 L79 55 L564 621 C575 634 585 647 585 664 C585 683 571 699 540 699 L138 699 C122 699 108 688 108 672 C108 657 119 644 138 644 L509 644 L23 78 C11 64 3 53 3 37 C3 17 18 0 49 0 Z M371 836 C348 836 331 817 331 797 C331 776 346 763 366 763 C388 763 406 780 406 802 C406 822 392 836 371 836 Z " />
<glyph glyph-name="Eth" unicode="&#xd0;" horiz-adv-x="676" d="M92 0 L268 0 C458 0 577 72 624 279 C632 313 639 363 643 402 C661 575 550 699 351 699 L210 699 C179 699 158 680 153 650 L107 373 L27 373 C10 373 -3 360 -3 345 C-3 332 7 319 25 319 L98 319 L54 49 C49 19 63 0 92 0 Z M112 55 L155 319 L339 319 C359 319 369 333 369 346 C369 361 357 373 341 373 L164 373 L209 644 L350 644 C512 644 604 552 584 395 C581 368 576 327 568 291 C529 120 435 55 272 55 Z " />
<glyph glyph-name="Thorn" unicode="&#xde;" horiz-adv-x="606" d="M137 140 L325 140 C489 140 596 233 596 370 C596 496 507 565 370 565 L208 565 L227 679 C230 699 215 709 200 709 C184 709 172 697 169 678 L61 30 C58 10 71 -4 88 -4 C102 -4 115 7 117 25 Z M146 196 L199 511 L364 511 C486 511 537 447 537 367 C537 256 440 196 331 196 Z " />
<glyph glyph-name="a" unicode="a" horiz-adv-x="544" d="M474 337 C496 469 407 527 296 527 C246 527 179 508 152 493 C141 487 133 478 133 466 C133 445 153 435 172 442 C201 453 243 473 295 473 C383 473 437 434 420 340 L409 278 C349 306 289 318 235 318 C132 318 40 265 40 151 C40 61 119 -10 243 -10 C318 -10 375 15 410 38 C424 47 426 54 429 72 Z M248 44 C143 44 96 99 96 152 C96 234 171 266 243 266 C291 266 348 252 400 226 L376 80 C341 58 288 44 248 44 Z " />
<glyph glyph-name="b" unicode="b" horiz-adv-x="568" d="M519 320 C531 461 437 527 333 527 C279 527 229 510 187 490 L217 672 C221 693 209 707 190 707 C175 707 164 697 161 680 L62 83 C60 68 59 60 69 51 C87 36 175 -10 278 -10 C391 -10 471 53 500 188 C509 228 516 287 519 320 Z M442 188 C420 98 367 47 277 47 C213 47 149 68 119 87 L177 428 C207 444 268 472 325 472 C416 472 468 418 463 325 C461 292 452 225 442 188 Z " />
<glyph glyph-name="c" unicode="c" horiz-adv-x="543" d="M264 47 C184 47 99 92 113 210 C116 234 124 289 130 317 C153 419 217 472 297 472 C349 472 415 449 438 378 C443 363 453 355 466 355 C482 355 493 368 493 382 C493 393 490 403 487 412 C469 462 408 527 299 527 C197 527 100 462 75 322 C68 283 61 244 58 217 C39 64 150 -10 266 -10 C389 -10 439 78 455 119 C458 126 459 133 459 139 C459 155 446 165 431 165 C417 165 408 154 404 143 C373 64 314 47 264 47 Z " />
<glyph glyph-name="d" unicode="d" horiz-adv-x="593" d="M75 328 C68 291 62 251 58 217 C40 66 137 -10 260 -10 C335 -10 396 20 428 40 C446 51 449 58 451 73 L551 672 C554 693 542 707 524 707 C508 707 498 697 495 680 L463 483 C425 504 367 527 294 527 C185 527 100 463 75 328 Z M113 210 C117 246 124 294 130 322 C150 419 206 472 298 472 C365 472 425 444 453 425 L397 86 C368 68 315 47 260 47 C164 47 100 95 113 210 Z " />
<glyph glyph-name="e" unicode="e" horiz-adv-x="541" d="M118 234 L419 234 C457 234 475 257 483 289 L486 304 C518 465 407 527 305 527 C203 527 109 478 76 324 C69 292 62 247 58 211 C42 77 128 -10 271 -10 C323 -10 379 7 412 26 C425 33 435 43 435 58 C435 70 425 83 409 83 C402 83 396 81 390 78 C345 55 303 44 267 44 C169 44 97 102 114 209 Z M125 284 C145 411 200 472 305 472 C385 472 460 426 429 301 C426 289 421 284 407 284 Z " />
<glyph glyph-name="f" unicode="f" horiz-adv-x="377" d="M146 504 L99 504 C84 504 71 494 71 478 C71 464 80 451 99 451 L137 451 L67 31 C64 10 76 -4 94 -4 C109 -4 121 6 124 23 L195 451 L347 451 C363 451 376 462 376 477 C376 492 366 504 347 504 L203 504 L211 551 C222 618 251 659 322 659 C365 659 381 644 402 644 C417 644 428 656 428 670 C428 683 420 693 407 699 C392 706 357 714 327 714 C225 714 170 657 154 555 Z " />
<glyph glyph-name="g" unicode="g" horiz-adv-x="578" d="M526 437 C529 455 523 463 513 471 C479 495 409 527 318 527 C200 527 117 467 92 332 C83 287 78 257 74 223 C57 88 128 2 265 2 C314 2 357 15 406 40 C390 -93 313 -139 231 -139 C169 -139 124 -115 94 -89 C86 -82 78 -78 69 -78 C52 -78 42 -92 42 -104 C42 -116 49 -124 58 -131 C86 -155 150 -193 234 -193 C322 -193 430 -153 458 22 Z M317 472 C389 472 445 444 469 429 L416 107 C377 79 321 55 265 55 C164 55 115 116 128 210 C133 248 140 294 146 322 C166 421 221 472 317 472 Z " />
<glyph glyph-name="h" unicode="h" horiz-adv-x="602" d="M225 672 C229 693 217 707 198 707 C183 707 172 697 169 680 L61 31 C58 10 70 -4 89 -4 C104 -4 114 6 117 23 L182 403 C254 452 311 470 358 470 C437 470 492 434 471 311 L423 29 C419 6 435 -4 451 -4 C466 -4 476 6 479 25 L527 314 C555 482 454 527 360 527 C306 527 252 507 192 470 Z " />
<glyph glyph-name="i" unicode="i" horiz-adv-x="273" d="M237 669 C237 689 224 706 201 706 C173 706 158 684 158 662 C158 642 172 624 196 624 C222 624 237 647 237 669 Z M61 31 C57 10 70 -4 89 -4 C104 -4 114 6 117 23 L195 485 C198 506 186 520 167 520 C152 520 142 509 139 493 Z " />
<glyph glyph-name="j" unicode="j" horiz-adv-x="272" d="M70 56 C55 -32 25 -87 -52 -141 C-62 -148 -66 -157 -66 -166 C-66 -182 -54 -191 -40 -191 C-33 -191 -25 -189 -16 -182 C54 -129 105 -81 129 65 L199 485 C202 506 190 520 171 520 C156 520 146 509 143 493 Z M236 669 C236 689 223 706 200 706 C172 706 157 684 157 662 C157 642 171 624 195 624 C221 624 236 647 236 669 Z " />
<glyph glyph-name="k" unicode="k" horiz-adv-x="521" d="M198 707 C183 707 172 697 169 680 L61 31 C58 10 70 -4 89 -4 C104 -4 114 6 117 23 L154 241 L188 241 C217 241 227 235 242 215 L391 10 C399 0 407 -4 417 -4 C434 -4 444 8 444 22 C444 29 442 37 435 45 L272 266 L489 473 C498 481 501 489 501 498 C501 514 489 524 474 524 C467 524 459 520 452 513 L252 321 C230 299 220 295 192 295 L163 295 L225 672 C229 693 217 707 198 707 Z " />
<glyph glyph-name="l" unicode="l" horiz-adv-x="263" d="M61 31 C58 10 70 -4 89 -4 C104 -4 114 6 117 23 L225 672 C229 693 217 707 198 707 C183 707 172 697 169 680 Z " />
<glyph glyph-name="m" unicode="m" horiz-adv-x="861" d="M786 317 C808 450 745 527 630 527 C555 527 494 492 451 456 C429 503 371 527 308 527 C247 527 180 505 145 479 C130 468 123 457 120 445 L51 31 C48 10 60 -4 79 -4 C94 -4 104 6 107 23 L175 432 C204 452 255 470 309 470 C386 470 434 430 416 327 L365 29 C362 9 376 -4 392 -4 C409 -4 419 6 422 25 L471 320 C476 354 477 385 473 406 C503 433 557 470 623 470 C704 470 746 421 729 317 L681 29 C678 10 691 -4 708 -4 C725 -4 734 7 737 25 Z " />
<glyph glyph-name="n" unicode="n" horiz-adv-x="592" d="M517 312 C545 479 436 527 334 527 C249 527 177 495 144 476 C127 466 122 459 119 443 L51 31 C48 10 60 -4 79 -4 C94 -4 104 6 107 23 L174 427 C209 447 269 470 331 470 C391 470 485 450 461 310 L413 29 C409 9 423 -4 439 -4 C456 -4 466 6 469 25 Z " />
<glyph glyph-name="o" unicode="o" horiz-adv-x="557" d="M303 527 C187 527 105 464 76 332 C67 291 58 235 56 210 C45 65 156 -10 271 -10 C382 -10 459 57 488 185 C498 227 506 283 508 308 C519 453 410 527 303 527 Z M451 304 C449 284 442 232 435 201 C413 99 359 47 267 47 C195 47 99 91 113 213 C115 233 122 285 129 316 C151 418 207 472 302 472 C374 472 465 422 451 304 Z " />
<glyph glyph-name="p" unicode="p" horiz-adv-x="559" d="M490 191 C498 229 504 268 508 302 C525 453 429 527 306 527 C231 527 169 498 138 479 C120 467 117 460 114 445 L14 -158 C11 -179 22 -193 41 -193 C57 -193 67 -183 70 -166 L103 35 C141 15 199 -10 268 -10 C383 -10 463 55 490 191 Z M452 309 C448 272 440 225 434 197 C413 99 360 47 268 47 C206 47 152 68 113 92 L169 432 C198 451 254 472 305 472 C402 472 465 418 452 309 Z " />
<glyph glyph-name="q" unicode="q" horiz-adv-x="558" d="M48 198 C39 58 135 -8 243 -8 C294 -8 337 4 380 25 L349 -159 C345 -180 358 -194 376 -194 C392 -194 402 -184 405 -167 L505 433 C508 449 508 456 498 466 C481 482 397 527 301 527 C172 527 96 465 67 329 C58 289 50 230 48 198 Z M125 330 C147 419 200 472 294 472 C347 472 406 454 447 429 L390 89 C360 73 308 47 242 47 C151 47 99 100 104 192 C106 225 115 292 125 330 Z " />
<glyph glyph-name="r" unicode="r" horiz-adv-x="368" d="M370 509 C347 519 311 527 273 527 C193 527 128 493 108 374 L51 31 C48 10 60 -4 79 -4 C94 -4 105 6 108 23 L164 362 C177 439 212 468 274 468 C301 468 323 463 334 460 C345 457 354 452 365 452 C382 452 393 464 393 480 C393 495 383 503 370 509 Z " />
<glyph glyph-name="s" unicode="s" horiz-adv-x="490" d="M256 291 C192 319 153 339 153 385 C153 438 201 472 270 472 C318 472 360 457 396 434 C402 430 409 426 418 426 C434 426 444 438 444 452 C444 459 440 467 431 475 C411 495 346 527 268 527 C182 527 97 479 97 384 C97 309 165 274 224 246 C289 215 358 202 358 138 C358 82 307 44 234 44 C174 44 118 71 78 100 C70 105 62 111 53 111 C38 111 27 99 27 85 C27 77 30 70 38 63 C61 41 144 -10 237 -10 C341 -10 414 52 414 138 C414 227 335 256 256 291 Z " />
<glyph glyph-name="t" unicode="t" horiz-adv-x="407" d="M299 12 C315 20 323 30 323 43 C323 59 311 70 297 70 C290 70 281 66 273 63 C253 55 237 47 208 47 C130 47 122 92 134 165 L182 453 L343 453 C359 453 372 464 372 479 C372 494 362 506 343 506 L191 506 L206 592 C209 610 195 623 178 623 C163 623 150 615 147 594 L76 164 C55 35 118 -10 210 -10 C237 -10 272 -2 299 12 Z " />
<glyph glyph-name="u" unicode="u" horiz-adv-x="576" d="M70 225 C44 67 140 -10 261 -10 C343 -10 411 22 443 44 C455 53 461 61 463 72 L532 485 C536 506 523 520 504 520 C489 520 479 509 476 493 L410 93 C375 65 317 47 264 47 C176 47 105 87 127 223 L170 487 C173 507 160 520 144 520 C127 520 117 509 114 491 Z " />
<glyph glyph-name="v" unicode="v" horiz-adv-x="510" d="M223 57 C219 48 206 48 204 60 C202 76 197 108 192 132 L116 494 C113 508 104 520 87 520 C69 520 55 505 60 482 L153 47 C161 10 186 -4 210 -4 C239 -4 254 10 271 42 L510 478 C523 502 505 520 487 520 C474 520 466 515 457 498 L259 132 C240 97 231 73 223 57 Z " />
<glyph glyph-name="w" unicode="w" horiz-adv-x="802" d="M486 42 C490 6 513 -10 542 -10 C565 -10 584 2 598 34 L801 479 C812 503 796 520 776 520 C765 520 756 515 749 500 L582 129 C572 107 564 82 551 52 C548 46 544 44 541 44 C538 44 535 46 534 54 C531 81 530 107 527 132 L488 470 C484 509 461 520 438 520 C419 520 398 510 383 477 L226 131 C214 106 205 78 195 52 C193 47 190 44 185 44 C180 44 176 46 175 55 C173 84 172 110 169 135 L127 492 C124 515 111 520 99 520 C82 520 68 507 71 484 L124 49 C129 4 158 -10 180 -10 C206 -10 221 1 236 35 L424 451 C426 456 429 458 432 458 C435 458 438 456 439 448 Z " />
<glyph glyph-name="x" unicode="x" horiz-adv-x="523" d="M378 13 C384 3 392 -4 404 -4 C422 -4 431 9 431 22 C431 29 428 36 423 43 L292 262 L484 469 C491 477 495 485 495 493 C495 507 485 520 467 520 C460 520 452 516 445 508 L262 310 L145 506 C140 515 131 520 122 520 C105 520 93 506 93 492 C93 486 95 479 99 473 L222 270 L12 46 C4 38 1 30 1 22 C1 7 14 -4 30 -4 C37 -4 44 -1 51 6 L253 222 Z " />
<glyph glyph-name="y" unicode="y" horiz-adv-x="502" d="M117 493 C113 509 104 520 88 520 C70 520 54 505 61 479 L184 33 C127 -69 77 -116 24 -143 C11 -149 4 -156 4 -169 C4 -184 18 -193 30 -193 C40 -193 51 -190 63 -183 C119 -153 175 -94 235 13 L498 475 C510 496 500 520 475 520 C462 520 454 511 447 498 L265 175 C248 144 237 120 230 106 C227 102 225 100 222 100 C218 100 217 104 216 108 C213 132 208 156 202 179 Z " />
<glyph glyph-name="z" unicode="z" horiz-adv-x="490" d="M457 437 C466 446 472 459 472 471 C472 492 458 510 423 510 L131 510 C115 510 102 498 102 481 C102 468 112 455 131 455 L400 455 L38 72 C28 61 23 50 23 37 C23 17 37 0 66 0 L372 0 C393 0 404 12 404 28 C404 41 396 55 369 55 L97 55 Z " />
<glyph glyph-name="agrave" unicode="&#xe0;" horiz-adv-x="544" d="M474 337 C496 469 407 527 296 527 C246 527 179 508 152 493 C141 487 133 478 133 466 C133 445 153 435 172 442 C201 453 243 473 295 473 C383 473 437 434 420 340 L409 278 C349 306 289 318 235 318 C132 318 40 265 40 151 C40 61 119 -10 243 -10 C318 -10 375 15 410 38 C424 47 426 54 429 72 Z M248 44 C143 44 96 99 96 152 C96 234 171 266 243 266 C291 266 348 252 400 226 L376 80 C341 58 288 44 248 44 Z M366 588 C380 588 392 598 392 612 C392 620 388 629 378 634 L253 705 C247 708 241 709 235 709 C221 709 210 699 210 685 C210 677 214 667 225 662 L349 593 C355 590 361 588 366 588 Z " />
<glyph glyph-name="aacute" unicode="&#xe1;" horiz-adv-x="545" d="M474 337 C496 469 407 527 296 527 C246 527 179 508 152 493 C141 487 133 478 133 466 C133 445 153 435 172 442 C201 453 243 473 295 473 C383 473 437 434 420 340 L409 278 C349 306 289 318 235 318 C132 318 40 265 40 151 C40 61 119 -10 243 -10 C318 -10 375 15 410 38 C424 47 426 54 429 72 Z M248 44 C143 44 96 99 96 152 C96 234 171 266 243 266 C291 266 348 252 400 226 L376 80 C341 58 288 44 248 44 Z M279 636 C267 631 263 621 263 613 C263 599 273 589 286 589 C291 589 296 590 301 592 L445 660 C461 668 466 678 466 687 C466 699 458 710 442 710 C437 710 432 709 426 706 Z " />
<glyph glyph-name="acircumflex" unicode="&#xe2;" horiz-adv-x="545" d="M474 337 C496 469 407 527 296 527 C246 527 179 508 152 493 C141 487 133 478 133 466 C133 445 153 435 172 442 C201 453 243 473 295 473 C383 473 437 434 420 340 L409 278 C349 306 289 318 235 318 C132 318 40 265 40 151 C40 61 119 -10 243 -10 C318 -10 375 15 410 38 C424 47 426 54 429 72 Z M248 44 C143 44 96 99 96 152 C96 234 171 266 243 266 C291 266 348 252 400 226 L376 80 C341 58 288 44 248 44 Z M340 642 L405 582 C412 576 417 573 426 573 C438 573 449 584 449 597 C449 604 446 611 438 618 L369 683 C361 690 353 694 343 694 C332 694 324 691 314 684 L214 620 C204 613 200 606 200 596 C200 583 210 573 222 573 C228 573 234 575 241 579 Z " />
<glyph glyph-name="atilde" unicode="&#xe3;" horiz-adv-x="546" d="M474 337 C496 469 407 527 296 527 C246 527 179 508 152 493 C141 487 133 478 133 466 C133 445 153 435 172 442 C201 453 243 473 295 473 C383 473 437 434 420 340 L409 278 C349 306 289 318 235 318 C132 318 40 265 40 151 C40 61 119 -10 243 -10 C318 -10 375 15 410 38 C424 47 426 54 429 72 Z M248 44 C143 44 96 99 96 152 C96 234 171 266 243 266 C291 266 348 252 400 226 L376 80 C341 58 288 44 248 44 Z M388 594 C411 594 435 607 457 622 C467 630 473 638 473 648 C473 662 460 672 449 672 C428 672 415 645 390 645 C358 645 330 682 284 682 C260 682 233 670 213 652 C207 646 201 639 201 629 C201 617 210 605 225 605 C245 605 255 632 282 632 C312 632 341 594 388 594 Z " />
<glyph glyph-name="adieresis" unicode="&#xe4;" horiz-adv-x="545" d="M474 337 C496 469 407 527 296 527 C246 527 179 508 152 493 C141 487 133 478 133 466 C133 445 153 435 172 442 C201 453 243 473 295 473 C383 473 437 434 420 340 L409 278 C349 306 289 318 235 318 C132 318 40 265 40 151 C40 61 119 -10 243 -10 C318 -10 375 15 410 38 C424 47 426 54 429 72 Z M248 44 C143 44 96 99 96 152 C96 234 171 266 243 266 C291 266 348 252 400 226 L376 80 C341 58 288 44 248 44 Z M265 674 C242 674 225 655 225 635 C225 614 240 601 260 601 C282 601 300 618 300 640 C300 660 286 674 265 674 Z M415 674 C392 674 375 655 375 635 C375 614 390 601 410 601 C432 601 449 618 449 640 C449 660 435 674 415 674 Z " />
<glyph glyph-name="amacron" unicode="&#x101;" horiz-adv-x="544" d="M474 337 C496 469 407 527 296 527 C246 527 179 508 152 493 C141 487 133 478 133 466 C133 445 153 435 172 442 C201 453 243 473 295 473 C383 473 437 434 420 340 L409 278 C349 306 289 318 235 318 C132 318 40 265 40 151 C40 61 119 -10 243 -10 C318 -10 375 15 410 38 C424 47 426 54 429 72 Z M248 44 C143 44 96 99 96 152 C96 234 171 266 243 266 C291 266 348 252 400 226 L376 80 C341 58 288 44 248 44 Z M420 611 C436 611 447 624 447 638 C447 651 437 662 421 662 L255 662 C238 662 227 650 227 636 C227 623 237 611 254 611 Z " />
<glyph glyph-name="abreve" unicode="&#x103;" horiz-adv-x="545" d="M474 337 C496 469 407 527 296 527 C246 527 179 508 152 493 C141 487 133 478 133 466 C133 445 153 435 172 442 C201 453 243 473 295 473 C383 473 437 434 420 340 L409 278 C349 306 289 318 235 318 C132 318 40 265 40 151 C40 61 119 -10 243 -10 C318 -10 375 15 410 38 C424 47 426 54 429 72 Z M248 44 C143 44 96 99 96 152 C96 234 171 266 243 266 C291 266 348 252 400 226 L376 80 C341 58 288 44 248 44 Z M339 588 C397 588 435 626 451 664 C454 672 456 681 456 687 C456 702 446 709 434 709 C419 709 412 697 409 688 C397 659 378 635 340 635 C299 635 287 663 282 684 C280 697 276 709 260 709 C248 709 236 701 236 683 C236 673 238 664 240 659 C255 610 296 588 339 588 Z " />
<glyph glyph-name="aring" unicode="&#xe5;" horiz-adv-x="544" d="M474 337 C496 469 407 527 296 527 C246 527 179 508 152 493 C141 487 133 478 133 466 C133 445 153 435 172 442 C201 453 243 473 295 473 C383 473 437 434 420 340 L409 278 C349 306 289 318 235 318 C132 318 40 265 40 151 C40 61 119 -10 243 -10 C318 -10 375 15 410 38 C424 47 426 54 429 72 Z M248 44 C143 44 96 99 96 152 C96 234 171 266 243 266 C291 266 348 252 400 226 L376 80 C341 58 288 44 248 44 Z M336 567 C395 567 428 616 428 662 C428 705 398 742 348 742 C288 742 255 693 255 649 C255 604 286 567 336 567 Z M337 604 C307 604 292 625 292 649 C292 676 311 705 347 705 C376 705 392 684 392 660 C392 633 372 604 337 604 Z " />
<glyph glyph-name="aogonek" unicode="&#x105;" horiz-adv-x="544" d="M319 -176 C338 -176 364 -169 382 -155 C391 -148 398 -141 398 -130 C398 -118 389 -109 378 -109 C372 -109 365 -113 359 -117 C345 -127 334 -131 319 -131 C293 -131 268 -118 268 -83 C268 -20 345 4 397 30 C417 40 425 50 429 72 L474 337 C497 470 403 527 299 527 C244 527 179 508 152 493 C141 487 133 478 133 466 C133 445 153 435 172 442 C201 453 243 473 295 473 C383 473 437 434 420 340 L409 278 C350 306 289 318 235 318 C130 318 40 264 40 151 C40 59 122 -8 232 -8 C243 -8 250 -8 257 -7 C233 -28 220 -59 220 -86 C220 -142 267 -176 319 -176 Z M248 44 C143 44 96 99 96 152 C96 234 171 266 243 266 C295 266 348 251 400 226 L376 80 C341 58 289 44 248 44 Z " />
<glyph glyph-name="ae" unicode="&#xe6;" horiz-adv-x="882" d="M410 278 C351 305 289 318 235 318 C127 318 40 261 40 152 C40 58 123 -10 243 -10 C320 -10 375 12 435 61 C474 16 534 -10 611 -10 C665 -10 720 7 753 26 C766 33 776 43 776 58 C776 70 765 83 750 83 C743 83 737 81 731 78 C686 55 644 44 608 44 C525 44 452 86 452 180 C452 195 455 214 459 234 L760 234 C798 234 816 257 824 289 L827 304 C859 462 748 527 652 527 C574 527 512 501 466 435 C442 496 374 527 296 527 C243 527 177 507 152 493 C140 486 133 478 133 466 C133 446 152 435 172 442 C201 453 243 473 295 473 C383 473 438 433 421 340 Z M248 44 C146 44 96 97 96 151 C96 232 167 266 243 266 C296 266 349 251 401 226 C394 176 398 135 411 105 C357 58 288 44 248 44 Z M466 284 C486 411 541 472 646 472 C734 472 799 418 770 301 C767 289 761 284 747 284 Z " />
<glyph glyph-name="cacute" unicode="&#x107;" horiz-adv-x="543" d="M264 47 C184 47 99 92 113 210 C116 234 124 289 130 317 C153 419 217 472 297 472 C349 472 415 449 438 378 C443 363 453 355 466 355 C482 355 493 368 493 382 C493 393 490 403 487 412 C469 462 408 527 299 527 C197 527 100 462 75 322 C68 283 61 244 58 217 C39 64 150 -10 266 -10 C389 -10 439 78 455 119 C458 126 459 133 459 139 C459 155 446 165 431 165 C417 165 408 154 404 143 C373 64 314 47 264 47 Z M273 636 C261 631 257 621 257 613 C257 599 267 589 280 589 C285 589 290 590 295 592 L439 660 C455 668 460 678 460 687 C460 699 452 710 436 710 C431 710 426 709 420 706 Z " />
<glyph glyph-name="ccaron" unicode="&#x10d;" horiz-adv-x="544" d="M264 47 C184 47 99 92 113 210 C116 234 124 289 130 317 C153 419 217 472 297 472 C349 472 415 449 438 378 C443 363 453 355 466 355 C482 355 493 368 493 382 C493 393 490 403 487 412 C469 462 408 527 299 527 C197 527 100 462 75 322 C68 283 61 244 58 217 C39 64 150 -10 266 -10 C389 -10 439 78 455 119 C458 126 459 133 459 139 C459 155 446 165 431 165 C417 165 408 154 404 143 C373 64 314 47 264 47 Z M321 587 C331 587 340 592 349 598 L442 659 C451 666 456 674 456 683 C456 695 446 707 432 707 C427 707 421 705 416 701 L324 639 L254 699 C248 704 242 707 236 707 C222 707 211 695 211 682 C211 675 214 668 220 663 L296 598 C303 592 311 587 321 587 Z " />
<glyph glyph-name="cdotaccent" unicode="&#x10b;" horiz-adv-x="543" d="M264 47 C184 47 99 92 113 210 C116 234 124 289 130 317 C153 419 217 472 297 472 C349 472 415 449 438 378 C443 363 453 355 466 355 C482 355 493 368 493 382 C493 393 490 403 487 412 C469 462 408 527 299 527 C197 527 100 462 75 322 C68 283 61 244 58 217 C39 64 150 -10 266 -10 C389 -10 439 78 455 119 C458 126 459 133 459 139 C459 155 446 165 431 165 C417 165 408 154 404 143 C373 64 314 47 264 47 Z M331 674 C308 674 291 655 291 635 C291 614 306 601 326 601 C348 601 366 618 366 640 C366 660 352 674 331 674 Z " />
<glyph glyph-name="ccedilla" unicode="&#xe7;" horiz-adv-x="543" d="M177 -241 C183 -241 191 -240 195 -239 C243 -226 320 -191 320 -124 C320 -83 287 -53 243 -56 L268 -10 C389 -9 439 78 455 119 C458 126 459 133 459 139 C459 155 446 165 431 165 C417 165 408 154 404 143 C373 64 314 47 264 47 C184 47 99 92 113 210 C116 234 124 289 130 317 C153 419 217 472 297 472 C345 472 415 451 438 378 C443 363 453 355 466 355 C482 355 493 368 493 382 C493 393 490 403 487 412 C469 462 408 527 299 527 C197 527 100 462 75 322 C68 283 61 244 58 217 C41 83 124 10 222 -6 L191 -70 C182 -87 191 -102 207 -102 C218 -102 226 -96 240 -96 C257 -96 274 -104 274 -125 C274 -168 208 -188 174 -199 C161 -203 155 -210 155 -221 C155 -233 164 -241 177 -241 Z " />
<glyph glyph-name="dcaron" unicode="&#x10f;" horiz-adv-x="612" d="M75 328 C68 291 62 251 58 217 C40 66 137 -10 260 -10 C335 -10 396 20 428 40 C446 51 449 58 451 73 L551 672 C554 693 542 707 524 707 C508 707 498 697 495 680 L463 483 C425 504 367 527 294 527 C185 527 100 463 75 328 Z M113 210 C117 246 124 294 130 322 C150 419 206 472 298 472 C365 472 425 444 453 425 L397 86 C368 68 315 47 260 47 C164 47 100 95 113 210 Z M616 544 C628 544 637 551 649 563 C669 586 680 606 688 649 L697 693 C700 710 689 722 675 722 C662 722 650 714 648 698 L639 654 C633 622 629 613 605 587 C598 580 594 574 594 565 C594 554 602 544 616 544 Z " />
<glyph glyph-name="dcroat" unicode="&#x111;" horiz-adv-x="593" d="M345 609 C345 596 355 585 371 585 L479 585 L463 483 C425 504 367 527 294 527 C186 527 100 464 75 327 C68 292 62 250 58 217 C40 66 136 -10 260 -10 C334 -10 396 20 428 40 C446 51 449 58 451 73 L536 585 L570 585 C590 585 601 598 601 612 C601 625 592 636 574 636 L544 636 L552 686 C555 703 540 714 524 714 C510 714 499 704 496 690 L487 636 L373 636 C357 636 345 623 345 609 Z M397 86 C368 68 315 47 260 47 C164 47 100 95 113 210 C117 246 124 294 130 322 C150 419 206 472 298 472 C365 472 425 444 453 425 Z " />
<glyph glyph-name="egrave" unicode="&#xe8;" horiz-adv-x="541" d="M118 234 L419 234 C457 234 475 257 483 289 L486 304 C518 465 407 527 305 527 C203 527 109 478 76 324 C69 292 62 247 58 211 C42 77 128 -10 271 -10 C323 -10 379 7 412 26 C425 33 435 43 435 58 C435 70 425 83 409 83 C402 83 396 81 390 78 C345 55 303 44 267 44 C169 44 97 102 114 209 Z M125 284 C145 411 200 472 305 472 C385 472 460 426 429 301 C426 289 421 284 407 284 Z M371 588 C385 588 397 598 397 612 C397 620 393 629 383 634 L258 705 C252 708 246 709 240 709 C226 709 215 699 215 685 C215 677 219 667 230 662 L354 593 C360 590 366 588 371 588 Z " />
<glyph glyph-name="eacute" unicode="&#xe9;" horiz-adv-x="541" d="M118 234 L419 234 C457 234 475 257 483 289 L486 304 C518 465 407 527 305 527 C203 527 109 478 76 324 C69 292 62 247 58 211 C42 77 128 -10 271 -10 C323 -10 379 7 412 26 C425 33 435 43 435 58 C435 70 425 83 409 83 C402 83 396 81 390 78 C345 55 303 44 267 44 C169 44 97 102 114 209 Z M125 284 C145 411 200 472 305 472 C385 472 460 426 429 301 C426 289 421 284 407 284 Z M292 637 C280 632 276 622 276 614 C276 600 286 590 299 590 C304 590 309 591 314 593 L458 661 C474 669 479 679 479 688 C479 700 471 711 455 711 C450 711 445 710 439 707 Z " />
<glyph glyph-name="ecircumflex" unicode="&#xea;" horiz-adv-x="542" d="M118 234 L419 234 C457 234 475 257 483 289 L486 304 C518 465 407 527 305 527 C203 527 109 478 76 324 C69 292 62 247 58 211 C42 77 128 -10 271 -10 C323 -10 379 7 412 26 C425 33 435 43 435 58 C435 70 425 83 409 83 C402 83 396 81 390 78 C345 55 303 44 267 44 C169 44 97 102 114 209 Z M125 284 C145 411 200 472 305 472 C385 472 460 426 429 301 C426 289 421 284 407 284 Z M347 657 L412 597 C419 591 424 588 433 588 C445 588 456 599 456 612 C456 619 453 626 445 633 L376 698 C368 705 360 709 350 709 C339 709 331 706 321 699 L221 635 C211 628 207 621 207 611 C207 598 217 588 229 588 C235 588 241 590 248 594 Z " />
<glyph glyph-name="ecaron" unicode="&#x11b;" horiz-adv-x="543" d="M118 234 L419 234 C457 234 475 257 483 289 L486 304 C518 465 407 527 305 527 C203 527 109 478 76 324 C69 292 62 247 58 211 C42 77 128 -10 271 -10 C323 -10 379 7 412 26 C425 33 435 43 435 58 C435 70 425 83 409 83 C402 83 396 81 390 78 C345 55 303 44 267 44 C169 44 97 102 114 209 Z M125 284 C145 411 200 472 305 472 C385 472 460 426 429 301 C426 289 421 284 407 284 Z M337 586 C347 586 356 591 365 597 L458 658 C467 665 472 673 472 682 C472 694 462 706 448 706 C443 706 437 704 432 700 L340 638 L270 698 C264 703 258 706 252 706 C238 706 227 694 227 681 C227 674 230 667 236 662 L312 597 C319 591 327 586 337 586 Z " />
<glyph glyph-name="edieresis" unicode="&#xeb;" horiz-adv-x="541" d="M118 234 L419 234 C457 234 475 257 483 289 L486 304 C518 465 407 527 305 527 C203 527 109 478 76 324 C69 292 62 247 58 211 C42 77 128 -10 271 -10 C323 -10 379 7 412 26 C425 33 435 43 435 58 C435 70 425 83 409 83 C402 83 396 81 390 78 C345 55 303 44 267 44 C169 44 97 102 114 209 Z M125 284 C145 411 200 472 305 472 C385 472 460 426 429 301 C426 289 421 284 407 284 Z M268 674 C245 674 228 655 228 635 C228 614 243 601 263 601 C285 601 303 618 303 640 C303 660 289 674 268 674 Z M418 674 C395 674 378 655 378 635 C378 614 393 601 413 601 C435 601 452 618 452 640 C452 660 438 674 418 674 Z " />
<glyph glyph-name="emacron" unicode="&#x113;" horiz-adv-x="541" d="M118 234 L419 234 C457 234 475 257 483 289 L486 304 C518 465 407 527 305 527 C203 527 109 478 76 324 C69 292 62 247 58 211 C42 77 128 -10 271 -10 C323 -10 379 7 412 26 C425 33 435 43 435 58 C435 70 425 83 409 83 C402 83 396 81 390 78 C345 55 303 44 267 44 C169 44 97 102 114 209 Z M125 284 C145 411 200 472 305 472 C385 472 460 426 429 301 C426 289 421 284 407 284 Z M432 612 C448 612 459 625 459 639 C459 652 449 663 433 663 L267 663 C250 663 239 651 239 637 C239 624 249 612 266 612 Z " />
<glyph glyph-name="edotaccent" unicode="&#x117;" horiz-adv-x="541" d="M118 234 L419 234 C457 234 475 257 483 289 L486 304 C518 465 407 527 305 527 C203 527 109 478 76 324 C69 292 62 247 58 211 C42 77 128 -10 271 -10 C323 -10 379 7 412 26 C425 33 435 43 435 58 C435 70 425 83 409 83 C402 83 396 81 390 78 C345 55 303 44 267 44 C169 44 97 102 114 209 Z M125 284 C145 411 200 472 305 472 C385 472 460 426 429 301 C426 289 421 284 407 284 Z M344 673 C321 673 304 654 304 634 C304 613 319 600 339 600 C361 600 379 617 379 639 C379 659 365 673 344 673 Z " />
<glyph glyph-name="eogonek" unicode="&#x119;" horiz-adv-x="541" d="M323 -185 C347 -185 371 -178 390 -164 C400 -157 407 -149 407 -138 C407 -126 397 -117 387 -117 C380 -117 374 -121 368 -125 C354 -135 339 -139 325 -139 C300 -139 276 -127 276 -92 C276 -31 350 1 396 20 C426 32 435 44 435 58 C435 71 424 83 409 83 C403 83 396 81 390 78 C345 55 303 44 267 44 C169 44 96 102 114 209 L118 234 L419 234 C457 234 475 257 483 289 L486 304 C517 461 412 527 306 527 C203 527 110 479 76 324 C69 292 63 252 58 211 C41 75 132 -12 271 -9 C244 -32 229 -67 229 -96 C229 -156 277 -185 323 -185 Z M125 284 C145 411 200 472 305 472 C391 472 459 420 429 301 C426 289 421 284 407 284 Z " />
<glyph glyph-name="gbreve" unicode="&#x11f;" horiz-adv-x="578" d="M525 437 C528 455 522 463 512 471 C478 495 408 527 317 527 C199 527 116 467 91 332 C82 287 77 257 73 223 C56 88 127 2 264 2 C313 2 356 15 405 40 C389 -93 312 -139 230 -139 C168 -139 123 -115 93 -89 C85 -82 77 -78 68 -78 C51 -78 41 -92 41 -104 C41 -116 48 -124 57 -131 C85 -155 149 -193 233 -193 C321 -193 429 -153 457 22 Z M316 472 C388 472 444 444 468 429 L415 107 C376 79 320 55 264 55 C163 55 114 116 127 210 C132 248 139 294 145 322 C165 421 220 472 316 472 Z M391 588 C449 588 487 626 503 664 C506 672 508 681 508 687 C508 702 498 709 486 709 C471 709 464 697 461 688 C449 659 430 635 392 635 C351 635 339 663 334 684 C332 697 328 709 312 709 C300 709 288 701 288 683 C288 673 290 664 292 659 C307 610 348 588 391 588 Z " />
<glyph glyph-name="gdotaccent" unicode="&#x121;" horiz-adv-x="578" d="M525 437 C528 455 522 463 512 471 C478 495 408 527 317 527 C199 527 116 467 91 332 C82 287 77 257 73 223 C56 88 127 2 264 2 C313 2 356 15 405 40 C389 -93 312 -139 230 -139 C168 -139 123 -115 93 -89 C85 -82 77 -78 68 -78 C51 -78 41 -92 41 -104 C41 -116 48 -124 57 -131 C85 -155 149 -193 233 -193 C321 -193 429 -153 457 22 Z M316 472 C388 472 444 444 468 429 L415 107 C376 79 320 55 264 55 C163 55 114 116 127 210 C132 248 139 294 145 322 C165 421 220 472 316 472 Z M398 674 C375 674 358 655 358 635 C358 614 373 601 393 601 C415 601 433 618 433 640 C433 660 419 674 398 674 Z " />
<glyph glyph-name="gcommaaccent" unicode="&#x123;" horiz-adv-x="578" d="M525 437 C528 455 522 463 512 471 C478 495 408 527 317 527 C199 527 116 467 91 332 C82 287 77 257 73 223 C56 88 127 2 264 2 C313 2 356 15 405 40 C389 -93 312 -139 230 -139 C168 -139 123 -115 93 -89 C85 -82 77 -78 68 -78 C51 -78 41 -92 41 -104 C41 -116 48 -124 57 -131 C85 -155 149 -193 233 -193 C321 -193 429 -153 457 22 Z M316 472 C388 472 444 444 468 429 L415 107 C376 79 320 55 264 55 C163 55 114 116 127 210 C132 248 139 294 145 322 C165 421 220 472 316 472 Z M377 554 C389 554 398 562 404 569 C430 596 442 618 452 670 L462 721 C466 741 454 753 439 753 C427 753 415 745 412 729 L402 674 C397 642 389 622 365 596 C358 589 354 583 354 575 C354 564 363 554 377 554 Z " />
<glyph glyph-name="igrave" unicode="&#xec;" horiz-adv-x="273" d="M190 588 C204 588 216 598 216 612 C216 620 212 629 202 634 L77 705 C71 708 65 709 59 709 C45 709 34 699 34 685 C34 677 38 667 49 662 L173 593 C179 590 185 588 190 588 Z M59 31 C56 10 68 -4 87 -4 C102 -4 112 6 115 23 L192 485 C196 506 184 520 165 520 C150 520 139 509 136 493 Z " />
<glyph glyph-name="iacute" unicode="&#xed;" horiz-adv-x="273" d="M170 636 C158 631 154 621 154 613 C154 599 164 589 177 589 C182 589 187 590 192 592 L336 660 C352 668 357 678 357 687 C357 699 349 710 333 710 C328 710 323 709 317 706 Z M59 31 C56 10 68 -4 87 -4 C102 -4 112 6 115 23 L192 485 C196 506 184 520 165 520 C150 520 139 509 136 493 Z " />
<glyph glyph-name="icircumflex" unicode="&#xee;" horiz-adv-x="273" d="M59 31 C56 10 68 -4 87 -4 C102 -4 112 6 115 23 L192 485 C196 506 184 520 165 520 C150 520 139 509 136 493 Z M194 657 L259 597 C266 591 271 588 280 588 C292 588 303 599 303 612 C303 619 300 626 292 633 L223 698 C215 705 207 709 197 709 C186 709 178 706 168 699 L68 635 C58 628 54 621 54 611 C54 598 64 588 76 588 C82 588 88 590 95 594 Z " />
<glyph glyph-name="idieresis" unicode="&#xef;" horiz-adv-x="273" d="M116 674 C93 674 76 655 76 635 C76 614 91 601 111 601 C133 601 151 618 151 640 C151 660 137 674 116 674 Z M266 674 C243 674 226 655 226 635 C226 614 241 601 261 601 C283 601 300 618 300 640 C300 660 286 674 266 674 Z M59 31 C56 10 68 -4 87 -4 C102 -4 112 6 115 23 L192 485 C196 506 184 520 165 520 C150 520 139 509 136 493 Z " />
<glyph glyph-name="imacron" unicode="&#x12b;" horiz-adv-x="273" d="M270 612 C286 612 297 625 297 639 C297 652 287 663 271 663 L105 663 C88 663 77 651 77 637 C77 624 87 612 104 612 Z M59 31 C56 10 68 -4 87 -4 C102 -4 112 6 115 23 L192 485 C196 506 184 520 165 520 C150 520 139 509 136 493 Z " />
<glyph glyph-name="iogonek" unicode="&#x12f;" horiz-adv-x="274" d="M31 -199 C55 -199 79 -192 98 -178 C108 -171 116 -162 116 -152 C116 -140 106 -132 97 -132 C90 -132 83 -136 78 -140 C64 -149 49 -154 35 -154 C10 -154 -14 -143 -14 -107 C-14 -50 50 -23 91 -6 C105 0 113 7 116 23 L193 485 C196 506 185 520 166 520 C150 520 140 509 137 493 L62 49 C61 40 61 28 64 22 C1 -4 -59 -46 -59 -113 C-59 -172 -16 -199 31 -199 Z M236 669 C236 689 222 706 199 706 C172 706 156 684 156 662 C156 642 170 624 194 624 C221 624 236 647 236 669 Z " />
<glyph glyph-name="dotlessi" unicode="&#x131;" horiz-adv-x="244" d="M57 31 C54 10 66 -4 85 -4 C100 -4 110 6 113 23 L190 485 C194 506 182 520 163 520 C148 520 137 509 134 493 Z " />
<glyph glyph-name="kcommaaccent" unicode="&#x137;" horiz-adv-x="521" d="M198 707 C183 707 172 697 169 680 L61 31 C58 10 70 -4 89 -4 C104 -4 114 6 117 23 L154 241 L188 241 C217 241 227 235 242 215 L391 10 C399 0 407 -4 417 -4 C434 -4 444 8 444 22 C444 29 442 37 435 45 L272 266 L489 473 C498 481 501 489 501 498 C501 514 489 524 474 524 C467 524 459 520 452 513 L252 321 C230 299 220 295 192 295 L163 295 L225 672 C229 693 217 707 198 707 Z M166 -229 C178 -229 187 -221 193 -214 C219 -187 231 -165 241 -113 L251 -62 C255 -42 243 -30 228 -30 C216 -30 204 -38 201 -54 L191 -109 C186 -141 178 -161 154 -187 C147 -194 143 -200 143 -208 C143 -219 152 -229 166 -229 Z " />
<glyph glyph-name="lacute" unicode="&#x13a;" horiz-adv-x="255" d="M52 31 C49 10 61 -4 80 -4 C95 -4 105 6 108 23 L216 672 C220 693 208 707 189 707 C174 707 163 697 160 680 Z M186 801 C174 796 170 786 170 778 C170 764 180 754 193 754 C198 754 203 755 208 757 L352 825 C368 833 373 843 373 852 C373 864 365 875 349 875 C344 875 339 874 333 871 Z " />
<glyph glyph-name="lcaron" unicode="&#x13e;" horiz-adv-x="309" d="M61 31 C58 10 70 -4 89 -4 C104 -4 114 6 117 23 L225 672 C229 693 217 707 198 707 C183 707 172 697 169 680 Z M270 544 C282 544 291 551 303 563 C323 586 334 606 342 649 L351 693 C354 710 343 722 329 722 C316 722 304 714 302 698 L293 654 C287 622 283 613 259 587 C252 580 248 574 248 565 C248 554 256 544 270 544 Z " />
<glyph glyph-name="lcommaaccent" unicode="&#x13c;" horiz-adv-x="255" d="M52 31 C49 10 61 -4 80 -4 C95 -4 105 6 108 23 L216 672 C220 693 208 707 189 707 C174 707 163 697 160 680 Z M7 -229 C19 -229 28 -221 34 -214 C60 -187 72 -165 82 -113 L92 -62 C96 -42 84 -30 69 -30 C57 -30 45 -38 42 -54 L32 -109 C27 -141 19 -161 -5 -187 C-12 -194 -16 -200 -16 -208 C-16 -219 -7 -229 7 -229 Z " />
<glyph glyph-name="lslash" unicode="&#x142;" horiz-adv-x="287" d="M60 31 C57 10 68 -4 87 -4 C102 -4 113 6 116 23 L169 345 L268 401 C281 409 286 418 286 427 C286 439 277 449 263 449 C257 449 252 448 246 444 L179 406 L224 672 C227 693 215 707 196 707 C181 707 171 697 168 680 L116 371 L24 319 C12 313 7 303 7 294 C7 281 16 271 29 271 C35 271 39 273 44 275 L106 310 Z " />
<glyph glyph-name="nacute" unicode="&#x144;" horiz-adv-x="592" d="M517 312 C545 479 436 527 334 527 C249 527 177 495 144 476 C127 466 122 459 119 443 L51 31 C48 10 60 -4 79 -4 C94 -4 104 6 107 23 L174 427 C209 447 269 470 331 470 C391 470 485 450 461 310 L413 29 C409 9 423 -4 439 -4 C456 -4 466 6 469 25 Z M305 636 C293 631 289 621 289 613 C289 599 299 589 312 589 C317 589 322 590 327 592 L471 660 C487 668 492 678 492 687 C492 699 484 710 468 710 C463 710 458 709 452 706 Z " />
<glyph glyph-name="ncaron" unicode="&#x148;" horiz-adv-x="592" d="M517 312 C545 479 436 527 334 527 C249 527 177 495 144 476 C127 466 122 459 119 443 L51 31 C48 10 60 -4 79 -4 C94 -4 104 6 107 23 L174 427 C209 447 269 470 331 470 C391 470 485 450 461 310 L413 29 C409 9 423 -4 439 -4 C456 -4 466 6 469 25 Z M345 587 C355 587 364 592 373 598 L466 659 C475 666 480 674 480 683 C480 695 470 707 456 707 C451 707 445 705 440 701 L348 639 L278 699 C272 704 266 707 260 707 C246 707 235 695 235 682 C235 675 238 668 244 663 L320 598 C327 592 335 587 345 587 Z " />
<glyph glyph-name="ntilde" unicode="&#xf1;" horiz-adv-x="593" d="M517 312 C545 479 436 527 334 527 C249 527 177 495 144 476 C127 466 122 459 119 443 L51 31 C48 10 60 -4 79 -4 C94 -4 104 6 107 23 L174 427 C209 447 269 470 331 470 C391 470 485 450 461 310 L413 29 C409 9 423 -4 439 -4 C456 -4 466 6 469 25 Z M393 594 C416 594 440 607 462 622 C472 630 478 638 478 648 C478 662 465 672 454 672 C433 672 420 645 395 645 C363 645 335 682 289 682 C265 682 238 670 218 652 C212 646 206 639 206 629 C206 617 215 605 230 605 C250 605 260 632 287 632 C317 632 346 594 393 594 Z " />
<glyph glyph-name="ncommaaccent" unicode="&#x146;" horiz-adv-x="592" d="M517 312 C545 479 436 527 334 527 C249 527 177 495 144 476 C127 466 122 459 119 443 L51 31 C48 10 60 -4 79 -4 C94 -4 104 6 107 23 L174 427 C209 447 269 470 331 470 C391 470 485 450 461 310 L413 29 C409 9 423 -4 439 -4 C456 -4 466 6 469 25 Z M200 -229 C212 -229 221 -221 227 -214 C253 -187 265 -165 275 -113 L285 -62 C289 -42 277 -30 262 -30 C250 -30 238 -38 235 -54 L225 -109 C220 -141 212 -161 188 -187 C181 -194 177 -200 177 -208 C177 -219 186 -229 200 -229 Z " />
<glyph glyph-name="ograve" unicode="&#xf2;" horiz-adv-x="557" d="M303 527 C187 527 105 464 76 332 C67 291 58 235 56 210 C45 65 156 -10 271 -10 C382 -10 459 57 488 185 C498 227 506 283 508 308 C519 453 410 527 303 527 Z M451 304 C449 284 442 232 435 201 C413 99 359 47 267 47 C195 47 99 91 113 213 C115 233 122 285 129 316 C151 418 207 472 302 472 C374 472 465 422 451 304 Z M372 588 C386 588 398 598 398 612 C398 620 394 629 384 634 L259 705 C253 708 247 709 241 709 C227 709 216 699 216 685 C216 677 220 667 231 662 L355 593 C361 590 367 588 372 588 Z " />
<glyph glyph-name="oacute" unicode="&#xf3;" horiz-adv-x="557" d="M303 527 C187 527 105 464 76 332 C67 291 58 235 56 210 C45 65 156 -10 271 -10 C382 -10 459 57 488 185 C498 227 506 283 508 308 C519 453 410 527 303 527 Z M451 304 C449 284 442 232 435 201 C413 99 359 47 267 47 C195 47 99 91 113 213 C115 233 122 285 129 316 C151 418 207 472 302 472 C374 472 465 422 451 304 Z M302 636 C290 631 286 621 286 613 C286 599 296 589 309 589 C314 589 319 590 324 592 L468 660 C484 668 489 678 489 687 C489 699 481 710 465 710 C460 710 455 709 449 706 Z " />
<glyph glyph-name="ocircumflex" unicode="&#xf4;" horiz-adv-x="557" d="M303 527 C187 527 105 464 76 332 C67 291 58 235 56 210 C45 65 156 -10 271 -10 C382 -10 459 57 488 185 C498 227 506 283 508 308 C519 453 410 527 303 527 Z M451 304 C449 284 442 232 435 201 C413 99 359 47 267 47 C195 47 99 91 113 213 C115 233 122 285 129 316 C151 418 207 472 302 472 C374 472 465 422 451 304 Z M345 656 L410 596 C417 590 422 587 431 587 C443 587 454 598 454 611 C454 618 451 625 443 632 L374 697 C366 704 358 708 348 708 C337 708 329 705 319 698 L219 634 C209 627 205 620 205 610 C205 597 215 587 227 587 C233 587 239 589 246 593 Z " />
<glyph glyph-name="otilde" unicode="&#xf5;" horiz-adv-x="557" d="M303 527 C187 527 105 464 76 332 C67 291 58 235 56 210 C45 65 156 -10 271 -10 C382 -10 459 57 488 185 C498 227 506 283 508 308 C519 453 410 527 303 527 Z M451 304 C449 284 442 232 435 201 C413 99 359 47 267 47 C195 47 99 91 113 213 C115 233 122 285 129 316 C151 418 207 472 302 472 C374 472 465 422 451 304 Z M392 594 C415 594 439 607 461 622 C471 630 477 638 477 648 C477 662 464 672 453 672 C432 672 419 645 394 645 C362 645 334 682 288 682 C264 682 237 670 217 652 C211 646 205 639 205 629 C205 617 214 605 229 605 C249 605 259 632 286 632 C316 632 345 594 392 594 Z " />
<glyph glyph-name="odieresis" unicode="&#xf6;" horiz-adv-x="557" d="M303 527 C187 527 105 464 76 332 C67 291 58 235 56 210 C45 65 156 -10 271 -10 C382 -10 459 57 488 185 C498 227 506 283 508 308 C519 453 410 527 303 527 Z M451 304 C449 284 442 232 435 201 C413 99 359 47 267 47 C195 47 99 91 113 213 C115 233 122 285 129 316 C151 418 207 472 302 472 C374 472 465 422 451 304 Z M271 674 C248 674 231 655 231 635 C231 614 246 601 266 601 C288 601 306 618 306 640 C306 660 292 674 271 674 Z M421 674 C398 674 381 655 381 635 C381 614 396 601 416 601 C438 601 455 618 455 640 C455 660 441 674 421 674 Z " />
<glyph glyph-name="omacron" unicode="&#x14d;" horiz-adv-x="557" d="M303 527 C187 527 105 464 76 332 C67 291 58 235 56 210 C45 65 156 -10 271 -10 C382 -10 459 57 488 185 C498 227 506 283 508 308 C519 453 410 527 303 527 Z M451 304 C449 284 442 232 435 201 C413 99 359 47 267 47 C195 47 99 91 113 213 C115 233 122 285 129 316 C151 418 207 472 302 472 C374 472 465 422 451 304 Z M424 612 C440 612 451 625 451 639 C451 652 441 663 425 663 L259 663 C242 663 231 651 231 637 C231 624 241 612 258 612 Z " />
<glyph glyph-name="ohungarumlaut" unicode="&#x151;" horiz-adv-x="557" d="M303 527 C187 527 105 464 76 332 C67 291 58 235 56 210 C45 65 156 -10 271 -10 C382 -10 459 57 488 185 C498 227 506 283 508 308 C519 453 410 527 303 527 Z M451 304 C449 284 442 232 435 201 C413 99 359 47 267 47 C195 47 99 91 113 213 C115 233 122 285 129 316 C151 418 207 472 302 472 C374 472 465 422 451 304 Z M390 674 C399 680 403 689 403 697 C403 711 392 722 378 722 C370 722 362 718 355 712 L254 637 C245 630 241 620 241 613 C241 598 251 588 265 588 C272 588 280 591 287 597 Z M542 674 C550 680 554 689 554 697 C554 711 544 722 529 722 C521 722 514 718 507 712 L406 637 C397 630 392 620 392 613 C392 598 403 588 416 588 C423 588 431 591 438 597 Z " />
<glyph glyph-name="oslash" unicode="&#xf8;" horiz-adv-x="563" d="M269 -10 C376 -10 456 52 486 185 C494 221 501 261 505 299 C511 354 501 393 483 427 L537 479 C544 486 549 494 549 501 C549 512 541 522 527 522 C520 522 513 517 506 510 L456 462 C417 506 357 527 298 527 C187 527 101 464 73 327 C66 294 59 256 55 219 C49 168 60 123 77 94 L24 42 C16 35 13 27 13 21 C13 10 23 1 34 1 C40 1 48 3 56 11 L103 58 C145 12 209 -10 269 -10 Z M266 47 C221 47 172 63 143 96 L440 384 C452 356 452 328 448 295 C445 270 439 227 433 201 C409 97 354 47 266 47 Z M119 135 C110 157 108 185 111 214 C113 237 122 295 128 321 C150 419 207 472 299 472 C338 472 386 457 416 423 Z " />
<glyph glyph-name="oe" unicode="&#x153;" horiz-adv-x="916" d="M501 284 C522 412 576 472 681 472 C767 472 835 420 805 301 C802 289 797 284 783 284 Z M269 47 C191 47 99 93 113 213 C116 238 123 292 130 321 C152 419 209 472 301 472 C382 472 465 416 451 301 C448 275 440 225 434 197 C413 99 357 47 269 47 Z M268 -10 C347 -10 412 24 453 93 C483 30 551 -10 645 -10 C701 -10 755 7 788 26 C804 35 811 45 811 58 C811 71 800 83 785 83 C780 83 774 82 766 78 C721 55 679 44 642 44 C545 44 473 102 490 209 L494 234 L795 234 C834 234 853 258 859 289 L862 304 C893 457 792 527 681 527 C599 527 530 496 487 418 C456 487 381 527 301 527 C185 527 101 460 75 327 C68 292 61 255 57 218 C41 65 158 -10 268 -10 Z " />
<glyph glyph-name="racute" unicode="&#x155;" horiz-adv-x="368" d="M369 509 C346 519 310 527 272 527 C192 527 127 493 107 374 L50 31 C47 10 59 -4 78 -4 C93 -4 104 6 107 23 L163 362 C176 439 211 468 273 468 C300 468 322 463 333 460 C344 457 353 452 364 452 C381 452 392 464 392 480 C392 495 382 503 369 509 Z M216 635 C204 630 200 620 200 612 C200 598 210 588 223 588 C228 588 233 589 238 591 L382 659 C398 667 403 677 403 686 C403 698 395 709 379 709 C374 709 369 708 363 705 Z " />
<glyph glyph-name="rcaron" unicode="&#x159;" horiz-adv-x="368" d="M369 509 C346 519 310 527 272 527 C192 527 127 493 107 374 L50 31 C47 10 59 -4 78 -4 C93 -4 104 6 107 23 L163 362 C176 439 211 468 273 468 C300 468 322 463 333 460 C344 457 353 452 364 452 C381 452 392 464 392 480 C392 495 382 503 369 509 Z M280 586 C290 586 299 591 308 597 L401 658 C410 665 415 673 415 682 C415 694 405 706 391 706 C386 706 380 704 375 700 L283 638 L213 698 C207 703 201 706 195 706 C181 706 170 694 170 681 C170 674 173 667 179 662 L255 597 C262 591 270 586 280 586 Z " />
<glyph glyph-name="rcommaaccent" unicode="&#x157;" horiz-adv-x="368" d="M370 509 C347 519 311 527 273 527 C193 527 128 493 108 374 L51 31 C48 10 60 -4 79 -4 C94 -4 105 6 108 23 L164 362 C177 439 212 468 274 468 C301 468 323 463 334 460 C345 457 354 452 365 452 C382 452 393 464 393 480 C393 495 383 503 370 509 Z M8 -229 C20 -229 29 -221 35 -214 C61 -187 73 -165 83 -113 L93 -62 C97 -42 85 -30 70 -30 C58 -30 46 -38 43 -54 L33 -109 C28 -141 20 -161 -4 -187 C-11 -194 -15 -200 -15 -208 C-15 -219 -6 -229 8 -229 Z " />
<glyph glyph-name="sacute" unicode="&#x15b;" horiz-adv-x="500" d="M256 291 C192 319 153 339 153 385 C153 438 201 472 270 472 C318 472 360 457 396 434 C402 430 409 426 418 426 C434 426 444 438 444 452 C444 459 440 467 431 475 C411 495 346 527 268 527 C182 527 97 479 97 384 C97 309 165 274 224 246 C289 215 358 202 358 138 C358 82 307 44 234 44 C174 44 118 71 78 100 C70 105 62 111 53 111 C38 111 27 99 27 85 C27 77 30 70 38 63 C61 41 144 -10 237 -10 C341 -10 414 52 414 138 C414 227 335 256 256 291 Z M268 636 C256 631 252 621 252 613 C252 599 262 589 275 589 C280 589 285 590 290 592 L434 660 C450 668 455 678 455 687 C455 699 447 710 431 710 C426 710 421 709 415 706 Z " />
<glyph glyph-name="scaron" unicode="&#x161;" horiz-adv-x="498" d="M256 291 C192 319 153 339 153 385 C153 438 201 472 270 472 C318 472 360 457 396 434 C402 430 409 426 418 426 C434 426 444 438 444 452 C444 459 440 467 431 475 C411 495 346 527 268 527 C182 527 97 479 97 384 C97 309 165 274 224 246 C289 215 358 202 358 138 C358 82 307 44 234 44 C174 44 118 71 78 100 C70 105 62 111 53 111 C38 111 27 99 27 85 C27 77 30 70 38 63 C61 41 144 -10 237 -10 C341 -10 414 52 414 138 C414 227 335 256 256 291 Z M321 575 C331 575 340 580 349 586 L442 647 C451 654 456 662 456 671 C456 683 446 695 432 695 C427 695 421 693 416 689 L324 627 L254 687 C248 692 242 695 236 695 C222 695 211 683 211 670 C211 663 214 656 220 651 L296 586 C303 580 311 575 321 575 Z " />
<glyph glyph-name="scedilla" unicode="&#x15f;" horiz-adv-x="491" d="M151 -241 C157 -241 165 -240 169 -239 C217 -226 294 -191 294 -124 C294 -83 261 -53 217 -56 L241 -10 C342 -8 414 53 414 138 C414 227 335 256 256 291 C192 319 153 339 153 385 C153 438 201 472 270 472 C318 472 360 457 396 434 C402 430 409 426 418 426 C434 426 444 438 444 452 C444 459 440 467 431 475 C411 495 346 527 268 527 C182 527 97 479 97 384 C97 309 165 274 224 246 C289 215 358 202 358 138 C358 82 307 44 234 44 C174 44 118 71 78 100 C70 105 62 111 53 111 C38 111 27 99 27 85 C27 77 30 70 38 63 C57 44 120 5 196 -6 L165 -70 C157 -87 165 -102 181 -102 C192 -102 200 -96 214 -96 C231 -96 248 -104 248 -125 C248 -168 182 -188 148 -199 C135 -203 129 -210 129 -221 C129 -233 138 -241 151 -241 Z " />
<glyph glyph-name="scommaaccent" unicode="&#x219;" horiz-adv-x="491" d="M256 291 C192 319 153 339 153 385 C153 438 201 472 270 472 C318 472 360 457 396 434 C402 430 409 426 418 426 C434 426 444 438 444 452 C444 459 440 467 431 475 C411 495 346 527 268 527 C182 527 97 479 97 384 C97 309 165 274 224 246 C289 215 358 202 358 138 C358 82 307 44 234 44 C174 44 118 71 78 100 C70 105 62 111 53 111 C38 111 27 99 27 85 C27 77 30 70 38 63 C61 41 144 -10 237 -10 C341 -10 414 52 414 138 C414 227 335 256 256 291 Z M161 -229 C173 -229 182 -221 188 -214 C214 -187 226 -165 236 -113 L246 -62 C250 -42 238 -30 223 -30 C211 -30 199 -38 196 -54 L186 -109 C181 -141 173 -161 149 -187 C142 -194 138 -200 138 -208 C138 -219 147 -229 161 -229 Z " />
<glyph glyph-name="germandbls" unicode="&#xdf;" horiz-adv-x="596" d="M69 -3 C86 -3 95 9 98 26 L177 503 C194 604 260 655 336 655 C409 655 452 623 452 569 C452 501 332 464 332 379 C332 317 388 281 438 247 C473 223 501 196 501 153 C501 97 454 44 376 44 C309 44 265 83 252 92 C245 97 238 100 230 100 C215 100 203 90 203 74 C203 64 207 57 215 50 C248 20 311 -10 379 -10 C492 -10 557 68 557 153 C557 214 520 253 478 284 C435 315 389 339 389 379 C389 440 508 472 508 573 C508 658 432 709 335 709 C251 709 147 662 121 504 L42 29 C39 10 51 -3 69 -3 Z " />
<glyph glyph-name="tcaron" unicode="&#x165;" horiz-adv-x="411" d="M302 12 C318 20 326 30 326 43 C326 59 314 70 300 70 C293 70 284 66 276 63 C256 55 240 47 211 47 C133 47 125 92 137 165 L185 453 L346 453 C362 453 375 464 375 479 C375 494 365 506 346 506 L194 506 L209 592 C212 610 198 623 181 623 C166 623 153 615 150 594 L79 164 C58 35 121 -10 213 -10 C240 -10 275 -2 302 12 Z M298 544 C310 544 319 551 331 563 C351 586 362 606 370 649 L379 693 C382 710 371 722 357 722 C344 722 332 714 330 698 L321 654 C315 622 311 613 287 587 C280 580 276 574 276 565 C276 554 284 544 298 544 Z " />
<glyph glyph-name="tcommaaccent" unicode="&#x163;" horiz-adv-x="411" d="M302 12 C318 20 326 30 326 43 C326 59 314 70 300 70 C293 70 284 66 276 63 C256 55 240 47 211 47 C133 47 125 92 137 165 L185 453 L346 453 C362 453 375 464 375 479 C375 494 365 506 346 506 L194 506 L209 592 C212 610 198 623 181 623 C166 623 153 615 150 594 L79 164 C58 35 121 -10 213 -10 C240 -10 275 -2 302 12 Z M134 -229 C146 -229 155 -221 161 -214 C187 -187 199 -165 209 -113 L219 -62 C223 -42 211 -30 196 -30 C184 -30 172 -38 169 -54 L159 -109 C154 -141 146 -161 122 -187 C115 -194 111 -200 111 -208 C111 -219 120 -229 134 -229 Z " />
<glyph glyph-name="ugrave" unicode="&#xf9;" horiz-adv-x="576" d="M70 225 C44 67 140 -10 261 -10 C343 -10 411 22 443 44 C455 53 461 61 463 72 L532 485 C536 506 523 520 504 520 C489 520 479 509 476 493 L410 93 C375 65 317 47 264 47 C176 47 105 87 127 223 L170 487 C173 507 160 520 144 520 C127 520 117 509 114 491 Z M374 588 C388 588 400 598 400 612 C400 620 396 629 386 634 L261 705 C255 708 249 709 243 709 C229 709 218 699 218 685 C218 677 222 667 233 662 L357 593 C363 590 369 588 374 588 Z " />
<glyph glyph-name="uacute" unicode="&#xfa;" horiz-adv-x="576" d="M70 225 C44 67 140 -10 261 -10 C343 -10 411 22 443 44 C455 53 461 61 463 72 L532 485 C536 506 523 520 504 520 C489 520 479 509 476 493 L410 93 C375 65 317 47 264 47 C176 47 105 87 127 223 L170 487 C173 507 160 520 144 520 C127 520 117 509 114 491 Z M305 636 C293 631 289 621 289 613 C289 599 299 589 312 589 C317 589 322 590 327 592 L471 660 C487 668 492 678 492 687 C492 699 484 710 468 710 C463 710 458 709 452 706 Z " />
<glyph glyph-name="ucircumflex" unicode="&#xfb;" horiz-adv-x="576" d="M70 225 C44 67 140 -10 261 -10 C343 -10 411 22 443 44 C455 53 461 61 463 72 L532 485 C536 506 523 520 504 520 C489 520 479 509 476 493 L410 93 C375 65 317 47 264 47 C176 47 105 87 127 223 L170 487 C173 507 160 520 144 520 C127 520 117 509 114 491 Z M351 657 L416 597 C423 591 428 588 437 588 C449 588 460 599 460 612 C460 619 457 626 449 633 L380 698 C372 705 364 709 354 709 C343 709 335 706 325 699 L225 635 C215 628 211 621 211 611 C211 598 221 588 233 588 C239 588 245 590 252 594 Z " />
<glyph glyph-name="udieresis" unicode="&#xfc;" horiz-adv-x="576" d="M70 225 C44 67 140 -10 261 -10 C343 -10 411 22 443 44 C455 53 461 61 463 72 L532 485 C536 506 523 520 504 520 C489 520 479 509 476 493 L410 93 C375 65 317 47 264 47 C176 47 105 87 127 223 L170 487 C173 507 160 520 144 520 C127 520 117 509 114 491 Z M274 674 C251 674 234 655 234 635 C234 614 249 601 269 601 C291 601 309 618 309 640 C309 660 295 674 274 674 Z M424 674 C401 674 384 655 384 635 C384 614 399 601 419 601 C441 601 458 618 458 640 C458 660 444 674 424 674 Z " />
<glyph glyph-name="umacron" unicode="&#x16b;" horiz-adv-x="576" d="M70 225 C44 67 140 -10 261 -10 C343 -10 411 22 443 44 C455 53 461 61 463 72 L532 485 C536 506 523 520 504 520 C489 520 479 509 476 493 L410 93 C375 65 317 47 264 47 C176 47 105 87 127 223 L170 487 C173 507 160 520 144 520 C127 520 117 509 114 491 Z M428 612 C444 612 455 625 455 639 C455 652 445 663 429 663 L263 663 C246 663 235 651 235 637 C235 624 245 612 262 612 Z " />
<glyph glyph-name="uring" unicode="&#x16f;" horiz-adv-x="576" d="M70 225 C44 67 140 -10 261 -10 C343 -10 411 22 443 44 C455 53 461 61 463 72 L532 485 C536 506 523 520 504 520 C489 520 479 509 476 493 L410 93 C375 65 317 47 264 47 C176 47 105 87 127 223 L170 487 C173 507 160 520 144 520 C127 520 117 509 114 491 Z M345 589 C404 589 437 638 437 684 C437 727 407 764 357 764 C297 764 264 715 264 671 C264 626 295 589 345 589 Z M346 626 C316 626 301 647 301 671 C301 698 320 727 356 727 C385 727 401 706 401 682 C401 655 381 626 346 626 Z " />
<glyph glyph-name="uhungarumlaut" unicode="&#x171;" horiz-adv-x="576" d="M70 225 C44 67 140 -10 261 -10 C343 -10 411 22 443 44 C455 53 461 61 463 72 L532 485 C536 506 523 520 504 520 C489 520 479 509 476 493 L410 93 C375 65 317 47 264 47 C176 47 105 87 127 223 L170 487 C173 507 160 520 144 520 C127 520 117 509 114 491 Z M386 675 C395 681 399 690 399 698 C399 712 388 723 374 723 C366 723 358 719 351 713 L250 638 C241 631 237 621 237 614 C237 599 247 589 261 589 C268 589 276 592 283 598 Z M538 675 C546 681 550 690 550 698 C550 712 540 723 525 723 C517 723 510 719 503 713 L402 638 C393 631 388 621 388 614 C388 599 399 589 412 589 C419 589 427 592 434 598 Z " />
<glyph glyph-name="uogonek" unicode="&#x173;" horiz-adv-x="576" d="M342 -177 C363 -177 386 -170 405 -156 C415 -148 422 -140 422 -129 C422 -117 413 -109 403 -109 C397 -109 390 -113 385 -117 C370 -127 357 -131 341 -131 C320 -131 293 -115 293 -82 C293 -11 387 11 434 39 C456 51 462 61 465 82 L532 485 C535 506 523 520 504 520 C489 520 479 510 476 493 L410 93 C373 64 316 47 264 47 C178 47 105 85 127 223 L170 487 C173 507 160 520 144 520 C126 520 117 509 114 491 L70 225 C44 67 138 -9 259 -9 C267 -9 275 -8 283 -7 C258 -28 246 -59 246 -88 C246 -141 289 -177 342 -177 Z " />
<glyph glyph-name="wgrave" unicode="&#x1e81;" horiz-adv-x="802" d="M486 42 C490 6 513 -10 542 -10 C565 -10 584 2 598 34 L801 479 C812 503 796 520 776 520 C765 520 756 515 749 500 L582 129 C572 107 564 82 551 52 C548 46 544 44 541 44 C538 44 535 46 534 54 C531 81 530 107 527 132 L488 470 C484 509 461 520 438 520 C419 520 398 510 383 477 L226 131 C214 106 205 78 195 52 C193 47 190 44 185 44 C180 44 176 46 175 55 C173 84 172 110 169 135 L127 492 C124 515 111 520 99 520 C82 520 68 507 71 484 L124 49 C129 4 158 -10 180 -10 C206 -10 221 1 236 35 L424 451 C426 456 429 458 432 458 C435 458 438 456 439 448 Z M477 588 C491 588 503 598 503 612 C503 620 499 629 489 634 L364 705 C358 708 352 709 346 709 C332 709 321 699 321 685 C321 677 325 667 336 662 L460 593 C466 590 472 588 477 588 Z " />
<glyph glyph-name="wacute" unicode="&#x1e83;" horiz-adv-x="802" d="M486 42 C490 6 513 -10 542 -10 C565 -10 584 2 598 34 L801 479 C812 503 796 520 776 520 C765 520 756 515 749 500 L582 129 C572 107 564 82 551 52 C548 46 544 44 541 44 C538 44 535 46 534 54 C531 81 530 107 527 132 L488 470 C484 509 461 520 438 520 C419 520 398 510 383 477 L226 131 C214 106 205 78 195 52 C193 47 190 44 185 44 C180 44 176 46 175 55 C173 84 172 110 169 135 L127 492 C124 515 111 520 99 520 C82 520 68 507 71 484 L124 49 C129 4 158 -10 180 -10 C206 -10 221 1 236 35 L424 451 C426 456 429 458 432 458 C435 458 438 456 439 448 Z M406 635 C394 630 390 620 390 612 C390 598 400 588 413 588 C418 588 423 589 428 591 L572 659 C588 667 593 677 593 686 C593 698 585 709 569 709 C564 709 559 708 553 705 Z " />
<glyph glyph-name="wcircumflex" unicode="&#x175;" horiz-adv-x="802" d="M486 42 C490 6 513 -10 542 -10 C565 -10 584 2 598 34 L801 479 C812 503 796 520 776 520 C765 520 756 515 749 500 L582 129 C572 107 564 82 551 52 C548 46 544 44 541 44 C538 44 535 46 534 54 C531 81 530 107 527 132 L488 470 C484 509 461 520 438 520 C419 520 398 510 383 477 L226 131 C214 106 205 78 195 52 C193 47 190 44 185 44 C180 44 176 46 175 55 C173 84 172 110 169 135 L127 492 C124 515 111 520 99 520 C82 520 68 507 71 484 L124 49 C129 4 158 -10 180 -10 C206 -10 221 1 236 35 L424 451 C426 456 429 458 432 458 C435 458 438 456 439 448 Z M464 656 L529 596 C536 590 541 587 550 587 C562 587 573 598 573 611 C573 618 570 625 562 632 L493 697 C485 704 477 708 467 708 C456 708 448 705 438 698 L338 634 C328 627 324 620 324 610 C324 597 334 587 346 587 C352 587 358 589 365 593 Z " />
<glyph glyph-name="wdieresis" unicode="&#x1e85;" horiz-adv-x="802" d="M486 42 C490 6 513 -10 542 -10 C565 -10 584 2 598 34 L801 479 C812 503 796 520 776 520 C765 520 756 515 749 500 L582 129 C572 107 564 82 551 52 C548 46 544 44 541 44 C538 44 535 46 534 54 C531 81 530 107 527 132 L488 470 C484 509 461 520 438 520 C419 520 398 510 383 477 L226 131 C214 106 205 78 195 52 C193 47 190 44 185 44 C180 44 176 46 175 55 C173 84 172 110 169 135 L127 492 C124 515 111 520 99 520 C82 520 68 507 71 484 L124 49 C129 4 158 -10 180 -10 C206 -10 221 1 236 35 L424 451 C426 456 429 458 432 458 C435 458 438 456 439 448 Z M390 674 C367 674 350 655 350 635 C350 614 365 601 385 601 C407 601 425 618 425 640 C425 660 411 674 390 674 Z M540 674 C517 674 500 655 500 635 C500 614 515 601 535 601 C557 601 574 618 574 640 C574 660 560 674 540 674 Z " />
<glyph glyph-name="ygrave" unicode="&#x1ef3;" horiz-adv-x="502" d="M117 493 C113 509 104 520 88 520 C70 520 54 505 61 479 L184 33 C127 -69 77 -116 24 -143 C11 -149 4 -156 4 -169 C4 -184 18 -193 30 -193 C40 -193 51 -190 63 -183 C119 -153 175 -94 235 13 L498 475 C510 496 500 520 475 520 C462 520 454 511 447 498 L265 175 C248 144 237 120 230 106 C227 102 225 100 222 100 C218 100 217 104 216 108 C213 132 208 156 202 179 Z M329 588 C343 588 355 598 355 612 C355 620 351 629 341 634 L216 705 C210 708 204 709 198 709 C184 709 173 699 173 685 C173 677 177 667 188 662 L312 593 C318 590 324 588 329 588 Z " />
<glyph glyph-name="yacute" unicode="&#xfd;" horiz-adv-x="502" d="M117 493 C113 509 104 520 88 520 C70 520 54 505 61 479 L184 33 C127 -69 77 -116 24 -143 C11 -149 4 -156 4 -169 C4 -184 18 -193 30 -193 C40 -193 51 -190 63 -183 C119 -153 175 -94 235 13 L498 475 C510 496 500 520 475 520 C462 520 454 511 447 498 L265 175 C248 144 237 120 230 106 C227 102 225 100 222 100 C218 100 217 104 216 108 C213 132 208 156 202 179 Z M260 637 C248 632 244 622 244 614 C244 600 254 590 267 590 C272 590 277 591 282 593 L426 661 C442 669 447 679 447 688 C447 700 439 711 423 711 C418 711 413 710 407 707 Z " />
<glyph glyph-name="ycircumflex" unicode="&#x177;" horiz-adv-x="502" d="M117 493 C113 509 104 520 88 520 C70 520 54 505 61 479 L184 33 C127 -69 77 -116 24 -143 C11 -149 4 -156 4 -169 C4 -184 18 -193 30 -193 C40 -193 51 -190 63 -183 C119 -153 175 -94 235 13 L498 475 C510 496 500 520 475 520 C462 520 454 511 447 498 L265 175 C248 144 237 120 230 106 C227 102 225 100 222 100 C218 100 217 104 216 108 C213 132 208 156 202 179 Z M312 657 L377 597 C384 591 389 588 398 588 C410 588 421 599 421 612 C421 619 418 626 410 633 L341 698 C333 705 325 709 315 709 C304 709 296 706 286 699 L186 635 C176 628 172 621 172 611 C172 598 182 588 194 588 C200 588 206 590 213 594 Z " />
<glyph glyph-name="ydieresis" unicode="&#xff;" horiz-adv-x="502" d="M117 493 C113 509 104 520 88 520 C70 520 54 505 61 479 L184 33 C127 -69 77 -116 24 -143 C11 -149 4 -156 4 -169 C4 -184 18 -193 30 -193 C40 -193 51 -190 63 -183 C119 -153 175 -94 235 13 L498 475 C510 496 500 520 475 520 C462 520 454 511 447 498 L265 175 C248 144 237 120 230 106 C227 102 225 100 222 100 C218 100 217 104 216 108 C213 132 208 156 202 179 Z M234 674 C211 674 194 655 194 635 C194 614 209 601 229 601 C251 601 269 618 269 640 C269 660 255 674 234 674 Z M384 674 C361 674 344 655 344 635 C344 614 359 601 379 601 C401 601 418 618 418 640 C418 660 404 674 384 674 Z " />
<glyph glyph-name="zacute" unicode="&#x17a;" horiz-adv-x="490" d="M457 437 C466 446 472 459 472 471 C472 492 458 510 423 510 L131 510 C115 510 102 498 102 481 C102 468 112 455 131 455 L400 455 L38 72 C28 61 23 50 23 37 C23 17 37 0 66 0 L372 0 C393 0 404 12 404 28 C404 41 396 55 369 55 L97 55 Z M257 636 C245 631 241 621 241 613 C241 599 251 589 264 589 C269 589 274 590 279 592 L423 660 C439 668 444 678 444 687 C444 699 436 710 420 710 C415 710 410 709 404 706 Z " />
<glyph glyph-name="zcaron" unicode="&#x17e;" horiz-adv-x="490" d="M457 437 C466 446 472 459 472 471 C472 492 458 510 423 510 L131 510 C115 510 102 498 102 481 C102 468 112 455 131 455 L400 455 L38 72 C28 61 23 50 23 37 C23 17 37 0 66 0 L372 0 C393 0 404 12 404 28 C404 41 396 55 369 55 L97 55 Z M308 587 C318 587 327 592 336 598 L429 659 C438 666 443 674 443 683 C443 695 433 707 419 707 C414 707 408 705 403 701 L311 639 L241 699 C235 704 229 707 223 707 C209 707 198 695 198 682 C198 675 201 668 207 663 L283 598 C290 592 298 587 308 587 Z " />
<glyph glyph-name="zdotaccent" unicode="&#x17c;" horiz-adv-x="490" d="M457 437 C466 446 472 459 472 471 C472 492 458 510 423 510 L131 510 C115 510 102 498 102 481 C102 468 112 455 131 455 L400 455 L38 72 C28 61 23 50 23 37 C23 17 37 0 66 0 L372 0 C393 0 404 12 404 28 C404 41 396 55 369 55 L97 55 Z M317 673 C294 673 277 654 277 634 C277 613 292 600 312 600 C334 600 352 617 352 639 C352 659 338 673 317 673 Z " />
<glyph glyph-name="eth" unicode="&#xf0;" horiz-adv-x="577" d="M286 494 C181 494 100 433 72 305 C68 285 59 235 57 203 C49 77 131 -10 260 -10 C376 -10 451 71 473 197 L506 389 C523 489 505 563 477 609 L536 635 C551 641 557 652 557 661 C557 677 540 690 519 681 L449 650 C432 669 410 687 391 701 C386 705 380 709 371 709 C354 709 344 695 344 682 C344 673 349 665 358 658 C374 646 383 639 395 627 L324 596 C311 591 305 581 305 572 C305 556 322 542 342 551 L426 588 C459 537 465 477 455 409 C417 467 347 494 286 494 Z M288 439 C377 439 440 379 432 303 C429 279 421 221 412 185 C394 109 346 44 260 44 C168 44 106 102 114 198 C116 223 124 276 131 304 C153 393 210 439 288 439 Z " />
<glyph glyph-name="thorn" unicode="&#xfe;" horiz-adv-x="561" d="M113 85 L171 441 C211 457 254 472 303 472 C408 472 462 409 454 317 C451 280 438 214 431 185 C409 97 356 47 264 47 C203 47 139 69 113 85 Z M102 28 C137 12 193 -10 267 -10 C379 -10 458 46 490 186 C497 217 509 284 512 320 C521 440 444 527 311 527 C262 527 218 516 181 503 L210 677 C213 693 203 709 184 709 C168 709 157 698 154 678 L14 -163 C11 -180 24 -194 41 -194 C57 -194 67 -183 70 -163 Z " />
<glyph glyph-name="grave" unicode="&#x60;" horiz-adv-x="320" d="M285 753 C299 753 311 763 311 777 C311 785 307 794 297 799 L172 870 C166 873 160 874 154 874 C140 874 129 864 129 850 C129 842 133 832 144 827 L268 758 C274 755 280 753 285 753 Z " />
<glyph glyph-name="acute" unicode="&#xb4;" horiz-adv-x="320" d="M135 801 C123 796 119 786 119 778 C119 764 129 754 142 754 C147 754 152 755 157 757 L301 825 C317 833 322 843 322 852 C322 864 314 875 298 875 C293 875 288 874 282 871 Z " />
<glyph glyph-name="circumflex" unicode="&#x2c6;" horiz-adv-x="320" d="M230 819 L295 759 C302 753 307 750 316 750 C328 750 339 761 339 774 C339 781 336 788 328 795 L259 860 C251 867 243 871 233 871 C222 871 214 868 204 861 L104 797 C94 790 90 783 90 773 C90 760 100 750 112 750 C118 750 124 752 131 756 Z " />
<glyph glyph-name="caron" unicode="&#x2c7;" horiz-adv-x="320" d="M225 749 C235 749 244 754 253 760 L346 821 C355 828 360 836 360 845 C360 857 350 869 336 869 C331 869 325 867 320 863 L228 801 L158 861 C152 866 146 869 140 869 C126 869 115 857 115 844 C115 837 118 830 124 825 L200 760 C207 754 215 749 225 749 Z " />
<glyph glyph-name="tilde" unicode="&#x2dc;" horiz-adv-x="320" d="M275 752 C298 752 322 765 344 780 C354 788 360 796 360 806 C360 820 347 830 336 830 C315 830 302 803 277 803 C245 803 217 840 171 840 C147 840 120 828 100 810 C94 804 88 797 88 787 C88 775 97 763 112 763 C132 763 142 790 169 790 C199 790 228 752 275 752 Z " />
<glyph glyph-name="dieresis" unicode="&#xa8;" horiz-adv-x="320" d="M137 836 C114 836 97 817 97 797 C97 776 112 763 132 763 C154 763 172 780 172 802 C172 822 158 836 137 836 Z M287 836 C264 836 247 817 247 797 C247 776 262 763 282 763 C304 763 321 780 321 802 C321 822 307 836 287 836 Z " />
<glyph glyph-name="macron" unicode="&#xaf;" horiz-adv-x="320" d="M305 770 C321 770 332 783 332 797 C332 810 322 821 306 821 L140 821 C123 821 112 809 112 795 C112 782 122 770 139 770 Z " />
<glyph glyph-name="breve" unicode="&#x2d8;" horiz-adv-x="320" d="M230 757 C288 757 326 795 342 833 C345 841 347 850 347 856 C347 871 337 878 325 878 C310 878 303 866 300 857 C288 828 269 804 231 804 C190 804 178 832 173 853 C171 866 167 878 151 878 C139 878 127 870 127 852 C127 842 129 833 131 828 C146 779 187 757 230 757 Z " />
<glyph glyph-name="ring" unicode="&#x2da;" horiz-adv-x="322" d="M232 748 C291 748 324 797 324 843 C324 886 294 923 244 923 C184 923 151 874 151 830 C151 785 182 748 232 748 Z M233 785 C203 785 188 806 188 830 C188 857 207 886 243 886 C272 886 288 865 288 841 C288 814 268 785 233 785 Z " />
<glyph glyph-name="hungarumlaut" unicode="&#x2dd;" horiz-adv-x="320" d="M215 838 C224 844 228 853 228 861 C228 875 217 886 203 886 C195 886 187 882 180 876 L79 801 C70 794 66 784 66 777 C66 762 76 752 90 752 C97 752 105 755 112 761 Z M367 838 C375 844 379 853 379 861 C379 875 369 886 354 886 C346 886 339 882 332 876 L231 801 C222 794 217 784 217 777 C217 762 228 752 241 752 C248 752 256 755 263 761 Z " />
<glyph glyph-name="dotaccent" unicode="&#x2d9;" horiz-adv-x="320" d="M231 836 C208 836 191 817 191 797 C191 776 206 763 226 763 C248 763 266 780 266 802 C266 822 252 836 231 836 Z " />
<glyph glyph-name="cedilla" unicode="&#xb8;" horiz-adv-x="320" d="M112 -241 C118 -241 126 -240 130 -239 C178 -226 255 -191 255 -124 C255 -83 222 -53 178 -56 L202 -11 C212 7 205 24 187 24 C178 24 170 18 164 7 L126 -70 C117 -87 126 -102 142 -102 C153 -102 161 -96 175 -96 C192 -96 209 -104 209 -125 C209 -168 143 -188 109 -199 C96 -203 90 -210 90 -221 C90 -233 99 -241 112 -241 Z " />
<glyph glyph-name="ogonek" unicode="&#x2db;" horiz-adv-x="320" d="M215 -199 C239 -199 264 -191 283 -177 C292 -170 300 -162 300 -151 C300 -139 290 -131 281 -131 C275 -131 268 -135 262 -139 C248 -149 233 -153 219 -153 C194 -153 171 -140 171 -105 C171 -47 237 -18 279 -1 C294 6 299 12 299 22 C299 33 292 43 277 43 C273 43 268 41 263 39 C190 11 124 -36 124 -109 C124 -169 168 -199 215 -199 Z " />
<glyph glyph-name="comma" unicode="&#x2c;" horiz-adv-x="210" d="M49 -98 C62 -98 72 -89 79 -81 C105 -53 117 -33 127 22 L137 77 C141 97 127 109 113 109 C100 109 87 100 84 83 L74 25 C68 -7 61 -27 36 -53 C29 -61 25 -67 25 -75 C25 -87 35 -98 49 -98 Z " />
<glyph glyph-name="semicolon" unicode="&#x3b;" horiz-adv-x="274" d="M164 345 C179 345 190 356 193 372 L208 468 C211 484 199 496 184 496 C169 496 157 486 155 469 L139 375 C137 357 149 345 164 345 Z M58 -98 C71 -98 81 -89 88 -81 C114 -53 126 -33 136 22 L146 77 C150 97 136 109 122 109 C109 109 96 100 93 83 L83 25 C77 -7 70 -27 45 -53 C38 -61 34 -67 34 -75 C34 -87 44 -98 58 -98 Z " />
<glyph glyph-name="colon" unicode="&#x3a;" horiz-adv-x="261" d="M150 345 C164 345 176 356 178 372 L194 468 C197 484 184 496 169 496 C155 496 143 486 140 469 L125 375 C122 357 134 345 150 345 Z M91 -10 C106 -10 117 0 120 17 L135 112 C138 129 126 141 111 141 C96 141 84 131 82 114 L66 19 C64 1 76 -10 91 -10 Z " />
<glyph glyph-name="period" unicode="&#x2e;" horiz-adv-x="240" d="M84 -11 C98 -11 109 -1 112 16 L128 113 C131 130 119 142 103 142 C89 142 77 132 74 115 L58 20 C56 2 68 -11 84 -11 Z " />
<glyph glyph-name="ellipsis" unicode="&#x2026;" horiz-adv-x="623" d="M500 -11 C514 -11 525 -1 528 16 L544 113 C547 130 535 142 519 142 C505 142 493 132 490 115 L474 20 C472 2 484 -11 500 -11 Z M293 -11 C307 -11 318 -1 321 16 L337 113 C340 130 328 142 312 142 C298 142 286 132 283 115 L267 20 C265 2 277 -11 293 -11 Z M84 -11 C98 -11 109 -1 112 16 L128 113 C131 130 119 142 103 142 C89 142 77 132 74 115 L58 20 C56 2 68 -11 84 -11 Z " />
<glyph glyph-name="uni00AD" unicode="&#xad;" horiz-adv-x="322" d="M47 287 C47 272 57 258 77 258 L244 258 C261 258 275 270 275 287 C275 302 265 315 245 315 L78 315 C61 315 47 304 47 287 Z " />
<glyph glyph-name="exclam" unicode="&#x21;" horiz-adv-x="220" d="M102 227 C115 227 125 235 128 252 L202 665 C206 687 193 699 176 699 C162 699 147 690 144 668 L80 253 C77 239 88 227 102 227 Z M63 -9 C77 -9 89 1 91 18 L107 113 C109 128 98 141 82 141 C67 141 55 129 53 113 L37 19 C35 3 47 -9 63 -9 Z " />
<glyph glyph-name="exclamdown" unicode="&#xa1;" horiz-adv-x="223" d="M148 462 C135 462 125 454 122 437 L48 24 C44 2 57 -10 74 -10 C88 -10 103 -1 106 21 L170 436 C173 450 162 462 148 462 Z M187 698 C173 698 161 688 159 671 L143 576 C141 561 152 548 168 548 C183 548 195 560 197 576 L213 670 C215 686 203 698 187 698 Z " />
<glyph glyph-name="question" unicode="&#x3f;" horiz-adv-x="581" d="M203 -10 C218 -10 229 0 232 17 L247 111 C250 127 238 140 223 140 C208 140 196 130 194 113 L178 19 C176 1 188 -10 203 -10 Z M248 266 C255 266 260 268 268 271 C425 332 524 412 524 531 C524 634 445 709 332 709 C248 709 174 664 120 613 C111 605 108 596 108 587 C108 573 121 562 135 562 C147 562 156 570 161 575 C208 615 262 654 333 654 C424 654 467 593 467 530 C467 406 308 350 249 323 C235 317 222 310 222 294 C222 279 232 266 248 266 Z " />
<glyph glyph-name="questiondown" unicode="&#xbf;" horiz-adv-x="581" d="M376 710 C361 710 350 700 347 683 L332 589 C329 573 341 560 356 560 C371 560 383 570 385 587 L401 681 C403 699 391 710 376 710 Z M331 434 C324 434 319 432 311 429 C154 368 55 288 55 169 C55 66 134 -9 247 -9 C331 -9 405 36 459 87 C468 95 471 104 471 113 C471 127 458 138 444 138 C432 138 423 130 418 125 C371 85 317 46 246 46 C155 46 112 107 112 170 C112 294 271 350 330 377 C344 383 357 390 357 406 C357 421 347 434 331 434 Z " />
<glyph glyph-name="quoteleft" unicode="&#x2018;" horiz-adv-x="199" d="M117 494 C130 494 143 503 145 520 L155 576 C161 609 170 629 194 656 C201 663 205 670 205 678 C205 690 196 700 181 700 C168 700 158 691 151 684 C125 656 112 633 103 580 L93 525 C89 507 101 494 117 494 Z " />
<glyph glyph-name="quoteright" unicode="&#x2019;" horiz-adv-x="194" d="M104 494 C117 494 127 502 134 510 C160 538 173 560 182 613 L192 668 C196 687 184 700 168 700 C155 700 142 691 140 674 L130 618 C124 584 115 564 91 537 C84 530 80 524 80 516 C80 504 89 494 104 494 Z " />
<glyph glyph-name="quotedblleft" unicode="&#x201c;" horiz-adv-x="320" d="M238 494 C251 494 264 503 266 520 L276 576 C282 609 291 629 315 656 C322 663 326 670 326 678 C326 690 317 700 302 700 C289 700 279 691 272 684 C246 656 233 633 224 580 L214 525 C210 507 222 494 238 494 Z M117 494 C130 494 143 503 145 520 L155 576 C161 609 170 629 194 656 C201 663 205 670 205 678 C205 690 196 700 181 700 C168 700 158 691 151 684 C125 656 112 633 103 580 L93 525 C89 507 101 494 117 494 Z " />
<glyph glyph-name="quotedblright" unicode="&#x201d;" horiz-adv-x="316" d="M226 494 C239 494 249 502 256 510 C282 538 295 560 304 613 L314 668 C318 687 306 700 290 700 C277 700 264 691 262 674 L252 618 C246 584 237 564 213 537 C206 530 202 524 202 516 C202 504 211 494 226 494 Z M104 494 C117 494 127 502 134 510 C160 538 173 560 182 613 L192 668 C196 687 184 700 168 700 C155 700 142 691 140 674 L130 618 C124 584 115 564 91 537 C84 530 80 524 80 516 C80 504 89 494 104 494 Z " />
<glyph glyph-name="quotesinglbase" unicode="&#x201a;" horiz-adv-x="185" d="M50 -97 C63 -97 73 -89 80 -81 C106 -53 119 -31 128 22 L138 77 C142 96 130 109 114 109 C101 109 88 100 86 83 L76 27 C70 -7 61 -27 37 -54 C30 -61 26 -67 26 -75 C26 -87 35 -97 50 -97 Z " />
<glyph glyph-name="quotedblbase" unicode="&#x201e;" horiz-adv-x="303" d="M186 -98 C199 -98 209 -90 216 -82 C242 -54 255 -32 264 21 L274 76 C278 95 266 108 250 108 C237 108 224 99 222 82 L212 26 C206 -8 197 -28 173 -55 C166 -62 162 -68 162 -76 C162 -88 171 -98 186 -98 Z M65 -97 C78 -97 88 -89 95 -81 C121 -53 134 -31 143 22 L153 77 C157 96 145 109 129 109 C116 109 103 100 101 83 L91 27 C85 -7 76 -27 52 -54 C45 -61 41 -67 41 -75 C41 -87 50 -97 65 -97 Z " />
<glyph glyph-name="guilsinglleft" unicode="&#x2039;" horiz-adv-x="337" d="M41 342 C41 325 47 309 64 293 L172 185 C180 178 188 175 195 175 C210 175 221 188 221 201 C221 207 219 213 212 219 L111 323 C104 331 101 337 101 344 C101 353 109 362 120 371 L257 475 C267 483 272 491 272 500 C272 513 261 524 247 524 C240 524 234 521 226 516 L80 406 C54 387 41 366 41 342 Z " />
<glyph glyph-name="guilsinglright" unicode="&#x203a;" horiz-adv-x="338" d="M297 357 C297 374 290 389 273 405 L165 514 C157 521 150 524 143 524 C128 524 117 511 117 498 C117 492 119 485 125 480 L227 376 C234 368 237 361 237 355 C237 345 229 337 217 328 L81 224 C70 216 66 207 66 199 C66 186 77 175 91 175 C97 175 104 177 111 182 L258 293 C284 312 297 333 297 357 Z " />
<glyph glyph-name="guillemotleft" unicode="&#xab;" horiz-adv-x="520" d="M223 342 C223 325 229 309 246 293 L354 185 C362 178 370 175 377 175 C392 175 403 188 403 201 C403 207 401 213 394 219 L293 323 C286 331 283 337 283 344 C283 353 291 362 302 371 L439 475 C449 483 454 491 454 500 C454 513 443 524 429 524 C422 524 416 521 408 516 L262 406 C236 387 223 366 223 342 Z M41 342 C41 325 47 309 64 293 L172 185 C180 178 188 175 195 175 C210 175 221 188 221 201 C221 207 219 213 212 219 L111 323 C104 331 101 337 101 344 C101 353 109 362 120 371 L257 475 C267 483 272 491 272 500 C272 513 261 524 247 524 C240 524 234 521 226 516 L80 406 C54 387 41 366 41 342 Z " />
<glyph glyph-name="guillemotright" unicode="&#xbb;" horiz-adv-x="520" d="M481 357 C481 374 474 389 457 405 L349 514 C341 521 334 524 327 524 C312 524 301 511 301 498 C301 492 303 485 309 480 L411 376 C418 368 421 361 421 355 C421 345 413 337 401 328 L265 224 C254 216 250 207 250 199 C250 186 261 175 275 175 C281 175 288 177 295 182 L442 293 C468 312 481 333 481 357 Z M300 357 C300 374 293 389 276 405 L168 514 C160 521 153 524 146 524 C131 524 120 511 120 498 C120 492 122 485 128 480 L230 376 C237 368 240 361 240 355 C240 345 232 337 220 328 L84 224 C73 216 69 207 69 199 C69 186 80 175 94 175 C100 175 107 177 114 182 L261 293 C287 312 300 333 300 357 Z " />
<glyph glyph-name="slash" unicode="&#x2f;" horiz-adv-x="312" d="M16 -32 C30 -32 40 -24 44 -13 L322 691 C330 712 319 731 300 732 C284 732 273 723 269 711 L-8 8 C-17 -15 -2 -32 16 -32 Z " />
<glyph glyph-name="bar" unicode="&#x7c;" horiz-adv-x="295" d="M140 -140 C157 -140 169 -127 169 -110 L169 805 C169 822 157 835 140 835 C124 835 112 822 112 805 L112 -110 C112 -126 124 -140 140 -140 Z " />
<glyph glyph-name="endash" unicode="&#x2013;" horiz-adv-x="584" d="M47 286 C47 271 57 257 77 257 L505 257 C522 257 537 269 537 286 C537 301 526 314 506 314 L78 314 C61 314 47 303 47 286 Z " />
<glyph glyph-name="emdash" unicode="&#x2014;" horiz-adv-x="948" d="M47 286 C47 271 57 257 77 257 L869 257 C886 257 901 269 901 286 C901 301 890 314 871 314 L78 314 C61 314 47 303 47 286 Z " />
<glyph glyph-name="bullet" unicode="&#x2022;" horiz-adv-x="469" d="M108 350 C108 281 165 224 234 224 C303 224 360 281 360 350 C360 419 303 476 234 476 C165 476 108 419 108 350 Z " />
<glyph glyph-name="periodcentered" unicode="&#xb7;" horiz-adv-x="239" d="M111 290 C125 290 136 300 139 317 L155 414 C158 431 146 443 130 443 C116 443 104 433 101 416 L85 321 C83 303 95 290 111 290 Z " />
<glyph glyph-name="parenleft" unicode="&#x28;" horiz-adv-x="328" d="M226 -176 C243 -176 256 -163 256 -148 C256 -141 254 -134 249 -127 C181 -31 137 98 137 242 C137 561 322 702 364 743 C374 753 379 760 379 769 C379 785 364 795 351 795 C344 795 335 791 328 785 C153 641 81 446 81 243 C81 95 115 -39 203 -164 C210 -173 218 -176 226 -176 Z " />
<glyph glyph-name="parenright" unicode="&#x29;" horiz-adv-x="332" d="M-20 -176 C-13 -176 -4 -173 3 -166 C178 -23 251 172 251 375 C251 523 216 657 128 782 C121 791 114 795 105 795 C88 795 75 781 75 766 C75 759 78 753 83 745 C150 650 195 521 195 376 C195 58 9 -84 -33 -124 C-43 -134 -48 -142 -48 -150 C-48 -166 -33 -176 -20 -176 Z " />
<glyph glyph-name="bracketleft" unicode="&#x5b;" horiz-adv-x="335" d="M80 -119 L223 736 L372 736 C393 736 406 750 406 767 C406 781 397 793 379 793 L214 793 C186 793 171 773 167 750 L21 -131 C18 -155 27 -175 56 -175 L222 -175 C243 -175 257 -160 257 -144 C257 -130 247 -119 229 -119 Z " />
<glyph glyph-name="bracketright" unicode="&#x5d;" horiz-adv-x="333" d="M109 -119 L-40 -119 C-61 -119 -74 -133 -74 -149 C-74 -163 -65 -175 -46 -175 L118 -175 C146 -175 161 -155 165 -132 L311 749 C314 773 305 793 276 793 L108 793 C88 793 75 780 75 762 C75 748 85 736 104 736 L252 736 Z " />
<glyph glyph-name="braceleft" unicode="&#x7b;" horiz-adv-x="336" d="M225 -174 C245 -174 259 -160 259 -144 C259 -130 249 -118 231 -118 L115 -118 C98 -118 85 -108 89 -87 L132 166 C147 251 113 292 88 312 C127 333 169 378 182 464 L223 705 C226 726 241 736 258 736 L377 736 C396 736 410 750 410 767 C410 780 400 792 383 792 L251 792 C206 792 176 769 168 722 L126 464 C115 401 89 369 49 344 C36 336 27 326 27 311 C27 299 34 290 40 285 C70 258 85 226 76 167 L31 -96 C23 -144 55 -174 98 -174 Z " />
<glyph glyph-name="braceright" unicode="&#x7d;" horiz-adv-x="336" d="M84 -174 C129 -174 160 -151 168 -105 L210 154 C220 216 246 248 286 274 C299 282 309 292 309 307 C309 319 302 327 295 333 C265 360 250 392 260 451 L304 714 C312 762 280 792 238 792 L111 792 C90 792 76 778 76 762 C76 747 86 736 104 736 L221 736 C238 736 250 726 246 705 L203 452 C189 367 222 325 248 305 C208 285 167 240 153 154 L113 -87 C109 -108 94 -118 77 -118 L-41 -118 C-61 -118 -75 -132 -75 -149 C-75 -162 -65 -174 -48 -174 Z " />
<glyph glyph-name="asterisk" unicode="&#x2a;" horiz-adv-x="357" d="M159 362 C171 362 182 370 183 389 L199 498 L283 441 C295 432 310 435 317 445 C324 456 322 470 308 478 L223 531 L328 584 C344 591 349 606 345 617 C339 629 324 634 309 624 L210 567 L230 672 C235 692 224 703 210 703 C197 703 186 693 185 675 L170 567 L88 623 C76 632 61 630 54 621 C45 610 47 594 60 586 L145 535 L40 480 C24 473 19 459 24 448 C29 436 45 433 59 441 L159 498 L138 391 C134 373 145 362 159 362 Z " />
<glyph glyph-name="dagger" unicode="&#x2020;" horiz-adv-x="442" d="M214 423 L126 -107 C122 -127 136 -140 153 -140 C168 -140 179 -129 182 -112 L271 423 L428 423 C449 423 461 437 461 453 C461 467 450 480 434 480 L281 480 L314 678 C317 696 305 709 289 709 C273 709 260 699 257 679 L224 480 L67 480 C48 480 35 466 35 449 C35 435 44 423 62 423 Z " />
<glyph glyph-name="daggerdbl" unicode="&#x2021;" horiz-adv-x="442" d="M214 423 L168 146 L12 146 C-8 146 -21 132 -21 115 C-21 101 -12 89 6 89 L159 89 L126 -107 C122 -127 136 -140 153 -140 C168 -140 179 -129 182 -112 L216 89 L373 89 C394 89 406 104 406 120 C406 134 396 146 379 146 L225 146 L271 423 L428 423 C449 423 461 437 461 454 C461 467 452 480 435 480 L281 480 L314 678 C317 696 305 709 288 709 C273 709 260 699 257 679 L224 480 L67 480 C47 480 34 465 34 449 C34 435 44 423 61 423 Z " />
<glyph glyph-name="section" unicode="&#xa7;" horiz-adv-x="565" d="M243 -103 C381 -103 463 -16 463 83 C463 116 455 149 425 180 C460 211 477 247 477 282 C477 353 414 376 324 406 C235 436 185 455 185 521 C185 603 262 652 346 652 C389 652 440 639 484 610 C490 606 497 601 507 601 C523 601 535 612 535 628 C535 635 532 642 527 647 C507 669 436 709 348 709 C225 709 126 632 126 522 C126 481 140 450 159 429 C122 399 97 364 97 325 C97 259 140 231 252 195 C337 168 406 157 406 83 C406 11 347 -46 246 -46 C178 -46 127 -24 81 2 C74 6 66 11 56 11 C41 11 27 -2 27 -18 C27 -30 34 -37 40 -42 C70 -65 154 -103 243 -103 Z M386 206 C339 227 321 230 275 244 C186 271 153 289 153 325 C153 355 176 385 196 401 C238 378 255 372 300 357 C387 328 422 315 422 274 C422 250 403 221 386 206 Z " />
<glyph glyph-name="paragraph" unicode="&#xb6;" horiz-adv-x="655" d="M312 -192 C326 -192 339 -181 342 -162 L475 641 L562 641 L428 -161 C425 -179 439 -192 455 -192 C470 -192 482 -181 485 -162 L620 649 C625 679 617 698 575 698 L368 698 C227 698 125 602 125 475 C125 350 210 274 343 274 L357 274 L285 -161 C282 -179 295 -192 312 -192 Z M367 330 L350 330 C253 330 187 377 187 470 C187 581 275 642 377 642 L419 642 Z " />
<glyph glyph-name="asciicircum" unicode="&#x5e;" horiz-adv-x="626" d="M160 355 C173 352 187 359 191 372 L299 642 C301 647 305 654 313 654 C320 654 324 647 326 642 L435 372 C439 358 453 352 466 355 C484 357 495 376 488 392 L376 660 C360 699 337 715 313 715 C288 715 266 700 250 661 L138 392 C131 376 142 357 160 355 Z " />
<glyph glyph-name="asciitilde" unicode="&#x7e;" horiz-adv-x="620" d="M405 294 C435 294 467 306 516 327 C529 333 539 342 539 357 C539 370 528 386 511 386 C505 386 498 384 491 380 C457 362 433 354 407 354 C333 354 286 406 210 406 C178 406 146 395 101 375 C88 369 76 359 76 342 C76 331 86 316 105 316 C111 316 118 317 126 321 C159 339 181 346 208 346 C282 346 329 294 405 294 Z " />
<glyph glyph-name="brokenbar" unicode="&#xa6;" horiz-adv-x="286" d="M139 -140 C156 -140 168 -127 168 -110 L168 281 C168 298 156 311 139 311 C123 311 111 298 111 281 L111 -110 C111 -126 123 -140 139 -140 Z M139 384 C156 384 168 397 168 414 L168 805 C168 822 156 835 139 835 C123 835 111 822 111 805 L111 414 C111 398 123 384 139 384 Z " />
<glyph glyph-name="backslash" unicode="&#x5c;" horiz-adv-x="310" d="M236 -37 C256 -37 268 -19 263 0 L100 714 C97 730 85 739 72 739 C50 739 39 719 44 701 L207 -12 C210 -27 222 -37 236 -37 Z " />
<glyph glyph-name="underscore" unicode="&#x5f;" horiz-adv-x="455" d="M464 -143 L-8 -143 L-8 -193 L464 -193 Z " />
<glyph glyph-name="quotesingle" unicode="&#x27;" horiz-adv-x="215" d="M190 673 C193 689 181 701 165 701 C151 701 139 692 136 674 L111 524 C108 506 120 494 136 494 C150 494 162 504 165 521 Z " />
<glyph glyph-name="quotedbl" unicode="&#x22;" horiz-adv-x="327" d="M179 673 C182 689 170 701 154 701 C140 701 128 692 125 674 L100 524 C97 506 109 494 125 494 C139 494 151 504 154 521 Z M303 673 C306 689 293 701 278 701 C263 701 251 692 249 674 L224 524 C221 506 233 494 249 494 C263 494 275 504 277 521 Z " />
<glyph glyph-name="at" unicode="&#x40;" horiz-adv-x="833" d="M387 64 C418 64 448 72 463 80 C477 88 480 97 480 104 C480 117 470 127 458 127 C441 127 422 113 382 113 C318 113 277 146 291 238 L300 297 C314 389 365 428 432 428 C508 428 556 377 543 298 L527 197 C514 124 562 69 639 69 C694 69 739 104 752 184 L780 349 C813 549 676 702 453 702 C266 702 128 593 81 374 C70 324 55 222 51 171 C32 -53 184 -159 353 -159 C404 -159 466 -146 498 -131 C514 -124 521 -116 521 -102 C521 -87 506 -74 483 -82 C442 -96 408 -107 358 -107 C209 -107 88 -16 104 167 C108 213 121 313 136 374 C178 554 293 650 452 650 C632 650 758 529 728 356 L698 181 C693 148 674 119 636 119 C600 119 570 143 578 194 L594 299 C609 396 552 480 433 480 C334 480 265 418 249 301 L240 240 C223 127 284 64 387 64 Z " />
<glyph glyph-name="copyright" unicode="&#xa9;" horiz-adv-x="795" d="M396 707 C240 707 107 585 97 426 C93 376 93 323 97 274 C107 112 240 -8 396 -8 C553 -8 687 112 697 274 C701 322 701 376 697 426 C687 586 553 707 396 707 Z M396 659 C524 659 636 561 648 431 C653 379 653 320 648 267 C636 137 525 40 396 40 C268 40 158 137 146 267 C141 320 141 379 146 431 C158 561 268 659 396 659 Z M397 562 C302 562 238 490 231 398 C229 366 228 337 231 307 C238 215 302 143 397 143 C461 143 522 178 546 233 C549 239 552 248 552 252 C552 268 541 276 529 276 C518 276 511 268 507 260 C490 220 452 190 397 190 C330 190 284 240 279 310 C277 340 276 365 279 395 C284 465 330 515 397 515 C452 515 490 484 507 445 C511 436 518 429 529 429 C541 429 552 437 552 452 C552 457 549 465 546 471 C522 527 461 562 397 562 Z " />
<glyph glyph-name="registered" unicode="&#xae;" horiz-adv-x="593" d="M237 456 L237 552 L306 552 C342 552 359 533 359 504 C359 477 342 456 304 456 Z M219 314 C230 314 238 323 238 333 L238 422 L280 422 C290 422 293 420 298 413 L372 323 C376 319 381 313 390 313 C400 313 408 321 408 331 C408 337 405 343 403 346 L332 428 C368 438 397 457 397 507 C397 559 356 588 309 588 L230 588 C211 588 200 574 200 558 L200 333 C200 323 209 314 219 314 Z M294 232 C196 232 123 291 114 404 C112 428 112 474 114 497 C123 610 196 670 294 670 C391 670 464 610 473 497 C475 474 475 428 473 404 C464 291 391 232 294 232 Z M294 192 C414 192 503 269 514 406 C516 430 516 471 514 496 C503 632 414 709 294 709 C173 709 85 632 73 496 C71 471 71 430 73 406 C85 269 173 192 294 192 Z " />
<glyph glyph-name="trademark" unicode="&#x2122;" horiz-adv-x="515" d="M124 455 C134 455 142 462 143 474 L175 666 L238 666 C250 666 258 676 258 686 C258 694 252 702 241 702 L77 702 C65 702 58 692 58 682 C58 674 63 666 73 666 L138 666 L106 474 C105 464 113 455 124 455 Z M257 456 C266 456 272 462 275 471 L330 657 C331 661 332 662 334 662 C336 662 337 660 337 657 L350 489 C351 470 365 457 380 457 C396 457 406 467 414 486 L482 658 C483 661 484 662 485 662 C487 662 488 661 488 657 L482 474 C482 463 490 456 500 456 C511 456 518 464 518 476 L522 673 C522 695 507 705 490 705 C475 705 462 698 454 675 L388 504 C387 501 386 500 384 500 C382 500 381 502 381 505 L368 673 C367 693 355 705 338 705 C321 705 307 697 300 673 L241 479 C236 466 245 456 257 456 Z " />
<glyph glyph-name="ordfeminine" unicode="&#xaa;" horiz-adv-x="460" d="M181 274 C232 274 277 297 320 335 C324 322 332 298 341 287 C347 279 354 276 362 276 C376 276 387 287 387 301 C387 305 386 310 383 316 C367 347 357 371 370 448 L400 629 C402 644 399 654 386 664 C366 679 308 706 236 706 C137 706 71 657 50 548 C44 517 37 476 35 449 C25 340 84 274 181 274 Z M180 326 C110 326 78 371 86 448 C88 473 96 522 100 541 C116 617 156 654 235 654 C281 654 327 640 349 625 L331 520 C323 473 314 424 313 387 C273 348 229 326 180 326 Z " />
<glyph glyph-name="ordmasculine" unicode="&#xba;" horiz-adv-x="455" d="M241 702 C156 702 84 648 63 538 C58 510 56 484 54 459 C44 337 129 279 215 279 C318 279 372 351 387 444 C390 466 395 508 396 527 C403 622 344 702 241 702 Z M239 655 C314 655 349 593 346 526 C344 506 341 472 336 444 C321 363 272 327 216 327 C150 327 97 366 103 458 C105 483 109 513 113 535 C127 606 175 655 239 655 Z " />
<glyph glyph-name="numbersign" unicode="&#x23;" horiz-adv-x="594" d="M38 -9 C49 -9 58 -2 64 10 L168 220 L291 220 L196 28 C185 7 201 -9 217 -9 C228 -9 238 -2 243 10 L348 220 L432 220 C455 220 466 234 466 249 C466 262 457 274 438 274 L374 274 L456 439 L536 439 C559 439 570 454 570 468 C570 481 561 493 543 493 L482 493 L570 670 C580 692 568 708 549 708 C538 708 529 702 522 688 L426 493 L302 493 L390 670 C401 692 389 708 370 708 C359 708 349 702 342 688 L246 493 L164 493 C142 493 129 480 129 463 C129 450 140 439 155 439 L219 439 L138 274 L59 274 C37 274 24 260 24 245 C24 233 34 220 50 220 L112 220 L17 28 C6 8 20 -9 38 -9 Z M194 274 L276 439 L399 439 L318 274 Z " />
<glyph glyph-name="currency" unicode="&#xa4;" horiz-adv-x="620" d="M311 142 C368 142 402 163 434 192 L524 101 C529 96 537 92 545 92 C559 92 571 105 571 119 C571 126 568 133 562 139 L469 234 C483 260 491 291 492 320 C493 340 493 360 492 381 C491 411 482 443 468 469 L562 564 C568 570 571 577 571 584 C571 598 558 611 545 611 C537 611 530 607 524 601 L434 510 C402 539 366 560 311 560 C257 560 221 539 189 510 L99 601 C93 607 86 611 78 611 C65 611 52 597 52 584 C52 577 55 570 61 564 L155 468 C141 443 132 411 131 381 C130 360 130 340 131 320 C132 289 141 259 155 234 L61 139 C55 133 52 126 52 119 C52 105 65 92 78 92 C85 92 92 94 99 101 L189 192 C220 163 257 142 311 142 Z M311 194 C241 194 185 248 182 317 C181 339 180 364 182 386 C187 455 242 509 311 509 C381 509 436 455 441 385 C443 363 443 339 441 317 C436 248 381 194 311 194 Z " />
<glyph glyph-name="Euro" unicode="&#x20ac;" horiz-adv-x="632" d="M87 432 C68 439 55 419 55 404 C55 392 64 381 80 381 L133 381 L123 320 L67 320 C48 320 36 307 36 292 C36 280 46 268 61 268 L116 268 C96 72 212 -7 343 -7 C409 -7 483 18 541 66 C549 73 554 81 554 90 C554 103 545 116 529 116 C520 116 514 112 506 106 C453 63 394 45 345 45 C216 45 155 132 171 268 L379 268 C401 268 412 282 412 296 C412 309 404 320 387 320 L179 320 L189 381 L399 381 C419 381 430 395 430 408 C430 421 422 432 404 432 L200 432 C227 570 311 655 439 655 C499 655 546 640 590 597 C597 590 605 585 615 585 C630 585 642 597 642 612 C642 618 639 624 634 630 C591 681 515 708 442 708 C282 708 175 601 142 432 Z " />
<glyph glyph-name="dollar" unicode="&#x24;" horiz-adv-x="588" d="M225 -89 C238 -89 250 -81 253 -62 L266 16 C411 12 509 89 509 205 C509 316 413 351 300 382 C228 402 152 424 152 501 C152 585 241 627 327 627 C380 627 433 611 469 586 C476 581 483 578 491 578 C508 578 518 591 518 605 C518 612 515 619 508 626 C489 646 435 671 376 681 L390 759 C393 776 382 788 365 788 C351 788 338 778 335 759 L323 682 C212 681 93 622 93 497 C93 394 195 352 284 327 C383 299 451 281 451 203 C451 114 364 72 274 72 C198 72 132 95 78 131 C71 136 64 140 55 140 C39 140 26 126 26 111 C26 104 29 95 37 88 C73 59 144 29 214 19 L200 -59 C197 -78 210 -89 225 -89 Z " />
<glyph glyph-name="cent" unicode="&#xa2;" horiz-adv-x="512" d="M237 -9 C251 -9 262 2 265 20 L282 117 C359 120 412 163 437 216 C441 224 444 232 444 240 C444 255 429 264 417 264 C404 264 396 254 390 243 C368 200 326 170 274 170 C179 170 148 230 154 305 C157 338 161 365 169 400 C190 486 244 529 321 529 C367 529 404 506 425 459 C431 446 438 439 452 439 C467 439 478 451 478 466 C478 470 477 475 475 480 C461 527 413 571 358 581 L376 679 C379 697 366 709 350 709 C335 709 325 699 321 679 L304 583 C206 579 134 514 111 405 C102 362 99 329 97 301 C90 202 139 137 227 119 L211 23 C208 4 221 -9 237 -9 Z " />
<glyph glyph-name="sterling" unicode="&#xa3;" horiz-adv-x="596" d="M110 55 C160 117 203 196 211 299 L368 299 C389 299 402 314 402 329 C402 343 392 355 375 355 L211 355 C207 415 201 463 210 512 C220 575 267 652 366 652 C420 652 464 635 508 586 C514 579 524 575 531 575 C545 575 558 585 558 600 C558 610 553 618 548 625 C517 664 451 709 371 709 C247 709 168 629 152 512 C146 463 149 409 154 355 L90 355 C70 355 57 341 57 325 C57 311 66 299 84 299 L153 299 C149 214 104 131 54 66 C36 39 42 0 85 0 L471 0 C495 0 506 15 506 31 C506 44 496 55 479 55 Z " />
<glyph glyph-name="florin" unicode="&#x192;" horiz-adv-x="544" d="M28 -202 C41 -202 52 -194 57 -181 L212 327 L392 327 C410 327 422 340 422 354 C422 370 410 381 392 381 L228 381 L286 571 C301 619 329 652 393 652 C447 652 477 633 496 615 C503 609 512 606 519 606 C534 606 546 615 546 633 C546 640 543 647 537 653 C508 682 458 709 388 709 C318 709 258 672 235 597 L168 381 L99 381 C83 381 70 370 70 354 C70 337 84 327 99 327 L151 327 L1 -162 C-5 -182 5 -202 28 -202 Z " />
<glyph glyph-name="yen" unicode="&#xa5;" horiz-adv-x="621" d="M254 -4 C271 -4 280 7 283 25 L318 235 L464 235 C484 235 497 249 497 264 C497 280 484 291 468 291 L327 291 L329 306 C332 321 340 331 357 349 L654 652 C662 660 665 669 665 677 C665 692 652 704 636 704 C628 704 620 701 611 692 L309 380 L114 688 C107 698 98 704 88 704 C71 704 59 691 59 675 C59 669 62 662 65 656 L259 351 C270 333 275 321 273 306 L271 291 L135 291 C118 291 103 278 103 262 C103 248 114 235 132 235 L261 235 L227 29 C224 11 236 -4 254 -4 Z " />
<glyph glyph-name="zero" unicode="0" horiz-adv-x="652" d="M310 -8 C453 -8 538 94 566 238 C579 304 591 373 597 441 C609 586 516 707 362 707 C213 707 125 602 98 461 C84 391 74 337 68 259 C56 111 150 -8 310 -8 Z M305 47 C185 47 111 138 124 267 C131 332 140 391 154 457 C176 566 239 652 363 652 C486 652 551 558 540 432 C534 367 521 296 510 242 C487 133 426 47 305 47 Z " />
<glyph glyph-name="one" unicode="1" horiz-adv-x="422" d="M194 -4 C211 -4 219 7 222 26 L328 663 C333 691 318 704 300 704 C292 704 282 700 272 694 L97 599 C84 592 76 581 76 570 C76 554 89 544 102 544 C108 544 113 546 119 549 L265 628 L166 28 C163 8 178 -4 194 -4 Z " />
<glyph glyph-name="two" unicode="2" horiz-adv-x="570" d="M73 55 C85 118 121 159 251 243 C376 324 522 401 522 537 C522 638 439 707 329 707 C238 707 165 658 123 616 C112 605 105 596 105 583 C105 568 119 559 132 559 C142 559 149 564 158 572 C196 610 254 652 331 652 C409 652 464 604 464 534 C464 426 330 363 199 275 C79 194 31 144 13 52 C8 25 20 0 50 0 L418 0 C438 0 454 12 454 30 C454 47 441 55 425 55 Z " />
<glyph glyph-name="three" unicode="3" horiz-adv-x="564" d="M421 641 L211 442 C200 432 196 424 196 413 C196 398 208 386 227 386 C235 386 259 388 274 387 C378 381 425 327 425 255 C425 98 218 55 97 55 C76 55 65 56 51 56 C30 56 18 43 18 29 C18 13 29 0 66 0 C242 0 481 55 481 256 C481 362 398 434 278 437 L479 624 C495 638 502 651 502 665 C502 683 489 699 458 699 L126 699 C107 699 93 686 93 669 C93 654 106 644 123 644 L420 644 Z " />
<glyph glyph-name="four" unicode="4" horiz-adv-x="641" d="M398 176 L373 27 C370 9 384 -4 400 -4 C419 -4 426 10 429 26 L455 176 L537 176 C559 176 572 191 572 206 C572 221 562 233 544 233 L464 233 L534 654 C539 682 523 704 498 704 C475 704 459 687 443 671 L45 255 C33 242 26 228 26 214 C26 193 43 176 73 176 Z M407 232 L95 232 L473 627 Z " />
<glyph glyph-name="five" unicode="5" horiz-adv-x="581" d="M512 281 C512 372 443 455 316 455 C264 455 207 439 155 413 L193 644 L499 644 C519 644 535 654 535 672 C535 688 522 699 506 699 L192 699 C168 699 144 692 138 653 L94 386 C88 350 120 334 149 350 C200 378 274 401 311 401 C413 401 455 344 455 276 C455 116 220 55 82 55 C69 55 58 56 47 56 C29 56 14 46 14 28 C14 6 37 0 55 0 C251 0 512 74 512 281 Z " />
<glyph glyph-name="six" unicode="6" horiz-adv-x="642" d="M300 -8 C456 -8 545 115 545 242 C545 367 458 441 324 441 C256 441 189 421 131 394 C170 568 289 653 445 653 C486 653 527 647 542 647 C563 647 573 659 573 672 C573 684 565 694 552 698 C533 704 477 707 446 707 C175 707 61 480 61 272 C61 68 176 -8 300 -8 Z M298 47 C202 47 117 109 117 258 C117 279 117 303 121 332 C176 359 242 387 319 387 C432 387 487 328 487 238 C487 136 417 47 298 47 Z " />
<glyph glyph-name="seven" unicode="7" horiz-adv-x="502" d="M96 -4 C109 -4 119 4 126 22 C195 200 310 356 522 631 C532 643 537 655 537 667 C537 689 519 699 496 699 L104 699 C84 699 71 686 71 669 C71 655 82 644 100 644 L460 644 C231 345 140 217 70 38 C61 16 72 -4 96 -4 Z " />
<glyph glyph-name="eight" unicode="8" horiz-adv-x="655" d="M354 392 C251 392 182 439 182 510 C182 613 281 654 368 654 C482 654 538 596 538 533 C538 453 472 392 354 392 Z M317 47 C203 47 120 88 120 180 C120 299 217 339 320 339 C437 339 506 291 506 205 C506 89 401 47 317 47 Z M312 -8 C456 -8 566 66 566 202 C566 291 516 337 454 363 C555 389 595 460 595 537 C595 624 520 707 367 707 C238 707 125 644 125 511 C125 451 161 400 220 375 C117 355 60 278 60 180 C60 62 162 -8 312 -8 Z " />
<glyph glyph-name="nine" unicode="9" horiz-adv-x="634" d="M497 306 C452 134 299 51 90 55 C71 55 56 45 56 28 C56 12 68 0 90 0 C403 0 569 159 569 462 C569 607 479 707 329 707 C194 707 85 606 85 470 C85 333 192 258 329 258 C393 258 454 279 497 306 Z M508 367 C459 337 405 311 329 311 C209 311 143 373 143 469 C143 576 231 652 333 652 C449 652 513 576 513 452 C513 419 513 409 508 367 Z " />
<glyph glyph-name="onesuperior" unicode="&#xb9;" horiz-adv-x="307" d="M144 243 C159 243 167 254 170 271 L237 667 C241 690 226 698 214 698 C205 698 194 693 187 689 L77 633 C66 628 61 618 61 609 C61 588 83 582 98 590 L178 629 L119 273 C116 258 126 243 144 243 Z " />
<glyph glyph-name="twosuperior" unicode="&#xb2;" horiz-adv-x="443" d="M91 297 C91 338 134 375 214 417 C291 457 372 505 372 589 C372 666 309 708 243 708 C180 708 135 677 105 639 C101 634 96 625 96 617 C96 604 108 596 119 596 C128 596 134 601 142 610 C163 633 193 663 243 663 C297 663 325 630 325 589 C325 516 228 477 171 445 C106 409 40 360 40 276 C40 257 52 246 72 246 L303 246 C325 246 336 260 336 273 C336 285 326 297 308 297 Z " />
<glyph glyph-name="threesuperior" unicode="&#xb3;" horiz-adv-x="416" d="M306 644 L171 533 C163 527 158 517 158 508 C158 495 168 483 184 483 C194 483 205 484 222 483 C283 479 308 448 308 410 C308 310 164 281 94 281 C84 281 73 281 65 281 C44 281 33 273 33 258 C33 250 39 239 56 237 C65 236 76 235 87 235 C213 235 355 285 355 413 C355 484 295 523 225 524 L345 622 C363 637 368 648 368 662 C368 679 354 694 330 694 L121 694 C101 694 91 681 91 668 C91 656 101 644 121 644 Z " />
<glyph glyph-name="fraction" unicode="&#x2044;" horiz-adv-x="283" d="M-61 -32 C-51 -32 -42 -26 -36 -16 L360 688 C364 695 366 703 366 708 C366 723 354 732 340 732 C330 732 320 727 314 716 L-83 10 C-86 5 -89 -1 -89 -7 C-89 -21 -75 -32 -61 -32 Z " />
<glyph glyph-name="onequarter" unicode="&#xbc;" horiz-adv-x="969" d="M792 0 C806 0 814 11 817 26 L830 107 L878 107 C899 107 909 120 909 133 C909 145 900 155 884 155 L838 155 L881 416 C886 438 875 457 849 457 C836 457 823 448 808 432 L553 174 C541 163 532 151 532 136 C532 120 542 106 565 106 L783 106 L770 27 C767 10 778 0 792 0 Z M791 155 L595 155 L832 397 Z M156 243 C171 243 180 254 183 271 L249 667 C253 690 239 698 226 698 C217 698 206 693 199 689 L90 633 C79 628 73 618 73 609 C73 588 95 582 111 590 L191 629 L131 273 C128 258 138 243 156 243 Z M224 -29 C233 -29 242 -23 248 -12 L644 692 C648 698 651 706 651 711 C651 727 639 736 625 736 C615 736 605 731 598 719 L201 14 C198 8 196 2 196 -4 C196 -18 210 -29 224 -29 Z " />
<glyph glyph-name="onehalf" unicode="&#xbd;" horiz-adv-x="984" d="M227 -32 C237 -32 246 -26 252 -16 L648 688 C652 695 654 703 654 708 C654 723 642 732 628 732 C618 732 608 727 602 716 L205 10 C202 5 199 -1 199 -7 C199 -21 213 -32 227 -32 Z M159 243 C174 243 182 254 185 271 L252 667 C256 690 241 698 229 698 C220 698 209 693 202 689 L92 633 C81 628 76 618 76 609 C76 588 98 582 113 590 L193 629 L134 273 C131 258 141 243 159 243 Z M633 51 C633 92 676 129 756 171 C833 211 914 259 914 343 C914 420 851 462 785 462 C722 462 677 431 647 393 C643 388 638 379 638 371 C638 358 650 350 661 350 C670 350 676 355 684 364 C705 387 735 417 785 417 C839 417 867 384 867 343 C867 270 770 231 713 199 C648 163 582 114 582 30 C582 11 594 0 614 0 L845 0 C867 0 878 14 878 27 C878 39 868 51 850 51 Z " />
<glyph glyph-name="threequarters" unicode="&#xbe;" horiz-adv-x="1024" d="M848 0 C863 0 870 11 873 26 L886 107 L935 107 C955 107 965 120 965 133 C965 145 957 155 940 155 L895 155 L938 416 C942 438 931 457 906 457 C892 457 880 448 864 432 L609 174 C597 163 588 151 588 136 C588 120 599 106 621 106 L840 106 L827 27 C824 10 834 0 848 0 Z M848 155 L651 155 L889 397 Z M308 -32 C318 -32 327 -26 333 -16 L729 688 C733 695 735 703 735 708 C735 723 723 732 709 732 C700 732 690 727 683 716 L286 10 C283 5 280 -1 280 -7 C280 -21 294 -32 308 -32 Z M312 644 L177 533 C169 527 164 517 164 508 C164 495 174 483 190 483 C200 483 211 484 228 483 C289 479 314 448 314 410 C314 310 170 281 100 281 C90 281 79 281 71 281 C50 281 39 273 39 258 C39 250 45 239 62 237 C71 236 82 235 93 235 C219 235 361 285 361 413 C361 484 301 523 231 524 L351 622 C369 637 374 648 374 662 C374 679 360 694 336 694 L127 694 C107 694 97 681 97 668 C97 656 107 644 127 644 Z " />
<glyph glyph-name="percent" unicode="&#x25;" horiz-adv-x="693" d="M101 92 C108 92 116 95 123 102 L607 570 C615 577 618 585 618 592 C618 605 606 615 592 615 C585 615 578 612 571 605 L88 139 C80 132 77 123 77 116 C77 103 88 92 101 92 Z M471 -5 C544 -5 602 40 624 134 C628 150 631 173 633 190 C640 270 582 329 499 329 C424 329 358 278 342 190 C339 174 336 155 334 138 C325 56 383 -5 471 -5 Z M468 42 C415 42 375 80 381 136 C383 153 386 171 390 188 C402 244 447 282 500 282 C552 282 590 244 584 188 C582 171 579 153 575 136 C563 80 523 42 468 42 Z M195 375 C268 375 326 420 348 514 C352 530 355 553 357 570 C364 650 306 709 223 709 C148 709 82 658 66 570 C63 554 60 535 58 518 C49 436 107 375 195 375 Z M192 422 C139 422 99 460 105 516 C107 533 110 551 114 568 C126 624 171 662 224 662 C276 662 314 624 308 568 C306 551 303 533 299 516 C287 460 247 422 192 422 Z " />
<glyph glyph-name="perthousand" unicode="&#x2030;" horiz-adv-x="1028" d="M195 375 C268 375 326 420 348 514 C352 530 355 553 357 570 C364 650 306 709 223 709 C148 709 82 658 66 570 C63 554 60 535 58 518 C49 436 107 375 195 375 Z M192 422 C139 422 99 460 105 516 C107 533 110 551 114 568 C126 624 171 662 224 662 C276 662 314 624 308 568 C306 551 303 533 299 516 C287 460 247 422 192 422 Z M102 92 C109 92 116 95 124 102 L608 570 C616 577 618 585 618 592 C618 605 607 615 593 615 C586 615 579 612 572 605 L89 139 C81 132 78 123 78 116 C78 103 88 92 102 92 Z M472 -5 C545 -5 603 40 625 134 C629 150 632 173 634 190 C641 270 583 329 500 329 C425 329 359 278 343 190 C340 174 337 155 335 138 C326 56 384 -5 472 -5 Z M469 42 C416 42 376 80 382 136 C384 153 387 171 391 188 C403 244 448 282 501 282 C553 282 591 244 585 188 C583 171 580 153 576 136 C564 80 524 42 469 42 Z M806 -5 C879 -5 937 40 959 134 C963 150 966 173 968 190 C975 270 917 329 834 329 C759 329 693 278 677 190 C674 174 671 155 669 138 C660 56 718 -5 806 -5 Z M803 42 C750 42 710 80 716 136 C718 153 721 171 725 188 C737 244 782 282 835 282 C887 282 925 244 919 188 C917 171 914 153 910 136 C898 80 858 42 803 42 Z " />
<glyph glyph-name="plus" unicode="&#x2b;" horiz-adv-x="625" d="M312 95 C329 95 340 108 340 125 L340 323 L534 323 C550 323 565 334 565 350 C565 367 551 378 534 378 L340 378 L340 575 C340 592 329 605 312 605 C296 605 284 592 284 575 L284 378 L87 378 C70 378 57 367 57 350 C57 334 70 323 87 323 L284 323 L284 125 C284 107 295 95 312 95 Z " />
<glyph glyph-name="minus" unicode="&#x2212;" horiz-adv-x="625" d="M536 323 C551 323 566 334 566 350 C566 367 553 378 536 378 L88 378 C71 378 58 367 58 350 C58 334 71 323 88 323 Z " />
<glyph glyph-name="plusminus" unicode="&#xb1;" horiz-adv-x="625" d="M313 106 C330 106 341 119 341 136 L341 334 L536 334 C551 334 566 346 566 361 C566 378 553 390 536 390 L341 390 L341 586 C341 603 330 616 313 616 C297 616 286 603 286 586 L286 390 L88 390 C71 390 58 378 58 361 C58 346 71 334 88 334 L286 334 L286 136 C286 119 297 106 313 106 Z M536 0 C551 0 566 11 566 27 C566 44 553 55 536 55 L88 55 C71 55 58 44 58 27 C58 11 71 0 88 0 Z " />
<glyph glyph-name="multiply" unicode="&#xd7;" horiz-adv-x="625" d="M313 312 L491 137 C504 124 520 123 532 135 C544 147 542 164 531 176 L352 351 L529 527 C540 538 542 557 532 568 C520 581 502 578 490 566 L313 391 L133 570 C120 581 104 583 91 571 C80 560 81 542 94 530 L274 351 L95 173 C82 161 80 143 93 131 C105 121 121 122 134 134 Z " />
<glyph glyph-name="divide" unicode="&#xf7;" horiz-adv-x="625" d="M283 541 C275 525 283 505 299 498 C315 490 335 498 342 514 C349 530 342 549 326 556 C310 564 290 557 283 541 Z M283 187 C275 171 283 152 299 144 C315 137 335 144 342 160 C349 176 342 196 326 203 C310 211 290 203 283 187 Z M536 323 C551 323 566 334 566 350 C566 367 553 378 536 378 L88 378 C71 378 58 367 58 350 C58 334 71 323 88 323 Z " />
<glyph glyph-name="equal" unicode="&#x3d;" horiz-adv-x="625" d="M529 409 C544 409 559 420 559 436 C559 453 546 464 529 464 L95 464 C78 464 65 453 65 436 C65 420 78 409 95 409 Z M529 236 C544 236 559 247 559 263 C559 280 546 291 529 291 L95 291 C78 291 65 280 65 263 C65 247 78 236 95 236 Z " />
<glyph glyph-name="less" unicode="&#x3c;" horiz-adv-x="625" d="M453 653 C447 653 440 650 434 646 L142 407 C125 392 110 374 110 350 C110 326 125 308 142 293 L435 54 C440 50 448 47 454 47 C468 47 481 60 481 75 C481 83 477 92 469 97 L188 328 C175 337 171 342 171 350 C171 358 175 363 188 372 L469 603 C476 608 480 617 480 625 C480 641 466 653 453 653 Z " />
<glyph glyph-name="greater" unicode="&#x3e;" horiz-adv-x="625" d="M177 47 C183 47 190 50 196 54 L487 293 C505 308 520 326 520 350 C520 374 505 392 487 407 L195 646 C189 650 182 653 176 653 C162 653 149 640 149 625 C149 617 153 608 160 603 L442 372 C455 363 459 358 459 350 C459 342 455 337 442 328 L161 97 C154 92 150 83 150 75 C150 59 163 47 177 47 Z " />
<glyph glyph-name="lessequal" unicode="&#x2264;" horiz-adv-x="625" d="M192 323 C184 328 178 331 178 338 C178 345 184 348 192 353 L495 533 C507 541 512 558 504 572 C496 584 480 588 467 581 L149 388 C123 373 115 355 115 338 C115 320 124 302 149 287 L467 95 C479 87 496 91 504 104 C512 117 507 135 495 143 Z M479 -8 C495 -8 510 4 510 20 C510 37 496 48 479 48 L145 48 C128 48 115 37 115 20 C115 4 128 -8 145 -8 Z " />
<glyph glyph-name="greaterequal" unicode="&#x2265;" horiz-adv-x="625" d="M131 143 C118 135 114 117 122 104 C129 91 146 87 159 95 L477 287 C502 302 510 320 510 338 C510 355 503 373 477 388 L159 581 C146 588 129 584 122 572 C114 558 118 541 131 533 L434 353 C442 348 447 345 447 338 C447 331 442 328 434 323 Z M481 -8 C498 -8 510 4 510 20 C510 37 498 48 481 48 L147 48 C130 48 116 37 116 20 C116 4 131 -8 147 -8 Z " />
<glyph glyph-name="logicalnot" unicode="&#xac;" horiz-adv-x="625" d="M510 324 L510 126 C510 109 522 96 538 96 C555 96 565 108 565 126 L565 339 C565 361 550 380 524 380 L87 380 C70 380 57 368 57 352 C57 336 70 324 87 324 Z " />
<glyph glyph-name="degree" unicode="&#xb0;" horiz-adv-x="343" d="M179 466 C260 466 304 534 304 596 C304 654 265 703 195 703 C113 703 70 636 70 575 C70 515 112 466 179 466 Z M181 509 C135 509 114 542 114 575 C114 615 143 658 194 658 C240 658 261 626 261 593 C261 553 232 509 181 509 Z " />
<glyph glyph-name="&amp;#xb5;" unicode="&#xb5;" horiz-adv-x="604" d="M56 -194 C74 -194 82 -182 85 -164 L126 79 C156 17 210 -9 287 -9 C367 -9 438 27 470 49 C482 57 488 66 489 77 L558 488 C561 508 548 520 532 520 C518 520 505 511 502 488 L436 92 C397 66 340 48 287 48 C200 48 130 93 151 223 L194 486 C198 508 186 520 169 520 C151 520 141 508 138 487 L31 -162 C27 -180 39 -194 56 -194 Z " />
<glyph glyph-name="&amp;#x3bc;" unicode="&#x3bc;" horiz-adv-x="604" d="M56 -194 C74 -194 82 -182 85 -164 L126 79 C156 17 210 -9 287 -9 C367 -9 438 27 470 49 C482 57 488 66 489 77 L558 488 C561 508 548 520 532 520 C518 520 505 511 502 488 L436 92 C397 66 340 48 287 48 C200 48 130 93 151 223 L194 486 C198 508 186 520 169 520 C151 520 141 508 138 487 L31 -162 C27 -180 39 -194 56 -194 Z " />
<glyph glyph-name="fi" unicode="&#xfb01;" horiz-adv-x="635" d="M146 504 L99 504 C84 504 71 494 71 478 C71 464 80 451 99 451 L137 451 L67 31 C64 10 76 -4 94 -4 C109 -4 121 6 124 23 L195 451 L347 451 C363 451 376 462 376 477 C376 492 366 504 347 504 L203 504 L211 551 C222 618 251 659 322 659 C365 659 381 644 402 644 C417 644 428 656 428 670 C428 683 420 693 407 699 C392 706 357 714 327 714 C225 714 170 657 154 555 Z M607 669 C607 689 594 706 571 706 C543 706 528 684 528 662 C528 642 542 624 566 624 C592 624 607 647 607 669 Z M431 31 C427 10 440 -4 459 -4 C474 -4 484 6 487 23 L565 485 C568 506 556 520 537 520 C522 520 512 509 509 493 Z " />
<glyph glyph-name="fl" unicode="&#xfb02;" horiz-adv-x="629" d="M146 504 L99 504 C84 504 71 494 71 478 C71 464 80 451 99 451 L137 451 L67 31 C64 10 76 -4 94 -4 C109 -4 121 6 124 23 L195 451 L347 451 C363 451 376 462 376 477 C376 492 366 504 347 504 L203 504 L211 551 C222 618 251 659 322 659 C365 659 381 644 402 644 C417 644 428 656 428 670 C428 683 420 693 407 699 C392 706 357 714 327 714 C225 714 170 657 154 555 Z M436 31 C433 10 445 -4 464 -4 C479 -4 489 6 492 23 L600 672 C604 693 592 707 573 707 C558 707 547 697 544 680 Z " />
<glyph glyph-name="ampersand" unicode="&#x26;" horiz-adv-x="666" d="M258 -8 C344 -8 423 23 488 94 L587 3 C600 -9 620 -7 630 5 C641 18 637 36 624 47 L523 138 C542 166 560 199 576 237 C587 264 569 278 553 278 C538 278 531 267 517 238 C507 217 495 195 482 175 L309 332 C456 380 524 448 524 539 C524 632 441 702 322 702 C195 702 112 618 112 526 C112 453 164 400 208 355 C127 329 33 277 33 170 C33 58 137 -8 258 -8 Z M256 47 C160 47 90 93 90 170 C90 260 183 296 250 315 L447 132 C402 83 340 47 256 47 Z M264 373 C208 424 170 473 170 520 C170 591 232 648 326 648 C415 648 466 594 466 535 C466 441 360 402 264 373 Z " />
<glyph glyph-name="ampersand.alt" horiz-adv-x="666" d="M249 -8 C379 -8 510 71 540 236 L627 236 C648 236 659 252 659 267 C659 281 650 293 629 293 L544 293 C508 293 493 280 485 236 C466 134 376 47 248 47 C161 47 81 86 81 173 C81 281 201 306 286 324 C432 355 541 409 541 535 C541 637 454 702 335 702 C213 702 112 624 112 509 C112 438 152 387 195 355 C92 328 23 266 23 173 C23 59 123 -8 249 -8 Z M256 369 C215 394 169 439 169 502 C169 593 247 648 338 648 C432 648 483 599 483 532 C483 415 345 388 256 369 Z " />
<glyph glyph-name="Q.alt" horiz-adv-x="689" d="M280 -164 C291 -164 303 -156 306 -138 L328 -9 C480 -7 590 90 624 259 C634 307 642 368 647 417 C665 580 549 709 382 709 C212 709 107 591 76 426 C66 375 62 339 56 290 C36 111 155 15 275 -5 L254 -129 C251 -150 263 -164 280 -164 Z M359 178 C363 198 351 212 335 212 C322 212 310 203 307 185 L284 50 C196 64 98 135 112 282 C118 340 123 373 135 427 C164 557 247 652 379 652 C515 652 601 555 589 422 C584 366 576 310 562 252 C533 132 453 52 336 47 Z " />
<glyph glyph-name="r.alt" horiz-adv-x="353" d="M172 433 C202 456 247 470 288 470 C320 470 342 462 357 462 C377 462 387 476 387 490 C387 502 380 511 368 516 C347 523 313 527 286 527 C231 527 177 509 138 481 C127 472 120 465 117 448 L48 32 C45 14 58 0 74 0 C93 0 101 14 104 30 Z " />
<glyph glyph-name="zero.onum" horiz-adv-x="611" d="M319 527 C206 527 104 466 71 323 C66 304 59 262 57 231 C45 70 174 -10 293 -10 C418 -10 508 60 538 185 C545 217 551 253 553 285 C564 437 455 527 319 527 Z M320 472 C427 472 511 400 496 276 C493 246 489 223 484 201 C458 85 376 45 292 45 C196 45 99 107 112 232 C115 261 118 286 124 308 C151 419 222 472 320 472 Z " />
<glyph glyph-name="one.onum" horiz-adv-x="419" d="M211 -4 C229 -4 238 8 241 26 L318 488 C322 514 308 527 289 527 C283 527 273 525 262 520 L76 438 C60 431 52 420 52 409 C52 386 75 380 94 387 L257 459 L185 27 C182 8 196 -4 211 -4 Z " />
<glyph glyph-name="two.onum" horiz-adv-x="572" d="M93 55 C98 137 150 160 304 206 C406 236 510 280 510 382 C510 471 428 527 325 527 C258 527 177 498 112 443 C101 434 95 425 95 415 C95 403 104 389 122 389 C133 389 140 395 147 401 C208 450 269 475 327 475 C411 475 453 436 453 379 C453 300 338 269 273 248 C147 208 36 176 36 38 C36 15 51 0 76 0 L442 0 C464 0 479 12 479 28 C479 44 469 55 448 55 Z " />
<glyph glyph-name="three.onum" horiz-adv-x="548" d="M400 452 L191 251 C181 242 177 232 177 222 C177 208 187 197 208 197 C216 197 237 197 252 196 C366 186 405 134 405 70 C405 -94 172 -138 59 -138 C45 -138 40 -138 25 -137 C4 -136 -6 -152 -6 -162 C-6 -181 10 -193 39 -192 C323 -185 460 -69 460 69 C460 171 377 241 258 244 L460 435 C474 449 482 462 482 477 C482 495 469 510 438 510 L106 510 C88 510 73 498 73 480 C73 466 85 455 105 455 L399 455 Z " />
<glyph glyph-name="four.onum" horiz-adv-x="640" d="M398 0 L371 -163 C368 -181 382 -194 399 -194 C417 -194 425 -180 428 -164 L454 0 L536 0 C558 0 572 15 572 31 C572 45 560 55 543 55 L463 55 L532 470 C537 497 523 520 496 520 C473 520 457 502 441 486 L45 79 C33 66 25 52 25 38 C25 17 42 0 73 0 Z M406 55 L93 55 L471 442 Z " />
<glyph glyph-name="five.onum" horiz-adv-x="591" d="M516 89 C516 180 447 263 320 263 C268 263 211 247 159 221 L198 455 L504 455 C524 455 540 465 540 483 C540 499 527 510 511 510 L197 510 C173 510 149 503 143 464 L98 194 C92 158 124 142 153 158 C204 186 278 209 315 209 C417 209 459 152 459 84 C459 -76 224 -137 86 -137 C73 -137 62 -136 51 -136 C33 -136 18 -146 18 -164 C18 -186 41 -192 59 -192 C255 -192 516 -118 516 89 Z " />
<glyph glyph-name="six.onum" horiz-adv-x="658" d="M300 -8 C456 -8 545 115 545 242 C545 367 458 441 324 441 C256 441 189 421 131 394 C170 568 289 653 445 653 C486 653 527 647 542 647 C563 647 573 659 573 672 C573 684 565 694 552 698 C533 704 477 707 446 707 C175 707 61 480 61 272 C61 68 176 -8 300 -8 Z M298 47 C202 47 117 109 117 258 C117 279 117 303 121 332 C176 359 242 387 319 387 C432 387 487 328 487 238 C487 136 417 47 298 47 Z " />
<glyph glyph-name="seven.onum" horiz-adv-x="496" d="M74 -194 C86 -194 96 -186 104 -168 C173 11 287 166 499 441 C508 453 514 465 514 477 C514 499 496 510 473 510 L81 510 C61 510 48 496 48 479 C48 465 58 452 76 452 L436 452 C207 154 118 28 48 -152 C38 -174 50 -194 74 -194 Z " />
<glyph glyph-name="eight.onum" horiz-adv-x="673" d="M355 392 C252 392 183 439 183 510 C183 613 282 654 369 654 C483 654 539 596 539 533 C539 453 473 392 355 392 Z M318 47 C204 47 121 88 121 180 C121 299 218 339 321 339 C438 339 507 291 507 205 C507 89 402 47 318 47 Z M313 -8 C457 -8 567 66 567 202 C567 291 517 337 455 363 C556 389 596 460 596 537 C596 624 521 707 368 707 C239 707 126 644 126 511 C126 451 162 400 221 375 C118 355 61 278 61 180 C61 62 163 -8 313 -8 Z " />
<glyph glyph-name="nine.onum" horiz-adv-x="650" d="M497 126 C452 -46 299 -137 90 -133 C71 -133 56 -143 56 -160 C56 -176 68 -188 90 -188 C397 -188 569 -21 569 282 C569 427 479 527 329 527 C194 527 85 426 85 290 C85 153 192 76 329 76 C393 76 454 99 497 126 Z M508 187 C459 157 405 129 329 129 C209 129 143 193 143 289 C143 396 231 472 333 472 C449 472 513 396 513 272 C513 239 513 229 508 187 Z " />
<glyph glyph-name="sterling.alt" horiz-adv-x="569" d="M390 299 C411 303 423 314 423 329 C423 342 414 355 391 355 L216 355 C231 392 244 431 261 473 C314 610 365 652 445 652 C474 652 496 646 515 636 C521 633 527 631 533 631 C549 631 561 643 561 659 C561 667 556 676 547 683 C521 699 491 709 452 709 C335 709 266 648 203 478 C187 435 172 390 158 355 L78 355 C57 355 46 340 46 325 C46 311 55 299 74 299 L134 299 C109 240 87 196 71 167 C43 117 28 93 22 81 C-1 40 13 0 62 0 L433 0 C455 0 467 15 467 31 C467 44 456 57 436 57 L85 57 C78 57 76 60 76 64 C76 68 79 74 83 81 C112 124 153 200 195 299 Z " />
<glyph glyph-name="commaaccent" horiz-adv-x="320" d="M123 -229 C135 -229 144 -221 150 -214 C176 -187 188 -165 198 -113 L208 -62 C212 -42 200 -30 185 -30 C173 -30 161 -38 158 -54 L148 -109 C143 -141 135 -161 111 -187 C104 -194 100 -200 100 -208 C100 -219 109 -229 123 -229 Z " />
<glyph glyph-name="caronSlovak" horiz-adv-x="320" d="M130 544 C142 544 151 551 163 563 C183 586 194 606 202 649 L211 693 C214 710 203 722 189 722 C176 722 164 714 162 698 L153 654 C147 622 143 613 119 587 C112 580 108 574 108 565 C108 554 116 544 130 544 Z " />
<glyph glyph-name="g.alt" horiz-adv-x="575" d="M247 -190 C359 -190 449 -130 449 -29 C449 44 386 92 287 92 L200 92 C157 92 141 105 141 126 C141 161 180 168 232 168 L271 168 C409 168 485 256 485 355 C485 391 475 429 453 454 L535 454 C558 454 568 468 568 481 C568 494 558 506 537 506 L393 506 C363 520 332 527 293 527 C177 527 86 449 86 336 C86 284 112 233 162 198 C126 192 87 169 87 119 C87 74 130 37 211 37 L276 37 C362 37 391 7 391 -34 C391 -97 322 -135 249 -135 C166 -135 103 -110 54 -49 C47 -40 41 -29 25 -29 C11 -29 -1 -40 -1 -56 C-1 -65 3 -75 11 -86 C51 -137 131 -190 247 -190 Z M276 215 C192 215 142 262 142 336 C142 419 213 476 296 476 C379 476 430 429 430 356 C430 272 363 215 276 215 Z " />
<glyph glyph-name="gbreve.alt" horiz-adv-x="575" d="M247 -190 C359 -190 449 -130 449 -29 C449 44 386 92 287 92 L200 92 C157 92 141 105 141 126 C141 161 180 168 232 168 L271 168 C409 168 485 256 485 355 C485 391 475 429 453 454 L535 454 C558 454 568 468 568 481 C568 494 558 506 537 506 L393 506 C363 520 332 527 293 527 C177 527 86 449 86 336 C86 284 112 233 162 198 C126 192 87 169 87 119 C87 74 130 37 211 37 L276 37 C362 37 391 7 391 -34 C391 -97 322 -135 249 -135 C166 -135 103 -110 54 -49 C47 -40 41 -29 25 -29 C11 -29 -1 -40 -1 -56 C-1 -65 3 -75 11 -86 C51 -137 131 -190 247 -190 Z M276 215 C192 215 142 262 142 336 C142 419 213 476 296 476 C379 476 430 429 430 356 C430 272 363 215 276 215 Z M335 585 C393 585 431 623 447 661 C450 669 452 678 452 684 C452 699 442 706 430 706 C415 706 408 694 405 685 C393 656 374 632 336 632 C295 632 283 660 278 681 C276 694 272 706 256 706 C244 706 232 698 232 680 C232 670 234 661 236 656 C251 607 292 585 335 585 Z " />
<glyph glyph-name="gdotaccent.alt" horiz-adv-x="575" d="M247 -190 C359 -190 449 -130 449 -29 C449 44 386 92 287 92 L200 92 C157 92 141 105 141 126 C141 161 180 168 232 168 L271 168 C409 168 485 256 485 355 C485 391 475 429 453 454 L535 454 C558 454 568 468 568 481 C568 494 558 506 537 506 L393 506 C363 520 332 527 293 527 C177 527 86 449 86 336 C86 284 112 233 162 198 C126 192 87 169 87 119 C87 74 130 37 211 37 L276 37 C362 37 391 7 391 -34 C391 -97 322 -135 249 -135 C166 -135 103 -110 54 -49 C47 -40 41 -29 25 -29 C11 -29 -1 -40 -1 -56 C-1 -65 3 -75 11 -86 C51 -137 131 -190 247 -190 Z M276 215 C192 215 142 262 142 336 C142 419 213 476 296 476 C379 476 430 429 430 356 C430 272 363 215 276 215 Z M346 675 C323 675 306 656 306 636 C306 615 321 602 341 602 C363 602 381 619 381 641 C381 661 367 675 346 675 Z " />
<glyph glyph-name="gcommaaccent.alt" horiz-adv-x="575" d="M247 -190 C359 -190 449 -130 449 -29 C449 44 386 92 287 92 L200 92 C157 92 141 105 141 126 C141 161 180 168 232 168 L271 168 C409 168 485 256 485 355 C485 391 475 429 453 454 L535 454 C558 454 568 468 568 481 C568 494 558 506 537 506 L393 506 C363 520 332 527 293 527 C177 527 86 449 86 336 C86 284 112 233 162 198 C126 192 87 169 87 119 C87 74 130 37 211 37 L276 37 C362 37 391 7 391 -34 C391 -97 322 -135 249 -135 C166 -135 103 -110 54 -49 C47 -40 41 -29 25 -29 C11 -29 -1 -40 -1 -56 C-1 -65 3 -75 11 -86 C51 -137 131 -190 247 -190 Z M276 215 C192 215 142 262 142 336 C142 419 213 476 296 476 C379 476 430 429 430 356 C430 272 363 215 276 215 Z M311 557 C323 557 332 565 338 572 C364 599 376 621 386 673 L396 724 C400 744 388 756 373 756 C361 756 349 748 346 732 L336 677 C331 645 323 625 299 599 C292 592 288 586 288 578 C288 567 297 557 311 557 Z " />
<glyph glyph-name="racute.alt" horiz-adv-x="353" d="M172 433 C202 456 247 470 288 470 C320 470 342 462 357 462 C377 462 387 476 387 490 C387 502 380 511 368 516 C347 523 313 527 286 527 C231 527 177 509 138 481 C127 472 120 465 117 448 L48 32 C45 14 58 0 74 0 C93 0 101 14 104 30 Z M205 630 C193 625 189 615 189 607 C189 593 199 583 212 583 C217 583 222 584 227 586 L371 654 C387 662 392 672 392 681 C392 693 384 704 368 704 C363 704 358 703 352 700 Z " />
<glyph glyph-name="rcaron.alt" horiz-adv-x="353" d="M172 433 C202 456 247 470 288 470 C320 470 342 462 357 462 C377 462 387 476 387 490 C387 502 380 511 368 516 C347 523 313 527 286 527 C231 527 177 509 138 481 C127 472 120 465 117 448 L48 32 C45 14 58 0 74 0 C93 0 101 14 104 30 Z M271 582 C281 582 290 587 299 593 L392 654 C401 661 406 669 406 678 C406 690 396 702 382 702 C377 702 371 700 366 696 L274 634 L204 694 C198 699 192 702 186 702 C172 702 161 690 161 677 C161 670 164 663 170 658 L246 593 C253 587 261 582 271 582 Z " />
<glyph glyph-name="rcommaaccent.alt" horiz-adv-x="353" d="M172 433 C202 456 247 470 288 470 C320 470 342 462 357 462 C377 462 387 476 387 490 C387 502 380 511 368 516 C347 523 313 527 286 527 C231 527 177 509 138 481 C127 472 120 465 117 448 L48 32 C45 14 58 0 74 0 C93 0 101 14 104 30 Z M-2 -252 C11 -252 21 -243 28 -235 C54 -207 66 -187 76 -132 L86 -77 C90 -57 76 -45 62 -45 C49 -45 36 -54 33 -71 L23 -129 C17 -161 10 -181 -15 -207 C-22 -215 -26 -221 -26 -229 C-26 -241 -16 -252 -2 -252 Z " />
<glyph glyph-name="hyphen" unicode="&#x2d;" horiz-adv-x="322" d="M47 287 C47 272 57 258 77 258 L244 258 C261 258 275 270 275 287 C275 302 265 315 245 315 L78 315 C61 315 47 304 47 287 Z " />
<glyph glyph-name="space" unicode="&#x20;" horiz-adv-x="259" />
</font>
</svg>
