<?xml version="1.0" encoding="UTF-8"?>
<svg xmlns="http://www.w3.org/2000/svg" xmlns:xlink="http://www.w3.org/1999/xlink" version="1.2" >
<font id="Rubrik ExtraLight Italic">
<font-face  font-family="Rubrik" units-per-em="1000" ascent="750" descent="-250" font-style="italic" font-weight="100" font-stretch="normal" cap-height="702" x-height="518" underline-position="-100" underline-thickness="50" />
<missing-glyph  horiz-adv-x="301" />
<glyph glyph-name="uni00A0" unicode="&#xa0;" horiz-adv-x="262" />
<glyph glyph-name="A" unicode="A" horiz-adv-x="646" d="M537 17 C539 5 547 0 557 0 C569 0 578 10 575 26 L452 645 C444 684 420 707 384 707 C352 707 331 695 304 645 L-23 29 C-32 12 -21 0 -8 0 C-1 0 7 4 12 13 L144 263 L489 263 Z M346 642 C357 663 366 670 383 670 C400 670 410 659 413 642 L482 298 L164 298 Z " />
<glyph glyph-name="B" unicode="B" horiz-adv-x="658" d="M96 0 L320 0 C472 0 577 75 577 209 C577 294 534 338 482 363 L482 365 C558 398 606 458 606 539 C606 643 528 697 387 697 L213 697 C188 697 173 685 169 660 L66 37 C62 16 71 0 96 0 Z M154 348 L396 348 C480 348 539 292 539 205 C539 91 437 38 322 38 L103 38 Z M160 383 L206 659 L388 659 C505 659 566 615 566 536 C566 439 478 383 391 383 Z " />
<glyph glyph-name="C" unicode="C" horiz-adv-x="637" d="M311 29 C167 29 81 127 95 271 C99 310 112 397 125 445 C164 589 258 669 381 669 C470 669 548 628 581 528 C584 518 588 510 600 510 C611 510 617 518 617 528 C617 532 616 539 614 546 C588 635 502 706 384 706 C225 706 125 601 86 445 C73 393 62 316 58 282 C36 112 143 -8 312 -8 C456 -8 526 87 555 149 C558 156 562 164 562 171 C562 181 554 188 545 188 C533 188 528 178 524 169 C484 84 412 29 311 29 Z " />
<glyph glyph-name="D" unicode="D" horiz-adv-x="679" d="M95 0 L283 0 C463 0 582 71 628 281 C636 316 642 366 646 401 C665 573 570 697 356 697 L212 697 C189 697 173 681 169 660 L66 37 C62 14 73 0 95 0 Z M104 38 L206 659 L358 659 C535 659 629 559 607 395 C606 385 599 326 591 290 C551 106 449 38 282 38 Z " />
<glyph glyph-name="E" unicode="E" horiz-adv-x="607" d="M214 697 C186 697 174 686 170 660 L67 37 C63 15 69 0 97 0 L470 0 C481 0 490 7 490 18 C490 28 483 38 470 38 L105 38 L153 333 L510 333 C521 333 530 340 530 351 C530 361 523 370 510 370 L159 370 L207 659 L576 659 C587 659 596 667 596 678 C596 688 589 697 576 697 Z " />
<glyph glyph-name="F" unicode="F" horiz-adv-x="580" d="M66 16 C64 4 74 -4 84 -4 C97 -4 101 5 103 16 L155 323 L506 323 C517 323 526 330 526 341 C526 351 519 360 506 360 L161 360 L211 659 L584 659 C595 659 604 667 604 678 C604 688 597 697 584 697 L217 697 C191 697 178 686 174 661 Z " />
<glyph glyph-name="G" unicode="G" horiz-adv-x="676" d="M378 355 C367 354 357 348 357 336 C357 326 366 317 378 317 L560 317 L544 228 C521 107 440 29 311 29 C164 29 80 145 95 279 C101 330 110 388 123 439 C162 592 254 669 380 669 C475 669 558 620 580 531 C582 523 587 515 598 515 C607 515 616 520 616 534 C616 538 614 546 612 553 C580 652 487 706 378 706 C232 706 122 608 84 445 C71 391 61 328 56 276 C41 118 149 -8 314 -8 C469 -8 559 95 582 230 C586 253 590 274 597 316 C601 339 594 355 564 355 Z " />
<glyph glyph-name="H" unicode="H" horiz-adv-x="751" d="M552 15 C549 5 559 -4 570 -4 C582 -4 587 4 589 15 L700 679 C702 693 694 702 682 702 C671 702 664 694 662 684 L611 369 L162 369 L214 679 C216 693 208 702 196 702 C185 702 179 694 177 684 L66 16 C64 4 74 -4 84 -4 C97 -4 101 5 103 16 L156 332 L604 332 Z " />
<glyph glyph-name="I" unicode="I" horiz-adv-x="265" d="M214 679 C216 693 208 702 196 702 C185 702 179 694 177 684 L66 19 C64 5 72 -4 84 -4 C95 -4 101 4 103 14 Z " />
<glyph glyph-name="J" unicode="J" horiz-adv-x="451" d="M401 683 C403 694 394 702 383 702 C371 702 365 694 363 683 L280 182 C264 86 222 30 141 30 C74 30 42 69 22 106 C19 112 15 118 4 118 C-5 118 -13 111 -13 99 C-13 95 -12 91 -8 82 C12 41 64 -8 144 -8 C236 -8 296 51 317 178 Z " />
<glyph glyph-name="K" unicode="K" horiz-adv-x="611" d="M156 336 L194 336 C218 336 229 335 248 311 L500 4 C504 -1 510 -4 516 -4 C529 -4 535 5 535 14 C535 19 533 24 530 29 L261 355 L597 666 C604 672 607 678 607 685 C607 695 599 702 589 702 C584 702 578 700 573 695 L254 398 C228 374 217 373 196 373 L162 373 L214 683 C216 694 208 702 197 702 C185 702 179 694 177 683 L66 15 C64 5 73 -4 83 -4 C96 -4 101 4 103 15 Z " />
<glyph glyph-name="L" unicode="L" horiz-adv-x="533" d="M104 38 L211 679 C213 693 205 702 193 702 C182 702 176 694 174 683 L66 37 C62 14 73 0 97 0 L468 0 C479 0 488 7 488 18 C488 28 481 38 468 38 Z " />
<glyph glyph-name="M" unicode="M" horiz-adv-x="873" d="M738 16 C738 3 747 -5 757 -5 C768 -5 776 2 776 16 L783 660 C783 694 759 711 732 711 C701 711 686 689 675 666 L410 49 C407 42 403 37 395 37 C387 37 384 42 383 49 L320 665 C317 692 298 711 267 711 C240 711 221 692 211 661 L7 19 C3 5 12 -5 24 -5 C33 -5 41 1 44 10 L249 656 C252 666 258 673 267 673 C275 673 281 668 282 657 L345 45 C348 20 365 -1 393 -1 C423 -1 439 19 451 45 L713 657 C718 668 723 673 731 673 C738 673 745 668 745 656 Z " />
<glyph glyph-name="N" unicode="N" horiz-adv-x="762" d="M565 38 L247 680 C243 689 233 703 212 703 C190 703 178 690 174 665 L66 16 C66 15 66 14 66 13 C66 3 75 -4 84 -4 C97 -4 101 5 103 16 L177 463 C189 535 202 606 211 661 L213 661 L529 21 C533 12 544 -2 565 -2 C588 -2 599 14 603 36 L711 678 C711 679 711 681 711 682 C711 695 704 702 693 702 C682 702 676 694 674 684 L595 211 C589 175 579 116 566 38 Z " />
<glyph glyph-name="O" unicode="O" horiz-adv-x="670" d="M313 -8 C460 -8 573 84 608 254 C619 306 627 367 633 420 C651 580 546 706 378 706 C208 706 104 588 73 423 C63 369 59 339 53 287 C29 88 185 -8 313 -8 Z M310 30 C209 30 73 100 90 279 C96 338 101 370 113 428 C141 562 229 668 374 668 C519 668 609 565 596 425 C591 367 582 306 568 247 C536 113 444 30 310 30 Z " />
<glyph glyph-name="P" unicode="P" horiz-adv-x="623" d="M149 287 L359 287 C521 287 613 376 613 516 C613 628 526 697 402 697 L215 697 C191 697 178 685 174 660 L66 16 C64 4 74 -4 84 -4 C97 -4 101 5 103 16 Z M155 324 L211 659 L398 659 C508 659 574 598 574 514 C574 394 492 324 363 324 Z " />
<glyph glyph-name="Q" unicode="Q" horiz-adv-x="680" d="M319 -8 C361 -8 408 1 448 20 L527 -102 C531 -108 537 -112 544 -112 C555 -112 562 -103 562 -94 C562 -88 560 -84 558 -81 L481 40 C546 83 592 155 613 254 C624 306 632 367 638 420 C656 580 551 706 383 706 C213 706 109 588 78 423 C68 369 64 339 58 287 C35 88 187 -8 319 -8 Z M315 30 C214 30 78 100 95 279 C101 338 106 370 118 428 C146 562 234 668 379 668 C524 668 614 565 601 425 C596 367 587 306 573 247 C554 169 516 109 461 71 L361 226 C356 234 350 239 343 239 C332 239 325 229 325 220 C325 214 327 210 330 205 L427 52 C394 38 359 30 315 30 Z " />
<glyph glyph-name="R" unicode="R" horiz-adv-x="671" d="M308 299 C336 299 343 289 357 267 L519 9 C525 0 531 -3 538 -3 C549 -3 556 5 556 14 C556 19 555 23 552 28 L382 302 C519 310 614 381 614 516 C614 631 522 697 397 697 L216 697 C190 697 177 686 173 660 L66 17 C64 4 74 -4 84 -4 C97 -4 101 5 103 16 L150 299 Z M157 336 L211 659 L391 659 C497 659 576 612 576 512 C576 403 494 336 355 336 Z " />
<glyph glyph-name="S" unicode="S" horiz-adv-x="613" d="M322 374 C244 402 154 431 154 523 C154 598 222 668 341 668 C430 668 491 637 529 611 C533 608 541 603 549 603 C562 603 568 613 568 621 C568 628 565 634 557 640 C520 669 435 706 346 706 C219 706 117 636 117 521 C117 409 223 370 313 338 C410 303 487 272 487 184 C487 86 390 30 281 30 C187 30 100 72 67 95 C53 106 47 114 37 114 C26 114 20 104 20 97 C20 88 24 83 29 78 C65 42 176 -8 285 -8 C423 -8 524 71 524 185 C524 300 421 339 322 374 Z " />
<glyph glyph-name="T" unicode="T" horiz-adv-x="539" d="M295 659 L187 16 C185 4 195 -4 205 -4 C218 -4 223 5 225 16 L332 659 L564 659 C575 659 584 667 584 678 C584 688 577 697 564 697 L67 697 C56 697 47 690 47 679 C47 669 54 659 67 659 Z " />
<glyph glyph-name="U" unicode="U" horiz-adv-x="702" d="M681 679 C683 693 675 702 663 702 C652 702 645 694 643 684 L574 264 C547 101 447 30 332 30 C230 30 83 85 118 292 L183 679 C185 693 177 702 165 702 C154 702 148 694 146 684 L81 298 C42 69 206 -8 328 -8 C480 -8 582 81 612 264 Z " />
<glyph glyph-name="V" unicode="V" horiz-adv-x="631" d="M269 41 C266 35 261 30 256 30 C248 30 243 35 242 41 L108 685 C105 698 95 702 87 702 C76 702 65 693 69 674 L203 38 C210 7 228 -8 254 -8 C281 -8 295 7 312 38 L657 672 C659 676 660 679 660 683 C660 694 651 702 641 702 C633 702 626 698 621 688 Z " />
<glyph glyph-name="W" unicode="W" horiz-adv-x="895" d="M555 659 C552 686 537 701 515 701 C491 701 478 685 468 663 L184 37 C180 28 172 28 171 37 L133 686 C132 697 123 703 114 703 C99 703 93 690 94 679 L133 28 C134 5 155 -8 177 -8 C198 -8 214 4 224 27 L508 660 C510 664 516 663 516 659 L588 29 C591 5 611 -8 631 -8 C652 -8 668 4 678 27 L935 672 C937 677 938 681 938 686 C938 694 931 703 919 703 C912 703 904 699 900 688 L640 37 C637 28 626 28 625 37 Z " />
<glyph glyph-name="X" unicode="X" horiz-adv-x="632" d="M635 665 C641 672 644 677 644 683 C644 694 636 701 626 701 C619 701 614 698 608 692 L320 383 L135 691 C131 698 123 701 117 701 C108 701 99 694 99 683 C99 679 100 674 103 669 L292 355 L-7 33 C-13 26 -16 20 -16 14 C-16 4 -8 -3 2 -3 C7 -3 14 -1 18 4 L311 319 L500 9 C505 1 511 -3 518 -3 C528 -3 537 4 537 15 C537 18 536 23 533 29 L340 348 Z " />
<glyph glyph-name="Y" unicode="Y" horiz-adv-x="610" d="M260 350 C271 332 275 321 272 305 L224 16 C222 6 230 -4 242 -4 C255 -4 259 5 261 16 L309 305 C312 321 318 331 335 349 L645 668 C650 674 652 680 652 685 C652 695 643 703 633 703 C627 703 622 701 616 695 L297 363 L91 693 C86 699 80 702 74 702 C63 702 55 694 55 684 C55 680 56 676 59 671 Z " />
<glyph glyph-name="Z" unicode="Z" horiz-adv-x="564" d="M455 0 C466 0 475 7 475 18 C475 28 468 38 455 38 L50 38 L564 639 C572 649 578 659 578 671 C578 686 567 697 543 697 L132 697 C121 697 112 690 112 679 C112 669 119 659 132 659 L531 659 L17 58 C9 48 3 39 3 27 C3 12 14 0 38 0 Z " />
<glyph glyph-name="Agrave" unicode="&#xc0;" horiz-adv-x="646" d="M537 17 C539 5 547 0 557 0 C569 0 578 10 575 26 L452 645 C444 684 420 707 384 707 C352 707 331 695 304 645 L-23 29 C-32 12 -21 0 -8 0 C-1 0 7 4 12 13 L144 263 L489 263 Z M346 642 C357 663 366 670 383 670 C400 670 410 659 413 642 L482 298 L164 298 Z M413 753 C423 753 433 759 433 770 C433 776 430 782 422 786 L300 855 C294 858 290 859 285 859 C274 859 267 852 267 842 C267 836 270 829 278 825 L400 757 C405 754 409 753 413 753 Z " />
<glyph glyph-name="Aacute" unicode="&#xc1;" horiz-adv-x="646" d="M537 17 C539 5 547 0 557 0 C569 0 578 10 575 26 L452 645 C444 684 420 707 384 707 C352 707 331 695 304 645 L-23 29 C-32 12 -21 0 -8 0 C-1 0 7 4 12 13 L144 263 L489 263 Z M346 642 C357 663 366 670 383 670 C400 670 410 659 413 642 L482 298 L164 298 Z M367 787 C358 783 355 776 355 770 C355 761 361 753 371 753 C375 753 379 754 383 756 L529 825 C541 831 545 838 545 845 C545 853 539 861 528 861 C525 861 521 860 517 858 Z " />
<glyph glyph-name="Acircumflex" unicode="&#xc2;" horiz-adv-x="646" d="M537 17 C539 5 547 0 557 0 C569 0 578 10 575 26 L452 645 C444 684 420 707 384 707 C352 707 331 695 304 645 L-23 29 C-32 12 -21 0 -8 0 C-1 0 7 4 12 13 L144 263 L489 263 Z M346 642 C357 663 366 670 383 670 C400 670 410 659 413 642 L482 298 L164 298 Z M417 817 L481 757 C486 753 489 751 496 751 C506 751 514 759 514 768 C514 773 512 778 506 783 L441 844 C434 850 427 854 418 854 C409 854 402 851 393 845 L297 785 C289 780 286 774 286 767 C286 758 293 751 302 751 C307 751 311 752 316 755 Z " />
<glyph glyph-name="Atilde" unicode="&#xc3;" horiz-adv-x="646" d="M537 17 C539 5 547 0 557 0 C569 0 578 10 575 26 L452 645 C444 684 420 707 384 707 C352 707 331 695 304 645 L-23 29 C-32 12 -21 0 -8 0 C-1 0 7 4 12 13 L144 263 L489 263 Z M346 642 C357 663 366 670 383 670 C400 670 410 659 413 642 L482 298 L164 298 Z M459 753 C481 753 503 765 522 778 C531 784 534 789 534 797 C534 807 524 815 515 815 C498 815 484 790 460 790 C428 790 403 827 358 827 C336 827 311 816 294 800 C290 796 285 791 285 783 C285 774 291 765 303 765 C321 765 331 790 357 790 C385 790 413 753 459 753 Z " />
<glyph glyph-name="Adieresis" unicode="&#xc4;" horiz-adv-x="646" d="M537 17 C539 5 547 0 557 0 C569 0 578 10 575 26 L452 645 C444 684 420 707 384 707 C352 707 331 695 304 645 L-23 29 C-32 12 -21 0 -8 0 C-1 0 7 4 12 13 L144 263 L489 263 Z M346 642 C357 663 366 670 383 670 C400 670 410 659 413 642 L482 298 L164 298 Z M343 823 C324 823 311 807 311 792 C311 775 323 764 339 764 C357 764 371 778 371 795 C371 811 360 823 343 823 Z M484 823 C465 823 452 807 452 792 C452 775 464 764 480 764 C499 764 513 778 513 795 C513 811 502 823 484 823 Z " />
<glyph glyph-name="Amacron" unicode="&#x100;" horiz-adv-x="646" d="M537 17 C539 5 547 0 557 0 C569 0 578 10 575 26 L452 645 C444 684 420 707 384 707 C352 707 331 695 304 645 L-23 29 C-32 12 -21 0 -8 0 C-1 0 7 4 12 13 L144 263 L489 263 Z M346 642 C357 663 366 670 383 670 C400 670 410 659 413 642 L482 298 L164 298 Z M323 773 L493 773 C503 773 511 781 511 791 C511 801 503 809 493 809 L323 809 C312 809 304 801 304 791 C304 781 312 773 323 773 Z " />
<glyph glyph-name="Abreve" unicode="&#x102;" horiz-adv-x="646" d="M537 17 C539 5 547 0 557 0 C569 0 578 10 575 26 L452 645 C444 684 420 707 384 707 C352 707 331 695 304 645 L-23 29 C-32 12 -21 0 -8 0 C-1 0 7 4 12 13 L144 263 L489 263 Z M346 642 C357 663 366 670 383 670 C400 670 410 659 413 642 L482 298 L164 298 Z M406 753 C460 753 495 788 510 824 C513 831 515 839 515 844 C515 856 506 860 498 860 C487 860 482 851 479 843 C468 813 447 788 407 788 C364 788 352 818 347 840 C345 851 343 860 331 860 C322 860 314 854 314 840 C314 831 316 823 317 820 C331 772 368 753 406 753 Z " />
<glyph glyph-name="Aring" unicode="&#xc5;" horiz-adv-x="646" d="M537 17 C539 5 547 0 557 0 C569 0 578 10 575 26 L452 645 C444 684 420 707 384 707 C352 707 331 695 304 645 L-23 29 C-32 12 -21 0 -8 0 C-1 0 7 4 12 13 L144 263 L489 263 Z M346 642 C357 663 366 670 383 670 C400 670 410 659 413 642 L482 298 L164 298 Z M412 748 C467 748 497 795 497 837 C497 876 471 911 423 911 C366 911 337 865 337 824 C337 783 365 748 412 748 Z M412 776 C380 776 365 799 365 823 C365 852 385 883 423 883 C455 883 470 860 470 836 C470 807 450 776 412 776 Z " />
<glyph glyph-name="Aogonek" unicode="&#x104;" horiz-adv-x="627" d="M482 298 L164 298 L346 642 C357 663 366 670 383 670 C400 670 410 659 413 642 Z M495 -194 C518 -194 541 -187 559 -174 C567 -168 574 -161 574 -152 C574 -142 566 -136 559 -136 C553 -136 546 -140 541 -144 C526 -155 510 -159 495 -159 C469 -159 444 -146 444 -109 C444 -51 508 -21 551 -5 C576 4 578 11 575 26 L452 645 C444 684 420 707 384 707 C352 707 331 695 304 645 L-23 29 C-32 12 -21 0 -8 0 C-1 0 7 4 12 13 L144 263 L489 263 L535 25 C469 -1 409 -43 409 -110 C409 -167 451 -194 495 -194 Z " />
<glyph glyph-name="AE" unicode="&#xc6;" horiz-adv-x="996" d="M495 274 L456 37 C455 33 455 29 455 26 C455 10 463 0 486 0 L859 0 C870 0 879 7 879 18 C879 28 872 38 859 38 L494 38 L543 333 L899 333 C910 333 919 340 919 351 C919 361 912 370 899 370 L549 370 L597 659 L965 659 C976 659 985 667 985 678 C985 688 978 697 965 697 L590 697 C543 697 514 695 484 656 L0 28 C-4 22 -6 18 -6 13 C-6 4 1 -3 10 -3 C17 -3 23 0 29 7 L233 274 Z M501 309 L260 309 L515 642 C526 656 541 659 554 659 L559 659 Z " />
<glyph glyph-name="Cacute" unicode="&#x106;" horiz-adv-x="637" d="M311 29 C167 29 81 127 95 271 C99 310 112 397 125 445 C164 589 258 669 381 669 C470 669 548 628 581 528 C584 518 588 510 600 510 C611 510 617 518 617 528 C617 532 616 539 614 546 C588 635 502 706 384 706 C225 706 125 601 86 445 C73 393 62 316 58 282 C36 112 143 -8 312 -8 C456 -8 526 87 555 149 C558 156 562 164 562 171 C562 181 554 188 545 188 C533 188 528 178 524 169 C484 84 412 29 311 29 Z M347 787 C338 783 335 776 335 770 C335 761 341 753 351 753 C355 753 359 754 363 756 L509 825 C521 831 525 838 525 845 C525 853 519 861 508 861 C505 861 501 860 497 858 Z " />
<glyph glyph-name="Ccaron" unicode="&#x10c;" horiz-adv-x="637" d="M311 29 C167 29 81 127 95 271 C99 310 112 397 125 445 C164 589 258 669 381 669 C470 669 548 628 581 528 C584 518 588 510 600 510 C611 510 617 518 617 528 C617 532 616 539 614 546 C588 635 502 706 384 706 C225 706 125 601 86 445 C73 393 62 316 58 282 C36 112 143 -8 312 -8 C456 -8 526 87 555 149 C558 156 562 164 562 171 C562 181 554 188 545 188 C533 188 528 178 524 169 C484 84 412 29 311 29 Z M408 748 C417 748 424 752 433 758 L521 816 C528 821 532 827 532 833 C532 842 524 851 514 851 C510 851 506 850 502 847 L409 785 L339 845 C334 849 329 851 325 851 C315 851 307 842 307 833 C307 827 309 822 314 818 L385 758 C392 752 399 748 408 748 Z " />
<glyph glyph-name="Cdotaccent" unicode="&#x10a;" horiz-adv-x="637" d="M311 29 C167 29 81 127 95 271 C99 310 112 397 125 445 C164 589 258 669 381 669 C470 669 548 628 581 528 C584 518 588 510 600 510 C611 510 617 518 617 528 C617 532 616 539 614 546 C588 635 502 706 384 706 C225 706 125 601 86 445 C73 393 62 316 58 282 C36 112 143 -8 312 -8 C456 -8 526 87 555 149 C558 156 562 164 562 171 C562 181 554 188 545 188 C533 188 528 178 524 169 C484 84 412 29 311 29 Z M417 823 C398 823 385 807 385 792 C385 775 397 764 413 764 C431 764 445 778 445 795 C445 811 434 823 417 823 Z " />
<glyph glyph-name="Ccedilla" unicode="&#xc7;" horiz-adv-x="637" d="M227 -233 C233 -233 240 -232 244 -231 C285 -221 363 -187 363 -123 C363 -84 331 -56 289 -60 L316 -8 C459 -5 526 88 555 149 C558 156 562 164 562 171 C562 181 554 188 545 188 C533 188 528 178 524 169 C484 84 412 29 311 29 C167 29 81 126 95 271 C99 310 112 397 125 445 C162 585 255 669 381 669 C470 669 548 628 581 528 C584 518 588 510 600 510 C611 510 617 518 617 528 C617 532 616 539 614 546 C588 635 504 706 384 706 C225 706 125 601 86 445 C73 393 62 316 58 282 C38 122 130 7 279 -6 L246 -73 C239 -88 245 -100 259 -100 C269 -100 277 -93 292 -93 C309 -93 327 -102 327 -125 C327 -169 261 -191 227 -201 C215 -205 210 -210 210 -218 C210 -226 216 -233 227 -233 Z " />
<glyph glyph-name="Dcaron" unicode="&#x10e;" horiz-adv-x="679" d="M95 0 L283 0 C463 0 582 71 628 281 C636 316 642 366 646 401 C665 573 570 697 356 697 L212 697 C189 697 173 681 169 660 L66 37 C62 14 73 0 95 0 Z M104 38 L206 659 L358 659 C535 659 629 559 607 395 C606 385 599 326 591 290 C551 106 449 38 282 38 Z M418 748 C427 748 434 752 443 758 L531 816 C538 821 542 827 542 833 C542 842 534 851 524 851 C520 851 516 850 512 847 L419 785 L349 845 C344 849 339 851 335 851 C325 851 317 842 317 833 C317 827 319 822 324 818 L395 758 C402 752 409 748 418 748 Z " />
<glyph glyph-name="Dcroat" unicode="&#x110;" horiz-adv-x="669" d="M85 0 L268 0 C454 0 572 71 618 281 C626 316 632 366 636 401 C655 573 560 697 346 697 L202 697 C179 697 163 681 159 660 L110 363 L18 363 C8 363 -1 355 -1 344 C-1 335 6 326 19 326 L104 326 L56 37 C52 14 63 0 85 0 Z M94 38 L141 326 L342 326 C355 326 362 335 362 344 C362 355 353 363 343 363 L148 363 L196 659 L348 659 C526 659 618 559 597 395 C596 385 589 326 581 290 C540 106 439 38 272 38 Z " />
<glyph glyph-name="Egrave" unicode="&#xc8;" horiz-adv-x="607" d="M214 697 C186 697 174 686 170 660 L67 37 C63 15 69 0 97 0 L470 0 C481 0 490 7 490 18 C490 28 483 38 470 38 L105 38 L153 333 L510 333 C521 333 530 340 530 351 C530 361 523 370 510 370 L159 370 L207 659 L576 659 C587 659 596 667 596 678 C596 688 589 697 576 697 Z M430 753 C440 753 450 759 450 770 C450 776 447 782 439 786 L317 855 C311 858 307 859 302 859 C291 859 284 852 284 842 C284 836 287 829 295 825 L417 757 C422 754 426 753 430 753 Z " />
<glyph glyph-name="Eacute" unicode="&#xc9;" horiz-adv-x="607" d="M214 697 C186 697 174 686 170 660 L67 37 C63 15 69 0 97 0 L470 0 C481 0 490 7 490 18 C490 28 483 38 470 38 L105 38 L153 333 L510 333 C521 333 530 340 530 351 C530 361 523 370 510 370 L159 370 L207 659 L576 659 C587 659 596 667 596 678 C596 688 589 697 576 697 Z M339 787 C330 783 327 776 327 770 C327 761 333 753 343 753 C347 753 351 754 355 756 L501 825 C513 831 517 838 517 845 C517 853 511 861 500 861 C497 861 493 860 489 858 Z " />
<glyph glyph-name="Ecircumflex" unicode="&#xca;" horiz-adv-x="607" d="M214 697 C186 697 174 686 170 660 L67 37 C63 15 69 0 97 0 L470 0 C481 0 490 7 490 18 C490 28 483 38 470 38 L105 38 L153 333 L510 333 C521 333 530 340 530 351 C530 361 523 370 510 370 L159 370 L207 659 L576 659 C587 659 596 667 596 678 C596 688 589 697 576 697 Z M419 817 L483 757 C488 753 491 751 498 751 C508 751 516 759 516 768 C516 773 514 778 508 783 L443 844 C436 850 429 854 420 854 C411 854 404 851 395 845 L299 785 C291 780 288 774 288 767 C288 758 295 751 304 751 C309 751 313 752 318 755 Z " />
<glyph glyph-name="Ecaron" unicode="&#x11a;" horiz-adv-x="607" d="M214 697 C186 697 174 686 170 660 L67 37 C63 15 69 0 97 0 L470 0 C481 0 490 7 490 18 C490 28 483 38 470 38 L105 38 L153 333 L510 333 C521 333 530 340 530 351 C530 361 523 370 510 370 L159 370 L207 659 L576 659 C587 659 596 667 596 678 C596 688 589 697 576 697 Z M411 748 C420 748 427 752 436 758 L524 816 C531 821 535 827 535 833 C535 842 527 851 517 851 C513 851 509 850 505 847 L412 785 L342 845 C337 849 332 851 328 851 C318 851 310 842 310 833 C310 827 312 822 317 818 L388 758 C395 752 402 748 411 748 Z " />
<glyph glyph-name="Edieresis" unicode="&#xcb;" horiz-adv-x="607" d="M214 697 C186 697 174 686 170 660 L67 37 C63 15 69 0 97 0 L470 0 C481 0 490 7 490 18 C490 28 483 38 470 38 L105 38 L153 333 L510 333 C521 333 530 340 530 351 C530 361 523 370 510 370 L159 370 L207 659 L576 659 C587 659 596 667 596 678 C596 688 589 697 576 697 Z M340 823 C321 823 308 807 308 792 C308 775 320 764 336 764 C354 764 368 778 368 795 C368 811 357 823 340 823 Z M481 823 C462 823 449 807 449 792 C449 775 461 764 477 764 C496 764 510 778 510 795 C510 811 499 823 481 823 Z " />
<glyph glyph-name="Emacron" unicode="&#x112;" horiz-adv-x="607" d="M214 697 C186 697 174 686 170 660 L67 37 C63 15 69 0 97 0 L470 0 C481 0 490 7 490 18 C490 28 483 38 470 38 L105 38 L153 333 L510 333 C521 333 530 340 530 351 C530 361 523 370 510 370 L159 370 L207 659 L576 659 C587 659 596 667 596 678 C596 688 589 697 576 697 Z M326 773 L496 773 C506 773 514 781 514 791 C514 801 506 809 496 809 L326 809 C315 809 307 801 307 791 C307 781 315 773 326 773 Z " />
<glyph glyph-name="Edotaccent" unicode="&#x116;" horiz-adv-x="607" d="M214 697 C186 697 174 686 170 660 L67 37 C63 15 69 0 97 0 L470 0 C481 0 490 7 490 18 C490 28 483 38 470 38 L105 38 L153 333 L510 333 C521 333 530 340 530 351 C530 361 523 370 510 370 L159 370 L207 659 L576 659 C587 659 596 667 596 678 C596 688 589 697 576 697 Z M415 823 C396 823 383 807 383 792 C383 775 395 764 411 764 C429 764 443 778 443 795 C443 811 432 823 415 823 Z " />
<glyph glyph-name="Eogonek" unicode="&#x118;" horiz-adv-x="601" d="M409 -194 C432 -194 455 -187 473 -174 C481 -168 488 -161 488 -152 C488 -142 480 -136 473 -136 C467 -136 460 -140 455 -144 C440 -155 424 -159 409 -159 C383 -159 358 -146 358 -109 C358 -51 427 -18 470 -3 C482 1 490 7 490 19 C490 28 483 38 470 38 L105 38 L153 333 L510 333 C521 333 530 340 530 351 C530 361 523 370 510 370 L159 370 L207 659 L576 659 C587 659 596 667 596 678 C596 688 589 697 576 697 L214 697 C186 697 174 686 170 660 L67 37 C63 15 69 0 97 0 L402 0 C357 -25 323 -59 323 -110 C323 -167 365 -194 409 -194 Z " />
<glyph glyph-name="Gbreve" unicode="&#x11e;" horiz-adv-x="676" d="M378 355 C367 354 357 348 357 336 C357 326 366 317 378 317 L560 317 L544 228 C521 107 440 29 311 29 C164 29 80 145 95 279 C101 330 110 388 123 439 C162 592 254 669 380 669 C475 669 558 620 580 531 C582 523 587 515 598 515 C607 515 616 520 616 534 C616 538 614 546 612 553 C580 652 487 706 378 706 C232 706 122 608 84 445 C71 391 61 328 56 276 C41 118 149 -8 314 -8 C469 -8 559 95 582 230 C586 253 590 274 597 316 C601 339 594 355 564 355 Z M419 753 C473 753 508 788 523 824 C526 831 528 839 528 844 C528 856 519 860 511 860 C500 860 495 851 492 843 C481 813 460 788 420 788 C377 788 365 818 360 840 C358 851 356 860 344 860 C335 860 327 854 327 840 C327 831 329 823 330 820 C344 772 381 753 419 753 Z " />
<glyph glyph-name="Gdotaccent" unicode="&#x120;" horiz-adv-x="676" d="M378 355 C367 354 357 348 357 336 C357 326 366 317 378 317 L560 317 L544 228 C521 107 440 29 311 29 C164 29 80 145 95 279 C101 330 110 388 123 439 C162 592 254 669 380 669 C475 669 558 620 580 531 C582 523 587 515 598 515 C607 515 616 520 616 534 C616 538 614 546 612 553 C580 652 487 706 378 706 C232 706 122 608 84 445 C71 391 61 328 56 276 C41 118 149 -8 314 -8 C469 -8 559 95 582 230 C586 253 590 274 597 316 C601 339 594 355 564 355 Z M423 823 C404 823 391 807 391 792 C391 775 403 764 419 764 C437 764 451 778 451 795 C451 811 440 823 423 823 Z " />
<glyph glyph-name="Gcommaaccent" unicode="&#x122;" horiz-adv-x="676" d="M378 355 C367 354 357 348 357 336 C357 326 366 317 378 317 L560 317 L544 228 C521 107 440 29 311 29 C164 29 80 145 95 279 C101 330 110 388 123 439 C162 592 254 669 380 669 C475 669 558 620 580 531 C582 523 587 515 598 515 C607 515 616 520 616 534 C616 538 614 546 612 553 C580 652 487 706 378 706 C232 706 122 608 84 445 C71 391 61 328 56 276 C41 118 149 -8 314 -8 C469 -8 559 95 582 230 C586 253 590 274 597 316 C601 339 594 355 564 355 Z M224 -218 C233 -218 240 -212 245 -208 C271 -181 284 -162 294 -107 L303 -52 C307 -38 297 -30 287 -30 C278 -30 269 -36 267 -48 L257 -102 C251 -136 244 -157 217 -186 C211 -192 208 -197 208 -203 C208 -211 214 -218 224 -218 Z " />
<glyph glyph-name="Igrave" unicode="&#xcc;" horiz-adv-x="265" d="M210 679 C212 693 204 702 192 702 C181 702 175 694 173 684 L62 19 C60 5 68 -4 80 -4 C91 -4 97 4 99 14 Z M202 753 C212 753 222 759 222 770 C222 776 219 782 211 786 L89 855 C83 858 79 859 74 859 C63 859 56 852 56 842 C56 836 59 829 67 825 L189 757 C194 754 198 753 202 753 Z " />
<glyph glyph-name="Iacute" unicode="&#xcd;" horiz-adv-x="265" d="M206 679 C208 693 200 702 188 702 C177 702 171 694 169 684 L58 19 C56 5 64 -4 76 -4 C87 -4 93 4 95 14 Z M181 787 C172 783 169 776 169 770 C169 761 175 753 185 753 C189 753 193 754 197 756 L343 825 C355 831 359 838 359 845 C359 853 353 861 342 861 C339 861 335 860 331 858 Z " />
<glyph glyph-name="Icircumflex" unicode="&#xce;" horiz-adv-x="265" d="M206 679 C208 693 200 702 188 702 C177 702 171 694 169 684 L58 19 C56 5 64 -4 76 -4 C87 -4 93 4 95 14 Z M210 817 L274 757 C279 753 282 751 289 751 C299 751 307 759 307 768 C307 773 305 778 299 783 L234 844 C227 850 220 854 211 854 C202 854 195 851 186 845 L90 785 C82 780 79 774 79 767 C79 758 86 751 95 751 C100 751 104 752 109 755 Z " />
<glyph glyph-name="Idieresis" unicode="&#xcf;" horiz-adv-x="265" d="M210 679 C212 693 204 702 192 702 C181 702 175 694 173 684 L62 19 C60 5 68 -4 80 -4 C91 -4 97 4 99 14 Z M144 823 C125 823 112 807 112 792 C112 775 124 764 140 764 C158 764 172 778 172 795 C172 811 161 823 144 823 Z M285 823 C266 823 253 807 253 792 C253 775 265 764 281 764 C300 764 314 778 314 795 C314 811 303 823 285 823 Z " />
<glyph glyph-name="Iogonek" unicode="&#x12e;" horiz-adv-x="265" d="M35 -194 C58 -194 81 -187 99 -174 C107 -168 114 -161 114 -152 C114 -142 106 -136 99 -136 C93 -136 86 -140 81 -144 C66 -155 50 -159 35 -159 C9 -159 -16 -148 -16 -111 C-16 -51 52 -24 95 -7 C106 -2 113 1 115 14 L226 679 C228 693 220 702 208 702 C197 702 191 694 189 684 L81 39 C80 34 79 28 80 22 C11 -2 -51 -43 -51 -112 C-51 -169 -9 -194 35 -194 Z " />
<glyph glyph-name="Imacron" unicode="&#x12a;" horiz-adv-x="265" d="M212 679 C214 693 206 702 194 702 C183 702 177 694 175 684 L64 19 C62 5 70 -4 82 -4 C93 -4 99 4 101 14 Z M131 773 L301 773 C311 773 319 781 319 791 C319 801 311 809 301 809 L131 809 C120 809 112 801 112 791 C112 781 120 773 131 773 Z " />
<glyph glyph-name="Idotaccent" unicode="&#x130;" horiz-adv-x="265" d="M214 679 C216 693 208 702 196 702 C185 702 179 694 177 684 L66 19 C64 5 72 -4 84 -4 C95 -4 101 4 103 14 Z M213 823 C194 823 181 807 181 792 C181 775 193 764 209 764 C227 764 241 778 241 795 C241 811 230 823 213 823 Z " />
<glyph glyph-name="Kcommaaccent" unicode="&#x136;" horiz-adv-x="611" d="M156 336 L194 336 C218 336 229 335 248 311 L500 4 C504 -1 510 -4 516 -4 C529 -4 535 5 535 14 C535 19 533 24 530 29 L261 355 L597 666 C604 672 607 678 607 685 C607 695 599 702 589 702 C584 702 578 700 573 695 L254 398 C228 374 217 373 196 373 L162 373 L214 683 C216 694 208 702 197 702 C185 702 179 694 177 683 L66 15 C64 5 73 -4 83 -4 C96 -4 101 4 103 15 Z M199 -218 C208 -218 215 -212 220 -208 C246 -181 259 -162 269 -107 L278 -52 C282 -38 272 -30 262 -30 C253 -30 244 -36 242 -48 L232 -102 C226 -136 219 -157 192 -186 C186 -192 183 -197 183 -203 C183 -211 189 -218 199 -218 Z " />
<glyph glyph-name="Lacute" unicode="&#x139;" horiz-adv-x="533" d="M104 38 L211 679 C213 693 205 702 193 702 C182 702 176 694 174 683 L66 37 C62 14 73 0 97 0 L468 0 C479 0 488 7 488 18 C488 28 481 38 468 38 Z M186 787 C177 783 174 776 174 770 C174 761 180 753 190 753 C194 753 198 754 202 756 L348 825 C360 831 364 838 364 845 C364 853 358 861 347 861 C344 861 340 860 336 858 Z " />
<glyph glyph-name="Lcaron" unicode="&#x13d;" horiz-adv-x="533" d="M104 38 L211 679 C213 693 205 702 193 702 C182 702 176 694 174 683 L66 37 C62 14 73 0 97 0 L468 0 C479 0 488 7 488 18 C488 28 481 38 468 38 Z M296 544 C305 544 312 549 322 559 C342 580 353 598 362 642 L370 683 C373 697 364 706 354 706 C345 706 336 699 334 687 L326 647 C320 613 316 605 289 576 C283 570 280 565 280 559 C280 551 286 544 296 544 Z " />
<glyph glyph-name="Lcommaaccent" unicode="&#x13b;" horiz-adv-x="533" d="M104 38 L211 679 C213 693 205 702 193 702 C182 702 176 694 174 683 L66 37 C62 14 73 0 97 0 L468 0 C479 0 488 7 488 18 C488 28 481 38 468 38 Z M218 -218 C227 -218 234 -212 239 -208 C265 -181 278 -162 288 -107 L297 -52 C301 -38 291 -30 281 -30 C272 -30 263 -36 261 -48 L251 -102 C245 -136 238 -157 211 -186 C205 -192 202 -197 202 -203 C202 -211 208 -218 218 -218 Z " />
<glyph glyph-name="Lslash" unicode="&#x141;" horiz-adv-x="549" d="M120 38 L168 332 L319 418 C330 424 333 431 333 437 C333 445 326 452 316 452 C312 452 308 451 303 448 L177 375 L227 679 C229 693 221 702 209 702 C198 702 192 694 190 683 L135 352 L45 301 C36 296 32 288 32 282 C32 273 38 266 47 266 C52 266 56 268 60 270 L127 307 L82 37 C78 14 89 0 113 0 L484 0 C495 0 504 7 504 18 C504 28 497 38 484 38 Z " />
<glyph glyph-name="Nacute" unicode="&#x143;" horiz-adv-x="762" d="M565 38 L247 680 C243 689 233 703 212 703 C190 703 178 690 174 665 L66 16 C66 15 66 14 66 13 C66 3 75 -4 84 -4 C97 -4 101 5 103 16 L177 463 C189 535 202 606 211 661 L213 661 L529 21 C533 12 544 -2 565 -2 C588 -2 599 14 603 36 L711 678 C711 679 711 681 711 682 C711 695 704 702 693 702 C682 702 676 694 674 684 L595 211 C589 175 579 116 566 38 Z M411 787 C402 783 399 776 399 770 C399 761 405 753 415 753 C419 753 423 754 427 756 L573 825 C585 831 589 838 589 845 C589 853 583 861 572 861 C569 861 565 860 561 858 Z " />
<glyph glyph-name="Ncaron" unicode="&#x147;" horiz-adv-x="762" d="M565 38 L247 680 C243 689 233 703 212 703 C190 703 178 690 174 665 L66 16 C66 15 66 14 66 13 C66 3 75 -4 84 -4 C97 -4 101 5 103 16 L177 463 C189 535 202 606 211 661 L213 661 L529 21 C533 12 544 -2 565 -2 C588 -2 599 14 603 36 L711 678 C711 679 711 681 711 682 C711 695 704 702 693 702 C682 702 676 694 674 684 L595 211 C589 175 579 116 566 38 Z M459 748 C468 748 475 752 484 758 L572 816 C579 821 583 827 583 833 C583 842 575 851 565 851 C561 851 557 850 553 847 L460 785 L390 845 C385 849 380 851 376 851 C366 851 358 842 358 833 C358 827 360 822 365 818 L436 758 C443 752 450 748 459 748 Z " />
<glyph glyph-name="Ntilde" unicode="&#xd1;" horiz-adv-x="762" d="M565 38 L247 680 C243 689 233 703 212 703 C190 703 178 690 174 665 L66 16 C66 15 66 14 66 13 C66 3 75 -4 84 -4 C97 -4 101 5 103 16 L177 463 C189 535 202 606 211 661 L213 661 L529 21 C533 12 544 -2 565 -2 C588 -2 599 14 603 36 L711 678 C711 679 711 681 711 682 C711 695 704 702 693 702 C682 702 676 694 674 684 L595 211 C589 175 579 116 566 38 Z M516 753 C538 753 560 765 579 778 C588 784 591 789 591 797 C591 807 581 815 572 815 C555 815 541 790 517 790 C485 790 460 827 415 827 C393 827 368 816 351 800 C347 796 342 791 342 783 C342 774 348 765 360 765 C378 765 388 790 414 790 C442 790 470 753 516 753 Z " />
<glyph glyph-name="Ncommaaccent" unicode="&#x145;" horiz-adv-x="762" d="M565 38 L247 680 C243 689 233 703 212 703 C190 703 178 690 174 665 L66 16 C66 15 66 14 66 13 C66 3 75 -4 84 -4 C97 -4 101 5 103 16 L177 463 C189 535 202 606 211 661 L213 661 L529 21 C533 12 544 -2 565 -2 C588 -2 599 14 603 36 L711 678 C711 679 711 681 711 682 C711 695 704 702 693 702 C682 702 676 694 674 684 L595 211 C589 175 579 116 566 38 Z M265 -218 C274 -218 281 -212 286 -208 C312 -181 325 -162 335 -107 L344 -52 C348 -38 338 -30 328 -30 C319 -30 310 -36 308 -48 L298 -102 C292 -136 285 -157 258 -186 C252 -192 249 -197 249 -203 C249 -211 255 -218 265 -218 Z " />
<glyph glyph-name="Ograve" unicode="&#xd2;" horiz-adv-x="670" d="M318 -8 C465 -8 578 84 613 254 C624 306 632 367 638 420 C656 580 551 706 383 706 C213 706 109 588 78 423 C68 369 64 339 58 287 C34 88 190 -8 318 -8 Z M315 30 C214 30 78 100 95 279 C101 338 106 370 118 428 C146 562 234 668 379 668 C524 668 614 565 601 425 C596 367 587 306 573 247 C541 113 449 30 315 30 Z M443 753 C453 753 463 759 463 770 C463 776 460 782 452 786 L330 855 C324 858 320 859 315 859 C304 859 297 852 297 842 C297 836 300 829 308 825 L430 757 C435 754 439 753 443 753 Z " />
<glyph glyph-name="Oacute" unicode="&#xd3;" horiz-adv-x="670" d="M318 -8 C465 -8 578 84 613 254 C624 306 632 367 638 420 C656 580 551 706 383 706 C213 706 109 588 78 423 C68 369 64 339 58 287 C34 88 190 -8 318 -8 Z M315 30 C214 30 78 100 95 279 C101 338 106 370 118 428 C146 562 234 668 379 668 C524 668 614 565 601 425 C596 367 587 306 573 247 C541 113 449 30 315 30 Z M395 787 C386 783 383 776 383 770 C383 761 389 753 399 753 C403 753 407 754 411 756 L557 825 C569 831 573 838 573 845 C573 853 567 861 556 861 C553 861 549 860 545 858 Z " />
<glyph glyph-name="Ocircumflex" unicode="&#xd4;" horiz-adv-x="670" d="M318 -8 C465 -8 578 84 613 254 C624 306 632 367 638 420 C656 580 551 706 383 706 C213 706 109 588 78 423 C68 369 64 339 58 287 C34 88 190 -8 318 -8 Z M315 30 C214 30 78 100 95 279 C101 338 106 370 118 428 C146 562 234 668 379 668 C524 668 614 565 601 425 C596 367 587 306 573 247 C541 113 449 30 315 30 Z M438 817 L502 757 C507 753 510 751 517 751 C527 751 535 759 535 768 C535 773 533 778 527 783 L462 844 C455 850 448 854 439 854 C430 854 423 851 414 845 L318 785 C310 780 307 774 307 767 C307 758 314 751 323 751 C328 751 332 752 337 755 Z " />
<glyph glyph-name="Otilde" unicode="&#xd5;" horiz-adv-x="670" d="M318 -8 C465 -8 578 84 613 254 C624 306 632 367 638 420 C656 580 551 706 383 706 C213 706 109 588 78 423 C68 369 64 339 58 287 C34 88 190 -8 318 -8 Z M315 30 C214 30 78 100 95 279 C101 338 106 370 118 428 C146 562 234 668 379 668 C524 668 614 565 601 425 C596 367 587 306 573 247 C541 113 449 30 315 30 Z M469 753 C491 753 513 765 532 778 C541 784 544 789 544 797 C544 807 534 815 525 815 C508 815 494 790 470 790 C438 790 413 827 368 827 C346 827 321 816 304 800 C300 796 295 791 295 783 C295 774 301 765 313 765 C331 765 341 790 367 790 C395 790 423 753 469 753 Z " />
<glyph glyph-name="Odieresis" unicode="&#xd6;" horiz-adv-x="670" d="M318 -8 C465 -8 578 84 613 254 C624 306 632 367 638 420 C656 580 551 706 383 706 C213 706 109 588 78 423 C68 369 64 339 58 287 C34 88 190 -8 318 -8 Z M315 30 C214 30 78 100 95 279 C101 338 106 370 118 428 C146 562 234 668 379 668 C524 668 614 565 601 425 C596 367 587 306 573 247 C541 113 449 30 315 30 Z M366 823 C347 823 334 807 334 792 C334 775 346 764 362 764 C380 764 394 778 394 795 C394 811 383 823 366 823 Z M507 823 C488 823 475 807 475 792 C475 775 487 764 503 764 C522 764 536 778 536 795 C536 811 525 823 507 823 Z " />
<glyph glyph-name="Omacron" unicode="&#x14c;" horiz-adv-x="670" d="M318 -8 C465 -8 578 84 613 254 C624 306 632 367 638 420 C656 580 551 706 383 706 C213 706 109 588 78 423 C68 369 64 339 58 287 C34 88 190 -8 318 -8 Z M315 30 C214 30 78 100 95 279 C101 338 106 370 118 428 C146 562 234 668 379 668 C524 668 614 565 601 425 C596 367 587 306 573 247 C541 113 449 30 315 30 Z M346 773 L516 773 C526 773 534 781 534 791 C534 801 526 809 516 809 L346 809 C335 809 327 801 327 791 C327 781 335 773 346 773 Z " />
<glyph glyph-name="Ohungarumlaut" unicode="&#x150;" horiz-adv-x="670" d="M318 -8 C465 -8 578 84 613 254 C624 306 632 367 638 420 C656 580 551 706 383 706 C213 706 109 588 78 423 C68 369 64 339 58 287 C34 88 190 -8 318 -8 Z M315 30 C214 30 78 100 95 279 C101 338 106 370 118 428 C146 562 234 668 379 668 C524 668 614 565 601 425 C596 367 587 306 573 247 C541 113 449 30 315 30 Z M454 832 C462 837 465 844 465 850 C465 860 457 868 447 868 C442 868 436 866 430 861 L328 788 C320 782 316 775 316 769 C316 760 323 752 333 752 C338 752 344 754 349 758 Z M595 832 C603 837 606 844 606 850 C606 860 598 868 587 868 C582 868 576 866 570 861 L468 788 C460 782 456 775 456 769 C456 760 463 752 473 752 C479 752 485 754 490 758 Z " />
<glyph glyph-name="Oslash" unicode="&#xd8;" horiz-adv-x="670" d="M322 -8 C465 -8 578 84 613 254 C624 306 632 367 638 420 C648 508 620 587 564 639 L590 675 C593 680 595 685 595 689 C595 699 586 706 576 706 C569 706 562 702 556 693 L535 662 C494 690 442 706 383 706 C213 706 109 588 78 423 C68 369 64 339 58 287 C46 186 80 112 132 64 L103 23 C100 19 98 14 98 9 C98 0 104 -8 116 -8 C122 -8 129 -5 135 4 L160 41 C209 7 269 -8 322 -8 Z M321 30 C273 30 222 43 181 71 L542 605 C586 561 608 499 601 425 C596 367 587 306 573 247 C541 113 449 30 321 30 Z M152 96 C115 132 86 194 95 279 C101 338 106 370 118 428 C146 562 234 668 379 668 C432 668 477 654 513 630 Z " />
<glyph glyph-name="OE" unicode="&#x152;" horiz-adv-x="1015" d="M513 38 L562 333 L918 333 C929 333 938 340 938 351 C938 361 931 370 918 370 L568 370 L616 659 L984 659 C995 659 1004 667 1004 678 C1004 688 997 697 984 697 L617 697 C580 697 471 706 397 706 C207 706 113 595 78 421 C72 389 62 324 58 293 C36 119 145 -8 331 -8 C426 -8 490 0 505 0 L878 0 C889 0 898 7 898 18 C898 28 891 38 878 38 Z M475 36 C430 30 388 30 331 30 C171 30 78 134 95 285 C99 322 109 388 117 425 C150 577 235 668 391 668 C441 668 507 667 578 659 Z " />
<glyph glyph-name="Racute" unicode="&#x154;" horiz-adv-x="671" d="M308 299 C336 299 343 289 357 267 L519 9 C525 0 531 -3 538 -3 C549 -3 556 5 556 14 C556 19 555 23 552 28 L382 302 C519 310 614 381 614 516 C614 631 522 697 397 697 L216 697 C190 697 177 686 173 660 L66 17 C64 4 74 -4 84 -4 C97 -4 101 5 103 16 L150 299 Z M157 336 L211 659 L391 659 C497 659 576 612 576 512 C576 403 494 336 355 336 Z M339 787 C330 783 327 776 327 770 C327 761 333 753 343 753 C347 753 351 754 355 756 L501 825 C513 831 517 838 517 845 C517 853 511 861 500 861 C497 861 493 860 489 858 Z " />
<glyph glyph-name="Rcaron" unicode="&#x158;" horiz-adv-x="671" d="M308 299 C336 299 343 289 357 267 L519 9 C525 0 531 -3 538 -3 C549 -3 556 5 556 14 C556 19 555 23 552 28 L382 302 C519 310 614 381 614 516 C614 631 522 697 397 697 L216 697 C190 697 177 686 173 660 L66 17 C64 4 74 -4 84 -4 C97 -4 101 5 103 16 L150 299 Z M157 336 L211 659 L391 659 C497 659 576 612 576 512 C576 403 494 336 355 336 Z M382 748 C391 748 398 752 407 758 L495 816 C502 821 506 827 506 833 C506 842 498 851 488 851 C484 851 480 850 476 847 L383 785 L313 845 C308 849 303 851 299 851 C289 851 281 842 281 833 C281 827 283 822 288 818 L359 758 C366 752 373 748 382 748 Z " />
<glyph glyph-name="Rcommaaccent" unicode="&#x156;" horiz-adv-x="671" d="M308 299 C336 299 343 289 357 267 L519 9 C525 0 531 -3 538 -3 C549 -3 556 5 556 14 C556 19 555 23 552 28 L382 302 C519 310 614 381 614 516 C614 631 522 697 397 697 L216 697 C190 697 177 686 173 660 L66 17 C64 4 74 -4 84 -4 C97 -4 101 5 103 16 L150 299 Z M157 336 L211 659 L391 659 C497 659 576 612 576 512 C576 403 494 336 355 336 Z M211 -218 C220 -218 227 -212 232 -208 C258 -181 271 -162 281 -107 L290 -52 C294 -38 284 -30 274 -30 C265 -30 256 -36 254 -48 L244 -102 C238 -136 231 -157 204 -186 C198 -192 195 -197 195 -203 C195 -211 201 -218 211 -218 Z " />
<glyph glyph-name="Sacute" unicode="&#x15a;" horiz-adv-x="613" d="M319 374 C241 402 151 431 151 523 C151 598 219 668 338 668 C427 668 488 637 526 611 C530 608 538 603 546 603 C559 603 565 613 565 621 C565 628 562 634 554 640 C517 669 432 706 343 706 C216 706 114 636 114 521 C114 409 220 370 310 338 C407 303 484 272 484 184 C484 86 387 30 278 30 C184 30 97 72 64 95 C50 106 44 114 34 114 C23 114 17 104 17 97 C17 88 21 83 26 78 C62 42 173 -8 282 -8 C420 -8 521 71 521 185 C521 300 418 339 319 374 Z M339 787 C330 783 327 776 327 770 C327 761 333 753 343 753 C347 753 351 754 355 756 L501 825 C513 831 517 838 517 845 C517 853 511 861 500 861 C497 861 493 860 489 858 Z " />
<glyph glyph-name="Scaron" unicode="&#x160;" horiz-adv-x="613" d="M320 374 C242 402 152 431 152 523 C152 598 220 668 339 668 C428 668 489 637 527 611 C531 608 539 603 547 603 C560 603 566 613 566 621 C566 628 563 634 555 640 C518 669 433 706 344 706 C217 706 115 636 115 521 C115 409 221 370 311 338 C408 303 485 272 485 184 C485 86 388 30 279 30 C185 30 98 72 65 95 C51 106 45 114 35 114 C24 114 18 104 18 97 C18 88 22 83 27 78 C63 42 174 -8 283 -8 C421 -8 522 71 522 185 C522 300 419 339 320 374 Z M381 748 C390 748 397 752 406 758 L494 816 C501 821 505 827 505 833 C505 842 497 851 487 851 C483 851 479 850 475 847 L382 785 L312 845 C307 849 302 851 298 851 C288 851 280 842 280 833 C280 827 282 822 287 818 L358 758 C365 752 372 748 381 748 Z " />
<glyph glyph-name="Scedilla" unicode="&#x15e;" horiz-adv-x="613" d="M193 -233 C199 -233 206 -232 210 -231 C251 -221 329 -187 329 -123 C329 -84 297 -56 255 -60 L282 -8 L290 -8 C428 -8 529 71 529 185 C529 300 426 339 327 374 C249 402 159 431 159 523 C159 598 227 668 346 668 C435 668 496 637 534 611 C538 608 546 603 554 603 C567 603 573 613 573 621 C573 628 570 634 562 640 C525 669 440 706 351 706 C224 706 122 636 122 521 C122 409 228 370 318 338 C415 303 492 272 492 184 C492 86 395 30 286 30 C192 30 104 72 72 95 C58 106 52 114 42 114 C31 114 25 104 25 97 C25 88 29 83 34 78 C65 47 152 5 245 -5 L212 -73 C205 -88 211 -100 225 -100 C235 -100 243 -93 258 -93 C275 -93 293 -102 293 -125 C293 -169 227 -191 193 -201 C181 -205 176 -210 176 -218 C176 -226 182 -233 193 -233 Z " />
<glyph glyph-name="Scommaaccent" unicode="&#x218;" horiz-adv-x="613" d="M320 374 C242 402 152 431 152 523 C152 598 220 668 339 668 C428 668 489 637 527 611 C531 608 539 603 547 603 C560 603 566 613 566 621 C566 628 563 634 555 640 C518 669 433 706 344 706 C217 706 115 636 115 521 C115 409 221 370 311 338 C408 303 485 272 485 184 C485 86 388 30 279 30 C185 30 98 72 65 95 C51 106 45 114 35 114 C24 114 18 104 18 97 C18 88 22 83 27 78 C63 42 174 -8 283 -8 C421 -8 522 71 522 185 C522 300 419 339 320 374 Z M198 -218 C207 -218 214 -212 219 -208 C245 -181 258 -162 268 -107 L277 -52 C281 -38 271 -30 261 -30 C252 -30 243 -36 241 -48 L231 -102 C225 -136 218 -157 191 -186 C185 -192 182 -197 182 -203 C182 -211 188 -218 198 -218 Z " />
<glyph glyph-name="Tcaron" unicode="&#x164;" horiz-adv-x="539" d="M295 659 L187 16 C185 4 195 -4 205 -4 C218 -4 223 5 225 16 L332 659 L564 659 C575 659 584 667 584 678 C584 688 577 697 564 697 L67 697 C56 697 47 690 47 679 C47 669 54 659 67 659 Z M331 748 C340 748 347 752 356 758 L444 816 C451 821 455 827 455 833 C455 842 447 851 437 851 C433 851 429 850 425 847 L332 785 L262 845 C257 849 252 851 248 851 C238 851 230 842 230 833 C230 827 232 822 237 818 L308 758 C315 752 322 748 331 748 Z " />
<glyph glyph-name="Tcommaaccent" unicode="&#x162;" horiz-adv-x="539" d="M295 659 L187 16 C185 4 195 -4 205 -4 C218 -4 223 5 225 16 L332 659 L564 659 C575 659 584 667 584 678 C584 688 577 697 564 697 L67 697 C56 697 47 690 47 679 C47 669 54 659 67 659 Z M122 -285 C131 -285 138 -279 143 -275 C169 -248 182 -229 192 -174 L201 -119 C205 -105 195 -97 185 -97 C176 -97 167 -103 165 -115 L155 -169 C149 -203 142 -224 115 -253 C109 -259 106 -264 106 -270 C106 -278 112 -285 122 -285 Z " />
<glyph glyph-name="Ugrave" unicode="&#xd9;" horiz-adv-x="702" d="M681 679 C683 693 675 702 663 702 C652 702 645 694 643 684 L574 264 C547 101 447 30 332 30 C230 30 83 85 118 292 L183 679 C185 693 177 702 165 702 C154 702 148 694 146 684 L81 298 C42 69 206 -8 328 -8 C480 -8 582 81 612 264 Z M457 753 C467 753 477 759 477 770 C477 776 474 782 466 786 L344 855 C338 858 334 859 329 859 C318 859 311 852 311 842 C311 836 314 829 322 825 L444 757 C449 754 453 753 457 753 Z " />
<glyph glyph-name="Uacute" unicode="&#xda;" horiz-adv-x="702" d="M681 679 C683 693 675 702 663 702 C652 702 645 694 643 684 L574 264 C547 101 447 30 332 30 C230 30 83 85 118 292 L183 679 C185 693 177 702 165 702 C154 702 148 694 146 684 L81 298 C42 69 206 -8 328 -8 C480 -8 582 81 612 264 Z M376 787 C367 783 364 776 364 770 C364 761 370 753 380 753 C384 753 388 754 392 756 L538 825 C550 831 554 838 554 845 C554 853 548 861 537 861 C534 861 530 860 526 858 Z " />
<glyph glyph-name="Ucircumflex" unicode="&#xdb;" horiz-adv-x="702" d="M681 679 C683 693 675 702 663 702 C652 702 645 694 643 684 L574 264 C547 101 447 30 332 30 C230 30 83 85 118 292 L183 679 C185 693 177 702 165 702 C154 702 148 694 146 684 L81 298 C42 69 206 -8 328 -8 C480 -8 582 81 612 264 Z M444 817 L508 757 C513 753 516 751 523 751 C533 751 541 759 541 768 C541 773 539 778 533 783 L468 844 C461 850 454 854 445 854 C436 854 429 851 420 845 L324 785 C316 780 313 774 313 767 C313 758 320 751 329 751 C334 751 338 752 343 755 Z " />
<glyph glyph-name="Udieresis" unicode="&#xdc;" horiz-adv-x="702" d="M681 679 C683 693 675 702 663 702 C652 702 645 694 643 684 L574 264 C547 101 447 30 332 30 C230 30 83 85 118 292 L183 679 C185 693 177 702 165 702 C154 702 148 694 146 684 L81 298 C42 69 206 -8 328 -8 C480 -8 582 81 612 264 Z M372 823 C353 823 340 807 340 792 C340 775 352 764 368 764 C386 764 400 778 400 795 C400 811 389 823 372 823 Z M513 823 C494 823 481 807 481 792 C481 775 493 764 509 764 C528 764 542 778 542 795 C542 811 531 823 513 823 Z " />
<glyph glyph-name="Umacron" unicode="&#x16a;" horiz-adv-x="702" d="M681 679 C683 693 675 702 663 702 C652 702 645 694 643 684 L574 264 C547 101 447 30 332 30 C230 30 83 85 118 292 L183 679 C185 693 177 702 165 702 C154 702 148 694 146 684 L81 298 C42 69 206 -8 328 -8 C480 -8 582 81 612 264 Z M346 773 L516 773 C526 773 534 781 534 791 C534 801 526 809 516 809 L346 809 C335 809 327 801 327 791 C327 781 335 773 346 773 Z " />
<glyph glyph-name="Uring" unicode="&#x16e;" horiz-adv-x="702" d="M681 679 C683 693 675 702 663 702 C652 702 645 694 643 684 L574 264 C547 101 447 30 332 30 C230 30 83 85 118 292 L183 679 C185 693 177 702 165 702 C154 702 148 694 146 684 L81 298 C42 69 206 -8 328 -8 C480 -8 582 81 612 264 Z M434 748 C489 748 519 795 519 837 C519 876 493 911 445 911 C388 911 359 865 359 824 C359 783 387 748 434 748 Z M434 776 C402 776 387 799 387 823 C387 852 407 883 445 883 C477 883 492 860 492 836 C492 807 472 776 434 776 Z " />
<glyph glyph-name="Uhungarumlaut" unicode="&#x170;" horiz-adv-x="702" d="M681 679 C683 693 675 702 663 702 C652 702 645 694 643 684 L574 264 C547 101 447 30 332 30 C230 30 83 85 118 292 L183 679 C185 693 177 702 165 702 C154 702 148 694 146 684 L81 298 C42 69 206 -8 328 -8 C480 -8 582 81 612 264 Z M465 832 C473 837 476 844 476 850 C476 860 468 868 458 868 C453 868 447 866 441 861 L339 788 C331 782 327 775 327 769 C327 760 334 752 344 752 C349 752 355 754 360 758 Z M606 832 C614 837 617 844 617 850 C617 860 609 868 598 868 C593 868 587 866 581 861 L479 788 C471 782 467 775 467 769 C467 760 474 752 484 752 C490 752 496 754 501 758 Z " />
<glyph glyph-name="Uogonek" unicode="&#x172;" horiz-adv-x="702" d="M332 -194 C355 -194 378 -187 396 -174 C404 -168 411 -161 411 -152 C411 -142 403 -136 396 -136 C390 -136 385 -139 378 -144 C362 -155 348 -159 333 -159 C306 -159 277 -146 277 -109 C277 -46 365 -9 401 1 C518 32 587 111 613 270 L681 679 C683 693 675 702 663 702 C652 702 645 694 643 684 L574 264 C547 101 447 30 332 30 C224 30 84 89 118 292 L183 679 C185 693 177 702 165 702 C154 702 148 694 146 684 L81 298 C44 78 193 0 308 -7 C270 -32 242 -65 242 -110 C242 -167 288 -194 332 -194 Z " />
<glyph glyph-name="Wgrave" unicode="&#x1e80;" horiz-adv-x="895" d="M555 659 C552 686 537 701 515 701 C491 701 478 685 468 663 L184 37 C180 28 172 28 171 37 L133 686 C132 697 123 703 114 703 C99 703 93 690 94 679 L133 28 C134 5 155 -8 177 -8 C198 -8 214 4 224 27 L508 660 C510 664 516 663 516 659 L588 29 C591 5 611 -8 631 -8 C652 -8 668 4 678 27 L935 672 C937 677 938 681 938 686 C938 694 931 703 919 703 C912 703 904 699 900 688 L640 37 C637 28 626 28 625 37 Z M545 753 C555 753 565 759 565 770 C565 776 562 782 554 786 L432 855 C426 858 422 859 417 859 C406 859 399 852 399 842 C399 836 402 829 410 825 L532 757 C537 754 541 753 545 753 Z " />
<glyph glyph-name="Wacute" unicode="&#x1e82;" horiz-adv-x="895" d="M555 659 C552 686 537 701 515 701 C491 701 478 685 468 663 L184 37 C180 28 172 28 171 37 L133 686 C132 697 123 703 114 703 C99 703 93 690 94 679 L133 28 C134 5 155 -8 177 -8 C198 -8 214 4 224 27 L508 660 C510 664 516 663 516 659 L588 29 C591 5 611 -8 631 -8 C652 -8 668 4 678 27 L935 672 C937 677 938 681 938 686 C938 694 931 703 919 703 C912 703 904 699 900 688 L640 37 C637 28 626 28 625 37 Z M493 787 C484 783 481 776 481 770 C481 761 487 753 497 753 C501 753 505 754 509 756 L655 825 C667 831 671 838 671 845 C671 853 665 861 654 861 C651 861 647 860 643 858 Z " />
<glyph glyph-name="Wcircumflex" unicode="&#x174;" horiz-adv-x="895" d="M555 659 C552 686 537 701 515 701 C491 701 478 685 468 663 L184 37 C180 28 172 28 171 37 L133 686 C132 697 123 703 114 703 C99 703 93 690 94 679 L133 28 C134 5 155 -8 177 -8 C198 -8 214 4 224 27 L508 660 C510 664 516 663 516 659 L588 29 C591 5 611 -8 631 -8 C652 -8 668 4 678 27 L935 672 C937 677 938 681 938 686 C938 694 931 703 919 703 C912 703 904 699 900 688 L640 37 C637 28 626 28 625 37 Z M540 817 L604 757 C609 753 612 751 619 751 C629 751 637 759 637 768 C637 773 635 778 629 783 L564 844 C557 850 550 854 541 854 C532 854 525 851 516 845 L420 785 C412 780 409 774 409 767 C409 758 416 751 425 751 C430 751 434 752 439 755 Z " />
<glyph glyph-name="Wdieresis" unicode="&#x1e84;" horiz-adv-x="895" d="M555 659 C552 686 537 701 515 701 C491 701 478 685 468 663 L184 37 C180 28 172 28 171 37 L133 686 C132 697 123 703 114 703 C99 703 93 690 94 679 L133 28 C134 5 155 -8 177 -8 C198 -8 214 4 224 27 L508 660 C510 664 516 663 516 659 L588 29 C591 5 611 -8 631 -8 C652 -8 668 4 678 27 L935 672 C937 677 938 681 938 686 C938 694 931 703 919 703 C912 703 904 699 900 688 L640 37 C637 28 626 28 625 37 Z M470 823 C451 823 438 807 438 792 C438 775 450 764 466 764 C484 764 498 778 498 795 C498 811 487 823 470 823 Z M611 823 C592 823 579 807 579 792 C579 775 591 764 607 764 C626 764 640 778 640 795 C640 811 629 823 611 823 Z " />
<glyph glyph-name="Ygrave" unicode="&#x1ef2;" horiz-adv-x="610" d="M260 350 C271 332 275 321 272 305 L224 16 C222 6 230 -4 242 -4 C255 -4 259 5 261 16 L309 305 C312 321 318 331 335 349 L645 668 C650 674 652 680 652 685 C652 695 643 703 633 703 C627 703 622 701 616 695 L297 363 L91 693 C86 699 80 702 74 702 C63 702 55 694 55 684 C55 680 56 676 59 671 Z M390 753 C400 753 410 759 410 770 C410 776 407 782 399 786 L277 855 C271 858 267 859 262 859 C251 859 244 852 244 842 C244 836 247 829 255 825 L377 757 C382 754 386 753 390 753 Z " />
<glyph glyph-name="Yacute" unicode="&#xdd;" horiz-adv-x="610" d="M260 350 C271 332 275 321 272 305 L224 16 C222 6 230 -4 242 -4 C255 -4 259 5 261 16 L309 305 C312 321 318 331 335 349 L645 668 C650 674 652 680 652 685 C652 695 643 703 633 703 C627 703 622 701 616 695 L297 363 L91 693 C86 699 80 702 74 702 C63 702 55 694 55 684 C55 680 56 676 59 671 Z M328 787 C319 783 316 776 316 770 C316 761 322 753 332 753 C336 753 340 754 344 756 L490 825 C502 831 506 838 506 845 C506 853 500 861 489 861 C486 861 482 860 478 858 Z " />
<glyph glyph-name="Ycircumflex" unicode="&#x176;" horiz-adv-x="610" d="M260 350 C271 332 275 321 272 305 L224 16 C222 6 230 -4 242 -4 C255 -4 259 5 261 16 L309 305 C312 321 318 331 335 349 L645 668 C650 674 652 680 652 685 C652 695 643 703 633 703 C627 703 622 701 616 695 L297 363 L91 693 C86 699 80 702 74 702 C63 702 55 694 55 684 C55 680 56 676 59 671 Z M382 817 L446 757 C451 753 454 751 461 751 C471 751 479 759 479 768 C479 773 477 778 471 783 L406 844 C399 850 392 854 383 854 C374 854 367 851 358 845 L262 785 C254 780 251 774 251 767 C251 758 258 751 267 751 C272 751 276 752 281 755 Z " />
<glyph glyph-name="Ydieresis" unicode="&#x178;" horiz-adv-x="610" d="M260 350 C271 332 275 321 272 305 L224 16 C222 6 230 -4 242 -4 C255 -4 259 5 261 16 L309 305 C312 321 318 331 335 349 L645 668 C650 674 652 680 652 685 C652 695 643 703 633 703 C627 703 622 701 616 695 L297 363 L91 693 C86 699 80 702 74 702 C63 702 55 694 55 684 C55 680 56 676 59 671 Z M289 772 C270 772 257 756 257 741 C257 724 269 713 285 713 C303 713 317 727 317 744 C317 760 306 772 289 772 Z M430 772 C411 772 398 756 398 741 C398 724 410 713 426 713 C445 713 459 727 459 744 C459 760 448 772 430 772 Z " />
<glyph glyph-name="Zacute" unicode="&#x179;" horiz-adv-x="564" d="M455 0 C466 0 475 7 475 18 C475 28 468 38 455 38 L50 38 L564 639 C572 649 578 659 578 671 C578 686 567 697 543 697 L132 697 C121 697 112 690 112 679 C112 669 119 659 132 659 L531 659 L17 58 C9 48 3 39 3 27 C3 12 14 0 38 0 Z M323 787 C314 783 311 776 311 770 C311 761 317 753 327 753 C331 753 335 754 339 756 L485 825 C497 831 501 838 501 845 C501 853 495 861 484 861 C481 861 477 860 473 858 Z " />
<glyph glyph-name="Zcaron" unicode="&#x17d;" horiz-adv-x="564" d="M455 0 C466 0 475 7 475 18 C475 28 468 38 455 38 L50 38 L564 639 C572 649 578 659 578 671 C578 686 567 697 543 697 L132 697 C121 697 112 690 112 679 C112 669 119 659 132 659 L531 659 L17 58 C9 48 3 39 3 27 C3 12 14 0 38 0 Z M353 748 C362 748 369 752 378 758 L466 816 C473 821 477 827 477 833 C477 842 469 851 459 851 C455 851 451 850 447 847 L354 785 L284 845 C279 849 274 851 270 851 C260 851 252 842 252 833 C252 827 254 822 259 818 L330 758 C337 752 344 748 353 748 Z " />
<glyph glyph-name="Zdotaccent" unicode="&#x17b;" horiz-adv-x="564" d="M455 0 C466 0 475 7 475 18 C475 28 468 38 455 38 L50 38 L564 639 C572 649 578 659 578 671 C578 686 567 697 543 697 L132 697 C121 697 112 690 112 679 C112 669 119 659 132 659 L531 659 L17 58 C9 48 3 39 3 27 C3 12 14 0 38 0 Z M365 823 C346 823 333 807 333 792 C333 775 345 764 361 764 C379 764 393 778 393 795 C393 811 382 823 365 823 Z " />
<glyph glyph-name="Eth" unicode="&#xd0;" horiz-adv-x="669" d="M85 0 L268 0 C454 0 572 71 618 281 C626 316 632 366 636 401 C655 573 560 697 346 697 L202 697 C179 697 163 681 159 660 L110 363 L18 363 C8 363 -1 355 -1 344 C-1 335 6 326 19 326 L104 326 L56 37 C52 14 63 0 85 0 Z M94 38 L141 326 L342 326 C355 326 362 335 362 344 C362 355 353 363 343 363 L148 363 L196 659 L348 659 C526 659 618 559 597 395 C596 385 589 326 581 290 C540 106 439 38 272 38 Z " />
<glyph glyph-name="Thorn" unicode="&#xde;" horiz-adv-x="599" d="M124 146 L326 146 C484 146 589 238 589 369 C589 493 501 559 368 559 L193 559 L215 689 C217 702 208 709 198 709 C189 709 180 703 178 689 L66 20 C63 5 73 -3 83 -3 C91 -3 100 2 102 15 Z M131 183 L187 522 L362 522 C496 522 551 452 551 366 C551 248 447 183 329 183 Z " />
<glyph glyph-name="a" unicode="a" horiz-adv-x="545" d="M471 339 C493 469 401 522 305 522 C244 522 176 501 152 486 C145 482 140 476 140 468 C140 454 155 447 167 452 C197 465 243 485 298 485 C392 485 452 443 434 338 L421 264 C354 298 299 309 244 309 C140 309 44 256 44 146 C44 58 121 -9 241 -9 C318 -9 372 18 411 43 C422 50 423 56 426 74 Z M238 28 C132 28 82 86 82 146 C82 236 165 274 247 274 C306 274 358 258 415 229 L390 75 C360 53 310 28 238 28 Z " />
<glyph glyph-name="b" unicode="b" horiz-adv-x="564" d="M513 321 C522 456 437 522 327 522 C265 522 218 503 172 482 L205 682 C207 696 199 705 187 705 C176 705 170 697 168 687 L67 78 C65 64 63 58 72 50 C88 36 177 -9 275 -9 C389 -9 465 52 494 188 C502 226 511 288 513 321 Z M454 181 C430 84 372 29 275 29 C206 29 131 58 105 77 L165 438 C197 455 256 485 327 485 C426 485 481 428 476 328 C474 292 464 221 454 181 Z " />
<glyph glyph-name="c" unicode="c" horiz-adv-x="543" d="M263 29 C181 29 85 81 99 206 C102 231 111 293 117 322 C141 434 204 485 302 485 C354 485 426 467 451 380 C455 367 463 363 471 363 C482 363 489 371 489 382 C489 389 486 398 484 405 C465 461 409 522 301 522 C189 522 104 460 80 322 C73 282 66 241 63 214 C44 64 157 -9 264 -9 C390 -9 436 82 450 120 C452 126 453 130 453 135 C453 147 445 154 435 154 C425 154 419 148 416 138 C388 51 313 29 263 29 Z " />
<glyph glyph-name="d" unicode="d" horiz-adv-x="592" d="M80 322 C74 288 67 249 63 214 C44 64 137 -9 258 -9 C333 -9 394 21 423 39 C441 50 442 57 444 69 L546 682 C548 696 540 705 528 705 C517 705 511 697 509 687 L474 475 C434 497 373 522 296 522 C186 522 104 458 80 322 Z M99 206 C104 246 111 293 117 322 C140 429 199 485 298 485 C371 485 437 455 467 434 L407 71 C377 53 317 29 259 29 C154 29 85 81 99 206 Z " />
<glyph glyph-name="e" unicode="e" horiz-adv-x="539" d="M104 240 L418 240 C454 240 471 260 478 289 L481 302 C518 460 407 522 312 522 C203 522 115 471 82 320 C75 289 67 246 62 210 C46 78 130 -9 272 -9 C329 -9 379 11 410 27 C420 32 427 38 427 47 C427 55 421 65 410 65 C407 65 403 64 399 61 C350 36 302 27 266 27 C160 27 80 92 99 209 Z M110 277 C132 416 191 485 306 485 C399 485 480 434 443 295 C440 283 434 277 419 277 Z " />
<glyph glyph-name="f" unicode="f" horiz-adv-x="364" d="M147 504 L97 504 C86 504 77 497 77 486 C77 476 84 466 97 466 L141 466 L66 19 C64 5 72 -4 84 -4 C95 -4 102 4 104 14 L179 466 L342 466 C353 466 362 474 362 485 C362 495 355 504 342 504 L185 504 L193 555 C205 629 238 673 315 673 C360 673 377 661 392 661 C403 661 411 670 411 679 C411 686 406 693 395 697 C379 703 346 710 320 710 C224 710 171 652 156 559 Z " />
<glyph glyph-name="g" unicode="g" horiz-adv-x="578" d="M522 439 C525 455 521 461 511 468 C476 493 407 522 320 522 C203 522 121 458 97 322 C89 279 84 249 80 214 C63 81 142 2 272 2 C322 2 375 18 421 48 C404 -106 319 -154 231 -154 C166 -154 117 -127 86 -100 C79 -94 74 -91 68 -91 C56 -91 50 -101 50 -108 C50 -117 54 -121 59 -126 C85 -151 150 -190 232 -190 C312 -190 425 -156 454 21 Z M324 485 C409 485 460 455 484 438 L429 95 C387 65 335 40 267 40 C156 40 104 107 116 206 C121 246 128 293 134 322 C156 429 216 485 324 485 Z " />
<glyph glyph-name="h" unicode="h" horiz-adv-x="603" d="M214 682 C216 696 208 705 196 705 C185 705 179 697 177 687 L66 19 C64 5 72 -4 84 -4 C95 -4 101 4 103 14 L169 407 C235 457 302 485 363 485 C444 485 508 446 486 310 L436 16 C434 4 444 -4 453 -4 C466 -4 471 4 473 16 L523 312 C551 478 456 522 367 522 C292 522 229 490 177 455 Z " />
<glyph glyph-name="i" unicode="i" horiz-adv-x="266" d="M226 667 C226 683 216 697 197 697 C174 697 163 678 163 661 C163 645 173 631 193 631 C215 631 226 650 226 667 Z M66 19 C64 5 72 -4 84 -4 C95 -4 101 4 103 14 L183 492 C185 506 177 515 165 515 C154 515 148 507 146 497 Z " />
<glyph glyph-name="j" unicode="j" horiz-adv-x="264" d="M75 45 C60 -47 26 -104 -50 -158 C-57 -163 -60 -170 -60 -176 C-60 -186 -52 -192 -43 -192 C-38 -192 -32 -190 -26 -185 C39 -134 90 -92 114 51 L187 492 C189 506 181 515 169 515 C158 515 152 507 150 497 Z M224 667 C224 683 214 697 195 697 C172 697 161 678 161 661 C161 645 171 631 191 631 C213 631 224 650 224 667 Z " />
<glyph glyph-name="k" unicode="k" horiz-adv-x="511" d="M196 705 C185 705 179 697 177 687 L66 19 C64 5 72 -4 84 -4 C95 -4 101 4 103 14 L142 248 L181 248 C212 248 222 242 237 221 L394 6 C399 -1 405 -4 411 -4 C422 -4 430 4 430 13 C430 18 428 24 423 30 L251 266 L480 484 C486 490 489 495 489 502 C489 513 481 519 471 519 C467 519 461 517 456 512 L245 311 C223 290 211 285 181 285 L148 285 L214 682 C216 696 208 705 196 705 Z " />
<glyph glyph-name="l" unicode="l" horiz-adv-x="255" d="M66 19 C64 5 72 -4 84 -4 C95 -4 101 4 103 14 L214 682 C216 696 208 705 196 705 C185 705 179 697 177 687 Z " />
<glyph glyph-name="m" unicode="m" horiz-adv-x="865" d="M785 316 C807 446 749 523 634 523 C557 523 495 484 453 448 C433 497 372 523 309 523 C253 523 185 502 149 475 C136 465 129 455 127 445 L56 19 C54 5 62 -4 74 -4 C85 -4 91 4 93 14 L164 443 C195 464 251 486 311 486 C394 486 449 443 429 328 L376 17 C374 4 384 -4 393 -4 C406 -4 411 4 413 16 L464 320 C470 358 470 392 465 413 C498 442 558 486 631 486 C719 486 766 432 747 316 L697 16 C695 5 705 -4 716 -4 C729 -4 733 5 735 16 Z " />
<glyph glyph-name="n" unicode="n" horiz-adv-x="593" d="M513 310 C542 480 431 522 336 522 C254 522 181 491 148 472 C132 463 128 457 126 443 L56 19 C54 5 62 -4 74 -4 C85 -4 91 4 93 14 L163 437 C201 459 266 485 335 485 C398 485 502 465 476 309 L426 17 C424 4 434 -4 443 -4 C456 -4 461 4 463 16 Z " />
<glyph glyph-name="o" unicode="o" horiz-adv-x="554" d="M305 522 C189 522 107 456 80 328 C71 287 63 230 61 206 C49 63 162 -9 272 -9 C377 -9 457 56 484 185 C493 226 501 283 503 307 C515 450 406 522 305 522 Z M465 303 C463 283 456 230 449 197 C425 85 367 29 268 29 C189 29 84 80 99 210 C101 230 108 283 115 316 C139 428 200 485 304 485 C380 485 480 433 465 303 Z " />
<glyph glyph-name="p" unicode="p" horiz-adv-x="552" d="M482 192 C488 226 494 265 499 300 C521 451 425 522 304 522 C229 522 168 493 139 475 C121 464 120 457 118 445 L16 -168 C14 -182 22 -191 34 -191 C45 -191 52 -183 54 -173 L88 39 C128 17 189 -8 266 -8 C376 -8 458 56 482 192 Z M463 308 C458 268 451 221 445 192 C422 85 363 30 264 30 C191 30 125 59 96 80 L155 443 C185 462 245 486 303 486 C408 486 478 433 463 308 Z " />
<glyph glyph-name="q" unicode="q" horiz-adv-x="554" d="M51 192 C42 57 127 -8 241 -8 C297 -8 346 10 392 31 L359 -169 C357 -183 365 -192 377 -192 C388 -192 394 -184 396 -174 L497 435 C499 449 501 455 492 463 C476 477 385 522 287 522 C173 522 99 461 70 325 C62 287 53 225 51 192 Z M110 332 C134 429 190 485 287 485 C356 485 433 456 460 436 L399 75 C367 58 308 29 237 29 C138 29 84 85 89 185 C91 221 100 292 110 332 Z " />
<glyph glyph-name="r" unicode="r" horiz-adv-x="361" d="M369 507 C344 515 320 522 279 522 C198 522 136 499 115 374 L56 19 C54 5 62 -4 74 -4 C85 -4 91 4 93 14 L151 366 C167 463 214 485 272 485 C311 485 330 478 346 474 C351 473 358 470 366 470 C377 470 385 478 385 489 C385 497 380 504 369 507 Z " />
<glyph glyph-name="s" unicode="s" horiz-adv-x="485" d="M254 281 C186 311 139 334 139 386 C139 443 195 486 274 486 C325 486 364 468 401 443 C406 439 411 436 417 436 C428 436 435 445 435 454 C435 459 433 464 427 470 C409 488 350 522 274 522 C189 522 102 477 102 386 C102 310 175 277 230 251 C298 219 368 203 368 133 C368 69 311 29 233 29 C171 29 111 56 68 87 C61 92 54 98 47 98 C36 98 29 89 29 80 C29 75 31 70 36 65 C55 45 135 -9 235 -9 C332 -9 405 50 405 133 C405 216 334 246 254 281 Z " />
<glyph glyph-name="t" unicode="t" horiz-adv-x="400" d="M291 13 C304 19 309 26 309 34 C309 43 302 52 291 52 C285 52 277 47 269 44 C248 36 233 30 201 30 C119 30 107 86 119 157 L171 467 L340 467 C351 467 360 474 360 485 C360 495 353 504 340 504 L177 504 L192 594 C194 607 185 615 175 615 C164 615 157 608 155 596 L82 156 C63 40 116 -8 204 -8 C235 -8 267 1 291 13 Z " />
<glyph glyph-name="u" unicode="u" horiz-adv-x="574" d="M75 221 C49 64 140 -9 261 -9 C342 -9 410 26 441 48 C452 56 458 64 459 73 L528 492 C530 506 522 515 510 515 C499 515 493 507 491 497 L423 82 C381 53 320 29 261 29 C167 29 89 75 113 221 L158 494 C160 507 150 515 141 515 C128 515 123 507 121 495 Z " />
<glyph glyph-name="v" unicode="v" horiz-adv-x="505" d="M218 39 C213 30 200 29 197 42 C195 54 190 78 186 96 L101 498 C98 506 94 516 81 516 C69 516 61 505 64 491 L163 34 C170 4 187 -6 206 -6 C228 -6 239 6 253 30 L504 489 C513 506 499 516 490 516 C482 516 476 513 469 500 L248 96 C234 69 225 51 218 39 Z " />
<glyph glyph-name="w" unicode="w" horiz-adv-x="801" d="M497 28 C501 -1 517 -15 539 -15 C558 -15 571 -3 583 21 L800 489 C807 504 799 518 785 518 C780 518 772 517 765 504 L582 107 C573 87 563 63 549 33 C546 26 542 24 539 24 C536 24 532 26 531 35 C528 59 526 82 523 104 L477 475 C473 510 458 518 437 518 C420 518 407 509 394 481 L220 105 C210 81 200 57 190 33 C188 28 185 24 179 24 C174 24 169 27 168 37 C165 62 163 85 160 107 L112 497 C110 514 101 518 93 518 C79 518 73 506 75 492 L135 28 C139 -5 159 -15 178 -15 C195 -15 207 -5 220 21 L427 472 C429 477 432 479 435 479 C438 479 442 477 443 469 Z " />
<glyph glyph-name="x" unicode="x" horiz-adv-x="517" d="M382 10 C387 2 392 -3 401 -3 C412 -3 418 5 418 13 C418 18 416 23 413 28 L275 262 L476 482 C480 487 482 492 482 497 C482 506 474 514 464 514 C460 514 454 512 449 506 L256 295 L132 505 C128 511 123 514 117 514 C107 514 99 507 99 497 C99 494 100 490 103 485 L231 268 L11 31 C5 24 3 19 3 13 C3 4 11 -3 21 -3 C27 -3 31 -1 36 4 L249 234 Z " />
<glyph glyph-name="y" unicode="y" horiz-adv-x="497" d="M100 497 C97 507 91 513 80 513 C70 513 58 506 63 487 L191 33 C129 -79 74 -130 18 -158 C10 -162 5 -167 5 -175 C5 -186 15 -191 21 -191 C27 -191 34 -190 44 -185 C99 -157 157 -102 222 15 L489 485 C496 497 489 513 474 513 C464 513 460 508 455 499 L251 139 C238 116 229 99 223 89 C220 84 218 83 216 83 C212 83 211 87 210 91 C206 111 201 128 197 143 Z " />
<glyph glyph-name="z" unicode="z" horiz-adv-x="488" d="M456 447 C463 454 469 464 469 474 C469 491 458 504 428 504 L131 504 C120 504 111 497 111 485 C111 476 118 467 131 467 L426 467 L41 57 C33 48 27 40 27 29 C27 13 38 0 63 0 L377 0 C389 0 396 9 396 19 C396 30 388 36 377 36 L70 36 Z " />
<glyph glyph-name="agrave" unicode="&#xe0;" horiz-adv-x="545" d="M471 339 C493 469 401 522 305 522 C244 522 176 501 152 486 C145 482 140 476 140 468 C140 454 155 447 167 452 C197 465 243 485 298 485 C392 485 452 443 434 338 L421 264 C354 298 299 309 244 309 C140 309 44 256 44 146 C44 58 121 -9 241 -9 C318 -9 372 18 411 43 C422 50 423 56 426 74 Z M238 28 C132 28 82 86 82 146 C82 236 165 274 247 274 C306 274 358 258 415 229 L390 75 C360 53 310 28 238 28 Z M368 588 C378 588 388 594 388 605 C388 611 385 617 377 621 L255 690 C249 693 245 694 240 694 C229 694 222 687 222 677 C222 671 225 664 233 660 L355 592 C360 589 364 588 368 588 Z " />
<glyph glyph-name="aacute" unicode="&#xe1;" horiz-adv-x="545" d="M471 339 C493 469 401 522 305 522 C244 522 176 501 152 486 C145 482 140 476 140 468 C140 454 155 447 167 452 C197 465 243 485 298 485 C392 485 452 443 434 338 L421 264 C354 298 299 309 244 309 C140 309 44 256 44 146 C44 58 121 -9 241 -9 C318 -9 372 18 411 43 C422 50 423 56 426 74 Z M238 28 C132 28 82 86 82 146 C82 236 165 274 247 274 C306 274 358 258 415 229 L390 75 C360 53 310 28 238 28 Z M282 622 C273 618 270 611 270 605 C270 596 276 588 286 588 C290 588 294 589 298 591 L444 660 C456 666 460 673 460 680 C460 688 454 696 443 696 C440 696 436 695 432 693 Z " />
<glyph glyph-name="acircumflex" unicode="&#xe2;" horiz-adv-x="545" d="M471 339 C493 469 401 522 305 522 C244 522 176 501 152 486 C145 482 140 476 140 468 C140 454 155 447 167 452 C197 465 243 485 298 485 C392 485 452 443 434 338 L421 264 C354 298 299 309 244 309 C140 309 44 256 44 146 C44 58 121 -9 241 -9 C318 -9 372 18 411 43 C422 50 423 56 426 74 Z M238 28 C132 28 82 86 82 146 C82 236 165 274 247 274 C306 274 358 258 415 229 L390 75 C360 53 310 28 238 28 Z M343 640 L407 580 C412 576 415 574 422 574 C432 574 440 582 440 591 C440 596 438 601 432 606 L367 667 C360 673 353 677 344 677 C335 677 328 674 319 668 L223 608 C215 603 212 597 212 590 C212 581 219 574 228 574 C233 574 237 575 242 578 Z " />
<glyph glyph-name="atilde" unicode="&#xe3;" horiz-adv-x="545" d="M471 339 C493 469 401 522 305 522 C244 522 176 501 152 486 C145 482 140 476 140 468 C140 454 155 447 167 452 C197 465 243 485 298 485 C392 485 452 443 434 338 L421 264 C354 298 299 309 244 309 C140 309 44 256 44 146 C44 58 121 -9 241 -9 C318 -9 372 18 411 43 C422 50 423 56 426 74 Z M238 28 C132 28 82 86 82 146 C82 236 165 274 247 274 C306 274 358 258 415 229 L390 75 C360 53 310 28 238 28 Z M388 595 C410 595 432 607 451 620 C460 626 463 631 463 639 C463 649 453 657 444 657 C427 657 413 632 389 632 C357 632 332 669 287 669 C265 669 240 658 223 642 C219 638 214 633 214 625 C214 616 220 607 232 607 C250 607 260 632 286 632 C314 632 342 595 388 595 Z " />
<glyph glyph-name="adieresis" unicode="&#xe4;" horiz-adv-x="545" d="M471 339 C493 469 401 522 305 522 C244 522 176 501 152 486 C145 482 140 476 140 468 C140 454 155 447 167 452 C197 465 243 485 298 485 C392 485 452 443 434 338 L421 264 C354 298 299 309 244 309 C140 309 44 256 44 146 C44 58 121 -9 241 -9 C318 -9 372 18 411 43 C422 50 423 56 426 74 Z M238 28 C132 28 82 86 82 146 C82 236 165 274 247 274 C306 274 358 258 415 229 L390 75 C360 53 310 28 238 28 Z M271 661 C252 661 239 645 239 630 C239 613 251 602 267 602 C285 602 299 616 299 633 C299 649 288 661 271 661 Z M412 661 C393 661 380 645 380 630 C380 613 392 602 408 602 C427 602 441 616 441 633 C441 649 430 661 412 661 Z " />
<glyph glyph-name="amacron" unicode="&#x101;" horiz-adv-x="545" d="M471 339 C493 469 401 522 305 522 C244 522 176 501 152 486 C145 482 140 476 140 468 C140 454 155 447 167 452 C197 465 243 485 298 485 C392 485 452 443 434 338 L421 264 C354 298 299 309 244 309 C140 309 44 256 44 146 C44 58 121 -9 241 -9 C318 -9 372 18 411 43 C422 50 423 56 426 74 Z M238 28 C132 28 82 86 82 146 C82 236 165 274 247 274 C306 274 358 258 415 229 L390 75 C360 53 310 28 238 28 Z M253 614 L423 614 C433 614 441 622 441 632 C441 642 433 650 423 650 L253 650 C242 650 234 642 234 632 C234 622 242 614 253 614 Z " />
<glyph glyph-name="abreve" unicode="&#x103;" horiz-adv-x="545" d="M471 339 C493 469 401 522 305 522 C244 522 176 501 152 486 C145 482 140 476 140 468 C140 454 155 447 167 452 C197 465 243 485 298 485 C392 485 452 443 434 338 L421 264 C354 298 299 309 244 309 C140 309 44 256 44 146 C44 58 121 -9 241 -9 C318 -9 372 18 411 43 C422 50 423 56 426 74 Z M238 28 C132 28 82 86 82 146 C82 236 165 274 247 274 C306 274 358 258 415 229 L390 75 C360 53 310 28 238 28 Z M340 589 C394 589 429 624 444 660 C447 667 449 675 449 680 C449 692 440 696 432 696 C421 696 416 687 413 679 C402 649 381 624 341 624 C298 624 286 654 281 676 C279 687 277 696 265 696 C256 696 248 690 248 676 C248 667 250 659 251 656 C265 608 302 589 340 589 Z " />
<glyph glyph-name="aring" unicode="&#xe5;" horiz-adv-x="545" d="M471 339 C493 469 401 522 305 522 C244 522 176 501 152 486 C145 482 140 476 140 468 C140 454 155 447 167 452 C197 465 243 485 298 485 C392 485 452 443 434 338 L421 264 C354 298 299 309 244 309 C140 309 44 256 44 146 C44 58 121 -9 241 -9 C318 -9 372 18 411 43 C422 50 423 56 426 74 Z M238 28 C132 28 82 86 82 146 C82 236 165 274 247 274 C306 274 358 258 415 229 L390 75 C360 53 310 28 238 28 Z M337 566 C392 566 422 613 422 655 C422 694 396 729 348 729 C291 729 262 683 262 642 C262 601 290 566 337 566 Z M337 594 C305 594 290 617 290 641 C290 670 310 701 348 701 C380 701 395 678 395 654 C395 625 375 594 337 594 Z " />
<glyph glyph-name="aogonek" unicode="&#x105;" horiz-adv-x="545" d="M316 -167 C337 -167 360 -160 378 -147 C386 -141 393 -134 393 -125 C393 -115 385 -109 378 -109 C372 -109 365 -113 360 -117 C345 -128 331 -132 314 -132 C292 -132 263 -116 263 -82 C263 -12 351 9 401 37 C419 47 423 57 426 75 L471 339 C493 469 401 522 305 522 C244 522 176 501 152 486 C145 482 140 476 140 468 C140 454 155 447 167 452 C197 465 243 485 298 485 C392 485 452 443 434 338 L421 264 C354 298 296 309 246 309 C142 309 44 258 44 146 C44 57 123 -8 237 -8 C242 -8 256 -8 264 -7 C242 -27 228 -52 228 -83 C228 -132 268 -167 316 -167 Z M238 28 C132 28 82 84 82 146 C82 235 165 274 247 274 C306 274 358 258 415 229 L390 75 C360 53 310 28 238 28 Z " />
<glyph glyph-name="ae" unicode="&#xe6;" horiz-adv-x="887" d="M421 264 C354 298 297 309 247 309 C144 309 44 260 44 146 C44 57 123 -9 240 -9 C318 -9 381 21 445 67 C480 19 540 -9 620 -9 C677 -9 727 11 758 27 C768 32 775 38 775 47 C775 55 769 65 758 65 C755 65 751 64 747 61 C698 36 650 27 614 27 C525 27 445 75 445 178 C445 196 448 218 453 240 L766 240 C802 240 819 260 826 289 L829 302 C866 460 752 522 660 522 C580 522 511 492 467 417 C447 489 377 522 305 522 C244 522 176 501 152 486 C145 482 140 476 140 468 C140 454 155 447 167 452 C197 465 243 485 298 485 C392 485 453 443 434 338 Z M237 28 C134 28 82 85 82 146 C82 237 167 274 247 274 C305 274 357 258 413 230 C405 174 410 129 424 97 C380 61 318 28 237 28 Z M458 277 C480 416 539 485 654 485 C747 485 827 434 790 295 C787 283 781 277 766 277 Z " />
<glyph glyph-name="cacute" unicode="&#x107;" horiz-adv-x="543" d="M263 29 C181 29 85 81 99 206 C102 231 111 293 117 322 C141 434 204 485 302 485 C354 485 426 467 451 380 C455 367 463 363 471 363 C482 363 489 371 489 382 C489 389 486 398 484 405 C465 461 409 522 301 522 C189 522 104 460 80 322 C73 282 66 241 63 214 C44 64 157 -9 264 -9 C390 -9 436 82 450 120 C452 126 453 130 453 135 C453 147 445 154 435 154 C425 154 419 148 416 138 C388 51 313 29 263 29 Z M273 622 C264 618 261 611 261 605 C261 596 267 588 277 588 C281 588 285 589 289 591 L435 660 C447 666 451 673 451 680 C451 688 445 696 434 696 C431 696 427 695 423 693 Z " />
<glyph glyph-name="ccaron" unicode="&#x10d;" horiz-adv-x="543" d="M263 29 C181 29 85 81 99 206 C102 231 111 293 117 322 C141 434 204 485 302 485 C354 485 426 467 451 380 C455 367 463 363 471 363 C482 363 489 371 489 382 C489 389 486 398 484 405 C465 461 409 522 301 522 C189 522 104 460 80 322 C73 282 66 241 63 214 C44 64 157 -9 264 -9 C390 -9 436 82 450 120 C452 126 453 130 453 135 C453 147 445 154 435 154 C425 154 419 148 416 138 C388 51 313 29 263 29 Z M321 586 C330 586 337 590 346 596 L434 654 C441 659 445 665 445 671 C445 680 437 689 427 689 C423 689 419 688 415 685 L322 623 L252 683 C247 687 242 689 238 689 C228 689 220 680 220 671 C220 665 222 660 227 656 L298 596 C305 590 312 586 321 586 Z " />
<glyph glyph-name="cdotaccent" unicode="&#x10b;" horiz-adv-x="543" d="M263 29 C181 29 85 81 99 206 C102 231 111 293 117 322 C141 434 204 485 302 485 C354 485 426 467 451 380 C455 367 463 363 471 363 C482 363 489 371 489 382 C489 389 486 398 484 405 C465 461 409 522 301 522 C189 522 104 460 80 322 C73 282 66 241 63 214 C44 64 157 -9 264 -9 C390 -9 436 82 450 120 C452 126 453 130 453 135 C453 147 445 154 435 154 C425 154 419 148 416 138 C388 51 313 29 263 29 Z M329 661 C310 661 297 645 297 630 C297 613 309 602 325 602 C343 602 357 616 357 633 C357 649 346 661 329 661 Z " />
<glyph glyph-name="ccedilla" unicode="&#xe7;" horiz-adv-x="543" d="M470 363 C482 363 489 371 489 382 C489 389 486 398 484 405 C465 461 409 522 301 522 C189 522 104 460 80 322 C73 282 66 241 63 214 C46 81 133 9 227 -6 L194 -73 C187 -88 193 -100 207 -100 C217 -100 225 -93 240 -93 C257 -93 275 -102 275 -125 C275 -169 209 -190 175 -201 C163 -205 158 -210 158 -218 C158 -226 164 -233 175 -233 C181 -233 188 -232 192 -231 C233 -221 311 -187 311 -123 C311 -84 279 -56 237 -60 L264 -9 C390 -9 436 82 450 120 C452 126 453 130 453 135 C453 147 445 154 435 154 C425 154 419 148 416 138 C388 51 313 29 263 29 C181 29 85 81 99 206 C102 231 111 293 117 322 C141 434 204 485 302 485 C354 485 426 467 451 380 C455 367 463 363 470 363 Z " />
<glyph glyph-name="dcaron" unicode="&#x10f;" horiz-adv-x="597" d="M80 322 C74 288 67 249 63 214 C44 64 137 -9 258 -9 C333 -9 394 21 423 39 C441 50 442 57 444 69 L546 682 C548 696 540 705 528 705 C517 705 511 697 509 687 L474 475 C434 497 373 522 296 522 C186 522 104 458 80 322 Z M99 206 C104 246 111 293 117 322 C140 429 199 485 298 485 C371 485 437 455 467 434 L407 71 C377 53 317 29 259 29 C154 29 85 81 99 206 Z M606 544 C615 544 622 549 632 559 C652 580 663 598 672 642 L680 683 C683 697 674 706 664 706 C655 706 646 699 644 687 L636 647 C630 613 626 605 599 576 C593 570 590 565 590 559 C590 551 596 544 606 544 Z " />
<glyph glyph-name="dcroat" unicode="&#x111;" horiz-adv-x="592" d="M354 605 C354 596 361 587 374 587 L492 587 L474 475 C434 497 373 522 296 522 C186 522 104 458 80 322 C74 288 67 249 63 214 C44 64 137 -9 258 -9 C333 -9 394 21 423 39 C441 50 442 57 444 69 L530 587 L568 587 C584 587 592 597 592 607 C592 616 585 624 570 624 L536 624 L546 682 C548 696 540 705 528 705 C517 705 511 697 509 687 L498 624 L373 624 C363 624 354 616 354 605 Z M407 71 C377 53 317 29 259 29 C154 29 85 81 99 206 C104 246 111 293 117 322 C140 429 199 485 298 485 C371 485 437 455 467 434 Z " />
<glyph glyph-name="egrave" unicode="&#xe8;" horiz-adv-x="539" d="M104 240 L418 240 C454 240 471 260 478 289 L481 302 C518 460 407 522 312 522 C203 522 115 471 82 320 C75 289 67 246 62 210 C46 78 130 -9 272 -9 C329 -9 379 11 410 27 C420 32 427 38 427 47 C427 55 421 65 410 65 C407 65 403 64 399 61 C350 36 302 27 266 27 C160 27 80 92 99 209 Z M110 277 C132 416 191 485 306 485 C399 485 480 434 443 295 C440 283 434 277 419 277 Z M372 588 C382 588 392 594 392 605 C392 611 389 617 381 621 L259 690 C253 693 249 694 244 694 C233 694 226 687 226 677 C226 671 229 664 237 660 L359 592 C364 589 368 588 372 588 Z " />
<glyph glyph-name="eacute" unicode="&#xe9;" horiz-adv-x="539" d="M104 240 L418 240 C454 240 471 260 478 289 L481 302 C518 460 407 522 312 522 C203 522 115 471 82 320 C75 289 67 246 62 210 C46 78 130 -9 272 -9 C329 -9 379 11 410 27 C420 32 427 38 427 47 C427 55 421 65 410 65 C407 65 403 64 399 61 C350 36 302 27 266 27 C160 27 80 92 99 209 Z M110 277 C132 416 191 485 306 485 C399 485 480 434 443 295 C440 283 434 277 419 277 Z M294 623 C285 619 282 612 282 606 C282 597 288 589 298 589 C302 589 306 590 310 592 L456 661 C468 667 472 674 472 681 C472 689 466 697 455 697 C452 697 448 696 444 694 Z " />
<glyph glyph-name="ecircumflex" unicode="&#xea;" horiz-adv-x="539" d="M104 240 L418 240 C454 240 471 260 478 289 L481 302 C518 460 407 522 312 522 C203 522 115 471 82 320 C75 289 67 246 62 210 C46 78 130 -9 272 -9 C329 -9 379 11 410 27 C420 32 427 38 427 47 C427 55 421 65 410 65 C407 65 403 64 399 61 C350 36 302 27 266 27 C160 27 80 92 99 209 Z M110 277 C132 416 191 485 306 485 C399 485 480 434 443 295 C440 283 434 277 419 277 Z M348 655 L412 595 C417 591 420 589 427 589 C437 589 445 597 445 606 C445 611 443 616 437 621 L372 682 C365 688 358 692 349 692 C340 692 333 689 324 683 L228 623 C220 618 217 612 217 605 C217 596 224 589 233 589 C238 589 242 590 247 593 Z " />
<glyph glyph-name="ecaron" unicode="&#x11b;" horiz-adv-x="539" d="M104 240 L418 240 C454 240 471 260 478 289 L481 302 C518 460 407 522 312 522 C203 522 115 471 82 320 C75 289 67 246 62 210 C46 78 130 -9 272 -9 C329 -9 379 11 410 27 C420 32 427 38 427 47 C427 55 421 65 410 65 C407 65 403 64 399 61 C350 36 302 27 266 27 C160 27 80 92 99 209 Z M110 277 C132 416 191 485 306 485 C399 485 480 434 443 295 C440 283 434 277 419 277 Z M338 585 C347 585 354 589 363 595 L451 653 C458 658 462 664 462 670 C462 679 454 688 444 688 C440 688 436 687 432 684 L339 622 L269 682 C264 686 259 688 255 688 C245 688 237 679 237 670 C237 664 239 659 244 655 L315 595 C322 589 329 585 338 585 Z " />
<glyph glyph-name="edieresis" unicode="&#xeb;" horiz-adv-x="539" d="M104 240 L418 240 C454 240 471 260 478 289 L481 302 C518 460 407 522 312 522 C203 522 115 471 82 320 C75 289 67 246 62 210 C46 78 130 -9 272 -9 C329 -9 379 11 410 27 C420 32 427 38 427 47 C427 55 421 65 410 65 C407 65 403 64 399 61 C350 36 302 27 266 27 C160 27 80 92 99 209 Z M110 277 C132 416 191 485 306 485 C399 485 480 434 443 295 C440 283 434 277 419 277 Z M271 661 C252 661 239 645 239 630 C239 613 251 602 267 602 C285 602 299 616 299 633 C299 649 288 661 271 661 Z M412 661 C393 661 380 645 380 630 C380 613 392 602 408 602 C427 602 441 616 441 633 C441 649 430 661 412 661 Z " />
<glyph glyph-name="emacron" unicode="&#x113;" horiz-adv-x="539" d="M104 240 L418 240 C454 240 471 260 478 289 L481 302 C518 460 407 522 312 522 C203 522 115 471 82 320 C75 289 67 246 62 210 C46 78 130 -9 272 -9 C329 -9 379 11 410 27 C420 32 427 38 427 47 C427 55 421 65 410 65 C407 65 403 64 399 61 C350 36 302 27 266 27 C160 27 80 92 99 209 Z M110 277 C132 416 191 485 306 485 C399 485 480 434 443 295 C440 283 434 277 419 277 Z M265 615 L435 615 C445 615 453 623 453 633 C453 643 445 651 435 651 L265 651 C254 651 246 643 246 633 C246 623 254 615 265 615 Z " />
<glyph glyph-name="edotaccent" unicode="&#x117;" horiz-adv-x="539" d="M104 240 L418 240 C454 240 471 260 478 289 L481 302 C518 460 407 522 312 522 C203 522 115 471 82 320 C75 289 67 246 62 210 C46 78 130 -9 272 -9 C329 -9 379 11 410 27 C420 32 427 38 427 47 C427 55 421 65 410 65 C407 65 403 64 399 61 C350 36 302 27 266 27 C160 27 80 92 99 209 Z M110 277 C132 416 191 485 306 485 C399 485 480 434 443 295 C440 283 434 277 419 277 Z M343 660 C324 660 311 644 311 629 C311 612 323 601 339 601 C357 601 371 615 371 632 C371 648 360 660 343 660 Z " />
<glyph glyph-name="eogonek" unicode="&#x119;" horiz-adv-x="539" d="M329 -177 C352 -177 375 -170 393 -157 C401 -151 408 -144 408 -135 C408 -125 400 -119 393 -119 C387 -119 380 -123 375 -127 C360 -138 344 -142 329 -142 C303 -142 278 -129 278 -92 C278 -29 349 2 398 22 C423 32 427 38 427 47 C427 55 421 65 410 65 C407 65 403 64 399 61 C350 36 302 27 266 27 C160 27 80 92 99 209 L104 240 L418 240 C454 240 471 260 478 289 L481 302 C518 460 407 522 312 522 C203 522 115 471 82 320 C75 289 67 246 62 210 C45 72 140 -17 287 -8 C260 -30 243 -61 243 -93 C243 -150 285 -177 329 -177 Z M110 277 C132 416 191 485 306 485 C399 485 480 434 443 295 C440 283 434 277 419 277 Z " />
<glyph glyph-name="gbreve" unicode="&#x11f;" horiz-adv-x="578" d="M522 439 C525 455 521 461 511 468 C476 493 407 522 320 522 C203 522 121 458 97 322 C89 279 84 249 80 214 C63 81 142 2 272 2 C322 2 375 18 421 48 C404 -106 319 -154 231 -154 C166 -154 117 -127 86 -100 C79 -94 74 -91 68 -91 C56 -91 50 -101 50 -108 C50 -117 54 -121 59 -126 C85 -151 150 -190 232 -190 C312 -190 425 -156 454 21 Z M324 485 C409 485 460 455 484 438 L429 95 C387 65 335 40 267 40 C156 40 104 107 116 206 C121 246 128 293 134 322 C156 429 216 485 324 485 Z M395 589 C449 589 484 624 499 660 C502 667 504 675 504 680 C504 692 495 696 487 696 C476 696 471 687 468 679 C457 649 436 624 396 624 C353 624 341 654 336 676 C334 687 332 696 320 696 C311 696 303 690 303 676 C303 667 305 659 306 656 C320 608 357 589 395 589 Z " />
<glyph glyph-name="gdotaccent" unicode="&#x121;" horiz-adv-x="578" d="M522 439 C525 455 521 461 511 468 C476 493 407 522 320 522 C203 522 121 458 97 322 C89 279 84 249 80 214 C63 81 142 2 272 2 C322 2 375 18 421 48 C404 -106 319 -154 231 -154 C166 -154 117 -127 86 -100 C79 -94 74 -91 68 -91 C56 -91 50 -101 50 -108 C50 -117 54 -121 59 -126 C85 -151 150 -190 232 -190 C312 -190 425 -156 454 21 Z M324 485 C409 485 460 455 484 438 L429 95 C387 65 335 40 267 40 C156 40 104 107 116 206 C121 246 128 293 134 322 C156 429 216 485 324 485 Z M404 661 C385 661 372 645 372 630 C372 613 384 602 400 602 C418 602 432 616 432 633 C432 649 421 661 404 661 Z " />
<glyph glyph-name="gcommaaccent" unicode="&#x123;" horiz-adv-x="578" d="M522 439 C525 455 521 461 511 468 C476 493 407 522 320 522 C203 522 121 458 97 322 C89 279 84 249 80 214 C63 81 142 2 272 2 C322 2 375 18 421 48 C404 -106 319 -154 231 -154 C166 -154 117 -127 86 -100 C79 -94 74 -91 68 -91 C56 -91 50 -101 50 -108 C50 -117 54 -121 59 -126 C85 -151 150 -190 232 -190 C312 -190 425 -156 454 21 Z M324 485 C409 485 460 455 484 438 L429 95 C387 65 335 40 267 40 C156 40 104 107 116 206 C121 246 128 293 134 322 C156 429 216 485 324 485 Z M383 547 C392 547 399 553 404 557 C430 584 443 603 453 658 L462 713 C466 727 456 735 446 735 C437 735 428 729 426 717 L416 663 C410 629 403 608 376 579 C370 573 367 568 367 562 C367 554 373 547 383 547 Z " />
<glyph glyph-name="igrave" unicode="&#xec;" horiz-adv-x="266" d="M186 588 C196 588 206 594 206 605 C206 611 203 617 195 621 L73 690 C67 693 63 694 58 694 C47 694 40 687 40 677 C40 671 43 664 51 660 L173 592 C178 589 182 588 186 588 Z M63 19 C61 5 69 -4 81 -4 C92 -4 98 4 100 14 L180 492 C182 506 174 515 162 515 C151 515 145 507 143 497 Z " />
<glyph glyph-name="iacute" unicode="&#xed;" horiz-adv-x="266" d="M171 622 C162 618 159 611 159 605 C159 596 165 588 175 588 C179 588 183 589 187 591 L333 660 C345 666 349 673 349 680 C349 688 343 696 332 696 C329 696 325 695 321 693 Z M63 19 C61 5 69 -4 81 -4 C92 -4 98 4 100 14 L180 492 C182 506 174 515 162 515 C151 515 145 507 143 497 Z " />
<glyph glyph-name="icircumflex" unicode="&#xee;" horiz-adv-x="266" d="M63 19 C61 5 69 -4 81 -4 C92 -4 98 4 100 14 L180 492 C182 506 174 515 162 515 C151 515 145 507 143 497 Z M191 655 L255 595 C260 591 263 589 270 589 C280 589 288 597 288 606 C288 611 286 616 280 621 L215 682 C208 688 201 692 192 692 C183 692 176 689 167 683 L71 623 C63 618 60 612 60 605 C60 596 67 589 76 589 C81 589 85 590 90 593 Z " />
<glyph glyph-name="idieresis" unicode="&#xef;" horiz-adv-x="266" d="M115 661 C96 661 83 645 83 630 C83 613 95 602 111 602 C129 602 143 616 143 633 C143 649 132 661 115 661 Z M256 661 C237 661 224 645 224 630 C224 613 236 602 252 602 C271 602 285 616 285 633 C285 649 274 661 256 661 Z M63 19 C61 5 69 -4 81 -4 C92 -4 98 4 100 14 L180 492 C182 506 174 515 162 515 C151 515 145 507 143 497 Z " />
<glyph glyph-name="imacron" unicode="&#x12b;" horiz-adv-x="266" d="M99 615 L269 615 C279 615 287 623 287 633 C287 643 279 651 269 651 L99 651 C88 651 80 643 80 633 C80 623 88 615 99 615 Z M63 19 C61 5 69 -4 81 -4 C92 -4 98 4 100 14 L180 492 C182 506 174 515 162 515 C151 515 145 507 143 497 Z " />
<glyph glyph-name="iogonek" unicode="&#x12f;" horiz-adv-x="266" d="M19 -194 C42 -194 65 -187 83 -174 C92 -168 99 -161 99 -152 C99 -142 91 -136 83 -136 C77 -136 70 -140 65 -144 C50 -155 34 -159 20 -159 C-6 -159 -31 -148 -31 -111 C-31 -51 37 -24 80 -7 C92 -2 98 2 101 14 L180 492 C182 506 174 515 162 515 C151 515 145 507 143 497 L66 40 C65 35 64 26 65 22 C-1 -2 -67 -43 -67 -112 C-67 -169 -25 -194 19 -194 Z M223 667 C223 683 213 697 194 697 C171 697 160 678 160 661 C160 645 170 631 190 631 C212 631 223 650 223 667 Z " />
<glyph glyph-name="dotlessi" unicode="&#x131;" horiz-adv-x="231" d="M61 19 C59 5 67 -4 79 -4 C90 -4 96 4 98 14 L178 492 C180 506 172 515 160 515 C149 515 143 507 141 497 Z " />
<glyph glyph-name="kcommaaccent" unicode="&#x137;" horiz-adv-x="511" d="M196 705 C185 705 179 697 177 687 L66 19 C64 5 72 -4 84 -4 C95 -4 101 4 103 14 L142 248 L181 248 C212 248 222 242 237 221 L394 6 C399 -1 405 -4 411 -4 C422 -4 430 4 430 13 C430 18 428 24 423 30 L251 266 L480 484 C486 490 489 495 489 502 C489 513 481 519 471 519 C467 519 461 517 456 512 L245 311 C223 290 211 285 181 285 L148 285 L214 682 C216 696 208 705 196 705 Z M157 -218 C166 -218 173 -212 178 -208 C204 -181 217 -162 227 -107 L236 -52 C240 -38 230 -30 220 -30 C211 -30 202 -36 200 -48 L190 -102 C184 -136 177 -157 150 -186 C144 -192 141 -197 141 -203 C141 -211 147 -218 157 -218 Z " />
<glyph glyph-name="lacute" unicode="&#x13a;" horiz-adv-x="246" d="M55 19 C53 5 61 -4 73 -4 C84 -4 90 4 92 14 L203 682 C205 696 197 705 185 705 C174 705 168 697 166 687 Z M184 787 C175 783 172 776 172 770 C172 761 178 753 188 753 C192 753 196 754 200 756 L346 825 C358 831 362 838 362 845 C362 853 356 861 345 861 C342 861 338 860 334 858 Z " />
<glyph glyph-name="lcaron" unicode="&#x13e;" horiz-adv-x="288" d="M66 19 C64 5 72 -4 84 -4 C95 -4 101 4 103 14 L214 682 C216 696 208 705 196 705 C185 705 179 697 177 687 Z M247 544 C256 544 263 549 273 559 C293 580 304 598 313 642 L321 683 C324 697 315 706 305 706 C296 706 287 699 285 687 L277 647 C271 613 267 605 240 576 C234 570 231 565 231 559 C231 551 237 544 247 544 Z " />
<glyph glyph-name="lcommaaccent" unicode="&#x13c;" horiz-adv-x="246" d="M55 19 C53 5 61 -4 73 -4 C84 -4 90 4 92 14 L203 682 C205 696 197 705 185 705 C174 705 168 697 166 687 Z M1 -218 C10 -218 17 -212 22 -208 C48 -181 61 -162 71 -107 L80 -52 C84 -38 74 -30 64 -30 C55 -30 46 -36 44 -48 L34 -102 C28 -136 21 -157 -6 -186 C-12 -192 -15 -197 -15 -203 C-15 -211 -9 -218 1 -218 Z " />
<glyph glyph-name="lslash" unicode="&#x142;" horiz-adv-x="272" d="M60 19 C58 5 66 -4 78 -4 C89 -4 96 4 98 14 L153 346 L253 404 C264 410 267 417 267 423 C267 431 261 438 250 438 C246 438 242 437 237 434 L160 391 L209 682 C211 696 202 705 190 705 C179 705 173 697 171 687 L117 366 L23 312 C14 307 10 299 10 293 C10 284 16 277 25 277 C30 277 34 279 38 281 L110 322 Z " />
<glyph glyph-name="nacute" unicode="&#x144;" horiz-adv-x="593" d="M513 310 C542 480 431 522 336 522 C254 522 181 491 148 472 C132 463 128 457 126 443 L56 19 C54 5 62 -4 74 -4 C85 -4 91 4 93 14 L163 437 C201 459 266 485 335 485 C398 485 502 465 476 309 L426 17 C424 4 434 -4 443 -4 C456 -4 461 4 463 16 Z M308 622 C299 618 296 611 296 605 C296 596 302 588 312 588 C316 588 320 589 324 591 L470 660 C482 666 486 673 486 680 C486 688 480 696 469 696 C466 696 462 695 458 693 Z " />
<glyph glyph-name="ncaron" unicode="&#x148;" horiz-adv-x="593" d="M513 310 C542 480 431 522 336 522 C254 522 181 491 148 472 C132 463 128 457 126 443 L56 19 C54 5 62 -4 74 -4 C85 -4 91 4 93 14 L163 437 C201 459 266 485 335 485 C398 485 502 465 476 309 L426 17 C424 4 434 -4 443 -4 C456 -4 461 4 463 16 Z M347 586 C356 586 363 590 372 596 L460 654 C467 659 471 665 471 671 C471 680 463 689 453 689 C449 689 445 688 441 685 L348 623 L278 683 C273 687 268 689 264 689 C254 689 246 680 246 671 C246 665 248 660 253 656 L324 596 C331 590 338 586 347 586 Z " />
<glyph glyph-name="ntilde" unicode="&#xf1;" horiz-adv-x="593" d="M513 310 C542 480 431 522 336 522 C254 522 181 491 148 472 C132 463 128 457 126 443 L56 19 C54 5 62 -4 74 -4 C85 -4 91 4 93 14 L163 437 C201 459 266 485 335 485 C398 485 502 465 476 309 L426 17 C424 4 434 -4 443 -4 C456 -4 461 4 463 16 Z M390 595 C412 595 434 607 453 620 C462 626 465 631 465 639 C465 649 455 657 446 657 C429 657 415 632 391 632 C359 632 334 669 289 669 C267 669 242 658 225 642 C221 638 216 633 216 625 C216 616 222 607 234 607 C252 607 262 632 288 632 C316 632 344 595 390 595 Z " />
<glyph glyph-name="ncommaaccent" unicode="&#x146;" horiz-adv-x="593" d="M513 310 C542 480 431 522 336 522 C254 522 181 491 148 472 C132 463 128 457 126 443 L56 19 C54 5 62 -4 74 -4 C85 -4 91 4 93 14 L163 437 C201 459 266 485 335 485 C398 485 502 465 476 309 L426 17 C424 4 434 -4 443 -4 C456 -4 461 4 463 16 Z M201 -218 C210 -218 217 -212 222 -208 C248 -181 261 -162 271 -107 L280 -52 C284 -38 274 -30 264 -30 C255 -30 246 -36 244 -48 L234 -102 C228 -136 221 -157 194 -186 C188 -192 185 -197 185 -203 C185 -211 191 -218 201 -218 Z " />
<glyph glyph-name="ograve" unicode="&#xf2;" horiz-adv-x="554" d="M305 522 C189 522 107 456 80 328 C71 287 63 230 61 206 C49 63 162 -9 272 -9 C377 -9 457 56 484 185 C493 226 501 283 503 307 C515 450 406 522 305 522 Z M465 303 C463 283 456 230 449 197 C425 85 367 29 268 29 C189 29 84 80 99 210 C101 230 108 283 115 316 C139 428 200 485 304 485 C380 485 480 433 465 303 Z M373 588 C383 588 393 594 393 605 C393 611 390 617 382 621 L260 690 C254 693 250 694 245 694 C234 694 227 687 227 677 C227 671 230 664 238 660 L360 592 C365 589 369 588 373 588 Z " />
<glyph glyph-name="oacute" unicode="&#xf3;" horiz-adv-x="554" d="M305 522 C189 522 107 456 80 328 C71 287 63 230 61 206 C49 63 162 -9 272 -9 C377 -9 457 56 484 185 C493 226 501 283 503 307 C515 450 406 522 305 522 Z M465 303 C463 283 456 230 449 197 C425 85 367 29 268 29 C189 29 84 80 99 210 C101 230 108 283 115 316 C139 428 200 485 304 485 C380 485 480 433 465 303 Z M307 622 C298 618 295 611 295 605 C295 596 301 588 311 588 C315 588 319 589 323 591 L469 660 C481 666 485 673 485 680 C485 688 479 696 468 696 C465 696 461 695 457 693 Z " />
<glyph glyph-name="ocircumflex" unicode="&#xf4;" horiz-adv-x="554" d="M305 522 C189 522 107 456 80 328 C71 287 63 230 61 206 C49 63 162 -9 272 -9 C377 -9 457 56 484 185 C493 226 501 283 503 307 C515 450 406 522 305 522 Z M465 303 C463 283 456 230 449 197 C425 85 367 29 268 29 C189 29 84 80 99 210 C101 230 108 283 115 316 C139 428 200 485 304 485 C380 485 480 433 465 303 Z M345 654 L409 594 C414 590 417 588 424 588 C434 588 442 596 442 605 C442 610 440 615 434 620 L369 681 C362 687 355 691 346 691 C337 691 330 688 321 682 L225 622 C217 617 214 611 214 604 C214 595 221 588 230 588 C235 588 239 589 244 592 Z " />
<glyph glyph-name="otilde" unicode="&#xf5;" horiz-adv-x="554" d="M305 522 C189 522 107 456 80 328 C71 287 63 230 61 206 C49 63 162 -9 272 -9 C377 -9 457 56 484 185 C493 226 501 283 503 307 C515 450 406 522 305 522 Z M465 303 C463 283 456 230 449 197 C425 85 367 29 268 29 C189 29 84 80 99 210 C101 230 108 283 115 316 C139 428 200 485 304 485 C380 485 480 433 465 303 Z M392 595 C414 595 436 607 455 620 C464 626 467 631 467 639 C467 649 457 657 448 657 C431 657 417 632 393 632 C361 632 336 669 291 669 C269 669 244 658 227 642 C223 638 218 633 218 625 C218 616 224 607 236 607 C254 607 264 632 290 632 C318 632 346 595 392 595 Z " />
<glyph glyph-name="odieresis" unicode="&#xf6;" horiz-adv-x="554" d="M305 522 C189 522 107 456 80 328 C71 287 63 230 61 206 C49 63 162 -9 272 -9 C377 -9 457 56 484 185 C493 226 501 283 503 307 C515 450 406 522 305 522 Z M465 303 C463 283 456 230 449 197 C425 85 367 29 268 29 C189 29 84 80 99 210 C101 230 108 283 115 316 C139 428 200 485 304 485 C380 485 480 433 465 303 Z M274 661 C255 661 242 645 242 630 C242 613 254 602 270 602 C288 602 302 616 302 633 C302 649 291 661 274 661 Z M415 661 C396 661 383 645 383 630 C383 613 395 602 411 602 C430 602 444 616 444 633 C444 649 433 661 415 661 Z " />
<glyph glyph-name="omacron" unicode="&#x14d;" horiz-adv-x="554" d="M305 522 C189 522 107 456 80 328 C71 287 63 230 61 206 C49 63 162 -9 272 -9 C377 -9 457 56 484 185 C493 226 501 283 503 307 C515 450 406 522 305 522 Z M465 303 C463 283 456 230 449 197 C425 85 367 29 268 29 C189 29 84 80 99 210 C101 230 108 283 115 316 C139 428 200 485 304 485 C380 485 480 433 465 303 Z M255 615 L425 615 C435 615 443 623 443 633 C443 643 435 651 425 651 L255 651 C244 651 236 643 236 633 C236 623 244 615 255 615 Z " />
<glyph glyph-name="ohungarumlaut" unicode="&#x151;" horiz-adv-x="554" d="M305 522 C189 522 107 456 80 328 C71 287 63 230 61 206 C49 63 162 -9 272 -9 C377 -9 457 56 484 185 C493 226 501 283 503 307 C515 450 406 522 305 522 Z M465 303 C463 283 456 230 449 197 C425 85 367 29 268 29 C189 29 84 80 99 210 C101 230 108 283 115 316 C139 428 200 485 304 485 C380 485 480 433 465 303 Z M393 668 C401 673 404 680 404 686 C404 696 396 704 386 704 C381 704 375 702 369 697 L267 624 C259 618 255 611 255 605 C255 596 262 588 272 588 C277 588 283 590 288 594 Z M534 668 C542 673 545 680 545 686 C545 696 537 704 526 704 C521 704 515 702 509 697 L407 624 C399 618 395 611 395 605 C395 596 402 588 412 588 C418 588 424 590 429 594 Z " />
<glyph glyph-name="oslash" unicode="&#xf8;" horiz-adv-x="560" d="M266 -9 C372 -9 458 56 483 192 C489 226 495 261 500 300 C506 351 496 393 477 427 L536 484 C541 489 544 495 544 500 C544 508 538 515 528 515 C523 515 517 512 512 507 L457 454 C417 499 355 522 298 522 C188 522 102 457 77 321 C71 287 65 252 60 213 C53 163 63 122 81 89 L25 34 C19 28 17 23 17 18 C17 10 24 3 32 3 C37 3 43 5 49 11 L100 61 C141 14 205 -9 266 -9 Z M265 29 C216 29 161 47 128 87 L450 399 C462 375 468 345 464 308 C461 281 452 221 446 192 C423 85 359 29 265 29 Z M108 116 C97 140 92 169 96 205 C99 230 108 292 114 321 C137 428 201 485 300 485 C344 485 397 467 430 428 Z " />
<glyph glyph-name="oe" unicode="&#x153;" horiz-adv-x="925" d="M496 277 C518 416 577 485 692 485 C784 485 865 434 828 295 C825 283 819 277 804 277 Z M268 29 C186 29 85 80 99 205 C102 230 111 292 117 321 C140 428 204 485 303 485 C387 485 479 424 465 299 C462 272 454 221 448 192 C425 85 362 29 268 29 Z M269 -9 C350 -9 424 32 460 116 C485 35 554 -9 655 -9 C712 -9 765 11 796 27 C806 32 813 38 813 47 C813 55 807 65 796 65 C793 65 789 64 785 61 C736 36 688 27 652 27 C546 27 471 91 486 209 L490 240 L804 240 C840 240 857 260 864 289 L867 302 C904 460 791 522 698 522 C609 522 534 488 492 394 C465 476 388 522 301 522 C191 522 105 457 80 321 C74 287 68 252 63 213 C44 63 162 -9 269 -9 Z " />
<glyph glyph-name="racute" unicode="&#x155;" horiz-adv-x="361" d="M369 507 C344 515 320 522 279 522 C198 522 136 499 115 374 L56 19 C54 5 62 -4 74 -4 C85 -4 91 4 93 14 L151 366 C167 463 214 485 272 485 C311 485 330 478 346 474 C351 473 358 470 366 470 C377 470 385 478 385 489 C385 497 380 504 369 507 Z M217 621 C208 617 205 610 205 604 C205 595 211 587 221 587 C225 587 229 588 233 590 L379 659 C391 665 395 672 395 679 C395 687 389 695 378 695 C375 695 371 694 367 692 Z " />
<glyph glyph-name="rcaron" unicode="&#x159;" horiz-adv-x="361" d="M369 507 C344 515 320 522 279 522 C198 522 136 499 115 374 L56 19 C54 5 62 -4 74 -4 C85 -4 91 4 93 14 L151 366 C167 463 214 485 272 485 C311 485 330 478 346 474 C351 473 358 470 366 470 C377 470 385 478 385 489 C385 497 380 504 369 507 Z M282 585 C291 585 298 589 307 595 L395 653 C402 658 406 664 406 670 C406 679 398 688 388 688 C384 688 380 687 376 684 L283 622 L213 682 C208 686 203 688 199 688 C189 688 181 679 181 670 C181 664 183 659 188 655 L259 595 C266 589 273 585 282 585 Z " />
<glyph glyph-name="rcommaaccent" unicode="&#x157;" horiz-adv-x="361" d="M369 507 C344 515 320 522 279 522 C198 522 136 499 115 374 L56 19 C54 5 62 -4 74 -4 C85 -4 91 4 93 14 L151 366 C167 463 214 485 272 485 C311 485 330 478 346 474 C351 473 358 470 366 470 C377 470 385 478 385 489 C385 497 380 504 369 507 Z M5 -218 C14 -218 21 -212 26 -208 C52 -181 65 -162 75 -107 L84 -52 C88 -38 78 -30 68 -30 C59 -30 50 -36 48 -48 L38 -102 C32 -136 25 -157 -2 -186 C-8 -192 -11 -197 -11 -203 C-11 -211 -5 -218 5 -218 Z " />
<glyph glyph-name="sacute" unicode="&#x15b;" horiz-adv-x="496" d="M254 281 C186 311 139 334 139 386 C139 443 195 486 274 486 C325 486 364 468 401 443 C406 439 411 436 417 436 C428 436 435 445 435 454 C435 459 433 464 427 470 C409 488 350 522 274 522 C189 522 102 477 102 386 C102 310 175 277 230 251 C298 219 368 203 368 133 C368 69 311 29 233 29 C171 29 111 56 68 87 C61 92 54 98 47 98 C36 98 29 89 29 80 C29 75 31 70 36 65 C55 45 135 -9 235 -9 C332 -9 405 50 405 133 C405 216 334 246 254 281 Z M268 622 C259 618 256 611 256 605 C256 596 262 588 272 588 C276 588 280 589 284 591 L430 660 C442 666 446 673 446 680 C446 688 440 696 429 696 C426 696 422 695 418 693 Z " />
<glyph glyph-name="scaron" unicode="&#x161;" horiz-adv-x="494" d="M254 281 C186 311 139 334 139 386 C139 443 195 486 274 486 C325 486 364 468 401 443 C406 439 411 436 417 436 C428 436 435 445 435 454 C435 459 433 464 427 470 C409 488 350 522 274 522 C189 522 102 477 102 386 C102 310 175 277 230 251 C298 219 368 203 368 133 C368 69 311 29 233 29 C171 29 111 56 68 87 C61 92 54 98 47 98 C36 98 29 89 29 80 C29 75 31 70 36 65 C55 45 135 -9 235 -9 C332 -9 405 50 405 133 C405 216 334 246 254 281 Z M321 574 C330 574 337 578 346 584 L434 642 C441 647 445 653 445 659 C445 668 437 677 427 677 C423 677 419 676 415 673 L322 611 L252 671 C247 675 242 677 238 677 C228 677 220 668 220 659 C220 653 222 648 227 644 L298 584 C305 578 312 574 321 574 Z " />
<glyph glyph-name="scedilla" unicode="&#x15f;" horiz-adv-x="485" d="M147 -233 C153 -233 160 -232 164 -231 C205 -221 283 -187 283 -123 C283 -84 251 -56 209 -60 L236 -9 C332 -8 405 50 405 133 C405 216 334 246 254 281 C186 311 139 334 139 386 C139 443 195 486 274 486 C325 486 364 468 401 443 C406 439 411 436 417 436 C428 436 435 445 435 454 C435 459 433 464 427 470 C409 488 350 522 274 522 C189 522 102 477 102 386 C102 310 175 277 230 251 C298 219 368 203 368 133 C368 69 311 29 233 29 C171 29 111 56 68 87 C61 92 54 98 47 98 C36 98 29 89 29 80 C29 75 31 70 36 65 C52 47 116 4 199 -6 L166 -73 C159 -88 165 -100 179 -100 C189 -100 197 -93 212 -93 C229 -93 247 -102 247 -125 C247 -169 181 -191 147 -201 C135 -205 130 -210 130 -218 C130 -226 136 -233 147 -233 Z " />
<glyph glyph-name="scommaaccent" unicode="&#x219;" horiz-adv-x="485" d="M254 281 C186 311 139 334 139 386 C139 443 195 486 274 486 C325 486 364 468 401 443 C406 439 411 436 417 436 C428 436 435 445 435 454 C435 459 433 464 427 470 C409 488 350 522 274 522 C189 522 102 477 102 386 C102 310 175 277 230 251 C298 219 368 203 368 133 C368 69 311 29 233 29 C171 29 111 56 68 87 C61 92 54 98 47 98 C36 98 29 89 29 80 C29 75 31 70 36 65 C55 45 135 -9 235 -9 C332 -9 405 50 405 133 C405 216 334 246 254 281 Z M160 -218 C169 -218 176 -212 181 -208 C207 -181 220 -162 230 -107 L239 -52 C243 -38 233 -30 223 -30 C214 -30 205 -36 203 -48 L193 -102 C187 -136 180 -157 153 -186 C147 -192 144 -197 144 -203 C144 -211 150 -218 160 -218 Z " />
<glyph glyph-name="germandbls" unicode="&#xdf;" horiz-adv-x="582" d="M61 -3 C73 -3 79 6 81 17 L162 507 C180 619 244 660 330 660 C403 660 456 634 456 575 C456 492 332 467 332 373 C332 308 393 280 442 244 C475 220 503 191 503 146 C503 85 453 31 367 31 C293 31 244 72 232 81 C228 84 223 86 217 86 C206 86 197 79 197 67 C197 60 200 55 206 50 C238 21 301 -7 367 -7 C480 -7 542 67 542 146 C542 206 504 243 463 273 C418 307 369 332 369 375 C369 443 493 473 493 578 C493 656 420 697 330 697 C242 697 150 659 124 505 L43 17 C41 6 49 -3 61 -3 Z " />
<glyph glyph-name="tcaron" unicode="&#x165;" horiz-adv-x="404" d="M295 13 C308 19 313 26 313 34 C313 43 306 52 295 52 C289 52 281 47 273 44 C252 36 237 30 205 30 C123 30 111 86 123 157 L175 467 L344 467 C355 467 364 474 364 485 C364 495 357 504 344 504 L181 504 L196 594 C198 607 189 615 179 615 C168 615 161 608 159 596 L86 156 C67 40 120 -8 208 -8 C239 -8 271 1 295 13 Z M271 544 C280 544 287 549 297 559 C317 580 328 598 337 642 L345 683 C348 697 339 706 329 706 C320 706 311 699 309 687 L301 647 C295 613 291 605 264 576 C258 570 255 565 255 559 C255 551 261 544 271 544 Z " />
<glyph glyph-name="tcommaaccent" unicode="&#x163;" horiz-adv-x="404" d="M295 13 C308 19 313 26 313 34 C313 43 306 52 295 52 C289 52 281 47 273 44 C252 36 237 30 205 30 C123 30 111 86 123 157 L175 467 L344 467 C355 467 364 474 364 485 C364 495 357 504 344 504 L181 504 L196 594 C198 607 189 615 179 615 C168 615 161 608 159 596 L86 156 C67 40 120 -8 208 -8 C239 -8 271 1 295 13 Z M134 -218 C143 -218 150 -212 155 -208 C181 -181 194 -162 204 -107 L213 -52 C217 -38 207 -30 197 -30 C188 -30 179 -36 177 -48 L167 -102 C161 -136 154 -157 127 -186 C121 -192 118 -197 118 -203 C118 -211 124 -218 134 -218 Z " />
<glyph glyph-name="ugrave" unicode="&#xf9;" horiz-adv-x="574" d="M75 221 C49 64 140 -9 261 -9 C342 -9 410 26 441 48 C452 56 458 64 459 73 L528 492 C530 506 522 515 510 515 C499 515 493 507 491 497 L423 82 C381 53 320 29 261 29 C167 29 89 75 113 221 L158 494 C160 507 150 515 141 515 C128 515 123 507 121 495 Z M374 588 C384 588 394 594 394 605 C394 611 391 617 383 621 L261 690 C255 693 251 694 246 694 C235 694 228 687 228 677 C228 671 231 664 239 660 L361 592 C366 589 370 588 374 588 Z " />
<glyph glyph-name="uacute" unicode="&#xfa;" horiz-adv-x="574" d="M75 221 C49 64 140 -9 261 -9 C342 -9 410 26 441 48 C452 56 458 64 459 73 L528 492 C530 506 522 515 510 515 C499 515 493 507 491 497 L423 82 C381 53 320 29 261 29 C167 29 89 75 113 221 L158 494 C160 507 150 515 141 515 C128 515 123 507 121 495 Z M305 622 C296 618 293 611 293 605 C293 596 299 588 309 588 C313 588 317 589 321 591 L467 660 C479 666 483 673 483 680 C483 688 477 696 466 696 C463 696 459 695 455 693 Z " />
<glyph glyph-name="ucircumflex" unicode="&#xfb;" horiz-adv-x="574" d="M75 221 C49 64 140 -9 261 -9 C342 -9 410 26 441 48 C452 56 458 64 459 73 L528 492 C530 506 522 515 510 515 C499 515 493 507 491 497 L423 82 C381 53 320 29 261 29 C167 29 89 75 113 221 L158 494 C160 507 150 515 141 515 C128 515 123 507 121 495 Z M352 655 L416 595 C421 591 424 589 431 589 C441 589 449 597 449 606 C449 611 447 616 441 621 L376 682 C369 688 362 692 353 692 C344 692 337 689 328 683 L232 623 C224 618 221 612 221 605 C221 596 228 589 237 589 C242 589 246 590 251 593 Z " />
<glyph glyph-name="udieresis" unicode="&#xfc;" horiz-adv-x="574" d="M75 221 C49 64 140 -9 261 -9 C342 -9 410 26 441 48 C452 56 458 64 459 73 L528 492 C530 506 522 515 510 515 C499 515 493 507 491 497 L423 82 C381 53 320 29 261 29 C167 29 89 75 113 221 L158 494 C160 507 150 515 141 515 C128 515 123 507 121 495 Z M277 661 C258 661 245 645 245 630 C245 613 257 602 273 602 C291 602 305 616 305 633 C305 649 294 661 277 661 Z M418 661 C399 661 386 645 386 630 C386 613 398 602 414 602 C433 602 447 616 447 633 C447 649 436 661 418 661 Z " />
<glyph glyph-name="umacron" unicode="&#x16b;" horiz-adv-x="574" d="M75 221 C49 64 140 -9 261 -9 C342 -9 410 26 441 48 C452 56 458 64 459 73 L528 492 C530 506 522 515 510 515 C499 515 493 507 491 497 L423 82 C381 53 320 29 261 29 C167 29 89 75 113 221 L158 494 C160 507 150 515 141 515 C128 515 123 507 121 495 Z M259 615 L429 615 C439 615 447 623 447 633 C447 643 439 651 429 651 L259 651 C248 651 240 643 240 633 C240 623 248 615 259 615 Z " />
<glyph glyph-name="uring" unicode="&#x16f;" horiz-adv-x="574" d="M75 221 C49 64 140 -9 261 -9 C342 -9 410 26 441 48 C452 56 458 64 459 73 L528 492 C530 506 522 515 510 515 C499 515 493 507 491 497 L423 82 C381 53 320 29 261 29 C167 29 89 75 113 221 L158 494 C160 507 150 515 141 515 C128 515 123 507 121 495 Z M345 589 C400 589 430 636 430 678 C430 717 404 752 356 752 C299 752 270 706 270 665 C270 624 298 589 345 589 Z M345 617 C313 617 298 640 298 664 C298 693 318 724 356 724 C388 724 403 701 403 677 C403 648 383 617 345 617 Z " />
<glyph glyph-name="uhungarumlaut" unicode="&#x171;" horiz-adv-x="574" d="M75 221 C49 64 140 -9 261 -9 C342 -9 410 26 441 48 C452 56 458 64 459 73 L528 492 C530 506 522 515 510 515 C499 515 493 507 491 497 L423 82 C381 53 320 29 261 29 C167 29 89 75 113 221 L158 494 C160 507 150 515 141 515 C128 515 123 507 121 495 Z M387 669 C395 674 398 681 398 687 C398 697 390 705 380 705 C375 705 369 703 363 698 L261 625 C253 619 249 612 249 606 C249 597 256 589 266 589 C271 589 277 591 282 595 Z M528 669 C536 674 539 681 539 687 C539 697 531 705 520 705 C515 705 509 703 503 698 L401 625 C393 619 389 612 389 606 C389 597 396 589 406 589 C412 589 418 591 423 595 Z " />
<glyph glyph-name="uogonek" unicode="&#x173;" horiz-adv-x="574" d="M341 -167 C362 -167 385 -160 403 -147 C411 -141 418 -134 418 -125 C418 -115 410 -109 403 -109 C397 -109 390 -113 385 -117 C370 -128 356 -132 339 -132 C317 -132 288 -116 288 -82 C288 -12 385 13 431 42 C452 55 458 64 461 83 L528 492 C530 506 522 515 510 515 C499 515 493 507 491 497 L423 82 C381 53 320 29 261 29 C167 29 89 75 113 221 L158 494 C160 507 150 515 141 515 C128 515 123 507 121 495 L75 221 C49 64 140 -9 261 -9 C270 -9 280 -8 289 -7 C267 -27 253 -52 253 -83 C253 -132 293 -167 341 -167 Z " />
<glyph glyph-name="wgrave" unicode="&#x1e81;" horiz-adv-x="801" d="M497 28 C501 -1 517 -15 539 -15 C558 -15 571 -3 583 21 L800 489 C807 504 799 518 785 518 C780 518 772 517 765 504 L582 107 C573 87 563 63 549 33 C546 26 542 24 539 24 C536 24 532 26 531 35 C528 59 526 82 523 104 L477 475 C473 510 458 518 437 518 C420 518 407 509 394 481 L220 105 C210 81 200 57 190 33 C188 28 185 24 179 24 C174 24 169 27 168 37 C165 62 163 85 160 107 L112 497 C110 514 101 518 93 518 C79 518 73 506 75 492 L135 28 C139 -5 159 -15 178 -15 C195 -15 207 -5 220 21 L427 472 C429 477 432 479 435 479 C438 479 442 477 443 469 Z M476 587 C486 587 496 593 496 604 C496 610 493 616 485 620 L363 689 C357 692 353 693 348 693 C337 693 330 686 330 676 C330 670 333 663 341 659 L463 591 C468 588 472 587 476 587 Z " />
<glyph glyph-name="wacute" unicode="&#x1e83;" horiz-adv-x="801" d="M497 28 C501 -1 517 -15 539 -15 C558 -15 571 -3 583 21 L800 489 C807 504 799 518 785 518 C780 518 772 517 765 504 L582 107 C573 87 563 63 549 33 C546 26 542 24 539 24 C536 24 532 26 531 35 C528 59 526 82 523 104 L477 475 C473 510 458 518 437 518 C420 518 407 509 394 481 L220 105 C210 81 200 57 190 33 C188 28 185 24 179 24 C174 24 169 27 168 37 C165 62 163 85 160 107 L112 497 C110 514 101 518 93 518 C79 518 73 506 75 492 L135 28 C139 -5 159 -15 178 -15 C195 -15 207 -5 220 21 L427 472 C429 477 432 479 435 479 C438 479 442 477 443 469 Z M406 621 C397 617 394 610 394 604 C394 595 400 587 410 587 C414 587 418 588 422 590 L568 659 C580 665 584 672 584 679 C584 687 578 695 567 695 C564 695 560 694 556 692 Z " />
<glyph glyph-name="wcircumflex" unicode="&#x175;" horiz-adv-x="801" d="M497 28 C501 -1 517 -15 539 -15 C558 -15 571 -3 583 21 L800 489 C807 504 799 518 785 518 C780 518 772 517 765 504 L582 107 C573 87 563 63 549 33 C546 26 542 24 539 24 C536 24 532 26 531 35 C528 59 526 82 523 104 L477 475 C473 510 458 518 437 518 C420 518 407 509 394 481 L220 105 C210 81 200 57 190 33 C188 28 185 24 179 24 C174 24 169 27 168 37 C165 62 163 85 160 107 L112 497 C110 514 101 518 93 518 C79 518 73 506 75 492 L135 28 C139 -5 159 -15 178 -15 C195 -15 207 -5 220 21 L427 472 C429 477 432 479 435 479 C438 479 442 477 443 469 Z M464 654 L528 594 C533 590 536 588 543 588 C553 588 561 596 561 605 C561 610 559 615 553 620 L488 681 C481 687 474 691 465 691 C456 691 449 688 440 682 L344 622 C336 617 333 611 333 604 C333 595 340 588 349 588 C354 588 358 589 363 592 Z " />
<glyph glyph-name="wdieresis" unicode="&#x1e85;" horiz-adv-x="801" d="M497 28 C501 -1 517 -15 539 -15 C558 -15 571 -3 583 21 L800 489 C807 504 799 518 785 518 C780 518 772 517 765 504 L582 107 C573 87 563 63 549 33 C546 26 542 24 539 24 C536 24 532 26 531 35 C528 59 526 82 523 104 L477 475 C473 510 458 518 437 518 C420 518 407 509 394 481 L220 105 C210 81 200 57 190 33 C188 28 185 24 179 24 C174 24 169 27 168 37 C165 62 163 85 160 107 L112 497 C110 514 101 518 93 518 C79 518 73 506 75 492 L135 28 C139 -5 159 -15 178 -15 C195 -15 207 -5 220 21 L427 472 C429 477 432 479 435 479 C438 479 442 477 443 469 Z M393 661 C374 661 361 645 361 630 C361 613 373 602 389 602 C407 602 421 616 421 633 C421 649 410 661 393 661 Z M534 661 C515 661 502 645 502 630 C502 613 514 602 530 602 C549 602 563 616 563 633 C563 649 552 661 534 661 Z " />
<glyph glyph-name="ygrave" unicode="&#x1ef3;" horiz-adv-x="497" d="M100 497 C97 507 91 513 80 513 C70 513 58 506 63 487 L191 33 C129 -79 74 -130 18 -158 C10 -162 5 -167 5 -175 C5 -186 15 -191 21 -191 C27 -191 34 -190 44 -185 C99 -157 157 -102 222 15 L489 485 C496 497 489 513 474 513 C464 513 460 508 455 499 L251 139 C238 116 229 99 223 89 C220 84 218 83 216 83 C212 83 211 87 210 91 C206 111 201 128 197 143 Z M328 588 C338 588 348 594 348 605 C348 611 345 617 337 621 L215 690 C209 693 205 694 200 694 C189 694 182 687 182 677 C182 671 185 664 193 660 L315 592 C320 589 324 588 328 588 Z " />
<glyph glyph-name="yacute" unicode="&#xfd;" horiz-adv-x="497" d="M100 497 C97 507 91 513 80 513 C70 513 58 506 63 487 L191 33 C129 -79 74 -130 18 -158 C10 -162 5 -167 5 -175 C5 -186 15 -191 21 -191 C27 -191 34 -190 44 -185 C99 -157 157 -102 222 15 L489 485 C496 497 489 513 474 513 C464 513 460 508 455 499 L251 139 C238 116 229 99 223 89 C220 84 218 83 216 83 C212 83 211 87 210 91 C206 111 201 128 197 143 Z M257 623 C248 619 245 612 245 606 C245 597 251 589 261 589 C265 589 269 590 273 592 L419 661 C431 667 435 674 435 681 C435 689 429 697 418 697 C415 697 411 696 407 694 Z " />
<glyph glyph-name="ycircumflex" unicode="&#x177;" horiz-adv-x="497" d="M100 497 C97 507 91 513 80 513 C70 513 58 506 63 487 L191 33 C129 -79 74 -130 18 -158 C10 -162 5 -167 5 -175 C5 -186 15 -191 21 -191 C27 -191 34 -190 44 -185 C99 -157 157 -102 222 15 L489 485 C496 497 489 513 474 513 C464 513 460 508 455 499 L251 139 C238 116 229 99 223 89 C220 84 218 83 216 83 C212 83 211 87 210 91 C206 111 201 128 197 143 Z M308 655 L372 595 C377 591 380 589 387 589 C397 589 405 597 405 606 C405 611 403 616 397 621 L332 682 C325 688 318 692 309 692 C300 692 293 689 284 683 L188 623 C180 618 177 612 177 605 C177 596 184 589 193 589 C198 589 202 590 207 593 Z " />
<glyph glyph-name="ydieresis" unicode="&#xff;" horiz-adv-x="497" d="M100 497 C97 507 91 513 80 513 C70 513 58 506 63 487 L191 33 C129 -79 74 -130 18 -158 C10 -162 5 -167 5 -175 C5 -186 15 -191 21 -191 C27 -191 34 -190 44 -185 C99 -157 157 -102 222 15 L489 485 C496 497 489 513 474 513 C464 513 460 508 455 499 L251 139 C238 116 229 99 223 89 C220 84 218 83 216 83 C212 83 211 87 210 91 C206 111 201 128 197 143 Z M234 661 C215 661 202 645 202 630 C202 613 214 602 230 602 C248 602 262 616 262 633 C262 649 251 661 234 661 Z M375 661 C356 661 343 645 343 630 C343 613 355 602 371 602 C390 602 404 616 404 633 C404 649 393 661 375 661 Z " />
<glyph glyph-name="zacute" unicode="&#x17a;" horiz-adv-x="488" d="M456 447 C463 454 469 464 469 474 C469 491 458 504 428 504 L131 504 C120 504 111 497 111 485 C111 476 118 467 131 467 L426 467 L41 57 C33 48 27 40 27 29 C27 13 38 0 63 0 L377 0 C389 0 396 9 396 19 C396 30 388 36 377 36 L70 36 Z M258 622 C249 618 246 611 246 605 C246 596 252 588 262 588 C266 588 270 589 274 591 L420 660 C432 666 436 673 436 680 C436 688 430 696 419 696 C416 696 412 695 408 693 Z " />
<glyph glyph-name="zcaron" unicode="&#x17e;" horiz-adv-x="488" d="M456 447 C463 454 469 464 469 474 C469 491 458 504 428 504 L131 504 C120 504 111 497 111 485 C111 476 118 467 131 467 L426 467 L41 57 C33 48 27 40 27 29 C27 13 38 0 63 0 L377 0 C389 0 396 9 396 19 C396 30 388 36 377 36 L70 36 Z M311 586 C320 586 327 590 336 596 L424 654 C431 659 435 665 435 671 C435 680 427 689 417 689 C413 689 409 688 405 685 L312 623 L242 683 C237 687 232 689 228 689 C218 689 210 680 210 671 C210 665 212 660 217 656 L288 596 C295 590 302 586 311 586 Z " />
<glyph glyph-name="zdotaccent" unicode="&#x17c;" horiz-adv-x="488" d="M456 447 C463 454 469 464 469 474 C469 491 458 504 428 504 L131 504 C120 504 111 497 111 485 C111 476 118 467 131 467 L426 467 L41 57 C33 48 27 40 27 29 C27 13 38 0 63 0 L377 0 C389 0 396 9 396 19 C396 30 388 36 377 36 L70 36 Z M316 660 C297 660 284 644 284 629 C284 612 296 601 312 601 C330 601 344 615 344 632 C344 648 333 660 316 660 Z " />
<glyph glyph-name="eth" unicode="&#xf0;" horiz-adv-x="572" d="M289 489 C184 489 105 431 79 302 C75 283 64 233 61 199 C51 78 134 -9 253 -9 C366 -9 442 67 464 192 C482 292 488 331 499 392 C516 491 497 562 465 606 L530 635 C542 640 546 648 546 655 C546 671 528 674 517 669 L440 635 C421 654 395 675 375 690 C371 693 367 694 362 694 C350 694 340 685 340 673 C340 667 343 661 350 656 C370 644 386 630 400 617 L325 584 C313 579 309 571 309 564 C309 548 326 545 337 550 L429 591 C471 535 475 469 462 394 C425 458 363 489 289 489 Z M288 452 C384 452 453 388 444 305 C441 280 432 216 423 178 C403 95 352 29 255 29 C163 29 91 89 99 192 C101 218 111 277 118 306 C142 404 204 452 288 452 Z " />
<glyph glyph-name="thorn" unicode="&#xfe;" horiz-adv-x="556" d="M95 67 L157 448 C189 465 255 482 310 482 C426 482 474 417 465 320 C461 279 450 206 442 175 C418 81 361 30 261 30 C194 30 124 53 95 67 Z M87 30 C123 14 188 -8 263 -8 C370 -8 460 51 483 192 C488 222 495 262 501 309 C517 429 448 518 313 518 C263 518 197 504 164 489 L196 686 C198 697 191 706 179 706 C166 706 161 697 159 686 L16 -172 C14 -184 24 -192 34 -192 C45 -192 51 -184 54 -172 Z " />
<glyph glyph-name="grave" unicode="&#x60;" horiz-adv-x="303" d="M274 753 C284 753 294 759 294 770 C294 776 291 782 283 786 L161 855 C155 858 151 859 146 859 C135 859 128 852 128 842 C128 836 131 829 139 825 L261 757 C266 754 270 753 274 753 Z " />
<glyph glyph-name="acute" unicode="&#xb4;" horiz-adv-x="303" d="M130 787 C121 783 118 776 118 770 C118 761 124 753 134 753 C138 753 142 754 146 756 L292 825 C304 831 308 838 308 845 C308 853 302 861 291 861 C288 861 284 860 280 858 Z " />
<glyph glyph-name="circumflex" unicode="&#x2c6;" horiz-adv-x="303" d="M224 817 L288 757 C293 753 296 751 303 751 C313 751 321 759 321 768 C321 773 319 778 313 783 L248 844 C241 850 234 854 225 854 C216 854 209 851 200 845 L104 785 C96 780 93 774 93 767 C93 758 100 751 109 751 C114 751 118 752 123 755 Z " />
<glyph glyph-name="caron" unicode="&#x2c7;" horiz-adv-x="303" d="M221 748 C230 748 237 752 246 758 L334 816 C341 821 345 827 345 833 C345 842 337 851 327 851 C323 851 319 850 315 847 L222 785 L152 845 C147 849 142 851 138 851 C128 851 120 842 120 833 C120 827 122 822 127 818 L198 758 C205 752 212 748 221 748 Z " />
<glyph glyph-name="tilde" unicode="&#x2dc;" horiz-adv-x="303" d="M267 753 C289 753 311 765 330 778 C339 784 342 789 342 797 C342 807 332 815 323 815 C306 815 292 790 268 790 C236 790 211 827 166 827 C144 827 119 816 102 800 C98 796 93 791 93 783 C93 774 99 765 111 765 C129 765 139 790 165 790 C193 790 221 753 267 753 Z " />
<glyph glyph-name="dieresis" unicode="&#xa8;" horiz-adv-x="303" d="M132 823 C113 823 100 807 100 792 C100 775 112 764 128 764 C146 764 160 778 160 795 C160 811 149 823 132 823 Z M273 823 C254 823 241 807 241 792 C241 775 253 764 269 764 C288 764 302 778 302 795 C302 811 291 823 273 823 Z " />
<glyph glyph-name="macron" unicode="&#xaf;" horiz-adv-x="303" d="M129 773 L299 773 C309 773 317 781 317 791 C317 801 309 809 299 809 L129 809 C118 809 110 801 110 791 C110 781 118 773 129 773 Z " />
<glyph glyph-name="breve" unicode="&#x2d8;" horiz-adv-x="303" d="M219 758 C273 758 308 793 323 829 C326 836 328 844 328 849 C328 861 319 865 311 865 C300 865 295 856 292 848 C281 818 260 793 220 793 C177 793 165 823 160 845 C158 856 156 865 144 865 C135 865 127 859 127 845 C127 836 129 828 130 825 C144 777 181 758 219 758 Z " />
<glyph glyph-name="ring" unicode="&#x2da;" horiz-adv-x="306" d="M225 748 C280 748 310 795 310 837 C310 876 284 911 236 911 C179 911 150 865 150 824 C150 783 178 748 225 748 Z M225 776 C193 776 178 799 178 823 C178 852 198 883 236 883 C268 883 283 860 283 836 C283 807 263 776 225 776 Z " />
<glyph glyph-name="hungarumlaut" unicode="&#x2dd;" horiz-adv-x="303" d="M208 832 C216 837 219 844 219 850 C219 860 211 868 201 868 C196 868 190 866 184 861 L82 788 C74 782 70 775 70 769 C70 760 77 752 87 752 C92 752 98 754 103 758 Z M349 832 C357 837 360 844 360 850 C360 860 352 868 341 868 C336 868 330 866 324 861 L222 788 C214 782 210 775 210 769 C210 760 217 752 227 752 C233 752 239 754 244 758 Z " />
<glyph glyph-name="dotaccent" unicode="&#x2d9;" horiz-adv-x="303" d="M223 823 C204 823 191 807 191 792 C191 775 203 764 219 764 C237 764 251 778 251 795 C251 811 240 823 223 823 Z " />
<glyph glyph-name="cedilla" unicode="&#xb8;" horiz-adv-x="303" d="M98 -233 C104 -233 111 -232 115 -231 C157 -221 235 -187 235 -123 C235 -84 203 -56 161 -60 L187 -11 C195 4 190 18 174 18 C167 18 160 14 156 5 L117 -73 C110 -88 116 -100 130 -100 C140 -100 148 -93 163 -93 C180 -93 198 -102 198 -125 C198 -169 131 -190 95 -201 C85 -204 81 -210 81 -218 C81 -226 87 -233 98 -233 Z " />
<glyph glyph-name="ogonek" unicode="&#x2db;" horiz-adv-x="303" d="M208 -193 C231 -193 254 -186 272 -173 C280 -167 287 -160 287 -151 C287 -141 279 -135 272 -135 C266 -135 259 -139 254 -143 C239 -154 223 -158 208 -158 C182 -158 157 -145 157 -108 C157 -48 225 -17 268 1 C282 7 286 12 286 20 C286 28 281 36 268 36 C264 36 261 35 256 33 C187 6 122 -39 122 -109 C122 -166 164 -193 208 -193 Z " />
<glyph glyph-name="comma" unicode="&#x2c;" horiz-adv-x="202" d="M47 -94 C56 -94 63 -87 67 -83 C93 -56 106 -37 116 18 L126 73 C129 87 120 95 110 95 C101 95 92 89 90 77 L80 23 C74 -11 67 -32 40 -61 C34 -67 31 -72 31 -78 C31 -86 37 -94 47 -94 Z " />
<glyph glyph-name="semicolon" unicode="&#x3b;" horiz-adv-x="280" d="M61 -93 C70 -93 77 -87 81 -83 C107 -56 120 -37 130 18 L140 73 C143 87 134 95 124 95 C115 95 106 89 104 77 L94 23 C88 -11 81 -32 54 -61 C48 -67 45 -72 45 -78 C45 -86 51 -93 61 -93 Z M167 350 C176 350 185 356 187 369 L204 474 C206 486 197 494 187 494 C178 494 169 488 167 475 L150 371 C148 357 157 350 167 350 Z " />
<glyph glyph-name="colon" unicode="&#x3a;" horiz-adv-x="265" d="M152 350 C161 350 170 356 172 369 L189 474 C191 486 182 494 172 494 C163 494 154 488 152 475 L135 371 C133 357 142 350 152 350 Z M94 -11 C103 -11 112 -5 114 8 L131 113 C133 125 124 133 114 133 C105 133 96 127 94 114 L77 10 C75 -4 84 -11 94 -11 Z " />
<glyph glyph-name="period" unicode="&#x2e;" horiz-adv-x="234" d="M80 -11 C89 -11 97 -5 99 8 L116 113 C118 125 109 133 99 133 C90 133 81 127 79 114 L62 11 C60 -3 70 -11 80 -11 Z " />
<glyph glyph-name="ellipsis" unicode="&#x2026;" horiz-adv-x="606" d="M485 -11 C494 -11 502 -5 504 8 L521 113 C523 125 514 133 504 133 C495 133 486 127 484 114 L467 11 C465 -3 475 -11 485 -11 Z M284 -11 C293 -11 301 -5 303 8 L320 113 C322 125 313 133 303 133 C294 133 285 127 283 114 L266 11 C264 -3 274 -11 284 -11 Z M81 -11 C90 -11 98 -5 100 8 L117 113 C119 125 110 133 100 133 C91 133 82 127 80 114 L63 11 C61 -3 71 -11 81 -11 Z " />
<glyph glyph-name="uni00AD" unicode="&#xad;" horiz-adv-x="319" d="M49 287 C49 277 56 268 69 268 L250 268 C261 268 270 275 270 286 C270 296 263 305 250 305 L69 305 C58 305 49 298 49 287 Z " />
<glyph glyph-name="exclam" unicode="&#x21;" horiz-adv-x="213" d="M100 225 C110 225 115 232 117 243 L193 675 C196 690 186 697 176 697 C167 697 156 691 154 676 L86 243 C84 233 91 225 100 225 Z M61 -10 C70 -10 79 -4 81 9 L98 115 C100 126 92 134 81 134 C71 134 63 126 61 115 L44 10 C42 -2 51 -10 61 -10 Z " />
<glyph glyph-name="exclamdown" unicode="&#xa1;" horiz-adv-x="217" d="M147 462 C137 462 132 455 130 444 L54 12 C51 -3 61 -10 71 -10 C80 -10 91 -4 93 11 L161 444 C163 454 156 462 147 462 Z M186 697 C177 697 168 691 166 678 L149 572 C147 561 155 553 166 553 C176 553 184 561 186 572 L203 677 C205 689 196 697 186 697 Z " />
<glyph glyph-name="question" unicode="&#x3f;" horiz-adv-x="590" d="M207 -11 C216 -11 225 -5 227 8 L244 113 C246 125 237 133 227 133 C218 133 209 127 207 114 L190 10 C188 -4 197 -11 207 -11 Z M254 276 C259 276 263 277 268 279 C425 338 525 406 525 536 C525 646 440 708 332 708 C247 708 167 661 128 612 C123 606 120 601 120 594 C120 584 128 578 136 578 C144 578 150 584 154 588 C194 625 244 670 334 670 C434 670 486 614 486 533 C486 388 316 341 256 314 C245 309 236 304 236 293 C236 281 244 276 254 276 Z " />
<glyph glyph-name="questiondown" unicode="&#xbf;" horiz-adv-x="590" d="M383 710 C374 710 365 704 363 691 L346 586 C344 574 353 566 363 566 C372 566 381 572 383 585 L400 689 C402 703 393 710 383 710 Z M336 423 C331 423 327 422 322 420 C165 361 65 293 65 163 C65 53 150 -9 258 -9 C343 -9 423 38 462 87 C467 93 470 98 470 105 C470 115 462 121 454 121 C446 121 440 115 436 111 C396 74 346 29 256 29 C156 29 104 85 104 166 C104 311 274 358 334 385 C345 390 354 395 354 406 C354 418 346 423 336 423 Z " />
<glyph glyph-name="quoteleft" unicode="&#x2018;" horiz-adv-x="187" d="M114 509 C123 509 132 516 134 528 L144 582 C150 616 157 637 184 666 C190 672 193 677 193 683 C193 691 187 698 177 698 C168 698 161 692 157 688 C131 661 118 642 108 587 L98 532 C95 518 104 509 114 509 Z " />
<glyph glyph-name="quoteright" unicode="&#x2019;" horiz-adv-x="181" d="M101 509 C110 509 117 516 121 520 C147 547 160 566 170 621 L180 676 C183 690 174 698 164 698 C155 698 146 692 144 680 L134 626 C128 592 121 571 94 542 C88 536 85 531 85 525 C85 517 91 509 101 509 Z " />
<glyph glyph-name="quotedblleft" unicode="&#x201c;" horiz-adv-x="295" d="M221 509 C230 509 239 516 241 528 L251 582 C257 616 264 637 291 666 C297 672 300 677 300 683 C300 691 294 698 284 698 C275 698 268 692 264 688 C238 661 225 642 215 587 L205 532 C202 518 211 509 221 509 Z M114 509 C123 509 132 516 134 528 L144 582 C150 616 157 637 184 666 C190 672 193 677 193 683 C193 691 187 698 177 698 C168 698 161 692 157 688 C131 661 118 642 108 587 L98 532 C95 518 104 509 114 509 Z " />
<glyph glyph-name="quotedblright" unicode="&#x201d;" horiz-adv-x="290" d="M209 509 C218 509 225 516 229 520 C255 547 268 566 278 621 L288 676 C291 690 282 698 272 698 C263 698 254 692 252 680 L242 626 C236 592 229 571 202 542 C196 536 193 531 193 525 C193 517 199 509 209 509 Z M101 509 C110 509 117 516 121 520 C147 547 160 566 170 621 L180 676 C183 690 174 698 164 698 C155 698 146 692 144 680 L134 626 C128 592 121 571 94 542 C88 536 85 531 85 525 C85 517 91 509 101 509 Z " />
<glyph glyph-name="quotesinglbase" unicode="&#x201a;" horiz-adv-x="178" d="M46 -94 C55 -94 62 -87 66 -83 C92 -56 105 -37 115 18 L125 73 C128 87 119 95 109 95 C100 95 91 89 89 77 L79 23 C73 -11 66 -32 39 -61 C33 -67 30 -72 30 -78 C30 -86 36 -94 46 -94 Z " />
<glyph glyph-name="quotedblbase" unicode="&#x201e;" horiz-adv-x="276" d="M168 -95 C177 -95 184 -88 188 -84 C214 -57 227 -38 237 17 L247 72 C250 86 241 94 231 94 C222 94 213 88 211 76 L201 22 C195 -12 188 -33 161 -62 C155 -68 152 -73 152 -79 C152 -87 158 -95 168 -95 Z M60 -94 C69 -94 76 -87 80 -83 C106 -56 119 -37 129 18 L139 73 C142 87 133 95 123 95 C114 95 105 89 103 77 L93 23 C87 -11 80 -32 53 -61 C47 -67 44 -72 44 -78 C44 -86 50 -94 60 -94 Z " />
<glyph glyph-name="guilsinglleft" unicode="&#x2039;" horiz-adv-x="336" d="M45 339 C45 325 51 310 65 296 L174 182 C179 177 184 175 189 175 C199 175 206 184 206 193 C206 197 205 201 201 205 L95 318 C87 327 84 334 84 341 C84 351 92 360 105 370 L249 483 C256 489 259 495 259 501 C259 510 252 517 243 517 C238 517 233 515 228 511 L80 396 C57 378 45 359 45 339 Z " />
<glyph glyph-name="guilsinglright" unicode="&#x203a;" horiz-adv-x="336" d="M289 353 C289 367 283 382 269 396 L160 510 C155 515 150 517 145 517 C135 517 128 508 128 499 C128 495 129 491 133 487 L240 374 C248 365 251 358 251 351 C251 341 243 332 230 322 L85 209 C78 203 75 197 75 191 C75 182 82 175 91 175 C96 175 101 177 106 181 L254 296 C277 314 289 333 289 353 Z " />
<glyph glyph-name="guillemotleft" unicode="&#xab;" horiz-adv-x="497" d="M207 339 C207 325 213 310 227 296 L336 182 C341 177 346 175 351 175 C361 175 368 184 368 193 C368 197 367 201 363 205 L257 318 C249 327 246 334 246 341 C246 351 254 360 267 370 L411 483 C418 489 421 495 421 501 C421 510 414 517 405 517 C400 517 395 515 390 511 L242 396 C219 378 207 359 207 339 Z M45 339 C45 325 51 310 65 296 L174 182 C179 177 184 175 189 175 C199 175 206 184 206 193 C206 197 205 201 201 205 L95 318 C87 327 84 334 84 341 C84 351 92 360 105 370 L249 483 C256 489 259 495 259 501 C259 510 252 517 243 517 C238 517 233 515 228 511 L80 396 C57 378 45 359 45 339 Z " />
<glyph glyph-name="guillemotright" unicode="&#xbb;" horiz-adv-x="497" d="M453 353 C453 367 447 382 433 396 L324 510 C319 515 314 517 309 517 C299 517 292 508 292 499 C292 495 293 491 297 487 L404 374 C412 365 415 358 415 351 C415 341 407 332 394 322 L249 209 C242 203 239 197 239 191 C239 182 246 175 255 175 C260 175 265 177 270 181 L418 296 C441 314 453 333 453 353 Z M291 353 C291 367 285 382 271 396 L162 510 C157 515 152 517 147 517 C137 517 130 508 130 499 C130 495 131 491 135 487 L242 374 C250 365 253 358 253 351 C253 341 245 332 232 322 L87 209 C80 203 77 197 77 191 C77 182 84 175 93 175 C98 175 103 177 108 181 L256 296 C279 314 291 333 291 353 Z " />
<glyph glyph-name="slash" unicode="&#x2f;" horiz-adv-x="298" d="M5 -32 C15 -32 22 -27 25 -20 L310 705 C315 718 309 731 297 732 C285 732 278 726 275 718 L-10 -6 C-16 -21 -6 -32 5 -32 Z " />
<glyph glyph-name="bar" unicode="&#x7c;" horiz-adv-x="297" d="M140 -140 C151 -140 159 -131 159 -120 L159 815 C159 826 152 835 140 835 C130 835 122 826 122 815 L122 -120 C122 -130 129 -140 140 -140 Z " />
<glyph glyph-name="endash" unicode="&#x2013;" horiz-adv-x="588" d="M49 286 C49 276 56 267 69 267 L519 267 C530 267 539 274 539 285 C539 295 532 304 519 304 L69 304 C58 304 49 297 49 286 Z " />
<glyph glyph-name="emdash" unicode="&#x2014;" horiz-adv-x="952" d="M49 286 C49 276 56 267 69 267 L883 267 C894 267 903 274 903 285 C903 295 896 304 883 304 L69 304 C58 304 49 297 49 286 Z " />
<glyph glyph-name="bullet" unicode="&#x2022;" horiz-adv-x="472" d="M110 350 C110 281 167 224 236 224 C305 224 362 281 362 350 C362 419 305 476 236 476 C167 476 110 419 110 350 Z " />
<glyph glyph-name="periodcentered" unicode="&#xb7;" horiz-adv-x="234" d="M108 297 C117 297 125 303 127 316 L144 421 C146 433 137 441 127 441 C118 441 109 435 107 422 L90 319 C88 305 98 297 108 297 Z " />
<glyph glyph-name="parenleft" unicode="&#x28;" horiz-adv-x="323" d="M228 -176 C240 -176 249 -166 249 -156 C249 -152 247 -148 243 -142 C167 -36 127 94 127 241 C127 577 323 721 363 760 C370 768 373 772 373 778 C373 789 363 795 355 795 C350 795 344 792 339 788 C160 641 90 445 90 241 C90 92 124 -40 213 -167 C218 -174 223 -176 228 -176 Z " />
<glyph glyph-name="parenright" unicode="&#x29;" horiz-adv-x="323" d="M-27 -176 C-22 -176 -16 -173 -11 -169 C168 -22 238 174 238 378 C238 527 204 659 115 786 C110 793 105 795 100 795 C88 795 79 785 79 775 C79 771 81 767 85 760 C161 655 201 525 201 378 C201 42 5 -102 -35 -141 C-42 -149 -45 -153 -45 -159 C-45 -170 -35 -176 -27 -176 Z " />
<glyph glyph-name="bracketleft" unicode="&#x5b;" horiz-adv-x="320" d="M65 -137 L214 755 L371 755 C386 755 394 765 394 776 C394 785 388 793 375 793 L216 793 C192 793 180 775 177 757 L28 -138 C25 -157 31 -175 56 -175 L216 -175 C232 -175 241 -165 241 -155 C241 -145 234 -137 221 -137 Z " />
<glyph glyph-name="bracketright" unicode="&#x5d;" horiz-adv-x="319" d="M105 -137 L-52 -137 C-67 -137 -75 -148 -75 -158 C-75 -167 -69 -175 -56 -175 L103 -175 C128 -175 140 -157 143 -139 L292 756 C295 775 289 793 263 793 L103 793 C87 793 79 783 79 773 C79 763 85 755 98 755 L254 755 Z " />
<glyph glyph-name="braceleft" unicode="&#x7b;" horiz-adv-x="317" d="M212 -174 C228 -172 236 -164 236 -154 C236 -145 230 -136 216 -136 L94 -136 C77 -136 64 -127 68 -105 L114 166 C128 251 94 292 69 312 C109 333 149 378 163 464 L207 723 C211 745 226 754 243 754 L367 754 C381 754 390 765 390 776 C390 784 384 792 371 792 L247 792 C204 792 177 773 169 728 L125 464 C114 399 88 367 49 343 C36 335 27 325 27 311 C27 299 34 291 40 286 C69 260 86 228 76 167 L30 -106 C23 -150 51 -174 88 -174 Z " />
<glyph glyph-name="braceright" unicode="&#x7d;" horiz-adv-x="317" d="M68 -174 C111 -174 138 -155 146 -110 L190 154 C201 219 227 251 266 275 C279 283 288 293 288 307 C288 319 281 327 275 332 C246 358 229 390 239 451 L285 724 C292 768 264 792 226 792 L102 792 C87 792 79 782 79 772 C79 762 85 754 98 754 L221 754 C238 754 251 745 247 723 L201 452 C187 367 221 326 246 306 C206 285 166 240 152 154 L108 -105 C104 -127 89 -136 72 -136 L-53 -136 C-67 -136 -75 -147 -75 -158 C-75 -166 -69 -174 -57 -174 Z " />
<glyph glyph-name="asterisk" unicode="&#x2a;" horiz-adv-x="346" d="M147 368 C156 368 165 374 167 387 L186 504 L275 445 C285 439 295 441 301 448 C306 455 306 465 295 472 L206 531 L317 590 C329 596 332 607 329 614 C324 622 314 627 302 620 L195 561 L215 674 C219 689 210 697 200 697 C191 697 183 690 181 677 L161 561 L73 619 C64 625 54 623 49 617 C43 610 42 598 52 591 L141 535 L29 474 C18 468 15 458 18 451 C21 443 32 438 44 444 L152 504 L132 389 C130 376 137 368 147 368 Z " />
<glyph glyph-name="dagger" unicode="&#x2020;" horiz-adv-x="412" d="M211 434 L119 -117 C116 -132 126 -140 137 -140 C146 -140 154 -134 156 -123 L249 434 L413 434 C428 434 435 444 435 454 C435 463 429 471 417 471 L256 471 L292 688 C294 701 286 709 275 709 C266 709 256 704 254 689 L218 471 L53 471 C39 471 32 461 32 451 C32 442 37 434 50 434 Z " />
<glyph glyph-name="daggerdbl" unicode="&#x2021;" horiz-adv-x="412" d="M211 434 L161 135 L-3 135 C-17 135 -24 125 -24 115 C-24 106 -19 98 -6 98 L155 98 L119 -117 C116 -132 126 -140 137 -140 C146 -140 154 -134 156 -123 L193 98 L358 98 C372 98 379 108 379 118 C379 127 373 135 361 135 L199 135 L249 434 L413 434 C428 434 435 444 435 454 C435 463 429 471 417 471 L256 471 L292 688 C294 701 286 709 275 709 C266 709 256 704 254 689 L218 471 L53 471 C39 471 32 461 32 451 C32 442 37 434 50 434 Z " />
<glyph glyph-name="section" unicode="&#xa7;" horiz-adv-x="569" d="M239 -103 C375 -103 452 -17 452 86 C452 126 439 155 418 176 C449 206 468 240 468 278 C468 337 424 364 321 397 C227 427 171 456 171 522 C171 619 259 670 350 670 C397 670 456 654 496 626 C501 623 506 617 515 617 C525 617 533 625 533 635 C533 639 532 643 529 647 C516 665 440 708 352 708 C233 708 133 638 133 523 C133 487 147 454 167 433 C136 404 107 368 107 323 C107 277 132 241 255 203 C342 176 413 168 413 85 C413 -2 345 -65 243 -65 C190 -65 111 -44 70 -13 C65 -9 59 -5 51 -5 C40 -5 32 -14 32 -24 C32 -30 35 -36 40 -41 C61 -62 151 -103 239 -103 Z M389 198 C353 214 332 221 271 239 C173 268 145 290 145 326 C145 359 172 393 193 410 C230 390 240 383 303 362 C391 332 429 318 429 273 C429 239 407 214 389 198 Z " />
<glyph glyph-name="paragraph" unicode="&#xb6;" horiz-adv-x="634" d="M305 -192 C313 -192 324 -186 326 -172 L463 659 L555 659 L417 -171 C415 -184 424 -192 435 -192 C443 -192 453 -186 455 -172 L593 661 C597 684 595 698 560 698 L385 698 C243 698 140 608 140 475 C140 355 225 287 343 287 L364 287 L288 -171 C286 -184 295 -192 305 -192 Z M370 324 L345 324 C253 324 181 375 181 474 C181 592 274 659 388 659 L426 659 Z " />
<glyph glyph-name="asciicircum" unicode="&#x5e;" horiz-adv-x="655" d="M175 365 C183 365 190 369 193 377 L314 668 C316 673 320 680 328 680 C335 680 339 673 341 668 L462 377 C465 369 472 365 481 365 C495 365 504 379 499 391 L382 669 C367 705 347 717 328 717 C308 717 288 705 273 669 L156 391 C151 379 160 365 175 365 Z " />
<glyph glyph-name="asciitilde" unicode="&#x7e;" horiz-adv-x="615" d="M402 300 C426 300 456 310 507 332 C516 336 523 342 523 352 C523 360 515 371 504 371 C500 371 496 369 491 366 C455 347 431 339 404 339 C330 339 283 391 207 391 C178 391 148 381 104 361 C95 357 87 351 87 339 C87 332 93 323 105 323 C109 323 114 324 120 327 C155 346 177 353 205 353 C280 353 326 300 402 300 Z " />
<glyph glyph-name="brokenbar" unicode="&#xa6;" horiz-adv-x="287" d="M139 -140 C150 -140 158 -131 158 -120 L158 291 C158 302 151 311 139 311 C129 311 121 302 121 291 L121 -120 C121 -130 128 -140 139 -140 Z M139 384 C150 384 158 393 158 404 L158 815 C158 826 151 835 139 835 C129 835 121 826 121 815 L121 404 C121 394 128 384 139 384 Z " />
<glyph glyph-name="backslash" unicode="&#x5c;" horiz-adv-x="293" d="M228 -32 C241 -32 249 -20 246 -8 L82 716 C80 727 71 733 63 733 C48 733 41 720 44 707 L208 -15 C210 -25 218 -32 228 -32 Z " />
<glyph glyph-name="underscore" unicode="&#x5f;" horiz-adv-x="452" d="M462 -154 L-10 -154 L-10 -191 L462 -191 Z " />
<glyph glyph-name="quotesingle" unicode="&#x27;" horiz-adv-x="207" d="M181 680 C183 692 174 700 164 700 C155 700 146 694 144 681 L119 531 C117 517 126 509 136 509 C145 509 154 516 156 529 Z " />
<glyph glyph-name="quotedbl" unicode="&#x22;" horiz-adv-x="305" d="M168 680 C170 692 161 700 151 700 C142 700 133 694 131 681 L106 531 C104 517 113 509 123 509 C132 509 141 516 143 529 Z M279 680 C281 692 272 700 262 700 C252 700 243 694 241 681 L216 531 C214 517 223 509 234 509 C243 509 252 516 254 529 Z " />
<glyph glyph-name="at" unicode="&#x40;" horiz-adv-x="823" d="M380 65 C416 65 447 74 462 81 C472 86 477 92 477 101 C477 110 471 117 461 117 C445 117 428 102 384 102 C310 102 262 139 276 238 L285 299 C299 397 355 439 427 439 C511 439 561 383 548 299 L531 192 C519 121 564 71 631 71 C687 71 725 103 737 178 L767 361 C799 553 667 701 450 701 C261 701 131 588 86 375 C75 324 58 210 54 159 C37 -55 182 -159 347 -159 C393 -159 461 -146 491 -131 C499 -127 507 -122 507 -111 C507 -100 499 -91 481 -98 C438 -112 404 -122 351 -122 C206 -122 74 -31 91 156 C94 203 108 310 124 377 C169 565 283 664 449 664 C634 664 760 540 731 366 L699 174 C693 138 673 107 631 107 C592 107 559 133 568 189 L585 300 C599 390 550 476 430 476 C327 476 263 413 248 300 L240 240 C225 129 280 65 380 65 Z " />
<glyph glyph-name="copyright" unicode="&#xa9;" horiz-adv-x="802" d="M400 706 C246 706 115 585 104 431 C100 378 100 321 104 268 C115 110 246 -8 400 -8 C554 -8 686 110 697 268 C701 320 701 378 697 431 C686 586 554 706 400 706 Z M400 669 C531 669 646 569 659 436 C665 378 665 320 659 261 C646 128 532 29 400 29 C268 29 155 128 142 261 C136 320 136 378 142 436 C155 569 268 669 400 669 Z M400 562 C305 562 241 489 234 397 C232 365 231 339 234 308 C241 216 305 143 400 143 C462 143 525 177 550 234 C552 239 555 247 555 251 C555 263 547 270 537 270 C528 270 522 264 519 257 C501 214 461 180 400 180 C327 180 277 234 271 310 C269 342 268 363 271 395 C277 471 327 525 400 525 C461 525 501 491 519 448 C522 441 528 435 537 435 C547 435 555 442 555 454 C555 458 552 466 550 471 C525 528 462 562 400 562 Z " />
<glyph glyph-name="registered" unicode="&#xae;" horiz-adv-x="591" d="M230 460 L230 563 L306 563 C345 563 364 543 364 512 C364 482 345 460 304 460 Z M215 320 C224 320 230 327 230 335 L230 431 L278 431 C289 431 292 428 298 421 L378 327 C381 324 385 319 393 319 C400 319 407 325 407 333 C407 338 404 343 402 345 L325 433 C364 442 395 460 395 513 C395 566 353 594 307 594 L228 594 C210 594 200 581 200 566 L200 335 C200 327 207 320 215 320 Z M292 234 C194 234 120 294 111 409 C109 433 109 479 111 503 C120 618 194 678 292 678 C390 678 464 618 473 503 C475 479 475 433 473 409 C464 294 390 234 292 234 Z M292 203 C408 203 493 275 505 411 C507 434 507 478 505 502 C493 637 408 709 292 709 C176 709 91 637 79 502 C77 478 77 434 79 411 C91 275 176 203 292 203 Z " />
<glyph glyph-name="trademark" unicode="&#x2122;" horiz-adv-x="487" d="M120 463 C127 463 133 468 134 477 L167 674 L232 674 C241 674 247 682 247 689 C247 695 243 701 234 701 L75 701 C66 701 61 693 61 686 C61 680 65 674 73 674 L140 674 L107 477 C106 469 112 463 120 463 Z M246 464 C252 464 257 468 260 475 L317 672 C318 675 319 676 321 676 C323 676 324 674 324 672 L338 494 C339 477 351 466 365 466 C380 466 388 474 395 491 L467 673 C468 675 469 676 470 676 C472 676 473 675 473 672 L467 478 C467 469 474 464 481 464 C488 464 494 469 494 478 L498 677 C498 695 486 703 472 703 C459 703 448 698 441 679 L371 495 C370 493 369 492 367 492 C365 492 364 494 364 496 L350 677 C349 693 339 703 324 703 C310 703 299 698 293 677 L234 481 C231 471 237 464 246 464 Z " />
<glyph glyph-name="ordfeminine" unicode="&#xaa;" horiz-adv-x="460" d="M205 275 C257 275 308 295 354 339 C357 326 365 300 373 288 C377 282 382 277 390 277 C401 277 409 285 409 295 C409 298 408 301 406 305 C390 337 380 361 394 446 L425 634 C427 646 425 654 412 664 C392 679 335 705 262 705 C165 705 104 659 79 548 C72 517 65 469 63 444 C54 334 117 275 205 275 Z M204 312 C127 312 92 359 100 447 C103 477 110 519 115 542 C132 621 175 668 263 668 C315 668 365 652 389 635 L370 522 C362 473 352 421 351 381 C305 333 255 312 204 312 Z " />
<glyph glyph-name="ordmasculine" unicode="&#xba;" horiz-adv-x="434" d="M253 701 C173 701 100 650 79 539 C74 511 72 484 70 462 C61 339 142 281 225 281 C326 281 381 354 395 444 C398 466 404 510 405 528 C411 619 355 701 253 701 Z M252 664 C334 664 372 597 369 525 C367 508 363 471 358 443 C341 355 288 318 225 318 C163 318 98 358 105 459 C107 482 111 515 115 536 C130 613 181 664 252 664 Z " />
<glyph glyph-name="numbersign" unicode="&#x23;" horiz-adv-x="570" d="M25 -9 C33 -9 40 -5 44 3 L156 231 L289 231 L183 17 C175 2 186 -9 198 -9 C205 -9 212 -5 216 3 L329 231 L415 231 C431 231 439 241 439 251 C439 260 433 268 420 268 L347 268 L434 445 L516 445 C532 445 540 455 540 465 C540 474 534 482 522 482 L453 482 L551 681 C559 697 550 708 536 708 C529 708 522 704 517 694 L413 482 L281 482 L378 681 C386 697 377 708 364 708 C357 708 350 704 345 694 L241 482 L157 482 C142 482 133 473 133 461 C133 452 140 445 150 445 L222 445 L135 268 L55 268 C39 268 31 258 31 248 C31 240 37 231 49 231 L117 231 L11 17 C3 2 14 -9 25 -9 Z M175 268 L261 445 L394 445 L307 268 Z " />
<glyph glyph-name="currency" unicode="&#xa4;" horiz-adv-x="624" d="M312 143 C373 143 408 166 441 198 L537 100 C541 96 546 93 552 93 C561 93 570 103 570 112 C570 117 568 122 564 126 L465 227 C481 255 491 290 492 320 C493 341 493 360 492 381 C491 414 480 449 465 476 L564 577 C568 581 570 586 570 591 C570 600 561 610 552 610 C546 610 541 607 537 603 L441 505 C408 537 370 560 312 560 C254 560 216 537 183 505 L87 603 C83 607 78 610 72 610 C63 610 54 600 54 591 C54 586 56 581 60 577 L159 476 C144 449 133 414 132 381 C131 360 131 341 132 320 C133 287 144 254 159 227 L60 126 C56 122 54 117 54 112 C54 103 63 93 72 93 C77 93 82 95 87 100 L183 198 C216 166 254 143 312 143 Z M312 180 C235 180 173 239 169 315 C168 338 167 365 169 388 C175 465 235 523 312 523 C389 523 449 465 455 388 C457 365 457 338 455 315 C449 239 389 180 312 180 Z " />
<glyph glyph-name="Euro" unicode="&#x20ac;" horiz-adv-x="633" d="M82 420 C66 421 58 409 58 399 C58 391 64 383 76 383 L137 383 L126 318 L65 318 C49 318 41 307 41 297 C41 289 47 281 59 281 L120 281 C94 75 211 -7 344 -7 C410 -7 486 19 546 70 C550 74 552 78 552 83 C552 92 545 101 534 101 C528 101 523 98 517 93 C462 48 396 30 346 30 C201 30 137 129 157 281 L385 281 C401 281 409 291 409 301 C409 310 403 318 391 318 L164 318 L175 383 L402 383 C418 383 426 393 426 403 C426 412 420 420 408 420 L182 420 C211 574 300 670 443 670 C508 670 559 655 605 608 C611 603 617 600 623 600 C633 600 642 608 642 618 C642 622 640 626 637 630 C593 682 517 708 446 708 C283 708 175 596 143 420 Z " />
<glyph glyph-name="dollar" unicode="&#x24;" horiz-adv-x="588" d="M223 -89 C232 -89 241 -83 243 -69 L257 17 C396 13 502 85 502 202 C502 315 401 345 288 375 C217 394 137 417 137 502 C137 596 235 642 327 642 C383 642 438 626 474 599 C479 595 484 593 489 593 C500 593 507 601 507 610 C507 615 505 620 500 625 C484 642 430 669 367 679 L382 767 C384 779 376 787 365 787 C355 787 347 779 345 767 L330 679 C218 679 98 621 98 500 C98 390 205 358 287 336 C392 308 465 287 465 201 C465 100 368 55 271 55 C191 55 123 79 67 116 C62 120 57 122 52 122 C41 122 32 112 32 102 C32 97 34 90 40 86 C75 59 145 27 221 18 L206 -68 C204 -81 213 -89 223 -89 Z " />
<glyph glyph-name="cent" unicode="&#xa2;" horiz-adv-x="504" d="M237 -9 C246 -9 255 -3 257 11 L275 117 C353 120 412 162 437 218 C439 223 441 229 441 235 C441 246 431 251 424 251 C415 251 409 246 404 236 C382 188 331 155 273 155 C168 155 134 220 141 303 C144 340 148 365 157 403 C180 497 239 544 323 544 C378 544 419 519 438 467 C442 456 448 449 457 449 C469 449 476 458 476 469 C476 472 476 474 475 478 C462 532 414 574 352 583 L370 688 C372 701 363 709 352 709 C343 709 334 703 332 688 L314 583 C214 581 142 517 117 406 C107 362 103 326 101 298 C94 197 146 132 237 117 L219 14 C217 -1 227 -9 237 -9 Z " />
<glyph glyph-name="sterling" unicode="&#xa3;" horiz-adv-x="589" d="M80 38 C135 105 184 190 193 307 L364 307 C378 307 387 317 387 327 C387 336 380 344 368 344 L192 344 C187 411 181 463 190 516 C201 586 252 671 361 671 C418 671 464 648 512 601 C517 595 523 592 529 592 C539 592 548 601 548 612 C548 618 544 624 541 628 C513 664 443 709 366 709 C242 709 166 628 151 514 C144 464 148 403 153 344 L83 344 C69 344 61 334 61 324 C61 315 66 307 79 307 L154 307 C151 216 105 125 50 57 C33 37 32 0 71 0 L469 0 C485 0 492 11 492 21 C492 29 486 38 474 38 Z " />
<glyph glyph-name="florin" unicode="&#x192;" horiz-adv-x="534" d="M17 -202 C26 -202 33 -197 36 -188 L197 339 L386 339 C399 339 406 348 406 357 C406 366 398 374 386 374 L208 374 L271 581 C287 634 317 671 389 671 C449 671 482 651 503 631 C508 626 514 624 519 624 C528 624 536 630 536 642 C536 647 534 651 530 655 C502 683 454 709 385 709 C319 709 261 674 239 602 L168 374 L98 374 C88 374 80 367 80 356 C80 345 90 339 98 339 L157 339 L0 -175 C-4 -189 1 -202 17 -202 Z " />
<glyph glyph-name="yen" unicode="&#xa5;" horiz-adv-x="616" d="M252 -4 C265 -4 269 5 271 16 L310 250 L475 250 C488 250 495 261 495 270 C495 281 486 288 476 288 L316 288 L319 305 C322 321 328 331 345 349 L655 668 C660 674 662 680 662 685 C662 695 653 703 643 703 C637 703 632 701 626 695 L307 364 L100 693 C96 699 90 702 84 702 C73 702 65 694 65 684 C65 680 66 676 69 671 L270 350 C281 332 285 321 282 305 L279 288 L128 288 C118 288 109 280 109 269 C109 260 116 250 129 250 L273 250 L234 16 C232 6 240 -4 252 -4 Z " />
<glyph glyph-name="zero" unicode="0" horiz-adv-x="645" d="M305 -8 C459 -8 532 102 557 234 C571 302 582 370 589 446 C602 590 512 707 359 707 C201 707 128 597 103 465 C89 391 79 343 71 253 C58 109 148 -8 305 -8 Z M305 30 C166 30 98 130 109 262 C114 334 125 392 140 465 C163 577 223 669 355 669 C494 669 563 569 552 437 C546 365 532 292 520 234 C496 122 437 30 305 30 Z " />
<glyph glyph-name="one" unicode="1" horiz-adv-x="407" d="M181 -4 C195 -4 199 4 201 16 L310 671 C314 694 302 702 287 702 C282 702 274 700 265 695 L96 602 C87 597 82 590 82 583 C82 571 91 566 99 566 C103 566 107 567 111 569 L269 655 L163 16 C161 4 171 -4 181 -4 Z " />
<glyph glyph-name="two" unicode="2" horiz-adv-x="564" d="M53 38 C64 107 89 146 230 239 C359 324 514 404 514 542 C514 641 437 707 328 707 C236 707 162 656 128 620 C119 611 111 603 111 592 C111 582 121 575 128 575 C134 575 139 579 145 585 C185 625 248 669 326 669 C414 669 476 619 476 542 C476 423 339 358 202 265 C73 178 28 131 12 37 C9 17 19 0 40 0 L418 0 C431 0 442 7 442 20 C442 32 432 38 422 38 Z " />
<glyph glyph-name="three" unicode="3" horiz-adv-x="558" d="M436 656 L214 443 C206 436 202 429 202 421 C202 409 214 400 230 400 C235 400 258 401 271 401 C376 401 436 332 436 254 C436 83 223 38 90 38 C68 38 57 39 42 39 C28 39 20 29 20 17 C20 6 28 -1 48 -1 C224 -1 472 45 472 255 C472 370 376 443 259 437 L472 639 C485 651 491 661 491 672 C491 684 484 697 454 697 L119 697 C107 697 97 690 97 678 C97 668 105 659 116 659 L435 659 Z " />
<glyph glyph-name="four" unicode="4" horiz-adv-x="637" d="M413 182 L386 16 C384 5 393 -4 404 -4 C417 -4 421 6 423 16 L451 182 L541 182 C555 182 564 191 564 201 C564 211 557 219 546 219 L457 219 L531 667 C534 687 524 702 506 702 C489 702 475 690 462 676 L44 241 C35 231 30 220 30 210 C30 194 43 182 66 182 Z M420 219 L73 219 L491 653 Z " />
<glyph glyph-name="five" unicode="5" horiz-adv-x="574" d="M502 281 C502 374 431 451 305 451 C248 451 181 427 138 398 L181 659 L501 659 C514 659 524 668 524 680 C524 691 515 697 505 697 L185 697 C167 697 149 692 144 662 L98 384 C93 356 118 345 138 357 C190 390 246 414 305 414 C414 414 465 349 465 276 C465 89 204 34 67 34 C57 34 48 35 39 35 C25 35 14 27 14 13 C14 2 22 -5 35 -5 C228 -5 502 55 502 281 Z " />
<glyph glyph-name="six" unicode="6" horiz-adv-x="636" d="M289 -8 C447 -8 534 110 534 247 C534 367 449 433 316 433 C229 433 158 403 113 381 C152 573 275 668 446 668 C489 668 530 662 541 662 C556 662 563 673 563 682 C563 690 558 697 547 700 C530 705 474 707 448 707 C174 707 62 477 62 264 C62 61 167 -8 289 -8 Z M288 30 C183 30 100 96 100 259 C100 281 102 308 106 339 C160 367 231 396 316 396 C443 396 497 333 497 241 C497 126 414 30 288 30 Z " />
<glyph glyph-name="seven" unicode="7" horiz-adv-x="492" d="M86 -4 C94 -4 102 2 107 15 C176 200 295 357 515 645 C523 655 528 665 528 674 C528 691 514 697 497 697 L97 697 C83 697 76 688 76 678 C76 669 82 659 94 659 L477 659 C230 334 142 213 69 25 C63 11 68 -4 86 -4 Z " />
<glyph glyph-name="eight" unicode="8" horiz-adv-x="649" d="M353 385 C241 385 168 437 168 513 C168 626 275 669 367 669 C493 669 550 606 550 539 C550 453 483 385 353 385 Z M315 30 C193 30 103 73 103 174 C103 306 208 348 317 348 C443 348 517 295 517 202 C517 74 402 30 315 30 Z M308 -8 C452 -8 556 68 556 208 C556 297 499 340 441 363 C542 389 588 461 588 543 C588 625 516 707 367 707 C239 707 130 644 130 513 C130 453 168 400 229 376 C124 357 63 274 63 174 C63 59 157 -8 308 -8 Z " />
<glyph glyph-name="nine" unicode="9" horiz-adv-x="627" d="M501 312 C454 123 296 30 81 33 C67 33 57 25 57 13 C57 3 65 -5 77 -5 C389 -5 559 159 559 482 C559 633 461 711 330 711 C179 711 87 596 87 466 C87 322 189 261 312 261 C395 261 459 287 501 312 Z M509 354 C456 326 398 298 312 298 C185 298 126 366 126 463 C126 584 211 673 331 673 C441 673 520 609 520 475 C520 440 518 401 509 354 Z " />
<glyph glyph-name="onesuperior" unicode="&#xb9;" horiz-adv-x="300" d="M135 243 C145 243 152 250 154 263 L222 675 C225 694 213 698 206 698 C197 698 187 692 181 689 L81 638 C73 634 69 627 69 621 C69 605 85 601 96 607 L182 650 L117 264 C115 254 122 243 135 243 Z " />
<glyph glyph-name="twosuperior" unicode="&#xb2;" horiz-adv-x="448" d="M79 282 C79 327 114 369 206 418 C285 459 375 508 375 596 C375 672 308 708 250 708 C182 708 131 669 110 639 C106 634 104 627 104 623 C104 615 110 609 119 609 C125 609 130 613 137 621 C160 646 192 675 248 675 C309 675 340 640 340 594 C340 515 243 476 181 441 C114 404 44 356 44 270 C44 255 55 246 71 246 L310 246 C325 246 333 256 333 265 C333 273 326 282 313 282 Z " />
<glyph glyph-name="threesuperior" unicode="&#xb3;" horiz-adv-x="419" d="M325 656 L180 534 C171 526 166 517 166 508 C166 498 172 488 188 488 C197 488 211 491 229 491 C293 491 318 454 318 409 C318 294 159 271 89 271 C80 271 69 271 62 271 C46 271 37 264 37 252 C37 246 41 238 55 236 C63 235 71 235 80 235 C207 235 355 282 355 409 C355 500 282 531 215 523 L349 633 C362 644 369 657 369 668 C369 682 358 694 335 694 L119 694 C106 694 98 684 98 674 C98 665 105 656 118 656 Z " />
<glyph glyph-name="fraction" unicode="&#x2044;" horiz-adv-x="283" d="M-64 -32 C-57 -32 -51 -27 -47 -20 L358 701 C361 706 363 712 363 716 C363 726 356 732 347 732 C340 732 333 728 328 720 L-78 -3 C-80 -7 -82 -11 -82 -16 C-82 -25 -73 -32 -64 -32 Z " />
<glyph glyph-name="onequarter" unicode="&#xbc;" horiz-adv-x="958" d="M787 0 C799 0 803 10 805 20 L820 111 L872 111 C887 111 894 121 894 130 C894 139 888 147 876 147 L826 147 L872 425 C875 440 869 457 847 457 C836 457 826 449 812 434 L545 163 C536 154 530 145 530 134 C530 123 536 111 555 111 L786 111 L771 20 C769 8 776 0 787 0 Z M792 147 L574 147 L837 414 Z M150 243 C160 243 166 250 168 263 L237 675 C240 694 228 698 221 698 C212 698 202 692 196 689 L96 638 C88 634 84 627 84 621 C84 605 100 601 111 607 L197 650 L132 264 C130 254 137 243 150 243 Z M213 -28 C220 -28 227 -23 231 -16 L635 705 C638 710 640 716 640 720 C640 730 633 736 624 736 C617 736 610 732 605 724 L199 1 C197 -3 195 -7 195 -12 C195 -21 204 -28 213 -28 Z " />
<glyph glyph-name="onehalf" unicode="&#xbd;" horiz-adv-x="976" d="M213 -32 C220 -32 226 -27 230 -20 L635 701 C638 706 640 712 640 716 C640 726 633 732 624 732 C617 732 610 728 605 720 L199 -3 C197 -7 195 -11 195 -16 C195 -25 204 -32 213 -32 Z M150 243 C160 243 167 250 169 263 L237 675 C240 694 228 698 221 698 C212 698 202 692 196 689 L96 638 C88 634 84 627 84 621 C84 605 100 601 111 607 L197 650 L132 264 C130 254 137 243 150 243 Z M609 36 C609 81 644 123 736 172 C815 213 905 262 905 350 C905 426 838 462 780 462 C712 462 661 423 640 393 C636 388 634 381 634 377 C634 369 640 363 649 363 C655 363 660 367 667 375 C690 400 722 429 778 429 C839 429 870 394 870 348 C870 269 773 230 711 195 C644 158 574 110 574 24 C574 9 585 0 601 0 L840 0 C855 0 863 10 863 19 C863 27 856 36 843 36 Z " />
<glyph glyph-name="threequarters" unicode="&#xbe;" horiz-adv-x="1011" d="M841 0 C853 0 857 10 859 20 L874 111 L926 111 C941 111 949 121 949 130 C949 139 942 147 930 147 L880 147 L926 425 C929 440 923 457 901 457 C890 457 880 449 866 434 L599 163 C590 154 584 145 584 134 C584 123 590 111 609 111 L840 111 L825 20 C823 8 830 0 841 0 Z M846 147 L628 147 L891 414 Z M329 656 L184 534 C175 526 170 517 170 508 C170 498 176 488 192 488 C201 488 215 491 233 491 C297 491 323 454 323 409 C323 294 163 271 93 271 C84 271 73 271 66 271 C50 271 41 264 41 252 C41 246 45 238 59 236 C67 235 75 235 84 235 C211 235 359 282 359 409 C359 500 286 531 219 523 L353 633 C366 644 373 657 373 668 C373 682 362 694 339 694 L123 694 C110 694 102 684 102 674 C102 665 109 656 122 656 Z M298 -32 C305 -32 312 -27 316 -20 L720 701 C723 706 725 712 725 716 C725 726 718 732 709 732 C702 732 695 728 690 720 L284 -3 C282 -7 280 -11 280 -16 C280 -25 289 -32 298 -32 Z " />
<glyph glyph-name="percent" unicode="&#x25;" horiz-adv-x="658" d="M77 94 C82 94 87 96 92 101 L592 583 C598 588 600 593 600 598 C600 607 591 613 582 613 C577 613 572 611 567 606 L69 126 C63 121 61 115 61 110 C61 101 68 94 77 94 Z M189 383 C263 383 324 425 346 519 C350 535 353 557 355 573 C364 650 308 709 231 709 C151 709 90 659 73 573 C70 557 67 539 65 523 C54 442 112 383 189 383 Z M191 416 C134 416 92 458 99 520 C101 537 104 554 108 572 C121 634 171 676 228 676 C285 676 327 634 320 572 C318 554 315 537 311 520 C298 458 248 416 191 416 Z M427 -4 C501 -4 562 38 584 132 C588 148 591 170 593 186 C602 263 546 322 469 322 C389 322 328 272 311 186 C308 170 305 152 303 136 C292 55 350 -4 427 -4 Z M429 29 C372 29 330 71 337 133 C339 150 342 167 346 185 C359 247 409 289 466 289 C523 289 565 247 558 185 C556 167 553 150 549 133 C536 71 486 29 429 29 Z " />
<glyph glyph-name="perthousand" unicode="&#x2030;" horiz-adv-x="984" d="M78 94 C83 94 88 96 93 101 L593 583 C599 588 601 593 601 598 C601 607 592 613 583 613 C578 613 573 611 568 606 L70 126 C64 121 62 115 62 110 C62 101 69 94 78 94 Z M190 383 C264 383 325 425 347 519 C351 535 354 557 356 573 C365 650 309 709 232 709 C152 709 91 659 74 573 C71 557 68 539 66 523 C55 442 113 383 190 383 Z M192 416 C135 416 93 458 100 520 C102 537 105 554 109 572 C122 634 172 676 229 676 C286 676 328 634 321 572 C319 554 316 537 312 520 C299 458 249 416 192 416 Z M428 -4 C502 -4 563 38 585 132 C589 148 592 170 594 186 C603 263 547 322 470 322 C390 322 329 272 312 186 C309 170 306 152 304 136 C293 55 351 -4 428 -4 Z M430 29 C373 29 331 71 338 133 C340 150 343 167 347 185 C360 247 410 289 467 289 C524 289 566 247 559 185 C557 167 554 150 550 133 C537 71 487 29 430 29 Z M754 -4 C828 -4 889 38 911 132 C915 148 918 170 920 186 C929 263 872 322 795 322 C715 322 654 272 637 186 C634 170 631 152 629 136 C618 55 676 -4 754 -4 Z M756 29 C699 29 657 71 664 133 C666 150 669 167 673 185 C686 247 736 289 792 289 C849 289 891 247 884 185 C882 167 879 150 875 133 C862 71 812 29 756 29 Z " />
<glyph glyph-name="plus" unicode="&#x2b;" horiz-adv-x="628" d="M313 95 C325 95 332 104 332 116 L332 332 L544 332 C555 332 566 339 566 350 C566 362 556 369 544 369 L332 369 L332 584 C332 596 325 605 313 605 C302 605 295 596 295 584 L295 369 L79 369 C67 369 58 362 58 350 C58 339 67 332 79 332 L295 332 L295 116 C295 103 301 95 313 95 Z " />
<glyph glyph-name="minus" unicode="&#x2212;" horiz-adv-x="628" d="M546 332 C557 332 568 339 568 350 C568 362 558 369 546 369 L81 369 C69 369 60 362 60 350 C60 339 69 332 81 332 Z " />
<glyph glyph-name="plusminus" unicode="&#xb1;" horiz-adv-x="628" d="M315 95 C327 95 334 104 334 117 L334 332 L546 332 C557 332 568 339 568 350 C568 363 558 370 546 370 L334 370 L334 584 C334 596 327 605 315 605 C304 605 297 596 297 584 L297 370 L81 370 C69 370 60 363 60 350 C60 339 69 332 81 332 L297 332 L297 117 C297 104 303 95 315 95 Z M546 0 C557 0 568 7 568 18 C568 30 558 38 546 38 L81 38 C69 38 60 30 60 18 C60 7 69 0 81 0 Z " />
<glyph glyph-name="multiply" unicode="&#xd7;" horiz-adv-x="628" d="M315 325 L506 136 C517 126 527 125 535 133 C544 142 542 153 534 162 L341 351 L532 541 C540 549 542 562 535 570 C527 579 514 576 505 567 L315 378 L120 571 C111 579 100 581 91 572 C84 564 85 553 94 544 L289 351 L95 159 C86 150 84 138 93 130 C101 123 112 124 121 133 Z " />
<glyph glyph-name="divide" unicode="&#xf7;" horiz-adv-x="628" d="M279 520 C279 501 295 485 314 484 C332 484 349 500 349 519 C349 538 333 553 314 553 C295 553 279 539 279 520 Z M279 182 C279 163 295 147 314 147 C332 147 349 162 349 181 C349 200 333 216 314 217 C295 217 279 201 279 182 Z M546 332 C557 332 568 339 568 350 C568 362 558 369 546 369 L81 369 C69 369 60 362 60 350 C60 339 69 332 81 332 Z " />
<glyph glyph-name="equal" unicode="&#x3d;" horiz-adv-x="628" d="M539 413 C550 413 561 420 561 431 C561 443 551 450 539 450 L88 450 C76 450 67 443 67 431 C67 420 76 413 88 413 Z M539 250 C550 250 561 257 561 268 C561 280 551 287 539 287 L88 287 C76 287 67 280 67 268 C67 257 76 250 88 250 Z " />
<glyph glyph-name="less" unicode="&#x3c;" horiz-adv-x="628" d="M455 650 C451 650 446 648 442 645 L143 400 C129 388 114 372 114 350 C114 328 129 312 143 300 L443 55 C447 52 452 50 456 50 C465 50 474 58 474 68 C474 74 471 80 466 84 L171 326 C157 337 153 342 153 350 C153 358 157 363 171 374 L465 616 C470 620 473 626 473 632 C473 642 464 650 455 650 Z " />
<glyph glyph-name="greater" unicode="&#x3e;" horiz-adv-x="628" d="M178 50 C182 50 187 52 191 55 L490 300 C504 312 519 328 519 350 C519 372 504 388 490 400 L190 645 C186 648 181 650 177 650 C168 650 159 642 159 632 C159 626 162 620 167 616 L462 374 C476 363 480 358 480 350 C480 342 476 337 462 326 L168 84 C163 80 160 74 160 68 C160 58 169 50 178 50 Z " />
<glyph glyph-name="lessequal" unicode="&#x2264;" horiz-adv-x="628" d="M170 303 C162 308 156 311 156 318 C156 325 162 328 170 333 L499 529 C507 534 510 546 505 556 C500 564 489 567 480 562 L147 359 C126 346 119 332 119 318 C119 304 127 288 147 276 L480 74 C488 69 500 71 505 80 C510 89 507 101 499 106 Z M487 -9 C498 -9 509 -2 509 9 C509 22 499 29 487 29 L140 29 C128 29 119 22 119 9 C119 -2 128 -9 140 -9 Z " />
<glyph glyph-name="greaterequal" unicode="&#x2265;" horiz-adv-x="628" d="M130 106 C122 101 119 89 124 80 C129 71 141 69 149 74 L482 276 C502 288 510 304 510 318 C510 332 503 346 482 359 L149 562 C140 567 129 564 124 556 C119 546 122 534 130 529 L459 333 C467 328 473 325 473 318 C473 311 467 308 459 303 Z M489 -9 C501 -9 510 -2 510 9 C510 22 501 29 489 29 L142 29 C130 29 120 22 120 9 C120 -2 131 -9 142 -9 Z " />
<glyph glyph-name="logicalnot" unicode="&#xac;" horiz-adv-x="628" d="M530 334 L530 117 C530 105 538 96 550 96 C562 96 568 104 568 117 L568 340 C568 357 556 371 536 371 L81 371 C69 371 60 364 60 352 C60 341 69 334 81 334 Z " />
<glyph glyph-name="degree" unicode="&#xb0;" horiz-adv-x="331" d="M176 475 C253 475 294 541 294 599 C294 654 258 701 190 701 C112 701 72 637 72 581 C72 523 110 475 176 475 Z M176 508 C127 508 105 543 105 578 C105 621 136 667 191 667 C240 667 262 632 262 597 C262 554 231 508 176 508 Z " />
<glyph glyph-name="&amp;#xb5;" unicode="&#xb5;" horiz-adv-x="604" d="M50 -192 C63 -192 68 -183 70 -172 L114 91 C143 20 201 -9 285 -9 C366 -9 437 27 468 49 C479 57 484 64 485 73 L555 494 C557 507 548 515 538 515 C529 515 520 509 517 494 L449 78 C407 50 344 29 285 29 C191 29 114 78 137 221 L181 491 C184 507 176 515 165 515 C152 515 146 506 144 492 L34 -172 C32 -183 39 -192 50 -192 Z " />
<glyph glyph-name="&amp;#x3bc;" unicode="&#x3bc;" horiz-adv-x="604" d="M50 -192 C63 -192 68 -183 70 -172 L114 91 C143 20 201 -9 285 -9 C366 -9 437 27 468 49 C479 57 484 64 485 73 L555 494 C557 507 548 515 538 515 C529 515 520 509 517 494 L449 78 C407 50 344 29 285 29 C191 29 114 78 137 221 L181 491 C184 507 176 515 165 515 C152 515 146 506 144 492 L34 -172 C32 -183 39 -192 50 -192 Z " />
<glyph glyph-name="fi" unicode="&#xfb01;" horiz-adv-x="616" d="M147 504 L97 504 C86 504 77 497 77 486 C77 476 84 466 97 466 L141 466 L66 19 C64 5 72 -4 84 -4 C95 -4 102 4 104 14 L179 466 L342 466 C353 466 362 474 362 485 C362 495 355 504 342 504 L185 504 L193 555 C205 629 238 673 315 673 C360 673 377 661 392 661 C403 661 411 670 411 679 C411 686 406 693 395 697 C379 703 346 710 320 710 C224 710 171 652 156 559 Z M585 667 C585 683 575 697 556 697 C533 697 522 678 522 661 C522 645 532 631 552 631 C574 631 585 650 585 667 Z M425 19 C423 5 431 -4 443 -4 C454 -4 460 4 462 14 L542 492 C544 506 536 515 524 515 C513 515 507 507 505 497 Z " />
<glyph glyph-name="fl" unicode="&#xfb02;" horiz-adv-x="604" d="M147 504 L97 504 C86 504 77 497 77 486 C77 476 84 466 97 466 L141 466 L66 19 C64 5 72 -4 84 -4 C95 -4 102 4 104 14 L179 466 L342 466 C353 466 362 474 362 485 C362 495 355 504 342 504 L185 504 L193 555 C205 629 238 673 315 673 C360 673 377 661 392 661 C403 661 411 670 411 679 C411 686 406 693 395 697 C379 703 346 710 320 710 C224 710 171 652 156 559 Z M425 19 C423 5 431 -4 443 -4 C454 -4 460 4 462 14 L573 682 C575 696 567 705 555 705 C544 705 538 697 536 687 Z " />
<glyph glyph-name="ampersand" unicode="&#x26;" horiz-adv-x="658" d="M255 -8 C336 -8 418 22 485 100 L593 1 C602 -7 616 -6 623 2 C630 11 627 22 618 31 L509 130 C530 160 549 195 566 236 C573 253 561 263 550 263 C540 263 535 254 525 232 C513 206 498 180 481 156 L288 332 C443 379 516 446 516 538 C516 632 433 699 324 699 C197 699 115 614 115 526 C115 448 172 395 218 347 C138 323 35 276 35 166 C35 57 136 -8 255 -8 Z M251 30 C149 30 73 79 73 165 C73 266 178 301 248 321 L458 126 C410 71 344 30 251 30 Z M259 358 C197 415 154 462 154 522 C154 600 225 661 328 661 C422 661 479 604 479 539 C479 432 354 385 259 358 Z " />
<glyph glyph-name="ampersand.alt" horiz-adv-x="658" d="M240 -8 C379 -8 508 73 536 243 L633 243 C647 243 654 253 654 263 C654 272 648 280 634 280 L544 280 C516 280 503 274 496 232 C477 119 378 30 243 30 C151 30 63 71 63 166 C63 284 195 311 286 329 C418 355 536 407 536 536 C536 639 455 699 342 699 C213 699 116 621 116 504 C116 425 162 375 206 347 C98 320 25 260 25 164 C25 57 116 -8 240 -8 Z M249 358 C204 385 154 427 154 503 C154 603 237 661 342 661 C440 661 498 610 498 535 C498 404 336 373 249 358 Z " />
<glyph glyph-name="Q.alt" horiz-adv-x="682" d="M274 -164 C282 -164 290 -159 292 -146 L315 -8 C467 -6 578 86 613 254 C624 306 632 367 638 420 C656 580 551 706 383 706 C213 706 109 588 78 423 C68 369 64 339 58 287 C36 103 162 8 280 -6 L257 -142 C255 -156 264 -164 274 -164 Z M345 168 C348 183 338 191 329 191 C320 191 312 185 310 172 L286 31 C190 43 79 117 95 279 C101 338 106 370 118 428 C146 562 234 668 379 668 C524 668 614 565 601 425 C596 367 587 306 573 247 C541 116 452 32 322 30 Z " />
<glyph glyph-name="r.alt" horiz-adv-x="346" d="M161 442 C194 469 245 485 291 485 C325 485 349 476 361 476 C374 476 380 486 380 495 C380 503 375 510 365 513 C346 519 312 522 287 522 C234 522 182 504 144 476 C133 468 126 461 123 444 L53 21 C51 10 60 1 70 1 C83 1 88 10 90 21 Z " />
<glyph glyph-name="zero.onum" horiz-adv-x="609" d="M321 524 C210 524 109 465 75 321 C71 304 64 262 61 231 C46 69 157 -16 292 -16 C412 -16 504 58 533 185 C540 217 546 253 548 283 C559 435 455 524 321 524 Z M320 487 C437 487 526 408 510 274 C506 242 502 216 497 194 C469 70 382 21 290 21 C175 21 83 92 97 228 C100 259 104 288 110 311 C140 429 214 487 320 487 Z " />
<glyph glyph-name="one.onum" horiz-adv-x="407" d="M200 -4 C214 -4 219 4 221 16 L300 493 C304 516 293 524 278 524 C273 524 264 521 255 517 L66 430 C56 425 52 418 52 411 C52 395 68 392 81 398 L260 477 L183 16 C181 4 190 -4 200 -4 Z " />
<glyph glyph-name="two.onum" horiz-adv-x="567" d="M74 38 C80 129 126 156 293 207 C398 239 500 277 500 382 C500 467 426 524 322 524 C241 524 161 489 106 430 C100 424 97 418 97 412 C97 404 102 395 114 395 C123 395 128 400 134 406 C185 457 249 487 318 487 C407 487 463 441 463 380 C463 295 353 263 294 245 C159 203 35 170 35 25 C35 10 45 0 62 0 L444 0 C456 0 467 6 469 18 C471 30 462 38 450 38 Z " />
<glyph glyph-name="three.onum" horiz-adv-x="541" d="M416 464 L193 250 C185 243 181 236 181 228 C181 216 193 207 209 207 C214 207 237 208 250 208 C355 208 415 139 415 61 C415 -79 259 -148 67 -151 C45 -151 34 -150 19 -150 C5 -150 -3 -160 -3 -172 C-3 -183 5 -190 25 -190 C308 -190 452 -93 452 62 C452 177 355 250 238 244 L451 446 C464 458 470 468 470 479 C470 491 463 504 433 504 L98 504 C86 504 76 497 76 485 C76 475 84 467 95 467 L415 467 Z " />
<glyph glyph-name="four.onum" horiz-adv-x="637" d="M413 0 L386 -171 C383 -182 393 -191 404 -191 C417 -191 421 -181 423 -171 L451 0 L541 0 C555 0 564 9 564 19 C564 30 557 38 546 38 L457 38 L530 479 C533 499 523 514 505 514 C488 514 474 502 461 488 L44 60 C35 50 30 38 30 28 C30 12 43 0 66 0 Z M420 38 L73 38 L490 465 Z " />
<glyph glyph-name="five.onum" horiz-adv-x="586" d="M507 88 C507 181 436 258 310 258 C253 258 185 234 143 205 L186 467 L506 467 C519 467 529 475 529 487 C529 498 520 504 510 504 L190 504 C172 504 154 499 149 469 L103 191 C98 163 123 152 143 164 C195 197 251 221 310 221 C419 221 470 156 470 83 C470 -104 211 -153 74 -153 C64 -153 55 -152 46 -152 C32 -152 21 -161 21 -174 C21 -185 29 -192 42 -192 C235 -192 507 -138 507 88 Z " />
<glyph glyph-name="six.onum" horiz-adv-x="656" d="M289 -8 C447 -8 534 110 534 247 C534 367 449 433 316 433 C229 433 158 403 113 381 C152 573 275 668 446 668 C489 668 530 662 541 662 C556 662 563 673 563 682 C563 690 558 697 547 700 C530 705 474 707 448 707 C174 707 62 477 62 264 C62 61 167 -8 289 -8 Z M288 30 C183 30 100 96 100 259 C100 281 102 308 106 339 C160 367 231 396 316 396 C443 396 497 333 497 241 C497 126 414 30 288 30 Z " />
<glyph glyph-name="seven.onum" horiz-adv-x="485" d="M63 -192 C71 -192 79 -186 84 -173 C153 12 269 164 489 452 C497 462 502 472 502 481 C502 498 488 504 471 504 L71 504 C57 504 50 495 50 485 C50 476 56 467 68 467 L451 467 C204 141 119 25 46 -163 C40 -177 45 -192 63 -192 Z " />
<glyph glyph-name="eight.onum" horiz-adv-x="669" d="M353 385 C241 385 168 437 168 513 C168 626 275 669 367 669 C493 669 550 606 550 539 C550 453 483 385 353 385 Z M315 30 C193 30 103 73 103 174 C103 306 208 348 317 348 C443 348 517 295 517 202 C517 74 402 30 315 30 Z M308 -8 C452 -8 556 68 556 208 C556 297 499 340 441 363 C542 389 588 461 588 543 C588 625 516 707 367 707 C239 707 130 644 130 513 C130 453 168 400 229 376 C124 357 63 274 63 174 C63 59 157 -8 308 -8 Z " />
<glyph glyph-name="nine.onum" horiz-adv-x="648" d="M501 128 C454 -61 296 -155 81 -151 C67 -151 57 -159 57 -171 C57 -181 65 -189 77 -189 C389 -189 559 -25 559 298 C559 449 466 527 335 527 C184 527 87 412 87 282 C87 138 189 77 312 77 C395 77 459 103 501 128 Z M509 170 C456 142 398 114 312 114 C185 114 126 182 126 279 C126 400 216 489 336 489 C446 489 520 425 520 291 C520 256 518 217 509 170 Z " />
<glyph glyph-name="sterling.alt" horiz-adv-x="570" d="M389 306 C403 306 411 315 411 325 C411 334 405 343 389 343 L196 343 C212 383 227 426 245 472 C302 625 359 671 449 671 C481 671 504 664 525 653 C529 651 533 650 537 650 C548 650 555 659 555 669 C555 675 552 681 544 686 C519 699 493 709 456 709 C344 709 273 658 207 479 C189 431 172 381 156 343 L71 343 C58 343 51 333 51 323 C51 314 57 306 70 306 L140 306 C112 240 88 191 71 160 C41 106 26 83 20 74 C-4 37 6 0 52 0 L436 0 C450 0 458 10 458 20 C458 29 451 38 438 38 L59 38 C52 38 49 41 49 45 C49 49 52 55 56 61 C88 109 135 193 181 306 Z " />
<glyph glyph-name="commaaccent" horiz-adv-x="303" d="M113 -218 C122 -218 129 -212 134 -208 C160 -181 173 -162 183 -107 L192 -52 C196 -38 186 -30 176 -30 C167 -30 158 -36 156 -48 L146 -102 C140 -136 133 -157 106 -186 C100 -192 97 -197 97 -203 C97 -211 103 -218 113 -218 Z " />
<glyph glyph-name="caronSlovak" horiz-adv-x="303" d="M122 544 C131 544 138 549 148 559 C168 580 179 598 188 642 L196 683 C199 697 190 706 180 706 C171 706 162 699 160 687 L152 647 C146 613 142 605 115 576 C109 570 106 565 106 559 C106 551 112 544 122 544 Z " />
<glyph glyph-name="g.alt" horiz-adv-x="575" d="M238 -187 C345 -187 442 -133 442 -34 C442 36 394 84 289 84 L191 84 C147 84 130 98 130 120 C130 159 171 169 230 169 L281 169 C403 169 483 256 483 356 C483 402 466 440 440 467 L539 467 C554 467 562 477 562 486 C562 495 555 504 541 504 L393 504 C364 516 338 522 302 522 C184 522 92 443 92 334 C92 268 126 219 174 194 C130 193 91 164 91 121 C91 76 124 46 191 46 L285 46 C372 46 403 11 403 -35 C403 -105 330 -149 239 -149 C152 -149 80 -117 44 -51 C39 -41 34 -35 23 -35 C14 -35 6 -42 6 -53 C6 -60 9 -68 14 -77 C52 -139 130 -187 238 -187 Z M276 203 C185 203 131 254 131 333 C131 424 208 485 303 485 C389 485 444 435 444 356 C444 265 371 203 276 203 Z " />
<glyph glyph-name="gbreve.alt" horiz-adv-x="575" d="M238 -187 C345 -187 442 -133 442 -34 C442 36 394 84 289 84 L191 84 C147 84 130 98 130 120 C130 159 171 169 230 169 L281 169 C403 169 483 256 483 356 C483 402 466 440 440 467 L539 467 C554 467 562 477 562 486 C562 495 555 504 541 504 L393 504 C364 516 338 522 302 522 C184 522 92 443 92 334 C92 268 126 219 174 194 C130 193 91 164 91 121 C91 76 124 46 191 46 L285 46 C372 46 403 11 403 -35 C403 -105 330 -149 239 -149 C152 -149 80 -117 44 -51 C39 -41 34 -35 23 -35 C14 -35 6 -42 6 -53 C6 -60 9 -68 14 -77 C52 -139 130 -187 238 -187 Z M276 203 C185 203 131 254 131 333 C131 424 208 485 303 485 C389 485 444 435 444 356 C444 265 371 203 276 203 Z M331 586 C385 586 420 621 435 657 C438 664 440 672 440 677 C440 689 431 693 423 693 C412 693 407 684 404 676 C393 646 372 621 332 621 C289 621 277 651 272 673 C270 684 268 693 256 693 C247 693 239 687 239 673 C239 664 241 656 242 653 C256 605 293 586 331 586 Z " />
<glyph glyph-name="gdotaccent.alt" horiz-adv-x="575" d="M238 -187 C345 -187 442 -133 442 -34 C442 36 394 84 289 84 L191 84 C147 84 130 98 130 120 C130 159 171 169 230 169 L281 169 C403 169 483 256 483 356 C483 402 466 440 440 467 L539 467 C554 467 562 477 562 486 C562 495 555 504 541 504 L393 504 C364 516 338 522 302 522 C184 522 92 443 92 334 C92 268 126 219 174 194 C130 193 91 164 91 121 C91 76 124 46 191 46 L285 46 C372 46 403 11 403 -35 C403 -105 330 -149 239 -149 C152 -149 80 -117 44 -51 C39 -41 34 -35 23 -35 C14 -35 6 -42 6 -53 C6 -60 9 -68 14 -77 C52 -139 130 -187 238 -187 Z M276 203 C185 203 131 254 131 333 C131 424 208 485 303 485 C389 485 444 435 444 356 C444 265 371 203 276 203 Z M345 662 C326 662 313 646 313 631 C313 614 325 603 341 603 C359 603 373 617 373 634 C373 650 362 662 345 662 Z " />
<glyph glyph-name="gcommaaccent.alt" horiz-adv-x="575" d="M238 -187 C345 -187 442 -133 442 -34 C442 36 394 84 289 84 L191 84 C147 84 130 98 130 120 C130 159 171 169 230 169 L281 169 C403 169 483 256 483 356 C483 402 466 440 440 467 L539 467 C554 467 562 477 562 486 C562 495 555 504 541 504 L393 504 C364 516 338 522 302 522 C184 522 92 443 92 334 C92 268 126 219 174 194 C130 193 91 164 91 121 C91 76 124 46 191 46 L285 46 C372 46 403 11 403 -35 C403 -105 330 -149 239 -149 C152 -149 80 -117 44 -51 C39 -41 34 -35 23 -35 C14 -35 6 -42 6 -53 C6 -60 9 -68 14 -77 C52 -139 130 -187 238 -187 Z M276 203 C185 203 131 254 131 333 C131 424 208 485 303 485 C389 485 444 435 444 356 C444 265 371 203 276 203 Z M309 553 C318 553 325 559 330 563 C356 590 369 609 379 664 L388 719 C392 733 382 741 372 741 C363 741 354 735 352 723 L342 669 C336 635 329 614 302 585 C296 579 293 574 293 568 C293 560 299 553 309 553 Z " />
<glyph glyph-name="racute.alt" horiz-adv-x="346" d="M161 442 C194 469 245 485 291 485 C325 485 349 476 361 476 C374 476 380 486 380 495 C380 503 375 510 365 513 C346 519 312 522 287 522 C234 522 182 504 144 476 C133 468 126 461 123 444 L53 21 C51 10 60 1 70 1 C83 1 88 10 90 21 Z M217 622 C208 618 205 611 205 605 C205 596 211 588 221 588 C225 588 229 589 233 591 L379 660 C391 666 395 673 395 680 C395 688 389 696 378 696 C375 696 371 695 367 693 Z " />
<glyph glyph-name="rcaron.alt" horiz-adv-x="346" d="M161 442 C194 469 245 485 291 485 C325 485 349 476 361 476 C374 476 380 486 380 495 C380 503 375 510 365 513 C346 519 312 522 287 522 C234 522 182 504 144 476 C133 468 126 461 123 444 L53 21 C51 10 60 1 70 1 C83 1 88 10 90 21 Z M267 587 C276 587 283 591 292 597 L380 655 C387 660 391 666 391 672 C391 681 383 690 373 690 C369 690 365 689 361 686 L268 624 L198 684 C193 688 188 690 184 690 C174 690 166 681 166 672 C166 666 168 661 173 657 L244 597 C251 591 258 587 267 587 Z " />
<glyph glyph-name="rcommaaccent.alt" horiz-adv-x="346" d="M161 442 C194 469 245 485 291 485 C325 485 349 476 361 476 C374 476 380 486 380 495 C380 503 375 510 365 513 C346 519 312 522 287 522 C234 522 182 504 144 476 C133 468 126 461 123 444 L53 21 C51 10 60 1 70 1 C83 1 88 10 90 21 Z M0 -218 C9 -218 16 -212 21 -208 C47 -181 60 -162 70 -107 L79 -52 C83 -38 73 -30 63 -30 C54 -30 45 -36 43 -48 L33 -102 C27 -136 20 -157 -7 -186 C-13 -192 -16 -197 -16 -203 C-16 -211 -10 -218 0 -218 Z " />
<glyph glyph-name="hyphen" unicode="&#x2d;" horiz-adv-x="319" d="M49 287 C49 277 56 268 69 268 L250 268 C261 268 270 275 270 286 C270 296 263 305 250 305 L69 305 C58 305 49 298 49 287 Z " />
<glyph glyph-name="space" unicode="&#x20;" horiz-adv-x="262" />
</font>
</svg>
