<?xml version="1.0" standalone="no"?>
<!DOCTYPE svg PUBLIC "-//W3C//DTD SVG 1.1//EN" "http://www.w3.org/Graphics/SVG/1.1/DTD/svg11.dtd" >
<svg>
<metadata>
Created by FontForge 20120731 at Thu Nov 07 16:38:13 2013

Copyright (c) 2010 by Miles Newlyn. All rights reserved.
</metadata>
<defs>
<font id="Rubrik-Light" horiz-adv-x="340" >
  <font-face 
    font-family="Rubrik Lt"
    font-weight="300"
    font-stretch="normal"
    units-per-em="1000"
    panose-1="2 15 3 3 2 2 0 2 0 4"
    ascent="750"
    descent="-250"
    x-height="509"
    cap-height="703"
    bbox="-18.6316 -284 1007 931"
    underline-thickness="70"
    underline-position="-30"
    unicode-range="U+0020-FB02"
  />
<missing-glyph horiz-adv-x="301" 
 />
    <glyph glyph-name="fi" unicode="fi" horiz-adv-x="641" 
d="M113 561q0 33 9 61t27.5 48.5t46.5 32t66 11.5q20 0 45 -3t42 -9q19 -7 19 -27q0 -10 -7 -18t-21 -8t-30 4.5t-52 4.5q-47 0 -67 -27.5t-20 -76.5v-47h151q11 0 20 -8t9 -21q0 -11 -9 -19t-20 -8h-151v-425q0 -13 -8 -21.5t-21 -8.5q-11 0 -20 8.5t-9 21.5v425h-39
q-13 0 -21.5 8t-8.5 19q0 13 8.5 21t21.5 8h39v54zM548 653q0 -17 -12 -29t-29 -12t-28 12t-11 29t11 28.5t28 11.5t29 -11.5t12 -28.5zM507 520q12 0 21 -8.5t9 -21.5v-464q0 -13 -8.5 -21.5t-21.5 -8.5q-12 0 -20 8.5t-8 21.5v464q0 13 8 21.5t20 8.5z" />
    <glyph glyph-name=".notdef" horiz-adv-x="301" 
 />
    <glyph glyph-name=".null" horiz-adv-x="0" 
 />
    <glyph glyph-name="nonmarkingreturn" horiz-adv-x="267" 
 />
    <glyph glyph-name="space" unicode=" " horiz-adv-x="267" 
 />
    <glyph glyph-name="C" unicode="C" horiz-adv-x="663" 
d="M355 49q67 0 120.5 36t76.5 95q3 8 10 14t18 6t19.5 -8t8.5 -20q0 -5 -2 -11q-14 -38 -39 -69t-58 -53.5t-72.5 -35t-81.5 -12.5q-59 0 -108 21t-85.5 58.5t-58.5 88.5t-26 110q-6 80 0 162q4 58 25.5 108.5t58 88t86 59t108.5 21.5q42 0 81.5 -12.5t72.5 -35t58 -54
t39 -68.5q2 -6 2 -11q0 -12 -8.5 -20t-19.5 -8t-18 6t-10 14q-23 60 -76.5 96t-120.5 36q-47 0 -85.5 -16.5t-67 -45.5t-46 -69t-21.5 -87q-6 -83 0 -166q4 -47 21.5 -87t46 -69t67 -45.5t85.5 -16.5z" />
    <glyph glyph-name="D" unicode="D" horiz-adv-x="719" 
d="M586 294q2 26 2 57.5t-2 54.5q-3 53 -19.5 96.5t-47 74t-76 47.5t-107.5 17h-168v-582h168q62 0 108 17t76.5 47.5t46.5 74t19 96.5zM165 0q-27 0 -41 16.5t-14 39.5v587q0 23 14 39.5t41 16.5h173q74 0 130 -22.5t94 -62t58.5 -93.5t23.5 -118q2 -27 2 -55.5t-2 -53.5
q-3 -63 -24 -117t-59 -93t-94 -61.5t-129 -22.5h-173z" />
    <glyph glyph-name="E" unicode="E" horiz-adv-x="623" 
d="M517 699q13 0 22 -8t9 -21q0 -12 -9 -20.5t-22 -8.5h-349v-259h342q14 0 23 -8t9 -21t-9.5 -22t-22.5 -9h-342v-263h351q13 0 22 -8.5t9 -20.5q0 -13 -8.5 -21.5t-22.5 -8.5h-353q-28 0 -42 16.5t-14 39.5v587q0 23 14 39.5t42 16.5h351z" />
    <glyph glyph-name="F" unicode="F" horiz-adv-x="590" 
d="M110 643q0 23 14 39.5t42 16.5h352q14 0 22 -8t8 -21q0 -12 -8.5 -20.5t-21.5 -8.5h-350v-272h332q14 0 22 -8t8 -21q0 -12 -8.5 -20.5t-21.5 -8.5h-332v-285q0 -13 -8.5 -21.5t-20.5 -8.5t-20.5 9t-8.5 21v617z" />
    <glyph glyph-name="G" unicode="G" horiz-adv-x="701" 
d="M627 236q0 -47 -18 -91.5t-52 -78.5t-83 -54.5t-110 -20.5q-59 0 -110 21t-89 58.5t-61.5 88.5t-27.5 110q-6 80 0 162q4 58 27 108.5t61.5 88t89.5 59t110 21.5q42 0 80.5 -11t71 -32t58 -51t40.5 -67q6 -16 -3.5 -28.5t-24.5 -12.5q-9 0 -16.5 5.5t-11.5 13.5
q-28 59 -78.5 92t-116.5 33q-46 0 -86 -16.5t-70 -45.5t-49 -69t-23 -86q-7 -84 0 -166q4 -47 23 -86.5t49 -69t69.5 -46t86.5 -16.5q45 0 82.5 13t64.5 36.5t42.5 56.5t15.5 74v77h-165q-13 0 -21.5 8t-8.5 21t8.5 21t21.5 8h169q27 0 41 -15t14 -38v-75z" />
    <glyph glyph-name="H" unicode="H" horiz-adv-x="757" 
d="M110 673q0 13 8.5 21.5t20.5 8.5t20.5 -8.5t8.5 -21.5v-294h422v294q0 13 9 21.5t20 8.5q13 0 21 -8.5t8 -21.5v-647q0 -13 -8 -21.5t-21 -8.5q-11 0 -20 9t-9 21v295h-422v-295q0 -13 -8.5 -21.5t-20.5 -8.5q-13 0 -21 8.5t-8 21.5v647z" />
    <glyph glyph-name="I" unicode="I" horiz-adv-x="277" 
d="M110 673q0 13 8.5 21.5t20.5 8.5t20.5 -8.5t8.5 -21.5v-647q0 -13 -8.5 -21.5t-20.5 -8.5q-13 0 -21 8.5t-8 21.5v647z" />
    <glyph glyph-name="J" unicode="J" horiz-adv-x="502" 
d="M42 96q-2 4 -2 11q0 13 8.5 21.5t20.5 8.5q9 0 16.5 -5t11.5 -13q16 -30 44.5 -49.5t68.5 -19.5q26 0 49.5 9t41.5 27t28.5 45.5t10.5 65.5v476q0 13 8.5 21.5t20.5 8.5t20.5 -8.5t8.5 -21.5v-486q0 -44 -15 -80t-40.5 -61.5t-59.5 -40t-73 -14.5q-54 0 -100 28.5
t-68 76.5z" />
    <glyph glyph-name="K" unicode="K" horiz-adv-x="625" 
d="M168 26q0 -13 -8.5 -21.5t-20.5 -8.5t-20.5 9t-8.5 21v647q0 13 8.5 21.5t20.5 8.5t20.5 -8.5t8.5 -21.5v-290h7q18 0 29.5 5.5t28.5 19.5l306 287q10 8 21 8q12 0 20 -9.5t8 -20.5q0 -12 -9 -21l-320 -295l328 -310q9 -8 9.5 -19.5t-7.5 -21.5q-7 -10 -21 -10
q-10 0 -21 9l-314 296q-16 15 -28 19.5t-30 4.5h-7v-299z" />
    <glyph glyph-name="L" unicode="L" horiz-adv-x="552" 
d="M110 673q0 13 8.5 21.5t20.5 8.5t20.5 -8.5t8.5 -21.5v-614h349q11 0 20.5 -9t9.5 -21q0 -13 -9 -21t-21 -8h-348q-29 0 -44 17.5t-15 41.5v614z" />
    <glyph glyph-name="M" unicode="M" horiz-adv-x="916" 
d="M698 643q-1 5 -3.5 8.5t-8.5 3.5q-9 0 -12 -11l-146 -579q-18 -65 -71 -65q-54 0 -71 65l-144 579q-3 11 -13 11q-6 0 -8.5 -3.5t-3.5 -8.5l-92 -621q-5 -27 -28 -27q-17 0 -24.5 11t-5.5 23l93 619q5 31 24 46t46 15q26 0 44.5 -14.5t24.5 -38.5l148 -593q1 -4 4 -7.5
t8 -3.5q6 0 8.5 3.5t3.5 7.5l146 593q6 24 24.5 38.5t44.5 14.5t45 -15t24 -46l95 -619q2 -11 -5 -22.5t-23 -11.5q-11 0 -19.5 6.5t-10.5 17.5z" />
    <glyph glyph-name="N" unicode="N" horiz-adv-x="769" 
d="M603 62h2q-1 30 -2 60.5t-1 81.5v469q0 13 8.5 21.5t20.5 8.5t20.5 -8.5t8.5 -21.5v-621q0 -22 -14 -38t-34 -16q-35 0 -54 29l-389 617h-3q1 -29 1.5 -62t0.5 -85v-471q0 -12 -8.5 -21t-20.5 -9t-20.5 9t-8.5 21v621q0 26 14.5 41.5t39.5 15.5q15 0 29 -7t25 -24z" />
    <glyph glyph-name="O" unicode="O" horiz-adv-x="727" 
d="M362 -9q-59 0 -109.5 21t-88.5 58.5t-61 88.5t-27 110q-6 80 0 162q4 58 27 108.5t61 88t88.5 59t109.5 21.5t110 -21.5t89.5 -58.5t62 -88t27.5 -109q6 -82 0 -162q-4 -59 -27.5 -110t-62 -88.5t-89.5 -58.5t-110 -21zM362 49q47 0 87.5 16.5t70.5 45.5t48.5 69t23.5 87
q7 82 0 165q-5 47 -23.5 87t-49 69t-70.5 45.5t-87 16.5t-86.5 -16.5t-69 -45.5t-48.5 -69t-23 -87q-8 -83 0 -165q4 -47 23 -87t48.5 -69t69 -45.5t86.5 -16.5z" />
    <glyph glyph-name="P" unicode="P" horiz-adv-x="642" 
d="M363 332q45 0 76.5 11.5t51.5 32t29 49t9 62.5q0 69 -39.5 111.5t-121.5 42.5h-200v-309h195zM168 274v-248q0 -12 -9 -21t-20 -9q-12 0 -20.5 9t-8.5 21v616q0 23 14.5 40t43.5 17h202q45 0 84.5 -14.5t69.5 -41.5t47.5 -66t17.5 -89q0 -51 -17 -91t-47 -67t-72 -41.5
t-91 -14.5h-194z" />
    <glyph glyph-name="Q" unicode="Q" horiz-adv-x="728" 
d="M649 -63q6 -7 6.5 -15t-2.5 -15.5t-9.5 -12.5t-15.5 -5q-14 0 -23 10l-104 127q-62 -35 -139 -35q-59 0 -109.5 21t-88.5 58.5t-61 88.5t-27 110q-6 80 0 162q4 58 27 108.5t61 88t88.5 59t109.5 21.5t110 -21.5t89.5 -58.5t62 -88t27.5 -109q6 -82 0 -162
q-5 -65 -31.5 -118.5t-70.5 -91.5zM349 222q0 11 8 20t20 9q14 0 23 -10l112 -137q69 60 80 163q7 82 0 165q-5 47 -23.5 87t-49 69t-70.5 45.5t-87 16.5t-86.5 -16.5t-69 -45.5t-48.5 -69t-23 -87q-8 -83 0 -165q4 -47 23 -87t48.5 -69t69 -45.5t86.5 -16.5q56 0 102 23
l-107 131q-8 10 -8 19z" />
    <glyph glyph-name="R" unicode="R" horiz-adv-x="678" 
d="M612 24q0 -12 -8.5 -20t-20.5 -8q-14 0 -23 11l-197 247q-12 15 -23.5 23.5t-32.5 8.5h-139v-260q0 -12 -9 -21t-20 -9q-12 0 -20.5 9t-8.5 21v616q0 23 14.5 40t43.5 17h202q47 0 87 -13.5t69.5 -40t46 -65.5t16.5 -90q0 -90 -50 -138t-134 -59l201 -250q6 -8 6 -19z
M354 344q48 0 82 10.5t55 30t30.5 47t9.5 60.5q0 68 -40 108.5t-123 40.5h-200v-297h186z" />
    <glyph glyph-name="S" unicode="S" horiz-adv-x="612" 
d="M322 384q64 -12 110.5 -28t76 -38t43.5 -52.5t14 -72.5q0 -93 -64.5 -147.5t-181.5 -54.5q-79 0 -135.5 19.5t-104.5 52.5q-15 10 -15 26q0 14 8.5 22t21.5 8q5 0 10 -1.5t12 -6.5q19 -14 39 -25.5t43.5 -19.5t52.5 -13t67 -5q89 0 138.5 38.5t49.5 106.5q0 26 -9.5 46
t-32 35.5t-60.5 27.5t-95 23q-121 22 -175.5 66t-54.5 124q0 90 61 141.5t172 51.5q59 0 109.5 -15.5t81.5 -41.5q11 -9 11 -24q0 -12 -8 -20.5t-19 -8.5q-8 0 -14 3t-10 6q-32 19 -69 31t-82 12q-48 0 -81.5 -11t-54.5 -29t-30 -42.5t-9 -51.5t8.5 -47.5t29.5 -35.5
t56.5 -27t89.5 -22z" />
    <glyph glyph-name="T" unicode="T" horiz-adv-x="592" 
d="M268 641h-216q-13 0 -22 8.5t-9 20.5t9 20.5t22 8.5h488q13 0 21.5 -8.5t8.5 -20.5t-9 -20.5t-21 -8.5h-214v-615q0 -13 -8 -21.5t-21 -8.5t-21 8.5t-8 21.5v615z" />
    <glyph glyph-name="U" unicode="U" horiz-adv-x="748" 
d="M649 276q0 -63 -21 -115.5t-57.5 -90t-87 -58.5t-109.5 -21t-109.5 21t-87.5 58.5t-57.5 90t-20.5 115.5v397q0 13 8.5 21.5t20.5 8.5q13 0 21 -8.5t8 -21.5v-392q0 -54 16.5 -97t45.5 -73t68.5 -46t86.5 -16q46 0 86 16t69 46t45.5 73t16.5 97v392q0 13 8.5 21.5
t20.5 8.5q13 0 21 -8.5t8 -21.5v-397z" />
    <glyph glyph-name="V" unicode="V" horiz-adv-x="656" 
d="M26 673q0 11 7.5 20.5t21.5 9.5q20 0 28 -18l231 -625q2 -4 5.5 -7.5t8.5 -3.5t8 3.5t5 7.5l231 623q4 11 12 15.5t16 4.5q17 0 25 -13t2 -28l-227 -612q-22 -59 -72 -59t-72 59l-228 613q-2 6 -2 10z" />
    <glyph glyph-name="W" unicode="W" horiz-adv-x="916" 
d="M42 667q-3 15 5 26.5t24 11.5q11 0 18.5 -6.5t9.5 -16.5l140 -630q1 -5 4.5 -5t5.5 5l159 601q6 23 21 36.5t40 13.5q26 0 40.5 -14t20.5 -36l156 -602q2 -5 5.5 -5t4.5 5l143 629q2 11 10 18t19 7q17 0 24.5 -11.5t3.5 -26.5l-144 -628q-5 -22 -20.5 -35t-39.5 -13
q-48 0 -60 48l-159 602q-2 5 -5 5t-5 -5l-161 -602q-12 -48 -60 -48q-24 0 -39.5 13t-20.5 35z" />
    <glyph glyph-name="X" unicode="X" horiz-adv-x="637" 
d="M573 703q12 0 20 -8t8 -20q0 -10 -6 -19l-241 -308l238 -303q7 -11 7 -19q0 -11 -9 -20t-21 -9q-14 0 -23 12l-227 293l-228 -293q-9 -12 -23 -12q-12 0 -21 9t-9 20q0 8 7 19l237 304l-239 306q-6 9 -6 19q0 11 8 20t20 9q15 0 24 -12l229 -296l231 297q9 11 24 11z" />
    <glyph glyph-name="Y" unicode="Y" horiz-adv-x="641" 
d="M594 704q11 0 20 -8.5t9 -19.5t-8 -21l-238 -294q-12 -15 -19.5 -25.5t-7.5 -31.5v-278q0 -13 -8.5 -21.5t-20.5 -8.5t-20.5 9t-8.5 21v278q0 21 -8.5 32t-20.5 26l-237 293q-8 10 -8 21t9 19.5t20 8.5q14 0 23 -11l251 -312l250 312q9 11 23 11z" />
    <glyph glyph-name="Z" unicode="Z" horiz-adv-x="582" 
d="M121 0q-30 0 -46 16t-16 40q0 20 14 40l387 545h-367q-13 0 -22 8.5t-9 20.5t9 20.5t22 8.5h361q30 0 46.5 -16t16.5 -41q0 -11 -5 -21.5t-14 -24.5l-383 -537h395q13 0 21.5 -9t8.5 -21t-8.5 -20.5t-21.5 -8.5h-389z" />
    <glyph glyph-name="Agrave" unicode="&#xc0;" horiz-adv-x="669" 
d="M642 31q0 -11 -7.5 -21t-21.5 -10q-20 0 -28 19l-84 229h-335l-82 -229q-8 -19 -28 -19q-17 0 -24.5 13t-2.5 28l218 598q12 33 32.5 51.5t54.5 18.5t55 -18t33 -51l218 -599q2 -6 2 -10zM188 306h291l-115 322q-8 25 -30 25q-20 0 -30 -26zM382 802q14 -7 14 -23
q0 -11 -7.5 -18.5t-18.5 -7.5q-5 0 -8 1t-6 3l-135 69q-5 3 -9.5 9.5t-4.5 14.5q0 11 7.5 18.5t18.5 7.5q9 0 15 -4z" />
    <glyph glyph-name="Aacute" unicode="&#xc1;" horiz-adv-x="669" 
d="M642 31q0 -11 -7.5 -21t-21.5 -10q-20 0 -28 19l-84 229h-335l-82 -229q-8 -19 -28 -19q-17 0 -24.5 13t-2.5 28l218 598q12 33 32.5 51.5t54.5 18.5t55 -18t33 -51l218 -599q2 -6 2 -10zM188 306h291l-115 322q-8 25 -30 25q-20 0 -30 -26zM419 872q8 4 14 4
q11 0 18.5 -7.5t7.5 -18.5q0 -17 -14 -24l-136 -70q-2 -1 -5 -2t-8 -1q-11 0 -18.5 7.5t-7.5 18.5q0 8 4.5 14t9.5 9z" />
    <glyph glyph-name="Acircumflex" unicode="&#xc2;" horiz-adv-x="669" 
d="M642 31q0 -11 -7.5 -21t-21.5 -10q-20 0 -28 19l-84 229h-335l-82 -229q-8 -19 -28 -19q-17 0 -24.5 13t-2.5 28l218 598q12 33 32.5 51.5t54.5 18.5t55 -18t33 -51l218 -599q2 -6 2 -10zM188 306h291l-115 322q-8 25 -30 25q-20 0 -30 -26zM447 800q11 -7 11 -22
q0 -11 -6.5 -18.5t-19.5 -7.5q-10 0 -17 6l-81 60l-81 -60q-7 -6 -18 -6q-12 0 -19 7.5t-7 18.5q0 8 3.5 13.5t8.5 8.5l87 64q11 10 26 10q12 0 25 -10z" />
    <glyph glyph-name="Atilde" unicode="&#xc3;" horiz-adv-x="669" 
d="M642 31q0 -11 -7.5 -21t-21.5 -10q-20 0 -28 19l-84 229h-335l-82 -229q-8 -19 -28 -19q-17 0 -24.5 13t-2.5 28l218 598q12 33 32.5 51.5t54.5 18.5t55 -18t33 -51l218 -599q2 -6 2 -10zM188 306h291l-115 322q-8 25 -30 25q-20 0 -30 -26zM387 808q9 0 15.5 4t12.5 8.5
t12 8.5t14 4q13 0 20.5 -7.5t7.5 -18.5q0 -8 -3.5 -13.5t-8.5 -9.5q-16 -14 -34 -22t-36 -8q-17 0 -31.5 5.5t-27.5 12.5t-24.5 12.5t-22.5 5.5q-9 0 -16 -4t-13 -8.5t-12 -8.5t-14 -4q-12 0 -19.5 7.5t-7.5 18.5q0 14 12 23q16 14 34 22t35 8q18 0 32 -5.5t27 -12.5
t24.5 -12.5t23.5 -5.5z" />
    <glyph glyph-name="Adieresis" unicode="&#xc4;" horiz-adv-x="669" 
d="M642 31q0 -11 -7.5 -21t-21.5 -10q-20 0 -28 19l-84 229h-335l-82 -229q-8 -19 -28 -19q-17 0 -24.5 13t-2.5 28l218 598q12 33 32.5 51.5t54.5 18.5t55 -18t33 -51l218 -599q2 -6 2 -10zM188 306h291l-115 322q-8 25 -30 25q-20 0 -30 -26zM259 837q16 0 26.5 -11
t10.5 -26q0 -16 -10.5 -26.5t-26.5 -10.5q-15 0 -26 10.5t-11 26.5q0 15 11 26t26 11zM409 837q15 0 26 -11t11 -26q0 -16 -11 -26.5t-26 -10.5q-16 0 -26.5 10.5t-10.5 26.5q0 15 10.5 26t26.5 11z" />
    <glyph glyph-name="Amacron" unicode="&#x100;" horiz-adv-x="669" 
d="M642 31q0 -11 -7.5 -21t-21.5 -10q-20 0 -28 19l-84 229h-335l-82 -229q-8 -19 -28 -19q-17 0 -24.5 13t-2.5 28l218 598q12 33 32.5 51.5t54.5 18.5t55 -18t33 -51l218 -599q2 -6 2 -10zM188 306h291l-115 322q-8 25 -30 25q-20 0 -30 -26zM418 826q11 0 18.5 -7.5
t7.5 -18.5t-7.5 -18t-18.5 -7h-168q-11 0 -18 7t-7 18t7 18.5t18 7.5h168z" />
    <glyph glyph-name="Abreve" unicode="&#x102;" horiz-adv-x="669" 
d="M642 31q0 -11 -7.5 -21t-21.5 -10q-20 0 -28 19l-84 229h-335l-82 -229q-8 -19 -28 -19q-17 0 -24.5 13t-2.5 28l218 598q12 33 32.5 51.5t54.5 18.5t55 -18t33 -51l218 -599q2 -6 2 -10zM188 306h291l-115 322q-8 25 -30 25q-20 0 -30 -26zM334 807q22 0 38 13.5
t21 33.5q3 8 10 14t17 6q11 0 19.5 -8.5t8.5 -19.5q0 -6 -3 -15q-11 -32 -41 -55t-70 -23t-70 23t-41 55q-3 9 -3 15q0 11 8.5 19.5t19.5 8.5q10 0 17.5 -6t9.5 -14q5 -20 21 -33.5t38 -13.5z" />
    <glyph glyph-name="Aring" unicode="&#xc5;" horiz-adv-x="669" 
d="M642 31q0 -11 -7.5 -21t-21.5 -10q-20 0 -28 19l-84 229h-335l-82 -229q-8 -19 -28 -19q-17 0 -24.5 13t-2.5 28l218 598q12 33 32.5 51.5t54.5 18.5t55 -18t33 -51l218 -599q2 -6 2 -10zM188 306h291l-115 322q-8 25 -30 25q-20 0 -30 -26zM244 841q0 37 26 63.5
t64 26.5q37 0 63.5 -26.5t26.5 -63.5t-26.5 -63.5t-63.5 -26.5q-38 0 -64 26.5t-26 63.5zM288 841q0 -19 13 -32t33 -13q19 0 32.5 13t13.5 32q0 20 -13.5 33t-32.5 13q-20 0 -33 -13t-13 -33z" />
    <glyph glyph-name="Aogonek" unicode="&#x104;" horiz-adv-x="701" 
d="M501 248h-335l-82 -229q-5 -11 -16 -16.5t-23 -0.5q-11 5 -15.5 16.5t-0.5 22.5l215 602q12 33 36.5 49.5t53.5 16.5t53.5 -16.5t36.5 -49.5l214 -597q5 -15 0.5 -27.5t-21.5 -20.5q-50 -23 -67 -46.5t-17 -46.5q0 -26 15.5 -38t36.5 -12q26 0 46 15q9 7 20 5t18 -11
t5 -20.5t-11 -18.5q-14 -10 -34.5 -17.5t-45.5 -7.5q-42 0 -73.5 27.5t-31.5 76.5q0 38 23 69.5t78 61.5zM188 308h291l-116 323q-7 20 -29 20t-29 -20z" />
    <glyph glyph-name="AE" unicode="&#xc6;" horiz-adv-x="1031" 
d="M518 254h-279l-163 -244q-9 -14 -26 -14q-8 0 -16 5q-11 6 -14 19t3 23l409 607q20 30 46 39.5t55 9.5h393q13 0 21.5 -8.5t8.5 -21.5q0 -12 -9 -21t-21 -9h-350v-257h342q14 0 23 -8t9 -21t-9.5 -22t-22.5 -9h-342v-262h352q12 0 21 -9t9 -21q0 -13 -8.5 -21.5
t-21.5 -8.5h-354q-28 0 -42 16.5t-14 39.5v198zM279 314h239v325q-10 0 -18 -3.5t-16 -16.5z" />
    <glyph glyph-name="Cacute" unicode="&#x106;" horiz-adv-x="660" 
d="M355 49q67 0 120.5 36t76.5 95q3 8 10 14t18 6t19.5 -8t8.5 -20q0 -5 -2 -11q-14 -38 -39 -69t-58 -53.5t-72.5 -35t-81.5 -12.5q-59 0 -108 21t-85.5 58.5t-58.5 88.5t-26 110q-6 80 0 162q4 58 25.5 108.5t58 88t86 59t108.5 21.5q42 0 81.5 -12.5t72.5 -35t58 -54
t39 -68.5q2 -6 2 -11q0 -12 -8.5 -20t-19.5 -8t-18 6t-10 14q-23 60 -76.5 96t-120.5 36q-47 0 -85.5 -16.5t-67 -45.5t-46 -69t-21.5 -87q-6 -83 0 -166q4 -47 21.5 -87t46 -69t67 -45.5t85.5 -16.5zM429 872q8 4 14 4q11 0 18.5 -7.5t7.5 -18.5q0 -17 -14 -24l-136 -70
q-2 -1 -5 -2t-8 -1q-11 0 -18.5 7.5t-7.5 18.5q0 8 4.5 14t9.5 9z" />
    <glyph glyph-name="Ccaron" unicode="&#x10c;" horiz-adv-x="660" 
d="M355 49q67 0 120.5 36t76.5 95q3 8 10 14t18 6t19.5 -8t8.5 -20q0 -5 -2 -11q-14 -38 -39 -69t-58 -53.5t-72.5 -35t-81.5 -12.5q-59 0 -108 21t-85.5 58.5t-58.5 88.5t-26 110q-6 80 0 162q4 58 25.5 108.5t58 88t86 59t108.5 21.5q42 0 81.5 -12.5t72.5 -35t58 -54
t39 -68.5q2 -6 2 -11q0 -12 -8.5 -20t-19.5 -8t-18 6t-10 14q-23 60 -76.5 96t-120.5 36q-47 0 -85.5 -16.5t-67 -45.5t-46 -69t-21.5 -87q-6 -83 0 -166q4 -47 21.5 -87t46 -69t67 -45.5t85.5 -16.5zM372 762q-13 -10 -25 -10q-15 0 -26 10l-87 64q-5 3 -8.5 8.5t-3.5 13.5
q0 11 7 18.5t19 7.5q11 0 18 -6l81 -61l81 61q7 6 17 6q13 0 19.5 -7.5t6.5 -18.5q0 -15 -11 -22z" />
    <glyph glyph-name="Cdotaccent" unicode="&#x10a;" horiz-adv-x="660" 
d="M355 49q67 0 120.5 36t76.5 95q3 8 10 14t18 6t19.5 -8t8.5 -20q0 -5 -2 -11q-14 -38 -39 -69t-58 -53.5t-72.5 -35t-81.5 -12.5q-59 0 -108 21t-85.5 58.5t-58.5 88.5t-26 110q-6 80 0 162q4 58 25.5 108.5t58 88t86 59t108.5 21.5q42 0 81.5 -12.5t72.5 -35t58 -54
t39 -68.5q2 -6 2 -11q0 -12 -8.5 -20t-19.5 -8t-18 6t-10 14q-23 60 -76.5 96t-120.5 36q-47 0 -85.5 -16.5t-67 -45.5t-46 -69t-21.5 -87q-6 -83 0 -166q4 -47 21.5 -87t46 -69t67 -45.5t85.5 -16.5zM354 837q16 0 26.5 -11t10.5 -26q0 -16 -10.5 -26.5t-26.5 -10.5
t-26.5 10.5t-10.5 26.5q0 15 10.5 26t26.5 11z" />
    <glyph glyph-name="Ccedilla" unicode="&#xc7;" horiz-adv-x="660" 
d="M580 200q11 0 19.5 -8t8.5 -20q0 -5 -2 -11q-26 -68 -84.5 -113t-133.5 -54l-14 -43q35 -2 58.5 -25t23.5 -58q0 -24 -11 -42.5t-28 -32.5t-38.5 -24t-43.5 -17q-12 -5 -24.5 1.5t-12.5 24.5q0 6 4 13.5t17 12.5q25 9 40 17t23.5 16t11.5 15t3 15q0 10 -7.5 20.5
t-23.5 10.5q-11 0 -16 -2t-13 -2q-14 0 -22.5 12t-3.5 27l21 60q-55 4 -100.5 26t-78.5 59t-53 85.5t-24 105.5q-6 80 0 162q4 58 26 108.5t58.5 88t86 59t108.5 21.5q42 0 81.5 -12.5t72.5 -35t58 -54t39 -68.5q2 -6 2 -11q0 -12 -8.5 -20t-19.5 -8t-18 6t-10 14
q-23 60 -76.5 96t-120.5 36q-47 0 -85.5 -16.5t-67 -45.5t-46 -69t-21.5 -87q-6 -83 0 -166q4 -47 21.5 -87t46 -69t67 -45.5t85.5 -16.5q67 0 120.5 36t76.5 95q3 8 10 14t18 6z" />
    <glyph glyph-name="Dcaron" unicode="&#x10e;" horiz-adv-x="719" 
d="M586 294q2 26 2 57.5t-2 54.5q-3 53 -19.5 96.5t-47 74t-76 47.5t-107.5 17h-168v-582h168q62 0 108 17t76.5 47.5t46.5 74t19 96.5zM165 0q-27 0 -41 16.5t-14 39.5v587q0 23 14 39.5t41 16.5h173q74 0 130 -22.5t94 -62t58.5 -93.5t23.5 -118q2 -27 2 -55.5t-2 -53.5
q-3 -63 -24 -117t-59 -93t-94 -61.5t-129 -22.5h-173zM373 762q-13 -10 -25 -10q-15 0 -26 10l-87 64q-5 3 -8.5 8.5t-3.5 13.5q0 11 7 18.5t19 7.5q11 0 18 -6l81 -61l81 61q7 6 17 6q13 0 19.5 -7.5t6.5 -18.5q0 -15 -11 -22z" />
    <glyph glyph-name="Dcroat" unicode="&#x110;" horiz-adv-x="720" 
d="M165 0q-27 0 -41 16.5t-14 39.5v261h-78q-13 0 -21 8.5t-8 20.5q0 13 8 21t21 8h78v268q0 23 14 39.5t41 16.5h173q74 0 130 -22.5t94 -62t58.5 -93.5t23.5 -118q2 -27 2 -55.5t-2 -53.5q-3 -63 -24 -117t-59 -93t-94 -61.5t-129 -22.5h-173zM586 294q2 26 2 57.5
t-2 54.5q-3 53 -19.5 96.5t-47 74t-76 47.5t-107.5 17h-168v-266h176q14 0 22 -8t8 -21q0 -12 -8 -20.5t-22 -8.5h-176v-258h168q62 0 108 17t76.5 47.5t46.5 74t19 96.5z" />
    <glyph glyph-name="Egrave" unicode="&#xc8;" horiz-adv-x="623" 
d="M517 699q13 0 22 -8t9 -21q0 -12 -9 -20.5t-22 -8.5h-349v-259h342q14 0 23 -8t9 -21t-9.5 -22t-22.5 -9h-342v-263h351q13 0 22 -8.5t9 -20.5q0 -13 -8.5 -21.5t-22.5 -8.5h-353q-28 0 -42 16.5t-14 39.5v587q0 23 14 39.5t42 16.5h351zM396 802q14 -7 14 -23
q0 -11 -7.5 -18.5t-18.5 -7.5q-5 0 -8 1t-6 3l-135 69q-5 3 -9.5 9.5t-4.5 14.5q0 11 7.5 18.5t18.5 7.5q9 0 15 -4z" />
    <glyph glyph-name="Eacute" unicode="&#xc9;" horiz-adv-x="623" 
d="M517 699q13 0 22 -8t9 -21q0 -12 -9 -20.5t-22 -8.5h-349v-259h342q14 0 23 -8t9 -21t-9.5 -22t-22.5 -9h-342v-263h351q13 0 22 -8.5t9 -20.5q0 -13 -8.5 -21.5t-22.5 -8.5h-353q-28 0 -42 16.5t-14 39.5v587q0 23 14 39.5t42 16.5h351zM359 872q8 4 14 4
q11 0 18.5 -7.5t7.5 -18.5q0 -17 -14 -24l-136 -70q-2 -1 -5 -2t-8 -1q-11 0 -18.5 7.5t-7.5 18.5q0 8 4.5 14t9.5 9z" />
    <glyph glyph-name="Ecircumflex" unicode="&#xca;" horiz-adv-x="623" 
d="M517 699q13 0 22 -8t9 -21q0 -12 -9 -20.5t-22 -8.5h-349v-259h342q14 0 23 -8t9 -21t-9.5 -22t-22.5 -9h-342v-263h351q13 0 22 -8.5t9 -20.5q0 -13 -8.5 -21.5t-22.5 -8.5h-353q-28 0 -42 16.5t-14 39.5v587q0 23 14 39.5t42 16.5h351zM445 800q11 -7 11 -22
q0 -11 -6.5 -18.5t-19.5 -7.5q-10 0 -17 6l-81 60l-81 -60q-7 -6 -18 -6q-12 0 -19 7.5t-7 18.5q0 8 3.5 13.5t8.5 8.5l87 64q11 10 26 10q12 0 25 -10z" />
    <glyph glyph-name="Ecaron" unicode="&#x11a;" horiz-adv-x="623" 
d="M517 699q13 0 22 -8t9 -21q0 -12 -9 -20.5t-22 -8.5h-349v-259h342q14 0 23 -8t9 -21t-9.5 -22t-22.5 -9h-342v-263h351q13 0 22 -8.5t9 -20.5q0 -13 -8.5 -21.5t-22.5 -8.5h-353q-28 0 -42 16.5t-14 39.5v587q0 23 14 39.5t42 16.5h351zM369 762q-13 -10 -25 -10
q-15 0 -26 10l-87 64q-5 3 -8.5 8.5t-3.5 13.5q0 11 7 18.5t19 7.5q11 0 18 -6l81 -61l81 61q7 6 17 6q13 0 19.5 -7.5t6.5 -18.5q0 -15 -11 -22z" />
    <glyph glyph-name="Edieresis" unicode="&#xcb;" horiz-adv-x="623" 
d="M517 699q13 0 22 -8t9 -21q0 -12 -9 -20.5t-22 -8.5h-349v-259h342q14 0 23 -8t9 -21t-9.5 -22t-22.5 -9h-342v-263h351q13 0 22 -8.5t9 -20.5q0 -13 -8.5 -21.5t-22.5 -8.5h-353q-28 0 -42 16.5t-14 39.5v587q0 23 14 39.5t42 16.5h351zM262 837q16 0 26.5 -11t10.5 -26
q0 -16 -10.5 -26.5t-26.5 -10.5q-15 0 -26 10.5t-11 26.5q0 15 11 26t26 11zM412 837q15 0 26 -11t11 -26q0 -16 -11 -26.5t-26 -10.5q-16 0 -26.5 10.5t-10.5 26.5q0 15 10.5 26t26.5 11z" />
    <glyph glyph-name="Emacron" unicode="&#x112;" horiz-adv-x="623" 
d="M517 699q13 0 22 -8t9 -21q0 -12 -9 -20.5t-22 -8.5h-349v-259h342q14 0 23 -8t9 -21t-9.5 -22t-22.5 -9h-342v-263h351q13 0 22 -8.5t9 -20.5q0 -13 -8.5 -21.5t-22.5 -8.5h-353q-28 0 -42 16.5t-14 39.5v587q0 23 14 39.5t42 16.5h351zM418 826q11 0 18.5 -7.5
t7.5 -18.5t-7.5 -18t-18.5 -7h-168q-11 0 -18 7t-7 18t7 18.5t18 7.5h168z" />
    <glyph glyph-name="Edotaccent" unicode="&#x116;" horiz-adv-x="623" 
d="M517 699q13 0 22 -8t9 -21q0 -12 -9 -20.5t-22 -8.5h-349v-259h342q14 0 23 -8t9 -21t-9.5 -22t-22.5 -9h-342v-263h351q13 0 22 -8.5t9 -20.5q0 -13 -8.5 -21.5t-22.5 -8.5h-353q-28 0 -42 16.5t-14 39.5v587q0 23 14 39.5t42 16.5h351zM345 837q16 0 26.5 -11t10.5 -26
q0 -16 -10.5 -26.5t-26.5 -10.5t-26.5 10.5t-10.5 26.5q0 15 10.5 26t26.5 11z" />
    <glyph glyph-name="Eogonek" unicode="&#x118;" horiz-adv-x="632" 
d="M166 0q-28 0 -42 16.5t-14 39.5v587q0 23 14 39.5t42 16.5h351q13 0 22 -8t9 -21q0 -12 -9 -20.5t-22 -8.5h-349v-260h342q14 0 22.5 -7.5t8.5 -20.5t-9 -21.5t-22 -8.5h-342v-264h351q13 0 22 -8.5t9 -20.5q0 -15 -7.5 -22t-18.5 -9q-47 -12 -76 -39t-29 -59
q0 -24 15.5 -36.5t35.5 -12.5q11 0 23 5t22 13q9 7 20 5t18 -11q8 -9 5.5 -20.5t-11.5 -18.5q-14 -10 -34.5 -17.5t-44.5 -7.5q-21 0 -40 7t-33 19.5t-22.5 30.5t-8.5 40q0 32 17 58t49 45h-264z" />
    <glyph glyph-name="Gbreve" unicode="&#x11e;" horiz-adv-x="701" 
d="M627 236q0 -47 -18 -91.5t-52 -78.5t-83 -54.5t-110 -20.5q-59 0 -110 21t-89 58.5t-61.5 88.5t-27.5 110q-6 80 0 162q4 58 27 108.5t61.5 88t89.5 59t110 21.5q42 0 80.5 -11t71 -32t58 -51t40.5 -67q6 -16 -3.5 -28.5t-24.5 -12.5q-9 0 -16.5 5.5t-11.5 13.5
q-28 59 -78.5 92t-116.5 33q-46 0 -86 -16.5t-70 -45.5t-49 -69t-23 -86q-7 -84 0 -166q4 -47 23 -86.5t49 -69t69.5 -46t86.5 -16.5q45 0 82.5 13t64.5 36.5t42.5 56.5t15.5 74v77h-165q-13 0 -21.5 8t-8.5 21t8.5 21t21.5 8h169q27 0 41 -15t14 -38v-75zM362 807
q22 0 38 13.5t21 33.5q3 8 10 14t17 6q11 0 19.5 -8.5t8.5 -19.5q0 -6 -3 -15q-11 -32 -41 -55t-70 -23t-70 23t-41 55q-3 9 -3 15q0 11 8.5 19.5t19.5 8.5q10 0 17.5 -6t9.5 -14q5 -20 21 -33.5t38 -13.5z" />
    <glyph glyph-name="Gdotaccent" unicode="&#x120;" horiz-adv-x="701" 
d="M627 236q0 -47 -18 -91.5t-52 -78.5t-83 -54.5t-110 -20.5q-59 0 -110 21t-89 58.5t-61.5 88.5t-27.5 110q-6 80 0 162q4 58 27 108.5t61.5 88t89.5 59t110 21.5q42 0 80.5 -11t71 -32t58 -51t40.5 -67q6 -16 -3.5 -28.5t-24.5 -12.5q-9 0 -16.5 5.5t-11.5 13.5
q-28 59 -78.5 92t-116.5 33q-46 0 -86 -16.5t-70 -45.5t-49 -69t-23 -86q-7 -84 0 -166q4 -47 23 -86.5t49 -69t69.5 -46t86.5 -16.5q45 0 82.5 13t64.5 36.5t42.5 56.5t15.5 74v77h-165q-13 0 -21.5 8t-8.5 21t8.5 21t21.5 8h169q27 0 41 -15t14 -38v-75zM362 837
q16 0 26.5 -11t10.5 -26q0 -16 -10.5 -26.5t-26.5 -10.5t-26.5 10.5t-10.5 26.5q0 15 10.5 26t26.5 11z" />
    <glyph glyph-name="Gcommaaccent" unicode="&#x122;" horiz-adv-x="701" 
d="M627 236q0 -47 -18 -91.5t-52 -78.5t-83 -54.5t-110 -20.5q-59 0 -110 21t-89 58.5t-61.5 88.5t-27.5 110q-6 80 0 162q4 58 27 108.5t61.5 88t89.5 59t110 21.5q42 0 80.5 -11t71 -32t58 -51t40.5 -67q6 -16 -3.5 -28.5t-24.5 -12.5q-9 0 -16.5 5.5t-11.5 13.5
q-28 59 -78.5 92t-116.5 33q-46 0 -86 -16.5t-70 -45.5t-49 -69t-23 -86q-7 -84 0 -166q4 -47 23 -86.5t49 -69t69.5 -46t86.5 -16.5q45 0 82.5 13t64.5 36.5t42.5 56.5t15.5 74v77h-165q-13 0 -21.5 8t-8.5 21t8.5 21t21.5 8h169q27 0 41 -15t14 -38v-75zM356 -269
q-10 -15 -26 -15q-9 0 -17 6.5t-8 20.5q0 9 3.5 16l8 16t8 21.5t3.5 32.5v56q0 13 8.5 21t19.5 8t19.5 -8t8.5 -22v-43q0 -37 -7.5 -63t-20.5 -47z" />
    <glyph glyph-name="Igrave" unicode="&#xcc;" horiz-adv-x="278" 
d="M110 673q0 13 8.5 21.5t20.5 8.5t20.5 -8.5t8.5 -21.5v-647q0 -13 -8.5 -21.5t-20.5 -8.5q-13 0 -21 8.5t-8 21.5v647zM191 802q14 -7 14 -23q0 -11 -7.5 -18.5t-18.5 -7.5q-5 0 -8 1t-6 3l-135 69q-5 3 -9.5 9.5t-4.5 14.5q0 11 7.5 18.5t18.5 7.5q9 0 15 -4z" />
    <glyph glyph-name="Iacute" unicode="&#xcd;" horiz-adv-x="278" 
d="M110 673q0 13 8.5 21.5t20.5 8.5t20.5 -8.5t8.5 -21.5v-647q0 -13 -8.5 -21.5t-20.5 -8.5q-13 0 -21 8.5t-8 21.5v647zM220 872q8 4 14 4q11 0 18.5 -7.5t7.5 -18.5q0 -17 -14 -24l-136 -70q-2 -1 -5 -2t-8 -1q-11 0 -18.5 7.5t-7.5 18.5q0 8 4.5 14t9.5 9z" />
    <glyph glyph-name="Icircumflex" unicode="&#xce;" horiz-adv-x="278" 
d="M110 673q0 13 8.5 21.5t20.5 8.5t20.5 -8.5t8.5 -21.5v-647q0 -13 -8.5 -21.5t-20.5 -8.5q-13 0 -21 8.5t-8 21.5v647zM254 800q11 -7 11 -22q0 -11 -6.5 -18.5t-19.5 -7.5q-10 0 -17 6l-81 60l-81 -60q-7 -6 -18 -6q-12 0 -19 7.5t-7 18.5q0 8 3.5 13.5t8.5 8.5l87 64
q11 10 26 10q12 0 25 -10z" />
    <glyph glyph-name="Idieresis" unicode="&#xcf;" horiz-adv-x="278" 
d="M110 673q0 13 8.5 21.5t20.5 8.5t20.5 -8.5t8.5 -21.5v-647q0 -13 -8.5 -21.5t-20.5 -8.5q-13 0 -21 8.5t-8 21.5v647zM65 837q16 0 26.5 -11t10.5 -26q0 -16 -10.5 -26.5t-26.5 -10.5q-15 0 -26 10.5t-11 26.5q0 15 11 26t26 11zM215 837q15 0 26 -11t11 -26
q0 -16 -11 -26.5t-26 -10.5q-16 0 -26.5 10.5t-10.5 26.5q0 15 10.5 26t26.5 11z" />
    <glyph glyph-name="Iogonek" unicode="&#x12e;" horiz-adv-x="278" 
d="M150 -3q-46 -20 -65 -44t-19 -48q0 -26 16 -38t36 -12q24 0 42 15q9 7 20.5 5t18.5 -11q9 -12 4 -23.5t-18.5 -20.5t-32 -14.5t-37.5 -5.5q-42 0 -73 27.5t-31 76.5q0 40 25.5 74t73.5 61v630q0 13 8.5 21.5t20.5 8.5q17 0 23 -9t6 -21v-639q0 -26 -18 -33z" />
    <glyph glyph-name="Imacron" unicode="&#x12a;" horiz-adv-x="278" 
d="M110 673q0 13 8.5 21.5t20.5 8.5t20.5 -8.5t8.5 -21.5v-647q0 -13 -8.5 -21.5t-20.5 -8.5q-13 0 -21 8.5t-8 21.5v647zM224 826q11 0 18.5 -7.5t7.5 -18.5t-7.5 -18t-18.5 -7h-168q-11 0 -18 7t-7 18t7 18.5t18 7.5h168z" />
    <glyph glyph-name="Idotaccent" unicode="&#x130;" horiz-adv-x="278" 
d="M110 673q0 13 8.5 21.5t20.5 8.5t20.5 -8.5t8.5 -21.5v-647q0 -13 -8.5 -21.5t-20.5 -8.5q-13 0 -21 8.5t-8 21.5v647zM140 837q16 0 26.5 -11t10.5 -26q0 -16 -10.5 -26.5t-26.5 -10.5t-26.5 10.5t-10.5 26.5q0 15 10.5 26t26.5 11z" />
    <glyph glyph-name="Kcommaaccent" unicode="&#x136;" horiz-adv-x="619" 
d="M168 26q0 -13 -8.5 -21.5t-20.5 -8.5t-20.5 9t-8.5 21v647q0 13 8.5 21.5t20.5 8.5t20.5 -8.5t8.5 -21.5v-290h7q18 0 29.5 5.5t28.5 19.5l306 287q10 8 21 8q12 0 20 -9.5t8 -20.5q0 -12 -9 -21l-320 -295l328 -310q9 -8 9.5 -19.5t-7.5 -21.5q-7 -10 -21 -10
q-10 0 -21 9l-314 296q-16 15 -28 19.5t-30 4.5h-7v-299zM326 -269q-10 -15 -26 -15q-9 0 -17 6.5t-8 20.5q0 9 3.5 16l8 16t8 21.5t3.5 32.5v56q0 13 8.5 21t19.5 8t19.5 -8t8.5 -22v-43q0 -37 -7.5 -63t-20.5 -47z" />
    <glyph glyph-name="Lacute" unicode="&#x139;" horiz-adv-x="562" 
d="M110 673q0 13 8.5 21.5t20.5 8.5t20.5 -8.5t8.5 -21.5v-614h349q11 0 20.5 -9t9.5 -21q0 -13 -9 -21t-21 -8h-348q-29 0 -44 17.5t-15 41.5v614zM269 873q8 4 14 4q11 0 18.5 -7.5t7.5 -18.5q0 -17 -14 -24l-136 -70q-2 -1 -5 -2t-8 -1q-11 0 -18.5 7.5t-7.5 18.5
q0 8 4.5 14t9.5 9z" />
    <glyph glyph-name="Lcaron" unicode="&#x13d;" horiz-adv-x="563" 
d="M110 673q0 13 8.5 21.5t20.5 8.5t20.5 -8.5t8.5 -21.5v-614h349q11 0 20.5 -9t9.5 -21q0 -13 -9 -21t-21 -8h-348q-29 0 -44 17.5t-15 41.5v614zM350 571q-11 -20 -30 -20q-14 0 -20.5 8t-6.5 20q0 8 4 15.5t8.5 17t8.5 22t4 30.5v18q0 14 7.5 23t20.5 9t21.5 -9t8.5 -23
v-18q0 -18 -5.5 -43t-20.5 -50z" />
    <glyph glyph-name="Lcommaaccent" unicode="&#x13b;" horiz-adv-x="563" 
d="M110 673q0 13 8.5 21.5t20.5 8.5t20.5 -8.5t8.5 -21.5v-614h349q11 0 20.5 -9t9.5 -21q0 -13 -9 -21t-21 -8h-348q-29 0 -44 17.5t-15 41.5v614zM329 -269q-10 -15 -26 -15q-9 0 -17 6.5t-8 20.5q0 9 3.5 16l8 16t8 21.5t3.5 32.5v56q0 13 8.5 21t19.5 8t19.5 -8t8.5 -22
v-43q0 -37 -7.5 -63t-20.5 -47z" />
    <glyph glyph-name="Lslash" unicode="&#x141;" horiz-adv-x="563" 
d="M110 288l-51 -32q-11 -8 -23 -4.5t-19 13.5q-7 11 -4 23t13 18l84 52v315q0 13 8.5 21.5t20.5 8.5q13 0 21 -8.5t8 -21.5v-279l103 65q11 8 23.5 4.5t18.5 -13.5q7 -11 4.5 -23t-13.5 -18l-136 -85v-265h349q12 0 21 -9t9 -21q0 -13 -8.5 -21t-21.5 -8h-347
q-29 0 -44.5 17.5t-15.5 41.5v229z" />
    <glyph glyph-name="Nacute" unicode="&#x143;" horiz-adv-x="769" 
d="M603 62h2q-1 30 -2 60.5t-1 81.5v469q0 13 8.5 21.5t20.5 8.5t20.5 -8.5t8.5 -21.5v-621q0 -22 -14 -38t-34 -16q-35 0 -54 29l-389 617h-3q1 -29 1.5 -62t0.5 -85v-471q0 -12 -8.5 -21t-20.5 -9t-20.5 9t-8.5 21v621q0 26 14.5 41.5t39.5 15.5q15 0 29 -7t25 -24z
M456 872q8 4 14 4q11 0 18.5 -7.5t7.5 -18.5q0 -17 -14 -24l-136 -70q-2 -1 -5 -2t-8 -1q-11 0 -18.5 7.5t-7.5 18.5q0 8 4.5 14t9.5 9z" />
    <glyph glyph-name="Ncaron" unicode="&#x147;" horiz-adv-x="769" 
d="M603 62h2q-1 30 -2 60.5t-1 81.5v469q0 13 8.5 21.5t20.5 8.5t20.5 -8.5t8.5 -21.5v-621q0 -22 -14 -38t-34 -16q-35 0 -54 29l-389 617h-3q1 -29 1.5 -62t0.5 -85v-471q0 -12 -8.5 -21t-20.5 -9t-20.5 9t-8.5 21v621q0 26 14.5 41.5t39.5 15.5q15 0 29 -7t25 -24z
M407 762q-13 -10 -25 -10q-15 0 -26 10l-87 64q-5 3 -8.5 8.5t-3.5 13.5q0 11 7 18.5t19 7.5q11 0 18 -6l81 -61l81 61q7 6 17 6q13 0 19.5 -7.5t6.5 -18.5q0 -15 -11 -22z" />
    <glyph glyph-name="Ntilde" unicode="&#xd1;" horiz-adv-x="769" 
d="M603 62h2q-1 30 -2 60.5t-1 81.5v469q0 13 8.5 21.5t20.5 8.5t20.5 -8.5t8.5 -21.5v-621q0 -22 -14 -38t-34 -16q-35 0 -54 29l-389 617h-3q1 -29 1.5 -62t0.5 -85v-471q0 -12 -8.5 -21t-20.5 -9t-20.5 9t-8.5 21v621q0 26 14.5 41.5t39.5 15.5q15 0 29 -7t25 -24z
M436 810q9 0 15.5 4t12.5 8.5t12 8.5t14 4q13 0 20.5 -7.5t7.5 -18.5q0 -8 -3.5 -13.5t-8.5 -9.5q-16 -14 -34 -22t-36 -8q-17 0 -31.5 5.5t-27.5 12.5t-24.5 12.5t-22.5 5.5q-9 0 -16 -4t-13 -8.5t-12 -8.5t-14 -4q-12 0 -19.5 7.5t-7.5 18.5q0 14 12 23q16 14 34 22t35 8
q18 0 32 -5.5t27 -12.5t24.5 -12.5t23.5 -5.5z" />
    <glyph glyph-name="Ncommaaccent" unicode="&#x145;" horiz-adv-x="769" 
d="M603 62h2q-1 30 -2 60.5t-1 81.5v469q0 13 8.5 21.5t20.5 8.5t20.5 -8.5t8.5 -21.5v-621q0 -22 -14 -38t-34 -16q-35 0 -54 29l-389 617h-3q1 -29 1.5 -62t0.5 -85v-471q0 -12 -8.5 -21t-20.5 -9t-20.5 9t-8.5 21v621q0 26 14.5 41.5t39.5 15.5q15 0 29 -7t25 -24z
M388 -269q-10 -15 -26 -15q-9 0 -17 6.5t-8 20.5q0 9 3.5 16l8 16t8 21.5t3.5 32.5v56q0 13 8.5 21t19.5 8t19.5 -8t8.5 -22v-43q0 -37 -7.5 -63t-20.5 -47z" />
    <glyph glyph-name="Ograve" unicode="&#xd2;" horiz-adv-x="727" 
d="M362 -9q-59 0 -109.5 21t-88.5 58.5t-61 88.5t-27 110q-6 80 0 162q4 58 27 108.5t61 88t88.5 59t109.5 21.5t110 -21.5t89.5 -58.5t62 -88t27.5 -109q6 -82 0 -162q-4 -59 -27.5 -110t-62 -88.5t-89.5 -58.5t-110 -21zM362 49q47 0 87.5 16.5t70.5 45.5t48.5 69t23.5 87
q7 82 0 165q-5 47 -23.5 87t-49 69t-70.5 45.5t-87 16.5t-86.5 -16.5t-69 -45.5t-48.5 -69t-23 -87q-8 -83 0 -165q4 -47 23 -87t48.5 -69t69 -45.5t86.5 -16.5zM421 802q14 -7 14 -23q0 -11 -7.5 -18.5t-18.5 -7.5q-5 0 -8 1t-6 3l-135 69q-5 3 -9.5 9.5t-4.5 14.5
q0 11 7.5 18.5t18.5 7.5q9 0 15 -4z" />
    <glyph glyph-name="Oacute" unicode="&#xd3;" horiz-adv-x="727" 
d="M362 -9q-59 0 -109.5 21t-88.5 58.5t-61 88.5t-27 110q-6 80 0 162q4 58 27 108.5t61 88t88.5 59t109.5 21.5t110 -21.5t89.5 -58.5t62 -88t27.5 -109q6 -82 0 -162q-4 -59 -27.5 -110t-62 -88.5t-89.5 -58.5t-110 -21zM362 49q47 0 87.5 16.5t70.5 45.5t48.5 69t23.5 87
q7 82 0 165q-5 47 -23.5 87t-49 69t-70.5 45.5t-87 16.5t-86.5 -16.5t-69 -45.5t-48.5 -69t-23 -87q-8 -83 0 -165q4 -47 23 -87t48.5 -69t69 -45.5t86.5 -16.5zM439 872q8 4 14 4q11 0 18.5 -7.5t7.5 -18.5q0 -17 -14 -24l-136 -70q-2 -1 -5 -2t-8 -1q-11 0 -18.5 7.5
t-7.5 18.5q0 8 4.5 14t9.5 9z" />
    <glyph glyph-name="Ocircumflex" unicode="&#xd4;" horiz-adv-x="727" 
d="M362 -9q-59 0 -109.5 21t-88.5 58.5t-61 88.5t-27 110q-6 80 0 162q4 58 27 108.5t61 88t88.5 59t109.5 21.5t110 -21.5t89.5 -58.5t62 -88t27.5 -109q6 -82 0 -162q-4 -59 -27.5 -110t-62 -88.5t-89.5 -58.5t-110 -21zM362 49q47 0 87.5 16.5t70.5 45.5t48.5 69t23.5 87
q7 82 0 165q-5 47 -23.5 87t-49 69t-70.5 45.5t-87 16.5t-86.5 -16.5t-69 -45.5t-48.5 -69t-23 -87q-8 -83 0 -165q4 -47 23 -87t48.5 -69t69 -45.5t86.5 -16.5zM476 800q11 -7 11 -22q0 -11 -6.5 -18.5t-19.5 -7.5q-10 0 -17 6l-81 60l-81 -60q-7 -6 -18 -6q-12 0 -19 7.5
t-7 18.5q0 8 3.5 13.5t8.5 8.5l87 64q11 10 26 10q12 0 25 -10z" />
    <glyph glyph-name="Otilde" unicode="&#xd5;" horiz-adv-x="727" 
d="M362 -9q-59 0 -109.5 21t-88.5 58.5t-61 88.5t-27 110q-6 80 0 162q4 58 27 108.5t61 88t88.5 59t109.5 21.5t110 -21.5t89.5 -58.5t62 -88t27.5 -109q6 -82 0 -162q-4 -59 -27.5 -110t-62 -88.5t-89.5 -58.5t-110 -21zM362 49q47 0 87.5 16.5t70.5 45.5t48.5 69t23.5 87
q7 82 0 165q-5 47 -23.5 87t-49 69t-70.5 45.5t-87 16.5t-86.5 -16.5t-69 -45.5t-48.5 -69t-23 -87q-8 -83 0 -165q4 -47 23 -87t48.5 -69t69 -45.5t86.5 -16.5zM417 806q9 0 15.5 4t12.5 8.5t12 8.5t14 4q13 0 20.5 -7.5t7.5 -18.5q0 -8 -3.5 -13.5t-8.5 -9.5
q-16 -14 -34 -22t-36 -8q-17 0 -31.5 5.5t-27.5 12.5t-24.5 12.5t-22.5 5.5q-9 0 -16 -4t-13 -8.5t-12 -8.5t-14 -4q-12 0 -19.5 7.5t-7.5 18.5q0 14 12 23q16 14 34 22t35 8q18 0 32 -5.5t27 -12.5t24.5 -12.5t23.5 -5.5z" />
    <glyph glyph-name="Odieresis" unicode="&#xd6;" horiz-adv-x="727" 
d="M362 -9q-59 0 -109.5 21t-88.5 58.5t-61 88.5t-27 110q-6 80 0 162q4 58 27 108.5t61 88t88.5 59t109.5 21.5t110 -21.5t89.5 -58.5t62 -88t27.5 -109q6 -82 0 -162q-4 -59 -27.5 -110t-62 -88.5t-89.5 -58.5t-110 -21zM362 49q47 0 87.5 16.5t70.5 45.5t48.5 69t23.5 87
q7 82 0 165q-5 47 -23.5 87t-49 69t-70.5 45.5t-87 16.5t-86.5 -16.5t-69 -45.5t-48.5 -69t-23 -87q-8 -83 0 -165q4 -47 23 -87t48.5 -69t69 -45.5t86.5 -16.5zM288 837q16 0 26.5 -11t10.5 -26q0 -16 -10.5 -26.5t-26.5 -10.5q-15 0 -26 10.5t-11 26.5q0 15 11 26t26 11z
M438 837q15 0 26 -11t11 -26q0 -16 -11 -26.5t-26 -10.5q-16 0 -26.5 10.5t-10.5 26.5q0 15 10.5 26t26.5 11z" />
    <glyph glyph-name="Omacron" unicode="&#x14c;" horiz-adv-x="727" 
d="M362 -9q-59 0 -109.5 21t-88.5 58.5t-61 88.5t-27 110q-6 80 0 162q4 58 27 108.5t61 88t88.5 59t109.5 21.5t110 -21.5t89.5 -58.5t62 -88t27.5 -109q6 -82 0 -162q-4 -59 -27.5 -110t-62 -88.5t-89.5 -58.5t-110 -21zM362 49q47 0 87.5 16.5t70.5 45.5t48.5 69t23.5 87
q7 82 0 165q-5 47 -23.5 87t-49 69t-70.5 45.5t-87 16.5t-86.5 -16.5t-69 -45.5t-48.5 -69t-23 -87q-8 -83 0 -165q4 -47 23 -87t48.5 -69t69 -45.5t86.5 -16.5zM447 826q11 0 18.5 -7.5t7.5 -18.5t-7.5 -18t-18.5 -7h-168q-11 0 -18 7t-7 18t7 18.5t18 7.5h168z" />
    <glyph glyph-name="Ohungarumlaut" unicode="&#x150;" horiz-adv-x="727" 
d="M362 -9q-59 0 -109.5 21t-88.5 58.5t-61 88.5t-27 110q-6 80 0 162q4 58 27 108.5t61 88t88.5 59t109.5 21.5t110 -21.5t89.5 -58.5t62 -88t27.5 -109q6 -82 0 -162q-4 -59 -27.5 -110t-62 -88.5t-89.5 -58.5t-110 -21zM362 49q47 0 87.5 16.5t70.5 45.5t48.5 69t23.5 87
q7 82 0 165q-5 47 -23.5 87t-49 69t-70.5 45.5t-87 16.5t-86.5 -16.5t-69 -45.5t-48.5 -69t-23 -87q-8 -83 0 -165q4 -47 23 -87t48.5 -69t69 -45.5t86.5 -16.5zM307 757q-7 -5 -15 -5q-11 0 -18.5 7.5t-7.5 18.5q0 12 10 21l100 84q7 5 16 5q11 0 18 -7t7 -18q0 -14 -9 -21
zM440 757q-7 -5 -15 -5q-11 0 -18.5 7.5t-7.5 18.5q0 12 10 21l100 84q8 5 16 5q11 0 18 -7t7 -18q0 -14 -9 -21z" />
    <glyph glyph-name="Oslash" unicode="&#xd8;" horiz-adv-x="726" 
d="M548 708q12 0 19 -8t7 -19q0 -8 -3 -14l-18 -32q42 -38 67 -90.5t30 -113.5q6 -82 0 -162q-4 -59 -27.5 -110t-62 -88.5t-89.5 -58.5t-110 -21q-41 0 -77 10t-67 28l-13 -23q-8 -15 -24 -15q-12 0 -19 8t-7 19q0 7 3 13l16 30q-42 38 -67.5 91t-30.5 117q-6 80 0 162
q4 58 27 108.5t61 88t88.5 59t109.5 21.5q42 0 79 -10.5t69 -30.5l14 25q8 16 25 16zM134 267q5 -47 22 -86t46 -68l279 503q-53 34 -120 34q-47 0 -86.5 -16.5t-69 -45.5t-48.5 -69t-23 -87q-8 -83 0 -165zM361 49q47 0 87.5 16.5t70.5 45.5t48.5 69t23.5 87q7 82 0 165
q-5 45 -22 83t-45 67l-279 -502q51 -31 116 -31z" />
    <glyph glyph-name="OE" unicode="&#x152;" horiz-adv-x="1059" 
d="M564 0q-20 0 -65 -4.5t-111 -4.5q-75 0 -132.5 22.5t-96.5 63t-60 95t-24 119.5q-2 26 -2 55t2 55q3 64 24 120.5t60.5 97.5t97 65t132.5 24q66 0 114.5 -4.5t89.5 -4.5h361q13 0 21.5 -8t8.5 -21q0 -12 -9 -20.5t-21 -8.5h-356v-260h348q14 0 22.5 -7.5t8.5 -20.5
t-9 -21.5t-22 -8.5h-348v-264h358q12 0 21 -8.5t9 -20.5q0 -13 -8.5 -21.5t-21.5 -8.5h-392zM540 641q-44 6 -77.5 7.5t-73.5 1.5q-63 0 -109.5 -18.5t-78 -51.5t-48.5 -78t-20 -98q-2 -28 -2 -58.5t2 -57.5q3 -53 20 -97t48.5 -75.5t78 -49t109.5 -17.5h38t35.5 1t36 3
t41.5 5v583z" />
    <glyph glyph-name="Racute" unicode="&#x154;" horiz-adv-x="678" 
d="M612 24q0 -12 -8.5 -20t-20.5 -8q-14 0 -23 11l-197 247q-12 15 -23.5 23.5t-32.5 8.5h-139v-260q0 -12 -9 -21t-20 -9q-12 0 -20.5 9t-8.5 21v616q0 23 14.5 40t43.5 17h202q47 0 87 -13.5t69.5 -40t46 -65.5t16.5 -90q0 -90 -50 -138t-134 -59l201 -250q6 -8 6 -19z
M354 344q48 0 82 10.5t55 30t30.5 47t9.5 60.5q0 68 -40 108.5t-123 40.5h-200v-297h186zM408 872q8 4 14 4q11 0 18.5 -7.5t7.5 -18.5q0 -17 -14 -24l-136 -70q-2 -1 -5 -2t-8 -1q-11 0 -18.5 7.5t-7.5 18.5q0 8 4.5 14t9.5 9z" />
    <glyph glyph-name="Rcaron" unicode="&#x158;" horiz-adv-x="678" 
d="M612 24q0 -12 -8.5 -20t-20.5 -8q-14 0 -23 11l-197 247q-12 15 -23.5 23.5t-32.5 8.5h-139v-260q0 -12 -9 -21t-20 -9q-12 0 -20.5 9t-8.5 21v616q0 23 14.5 40t43.5 17h202q47 0 87 -13.5t69.5 -40t46 -65.5t16.5 -90q0 -90 -50 -138t-134 -59l201 -250q6 -8 6 -19z
M354 344q48 0 82 10.5t55 30t30.5 47t9.5 60.5q0 68 -40 108.5t-123 40.5h-200v-297h186zM364 762q-13 -10 -25 -10q-15 0 -26 10l-87 64q-5 3 -8.5 8.5t-3.5 13.5q0 11 7 18.5t19 7.5q11 0 18 -6l81 -61l81 61q7 6 17 6q13 0 19.5 -7.5t6.5 -18.5q0 -15 -11 -22z" />
    <glyph glyph-name="Rcommaaccent" unicode="&#x156;" horiz-adv-x="678" 
d="M612 24q0 -12 -8.5 -20t-20.5 -8q-14 0 -23 11l-197 247q-12 15 -23.5 23.5t-32.5 8.5h-139v-260q0 -12 -9 -21t-20 -9q-12 0 -20.5 9t-8.5 21v616q0 23 14.5 40t43.5 17h202q47 0 87 -13.5t69.5 -40t46 -65.5t16.5 -90q0 -90 -50 -138t-134 -59l201 -250q6 -8 6 -19z
M354 344q48 0 82 10.5t55 30t30.5 47t9.5 60.5q0 68 -40 108.5t-123 40.5h-200v-297h186zM337 -269q-10 -15 -26 -15q-9 0 -17 6.5t-8 20.5q0 9 3.5 16l8 16t8 21.5t3.5 32.5v56q0 13 8.5 21t19.5 8t19.5 -8t8.5 -22v-43q0 -37 -7.5 -63t-20.5 -47z" />
    <glyph glyph-name="Sacute" unicode="&#x15a;" horiz-adv-x="612" 
d="M322 384q64 -12 110.5 -28t76 -38t43.5 -52.5t14 -72.5q0 -93 -64.5 -147.5t-181.5 -54.5q-79 0 -135.5 19.5t-104.5 52.5q-15 10 -15 26q0 14 8.5 22t21.5 8q5 0 10 -1.5t12 -6.5q19 -14 39 -25.5t43.5 -19.5t52.5 -13t67 -5q89 0 138.5 38.5t49.5 106.5q0 26 -9.5 46
t-32 35.5t-60.5 27.5t-95 23q-121 22 -175.5 66t-54.5 124q0 90 61 141.5t172 51.5q59 0 109.5 -15.5t81.5 -41.5q11 -9 11 -24q0 -12 -8 -20.5t-19 -8.5q-8 0 -14 3t-10 6q-32 19 -69 31t-82 12q-48 0 -81.5 -11t-54.5 -29t-30 -42.5t-9 -51.5t8.5 -47.5t29.5 -35.5
t56.5 -27t89.5 -22zM379 872q8 4 14 4q11 0 18.5 -7.5t7.5 -18.5q0 -17 -14 -24l-136 -70q-2 -1 -5 -2t-8 -1q-11 0 -18.5 7.5t-7.5 18.5q0 8 4.5 14t9.5 9z" />
    <glyph glyph-name="Scaron" unicode="&#x160;" horiz-adv-x="612" 
d="M322 384q64 -12 110.5 -28t76 -38t43.5 -52.5t14 -72.5q0 -93 -64.5 -147.5t-181.5 -54.5q-79 0 -135.5 19.5t-104.5 52.5q-15 10 -15 26q0 14 8.5 22t21.5 8q5 0 10 -1.5t12 -6.5q19 -14 39 -25.5t43.5 -19.5t52.5 -13t67 -5q89 0 138.5 38.5t49.5 106.5q0 26 -9.5 46
t-32 35.5t-60.5 27.5t-95 23q-121 22 -175.5 66t-54.5 124q0 90 61 141.5t172 51.5q59 0 109.5 -15.5t81.5 -41.5q11 -9 11 -24q0 -12 -8 -20.5t-19 -8.5q-8 0 -14 3t-10 6q-32 19 -69 31t-82 12q-48 0 -81.5 -11t-54.5 -29t-30 -42.5t-9 -51.5t8.5 -47.5t29.5 -35.5
t56.5 -27t89.5 -22zM330 760q-13 -10 -25 -10q-15 0 -26 10l-87 64q-5 3 -8.5 8.5t-3.5 13.5q0 11 7 18.5t19 7.5q11 0 18 -6l81 -61l81 61q7 6 17 6q13 0 19.5 -7.5t6.5 -18.5q0 -15 -11 -22z" />
    <glyph glyph-name="Scedilla" unicode="&#x15e;" horiz-adv-x="612" 
d="M261 -6q-56 7 -99.5 25t-81.5 44q-15 10 -15 26q0 14 8.5 22t21.5 8q5 0 10 -1.5t12 -6.5q19 -14 39 -25.5t43.5 -19.5t52.5 -13t67 -5q89 0 138.5 38.5t49.5 106.5q0 26 -9.5 46t-32 36t-60.5 28t-95 22q-121 22 -175.5 66t-54.5 124q0 90 61 141.5t172 51.5
q59 0 109.5 -15.5t81.5 -41.5q11 -9 11 -24q0 -12 -8 -20.5t-19 -8.5q-8 0 -14 3t-10 6q-32 19 -69 31t-82 12q-48 0 -81.5 -11t-54.5 -29t-30 -42.5t-9 -51.5t8.5 -47.5t29.5 -35.5t56.5 -27t89.5 -22q64 -12 110.5 -28t76 -38t43.5 -52.5t14 -72.5q0 -46 -17 -83.5
t-49.5 -64t-79 -40.5t-105.5 -14l-16 -41q35 -2 59.5 -24.5t24.5 -57.5q0 -23 -11 -41.5t-28 -32.5t-38 -24t-42 -17q-14 -5 -26.5 0.5t-12.5 23.5q0 6 4 13.5t17 12.5q49 16 65 32.5t16 31.5q0 13 -9 22t-25 9q-11 0 -16 -1t-14 -1q-14 0 -21.5 12t-2.5 27z" />
    <glyph glyph-name="Scommaaccent" unicode="&#x218;" horiz-adv-x="612" 
d="M322 384q64 -12 110.5 -28t76 -38t43.5 -52.5t14 -72.5q0 -93 -64.5 -147.5t-181.5 -54.5q-79 0 -135.5 19.5t-104.5 52.5q-15 10 -15 26q0 14 8.5 22t21.5 8q5 0 10 -1.5t12 -6.5q19 -14 39 -25.5t43.5 -19.5t52.5 -13t67 -5q89 0 138.5 38.5t49.5 106.5q0 26 -9.5 46
t-32 35.5t-60.5 27.5t-95 23q-121 22 -175.5 66t-54.5 124q0 90 61 141.5t172 51.5q59 0 109.5 -15.5t81.5 -41.5q11 -9 11 -24q0 -12 -8 -20.5t-19 -8.5q-8 0 -14 3t-10 6q-32 19 -69 31t-82 12q-48 0 -81.5 -11t-54.5 -29t-30 -42.5t-9 -51.5t8.5 -47.5t29.5 -35.5
t56.5 -27t89.5 -22zM322 -269q-10 -15 -26 -15q-9 0 -17 6.5t-8 20.5q0 9 3.5 16l8 16t8 21.5t3.5 32.5v56q0 13 8.5 21t19.5 8t19.5 -8t8.5 -22v-43q0 -37 -7.5 -63t-20.5 -47z" />
    <glyph glyph-name="Tcaron" unicode="&#x164;" horiz-adv-x="592" 
d="M268 641h-216q-13 0 -22 8.5t-9 20.5t9 20.5t22 8.5h488q13 0 21.5 -8.5t8.5 -20.5t-9 -20.5t-21 -8.5h-214v-615q0 -13 -8 -21.5t-21 -8.5t-21 8.5t-8 21.5v615zM321 762q-13 -10 -25 -10q-15 0 -26 10l-87 64q-5 3 -8.5 8.5t-3.5 13.5q0 11 7 18.5t19 7.5q11 0 18 -6
l81 -61l81 61q7 6 17 6q13 0 19.5 -7.5t6.5 -18.5q0 -15 -11 -22z" />
    <glyph glyph-name="Tcommaaccent" unicode="&#x162;" horiz-adv-x="592" 
d="M268 641h-216q-13 0 -22 8.5t-9 20.5t9 20.5t22 8.5h488q13 0 21.5 -8.5t8.5 -20.5t-9 -20.5t-21 -8.5h-214v-615q0 -13 -8 -21.5t-21 -8.5t-21 8.5t-8 21.5v615zM299 -269q-10 -15 -26 -15q-9 0 -17 6.5t-8 20.5q0 9 3.5 16l8 16t8 21.5t3.5 32.5v56q0 13 8.5 21t19.5 8
t19.5 -8t8.5 -22v-43q0 -37 -7.5 -63t-20.5 -47z" />
    <glyph glyph-name="Ugrave" unicode="&#xd9;" horiz-adv-x="748" 
d="M649 276q0 -63 -21 -115.5t-57.5 -90t-87 -58.5t-109.5 -21t-109.5 21t-87.5 58.5t-57.5 90t-20.5 115.5v397q0 13 8.5 21.5t20.5 8.5q13 0 21 -8.5t8 -21.5v-392q0 -54 16.5 -97t45.5 -73t68.5 -46t86.5 -16q46 0 86 16t69 46t45.5 73t16.5 97v392q0 13 8.5 21.5
t20.5 8.5q13 0 21 -8.5t8 -21.5v-397zM460 802q14 -7 14 -23q0 -11 -7.5 -18.5t-18.5 -7.5q-5 0 -8 1t-6 3l-135 69q-5 3 -9.5 9.5t-4.5 14.5q0 11 7.5 18.5t18.5 7.5q9 0 15 -4z" />
    <glyph glyph-name="Uacute" unicode="&#xda;" horiz-adv-x="748" 
d="M649 276q0 -63 -21 -115.5t-57.5 -90t-87 -58.5t-109.5 -21t-109.5 21t-87.5 58.5t-57.5 90t-20.5 115.5v397q0 13 8.5 21.5t20.5 8.5q13 0 21 -8.5t8 -21.5v-392q0 -54 16.5 -97t45.5 -73t68.5 -46t86.5 -16q46 0 86 16t69 46t45.5 73t16.5 97v392q0 13 8.5 21.5
t20.5 8.5q13 0 21 -8.5t8 -21.5v-397zM423 872q8 4 14 4q11 0 18.5 -7.5t7.5 -18.5q0 -17 -14 -24l-136 -70q-2 -1 -5 -2t-8 -1q-11 0 -18.5 7.5t-7.5 18.5q0 8 4.5 14t9.5 9z" />
    <glyph glyph-name="Ucircumflex" unicode="&#xdb;" horiz-adv-x="748" 
d="M649 276q0 -63 -21 -115.5t-57.5 -90t-87 -58.5t-109.5 -21t-109.5 21t-87.5 58.5t-57.5 90t-20.5 115.5v397q0 13 8.5 21.5t20.5 8.5q13 0 21 -8.5t8 -21.5v-392q0 -54 16.5 -97t45.5 -73t68.5 -46t86.5 -16q46 0 86 16t69 46t45.5 73t16.5 97v392q0 13 8.5 21.5
t20.5 8.5q13 0 21 -8.5t8 -21.5v-397zM487 800q11 -7 11 -22q0 -11 -6.5 -18.5t-19.5 -7.5q-10 0 -17 6l-81 60l-81 -60q-7 -6 -18 -6q-12 0 -19 7.5t-7 18.5q0 8 3.5 13.5t8.5 8.5l87 64q11 10 26 10q12 0 25 -10z" />
    <glyph glyph-name="Udieresis" unicode="&#xdc;" horiz-adv-x="748" 
d="M649 276q0 -63 -21 -115.5t-57.5 -90t-87 -58.5t-109.5 -21t-109.5 21t-87.5 58.5t-57.5 90t-20.5 115.5v397q0 13 8.5 21.5t20.5 8.5q13 0 21 -8.5t8 -21.5v-392q0 -54 16.5 -97t45.5 -73t68.5 -46t86.5 -16q46 0 86 16t69 46t45.5 73t16.5 97v392q0 13 8.5 21.5
t20.5 8.5q13 0 21 -8.5t8 -21.5v-397zM299 837q16 0 26.5 -11t10.5 -26q0 -16 -10.5 -26.5t-26.5 -10.5q-15 0 -26 10.5t-11 26.5q0 15 11 26t26 11zM449 837q15 0 26 -11t11 -26q0 -16 -11 -26.5t-26 -10.5q-16 0 -26.5 10.5t-10.5 26.5q0 15 10.5 26t26.5 11z" />
    <glyph glyph-name="Umacron" unicode="&#x16a;" horiz-adv-x="748" 
d="M649 276q0 -63 -21 -115.5t-57.5 -90t-87 -58.5t-109.5 -21t-109.5 21t-87.5 58.5t-57.5 90t-20.5 115.5v397q0 13 8.5 21.5t20.5 8.5q13 0 21 -8.5t8 -21.5v-392q0 -54 16.5 -97t45.5 -73t68.5 -46t86.5 -16q46 0 86 16t69 46t45.5 73t16.5 97v392q0 13 8.5 21.5
t20.5 8.5q13 0 21 -8.5t8 -21.5v-397zM458 825q11 0 18.5 -7.5t7.5 -18.5t-7.5 -18t-18.5 -7h-168q-11 0 -18 7t-7 18t7 18.5t18 7.5h168z" />
    <glyph glyph-name="Uring" unicode="&#x16e;" horiz-adv-x="748" 
d="M649 276q0 -63 -21 -115.5t-57.5 -90t-87 -58.5t-109.5 -21t-109.5 21t-87.5 58.5t-57.5 90t-20.5 115.5v397q0 13 8.5 21.5t20.5 8.5q13 0 21 -8.5t8 -21.5v-392q0 -54 16.5 -97t45.5 -73t68.5 -46t86.5 -16q46 0 86 16t69 46t45.5 73t16.5 97v392q0 13 8.5 21.5
t20.5 8.5q13 0 21 -8.5t8 -21.5v-397zM284 841q0 37 26 63.5t64 26.5q37 0 63.5 -26.5t26.5 -63.5t-26.5 -63.5t-63.5 -26.5q-38 0 -64 26.5t-26 63.5zM328 841q0 -19 13 -32t33 -13q19 0 32.5 13t13.5 32q0 20 -13.5 33t-32.5 13q-20 0 -33 -13t-13 -33z" />
    <glyph glyph-name="Uhungarumlaut" unicode="&#x170;" horiz-adv-x="748" 
d="M649 276q0 -63 -21 -115.5t-57.5 -90t-87 -58.5t-109.5 -21t-109.5 21t-87.5 58.5t-57.5 90t-20.5 115.5v397q0 13 8.5 21.5t20.5 8.5q13 0 21 -8.5t8 -21.5v-392q0 -54 16.5 -97t45.5 -73t68.5 -46t86.5 -16q46 0 86 16t69 46t45.5 73t16.5 97v392q0 13 8.5 21.5
t20.5 8.5q13 0 21 -8.5t8 -21.5v-397zM307 757q-7 -5 -15 -5q-11 0 -18.5 7.5t-7.5 18.5q0 12 10 21l100 84q7 5 16 5q11 0 18 -7t7 -18q0 -14 -9 -21zM440 757q-7 -5 -15 -5q-11 0 -18.5 7.5t-7.5 18.5q0 12 10 21l100 84q8 5 16 5q11 0 18 -7t7 -18q0 -14 -9 -21z" />
    <glyph glyph-name="Uogonek" unicode="&#x172;" horiz-adv-x="748" 
d="M470 7q-29 -11 -48 -24.5t-30 -27t-15 -27t-4 -23.5q0 -26 16 -38t37 -12q12 0 24 3.5t21 11.5q9 7 20 5t19 -11q7 -9 4.5 -20.5t-11.5 -18.5q-14 -10 -34.5 -17.5t-44.5 -7.5q-21 0 -40 7t-34 20.5t-23.5 33t-8.5 43.5q0 47 41 88q-57 3 -104.5 24.5t-82 58.5t-54 88
t-19.5 113v393q0 13 8.5 21.5t20.5 8.5q13 0 21 -8.5t8 -21.5v-388q0 -54 16.5 -97t45.5 -73t68.5 -46t86.5 -16q46 0 86 16t69 46t45.5 73t16.5 97v388q0 13 8.5 21.5t20.5 8.5q13 0 21 -8.5t8 -21.5v-393q0 -99 -48.5 -169.5t-130.5 -99.5z" />
    <glyph glyph-name="Wgrave" unicode="&#x1e80;" horiz-adv-x="940" 
d="M43 667q-3 15 5 26.5t24 11.5q11 0 18.5 -6.5t9.5 -16.5l140 -630q1 -5 4.5 -5t5.5 5l159 601q6 23 21 36.5t40 13.5q26 0 40.5 -14t20.5 -36l156 -602q2 -5 5.5 -5t4.5 5l143 629q2 11 10 18t19 7q17 0 24.5 -11.5t3.5 -26.5l-144 -628q-5 -22 -20.5 -35t-39.5 -13
q-48 0 -60 48l-159 602q-2 5 -5 5t-5 -5l-161 -602q-12 -48 -60 -48q-24 0 -39.5 13t-20.5 35zM524 802q14 -7 14 -23q0 -11 -7.5 -18.5t-18.5 -7.5q-5 0 -8 1t-6 3l-135 69q-5 3 -9.5 9.5t-4.5 14.5q0 11 7.5 18.5t18.5 7.5q9 0 15 -4z" />
    <glyph glyph-name="Wacute" unicode="&#x1e82;" horiz-adv-x="940" 
d="M43 667q-3 15 5 26.5t24 11.5q11 0 18.5 -6.5t9.5 -16.5l140 -630q1 -5 4.5 -5t5.5 5l159 601q6 23 21 36.5t40 13.5q26 0 40.5 -14t20.5 -36l156 -602q2 -5 5.5 -5t4.5 5l143 629q2 11 10 18t19 7q17 0 24.5 -11.5t3.5 -26.5l-144 -628q-5 -22 -20.5 -35t-39.5 -13
q-48 0 -60 48l-159 602q-2 5 -5 5t-5 -5l-161 -602q-12 -48 -60 -48q-24 0 -39.5 13t-20.5 35zM546 872q8 4 14 4q11 0 18.5 -7.5t7.5 -18.5q0 -17 -14 -24l-136 -70q-2 -1 -5 -2t-8 -1q-11 0 -18.5 7.5t-7.5 18.5q0 8 4.5 14t9.5 9z" />
    <glyph glyph-name="Wcircumflex" unicode="&#x174;" horiz-adv-x="940" 
d="M43 667q-3 15 5 26.5t24 11.5q11 0 18.5 -6.5t9.5 -16.5l140 -630q1 -5 4.5 -5t5.5 5l159 601q6 23 21 36.5t40 13.5q26 0 40.5 -14t20.5 -36l156 -602q2 -5 5.5 -5t4.5 5l143 629q2 11 10 18t19 7q17 0 24.5 -11.5t3.5 -26.5l-144 -628q-5 -22 -20.5 -35t-39.5 -13
q-48 0 -60 48l-159 602q-2 5 -5 5t-5 -5l-161 -602q-12 -48 -60 -48q-24 0 -39.5 13t-20.5 35zM582 800q11 -7 11 -22q0 -11 -6.5 -18.5t-19.5 -7.5q-10 0 -17 6l-81 60l-81 -60q-7 -6 -18 -6q-12 0 -19 7.5t-7 18.5q0 8 3.5 13.5t8.5 8.5l87 64q11 10 26 10q12 0 25 -10z
" />
    <glyph glyph-name="Wdieresis" unicode="&#x1e84;" horiz-adv-x="940" 
d="M43 667q-3 15 5 26.5t24 11.5q11 0 18.5 -6.5t9.5 -16.5l140 -630q1 -5 4.5 -5t5.5 5l159 601q6 23 21 36.5t40 13.5q26 0 40.5 -14t20.5 -36l156 -602q2 -5 5.5 -5t4.5 5l143 629q2 11 10 18t19 7q17 0 24.5 -11.5t3.5 -26.5l-144 -628q-5 -22 -20.5 -35t-39.5 -13
q-48 0 -60 48l-159 602q-2 5 -5 5t-5 -5l-161 -602q-12 -48 -60 -48q-24 0 -39.5 13t-20.5 35zM394 837q16 0 26.5 -11t10.5 -26q0 -16 -10.5 -26.5t-26.5 -10.5q-15 0 -26 10.5t-11 26.5q0 15 11 26t26 11zM544 837q15 0 26 -11t11 -26q0 -16 -11 -26.5t-26 -10.5
q-16 0 -26.5 10.5t-10.5 26.5q0 15 10.5 26t26.5 11z" />
    <glyph glyph-name="Ygrave" unicode="&#x1ef2;" horiz-adv-x="641" 
d="M594 704q11 0 20 -8.5t9 -19.5t-8 -21l-238 -294q-12 -15 -19.5 -25.5t-7.5 -31.5v-278q0 -13 -8.5 -21.5t-20.5 -8.5t-20.5 9t-8.5 21v278q0 21 -8.5 32t-20.5 26l-237 293q-8 10 -8 21t9 19.5t20 8.5q14 0 23 -11l251 -312l250 312q9 11 23 11zM361 802q14 -7 14 -23
q0 -11 -7.5 -18.5t-18.5 -7.5q-5 0 -8 1t-6 3l-135 69q-5 3 -9.5 9.5t-4.5 14.5q0 11 7.5 18.5t18.5 7.5q9 0 15 -4z" />
    <glyph glyph-name="Yacute" unicode="&#xdd;" horiz-adv-x="641" 
d="M594 704q11 0 20 -8.5t9 -19.5t-8 -21l-238 -294q-12 -15 -19.5 -25.5t-7.5 -31.5v-278q0 -13 -8.5 -21.5t-20.5 -8.5t-20.5 9t-8.5 21v278q0 21 -8.5 32t-20.5 26l-237 293q-8 10 -8 21t9 19.5t20 8.5q14 0 23 -11l251 -312l250 312q9 11 23 11zM375 872q8 4 14 4
q11 0 18.5 -7.5t7.5 -18.5q0 -17 -14 -24l-136 -70q-2 -1 -5 -2t-8 -1q-11 0 -18.5 7.5t-7.5 18.5q0 8 4.5 14t9.5 9z" />
    <glyph glyph-name="Ycircumflex" unicode="&#x176;" horiz-adv-x="641" 
d="M594 704q11 0 20 -8.5t9 -19.5t-8 -21l-238 -294q-12 -15 -19.5 -25.5t-7.5 -31.5v-278q0 -13 -8.5 -21.5t-20.5 -8.5t-20.5 9t-8.5 21v278q0 21 -8.5 32t-20.5 26l-237 293q-8 10 -8 21t9 19.5t20 8.5q14 0 23 -11l251 -312l250 312q9 11 23 11zM433 800q11 -7 11 -22
q0 -11 -6.5 -18.5t-19.5 -7.5q-10 0 -17 6l-81 60l-81 -60q-7 -6 -18 -6q-12 0 -19 7.5t-7 18.5q0 8 3.5 13.5t8.5 8.5l87 64q11 10 26 10q12 0 25 -10z" />
    <glyph glyph-name="Ydieresis" unicode="&#x178;" horiz-adv-x="641" 
d="M594 704q11 0 20 -8.5t9 -19.5t-8 -21l-238 -294q-12 -15 -19.5 -25.5t-7.5 -31.5v-278q0 -13 -8.5 -21.5t-20.5 -8.5t-20.5 9t-8.5 21v278q0 21 -8.5 32t-20.5 26l-237 293q-8 10 -8 21t9 19.5t20 8.5q14 0 23 -11l251 -312l250 312q9 11 23 11zM246 787q16 0 26.5 -11
t10.5 -26q0 -16 -10.5 -26.5t-26.5 -10.5q-15 0 -26 10.5t-11 26.5q0 15 11 26t26 11zM396 787q15 0 26 -11t11 -26q0 -16 -11 -26.5t-26 -10.5q-16 0 -26.5 10.5t-10.5 26.5q0 15 10.5 26t26.5 11z" />
    <glyph glyph-name="Zacute" unicode="&#x179;" horiz-adv-x="582" 
d="M121 0q-30 0 -46 16t-16 40q0 20 14 40l387 545h-367q-13 0 -22 8.5t-9 20.5t9 20.5t22 8.5h361q30 0 46.5 -16t16.5 -41q0 -11 -5 -21.5t-14 -24.5l-383 -537h395q13 0 21.5 -9t8.5 -21t-8.5 -20.5t-21.5 -8.5h-389zM367 872q8 4 14 4q11 0 18.5 -7.5t7.5 -18.5
q0 -17 -14 -24l-136 -70q-2 -1 -5 -2t-8 -1q-11 0 -18.5 7.5t-7.5 18.5q0 8 4.5 14t9.5 9z" />
    <glyph glyph-name="Zcaron" unicode="&#x17d;" horiz-adv-x="582" 
d="M121 0q-30 0 -46 16t-16 40q0 20 14 40l387 545h-367q-13 0 -22 8.5t-9 20.5t9 20.5t22 8.5h361q30 0 46.5 -16t16.5 -41q0 -11 -5 -21.5t-14 -24.5l-383 -537h395q13 0 21.5 -9t8.5 -21t-8.5 -20.5t-21.5 -8.5h-389zM326 762q-13 -10 -25 -10q-15 0 -26 10l-87 64
q-5 3 -8.5 8.5t-3.5 13.5q0 11 7 18.5t19 7.5q11 0 18 -6l81 -61l81 61q7 6 17 6q13 0 19.5 -7.5t6.5 -18.5q0 -15 -11 -22z" />
    <glyph glyph-name="Zdotaccent" unicode="&#x17b;" horiz-adv-x="582" 
d="M121 0q-30 0 -46 16t-16 40q0 20 14 40l387 545h-367q-13 0 -22 8.5t-9 20.5t9 20.5t22 8.5h361q30 0 46.5 -16t16.5 -41q0 -11 -5 -21.5t-14 -24.5l-383 -537h395q13 0 21.5 -9t8.5 -21t-8.5 -20.5t-21.5 -8.5h-389zM292 837q16 0 26.5 -11t10.5 -26q0 -16 -10.5 -26.5
t-26.5 -10.5t-26.5 10.5t-10.5 26.5q0 15 10.5 26t26.5 11z" />
    <glyph glyph-name="Eth" unicode="&#xd0;" horiz-adv-x="719" 
d="M165 0q-27 0 -41 16.5t-14 39.5v261h-78q-13 0 -21 8.5t-8 20.5q0 13 8 21t21 8h78v268q0 23 14 39.5t41 16.5h173q74 0 130 -22.5t94 -62t58.5 -93.5t23.5 -118q2 -27 2 -55.5t-2 -53.5q-3 -63 -24 -117t-59 -93t-94 -61.5t-129 -22.5h-173zM586 294q2 26 2 57.5
t-2 54.5q-3 53 -19.5 96.5t-47 74t-76 47.5t-107.5 17h-168v-266h176q14 0 22 -8t8 -21q0 -12 -8 -20.5t-22 -8.5h-176v-258h168q62 0 108 17t76.5 47.5t46.5 74t19 96.5z" />
    <glyph glyph-name="Thorn" unicode="&#xde;" horiz-adv-x="642" 
d="M168 138v-112q0 -13 -8.5 -21.5t-20.5 -8.5t-20.5 8.5t-8.5 21.5v653q0 13 8 21.5t21 8.5q11 0 20 -8.5t9 -21.5v-117h202q45 0 84.5 -14.5t69.5 -41.5t47.5 -66t17.5 -89q0 -51 -17 -90.5t-47 -67t-72 -41.5t-91 -14h-194zM363 196q45 0 76.5 11t51.5 31.5t29 48.5t9 62
q0 68 -39.5 111.5t-121.5 43.5h-200v-308h195z" />
    <glyph glyph-name="a" unicode="a" horiz-adv-x="562" 
d="M473 73q0 -8 -2.5 -14.5t-10.5 -12.5q-10 -8 -29 -17.5t-44.5 -17.5t-57.5 -14t-69 -6q-94 0 -143 44.5t-49 120.5q0 34 12.5 63.5t37 51.5t61.5 34.5t86 12.5q38 0 71.5 -5.5t78.5 -17.5v43q0 70 -33.5 100.5t-102.5 30.5q-38 0 -71.5 -9.5t-56.5 -19.5q-20 -8 -32 0.5
t-12 22.5q0 8 4 16t14 13q25 13 66.5 24t87.5 11q95 0 144.5 -42t49.5 -138v-274zM269 48q39 0 80.5 12.5t65.5 30.5v147q-44 12 -77 18.5t-69 6.5q-74 0 -108.5 -31.5t-34.5 -76.5q0 -51 34.5 -79t108.5 -28z" />
    <glyph glyph-name="b" unicode="b" horiz-adv-x="601" 
d="M521 331q1 -13 1.5 -32t0.5 -38.5t-0.5 -38t-1.5 -31.5q-8 -94 -62 -147.5t-153 -53.5q-32 0 -63 7t-56.5 17t-44.5 20.5t-28 16.5t-11.5 12.5t-2.5 14.5v599q0 13 8.5 21.5t21.5 8.5q11 0 19.5 -8.5t8.5 -21.5v-184q29 12 69.5 23t85.5 11q94 0 147 -50.5t61 -145.5z
M463 189q1 14 1.5 33.5t0.5 39.5t-0.5 38.5t-1.5 30.5q-5 69 -40.5 104.5t-106.5 35.5q-51 0 -94.5 -13.5t-63.5 -25.5v-341q9 -7 25.5 -15t37 -14.5t42.5 -11t42 -4.5q143 0 158 143z" />
    <glyph glyph-name="c" unicode="c" horiz-adv-x="556" 
d="M298 46q42 0 82 23t58 71q5 15 13.5 21t19.5 6t18.5 -8t7.5 -22q0 -15 -12 -40t-36.5 -49t-61.5 -41t-88 -17q-48 0 -87.5 15.5t-68 42.5t-45 64t-19.5 79q-1 15 -1.5 33t-0.5 36.5t0.5 37t1.5 33.5q2 44 19 80t46 62t68.5 40t86.5 14q51 0 88 -17t61 -40t35.5 -48
t11.5 -40t-8 -23t-20 -8q-11 0 -18.5 6t-12.5 21q-17 47 -56.5 70t-81.5 23q-35 0 -63.5 -10.5t-49.5 -29t-33.5 -44t-13.5 -56.5q-1 -14 -1.5 -32.5t-0.5 -38t0.5 -38.5t1.5 -32q5 -63 47 -103.5t113 -40.5z" />
    <glyph glyph-name="d" unicode="d" horiz-adv-x="601" 
d="M80 331q8 95 61 145.5t147 50.5q45 0 85.5 -11t69.5 -23v184q0 13 8.5 21.5t20.5 8.5t20.5 -8.5t8.5 -21.5v-599q0 -8 -2 -14.5t-11 -12.5q-8 -6 -27 -16.5t-45 -20.5t-57 -17t-64 -7q-99 0 -153 53.5t-62 147.5q-1 13 -1.5 31.5t-0.5 38.5t0.5 38.5t1.5 31.5zM139 189
q8 -72 46 -107.5t111 -35.5q20 0 42 4.5t42.5 11t37 14.5t25.5 15v341q-20 12 -63.5 25.5t-94.5 13.5q-71 0 -105 -35t-41 -104q-1 -12 -2 -30.5t-1 -39t0.5 -40t2.5 -33.5z" />
    <glyph glyph-name="e" unicode="e" horiz-adv-x="574" 
d="M506 285q0 -24 -14 -38.5t-44 -14.5h-311v-20q0 -80 45 -123t119 -43q54 0 128 27q21 8 33 -1.5t12 -22.5q0 -7 -3.5 -14t-13.5 -13q-23 -14 -64 -23t-91 -9q-53 0 -93 16t-68 44.5t-43 68.5t-18 89q-2 27 -1.5 60t2.5 56q3 48 20.5 85.5t46 63.5t66.5 40t83 14
q49 0 87.5 -15.5t65.5 -43.5t41.5 -66.5t14.5 -83.5v-33zM433 288q14 0 15 14q3 39 -7 70t-30 53t-49.5 34t-65.5 12q-81 0 -121 -48.5t-38 -134.5h296z" />
    <glyph glyph-name="f" unicode="f" horiz-adv-x="373" 
d="M113 561q0 33 9 61t27.5 48.5t46.5 32t66 11.5q20 0 45 -3t42 -9q19 -7 19 -27q0 -10 -7 -18t-21 -8t-30 4.5t-52 4.5q-47 0 -67 -27.5t-20 -76.5v-47h151q11 0 20 -8t9 -21q0 -11 -9 -19t-20 -8h-151v-425q0 -13 -8 -21.5t-21 -8.5q-11 0 -20 8.5t-9 21.5v425h-39
q-13 0 -21.5 8t-8.5 19q0 13 8.5 21t21.5 8h39v54z" />
    <glyph glyph-name="g" unicode="g" horiz-adv-x="600" 
d="M499 39q0 -52 -15 -93.5t-42.5 -70t-65.5 -44t-84 -15.5q-61 0 -102.5 13.5t-69.5 30.5q-10 6 -16.5 14t-6.5 20q0 11 8 19.5t21 8.5q8 0 16 -4t17 -9q59 -36 133 -36q30 0 57 10t47.5 30.5t32.5 50.5t12 71v6q-31 -15 -67 -27.5t-86 -12.5q-97 0 -149 53.5t-60 147.5
q-1 13 -1.5 29.5t-0.5 33.5t0.5 33.5t1.5 29.5q8 98 63 148.5t151 50.5q34 0 65 -5.5t56.5 -14t44 -17.5t27.5 -15q6 -5 9.5 -10.5t3.5 -19.5v-406zM293 471q-41 0 -69 -11t-46.5 -30t-27.5 -45t-12 -57q-1 -13 -1.5 -30.5t-0.5 -35.5t0.5 -34t1.5 -26q5 -71 42 -107
t113 -36q58 0 95 16.5t53 29.5v328l-11.5 6t-31 13t-46.5 13t-59 6z" />
    <glyph glyph-name="h" unicode="h" horiz-adv-x="612" 
d="M158 451q29 32 74.5 54t96.5 22q42 0 77 -12.5t60.5 -37t39.5 -62t14 -86.5v-303q0 -12 -7.5 -21t-20.5 -9q-12 0 -21 9t-9 21v298q0 69 -34 108t-102 39q-26 0 -50.5 -7.5t-46 -20t-40 -29t-31.5 -34.5v-354q0 -12 -8.5 -21t-20.5 -9t-20.5 9t-8.5 21v651q0 13 8 21.5
t21 8.5q11 0 20 -8.5t9 -21.5v-226z" />
    <glyph glyph-name="i" unicode="i" horiz-adv-x="267" 
d="M174 653q0 -17 -12 -29t-29 -12t-28 12t-11 29t11 28.5t28 11.5t29 -11.5t12 -28.5zM133 520q12 0 21 -8.5t9 -21.5v-464q0 -13 -8.5 -21.5t-21.5 -8.5q-12 0 -20 8.5t-8 21.5v464q0 13 8 21.5t20 8.5z" />
    <glyph glyph-name="j" unicode="j" horiz-adv-x="258" 
d="M40 -191q-13 0 -21.5 8t-8.5 21q0 12 8 21q22 23 37 45t24 45.5t13 50t4 59.5v431q0 13 8 21.5t21 8.5q12 0 20.5 -8.5t8.5 -21.5v-436q0 -40 -6 -72t-17 -60t-28.5 -53t-39.5 -50q-9 -10 -23 -10zM165 653q0 -17 -11.5 -29t-28.5 -12q-18 0 -29 12t-11 29t11 28.5
t29 11.5q17 0 28.5 -11.5t11.5 -28.5z" />
    <glyph glyph-name="k" unicode="k" horiz-adv-x="522" 
d="M493 24q0 -12 -9 -20t-20 -8t-21 8l-206 209q-15 15 -28 19.5t-31 4.5h-20v-211q0 -13 -8.5 -21.5t-20.5 -8.5t-20.5 9.5t-8.5 20.5v651q0 13 8.5 22t20.5 9q13 0 21 -9t8 -22v-381h21q17 0 30 5t28 20l199 194q10 8 21 8t19.5 -8.5t8.5 -19.5q0 -12 -11 -23l-212 -203
l221 -223q10 -10 10 -22z" />
    <glyph glyph-name="l" unicode="l" horiz-adv-x="258" 
d="M129 708q12 0 20.5 -9t8.5 -22v-651q0 -12 -8.5 -21t-20.5 -9t-20.5 9t-8.5 21v651q0 13 8 22t21 9z" />
    <glyph glyph-name="m" unicode="m" horiz-adv-x="881" 
d="M789 26q0 -13 -8 -21.5t-21 -8.5q-12 0 -20.5 8.5t-8.5 21.5v313q0 132 -128 132q-46 0 -80.5 -16.5t-57.5 -35.5q5 -16 7 -34t2 -41v-318q0 -13 -8 -21.5t-21 -8.5q-12 0 -20.5 8.5t-8.5 21.5v313q0 69 -31 100.5t-100 31.5q-34 0 -68 -10t-58 -27v-408
q0 -13 -8.5 -21.5t-21.5 -8.5q-12 0 -20 8.5t-8 21.5v417q0 11 4 18t15 15q29 22 74 36.5t95 14.5q58 0 92.5 -17t57.5 -42q12 9 27.5 19t36 19t46 15t55.5 6q49 0 84 -13t57.5 -37t33 -57.5t10.5 -75.5v-318z" />
    <glyph glyph-name="n" unicode="n" horiz-adv-x="613" 
d="M521 26q0 -13 -7.5 -21.5t-21.5 -8.5q-12 0 -20.5 8.5t-8.5 21.5v298q0 38 -12 66t-32 46t-47.5 26.5t-58.5 8.5q-51 0 -92 -12.5t-63 -26.5v-406q0 -13 -8 -21.5t-21 -8.5q-12 0 -20.5 8.5t-8.5 21.5v417q0 12 3 18.5t11 11.5q10 8 28.5 17.5t44 17.5t57.5 13.5t71 5.5
q103 0 154.5 -52.5t51.5 -148.5v-300z" />
    <glyph glyph-name="o" unicode="o" horiz-adv-x="592" 
d="M296 527q45 0 83.5 -14.5t67 -40.5t46 -62t19.5 -80q2 -30 2 -69.5t-2 -69.5q-2 -43 -19.5 -80t-46 -64t-67 -42t-83.5 -15t-84 15t-67.5 42t-46 64t-19.5 80q-2 30 -2 69.5t2 69.5q2 44 19.5 80t46 62t67.5 40.5t84 14.5zM296 471q-35 0 -63 -10.5t-48.5 -29.5
t-32.5 -44.5t-14 -56.5q-1 -14 -1.5 -32.5t-0.5 -38t0.5 -38t1.5 -31.5q6 -65 48.5 -104.5t109.5 -39.5t109 39.5t48 104.5q1 13 1.5 31.5t0.5 38t-0.5 38t-1.5 32.5q-2 31 -14 56.5t-32 44.5t-48.5 29.5t-62.5 10.5z" />
    <glyph glyph-name="p" unicode="p" horiz-adv-x="602" 
d="M521 186q-7 -94 -61 -145t-157 -51q-42 0 -79.5 11.5t-64.5 23.5v-185q0 -13 -8.5 -21.5t-20.5 -8.5q-13 0 -21 8.5t-8 21.5v599q0 8 2 15t12 14q9 6 28.5 16t46 19.5t58 16.5t64.5 7q97 0 149.5 -51.5t59.5 -145.5q1 -13 1.5 -32t0.5 -39.5t-0.5 -39.5t-1.5 -33z
M461 329q-6 72 -42.5 107t-107.5 35q-21 0 -43.5 -4.5t-43.5 -11t-38.5 -14.5t-26.5 -15v-339q9 -6 24 -13t34.5 -13.5t42 -10.5t45.5 -4q77 0 114 35.5t42 104.5q1 12 1.5 30.5t0.5 38.5t-0.5 40t-1.5 34z" />
    <glyph glyph-name="q" unicode="q" horiz-adv-x="601" 
d="M81 187q-1 13 -1.5 32t-0.5 39t0.5 38.5t1.5 31.5q8 94 60 146.5t149 52.5q33 0 64.5 -7t58 -16t45.5 -19t28 -16q10 -7 12.5 -14t2.5 -15v-600q0 -13 -8.5 -21.5t-20.5 -8.5t-20.5 8.5t-8.5 21.5v185q-28 -12 -67 -23.5t-83 -11.5q-97 0 -150.5 51t-61.5 146zM139 327
q-2 -14 -2 -33.5v-39.5t0.5 -38.5t1.5 -30.5q5 -69 41.5 -104t110.5 -35q24 0 47 4t43.5 9.5t36.5 12.5t25 13v341q-9 7 -26.5 15t-38.5 14.5t-44 11t-44 4.5q-139 0 -151 -144z" />
    <glyph glyph-name="r" unicode="r" horiz-adv-x="368" 
d="M335 517q24 -7 24 -29q0 -9 -7 -17.5t-24 -8.5q-16 0 -32 4.5t-43 4.5q-51 0 -75.5 -23.5t-24.5 -76.5v-344q0 -13 -8 -22t-21 -9q-12 0 -20.5 9t-8.5 22v347q0 72 40.5 112.5t116.5 40.5q26 0 48 -3t35 -7z" />
    <glyph glyph-name="s" unicode="s" horiz-adv-x="481" 
d="M294 284q69 -19 102 -52.5t33 -85.5q0 -35 -12.5 -64t-36 -49.5t-56.5 -31.5t-73 -11q-57 0 -100 13t-80 44q-9 8 -11.5 20.5t4.5 22.5t19.5 11.5t23.5 -6.5q14 -10 27 -19t29 -15.5t37 -10.5t51 -4q58 0 89 27.5t31 69.5q0 31 -20 50.5t-68 31.5l-79 19
q-131 32 -131 135q0 69 48.5 108.5t129.5 39.5q43 0 79 -12.5t57 -28.5q12 -9 13 -22t-7 -22q-8 -8 -19.5 -9t-22.5 6q-26 16 -49 24t-51 8q-59 0 -89.5 -22.5t-30.5 -67.5q0 -27 18 -46.5t68 -32.5q27 -7 49 -11.5t28 -6.5z" />
    <glyph glyph-name="t" unicode="t" horiz-adv-x="399" 
d="M332 8q-18 -7 -42.5 -12.5t-54.5 -5.5q-37 0 -63.5 12t-44 32.5t-25.5 48.5t-8 61v449q0 13 8.5 22t19.5 9q14 0 22 -9t8 -22v-86h161q12 0 21 -8t9 -21q0 -11 -9 -19t-21 -8h-161v-312q0 -39 19 -66t62 -27q28 0 49.5 7.5t38.5 12.5t28.5 -3t11.5 -22q0 -22 -29 -33z
" />
    <glyph glyph-name="u" unicode="u" horiz-adv-x="614" 
d="M92 490q0 13 8.5 21.5t21.5 8.5q11 0 19.5 -8.5t8.5 -21.5v-304q0 -65 39.5 -102.5t111.5 -37.5q54 0 91.5 13.5t62.5 29.5v401q0 13 8 21.5t21 8.5q12 0 20.5 -8.5t8.5 -21.5v-413q0 -19 -13 -27q-11 -8 -29 -18.5t-43 -19.5t-56.5 -15.5t-70.5 -6.5q-45 0 -83.5 13
t-66 38.5t-43.5 62.5t-16 85v301z" />
    <glyph glyph-name="v" unicode="v" horiz-adv-x="503" 
d="M450 520q16 0 23 -13t2 -27l-164 -440q-17 -46 -58 -46q-20 0 -35 12t-23 33l-167 441q-6 17 3 28.5t22 11.5q11 0 17.5 -5.5t9.5 -13.5l168 -448q1 -5 5 -5t5 5l163 445q4 10 10.5 16t18.5 6z" />
    <glyph glyph-name="w" unicode="w" horiz-adv-x="814" 
d="M412 465q-1 4 -5 4t-5 -4l-116 -430q-7 -25 -22 -37t-36 -12q-46 0 -59 48l-128 448q-5 16 3.5 28t22.5 12q22 0 29 -23l128 -454q2 -5 5 -5t5 5l111 424q7 28 24.5 40.5t37.5 12.5q21 0 37.5 -12.5t24.5 -41.5l112 -423q2 -5 5 -5t5 5l126 455q6 22 28 22q16 0 24 -13
t3 -27l-128 -448q-7 -24 -23 -36t-36 -12t-37 12t-23 36z" />
    <glyph glyph-name="x" unicode="x" horiz-adv-x="538" 
d="M484 24q0 -11 -7.5 -20t-20.5 -9q-17 0 -26 13l-160 210l-161 -211q-10 -12 -25 -12q-12 0 -20.5 9t-8.5 20q0 12 7 20l171 220l-160 208q-7 8 -7 20q0 11 8 19.5t20 8.5q15 0 25 -13l150 -197l148 196q11 14 26 14q12 0 20.5 -9t8.5 -20q0 -13 -7 -21l-159 -207
l171 -220q7 -8 7 -19z" />
    <glyph glyph-name="y" unicode="y" horiz-adv-x="502" 
d="M29 477q-7 16 1 29.5t24 13.5q12 0 19 -5.5t10 -13.5l171 -388q2 -4 4 -4t4 4l155 384q10 23 30 23q17 0 24.5 -14t0.5 -30l-189 -463q-14 -34 -30.5 -64t-35.5 -55t-38 -44t-37 -29q-15 -8 -30 -8q-11 0 -19.5 7.5t-8.5 20.5q0 18 19 28q34 17 66 55.5t58 106.5z" />
    <glyph glyph-name="z" unicode="z" horiz-adv-x="511" 
d="M119 56h306q13 0 20.5 -8.5t7.5 -19.5q0 -12 -7.5 -20t-20.5 -8h-306q-26 0 -41 14.5t-15 35.5q0 14 4.5 24t12.5 19l322 360h-294q-12 0 -20.5 7.5t-8.5 19.5t8 20.5t21 8.5h288q29 0 45 -15.5t16 -40.5q0 -13 -6.5 -24.5t-18.5 -25.5z" />
    <glyph glyph-name="agrave" unicode="&#xe0;" horiz-adv-x="564" 
d="M473 73q0 -8 -2.5 -14.5t-10.5 -12.5q-10 -8 -29 -17.5t-44.5 -17.5t-57.5 -14t-69 -6q-94 0 -143 44.5t-49 120.5q0 34 12.5 63.5t37 51.5t61.5 34.5t86 12.5q38 0 71.5 -5.5t78.5 -17.5v43q0 70 -33.5 100.5t-102.5 30.5q-38 0 -71.5 -9.5t-56.5 -19.5q-20 -8 -32 0.5
t-12 22.5q0 8 4 16t14 13q25 13 66.5 24t87.5 11q95 0 144.5 -42t49.5 -138v-274zM269 48q39 0 80.5 12.5t65.5 30.5v147q-44 12 -77 18.5t-69 6.5q-74 0 -108.5 -31.5t-34.5 -76.5q0 -51 34.5 -79t108.5 -28zM368 638q14 -7 14 -23q0 -11 -7.5 -18.5t-18.5 -7.5q-5 0 -8 1
t-6 3l-135 69q-5 3 -9.5 9.5t-4.5 14.5q0 11 7.5 18.5t18.5 7.5q9 0 15 -4z" />
    <glyph glyph-name="aacute" unicode="&#xe1;" horiz-adv-x="564" 
d="M473 73q0 -8 -2.5 -14.5t-10.5 -12.5q-10 -8 -29 -17.5t-44.5 -17.5t-57.5 -14t-69 -6q-94 0 -143 44.5t-49 120.5q0 34 12.5 63.5t37 51.5t61.5 34.5t86 12.5q38 0 71.5 -5.5t78.5 -17.5v43q0 70 -33.5 100.5t-102.5 30.5q-38 0 -71.5 -9.5t-56.5 -19.5q-20 -8 -32 0.5
t-12 22.5q0 8 4 16t14 13q25 13 66.5 24t87.5 11q95 0 144.5 -42t49.5 -138v-274zM269 48q39 0 80.5 12.5t65.5 30.5v147q-44 12 -77 18.5t-69 6.5q-74 0 -108.5 -31.5t-34.5 -76.5q0 -51 34.5 -79t108.5 -28zM334 708q8 4 14 4q11 0 18.5 -7.5t7.5 -18.5q0 -17 -14 -24
l-136 -70q-2 -1 -5 -2t-8 -1q-11 0 -18.5 7.5t-7.5 18.5q0 8 4.5 14t9.5 9z" />
    <glyph glyph-name="acircumflex" unicode="&#xe2;" horiz-adv-x="564" 
d="M473 73q0 -8 -2.5 -14.5t-10.5 -12.5q-10 -8 -29 -17.5t-44.5 -17.5t-57.5 -14t-69 -6q-94 0 -143 44.5t-49 120.5q0 34 12.5 63.5t37 51.5t61.5 34.5t86 12.5q38 0 71.5 -5.5t78.5 -17.5v43q0 70 -33.5 100.5t-102.5 30.5q-38 0 -71.5 -9.5t-56.5 -19.5q-20 -8 -32 0.5
t-12 22.5q0 8 4 16t14 13q25 13 66.5 24t87.5 11q95 0 144.5 -42t49.5 -138v-274zM269 48q39 0 80.5 12.5t65.5 30.5v147q-44 12 -77 18.5t-69 6.5q-74 0 -108.5 -31.5t-34.5 -76.5q0 -51 34.5 -79t108.5 -28zM397 624q11 -7 11 -22q0 -11 -6.5 -18.5t-19.5 -7.5
q-10 0 -17 6l-81 60l-81 -60q-7 -6 -18 -6q-12 0 -19 7.5t-7 18.5q0 8 3.5 13.5t8.5 8.5l87 64q11 10 26 10q12 0 25 -10z" />
    <glyph glyph-name="atilde" unicode="&#xe3;" horiz-adv-x="564" 
d="M473 73q0 -8 -2.5 -14.5t-10.5 -12.5q-10 -8 -29 -17.5t-44.5 -17.5t-57.5 -14t-69 -6q-94 0 -143 44.5t-49 120.5q0 34 12.5 63.5t37 51.5t61.5 34.5t86 12.5q38 0 71.5 -5.5t78.5 -17.5v43q0 70 -33.5 100.5t-102.5 30.5q-38 0 -71.5 -9.5t-56.5 -19.5q-20 -8 -32 0.5
t-12 22.5q0 8 4 16t14 13q25 13 66.5 24t87.5 11q95 0 144.5 -42t49.5 -138v-274zM269 48q39 0 80.5 12.5t65.5 30.5v147q-44 12 -77 18.5t-69 6.5q-74 0 -108.5 -31.5t-34.5 -76.5q0 -51 34.5 -79t108.5 -28zM337 647q9 0 15.5 4t12.5 8.5t12 8.5t14 4q13 0 20.5 -7.5
t7.5 -18.5q0 -8 -3.5 -13.5t-8.5 -9.5q-16 -14 -34 -22t-36 -8q-17 0 -31.5 5.5t-27.5 12.5t-24.5 12.5t-22.5 5.5q-9 0 -16 -4t-13 -8.5t-12 -8.5t-14 -4q-12 0 -19.5 7.5t-7.5 18.5q0 14 12 23q16 14 34 22t35 8q18 0 32 -5.5t27 -12.5t24.5 -12.5t23.5 -5.5z" />
    <glyph glyph-name="adieresis" unicode="&#xe4;" horiz-adv-x="564" 
d="M473 73q0 -8 -2.5 -14.5t-10.5 -12.5q-10 -8 -29 -17.5t-44.5 -17.5t-57.5 -14t-69 -6q-94 0 -143 44.5t-49 120.5q0 34 12.5 63.5t37 51.5t61.5 34.5t86 12.5q38 0 71.5 -5.5t78.5 -17.5v43q0 70 -33.5 100.5t-102.5 30.5q-38 0 -71.5 -9.5t-56.5 -19.5q-20 -8 -32 0.5
t-12 22.5q0 8 4 16t14 13q25 13 66.5 24t87.5 11q95 0 144.5 -42t49.5 -138v-274zM269 48q39 0 80.5 12.5t65.5 30.5v147q-44 12 -77 18.5t-69 6.5q-74 0 -108.5 -31.5t-34.5 -76.5q0 -51 34.5 -79t108.5 -28zM209 676q16 0 26.5 -11t10.5 -26q0 -16 -10.5 -26.5
t-26.5 -10.5q-15 0 -26 10.5t-11 26.5q0 15 11 26t26 11zM359 676q15 0 26 -11t11 -26q0 -16 -11 -26.5t-26 -10.5q-16 0 -26.5 10.5t-10.5 26.5q0 15 10.5 26t26.5 11z" />
    <glyph glyph-name="amacron" unicode="&#x101;" horiz-adv-x="564" 
d="M473 73q0 -8 -2.5 -14.5t-10.5 -12.5q-10 -8 -29 -17.5t-44.5 -17.5t-57.5 -14t-69 -6q-94 0 -143 44.5t-49 120.5q0 34 12.5 63.5t37 51.5t61.5 34.5t86 12.5q38 0 71.5 -5.5t78.5 -17.5v43q0 70 -33.5 100.5t-102.5 30.5q-38 0 -71.5 -9.5t-56.5 -19.5q-20 -8 -32 0.5
t-12 22.5q0 8 4 16t14 13q25 13 66.5 24t87.5 11q95 0 144.5 -42t49.5 -138v-274zM269 48q39 0 80.5 12.5t65.5 30.5v147q-44 12 -77 18.5t-69 6.5q-74 0 -108.5 -31.5t-34.5 -76.5q0 -51 34.5 -79t108.5 -28zM368 664q11 0 18.5 -7.5t7.5 -18.5t-7.5 -18t-18.5 -7h-168
q-11 0 -18 7t-7 18t7 18.5t18 7.5h168z" />
    <glyph glyph-name="abreve" unicode="&#x103;" horiz-adv-x="564" 
d="M473 73q0 -8 -2.5 -14.5t-10.5 -12.5q-10 -8 -29 -17.5t-44.5 -17.5t-57.5 -14t-69 -6q-94 0 -143 44.5t-49 120.5q0 34 12.5 63.5t37 51.5t61.5 34.5t86 12.5q38 0 71.5 -5.5t78.5 -17.5v43q0 70 -33.5 100.5t-102.5 30.5q-38 0 -71.5 -9.5t-56.5 -19.5q-20 -8 -32 0.5
t-12 22.5q0 8 4 16t14 13q25 13 66.5 24t87.5 11q95 0 144.5 -42t49.5 -138v-274zM269 48q39 0 80.5 12.5t65.5 30.5v147q-44 12 -77 18.5t-69 6.5q-74 0 -108.5 -31.5t-34.5 -76.5q0 -51 34.5 -79t108.5 -28zM285 643q22 0 38 13.5t21 33.5q3 8 10 14t17 6q11 0 19.5 -8.5
t8.5 -19.5q0 -6 -3 -15q-11 -32 -41 -55t-70 -23t-70 23t-41 55q-3 9 -3 15q0 11 8.5 19.5t19.5 8.5q10 0 17.5 -6t9.5 -14q5 -20 21 -33.5t38 -13.5z" />
    <glyph glyph-name="aring" unicode="&#xe5;" horiz-adv-x="564" 
d="M473 73q0 -8 -2.5 -14.5t-10.5 -12.5q-10 -8 -29 -17.5t-44.5 -17.5t-57.5 -14t-69 -6q-94 0 -143 44.5t-49 120.5q0 34 12.5 63.5t37 51.5t61.5 34.5t86 12.5q38 0 71.5 -5.5t78.5 -17.5v43q0 70 -33.5 100.5t-102.5 30.5q-38 0 -71.5 -9.5t-56.5 -19.5q-20 -8 -32 0.5
t-12 22.5q0 8 4 16t14 13q25 13 66.5 24t87.5 11q95 0 144.5 -42t49.5 -138v-274zM269 48q39 0 80.5 12.5t65.5 30.5v147q-44 12 -77 18.5t-69 6.5q-74 0 -108.5 -31.5t-34.5 -76.5q0 -51 34.5 -79t108.5 -28zM194 656q0 37 26 63.5t64 26.5q37 0 63.5 -26.5t26.5 -63.5
t-26.5 -63.5t-63.5 -26.5q-38 0 -64 26.5t-26 63.5zM238 656q0 -19 13 -32t33 -13q19 0 32.5 13t13.5 32q0 20 -13.5 33t-32.5 13q-20 0 -33 -13t-13 -33z" />
    <glyph glyph-name="aogonek" unicode="&#x105;" horiz-adv-x="564" 
d="M458 44q-21 -12 -41 -26.5t-35.5 -32t-25 -37t-9.5 -42.5q0 -26 16 -39t37 -13q24 0 44 15q9 7 20.5 5.5t18.5 -10.5t4.5 -20.5t-12.5 -19.5q-14 -11 -34 -17.5t-44 -6.5q-42 0 -73.5 27.5t-31.5 76.5q0 29 8 51t21 40q-14 -2 -29 -3t-32 -1q-94 0 -143 44t-49 121
q0 34 12.5 63.5t37 51.5t61.5 34.5t86 12.5q38 0 71.5 -5.5t78.5 -17.5v46q0 70 -33.5 99t-102.5 29q-38 0 -71.5 -9.5t-56.5 -19.5q-20 -8 -32 1.5t-12 23.5q0 8 4 15.5t14 12.5q12 6 31 12.5t41.5 11t46.5 7.5t46 3q82 0 132.5 -42t50.5 -137v-274q0 -8 -2 -16t-13 -14z
M126 155q0 -51 34.5 -79t108.5 -28q34 0 60.5 5t44.5 12t28 13t13 8v152q-44 13 -77 19t-69 6q-74 0 -108.5 -31.5t-34.5 -76.5z" />
    <glyph glyph-name="ae" unicode="&#xe6;" horiz-adv-x="910" 
d="M841 285q0 -24 -14 -38.5t-44 -14.5h-311v-20q0 -80 45 -123t119 -43q53 0 128 27q21 8 33 -1.5t12 -22.5q0 -8 -3.5 -14.5t-13.5 -12.5q-23 -14 -64 -23t-91 -9q-56 0 -98 17.5t-69 49.5q-12 -10 -33 -21.5t-48 -21.5t-60 -17t-69 -7q-94 0 -143 45t-49 121
q0 34 12.5 63.5t37 51.5t61.5 34.5t86 12.5q38 0 71.5 -5.5t78.5 -17.5v43q0 70 -33.5 100.5t-102.5 30.5q-38 0 -71.5 -9.5t-56.5 -19.5q-20 -8 -32 0.5t-12 22.5q0 8 4 16t14 13q25 13 66.5 24t87.5 11q73 0 114.5 -23t61.5 -62q64 85 178 85q48 0 86.5 -15.5t65.5 -43.5
t41.5 -66.5t14.5 -83.5v-33zM269 47q51 0 93.5 17t75.5 42q-12 28 -18 62t-5 70q-44 12 -77 18.5t-69 6.5q-74 0 -108.5 -31.5t-34.5 -76.5q0 -51 34.5 -79.5t108.5 -28.5zM768 288q14 0 15 14q3 39 -7 70t-30 53t-49.5 34t-65.5 12q-81 0 -121.5 -49t-37.5 -134h296z" />
    <glyph glyph-name="cacute" unicode="&#x107;" horiz-adv-x="556" 
d="M298 46q42 0 82 23t58 71q5 15 13.5 21t19.5 6t18.5 -8t7.5 -22q0 -15 -12 -40t-36.5 -49t-61.5 -41t-88 -17q-48 0 -87.5 15.5t-68 42.5t-45 64t-19.5 79q-1 15 -1.5 33t-0.5 36.5t0.5 37t1.5 33.5q2 44 19 80t46 62t68.5 40t86.5 14q51 0 88 -17t61 -40t35.5 -48
t11.5 -40t-8 -23t-20 -8q-11 0 -18.5 6t-12.5 21q-17 47 -56.5 70t-81.5 23q-35 0 -63.5 -10.5t-49.5 -29t-33.5 -44t-13.5 -56.5q-1 -14 -1.5 -32.5t-0.5 -38t0.5 -38.5t1.5 -32q5 -63 47 -103.5t113 -40.5zM362 708q8 4 14 4q11 0 18.5 -7.5t7.5 -18.5q0 -17 -14 -24
l-136 -70q-2 -1 -5 -2t-8 -1q-11 0 -18.5 7.5t-7.5 18.5q0 8 4.5 14t9.5 9z" />
    <glyph glyph-name="ccaron" unicode="&#x10d;" horiz-adv-x="556" 
d="M298 46q42 0 82 23t58 71q5 15 13.5 21t19.5 6t18.5 -8t7.5 -22q0 -15 -12 -40t-36.5 -49t-61.5 -41t-88 -17q-48 0 -87.5 15.5t-68 42.5t-45 64t-19.5 79q-1 15 -1.5 33t-0.5 36.5t0.5 37t1.5 33.5q2 44 19 80t46 62t68.5 40t86.5 14q51 0 88 -17t61 -40t35.5 -48
t11.5 -40t-8 -23t-20 -8q-11 0 -18.5 6t-12.5 21q-17 47 -56.5 70t-81.5 23q-35 0 -63.5 -10.5t-49.5 -29t-33.5 -44t-13.5 -56.5q-1 -14 -1.5 -32.5t-0.5 -38t0.5 -38.5t1.5 -32q5 -63 47 -103.5t113 -40.5zM318 599q-13 -10 -25 -10q-15 0 -26 10l-87 64q-5 3 -8.5 8.5
t-3.5 13.5q0 11 7 18.5t19 7.5q11 0 18 -6l81 -61l81 61q7 6 17 6q13 0 19.5 -7.5t6.5 -18.5q0 -15 -11 -22z" />
    <glyph glyph-name="cdotaccent" unicode="&#x10b;" horiz-adv-x="556" 
d="M298 46q42 0 82 23t58 71q5 15 13.5 21t19.5 6t18.5 -8t7.5 -22q0 -15 -12 -40t-36.5 -49t-61.5 -41t-88 -17q-48 0 -87.5 15.5t-68 42.5t-45 64t-19.5 79q-1 15 -1.5 33t-0.5 36.5t0.5 37t1.5 33.5q2 44 19 80t46 62t68.5 40t86.5 14q51 0 88 -17t61 -40t35.5 -48
t11.5 -40t-8 -23t-20 -8q-11 0 -18.5 6t-12.5 21q-17 47 -56.5 70t-81.5 23q-35 0 -63.5 -10.5t-49.5 -29t-33.5 -44t-13.5 -56.5q-1 -14 -1.5 -32.5t-0.5 -38t0.5 -38.5t1.5 -32q5 -63 47 -103.5t113 -40.5zM295 676q16 0 26.5 -11t10.5 -26q0 -16 -10.5 -26.5t-26.5 -10.5
t-26.5 10.5t-10.5 26.5q0 15 10.5 26t26.5 11z" />
    <glyph glyph-name="ccedilla" unicode="&#xe7;" horiz-adv-x="556" 
d="M263 -7q-41 5 -74 22t-56.5 43.5t-37.5 60.5t-16 72q-1 15 -1.5 33t-0.5 36.5t0.5 37t1.5 33.5q2 44 19 80t46 62t68.5 40t86.5 14q51 0 88 -17t61 -40t35.5 -48t11.5 -40q0 -31 -28 -31q-11 0 -18.5 6t-12.5 21q-17 47 -56.5 70t-81.5 23q-35 0 -63.5 -10.5t-49.5 -29
t-33.5 -44t-13.5 -56.5q0 -10 -0.5 -28.5t-1 -39t0 -40.5t1.5 -33q3 -32 15 -58t32.5 -45.5t49 -30t63.5 -10.5q42 0 81.5 23t58.5 71q5 15 13.5 21t19.5 6q10 0 18 -7.5t8 -22.5t-11 -38t-33 -46t-55.5 -41t-79.5 -21l-15 -41q35 -2 59 -24.5t24 -57.5q0 -23 -11 -41
t-28 -32.5t-38 -24.5t-42 -17q-14 -5 -26.5 1t-12.5 24q0 6 4 14t17 12q25 8 40 16t23.5 16t11.5 15.5t3 15.5q0 12 -7.5 21.5t-22.5 9.5q-11 0 -16.5 -2t-14.5 -2q-15 0 -22.5 12t-2.5 27z" />
    <glyph glyph-name="dcaron" unicode="&#x10f;" horiz-adv-x="603" 
d="M80 331q8 95 61 145.5t147 50.5q45 0 85.5 -11t69.5 -23v184q0 13 8.5 21.5t20.5 8.5t20.5 -8.5t8.5 -21.5v-599q0 -8 -2 -14.5t-11 -12.5q-8 -6 -27 -16.5t-45 -20.5t-57 -17t-64 -7q-99 0 -153 53.5t-62 147.5q-1 13 -1.5 31.5t-0.5 38.5t0.5 38.5t1.5 31.5zM139 189
q8 -72 46 -107.5t111 -35.5q20 0 42 4.5t42.5 11t37 14.5t25.5 15v341q-20 12 -63.5 25.5t-94.5 13.5q-71 0 -105 -35t-41 -104q-1 -12 -2 -30.5t-1 -39t0.5 -40t2.5 -33.5zM622 571q-11 -20 -30 -20q-14 0 -20.5 8t-6.5 20q0 8 4 15.5t8.5 17t8.5 22t4 30.5v18q0 14 7.5 23
t20.5 9t21.5 -9t8.5 -23v-18q0 -18 -5.5 -43t-20.5 -50z" />
    <glyph glyph-name="dcroat" unicode="&#x111;" horiz-adv-x="602" 
d="M81 331q8 95 60.5 145.5t146.5 50.5q45 0 85 -11t69 -23v93h-94q-12 0 -20.5 8t-8.5 19q0 13 8.5 20.5t20.5 7.5h94v28q0 15 9.5 24.5t20.5 9.5t20 -9.5t9 -24.5v-28h42q13 0 21 -8t8 -20q0 -10 -8.5 -18.5t-20.5 -8.5h-42v-508q0 -8 -2 -14.5t-11 -12.5q-8 -6 -27 -16.5
t-45.5 -20.5t-57.5 -17t-63 -7q-99 0 -152.5 53.5t-61.5 147.5q-1 13 -1.5 31.5t-0.5 38.5t0.5 38.5t1.5 31.5zM139 189q12 -144 157 -144q20 0 42 4.5t42 11t36.5 14.5t25.5 15v342q-20 12 -63 25.5t-94 13.5q-137 0 -146 -138q-1 -12 -1.5 -31t-0.5 -39.5v-40t2 -33.5z
" />
    <glyph glyph-name="egrave" unicode="&#xe8;" horiz-adv-x="574" 
d="M506 285q0 -24 -14 -38.5t-44 -14.5h-311v-20q0 -80 45 -123t119 -43q54 0 128 27q21 8 33 -1.5t12 -22.5q0 -7 -3.5 -14t-13.5 -13q-23 -14 -64 -23t-91 -9q-53 0 -93 16t-68 44.5t-43 68.5t-18 89q-2 27 -1.5 60t2.5 56q3 48 20.5 85.5t46 63.5t66.5 40t83 14
q49 0 87.5 -15.5t65.5 -43.5t41.5 -66.5t14.5 -83.5v-33zM433 288q14 0 15 14q3 39 -7 70t-30 53t-49.5 34t-65.5 12q-81 0 -121 -48.5t-38 -134.5h296zM365 638q14 -7 14 -23q0 -11 -7.5 -18.5t-18.5 -7.5q-5 0 -8 1t-6 3l-135 69q-5 3 -9.5 9.5t-4.5 14.5q0 11 7.5 18.5
t18.5 7.5q9 0 15 -4z" />
    <glyph glyph-name="eacute" unicode="&#xe9;" horiz-adv-x="574" 
d="M506 285q0 -24 -14 -38.5t-44 -14.5h-311v-20q0 -80 45 -123t119 -43q54 0 128 27q21 8 33 -1.5t12 -22.5q0 -7 -3.5 -14t-13.5 -13q-23 -14 -64 -23t-91 -9q-53 0 -93 16t-68 44.5t-43 68.5t-18 89q-2 27 -1.5 60t2.5 56q3 48 20.5 85.5t46 63.5t66.5 40t83 14
q49 0 87.5 -15.5t65.5 -43.5t41.5 -66.5t14.5 -83.5v-33zM433 288q14 0 15 14q3 39 -7 70t-30 53t-49.5 34t-65.5 12q-81 0 -121 -48.5t-38 -134.5h296zM359 708q8 4 14 4q11 0 18.5 -7.5t7.5 -18.5q0 -17 -14 -24l-136 -70q-2 -1 -5 -2t-8 -1q-11 0 -18.5 7.5t-7.5 18.5
q0 8 4.5 14t9.5 9z" />
    <glyph glyph-name="ecircumflex" unicode="&#xea;" horiz-adv-x="574" 
d="M506 285q0 -24 -14 -38.5t-44 -14.5h-311v-20q0 -80 45 -123t119 -43q54 0 128 27q21 8 33 -1.5t12 -22.5q0 -7 -3.5 -14t-13.5 -13q-23 -14 -64 -23t-91 -9q-53 0 -93 16t-68 44.5t-43 68.5t-18 89q-2 27 -1.5 60t2.5 56q3 48 20.5 85.5t46 63.5t66.5 40t83 14
q49 0 87.5 -15.5t65.5 -43.5t41.5 -66.5t14.5 -83.5v-33zM433 288q14 0 15 14q3 39 -7 70t-30 53t-49.5 34t-65.5 12q-81 0 -121 -48.5t-38 -134.5h296zM399 637q11 -7 11 -22q0 -11 -6.5 -18.5t-19.5 -7.5q-10 0 -17 6l-81 60l-81 -60q-7 -6 -18 -6q-12 0 -19 7.5t-7 18.5
q0 8 3.5 13.5t8.5 8.5l87 64q11 10 26 10q12 0 25 -10z" />
    <glyph glyph-name="ecaron" unicode="&#x11b;" horiz-adv-x="574" 
d="M506 285q0 -24 -14 -38.5t-44 -14.5h-311v-20q0 -80 45 -123t119 -43q54 0 128 27q21 8 33 -1.5t12 -22.5q0 -7 -3.5 -14t-13.5 -13q-23 -14 -64 -23t-91 -9q-53 0 -93 16t-68 44.5t-43 68.5t-18 89q-2 27 -1.5 60t2.5 56q3 48 20.5 85.5t46 63.5t66.5 40t83 14
q49 0 87.5 -15.5t65.5 -43.5t41.5 -66.5t14.5 -83.5v-33zM433 288q14 0 15 14q3 39 -7 70t-30 53t-49.5 34t-65.5 12q-81 0 -121 -48.5t-38 -134.5h296zM311 598q-13 -10 -25 -10q-15 0 -26 10l-87 64q-5 3 -8.5 8.5t-3.5 13.5q0 11 7 18.5t19 7.5q11 0 18 -6l81 -61l81 61
q7 6 17 6q13 0 19.5 -7.5t6.5 -18.5q0 -15 -11 -22z" />
    <glyph glyph-name="edieresis" unicode="&#xeb;" horiz-adv-x="574" 
d="M506 285q0 -24 -14 -38.5t-44 -14.5h-311v-20q0 -80 45 -123t119 -43q54 0 128 27q21 8 33 -1.5t12 -22.5q0 -7 -3.5 -14t-13.5 -13q-23 -14 -64 -23t-91 -9q-53 0 -93 16t-68 44.5t-43 68.5t-18 89q-2 27 -1.5 60t2.5 56q3 48 20.5 85.5t46 63.5t66.5 40t83 14
q49 0 87.5 -15.5t65.5 -43.5t41.5 -66.5t14.5 -83.5v-33zM433 288q14 0 15 14q3 39 -7 70t-30 53t-49.5 34t-65.5 12q-81 0 -121 -48.5t-38 -134.5h296zM218 676q16 0 26.5 -11t10.5 -26q0 -16 -10.5 -26.5t-26.5 -10.5q-15 0 -26 10.5t-11 26.5q0 15 11 26t26 11zM368 676
q15 0 26 -11t11 -26q0 -16 -11 -26.5t-26 -10.5q-16 0 -26.5 10.5t-10.5 26.5q0 15 10.5 26t26.5 11z" />
    <glyph glyph-name="emacron" unicode="&#x113;" horiz-adv-x="574" 
d="M506 285q0 -24 -14 -38.5t-44 -14.5h-311v-20q0 -80 45 -123t119 -43q54 0 128 27q21 8 33 -1.5t12 -22.5q0 -7 -3.5 -14t-13.5 -13q-23 -14 -64 -23t-91 -9q-53 0 -93 16t-68 44.5t-43 68.5t-18 89q-2 27 -1.5 60t2.5 56q3 48 20.5 85.5t46 63.5t66.5 40t83 14
q49 0 87.5 -15.5t65.5 -43.5t41.5 -66.5t14.5 -83.5v-33zM433 288q14 0 15 14q3 39 -7 70t-30 53t-49.5 34t-65.5 12q-81 0 -121 -48.5t-38 -134.5h296zM371 665q11 0 18.5 -7.5t7.5 -18.5t-7.5 -18t-18.5 -7h-168q-11 0 -18 7t-7 18t7 18.5t18 7.5h168z" />
    <glyph glyph-name="edotaccent" unicode="&#x117;" horiz-adv-x="574" 
d="M506 285q0 -24 -14 -38.5t-44 -14.5h-311v-20q0 -80 45 -123t119 -43q54 0 128 27q21 8 33 -1.5t12 -22.5q0 -7 -3.5 -14t-13.5 -13q-23 -14 -64 -23t-91 -9q-53 0 -93 16t-68 44.5t-43 68.5t-18 89q-2 27 -1.5 60t2.5 56q3 48 20.5 85.5t46 63.5t66.5 40t83 14
q49 0 87.5 -15.5t65.5 -43.5t41.5 -66.5t14.5 -83.5v-33zM433 288q14 0 15 14q3 39 -7 70t-30 53t-49.5 34t-65.5 12q-81 0 -121 -48.5t-38 -134.5h296zM287 675q16 0 26.5 -11t10.5 -26q0 -16 -10.5 -26.5t-26.5 -10.5t-26.5 10.5t-10.5 26.5q0 15 10.5 26t26.5 11z" />
    <glyph glyph-name="eogonek" unicode="&#x119;" horiz-adv-x="574" 
d="M450 18q-51 -22 -83 -52t-32 -67q0 -22 15 -34t35 -12q11 0 22 5t19 10q11 8 22.5 7.5t19.5 -11.5q8 -12 3 -23.5t-18.5 -20.5t-32.5 -14.5t-39 -5.5q-43 0 -73 27t-30 69q0 28 12.5 52t35.5 44q-58 -5 -102.5 9t-75.5 43t-48 71t-20 93q-2 27 -1.5 60t2.5 56
q3 48 20.5 85.5t46 63.5t67 40t83.5 14q48 0 86.5 -15.5t65.5 -43.5t41.5 -66.5t14.5 -83.5v-33q0 -24 -14 -38.5t-43 -14.5h-312v-20q0 -78 44 -122t118 -44q56 0 130 27q22 8 33.5 -1.5t11.5 -22.5q0 -8 -4 -16t-20 -15zM433 288q14 0 15 14q3 39 -7 70.5t-30 53
t-49.5 33.5t-65.5 12q-81 0 -121 -48.5t-38 -134.5h296z" />
    <glyph glyph-name="gbreve" unicode="&#x11f;" horiz-adv-x="600" 
d="M499 39q0 -52 -15 -93.5t-42.5 -70t-65.5 -44t-84 -15.5q-61 0 -102.5 13.5t-69.5 30.5q-10 6 -16.5 14t-6.5 20q0 11 8 19.5t21 8.5q8 0 16 -4t17 -9q59 -36 133 -36q30 0 57 10t47.5 30.5t32.5 50.5t12 71v6q-31 -15 -67 -27.5t-86 -12.5q-97 0 -149 53.5t-60 147.5
q-1 13 -1.5 29.5t-0.5 33.5t0.5 33.5t1.5 29.5q8 98 63 148.5t151 50.5q34 0 65 -5.5t56.5 -14t44 -17.5t27.5 -15q6 -5 9.5 -10.5t3.5 -19.5v-406zM293 471q-41 0 -69 -11t-46.5 -30t-27.5 -45t-12 -57q-1 -13 -1.5 -30.5t-0.5 -35.5t0.5 -34t1.5 -26q5 -71 42 -107
t113 -36q58 0 95 16.5t53 29.5v328l-11.5 6t-31 13t-46.5 13t-59 6zM299 643q22 0 38 13.5t21 33.5q3 8 10 14t17 6q11 0 19.5 -8.5t8.5 -19.5q0 -6 -3 -15q-11 -32 -41 -55t-70 -23t-70 23t-41 55q-3 9 -3 15q0 11 8.5 19.5t19.5 8.5q10 0 17.5 -6t9.5 -14q5 -20 21 -33.5
t38 -13.5z" />
    <glyph glyph-name="gdotaccent" unicode="&#x121;" horiz-adv-x="600" 
d="M499 39q0 -52 -15 -93.5t-42.5 -70t-65.5 -44t-84 -15.5q-61 0 -102.5 13.5t-69.5 30.5q-10 6 -16.5 14t-6.5 20q0 11 8 19.5t21 8.5q8 0 16 -4t17 -9q59 -36 133 -36q30 0 57 10t47.5 30.5t32.5 50.5t12 71v6q-31 -15 -67 -27.5t-86 -12.5q-97 0 -149 53.5t-60 147.5
q-1 13 -1.5 29.5t-0.5 33.5t0.5 33.5t1.5 29.5q8 98 63 148.5t151 50.5q34 0 65 -5.5t56.5 -14t44 -17.5t27.5 -15q6 -5 9.5 -10.5t3.5 -19.5v-406zM293 471q-41 0 -69 -11t-46.5 -30t-27.5 -45t-12 -57q-1 -13 -1.5 -30.5t-0.5 -35.5t0.5 -34t1.5 -26q5 -71 42 -107
t113 -36q58 0 95 16.5t53 29.5v328l-11.5 6t-31 13t-46.5 13t-59 6zM299 676q16 0 26.5 -11t10.5 -26q0 -16 -10.5 -26.5t-26.5 -10.5t-26.5 10.5t-10.5 26.5q0 15 10.5 26t26.5 11z" />
    <glyph glyph-name="gcommaaccent" unicode="&#x123;" horiz-adv-x="600" 
d="M499 39q0 -52 -15 -93.5t-42.5 -70t-65.5 -44t-84 -15.5q-61 0 -102.5 13.5t-69.5 30.5q-10 6 -16.5 14t-6.5 20q0 11 8 19.5t21 8.5q8 0 16 -4t17 -9q59 -36 133 -36q30 0 57 10t47.5 30.5t32.5 50.5t12 71v6q-31 -15 -67 -27.5t-86 -12.5q-97 0 -149 53.5t-60 147.5
q-1 13 -1.5 29.5t-0.5 33.5t0.5 33.5t1.5 29.5q8 98 63 148.5t151 50.5q34 0 65 -5.5t56.5 -14t44 -17.5t27.5 -15q6 -5 9.5 -10.5t3.5 -19.5v-406zM293 471q-41 0 -69 -11t-46.5 -30t-27.5 -45t-12 -57q-1 -13 -1.5 -30.5t-0.5 -35.5t0.5 -34t1.5 -26q5 -71 42 -107
t113 -36q58 0 95 16.5t53 29.5v328l-11.5 6t-31 13t-46.5 13t-59 6zM316 570q-10 -15 -26 -15q-9 0 -17 6.5t-8 20.5q0 9 3.5 16l8 16t8 21.5t3.5 32.5v56q0 13 8.5 21t19.5 8t19.5 -8t8.5 -22v-43q0 -37 -7.5 -63t-20.5 -47z" />
    <glyph glyph-name="igrave" unicode="&#xec;" horiz-adv-x="267" 
d="M191 638q14 -7 14 -23q0 -11 -7.5 -18.5t-18.5 -7.5q-5 0 -8 1t-6 3l-135 69q-5 3 -9.5 9.5t-4.5 14.5q0 11 7.5 18.5t18.5 7.5q9 0 15 -4zM135 520q11 0 20 -8.5t9 -21.5v-464q0 -12 -8.5 -21t-20.5 -9t-20.5 9t-8.5 21v464q0 13 8 21.5t21 8.5z" />
    <glyph glyph-name="iacute" unicode="&#xed;" horiz-adv-x="267" 
d="M218 708q8 4 14 4q11 0 18.5 -7.5t7.5 -18.5q0 -17 -14 -24l-136 -70q-2 -1 -5 -2t-8 -1q-11 0 -18.5 7.5t-7.5 18.5q0 8 4.5 14t9.5 9zM135 520q11 0 20 -8.5t9 -21.5v-464q0 -12 -8.5 -21t-20.5 -9t-20.5 9t-8.5 21v464q0 13 8 21.5t21 8.5z" />
    <glyph glyph-name="icircumflex" unicode="&#xee;" horiz-adv-x="267" 
d="M135 520q11 0 20 -8.5t9 -21.5v-464q0 -12 -8.5 -21t-20.5 -9t-20.5 9t-8.5 21v464q0 13 8 21.5t21 8.5zM253 637q11 -7 11 -22q0 -11 -6.5 -18.5t-19.5 -7.5q-10 0 -17 6l-81 60l-81 -60q-7 -6 -18 -6q-12 0 -19 7.5t-7 18.5q0 8 3.5 13.5t8.5 8.5l87 64q11 10 26 10
q12 0 25 -10z" />
    <glyph glyph-name="idieresis" unicode="&#xef;" horiz-adv-x="267" 
d="M65 676q16 0 26.5 -11t10.5 -26q0 -16 -10.5 -26.5t-26.5 -10.5q-15 0 -26 10.5t-11 26.5q0 15 11 26t26 11zM215 676q15 0 26 -11t11 -26q0 -16 -11 -26.5t-26 -10.5q-16 0 -26.5 10.5t-10.5 26.5q0 15 10.5 26t26.5 11zM135 520q11 0 20 -8.5t9 -21.5v-464
q0 -12 -8.5 -21t-20.5 -9t-20.5 9t-8.5 21v464q0 13 8 21.5t21 8.5z" />
    <glyph glyph-name="imacron" unicode="&#x12b;" horiz-adv-x="267" 
d="M219 665q11 0 18.5 -7.5t7.5 -18.5t-7.5 -18t-18.5 -7h-168q-11 0 -18 7t-7 18t7 18.5t18 7.5h168zM135 520q11 0 20 -8.5t9 -21.5v-464q0 -12 -8.5 -21t-20.5 -9t-20.5 9t-8.5 21v464q0 13 8 21.5t21 8.5z" />
    <glyph glyph-name="iogonek" unicode="&#x12f;" horiz-adv-x="267" 
d="M146 -1q-45 -23 -62.5 -47t-17.5 -47q0 -26 16.5 -38.5t36.5 -12.5q12 0 22 4t20 12q9 7 20 5t18 -11q9 -12 4.5 -23.5t-18 -20.5t-32 -14.5t-37.5 -5.5q-42 0 -73.5 27.5t-31.5 76.5q0 38 22.5 72t70.5 61l1.5 1.5t0.5 6.5v441q0 12 8.5 21t20.5 9q11 0 20 -8.5t9 -20.5
v-456q0 -14 -6 -21.5t-12 -10.5zM175 653q0 -17 -11.5 -29t-28.5 -12q-18 0 -29.5 12t-11.5 29t11.5 28.5t29.5 11.5q17 0 28.5 -11.5t11.5 -28.5z" />
    <glyph glyph-name="dotlessi" unicode="&#x131;" horiz-adv-x="258" 
d="M129 520q11 0 20 -8.5t9 -21.5v-464q0 -12 -8.5 -21t-20.5 -9t-20.5 9t-8.5 21v464q0 13 8 21.5t21 8.5z" />
    <glyph glyph-name="kcommaaccent" unicode="&#x137;" horiz-adv-x="519" 
d="M494 24q0 -12 -9 -20t-20 -8t-21 8l-206 209q-15 15 -28 19.5t-31 4.5h-20v-211q0 -13 -8.5 -21.5t-20.5 -8.5t-20.5 9.5t-8.5 20.5v651q0 13 8.5 22t20.5 9q13 0 21 -9t8 -22v-381h21q17 0 30 5t28 20l199 194q10 8 21 8t19.5 -8.5t8.5 -19.5q0 -12 -11 -23l-212 -203
l221 -223q10 -10 10 -22zM282 -269q-10 -15 -26 -15q-9 0 -17 6.5t-8 20.5q0 9 3.5 16l8 16t8 21.5t3.5 32.5v56q0 13 8.5 21t19.5 8t19.5 -8t8.5 -22v-43q0 -37 -7.5 -63t-20.5 -47z" />
    <glyph glyph-name="lacute" unicode="&#x13a;" horiz-adv-x="267" 
d="M134 708q12 0 20.5 -9t8.5 -22v-651q0 -12 -8.5 -21t-20.5 -9t-20.5 9t-8.5 21v651q0 13 8 22t21 9zM188 872q8 4 14 4q11 0 18.5 -7.5t7.5 -18.5q0 -17 -14 -24l-136 -70q-2 -1 -5 -2t-8 -1q-11 0 -18.5 7.5t-7.5 18.5q0 8 4.5 14t9.5 9z" />
    <glyph glyph-name="lcaron" unicode="&#x13e;" horiz-adv-x="276" 
d="M130 708q12 0 20.5 -9t8.5 -22v-651q0 -12 -8.5 -21t-20.5 -9t-20.5 9t-8.5 21v651q0 13 8 22t21 9zM295 571q-11 -20 -30 -20q-14 0 -20.5 8t-6.5 20q0 8 4 15.5t8.5 17t8.5 22t4 30.5v18q0 14 7.5 23t20.5 9t21.5 -9t8.5 -23v-18q0 -18 -5.5 -43t-20.5 -50z" />
    <glyph glyph-name="lcommaaccent" unicode="&#x13c;" horiz-adv-x="294" 
d="M161 708q12 0 20.5 -9t8.5 -22v-651q0 -12 -8.5 -21t-20.5 -9t-20.5 9t-8.5 21v651q0 13 8 22t21 9zM159 -213q-10 -15 -26 -15q-9 0 -17 6.5t-8 20.5q0 9 3.5 16l8 16t8 21.5t3.5 32.5v56q0 13 8.5 21t19.5 8t19.5 -8t8.5 -22v-43q0 -37 -7.5 -63t-20.5 -47z" />
    <glyph glyph-name="lslash" unicode="&#x142;" horiz-adv-x="306" 
d="M155 708q12 0 20.5 -9t8.5 -22v-260l53 34q11 7 23 4.5t19 -12.5t4 -22.5t-14 -19.5l-85 -55v-320q0 -12 -8 -21t-21 -9q-12 0 -20.5 9t-8.5 21v282l-52 -34q-10 -7 -23 -4.5t-20 13.5t-4.5 22.5t13.5 19.5l86 55v297q0 13 8.5 22t20.5 9z" />
    <glyph glyph-name="nacute" unicode="&#x144;" horiz-adv-x="615" 
d="M522 26q0 -13 -7.5 -21.5t-21.5 -8.5q-12 0 -20.5 8.5t-8.5 21.5v298q0 38 -12 66t-32 46t-47.5 26.5t-58.5 8.5q-51 0 -92 -12.5t-63 -26.5v-406q0 -13 -8 -21.5t-21 -8.5q-12 0 -20.5 8.5t-8.5 21.5v417q0 12 3 18.5t11 11.5q10 8 28.5 17.5t44 17.5t57.5 13.5t71 5.5
q103 0 154.5 -52.5t51.5 -148.5v-300zM355 708q8 4 14 4q11 0 18.5 -7.5t7.5 -18.5q0 -17 -14 -24l-136 -70q-2 -1 -5 -2t-8 -1q-11 0 -18.5 7.5t-7.5 18.5q0 8 4.5 14t9.5 9z" />
    <glyph glyph-name="ncaron" unicode="&#x148;" horiz-adv-x="615" 
d="M522 26q0 -13 -7.5 -21.5t-21.5 -8.5q-12 0 -20.5 8.5t-8.5 21.5v298q0 38 -12 66t-32 46t-47.5 26.5t-58.5 8.5q-51 0 -92 -12.5t-63 -26.5v-406q0 -13 -8 -21.5t-21 -8.5q-12 0 -20.5 8.5t-8.5 21.5v417q0 12 3 18.5t11 11.5q10 8 28.5 17.5t44 17.5t57.5 13.5t71 5.5
q103 0 154.5 -52.5t51.5 -148.5v-300zM332 599q-13 -10 -25 -10q-15 0 -26 10l-87 64q-5 3 -8.5 8.5t-3.5 13.5q0 11 7 18.5t19 7.5q11 0 18 -6l81 -61l81 61q7 6 17 6q13 0 19.5 -7.5t6.5 -18.5q0 -15 -11 -22z" />
    <glyph glyph-name="ntilde" unicode="&#xf1;" horiz-adv-x="615" 
d="M522 26q0 -13 -7.5 -21.5t-21.5 -8.5q-12 0 -20.5 8.5t-8.5 21.5v298q0 38 -12 66t-32 46t-47.5 26.5t-58.5 8.5q-51 0 -92 -12.5t-63 -26.5v-406q0 -13 -8 -21.5t-21 -8.5q-12 0 -20.5 8.5t-8.5 21.5v417q0 12 3 18.5t11 11.5q10 8 28.5 17.5t44 17.5t57.5 13.5t71 5.5
q103 0 154.5 -52.5t51.5 -148.5v-300zM360 647q9 0 15.5 4t12.5 8.5t12 8.5t14 4q13 0 20.5 -7.5t7.5 -18.5q0 -8 -3.5 -13.5t-8.5 -9.5q-16 -14 -34 -22t-36 -8q-17 0 -31.5 5.5t-27.5 12.5t-24.5 12.5t-22.5 5.5q-9 0 -16 -4t-13 -8.5t-12 -8.5t-14 -4q-12 0 -19.5 7.5
t-7.5 18.5q0 14 12 23q16 14 34 22t35 8q18 0 32 -5.5t27 -12.5t24.5 -12.5t23.5 -5.5z" />
    <glyph glyph-name="ncommaaccent" unicode="&#x146;" horiz-adv-x="615" 
d="M522 26q0 -13 -7.5 -21.5t-21.5 -8.5q-12 0 -20.5 8.5t-8.5 21.5v298q0 38 -12 66t-32 46t-47.5 26.5t-58.5 8.5q-51 0 -92 -12.5t-63 -26.5v-406q0 -13 -8 -21.5t-21 -8.5q-12 0 -20.5 8.5t-8.5 21.5v417q0 12 3 18.5t11 11.5q10 8 28.5 17.5t44 17.5t57.5 13.5t71 5.5
q103 0 154.5 -52.5t51.5 -148.5v-300zM309 -269q-10 -15 -26 -15q-9 0 -17 6.5t-8 20.5q0 9 3.5 16l8 16t8 21.5t3.5 32.5v56q0 13 8.5 21t19.5 8t19.5 -8t8.5 -22v-43q0 -37 -7.5 -63t-20.5 -47z" />
    <glyph glyph-name="ograve" unicode="&#xf2;" horiz-adv-x="592" 
d="M296 527q45 0 83.5 -14.5t67 -40.5t46 -62t19.5 -80q2 -30 2 -69.5t-2 -69.5q-2 -43 -19.5 -80t-46 -64t-67 -42t-83.5 -15t-84 15t-67.5 42t-46 64t-19.5 80q-2 30 -2 69.5t2 69.5q2 44 19.5 80t46 62t67.5 40.5t84 14.5zM296 471q-35 0 -63 -10.5t-48.5 -29.5
t-32.5 -44.5t-14 -56.5q-1 -14 -1.5 -32.5t-0.5 -38t0.5 -38t1.5 -31.5q6 -65 48.5 -104.5t109.5 -39.5t109 39.5t48 104.5q1 13 1.5 31.5t0.5 38t-0.5 38t-1.5 32.5q-2 31 -14 56.5t-32 44.5t-48.5 29.5t-62.5 10.5zM380 638q14 -7 14 -23q0 -11 -7.5 -18.5t-18.5 -7.5
q-5 0 -8 1t-6 3l-135 69q-5 3 -9.5 9.5t-4.5 14.5q0 11 7.5 18.5t18.5 7.5q9 0 15 -4z" />
    <glyph glyph-name="oacute" unicode="&#xf3;" horiz-adv-x="592" 
d="M296 527q45 0 83.5 -14.5t67 -40.5t46 -62t19.5 -80q2 -30 2 -69.5t-2 -69.5q-2 -43 -19.5 -80t-46 -64t-67 -42t-83.5 -15t-84 15t-67.5 42t-46 64t-19.5 80q-2 30 -2 69.5t2 69.5q2 44 19.5 80t46 62t67.5 40.5t84 14.5zM296 471q-35 0 -63 -10.5t-48.5 -29.5
t-32.5 -44.5t-14 -56.5q-1 -14 -1.5 -32.5t-0.5 -38t0.5 -38t1.5 -31.5q6 -65 48.5 -104.5t109.5 -39.5t109 39.5t48 104.5q1 13 1.5 31.5t0.5 38t-0.5 38t-1.5 32.5q-2 31 -14 56.5t-32 44.5t-48.5 29.5t-62.5 10.5zM347 708q8 4 14 4q11 0 18.5 -7.5t7.5 -18.5
q0 -17 -14 -24l-136 -70q-2 -1 -5 -2t-8 -1q-11 0 -18.5 7.5t-7.5 18.5q0 8 4.5 14t9.5 9z" />
    <glyph glyph-name="ocircumflex" unicode="&#xf4;" horiz-adv-x="592" 
d="M296 527q45 0 83.5 -14.5t67 -40.5t46 -62t19.5 -80q2 -30 2 -69.5t-2 -69.5q-2 -43 -19.5 -80t-46 -64t-67 -42t-83.5 -15t-84 15t-67.5 42t-46 64t-19.5 80q-2 30 -2 69.5t2 69.5q2 44 19.5 80t46 62t67.5 40.5t84 14.5zM296 471q-35 0 -63 -10.5t-48.5 -29.5
t-32.5 -44.5t-14 -56.5q-1 -14 -1.5 -32.5t-0.5 -38t0.5 -38t1.5 -31.5q6 -65 48.5 -104.5t109.5 -39.5t109 39.5t48 104.5q1 13 1.5 31.5t0.5 38t-0.5 38t-1.5 32.5q-2 31 -14 56.5t-32 44.5t-48.5 29.5t-62.5 10.5zM409 636q11 -7 11 -22q0 -11 -6.5 -18.5t-19.5 -7.5
q-10 0 -17 6l-81 60l-81 -60q-7 -6 -18 -6q-12 0 -19 7.5t-7 18.5q0 8 3.5 13.5t8.5 8.5l87 64q11 10 26 10q12 0 25 -10z" />
    <glyph glyph-name="otilde" unicode="&#xf5;" horiz-adv-x="592" 
d="M296 527q45 0 83.5 -14.5t67 -40.5t46 -62t19.5 -80q2 -30 2 -69.5t-2 -69.5q-2 -43 -19.5 -80t-46 -64t-67 -42t-83.5 -15t-84 15t-67.5 42t-46 64t-19.5 80q-2 30 -2 69.5t2 69.5q2 44 19.5 80t46 62t67.5 40.5t84 14.5zM296 471q-35 0 -63 -10.5t-48.5 -29.5
t-32.5 -44.5t-14 -56.5q-1 -14 -1.5 -32.5t-0.5 -38t0.5 -38t1.5 -31.5q6 -65 48.5 -104.5t109.5 -39.5t109 39.5t48 104.5q1 13 1.5 31.5t0.5 38t-0.5 38t-1.5 32.5q-2 31 -14 56.5t-32 44.5t-48.5 29.5t-62.5 10.5zM349 647q9 0 15.5 4t12.5 8.5t12 8.5t14 4
q13 0 20.5 -7.5t7.5 -18.5q0 -8 -3.5 -13.5t-8.5 -9.5q-16 -14 -34 -22t-36 -8q-17 0 -31.5 5.5t-27.5 12.5t-24.5 12.5t-22.5 5.5q-9 0 -16 -4t-13 -8.5t-12 -8.5t-14 -4q-12 0 -19.5 7.5t-7.5 18.5q0 14 12 23q16 14 34 22t35 8q18 0 32 -5.5t27 -12.5t24.5 -12.5
t23.5 -5.5z" />
    <glyph glyph-name="odieresis" unicode="&#xf6;" horiz-adv-x="592" 
d="M296 527q45 0 83.5 -14.5t67 -40.5t46 -62t19.5 -80q2 -30 2 -69.5t-2 -69.5q-2 -43 -19.5 -80t-46 -64t-67 -42t-83.5 -15t-84 15t-67.5 42t-46 64t-19.5 80q-2 30 -2 69.5t2 69.5q2 44 19.5 80t46 62t67.5 40.5t84 14.5zM296 471q-35 0 -63 -10.5t-48.5 -29.5
t-32.5 -44.5t-14 -56.5q-1 -14 -1.5 -32.5t-0.5 -38t0.5 -38t1.5 -31.5q6 -65 48.5 -104.5t109.5 -39.5t109 39.5t48 104.5q1 13 1.5 31.5t0.5 38t-0.5 38t-1.5 32.5q-2 31 -14 56.5t-32 44.5t-48.5 29.5t-62.5 10.5zM221 676q16 0 26.5 -11t10.5 -26q0 -16 -10.5 -26.5
t-26.5 -10.5q-15 0 -26 10.5t-11 26.5q0 15 11 26t26 11zM371 676q15 0 26 -11t11 -26q0 -16 -11 -26.5t-26 -10.5q-16 0 -26.5 10.5t-10.5 26.5q0 15 10.5 26t26.5 11z" />
    <glyph glyph-name="omacron" unicode="&#x14d;" horiz-adv-x="592" 
d="M296 527q45 0 83.5 -14.5t67 -40.5t46 -62t19.5 -80q2 -30 2 -69.5t-2 -69.5q-2 -43 -19.5 -80t-46 -64t-67 -42t-83.5 -15t-84 15t-67.5 42t-46 64t-19.5 80q-2 30 -2 69.5t2 69.5q2 44 19.5 80t46 62t67.5 40.5t84 14.5zM296 471q-35 0 -63 -10.5t-48.5 -29.5
t-32.5 -44.5t-14 -56.5q-1 -14 -1.5 -32.5t-0.5 -38t0.5 -38t1.5 -31.5q6 -65 48.5 -104.5t109.5 -39.5t109 39.5t48 104.5q1 13 1.5 31.5t0.5 38t-0.5 38t-1.5 32.5q-2 31 -14 56.5t-32 44.5t-48.5 29.5t-62.5 10.5zM380 665q11 0 18.5 -7.5t7.5 -18.5t-7.5 -18t-18.5 -7
h-168q-11 0 -18 7t-7 18t7 18.5t18 7.5h168z" />
    <glyph glyph-name="ohungarumlaut" unicode="&#x151;" horiz-adv-x="588" 
d="M296 527q45 0 83.5 -14.5t67 -40.5t46 -62t19.5 -80q2 -30 2 -69.5t-2 -69.5q-2 -43 -19.5 -80t-46 -64t-67 -42t-83.5 -15t-84 15t-67.5 42t-46 64t-19.5 80q-2 30 -2 69.5t2 69.5q2 44 19.5 80t46 62t67.5 40.5t84 14.5zM296 471q-35 0 -63 -10.5t-48.5 -29.5
t-32.5 -44.5t-14 -56.5q-1 -14 -1.5 -32.5t-0.5 -38t0.5 -38t1.5 -31.5q6 -65 48.5 -104.5t109.5 -39.5t109 39.5t48 104.5q1 13 1.5 31.5t0.5 38t-0.5 38t-1.5 32.5q-2 31 -14 56.5t-32 44.5t-48.5 29.5t-62.5 10.5zM243 594q-7 -5 -15 -5q-11 0 -18.5 7.5t-7.5 18.5
q0 12 10 21l100 84q7 5 16 5q11 0 18 -7t7 -18q0 -14 -9 -21zM376 594q-7 -5 -15 -5q-11 0 -18.5 7.5t-7.5 18.5q0 12 10 21l100 84q8 5 16 5q11 0 18 -7t7 -18q0 -14 -9 -21z" />
    <glyph glyph-name="oslash" unicode="&#xf8;" horiz-adv-x="591" 
d="M295 527q44 0 81 -13.5t66 -38.5l30 35q8 9 20 11.5t23 -7.5q10 -9 9 -21.5t-8 -20.5l-36 -41q28 -45 31 -101q2 -30 2 -69.5t-2 -69.5q-2 -43 -19.5 -80t-46 -64t-67 -42t-83.5 -15t-82.5 14t-66.5 40l-28 -33q-8 -8 -19.5 -10t-21.5 6t-10.5 20.5t8.5 22.5l34 39
q-28 47 -31 102q-2 30 -2 69.5t2 69.5q2 44 19.5 80t46 62t67.5 40.5t84 14.5zM452 330q-1 14 -4.5 27.5t-8.5 25.5l-255 -296q20 -20 48 -30.5t63 -10.5q67 0 109 39.5t48 104.5q1 13 1.5 31.5t0.5 38t-0.5 38t-1.5 32.5zM295 471q-35 0 -63 -10.5t-48.5 -29.5t-32.5 -44.5
t-14 -56.5q-1 -14 -1.5 -32.5t-0.5 -38t0.5 -38t1.5 -31.5q3 -31 13 -53l255 295q-42 39 -110 39z" />
    <glyph glyph-name="oe" unicode="&#x153;" horiz-adv-x="949" 
d="M881 285q0 -24 -14 -38.5t-44 -14.5h-310v-20q0 -81 45 -123.5t118 -42.5q53 0 128 27q21 8 33 -1.5t12 -22.5q0 -7 -3.5 -14t-13.5 -13q-23 -14 -65.5 -23t-89.5 -9q-71 0 -118.5 27.5t-73.5 75.5q-29 -45 -76 -74t-113 -29q-45 0 -84 15t-67.5 42t-45.5 63.5t-20 80.5
q-1 15 -1.5 33t-0.5 36.5t0.5 37t1.5 33.5q3 44 20 80t45.5 62t67.5 40t84 14q63 0 112 -27.5t77 -74.5q29 48 74 75t112 27q49 0 88 -15.5t66 -43.5t41.5 -66.5t14.5 -83.5v-33zM296 471q-35 0 -63 -10.5t-48.5 -29.5t-32.5 -44.5t-14 -56.5q-1 -14 -1.5 -32.5t-0.5 -38
t0.5 -38t1.5 -31.5q6 -65 48.5 -104.5t109.5 -39.5t109 39.5t47 104.5q1 13 1.5 32t0.5 38.5t-0.5 38t-1.5 32.5q-4 62 -45.5 101t-110.5 39zM671 471q-81 0 -121 -48.5t-37 -134.5h295q14 0 15 14q3 39 -7 70t-30 53t-49.5 34t-65.5 12z" />
    <glyph glyph-name="racute" unicode="&#x155;" horiz-adv-x="371" 
d="M335 517q24 -7 24 -29q0 -9 -7 -17.5t-24 -8.5q-16 0 -32 4.5t-43 4.5q-51 0 -75.5 -23.5t-24.5 -76.5v-344q0 -13 -8 -22t-21 -9q-12 0 -20.5 9t-8.5 22v347q0 72 40.5 112.5t116.5 40.5q26 0 48 -3t35 -7zM277 707q8 4 14 4q11 0 18.5 -7.5t7.5 -18.5q0 -17 -14 -24
l-136 -70q-2 -1 -5 -2t-8 -1q-11 0 -18.5 7.5t-7.5 18.5q0 8 4.5 14t9.5 9z" />
    <glyph glyph-name="rcaron" unicode="&#x159;" horiz-adv-x="371" 
d="M335 517q24 -7 24 -29q0 -9 -7 -17.5t-24 -8.5q-16 0 -32 4.5t-43 4.5q-51 0 -75.5 -23.5t-24.5 -76.5v-344q0 -13 -8 -22t-21 -9q-12 0 -20.5 9t-8.5 22v347q0 72 40.5 112.5t116.5 40.5q26 0 48 -3t35 -7zM252 598q-13 -10 -25 -10q-15 0 -26 10l-87 64q-5 3 -8.5 8.5
t-3.5 13.5q0 11 7 18.5t19 7.5q11 0 18 -6l81 -61l81 61q7 6 17 6q13 0 19.5 -7.5t6.5 -18.5q0 -15 -11 -22z" />
    <glyph glyph-name="rcommaaccent" unicode="&#x157;" horiz-adv-x="371" 
d="M335 517q24 -7 24 -29q0 -9 -7 -17.5t-24 -8.5q-16 0 -32 4.5t-43 4.5q-51 0 -75.5 -23.5t-24.5 -76.5v-344q0 -13 -8 -22t-21 -9q-12 0 -20.5 9t-8.5 22v347q0 72 40.5 112.5t116.5 40.5q26 0 48 -3t35 -7zM125 -269q-10 -15 -26 -15q-9 0 -17 6.5t-8 20.5q0 9 3.5 16
l8 16t8 21.5t3.5 32.5v56q0 13 8.5 21t19.5 8t19.5 -8t8.5 -22v-43q0 -37 -7.5 -63t-20.5 -47z" />
    <glyph glyph-name="sacute" unicode="&#x15b;" horiz-adv-x="483" 
d="M301 284q69 -19 102 -52.5t33 -85.5q0 -35 -12.5 -64t-36 -49.5t-56.5 -31.5t-73 -11q-57 0 -100 13t-80 44q-9 8 -11.5 20.5t4.5 22.5t19.5 11.5t23.5 -6.5q14 -10 27 -19t29 -15.5t37 -10.5t51 -4q58 0 89 27.5t31 69.5q0 31 -20 50.5t-68 31.5l-79 19
q-131 32 -131 135q0 69 48.5 108.5t129.5 39.5q43 0 79 -12.5t57 -28.5q12 -9 13 -22t-7 -22q-8 -8 -19.5 -9t-22.5 6q-26 16 -49 24t-51 8q-59 0 -89.5 -22.5t-30.5 -67.5q0 -27 18 -46.5t68 -32.5q27 -7 49 -11.5t28 -6.5zM299 708q8 4 14 4q11 0 18.5 -7.5t7.5 -18.5
q0 -17 -14 -24l-136 -70q-2 -1 -5 -2t-8 -1q-11 0 -18.5 7.5t-7.5 18.5q0 8 4.5 14t9.5 9z" />
    <glyph glyph-name="scaron" unicode="&#x161;" horiz-adv-x="483" 
d="M301 284q69 -19 102 -52.5t33 -85.5q0 -35 -12.5 -64t-36 -49.5t-56.5 -31.5t-73 -11q-57 0 -100 13t-80 44q-9 8 -11.5 20.5t4.5 22.5t19.5 11.5t23.5 -6.5q14 -10 27 -19t29 -15.5t37 -10.5t51 -4q58 0 89 27.5t31 69.5q0 31 -20 50.5t-68 31.5l-79 19
q-131 32 -131 135q0 69 48.5 108.5t129.5 39.5q43 0 79 -12.5t57 -28.5q12 -9 13 -22t-7 -22q-8 -8 -19.5 -9t-22.5 6q-26 16 -49 24t-51 8q-59 0 -89.5 -22.5t-30.5 -67.5q0 -27 18 -46.5t68 -32.5q27 -7 49 -11.5t28 -6.5zM265 587q-13 -10 -25 -10q-15 0 -26 10l-87 64
q-5 3 -8.5 8.5t-3.5 13.5q0 11 7 18.5t19 7.5q11 0 18 -6l81 -61l81 61q7 6 17 6q13 0 19.5 -7.5t6.5 -18.5q0 -15 -11 -22z" />
    <glyph glyph-name="scedilla" unicode="&#x15f;" horiz-adv-x="481" 
d="M222 -10q-45 2 -82 16t-69 41q-10 8 -11.5 21t4.5 22q8 10 20 11.5t23 -6.5q14 -10 27 -19t29 -15.5t37 -10.5t51 -4q58 0 89 27.5t31 69.5q0 31 -20 50.5t-68 31.5l-79 19q-131 32 -131 134q0 34 13 62t36 47t56 29.5t73 10.5q43 0 79 -12.5t57 -28.5q12 -9 13 -22
t-7 -22t-19.5 -9.5t-22.5 6.5q-26 16 -49.5 24t-50.5 8q-59 0 -89.5 -22.5t-30.5 -67.5q0 -27 18 -46.5t68 -32.5q26 -7 48.5 -11.5t28.5 -6.5q69 -19 102 -52.5t33 -85.5q0 -64 -40.5 -106.5t-111.5 -48.5l-16 -40q36 -2 60.5 -25t24.5 -58q0 -23 -11.5 -41t-29.5 -32
t-39.5 -25t-40.5 -18q-12 -5 -24.5 1.5t-12.5 24.5q0 6 4 13.5t17 12.5q24 9 39.5 17t24 16t11.5 15t3 15q0 10 -7.5 20.5t-23.5 10.5q-11 0 -16 -2t-14 -2q-14 0 -22.5 12t-2.5 27z" />
    <glyph glyph-name="scommaaccent" unicode="&#x219;" horiz-adv-x="483" 
d="M301 284q69 -19 102 -52.5t33 -85.5q0 -35 -12.5 -64t-36 -49.5t-56.5 -31.5t-73 -11q-57 0 -100 13t-80 44q-9 8 -11.5 20.5t4.5 22.5t19.5 11.5t23.5 -6.5q14 -10 27 -19t29 -15.5t37 -10.5t51 -4q58 0 89 27.5t31 69.5q0 31 -20 50.5t-68 31.5l-79 19
q-131 32 -131 135q0 69 48.5 108.5t129.5 39.5q43 0 79 -12.5t57 -28.5q12 -9 13 -22t-7 -22q-8 -8 -19.5 -9t-22.5 6q-26 16 -49 24t-51 8q-59 0 -89.5 -22.5t-30.5 -67.5q0 -27 18 -46.5t68 -32.5q27 -7 49 -11.5t28 -6.5zM256 -269q-10 -15 -26 -15q-9 0 -17 6.5t-8 20.5
q0 9 3.5 16l8 16t8 21.5t3.5 32.5v56q0 13 8.5 21t19.5 8t19.5 -8t8.5 -22v-43q0 -37 -7.5 -63t-20.5 -47z" />
    <glyph glyph-name="germandbls" unicode="&#xdf;" horiz-adv-x="649" 
d="M481 559q0 -34 -13.5 -56.5t-30 -41t-30 -35.5t-13.5 -41q0 -26 15.5 -42t59.5 -29q74 -24 110 -62t36 -97q0 -38 -15 -68.5t-40.5 -52t-61 -33t-75.5 -11.5q-45 0 -83 14.5t-75 42.5q-8 8 -10 20.5t5 21.5q8 10 20 12.5t23 -5.5q14 -10 26 -19t25.5 -16t31 -11t42.5 -4
q57 0 92.5 26.5t35.5 80.5q0 40 -24 60.5t-74 38.5q-33 12 -56.5 24.5t-38.5 28t-22 36t-7 47.5q0 33 14 54.5t30.5 39t30.5 35t14 42.5q0 42 -30.5 65.5t-87.5 23.5q-69 0 -108 -34.5t-39 -110.5v-477q0 -12 -8.5 -21t-20.5 -9t-20.5 9t-8.5 21v478q0 97 53 147.5t150 50.5
q39 0 71.5 -10.5t56.5 -29.5t37 -45.5t13 -57.5z" />
    <glyph glyph-name="tcaron" unicode="&#x165;" horiz-adv-x="401" 
d="M334 8q-18 -7 -42.5 -12.5t-54.5 -5.5q-37 0 -63.5 12t-44 32.5t-25.5 48.5t-8 61v449q0 13 8.5 22t19.5 9q14 0 22 -9t8 -22v-86h161q12 0 21 -8t9 -21q0 -11 -9 -19t-21 -8h-161v-312q0 -39 19 -66t62 -27q28 0 49.5 7.5t38.5 12.5t28.5 -3t11.5 -22q0 -22 -29 -33z
M287 571q-11 -20 -30 -20q-14 0 -20.5 8t-6.5 20q0 8 4 15.5t8.5 17t8.5 22t4 30.5v18q0 14 7.5 23t20.5 9t21.5 -9t8.5 -23v-18q0 -18 -5.5 -43t-20.5 -50z" />
    <glyph glyph-name="tcommaaccent" unicode="&#x163;" horiz-adv-x="399" 
d="M334 8q-18 -7 -42.5 -12.5t-54.5 -5.5q-37 0 -63.5 12t-44 32.5t-25.5 48.5t-8 61v449q0 13 8.5 22t19.5 9q14 0 22 -9t8 -22v-86h161q12 0 21 -8t9 -21q0 -11 -9 -19t-21 -8h-161v-312q0 -39 19 -66t62 -27q28 0 49.5 7.5t38.5 12.5t28.5 -3t11.5 -22q0 -22 -29 -33z
M230 -269q-10 -15 -26 -15q-9 0 -17 6.5t-8 20.5q0 9 3.5 16l8 16t8 21.5t3.5 32.5v56q0 13 8.5 21t19.5 8t19.5 -8t8.5 -22v-43q0 -37 -7.5 -63t-20.5 -47z" />
    <glyph glyph-name="ugrave" unicode="&#xf9;" horiz-adv-x="615" 
d="M92 490q0 13 8.5 21.5t21.5 8.5q11 0 19.5 -8.5t8.5 -21.5v-304q0 -65 39.5 -102.5t111.5 -37.5q54 0 91.5 13.5t62.5 29.5v401q0 13 8 21.5t21 8.5q12 0 20.5 -8.5t8.5 -21.5v-413q0 -19 -13 -27q-11 -8 -29 -18.5t-43 -19.5t-56.5 -15.5t-70.5 -6.5q-45 0 -83.5 13
t-66 38.5t-43.5 62.5t-16 85v301zM392 638q14 -7 14 -23q0 -11 -7.5 -18.5t-18.5 -7.5q-5 0 -8 1t-6 3l-135 69q-5 3 -9.5 9.5t-4.5 14.5q0 11 7.5 18.5t18.5 7.5q9 0 15 -4z" />
    <glyph glyph-name="uacute" unicode="&#xfa;" horiz-adv-x="615" 
d="M92 490q0 13 8.5 21.5t21.5 8.5q11 0 19.5 -8.5t8.5 -21.5v-304q0 -65 39.5 -102.5t111.5 -37.5q54 0 91.5 13.5t62.5 29.5v401q0 13 8 21.5t21 8.5q12 0 20.5 -8.5t8.5 -21.5v-413q0 -19 -13 -27q-11 -8 -29 -18.5t-43 -19.5t-56.5 -15.5t-70.5 -6.5q-45 0 -83.5 13
t-66 38.5t-43.5 62.5t-16 85v301zM357 708q8 4 14 4q11 0 18.5 -7.5t7.5 -18.5q0 -17 -14 -24l-136 -70q-2 -1 -5 -2t-8 -1q-11 0 -18.5 7.5t-7.5 18.5q0 8 4.5 14t9.5 9z" />
    <glyph glyph-name="ucircumflex" unicode="&#xfb;" horiz-adv-x="615" 
d="M92 490q0 13 8.5 21.5t21.5 8.5q11 0 19.5 -8.5t8.5 -21.5v-304q0 -65 39.5 -102.5t111.5 -37.5q54 0 91.5 13.5t62.5 29.5v401q0 13 8 21.5t21 8.5q12 0 20.5 -8.5t8.5 -21.5v-413q0 -19 -13 -27q-11 -8 -29 -18.5t-43 -19.5t-56.5 -15.5t-70.5 -6.5q-45 0 -83.5 13
t-66 38.5t-43.5 62.5t-16 85v301zM422 637q11 -7 11 -22q0 -11 -6.5 -18.5t-19.5 -7.5q-10 0 -17 6l-81 60l-81 -60q-7 -6 -18 -6q-12 0 -19 7.5t-7 18.5q0 8 3.5 13.5t8.5 8.5l87 64q11 10 26 10q12 0 25 -10z" />
    <glyph glyph-name="udieresis" unicode="&#xfc;" horiz-adv-x="615" 
d="M92 490q0 13 8.5 21.5t21.5 8.5q11 0 19.5 -8.5t8.5 -21.5v-304q0 -65 39.5 -102.5t111.5 -37.5q54 0 91.5 13.5t62.5 29.5v401q0 13 8 21.5t21 8.5q12 0 20.5 -8.5t8.5 -21.5v-413q0 -19 -13 -27q-11 -8 -29 -18.5t-43 -19.5t-56.5 -15.5t-70.5 -6.5q-45 0 -83.5 13
t-66 38.5t-43.5 62.5t-16 85v301zM233 676q16 0 26.5 -11t10.5 -26q0 -16 -10.5 -26.5t-26.5 -10.5q-15 0 -26 10.5t-11 26.5q0 15 11 26t26 11zM383 676q15 0 26 -11t11 -26q0 -16 -11 -26.5t-26 -10.5q-16 0 -26.5 10.5t-10.5 26.5q0 15 10.5 26t26.5 11z" />
    <glyph glyph-name="umacron" unicode="&#x16b;" horiz-adv-x="615" 
d="M92 490q0 13 8.5 21.5t21.5 8.5q11 0 19.5 -8.5t8.5 -21.5v-304q0 -65 39.5 -102.5t111.5 -37.5q54 0 91.5 13.5t62.5 29.5v401q0 13 8 21.5t21 8.5q12 0 20.5 -8.5t8.5 -21.5v-413q0 -19 -13 -27q-11 -8 -29 -18.5t-43 -19.5t-56.5 -15.5t-70.5 -6.5q-45 0 -83.5 13
t-66 38.5t-43.5 62.5t-16 85v301zM393 665q11 0 18.5 -7.5t7.5 -18.5t-7.5 -18t-18.5 -7h-168q-11 0 -18 7t-7 18t7 18.5t18 7.5h168z" />
    <glyph glyph-name="uring" unicode="&#x16f;" horiz-adv-x="615" 
d="M92 490q0 13 8.5 21.5t21.5 8.5q11 0 19.5 -8.5t8.5 -21.5v-304q0 -65 39.5 -102.5t111.5 -37.5q54 0 91.5 13.5t62.5 29.5v401q0 13 8 21.5t21 8.5q12 0 20.5 -8.5t8.5 -21.5v-413q0 -19 -13 -27q-11 -8 -29 -18.5t-43 -19.5t-56.5 -15.5t-70.5 -6.5q-45 0 -83.5 13
t-66 38.5t-43.5 62.5t-16 85v301zM219 678q0 37 26 63.5t64 26.5q37 0 63.5 -26.5t26.5 -63.5t-26.5 -63.5t-63.5 -26.5q-38 0 -64 26.5t-26 63.5zM263 678q0 -19 13 -32t33 -13q19 0 32.5 13t13.5 32q0 20 -13.5 33t-32.5 13q-20 0 -33 -13t-13 -33z" />
    <glyph glyph-name="uhungarumlaut" unicode="&#x171;" horiz-adv-x="615" 
d="M92 490q0 13 8.5 21.5t21.5 8.5q11 0 19.5 -8.5t8.5 -21.5v-304q0 -65 39.5 -102.5t111.5 -37.5q54 0 91.5 13.5t62.5 29.5v401q0 13 8 21.5t21 8.5q12 0 20.5 -8.5t8.5 -21.5v-413q0 -19 -13 -27q-11 -8 -29 -18.5t-43 -19.5t-56.5 -15.5t-70.5 -6.5q-45 0 -83.5 13
t-66 38.5t-43.5 62.5t-16 85v301zM244 595q-7 -5 -15 -5q-11 0 -18.5 7.5t-7.5 18.5q0 12 10 21l100 84q7 5 16 5q11 0 18 -7t7 -18q0 -14 -9 -21zM377 595q-7 -5 -15 -5q-11 0 -18.5 7.5t-7.5 18.5q0 12 10 21l100 84q8 5 16 5q11 0 18 -7t7 -18q0 -14 -9 -21z" />
    <glyph glyph-name="uogonek" unicode="&#x173;" horiz-adv-x="628" 
d="M514 66q0 -8 -2 -15.5t-16 -15.5q-22 -12 -42.5 -25t-36 -29t-24.5 -34.5t-9 -41.5q0 -26 16 -40.5t39 -14.5q12 0 22.5 5.5t21.5 13.5q9 8 20 6t18 -11t5 -20.5t-11 -18.5q-14 -11 -34.5 -18t-45.5 -7q-21 0 -40 8t-33.5 21.5t-23 32.5t-8.5 41q0 29 9 50.5t21 40.5
q-14 -2 -28.5 -3t-30.5 -1q-45 0 -83.5 13t-66 38.5t-43.5 62.5t-16 85v301q0 12 8 21t21 9q11 0 20 -9t9 -21v-304q0 -65 41.5 -102.5t109.5 -37.5q51 0 90 8.5t65 23.5v412q0 12 8.5 21t20.5 9t20.5 -9t8.5 -21v-424z" />
    <glyph glyph-name="wgrave" unicode="&#x1e81;" horiz-adv-x="814" 
d="M412 465q-1 4 -5 4t-5 -4l-116 -430q-7 -25 -22 -37t-36 -12q-46 0 -59 48l-128 448q-5 16 3.5 28t22.5 12q22 0 29 -23l128 -454q2 -5 5 -5t5 5l111 424q7 28 24.5 40.5t37.5 12.5q21 0 37.5 -12.5t24.5 -41.5l112 -423q2 -5 5 -5t5 5l126 455q6 22 28 22q16 0 24 -13
t3 -27l-128 -448q-7 -24 -23 -36t-36 -12t-37 12t-23 36zM469 638q14 -7 14 -23q0 -11 -7.5 -18.5t-18.5 -7.5q-5 0 -8 1t-6 3l-135 69q-5 3 -9.5 9.5t-4.5 14.5q0 11 7.5 18.5t18.5 7.5q9 0 15 -4z" />
    <glyph glyph-name="wacute" unicode="&#x1e83;" horiz-adv-x="814" 
d="M412 465q-1 4 -5 4t-5 -4l-116 -430q-7 -25 -22 -37t-36 -12q-46 0 -59 48l-128 448q-5 16 3.5 28t22.5 12q22 0 29 -23l128 -454q2 -5 5 -5t5 5l111 424q7 28 24.5 40.5t37.5 12.5q21 0 37.5 -12.5t24.5 -41.5l112 -423q2 -5 5 -5t5 5l126 455q6 22 28 22q16 0 24 -13
t3 -27l-128 -448q-7 -24 -23 -36t-36 -12t-37 12t-23 36zM458 708q8 4 14 4q11 0 18.5 -7.5t7.5 -18.5q0 -17 -14 -24l-136 -70q-2 -1 -5 -2t-8 -1q-11 0 -18.5 7.5t-7.5 18.5q0 8 4.5 14t9.5 9z" />
    <glyph glyph-name="wcircumflex" unicode="&#x175;" horiz-adv-x="814" 
d="M412 465q-1 4 -5 4t-5 -4l-116 -430q-7 -25 -22 -37t-36 -12q-46 0 -59 48l-128 448q-5 16 3.5 28t22.5 12q22 0 29 -23l128 -454q2 -5 5 -5t5 5l111 424q7 28 24.5 40.5t37.5 12.5q21 0 37.5 -12.5t24.5 -41.5l112 -423q2 -5 5 -5t5 5l126 455q6 22 28 22q16 0 24 -13
t3 -27l-128 -448q-7 -24 -23 -36t-36 -12t-37 12t-23 36zM519 636q11 -7 11 -22q0 -11 -6.5 -18.5t-19.5 -7.5q-10 0 -17 6l-81 60l-81 -60q-7 -6 -18 -6q-12 0 -19 7.5t-7 18.5q0 8 3.5 13.5t8.5 8.5l87 64q11 10 26 10q12 0 25 -10z" />
    <glyph glyph-name="wdieresis" unicode="&#x1e85;" horiz-adv-x="814" 
d="M412 465q-1 4 -5 4t-5 -4l-116 -430q-7 -25 -22 -37t-36 -12q-46 0 -59 48l-128 448q-5 16 3.5 28t22.5 12q22 0 29 -23l128 -454q2 -5 5 -5t5 5l111 424q7 28 24.5 40.5t37.5 12.5q21 0 37.5 -12.5t24.5 -41.5l112 -423q2 -5 5 -5t5 5l126 455q6 22 28 22q16 0 24 -13
t3 -27l-128 -448q-7 -24 -23 -36t-36 -12t-37 12t-23 36zM331 676q16 0 26.5 -11t10.5 -26q0 -16 -10.5 -26.5t-26.5 -10.5q-15 0 -26 10.5t-11 26.5q0 15 11 26t26 11zM481 676q15 0 26 -11t11 -26q0 -16 -11 -26.5t-26 -10.5q-16 0 -26.5 10.5t-10.5 26.5q0 15 10.5 26
t26.5 11z" />
    <glyph glyph-name="ygrave" unicode="&#x1ef3;" horiz-adv-x="502" 
d="M29 477q-7 16 1 29.5t24 13.5q12 0 19 -5.5t10 -13.5l171 -388q2 -4 4 -4t4 4l155 384q10 23 30 23q17 0 24.5 -14t0.5 -30l-189 -463q-14 -34 -30.5 -64t-35.5 -55t-38 -44t-37 -29q-15 -8 -30 -8q-11 0 -19.5 7.5t-8.5 20.5q0 18 19 28q34 17 66 55.5t58 106.5z
M313 638q14 -7 14 -23q0 -11 -7.5 -18.5t-18.5 -7.5q-5 0 -8 1t-6 3l-135 69q-5 3 -9.5 9.5t-4.5 14.5q0 11 7.5 18.5t18.5 7.5q9 0 15 -4z" />
    <glyph glyph-name="yacute" unicode="&#xfd;" horiz-adv-x="502" 
d="M29 477q-7 16 1 29.5t24 13.5q12 0 19 -5.5t10 -13.5l171 -388q2 -4 4 -4t4 4l155 384q10 23 30 23q17 0 24.5 -14t0.5 -30l-189 -463q-14 -34 -30.5 -64t-35.5 -55t-38 -44t-37 -29q-15 -8 -30 -8q-11 0 -19.5 7.5t-8.5 20.5q0 18 19 28q34 17 66 55.5t58 106.5z
M351 709q8 4 14 4q11 0 18.5 -7.5t7.5 -18.5q0 -17 -14 -24l-136 -70q-2 -1 -5 -2t-8 -1q-11 0 -18.5 7.5t-7.5 18.5q0 8 4.5 14t9.5 9z" />
    <glyph glyph-name="ycircumflex" unicode="&#x177;" horiz-adv-x="502" 
d="M29 477q-7 16 1 29.5t24 13.5q12 0 19 -5.5t10 -13.5l171 -388q2 -4 4 -4t4 4l155 384q10 23 30 23q17 0 24.5 -14t0.5 -30l-189 -463q-14 -34 -30.5 -64t-35.5 -55t-38 -44t-37 -29q-15 -8 -30 -8q-11 0 -19.5 7.5t-8.5 20.5q0 18 19 28q34 17 66 55.5t58 106.5z
M371 637q11 -7 11 -22q0 -11 -6.5 -18.5t-19.5 -7.5q-10 0 -17 6l-81 60l-81 -60q-7 -6 -18 -6q-12 0 -19 7.5t-7 18.5q0 8 3.5 13.5t8.5 8.5l87 64q11 10 26 10q12 0 25 -10z" />
    <glyph glyph-name="ydieresis" unicode="&#xff;" horiz-adv-x="502" 
d="M29 477q-7 16 1 29.5t24 13.5q12 0 19 -5.5t10 -13.5l171 -388q2 -4 4 -4t4 4l155 384q10 23 30 23q17 0 24.5 -14t0.5 -30l-189 -463q-14 -34 -30.5 -64t-35.5 -55t-38 -44t-37 -29q-15 -8 -30 -8q-11 0 -19.5 7.5t-8.5 20.5q0 18 19 28q34 17 66 55.5t58 106.5z
M183 676q16 0 26.5 -11t10.5 -26q0 -16 -10.5 -26.5t-26.5 -10.5q-15 0 -26 10.5t-11 26.5q0 15 11 26t26 11zM333 676q15 0 26 -11t11 -26q0 -16 -11 -26.5t-26 -10.5q-16 0 -26.5 10.5t-10.5 26.5q0 15 10.5 26t26.5 11z" />
    <glyph glyph-name="zacute" unicode="&#x17a;" horiz-adv-x="495" 
d="M108 56h306q13 0 20.5 -8.5t7.5 -19.5q0 -12 -7.5 -20t-20.5 -8h-306q-26 0 -41 14.5t-15 35.5q0 14 4.5 24t12.5 19l322 360h-294q-12 0 -20.5 7.5t-8.5 19.5t8 20.5t21 8.5h288q29 0 45 -15.5t16 -40.5q0 -13 -6.5 -24.5t-18.5 -25.5zM311 708q8 4 14 4q11 0 18.5 -7.5
t7.5 -18.5q0 -17 -14 -24l-136 -70q-2 -1 -5 -2t-8 -1q-11 0 -18.5 7.5t-7.5 18.5q0 8 4.5 14t9.5 9z" />
    <glyph glyph-name="zcaron" unicode="&#x17e;" horiz-adv-x="495" 
d="M108 56h306q13 0 20.5 -8.5t7.5 -19.5q0 -12 -7.5 -20t-20.5 -8h-306q-26 0 -41 14.5t-15 35.5q0 14 4.5 24t12.5 19l322 360h-294q-12 0 -20.5 7.5t-8.5 19.5t8 20.5t21 8.5h288q29 0 45 -15.5t16 -40.5q0 -13 -6.5 -24.5t-18.5 -25.5zM263 599q-13 -10 -25 -10
q-15 0 -26 10l-87 64q-5 3 -8.5 8.5t-3.5 13.5q0 11 7 18.5t19 7.5q11 0 18 -6l81 -61l81 61q7 6 17 6q13 0 19.5 -7.5t6.5 -18.5q0 -15 -11 -22z" />
    <glyph glyph-name="zdotaccent" unicode="&#x17c;" horiz-adv-x="495" 
d="M108 56h306q13 0 20.5 -8.5t7.5 -19.5q0 -12 -7.5 -20t-20.5 -8h-306q-26 0 -41 14.5t-15 35.5q0 14 4.5 24t12.5 19l322 360h-294q-12 0 -20.5 7.5t-8.5 19.5t8 20.5t21 8.5h288q29 0 45 -15.5t16 -40.5q0 -13 -6.5 -24.5t-18.5 -25.5zM237 675q16 0 26.5 -11t10.5 -26
q0 -16 -10.5 -26.5t-26.5 -10.5t-26.5 10.5t-10.5 26.5q0 15 10.5 26t26.5 11z" />
    <glyph glyph-name="eth" unicode="&#xf0;" horiz-adv-x="592" 
d="M338 624q-18 12 -39 24q-15 8 -18 20t3 22q5 9 17.5 13t26.5 -5q20 -11 36.5 -23t31.5 -24l63 30q11 5 22.5 2t16.5 -15q5 -11 0 -22t-16 -16l-44 -21q32 -39 46 -89.5t14 -119.5v-203q0 -47 -16.5 -85t-45 -65t-67 -42t-81.5 -15q-44 0 -80.5 14.5t-64.5 40.5
t-44.5 61.5t-19.5 77.5q-3 60 0 121q3 42 20 77t44.5 60t64.5 38.5t81 13.5q48 0 84.5 -16.5t62.5 -43.5q0 45 -11.5 81.5t-40.5 68.5l-72 -34q-12 -5 -23 -1t-16 15t-0.5 21t16.5 16zM288 438q-66 0 -106 -38t-44 -97q-2 -27 -2 -59.5t2 -58.5q2 -30 14 -55.5t31.5 -44
t46 -29t58.5 -10.5q64 0 104 39t45 100q2 26 2 58.5t-2 59.5q-4 59 -43.5 97t-105.5 38z" />
    <glyph glyph-name="thorn" unicode="&#xfe;" horiz-adv-x="601" 
d="M520 186q-8 -94 -63 -145t-155 -51q-42 0 -79.5 11.5t-64.5 23.5v-185q0 -13 -8.5 -21.5t-20.5 -8.5t-20.5 8.5t-8.5 21.5v837q0 13 8 22t21 9q12 0 20.5 -9t8.5 -22v-186q29 13 71 24.5t87 11.5q94 0 145 -50.5t59 -144.5q1 -14 1.5 -32.5t0.5 -39t-0.5 -40t-1.5 -34.5z
M462 329q-13 142 -151 142q-21 0 -44 -4.5t-44 -11t-38.5 -14.5t-26.5 -15v-339q9 -6 24.5 -13t35 -13.5t42 -10.5t45.5 -4q77 0 114.5 35.5t42.5 104.5q1 12 1.5 30.5t0.5 38.5t-0.5 40t-1.5 34z" />
    <glyph glyph-name="grave" unicode="`" 
d="M251 802q14 -7 14 -23q0 -11 -7.5 -18.5t-18.5 -7.5q-5 0 -8 1t-6 3l-135 69q-5 3 -9.5 9.5t-4.5 14.5q0 11 7.5 18.5t18.5 7.5q9 0 15 -4z" />
    <glyph glyph-name="acute" unicode="&#xb4;" 
d="M225 872q8 4 14 4q11 0 18.5 -7.5t7.5 -18.5q0 -17 -14 -24l-136 -70q-2 -1 -5 -2t-8 -1q-11 0 -18.5 7.5t-7.5 18.5q0 8 4.5 14t9.5 9z" />
    <glyph glyph-name="circumflex" unicode="&#x2c6;" 
d="M282 798q11 -7 11 -22q0 -11 -6.5 -18.5t-19.5 -7.5q-10 0 -17 6l-81 60l-81 -60q-7 -6 -18 -6q-12 0 -19 7.5t-7 18.5q0 8 3.5 13.5t8.5 8.5l87 64q11 10 26 10q12 0 25 -10z" />
    <glyph glyph-name="caron" unicode="&#x2c7;" 
d="M194 760q-13 -10 -25 -10q-15 0 -26 10l-87 64q-5 3 -8.5 8.5t-3.5 13.5q0 11 7 18.5t19 7.5q11 0 18 -6l81 -61l81 61q7 6 17 6q13 0 19.5 -7.5t6.5 -18.5q0 -15 -11 -22z" />
    <glyph glyph-name="tilde" unicode="&#x2dc;" 
d="M226 804q9 0 15.5 4t12.5 8.5t12 8.5t14 4q13 0 20.5 -7.5t7.5 -18.5q0 -8 -3.5 -13.5t-8.5 -9.5q-16 -14 -34 -22t-36 -8q-17 0 -31.5 5.5t-27.5 12.5t-24.5 12.5t-22.5 5.5q-9 0 -16 -4t-13 -8.5t-12 -8.5t-14 -4q-12 0 -19.5 7.5t-7.5 18.5q0 14 12 23q16 14 34 22
t35 8q18 0 32 -5.5t27 -12.5t24.5 -12.5t23.5 -5.5z" />
    <glyph glyph-name="dieresis" unicode="&#xa8;" 
d="M95 837q16 0 26.5 -11t10.5 -26q0 -16 -10.5 -26.5t-26.5 -10.5q-15 0 -26 10.5t-11 26.5q0 15 11 26t26 11zM245 837q15 0 26 -11t11 -26q0 -16 -11 -26.5t-26 -10.5q-16 0 -26.5 10.5t-10.5 26.5q0 15 10.5 26t26.5 11z" />
    <glyph glyph-name="macron" unicode="&#xaf;" 
d="M256 822q11 0 18.5 -7.5t7.5 -18.5t-7.5 -18t-18.5 -7h-168q-11 0 -18 7t-7 18t7 18.5t18 7.5h168z" />
    <glyph glyph-name="breve" unicode="&#x2d8;" 
d="M170 811q22 0 38 13.5t21 33.5q3 8 10 14t17 6q11 0 19.5 -8.5t8.5 -19.5q0 -6 -3 -15q-11 -32 -41 -55t-70 -23t-70 23t-41 55q-3 9 -3 15q0 11 8.5 19.5t19.5 8.5q10 0 17.5 -6t9.5 -14q5 -20 21 -33.5t38 -13.5z" />
    <glyph glyph-name="ring" unicode="&#x2da;" horiz-adv-x="342" 
d="M89 836q0 37 26 63.5t64 26.5q37 0 63.5 -26.5t26.5 -63.5t-26.5 -63.5t-63.5 -26.5q-38 0 -64 26.5t-26 63.5zM133 836q0 -19 13 -32t33 -13q19 0 32.5 13t13.5 32q0 20 -13.5 33t-32.5 13q-20 0 -33 -13t-13 -33z" />
    <glyph glyph-name="hungarumlaut" unicode="&#x2dd;" 
d="M72 757q-7 -5 -15 -5q-11 0 -18.5 7.5t-7.5 18.5q0 12 10 21l100 84q7 5 16 5q11 0 18 -7t7 -18q0 -14 -9 -21zM205 757q-7 -5 -15 -5q-11 0 -18.5 7.5t-7.5 18.5q0 12 10 21l100 84q8 5 16 5q11 0 18 -7t7 -18q0 -14 -9 -21z" />
    <glyph glyph-name="dotaccent" unicode="&#x2d9;" 
d="M170 837q16 0 26.5 -11t10.5 -26q0 -16 -10.5 -26.5t-26.5 -10.5t-26.5 10.5t-10.5 26.5q0 15 10.5 26t26.5 11z" />
    <glyph glyph-name="cedilla" unicode="&#xb8;" 
d="M145 4q2 9 9.5 15t18.5 6q13 0 19 -7t6 -18q0 -5 -2 -9l-14 -40q35 -2 58.5 -25t23.5 -58q0 -24 -10.5 -42.5t-28 -32.5t-39 -24t-42.5 -17q-13 -5 -25.5 1.5t-12.5 24.5q0 6 4 13.5t18 12.5q24 9 39.5 17t23.5 16t11 15t3 15q0 10 -7.5 20.5t-23.5 10.5q-11 0 -16 -2
t-13 -2q-14 0 -22.5 12t-3.5 27z" />
    <glyph glyph-name="ogonek" unicode="&#x2db;" 
d="M226 -1q-46 -21 -66 -45.5t-20 -48.5q0 -26 15.5 -38t36.5 -12q26 0 46 15q9 7 20 5t18 -11t5 -20.5t-11 -18.5q-14 -10 -34.5 -17.5t-45.5 -7.5q-42 0 -73.5 27.5t-31.5 76.5q0 42 31.5 78t87.5 65q5 3 8.5 3.5t5.5 0.5q11 0 18.5 -7.5t7.5 -18.5q0 -7 -3.5 -13.5
t-14.5 -12.5z" />
    <glyph glyph-name="comma" unicode="," horiz-adv-x="206" 
d="M136 59q0 -39 -4 -66t-21 -57q-12 -23 -33 -23q-14 0 -21.5 9.5t-7.5 20.5q0 10 3.5 16t7 13.5t7 20.5t3.5 36v48q0 14 9.5 23t23.5 9q13 0 23 -9t10 -23v-18z" />
    <glyph glyph-name="semicolon" unicode=";" horiz-adv-x="283" 
d="M191 36q0 -18 -3 -39.5t-10 -40t-18 -31t-27 -12.5q-14 0 -22.5 10.5t-7.5 21.5q0 7 2 13q3 6 6.5 10.5t6.5 12t5 19t2 29.5v48q0 14 9.5 23t23.5 9t23.5 -9t9.5 -23v-41zM158 497q14 0 23.5 -10t9.5 -24v-54q0 -14 -9 -24t-24 -10q-14 0 -23.5 10t-9.5 24v54
q0 14 9.5 24t23.5 10z" />
    <glyph glyph-name="colon" unicode=":" horiz-adv-x="283" 
d="M142 497q14 0 23.5 -10t9.5 -24v-54q0 -14 -9 -24t-24 -10q-14 0 -23.5 10t-9.5 24v54q0 14 9.5 24t23.5 10zM142 113q14 0 23.5 -10t9.5 -24v-54q0 -14 -9 -24t-24 -10q-14 0 -23.5 10t-9.5 24v54q0 14 9.5 24t23.5 10z" />
    <glyph glyph-name="period" unicode="." horiz-adv-x="259" 
d="M103 113q14 0 23.5 -10t9.5 -24v-54q0 -14 -9 -24t-24 -10q-14 0 -23.5 10t-9.5 24v54q0 14 9.5 24t23.5 10z" />
    <glyph glyph-name="ellipsis" unicode="&#x2026;" horiz-adv-x="622" 
d="M519 113q14 0 23.5 -10t9.5 -24v-54q0 -14 -9 -24t-24 -10q-14 0 -23.5 10t-9.5 24v54q0 14 9.5 24t23.5 10zM312 113q14 0 23.5 -10t9.5 -24v-54q0 -14 -9 -24t-24 -10q-14 0 -23.5 10t-9.5 24v54q0 14 9.5 24t23.5 10zM103 113q14 0 23.5 -10t9.5 -24v-54q0 -14 -9 -24
t-24 -10q-14 0 -23.5 10t-9.5 24v54q0 14 9.5 24t23.5 10z" />
    <glyph glyph-name="uni00AD" unicode="&#xad;" horiz-adv-x="345" 
d="M286 287q0 -13 -8.5 -21t-21.5 -8h-167q-13 0 -21.5 8.5t-8.5 20.5q0 13 8.5 20.5t21.5 7.5h167q13 0 21.5 -7.5t8.5 -20.5z" />
    <glyph glyph-name="exclam" unicode="!" horiz-adv-x="205" 
d="M73 669q0 13 9 21.5t20 8.5q13 0 21 -8.5t9 -21.5l-3 -416q0 -12 -7.5 -20t-18.5 -8t-19 8.5t-8 19.5zM70 78q0 14 10 23t22 9q14 0 23.5 -9t9.5 -23v-55q0 -14 -9.5 -23t-23.5 -9q-12 0 -22 9.5t-10 22.5v55z" />
    <glyph glyph-name="exclamdown" unicode="&#xa1;" horiz-adv-x="205" 
d="M76 447q0 11 8 19.5t19 8.5t18.5 -8t7.5 -20l3 -416q-1 -13 -9 -21.5t-21 -8.5q-11 0 -20 8.5t-9 21.5zM70 677q0 13 10 22.5t22 9.5q14 0 23.5 -9t9.5 -23v-55q0 -14 -9.5 -23t-23.5 -9q-12 0 -22 9t-10 23v55z" />
    <glyph glyph-name="question" unicode="?" horiz-adv-x="560" 
d="M117 575q-6 -8 -12 -10t-12 -2q-12 0 -21 9t-9 21q0 9 9 21q75 95 212 95q46 0 83.5 -14t64 -39t41 -60t14.5 -76q0 -50 -13 -85t-39 -62.5t-66 -51t-94 -49.5q-13 -5 -22 -5q-11 0 -20.5 8t-9.5 22q0 20 22 30q52 23 87.5 43t57 42t30.5 48.5t9 61.5q0 58 -38 94
t-107 36q-59 0 -97 -18t-70 -59zM221 78q0 14 10.5 23t22.5 9q13 0 23 -9t10 -23v-55q0 -14 -10 -23t-23 -9q-12 0 -22.5 9.5t-10.5 22.5v55z" />
    <glyph glyph-name="questiondown" unicode="&#xbf;" horiz-adv-x="560" 
d="M432 125q6 8 12 10t12 2q12 0 21 -9t9 -21q0 -9 -9 -21q-75 -95 -212 -95q-46 0 -83.5 14t-64 39t-41 60t-14.5 76q0 50 13 85t39 62.5t66 51t94 49.5q13 5 22 5q11 0 20.5 -8t9.5 -22q0 -20 -22 -30q-52 -23 -87.5 -43t-57 -42t-30.5 -48.5t-9 -61.5q0 -58 38 -94
t107 -36q59 0 97 18t70 59zM328 622q0 -14 -10.5 -23t-22.5 -9q-13 0 -23 9t-10 23v55q0 14 10 23t23 9q12 0 22.5 -9.5t10.5 -22.5v-55z" />
    <glyph glyph-name="quoteleft" unicode="&#x2018;" horiz-adv-x="206" 
d="M125 539q0 -14 -8.5 -23.5t-20.5 -9.5q-14 0 -22.5 9.5t-8.5 23.5v36q0 26 6 53t21 52q11 19 29 19q12 0 21.5 -8t9.5 -22q0 -9 -4 -16t-9.5 -17t-9.5 -24t-4 -37v-36z" />
    <glyph glyph-name="quoteright" unicode="&#x2019;" horiz-adv-x="206" 
d="M149 636q0 -26 -6 -53t-21 -52q-11 -19 -29 -19q-12 0 -21.5 8t-9.5 22q0 9 4 16t9.5 16.5t9.5 24t4 37.5v36q0 14 8.5 23.5t20.5 9.5q14 0 22.5 -9.5t8.5 -23.5v-36z" />
    <glyph glyph-name="quotedblleft" unicode="&#x201c;" horiz-adv-x="324" 
d="M63 575q0 26 6 53t20 52q11 19 30 19q12 0 21.5 -8t9.5 -22q0 -9 -4 -16t-9 -17t-9 -24t-4 -37v-36q0 -14 -9 -23.5t-22 -9.5t-21.5 9.5t-8.5 23.5v36zM185 575q0 26 6 53t21 52q11 19 29 19q12 0 21.5 -8t9.5 -22q0 -9 -4 -16t-9 -17t-9 -24t-4 -37v-36q0 -14 -9 -23.5
t-21 -9.5q-14 0 -22.5 9.5t-8.5 23.5v36z" />
    <glyph glyph-name="quotedblright" unicode="&#x201d;" horiz-adv-x="324" 
d="M147 636q0 -26 -6 -53t-21 -52q-11 -19 -29 -19q-13 0 -22 8t-9 22q0 9 4 16t9 16.5t9 24t4 37.5v36q0 14 9 23.5t21 9.5q14 0 22.5 -9.5t8.5 -23.5v-36zM269 636q0 -26 -6 -53t-21 -52q-11 -19 -29 -19q-12 0 -21.5 8t-9.5 22q0 9 4 16t9 16.5t9 24t4 37.5v36
q0 14 9 23.5t21 9.5q14 0 22.5 -9.5t8.5 -23.5v-36z" />
    <glyph glyph-name="quotesinglbase" unicode="&#x201a;" horiz-adv-x="206" 
d="M132 34q0 -26 -6 -53t-20 -52q-11 -19 -29 -19q-13 0 -22.5 8t-9.5 22q0 9 4 16t9 16.5t9 24t4 37.5v37q0 13 9 22.5t22 9.5t21.5 -9.5t8.5 -22.5v-37z" />
    <glyph glyph-name="quotedblbase" unicode="&#x201e;" horiz-adv-x="324" 
d="M269 34q0 -26 -6 -53t-21 -52q-11 -19 -29 -19q-12 0 -21.5 8t-9.5 22q0 9 4 16t9 16.5t9 24t4 37.5v37q0 13 9 22.5t21 9.5q14 0 22.5 -9.5t8.5 -22.5v-37zM147 34q0 -26 -6 -53t-21 -52q-11 -19 -29 -19q-12 0 -21.5 8t-9.5 22q0 9 4 16t9 16.5t9 24t4 37.5v37
q0 13 9 22.5t21 9.5q14 0 22.5 -9.5t8.5 -22.5v-37z" />
    <glyph glyph-name="guilsinglleft" unicode="&#x2039;" horiz-adv-x="357" 
d="M51 349q0 18 10.5 34t32.5 35l119 98q11 9 23.5 7.5t20.5 -11.5q8 -11 7 -23t-11 -20l-133 -106q-3 -2 -6 -5.5t-3 -8.5t3 -8.5t6 -5.5l133 -107q10 -8 11 -20.5t-7 -23.5q-8 -10 -20.5 -11t-23.5 7l-119 100q-22 18 -32.5 34t-10.5 35z" />
    <glyph glyph-name="guilsinglright" unicode="&#x203a;" horiz-adv-x="357" 
d="M306 349q0 -19 -10.5 -35t-32.5 -34l-120 -100q-10 -8 -23 -7t-21 11t-6.5 23t11.5 21l133 107q3 2 6 5.5t3 8.5t-3 8.5t-6 5.5l-133 106q-10 8 -11.5 20.5t6.5 22.5q8 11 21 12t23 -8l120 -98q22 -19 32.5 -35t10.5 -34z" />
    <glyph glyph-name="guillemotleft" unicode="&#xab;" horiz-adv-x="538" 
d="M51 349q0 18 10.5 34t32.5 35l119 98q11 9 23.5 8t20.5 -12q9 -10 7.5 -22.5t-11.5 -20.5l-133 -106q-3 -2 -6 -5.5t-3 -8.5t3 -8.5t6 -5.5l133 -107q10 -8 11.5 -21t-7.5 -23q-8 -10 -20.5 -11t-23.5 7l-119 100q-22 18 -32.5 34t-10.5 35zM232 349q0 18 10.5 34
t32.5 35l120 98q10 9 23 8t21 -12q8 -10 6.5 -22.5t-11.5 -20.5l-133 -106q-3 -2 -6 -5.5t-3 -8.5t3 -8.5t6 -5.5l133 -107q10 -8 11.5 -21t-6.5 -23t-21 -11t-23 7l-120 100q-22 18 -32.5 34t-10.5 35z" />
    <glyph glyph-name="guillemotright" unicode="&#xbb;" horiz-adv-x="538" 
d="M487 349q0 -19 -10.5 -35t-32.5 -34l-119 -100q-11 -8 -23.5 -7t-20.5 11q-9 10 -7.5 23t11.5 21l133 107q3 2 6 5.5t3 8.5t-3 8.5t-6 5.5l-133 106q-10 8 -11.5 20.5t7.5 22.5q8 11 20.5 12t23.5 -8l119 -98q22 -19 32.5 -35t10.5 -34zM306 349q0 -19 -10.5 -35
t-32.5 -34l-120 -100q-10 -8 -23 -7t-21 11t-6.5 23t11.5 21l133 107q3 2 6 5.5t3 8.5t-3 8.5t-6 5.5l-133 106q-10 8 -11.5 20.5t6.5 22.5q8 11 21 12t23 -8l120 -98q22 -19 32.5 -35t10.5 -34z" />
    <glyph glyph-name="slash" unicode="/" horiz-adv-x="333" 
d="M317 730q11 -5 15.5 -15.5t-0.5 -21.5l-279 -707q-5 -11 -15.5 -15.5t-20.5 -0.5q-11 5 -15.5 15.5t-0.5 21.5l279 707q5 11 16 15.5t21 0.5z" />
    <glyph glyph-name="bar" unicode="|" horiz-adv-x="306" 
d="M150 835q13 0 21 -8.5t8 -21.5v-915q0 -13 -8 -21.5t-21 -8.5q-12 0 -20.5 9.5t-8.5 20.5v915q0 13 8.5 21.5t20.5 8.5z" />
    <glyph glyph-name="endash" unicode="&#x2013;" horiz-adv-x="603" 
d="M57 286q0 13 8.5 21t21.5 8h429q13 0 21.5 -8t8.5 -21q0 -12 -8.5 -20.5t-21.5 -8.5h-429q-13 0 -21.5 8.5t-8.5 20.5z" />
    <glyph glyph-name="emdash" unicode="&#x2014;" horiz-adv-x="967" 
d="M57 286q0 13 8.5 21t21.5 8h793q13 0 22 -8t9 -21q0 -12 -9.5 -20.5t-21.5 -8.5h-793q-13 0 -21.5 8.5t-8.5 20.5z" />
    <glyph glyph-name="bullet" unicode="&#x2022;" horiz-adv-x="472" 
d="M110 350q0 26 10 49t27 40t40 27t49 10t49 -10t40 -27t27 -40t10 -49t-10 -49t-27 -40t-40 -27t-49 -10t-49 10t-40 27t-27 40t-10 49z" />
    <glyph glyph-name="periodcentered" unicode="&#xb7;" horiz-adv-x="259" 
d="M130 414q14 0 23.5 -10t9.5 -24v-54q0 -14 -9 -24t-24 -10q-14 0 -23.5 10t-9.5 24v54q0 14 9.5 24t23.5 10z" />
    <glyph glyph-name="parenleft" unicode="(" horiz-adv-x="347" 
d="M147 309q0 -59 11.5 -118.5t34.5 -115.5t57.5 -107.5t81.5 -94.5q8 -7 9.5 -17.5t-4.5 -19.5t-18 -11t-23 7q-51 47 -89.5 102.5t-64 116.5t-38.5 126.5t-13 131.5q0 133 51.5 257.5t153.5 219.5q11 9 23 7t18 -11t4.5 -19.5t-9.5 -17.5q-47 -43 -81.5 -94.5
t-57.5 -107.5t-34.5 -115.5t-11.5 -118.5z" />
    <glyph glyph-name="parenright" unicode=")" horiz-adv-x="347" 
d="M200 309q0 59 -11.5 118.5t-34.5 115.5t-57.5 107.5t-81.5 94.5q-8 7 -9.5 18t4.5 20t18 10.5t23 -7.5q102 -95 153.5 -219.5t51.5 -257.5q0 -66 -13 -131.5t-38.5 -126.5t-64 -116.5t-89.5 -102.5q-11 -9 -23 -7.5t-18 10.5t-4.5 20t9.5 18q47 43 81.5 94.5t57.5 107.5
t34.5 115.5t11.5 118.5z" />
    <glyph glyph-name="bracketleft" unicode="[" horiz-adv-x="349" 
d="M338 -146q0 -13 -8.5 -21t-21.5 -8h-145q-30 0 -45.5 18t-15.5 42v848q0 25 15.5 42.5t45.5 17.5h145q13 0 21.5 -8t8.5 -21q0 -11 -9 -20t-21 -9h-148v-852h148q12 0 21 -9t9 -20z" />
    <glyph glyph-name="bracketright" unicode="]" horiz-adv-x="349" 
d="M11 -148q0 12 9.5 20.5t20.5 8.5h148v853h-148q-11 0 -20.5 8.5t-9.5 19.5q0 13 8.5 21.5t21.5 8.5h146q29 0 44.5 -18t15.5 -42v-848q0 -24 -15 -42t-45 -18h-146q-13 0 -21.5 8t-8.5 20z" />
    <glyph glyph-name="braceleft" unicode="{" horiz-adv-x="356" 
d="M197 734q-13 0 -21.5 -8.5t-8.5 -21.5v-240q0 -32 -6.5 -57t-16.5 -43t-22 -30t-22 -19q10 -8 22 -20t22 -30t16.5 -42.5t6.5 -56.5v-253q0 -13 9 -21.5t22 -8.5h117q12 0 21 -9t9 -20q0 -13 -8.5 -21.5t-21.5 -8.5h-116q-38 0 -64 26.5t-26 64.5v250q0 37 -11 63t-42 51
q-8 6 -14.5 14.5t-6.5 21.5q0 12 6.5 20.5t14.5 14.5q31 25 42 51t11 63v237q0 38 26 64.5t64 26.5h116q13 0 21.5 -8t8.5 -21q0 -11 -9 -20t-21 -9h-118z" />
    <glyph glyph-name="braceright" unicode="}" horiz-adv-x="356" 
d="M42 734q-12 0 -21 9t-9 20q0 13 8.5 21t21.5 8h116q38 0 64 -26.5t26 -64.5v-237q0 -37 11 -63t42 -51q8 -6 14.5 -14.5t6.5 -20.5q0 -13 -6.5 -21.5t-14.5 -14.5q-31 -25 -42 -51t-11 -63v-250q0 -38 -26 -64.5t-64 -26.5h-116q-13 0 -21.5 8.5t-8.5 21.5q0 11 9 20
t21 9h117q13 0 22 8.5t9 21.5v253q0 32 6.5 56.5t16.5 42.5t21.5 30t22.5 20q-11 7 -22.5 19t-21.5 30t-16.5 43t-6.5 57v240q0 13 -8.5 21.5t-21.5 8.5h-118z" />
    <glyph glyph-name="asterisk" unicode="*" horiz-adv-x="377" 
d="M189 369q-12 0 -19.5 8t-7.5 21l1 90l-80 -48q-10 -6 -22 -4.5t-18 13.5q-5 11 -2 21.5t13 15.5l89 47l-88 46q-8 5 -13 15t1 22q5 11 16 13.5t22 -3.5l82 -49l-1 90q0 13 7.5 21t19.5 8t19.5 -8t7.5 -21l-1 -90l80 49q10 6 22 4t18 -14q5 -11 0.5 -21t-12.5 -15l-88 -47
l86 -46q13 -7 17 -17.5t-3 -22.5q-6 -11 -17.5 -13t-22.5 5l-80 49l1 -90q0 -13 -7.5 -21t-19.5 -8z" />
    <glyph glyph-name="dagger" unicode="&#x2020;" horiz-adv-x="463" 
d="M414 481q13 0 22 -8t9 -21q0 -12 -9 -20.5t-22 -8.5h-154v-533q0 -13 -8 -21.5t-21 -8.5q-11 0 -20 9.5t-9 20.5v533h-154q-13 0 -21.5 8.5t-8.5 20.5q0 13 8.5 21t21.5 8h154v198q0 13 8.5 21.5t20.5 8.5q13 0 21 -8.5t8 -21.5v-198h154z" />
    <glyph glyph-name="daggerdbl" unicode="&#x2021;" horiz-adv-x="463" 
d="M414 481q13 0 22 -8t9 -21q0 -12 -9 -20.5t-22 -8.5h-154v-276h154q13 0 22 -9t9 -21t-9 -20t-22 -8h-154v-199q0 -13 -8 -21.5t-21 -8.5q-11 0 -20 8.5t-9 21.5v199h-154q-13 0 -21.5 8t-8.5 20t8.5 21t21.5 9h154v276h-154q-13 0 -21.5 8.5t-8.5 20.5q0 13 8.5 21
t21.5 8h154v198q0 13 8.5 21.5t20.5 8.5q13 0 21 -8.5t8 -21.5v-198h154z" />
    <glyph glyph-name="section" unicode="&#xa7;" horiz-adv-x="584" 
d="M489 270q0 -25 -10.5 -48t-25.5 -40q41 -41 41 -111q0 -38 -15 -70t-41.5 -55t-63 -36t-80.5 -13q-32 0 -62.5 5t-56 13.5t-45.5 18.5t-32 20q-11 9 -11 24q0 12 7.5 20t20.5 8q8 0 14 -3.5t11 -6.5q35 -23 77 -32t75 -9q39 0 66 10.5t44.5 27t25.5 37t8 40.5
q0 32 -11 52.5t-31.5 33.5t-50 22t-66.5 18q-48 13 -81 27t-53 30.5t-28.5 36.5t-8.5 45q0 24 10 47.5t26 40.5q-22 21 -31.5 48t-9.5 62q0 38 14.5 70t41 55t63 36t80.5 13q65 0 112 -18.5t72 -38.5q11 -8 11 -22q0 -13 -7.5 -21.5t-20.5 -8.5q-8 0 -14 3t-11 6
q-72 42 -139 42q-39 0 -66 -10.5t-44.5 -27t-25.5 -36.5t-8 -40q0 -32 10.5 -53t31 -34.5t49.5 -22.5t67 -18q49 -11 82 -24.5t53 -30t28.5 -37t8.5 -45.5zM303 250q29 -7 55.5 -16t47.5 -18l2 2q9 8 14 22t5 25q0 16 -6 28t-21.5 22t-42 19t-66.5 19q-29 8 -56 16t-47 18
l-2 -2q-9 -8 -14 -21t-5 -25q0 -15 6 -27.5t21 -23t41.5 -20t67.5 -18.5z" />
    <glyph glyph-name="paragraph" unicode="&#xb6;" horiz-adv-x="687" 
d="M405 -192q-12 0 -20.5 8.5t-8.5 21.5v437h-35q-50 0 -91.5 14t-71.5 41.5t-47 67t-17 90.5q0 48 17 87t47 66.5t71.5 42.5t90.5 15h181q32 0 44.5 -13.5t12.5 -37.5v-810q0 -11 -8.5 -20.5t-20.5 -9.5t-20.5 9.5t-8.5 20.5v803h-86v-803q0 -13 -8 -21.5t-21 -8.5z
M172 487q0 -33 9.5 -61.5t29.5 -48.5t52 -31.5t76 -11.5h37v307h-37q-44 0 -76 -11.5t-52 -32.5t-29.5 -49t-9.5 -61z" />
    <glyph glyph-name="asciicircum" unicode="^" horiz-adv-x="645" 
d="M323 652q-10 0 -14 -10l-104 -269q-5 -11 -16.5 -16.5t-23.5 -0.5q-11 5 -16.5 17t-0.5 23l94 242q14 33 33 51t48 18q28 0 47.5 -18t32.5 -51l94 -242q5 -11 0 -23t-17 -17q-11 -5 -22.5 0.5t-16.5 16.5l-105 269q-4 10 -13 10z" />
    <glyph glyph-name="asciitilde" unicode="~" horiz-adv-x="623" 
d="M497 379q10 6 18.5 5t14.5 -5.5t9.5 -10.5t3.5 -12q0 -11 -6.5 -18.5t-16.5 -11.5q-65 -29 -111 -29q-29 0 -52.5 8t-46.5 18t-46.5 18t-51.5 8q-20 0 -40.5 -6.5t-43.5 -18.5q-11 -6 -20 -6t-15 4t-9.5 10.5t-3.5 12.5q0 11 6.5 18.5t16.5 11.5q32 14 59.5 21.5
t51.5 7.5q28 0 52 -8t47 -18t46.5 -18t51.5 -8q38 0 86 27z" />
    <glyph glyph-name="brokenbar" unicode="&#xa6;" horiz-adv-x="306" 
d="M150 311q13 0 21 -8.5t8 -21.5v-391q0 -13 -8 -21.5t-21 -8.5q-12 0 -20.5 9.5t-8.5 20.5v391q0 13 8.5 21.5t20.5 8.5zM150 835q13 0 21 -8.5t8 -21.5v-391q0 -12 -8 -21t-21 -9q-12 0 -20.5 9.5t-8.5 20.5v391q0 13 8.5 21.5t20.5 8.5z" />
    <glyph glyph-name="backslash" unicode="\" horiz-adv-x="331" 
d="M3 760q11 4 22.5 -1t16.5 -18l302 -762q5 -12 0.5 -23.5t-17.5 -16.5q-11 -4 -22 1t-16 17l-302 761q-5 13 -0.5 25t16.5 17z" />
    <glyph glyph-name="underscore" unicode="_" horiz-adv-x="472" 
d="M472 -195h-472v61h472v-61z" />
    <glyph glyph-name="quotesingle" unicode="'" horiz-adv-x="208" 
d="M133 538q0 -14 -8 -23t-21 -9q-12 0 -20.5 9t-8.5 23v130q0 14 8.5 22.5t20.5 8.5q13 0 21 -8.5t8 -22.5v-130z" />
    <glyph glyph-name="quotedbl" unicode="&#x22;" horiz-adv-x="331" 
d="M133 538q0 -14 -8 -23t-21 -9q-12 0 -20.5 9t-8.5 23v130q0 14 8.5 22.5t20.5 8.5q13 0 21 -8.5t8 -22.5v-130zM256 538q0 -14 -8 -23t-21 -9q-12 0 -20.5 9t-8.5 23v130q0 14 8.5 22.5t20.5 8.5q13 0 21 -8.5t8 -22.5v-130z" />
    <glyph glyph-name="at" unicode="@" horiz-adv-x="852" 
d="M476 130q18 8 30.5 1t14.5 -18q3 -14 -4 -25t-23 -16q-14 -5 -30 -7.5t-33 -2.5q-37 0 -69.5 11.5t-56.5 33t-38.5 53t-16.5 72.5q-2 34 0 69q1 37 14.5 69.5t37 57t55.5 39t71 14.5q43 0 76 -13.5t55.5 -37t34.5 -54t12 -63.5v-137q0 -26 17 -42t41 -16q23 0 40.5 16
t17.5 42v176q0 67 -23.5 120.5t-63.5 91t-94 57.5t-114 20t-111 -20t-89.5 -57t-62.5 -89t-29 -115q-5 -51 -3.5 -104t4.5 -90q6 -70 32.5 -120.5t66 -83.5t88 -48.5t97.5 -15.5q31 0 60.5 6.5t57.5 17.5q10 4 20 2t17 -11q6 -9 3.5 -22t-14.5 -19q-27 -14 -65 -22.5
t-78 -8.5q-60 0 -118.5 19t-106 58.5t-80 100t-39.5 142.5q-2 20 -3 47t-1 55.5t0.5 56t2.5 47.5q5 71 33 131.5t74.5 105t108.5 70t135 25.5t137 -25t112 -70t76 -108t28 -139v-177q0 -24 -9 -45t-25 -36.5t-37 -25t-46 -9.5q-23 0 -44 9t-37 24.5t-25.5 36.5t-9.5 46v128
q0 23 -8.5 44t-24 36.5t-37.5 25t-49 9.5q-24 0 -46 -8.5t-38.5 -25t-26 -40t-9.5 -52.5q-2 -29 0 -60q2 -38 18.5 -63.5t41 -39t53.5 -14.5t55 10z" />
    <glyph glyph-name="copyright" unicode="&#xa9;" horiz-adv-x="814" 
d="M407 707q63 0 117 -23.5t94 -64.5t64 -96.5t27 -120.5q1 -51 0 -102q-3 -65 -27 -121t-64 -97.5t-94 -65t-117 -23.5q-62 0 -116.5 23.5t-95 65t-64.5 97.5t-26 121q-2 51 0 102q2 69 26 125t64.5 96t95 62t116.5 22zM407 659q-52 0 -97 -17.5t-79.5 -50.5t-55 -81.5
t-22.5 -110.5q-1 -20 -1 -47t1 -45q3 -63 23.5 -112t54.5 -83t79 -51.5t97 -17.5t96.5 17.5t78.5 50.5t54.5 80t24.5 106q2 26 2 54.5t-2 53.5q-5 60 -25.5 107t-54 79.5t-78 50t-96.5 17.5zM408 191q37 0 65 18.5t42 48.5q2 6 7.5 11t14.5 5q8 0 16 -6t8 -18q0 -8 -4 -17
q-17 -42 -56 -67t-93 -25q-36 0 -65.5 13t-51 35.5t-35 52.5t-16.5 65q-4 44 0 91q3 34 16 63.5t35 51.5t51.5 35t65.5 13q54 0 93 -24t56 -66q4 -8 4 -18q0 -12 -7.5 -18t-16.5 -6q-8 0 -14 5t-8 10q-14 31 -42 49.5t-65 18.5q-51 0 -82 -32.5t-36 -83.5q-2 -25 -2 -45
t2 -44q4 -51 35.5 -83.5t82.5 -32.5z" />
    <glyph glyph-name="registered" unicode="&#xae;" horiz-adv-x="614" 
d="M315 458q30 0 42 14t12 35t-12.5 34.5t-39.5 13.5h-69v-97h67zM483 407q1 9 1 20.5v23.5v24t-1 21q-7 85 -56 129t-123 44q-73 0 -122.5 -44t-56.5 -129q-1 -9 -1.5 -21t-0.5 -24t0.5 -23.5t1.5 -20.5q7 -85 56.5 -130t122.5 -45q74 0 123 45t56 130zM308 414
q-4 5 -7 6.5t-11 1.5h-42v-87q0 -8 -5.5 -13t-14.5 -5q-7 0 -12.5 5t-5.5 13v226q0 12 8 21t22 9h79q18 0 34 -5.5t28.5 -16.5t20 -27.5t7.5 -37.5q0 -34 -17 -52t-45 -26l64 -76q3 -3 5.5 -7t2.5 -9q0 -7 -5.5 -12.5t-13.5 -5.5q-4 0 -8.5 2t-9.5 8zM521 408
q-2 -47 -19 -86.5t-46 -68t-68 -44t-84 -15.5t-83.5 15.5t-67.5 44t-46.5 68t-19.5 86.5q-1 18 -1 43t1 43q2 47 19.5 86.5t46.5 68t67.5 44t83.5 15.5t84 -15.5t68 -44t46 -68t19 -86.5q2 -18 2 -43t-2 -43z" />
    <glyph glyph-name="trademark" unicode="&#x2122;" horiz-adv-x="609" 
d="M176 468q0 -7 -5 -11.5t-10 -4.5q-7 0 -11.5 5t-4.5 11v192h-69q-6 0 -10.5 4t-4.5 11q0 6 4.5 10.5t10.5 4.5h167q7 0 11.5 -4.5t4.5 -10.5q0 -15 -16 -15h-67v-192zM323 693q22 0 28 -23l50 -190l50 190q3 10 9 16.5t17 6.5q24 0 29 -26l34 -195q2 -7 -1 -13t-11 -8
t-12.5 2.5t-5.5 11.5l-32 196l-49 -183q-7 -26 -28 -26t-29 26l-49 182l-32 -196q-2 -16 -19 -13q-7 2 -10 7.5t-1 12.5l33 196q6 26 29 26z" />
    <glyph glyph-name="ordfeminine" unicode="&#xaa;" horiz-adv-x="480" 
d="M427 323q10 -14 5.5 -27.5t-13.5 -18.5q-11 -7 -23.5 -4.5t-20.5 13.5q-8 10 -14 21t-11 22q-31 -26 -65 -42t-66 -16q-81 0 -124.5 45t-48.5 116q-1 12 -1.5 26.5t-0.5 29.5t0.5 28.5t1.5 23.5q5 80 50.5 123.5t122.5 43.5q28 0 54 -5t47.5 -12t37 -15t24.5 -14
q5 -5 7.5 -9.5t2.5 -13.5v-191q0 -25 2 -43t6.5 -32t11 -25.5t15.5 -23.5zM219 332q32 0 64.5 16.5t52.5 40.5q-4 27 -4.5 58.5t-0.5 71.5v97q-14 11 -45.5 20.5t-66.5 9.5q-57 0 -83 -29t-30 -77q-1 -10 -1.5 -23.5t-0.5 -27t0.5 -27t1.5 -23.5q4 -49 29 -78t84 -29z" />
    <glyph glyph-name="ordmasculine" unicode="&#xba;" horiz-adv-x="476" 
d="M415 441q-3 -36 -18 -67t-38.5 -53.5t-54 -35.5t-66.5 -13t-67 13t-54.5 36t-38 53.5t-17.5 66.5q-2 23 -2 50t2 50q3 36 17.5 66.5t38 53t54.5 35t67 12.5t66.5 -12.5t54 -35t38.5 -53t18 -66.5q2 -23 2 -50t-2 -50zM238 332q49 0 82.5 31.5t37.5 82.5q2 22 2 44.5
t-2 45.5q-5 48 -38 80t-82 32q-24 0 -45 -8.5t-37 -23.5t-26 -35.5t-13 -44.5q-3 -46 0 -90q4 -51 38 -82.5t83 -31.5z" />
    <glyph glyph-name="numbersign" unicode="#" horiz-adv-x="614" 
d="M137 10q-4 -11 -11.5 -15t-16.5 -4q-18 0 -24 13.5t-1 28.5l60 185h-61q-14 0 -22.5 8.5t-8.5 21.5q0 12 8.5 20t21.5 8h82l52 161h-65q-13 0 -21.5 8.5t-8.5 21.5q0 12 8.5 20t21.5 8h84l64 193q9 20 27 20q19 0 25 -13.5t1 -28.5l-56 -171h112l64 193q3 11 10.5 15.5
t16.5 4.5q19 0 25 -13.5t0 -28.5l-55 -171h63q13 0 21.5 -8t8.5 -20q0 -13 -9 -21.5t-21 -8.5h-84l-51 -161h66q13 0 21.5 -8t8.5 -20q0 -13 -9 -21.5t-21 -8.5h-87l-67 -208q-3 -11 -10.5 -15t-16.5 -4q-19 0 -24.5 13.5t-0.5 28.5l60 185h-113zM224 276h113l52 161h-113z
" />
    <glyph glyph-name="currency" unicode="&#xa4;" horiz-adv-x="623" 
d="M311 559q71 0 122 -45l85 87q9 10 21.5 10t23.5 -9q8 -8 8 -21.5t-9 -22.5l-91 -92q19 -37 21 -85q1 -16 0.5 -31t-0.5 -31q0 -23 -5.5 -44t-15.5 -40l91 -91q9 -9 9 -22t-8 -22q-11 -9 -23 -8.5t-22 9.5l-84 85q-50 -45 -123 -45t-122 45l-84 -85q-11 -9 -23 -9.5
t-22 8.5q-9 9 -9 22t10 22l90 91q-10 19 -14.5 40t-5.5 44q-1 31 0 62q1 23 5.5 44.5t14.5 40.5l-91 92q-9 9 -9 22.5t9 21.5q10 9 22.5 9t22.5 -10l85 -87q51 45 121 45zM311 501q-25 0 -46 -9t-37 -25t-26 -38t-11 -47q-2 -16 -1.5 -31.5t1.5 -32.5q1 -25 10.5 -46.5
t25.5 -37.5t37.5 -25t46.5 -9t46.5 9t37.5 25t25.5 37.5t10.5 46.5q1 28 0 64q-1 25 -10.5 47t-25.5 38t-37.5 25t-46.5 9z" />
    <glyph glyph-name="Euro" unicode="&#x20ac;" horiz-adv-x="652" 
d="M139 434q3 58 21.5 108.5t51 87t79 57.5t106.5 21q63 0 114.5 -19.5t88.5 -58.5q9 -9 9 -21t-8.5 -20.5t-20.5 -8.5q-7 0 -13 4t-11 9q-18 16 -34.5 26.5t-35 17.5t-40.5 10t-49 3q-48 0 -83.5 -16t-60.5 -44.5t-38.5 -68t-16.5 -87.5h207q11 0 20 -8t9 -21q0 -11 -9 -19
t-20 -8h-210v-55h210q11 0 20 -8t9 -20q0 -11 -9 -19.5t-20 -8.5h-207q3 -48 16.5 -88t38 -69.5t60.5 -45.5t84 -16q27 0 49 3t40.5 10t35 18t34.5 27q12 12 24 12t20.5 -8t8.5 -21q0 -11 -9 -21q-36 -38 -88 -58t-115 -20q-60 0 -106.5 21.5t-79 58.5t-51 87.5t-21.5 109.5
h-54q-13 0 -21.5 8.5t-8.5 19.5q0 12 8.5 20t21.5 8h52v55h-52q-13 0 -21.5 8t-8.5 19q0 13 8.5 21t21.5 8h54z" />
    <glyph glyph-name="dollar" unicode="$" horiz-adv-x="609" 
d="M540 191q0 -38 -16 -69.5t-44.5 -55t-66.5 -36.5t-82 -14v-77q0 -12 -8 -20t-19 -8t-19 8.5t-8 19.5v79q-59 5 -105 23t-81 44q-17 12 -17 27q0 13 8 21.5t20 8.5q5 0 11 -2t13 -7q34 -26 81.5 -43t96.5 -17q85 0 131.5 30t46.5 88q0 28 -8 48t-30 35.5t-60.5 28.5
t-99.5 26q-109 23 -156.5 64t-47.5 112q0 39 14 70.5t40 54.5t62.5 36.5t80.5 15.5v77q0 12 8 20.5t19 8.5t19 -8.5t8 -20.5v-79q45 -5 82 -18.5t62 -33.5q12 -10 12 -24q0 -11 -7.5 -20t-20.5 -9q-8 0 -13.5 3.5t-9.5 5.5q-37 23 -71 32.5t-63 9.5q-50 0 -81.5 -11t-50 -28
t-25.5 -38.5t-7 -43.5q0 -30 11 -50t33.5 -33t56 -22.5t77.5 -18.5q54 -11 95.5 -26t70 -37t43.5 -53t15 -74z" />
    <glyph glyph-name="cent" unicode="&#xa2;" horiz-adv-x="514" 
d="M323 582q47 -6 82.5 -32.5t54.5 -68.5q2 -5 3 -9.5t1 -7.5q0 -14 -8.5 -22t-19.5 -8t-18 5.5t-9 12.5q-14 35 -44 56t-68 21q-61 0 -94 -35.5t-38 -91.5q-5 -53 0 -105q5 -56 38 -90.5t94 -34.5q38 0 67.5 20.5t43.5 52.5q3 9 10 15.5t17 6.5q13 0 20.5 -8.5t7.5 -19.5
q0 -9 -4 -17q-44 -90 -136 -105v-97q0 -12 -8 -20.5t-20 -8.5q-11 0 -19 9t-8 20v97q-33 5 -61.5 20.5t-50 39t-34.5 54t-15 65.5q-2 26 -2 54t2 54q2 34 15 64.5t34.5 54t50 39t61.5 20.5v98q0 12 8 20.5t19 8.5q12 0 20 -8.5t8 -20.5v-98z" />
    <glyph glyph-name="sterling" unicode="&#xa3;" horiz-adv-x="554" 
d="M42 297q-11 0 -20.5 9t-9.5 21t9 20t21 8h61q-9 41 -18 80.5t-9 74.5q0 40 13.5 76.5t40 63.5t65.5 43t90 16q36 0 65 -7t52.5 -18.5t41 -25.5t30.5 -27q14 -14 14 -28q0 -12 -8 -19.5t-20 -7.5q-14 0 -28 14q-32 30 -64.5 46t-82.5 16q-42 0 -71 -13t-46.5 -33.5
t-25.5 -45.5t-8 -48q0 -33 10 -72.5t19 -84.5h162q13 0 21.5 -8t8.5 -20q0 -13 -9 -21.5t-21 -8.5h-156q7 -51 -9.5 -115.5t-48.5 -123.5h371q12 0 20.5 -8.5t8.5 -21.5q0 -12 -8.5 -20t-21.5 -8h-382q-25 0 -38 12.5t-13 31.5q0 11 4 21.5t12 25.5q27 52 40.5 102.5
t6.5 103.5h-69z" />
    <glyph glyph-name="florin" unicode="&#x192;" horiz-adv-x="564" 
d="M404 381q11 0 19.5 -7.5t8.5 -19.5q0 -11 -8.5 -18.5t-19.5 -7.5h-183l-154 -509q-4 -12 -14.5 -18.5t-22.5 -2.5q-11 3 -17.5 14.5t-1.5 25.5l151 490h-53q-11 0 -19.5 7.5t-8.5 18.5q0 12 8 19.5t20 7.5h69l67 216q18 57 59 84.5t93 27.5q54 0 91 -17t60 -40
q8 -8 8 -20t-8 -20t-20 -6.5t-20 9.5q-14 14 -39.5 27.5t-65.5 13.5q-49 0 -71.5 -20.5t-34.5 -61.5l-59 -193h166z" />
    <glyph glyph-name="yen" unicode="&#xa5;" horiz-adv-x="641" 
d="M594 704q11 0 20 -8.5t9 -19.5t-8 -21l-238 -294q-12 -15 -19.5 -25.5t-7.5 -31.5v-14h138q11 0 20 -8t9 -20q0 -11 -9 -18.5t-20 -7.5h-138v-210q0 -13 -8.5 -21.5t-20.5 -8.5t-20.5 9t-8.5 21v210h-139q-12 0 -20 7.5t-8 18.5q0 12 8 20t20 8h139v14q0 21 -8.5 32
t-20.5 26l-237 293q-8 10 -8 21t9 19.5t20 8.5q14 0 23 -11l251 -312l250 312q9 11 23 11z" />
    <glyph glyph-name="zero" unicode="0" horiz-adv-x="688" 
d="M598 260q-3 -58 -22.5 -106.5t-53 -83t-79 -54t-99.5 -19.5t-99.5 19t-79 54t-53 83t-22.5 107q-1 20 -1.5 44t-0.5 48.5t0.5 49t1.5 44.5q3 58 22.5 106.5t53 83t79 53.5t99.5 19t99.5 -19t79 -53.5t53 -83t22.5 -106.5q1 -20 1.5 -44.5t0.5 -49t-0.5 -48.5t-1.5 -44z
M539 258q3 42 2.5 94.5t-2.5 94.5q-6 94 -57 148.5t-138 54.5t-138 -54.5t-57 -148.5q-2 -42 -2.5 -94.5t2.5 -94.5q6 -94 57 -148.5t138 -54.5t138 54.5t57 148.5z" />
    <glyph glyph-name="one" unicode="1" horiz-adv-x="438" 
d="M254 703q17 0 27.5 -10.5t10.5 -28.5v-638q0 -13 -8 -21.5t-21 -8.5q-12 0 -21 8.5t-9 21.5v604l-133 -73q-12 -6 -24.5 -4t-18.5 15q-6 12 -2 23.5t15 17.5l146 81q8 4 16 8.5t22 4.5z" />
    <glyph glyph-name="two" unicode="2" horiz-adv-x="580" 
d="M62 48q0 32 9 61t28 57t48 55.5t69 56.5q63 45 105 76t67.5 57t36 51.5t10.5 59.5q0 23 -8.5 46t-27.5 42t-49 30.5t-72 11.5q-57 0 -96 -23t-63 -55q-3 -5 -10.5 -9.5t-16.5 -4.5q-16 0 -26 14.5t1 30.5q13 19 32.5 37.5t45.5 33.5t58.5 24t71.5 9q54 0 94.5 -15
t68 -40.5t41.5 -59.5t14 -72q0 -44 -13 -77t-41 -63t-70.5 -62.5t-102.5 -75.5q-43 -31 -71 -55t-44.5 -45.5t-23.5 -42t-7 -43.5h358q13 0 21.5 -9t8.5 -21t-8.5 -20t-21.5 -8h-368q-21 0 -34.5 12.5t-13.5 35.5z" />
    <glyph glyph-name="three" unicode="3" horiz-adv-x="585" 
d="M281 442q5 0 9 0.5t9 0.5q43 0 79.5 -14.5t63 -40t41.5 -61t15 -77.5q0 -59 -25.5 -106t-73 -79.5t-116 -50t-155.5 -17.5h-24t-24 1q-14 1 -23 9t-9 21q0 12 8 21t21 8q15 -2 30 -2h29q69 0 125 12.5t95.5 37.5t61 61.5t21.5 83.5q0 32 -11.5 57.5t-32.5 43t-49 27
t-61 9.5q-32 0 -44 -3t-23 -3q-13 0 -22 8.5t-9 20.5q0 5 2 10.5t6 9.5l188 211h-306q-12 0 -21 8.5t-9 20.5t9 20.5t21 8.5h328q21 0 36 -13t15 -33q0 -13 -10 -30z" />
    <glyph glyph-name="four" unicode="4" horiz-adv-x="661" 
d="M493 178v-147q0 -12 -8 -21.5t-20 -9.5q-13 0 -21.5 9t-8.5 22v147h-315q-22 0 -40.5 13t-18.5 39q0 21 18 45l304 398q9 11 21 21.5t33 10.5q23 0 35 -9t16.5 -21t4.5 -24v-18v-398h85q12 0 20 -8t8 -20q0 -11 -8.5 -20t-19.5 -9h-85zM435 235v413l-314 -413h314z" />
    <glyph glyph-name="five" unicode="5" horiz-adv-x="600" 
d="M533 266q0 -132 -110 -201.5t-314 -69.5q-14 0 -22.5 8t-8.5 20q0 18 11.5 24t25.5 6q82 0 149 13t113.5 39.5t72 67t25.5 95.5q0 28 -11.5 52.5t-32 42t-48.5 27.5t-61 10t-59.5 -5.5t-47.5 -13t-36 -15.5t-25 -13q-13 -8 -23.5 -7.5t-17.5 5t-11 12.5t-4 17v263
q0 32 18 44t41 12h303q12 0 21 -8t9 -21q0 -12 -9 -20.5t-21 -8.5h-306v-228q30 17 68.5 30t96.5 13q47 0 86.5 -14t68 -39.5t44 -60t15.5 -76.5z" />
    <glyph glyph-name="six" unicode="6" horiz-adv-x="662" 
d="M506 647q-13 0 -36 4t-60 4q-56 0 -102 -18t-80 -52t-54.5 -83t-24.5 -110q33 16 82.5 31.5t112.5 15.5q54 0 98 -14t75.5 -41.5t49 -68t17.5 -92.5q0 -47 -15 -89.5t-45 -74.5t-75.5 -51t-106.5 -19q-74 0 -124.5 27.5t-80.5 77.5t-41.5 118.5t-6.5 151.5
q5 84 29.5 149.5t66 109.5t98.5 67t127 23q23 0 48.5 -1.5t49.5 -6.5q14 -2 20.5 -11t6.5 -19q0 -11 -7.5 -19.5t-21.5 -8.5zM344 381q-65 0 -114 -17t-84 -37q-4 -71 8 -123t38 -87t65 -52t88 -17q46 0 80.5 13.5t56.5 37t33 55.5t11 69q0 76 -45.5 117t-136.5 41z" />
    <glyph glyph-name="seven" unicode="7" horiz-adv-x="519" 
d="M161 -4q-14 0 -21 8.5t-7 19.5q0 5 0.5 8.5t1.5 8.5q17 64 40 124.5t57.5 129.5t82 152.5t114.5 193.5h-361q-13 0 -21.5 8.5t-8.5 19.5q0 13 8.5 21.5t21.5 8.5h373q22 0 35.5 -12t13.5 -32q0 -16 -10 -34q-71 -118 -119.5 -202t-82 -150.5t-54.5 -124.5t-36 -124
q-3 -14 -11 -19t-16 -5z" />
    <glyph glyph-name="eight" unicode="8" horiz-adv-x="675" 
d="M335 652q-48 0 -81.5 -9.5t-54.5 -26.5t-31 -39.5t-10 -49.5q0 -63 48 -97.5t129 -34.5q86 0 132 35.5t46 95.5q0 27 -9.5 50.5t-30.5 40t-55 26t-83 9.5zM335 337q-98 0 -146 -41t-48 -105q0 -30 11 -56t35 -45t60.5 -30t87.5 -11q53 0 90.5 11.5t61.5 31t35.5 45
t11.5 53.5q0 68 -53.5 107.5t-145.5 39.5zM335 -9q-62 0 -109.5 14.5t-79 40.5t-47.5 62.5t-16 81.5q0 72 37 117.5t92 59.5q-21 6 -41 18t-36 31.5t-26 46.5t-10 64q0 83 60.5 132.5t175.5 49.5q118 0 178 -49.5t60 -132.5q0 -63 -30.5 -102t-78.5 -58q58 -18 93 -61.5
t35 -114.5q0 -90 -64.5 -145t-192.5 -55z" />
    <glyph glyph-name="nine" unicode="9" horiz-adv-x="655" 
d="M150 53q66 0 127 7t109 32t79.5 74t40.5 134q-36 -18 -85 -31.5t-106 -13.5q-54 0 -97.5 14.5t-74.5 43t-48 70t-17 95.5q0 50 15.5 93t46 74t75 48.5t103.5 17.5q69 0 117 -22.5t77 -65.5t42 -105.5t13 -141.5q0 -107 -24.5 -180t-75.5 -117.5t-129.5 -64t-186.5 -19.5
q-12 0 -21 7t-10 20q-1 11 7 21t23 10zM319 313q29 0 54 4t47.5 11t44 16.5t44.5 20.5q0 74 -8.5 128.5t-30.5 90t-58.5 52.5t-93.5 17q-94 0 -138 -48.5t-44 -127.5q0 -76 42.5 -120t140.5 -44z" />
    <glyph glyph-name="onesuperior" unicode="&#xb9;" horiz-adv-x="326" 
d="M158 621l-66 -37q-11 -6 -22.5 -3.5t-17.5 13.5t-2.5 23.5t14.5 17.5l108 61q10 4 16 4q12 0 20 -8.5t8 -20.5v-400q0 -12 -8 -20t-21 -8q-12 0 -20.5 8.5t-8.5 19.5v350z" />
    <glyph glyph-name="twosuperior" unicode="&#xb2;" horiz-adv-x="463" 
d="M79 291q0 41 26.5 77.5t76.5 72.5q16 12 39 26t44 31t36 37.5t15 45.5q0 13 -5.5 26.5t-16.5 24t-28 17t-40 6.5q-33 0 -55.5 -14t-37.5 -34q-5 -6 -10.5 -11t-15.5 -5q-13 0 -20.5 8t-7.5 19t7 21q17 25 51.5 47.5t88.5 22.5q35 0 62 -10t45 -27.5t27.5 -41t9.5 -49.5
q0 -29 -9 -50.5t-27.5 -41t-47.5 -39.5t-69 -47q-45 -31 -62.5 -55.5t-21.5 -47.5h217q12 0 20.5 -7.5t8.5 -19.5q0 -13 -8.5 -20.5t-20.5 -7.5h-230q-17 0 -29 12.5t-12 33.5z" />
    <glyph glyph-name="threesuperior" unicode="&#xb3;" horiz-adv-x="436" 
d="M185 476q-12 0 -21.5 7t-9.5 21q0 13 10 23l112 112h-179q-13 0 -21 8.5t-8 19.5q0 13 8 20t21 7h205q17 0 30.5 -10.5t13.5 -28.5q0 -7 -3 -16t-16 -23l-86 -84q27 -2 51 -12t41.5 -27t27.5 -39.5t10 -49.5q0 -79 -64.5 -124t-175.5 -45h-17t-17 1q-12 1 -20.5 7.5
t-8.5 19.5q0 11 8 18t21 7h38q40 0 73.5 8t58 23t38 36t13.5 48q0 34 -25.5 55.5t-57.5 21.5q-21 0 -31 -2t-19 -2z" />
    <glyph glyph-name="fraction" unicode="&#x2044;" horiz-adv-x="300" 
d="M263 712q5 11 15.5 16t21.5 1q12 -4 17 -15.5t0 -23.5l-279 -704q-5 -11 -16 -16t-22 0q-12 5 -16.5 15.5t0.5 23.5z" />
    <glyph glyph-name="onequarter" unicode="&#xbc;" horiz-adv-x="947" 
d="M500 712q5 11 16 16t21 1q12 -5 17 -16t0 -23l-279 -704q-5 -11 -15.5 -15.5t-21.5 -0.5q-12 5 -17.5 15.5t-0.5 21.5zM160 625l-68 -37q-11 -6 -22.5 -4.5t-17.5 12.5t-2.5 22.5t14.5 16.5l108 61q10 4 16 4q12 0 19 -8.5t7 -20.5v-400q0 -12 -7 -20t-20 -8
q-12 0 -19.5 8.5t-7.5 19.5v354zM845 161q12 0 21 -7.5t9 -20.5t-8.5 -20t-21.5 -7h-43v-76q0 -11 -6.5 -20.5t-19.5 -9.5q-14 0 -21 8.5t-7 21.5v76h-205q-23 0 -36.5 12.5t-13.5 32.5q0 8 3 17.5t16 23.5l204 241q11 12 20.5 18.5t22.5 6.5q22 0 32.5 -13.5t10.5 -33.5
v-250h43zM554 161h194v228z" />
    <glyph glyph-name="onehalf" unicode="&#xbd;" horiz-adv-x="926" 
d="M160 625l-68 -37q-11 -6 -22.5 -4.5t-17.5 12.5t-2.5 22.5t14.5 16.5l108 61q10 4 16 4q12 0 19 -8.5t7 -20.5v-400q0 -12 -7 -20t-20 -8q-12 0 -19.5 8.5t-7.5 19.5v354zM502 712q5 11 15.5 16t21.5 1q12 -4 17 -15.5t0 -23.5l-279 -704q-5 -11 -16 -16t-22 0
q-12 5 -16.5 15.5t0.5 23.5zM543 45q0 41 26.5 77.5t76.5 72.5q16 12 39 26t44 31t36 37.5t15 45.5q0 13 -5.5 26.5t-16.5 24t-28 17t-40 6.5q-33 0 -55.5 -14t-37.5 -34q-5 -6 -10.5 -11t-15.5 -5q-13 0 -20.5 8t-7.5 19t7 21q17 25 51.5 47.5t88.5 22.5q35 0 62 -10
t45 -27.5t27.5 -41t9.5 -49.5q0 -29 -9 -50.5t-27.5 -41t-47.5 -39.5t-69 -47q-45 -31 -62.5 -55.5t-21.5 -47.5h217q12 0 20.5 -7.5t8.5 -19.5q0 -13 -8.5 -20.5t-20.5 -7.5h-230q-17 0 -29 12.5t-12 33.5z" />
    <glyph glyph-name="threequarters" unicode="&#xbe;" horiz-adv-x="1062" 
d="M977 161q12 0 21 -7.5t9 -20.5t-8.5 -20t-21.5 -7h-43v-76q0 -11 -6.5 -20.5t-19.5 -9.5q-14 0 -21 8.5t-7 21.5v76h-205q-23 0 -36.5 12.5t-13.5 32.5q0 8 3 17.5t16 23.5l204 241q11 12 20.5 18.5t22.5 6.5q22 0 32.5 -13.5t10.5 -33.5v-250h43zM185 476q-12 0 -21.5 7
t-9.5 21q0 13 10 23l112 112h-179q-13 0 -21 8.5t-8 19.5q0 13 8 20t21 7h205q17 0 30.5 -10.5t13.5 -28.5q0 -7 -3 -16t-16 -23l-86 -84q27 -2 51 -12t41.5 -27t27.5 -39.5t10 -49.5q0 -79 -64.5 -124t-175.5 -45h-17t-17 1q-12 1 -20.5 7.5t-8.5 19.5q0 11 8 18t21 7h38
q40 0 73.5 8t58 23t38 36t13.5 48q0 34 -25.5 55.5t-57.5 21.5q-21 0 -31 -2t-19 -2zM633 712q5 11 16 16t22 1q11 -5 16 -16t0 -23l-279 -704q-5 -11 -15 -16.5t-24 -0.5q-11 5 -16 16t0 22zM685 161h195v228z" />
    <glyph glyph-name="percent" unicode="%" horiz-adv-x="708" 
d="M188 709q30 0 55.5 -11t44.5 -30t30 -45t13 -55q2 -28 0 -56q-2 -30 -13.5 -55.5t-30.5 -44.5t-44 -30t-55 -11t-55.5 11t-44.5 30t-31 44.5t-13 55.5q-1 13 -1 28.5t1 27.5q1 29 12.5 55t31 45t45 30t55.5 11zM187 655q-37 0 -61 -25.5t-27 -63.5q-2 -27 0 -53
q2 -38 26.5 -62.5t61.5 -24.5q38 0 63 24.5t27 63.5q2 23 0 52q-2 38 -27 63.5t-63 25.5zM539 603q8 10 19.5 11t20.5 -6q9 -8 9.5 -20t-7.5 -20q-48 -54 -99.5 -113t-103.5 -119t-103 -119t-99 -114q-8 -10 -19.5 -10.5t-20.5 6.5q-8 8 -8.5 19.5t6.5 19.5zM521 328
q30 0 55.5 -11t44.5 -30t30 -45t13 -55q2 -28 0 -56q-2 -30 -13.5 -55.5t-30.5 -44.5t-44 -30t-55 -11t-55.5 11t-44.5 30t-31 44.5t-13 55.5q-1 13 -1 28.5t1 27.5q1 29 12.5 55t31 45t45 30t55.5 11zM520 274q-37 0 -61 -25.5t-27 -63.5q-2 -27 0 -53q2 -38 26.5 -62.5
t61.5 -24.5q38 0 63 24.5t27 63.5q2 23 0 52q-2 38 -27 63.5t-63 25.5z" />
    <glyph glyph-name="perthousand" unicode="&#x2030;" horiz-adv-x="1044" 
d="M188 709q30 0 55.5 -11t44.5 -30t30 -45t13 -55q2 -28 0 -56q-2 -30 -13.5 -55.5t-30.5 -44.5t-44 -30t-55 -11t-55.5 11t-44.5 30t-31 44.5t-13 55.5q-1 13 -1 28.5t1 27.5q1 29 12.5 55t31 45t45 30t55.5 11zM187 655q-37 0 -61 -25.5t-27 -63.5q-2 -27 0 -53
q2 -38 26.5 -62.5t61.5 -24.5q38 0 63 24.5t27 63.5q2 23 0 52q-2 38 -27 63.5t-63 25.5zM539 603q8 10 19.5 11t20.5 -6q9 -8 9.5 -20t-7.5 -20q-48 -54 -99.5 -113t-103.5 -119t-103 -119t-99 -114q-8 -10 -19.5 -10.5t-20.5 6.5q-8 8 -8.5 19.5t6.5 19.5zM521 328
q30 0 55.5 -11t44.5 -30t30 -45t13 -55q2 -28 0 -56q-2 -30 -13.5 -55.5t-30.5 -44.5t-44 -30t-55 -11t-55.5 11t-44.5 30t-31 44.5t-13 55.5q-1 13 -1 28.5t1 27.5q1 29 12.5 55t31 45t45 30t55.5 11zM520 274q-37 0 -61 -25.5t-27 -63.5q-2 -27 0 -53q2 -38 26.5 -62.5
t61.5 -24.5q38 0 63 24.5t27 63.5q2 23 0 52q-2 38 -27 63.5t-63 25.5zM857 328q30 0 55.5 -11t44.5 -30t30 -45t13 -55q2 -28 0 -56q-2 -30 -13.5 -55.5t-30.5 -44.5t-44 -30t-55 -11t-55.5 11t-44.5 30t-31 44.5t-13 55.5q-1 13 -1 28.5t1 27.5q1 29 12.5 55t31 45t45 30
t55.5 11zM856 274q-37 0 -61 -25.5t-27 -63.5q-2 -27 0 -53q2 -38 26.5 -62.5t61.5 -24.5q38 0 63 24.5t27 63.5q2 23 0 52q-2 38 -27 63.5t-63 25.5z" />
    <glyph glyph-name="plus" unicode="+" horiz-adv-x="628" 
d="M286 321h-192q-13 0 -22 8.5t-9 20.5q0 13 9 21t22 8h192v195q0 13 8.5 22t20.5 9q13 0 21 -9t8 -22v-195h193q13 0 22 -8t9 -21q0 -12 -9.5 -20.5t-21.5 -8.5h-193v-195q0 -13 -8 -22t-21 -9t-21 9t-8 22v195z" />
    <glyph glyph-name="minus" unicode="&#x2212;" horiz-adv-x="628" 
d="M90 321q-13 0 -21.5 8.5t-8.5 20.5q0 13 8.5 21t21.5 8h448q13 0 21.5 -8t8.5 -21q0 -12 -9 -20.5t-21 -8.5h-448z" />
    <glyph glyph-name="plusminus" unicode="&#xb1;" horiz-adv-x="628" 
d="M91 0q-13 0 -22 8.5t-9 20.5q0 13 9 21t22 8h446q13 0 22 -8t9 -21q0 -12 -9.5 -20.5t-21.5 -8.5h-446zM286 312h-195q-13 0 -22 8.5t-9 20.5q0 14 9 21.5t22 7.5h195v195q0 14 8.5 22.5t20.5 8.5q13 0 21 -8.5t8 -22.5v-195h193q13 0 22 -7.5t9 -21.5q0 -12 -9.5 -20.5
t-21.5 -8.5h-193v-194q0 -14 -8 -22.5t-21 -8.5q-12 0 -20.5 9t-8.5 22v194z" />
    <glyph glyph-name="multiply" unicode="&#xd7;" horiz-adv-x="628" 
d="M532 177q9 -8 9.5 -20.5t-7.5 -21.5q-9 -10 -22 -9t-23 10l-175 175l-177 -178q-10 -9 -22 -10t-22 8q-8 8 -8 20.5t9 21.5l179 179l-179 177q-9 9 -9 21.5t8 20.5q10 9 22 8t22 -10l177 -178l175 175q10 9 23 10.5t22 -8.5q8 -9 7.5 -21t-9.5 -20l-177 -175z" />
    <glyph glyph-name="divide" unicode="&#xf7;" horiz-adv-x="628" 
d="M91 321q-13 0 -22 8.5t-9 20.5q0 13 9 21t22 8h446q13 0 22 -8t9 -21q0 -12 -9.5 -20.5t-21.5 -8.5h-446zM271 527q0 18 13 30.5t30 12.5q18 0 30.5 -12.5t12.5 -30.5q0 -17 -12.5 -30t-30.5 -13q-17 0 -30 13t-13 30zM271 174q0 17 13 30t30 13q18 0 30.5 -13t12.5 -30
q0 -18 -12.5 -31t-30.5 -13q-17 0 -30 13t-13 31z" />
    <glyph glyph-name="equal" unicode="=" horiz-adv-x="628" 
d="M97 407q-13 0 -21.5 8t-8.5 20q0 13 8.5 21.5t21.5 8.5h434q13 0 21.5 -8.5t8.5 -21.5q0 -12 -9 -20t-21 -8h-434zM97 236q-13 0 -21.5 8.5t-8.5 20.5q0 13 8.5 21t21.5 8h434q13 0 21.5 -8t8.5 -21q0 -12 -9 -20.5t-21 -8.5h-434z" />
    <glyph glyph-name="less" unicode="&#x3c;" horiz-adv-x="628" 
d="M476 643q8 -10 6 -22.5t-12 -20.5l-292 -236q-3 -2 -6 -5.5t-3 -8.5t3 -8.5t6 -5.5l293 -237q10 -8 11.5 -20t-6.5 -22t-20 -10.5t-23 7.5l-280 227q-22 18 -32.5 34t-10.5 35t10.5 35t32.5 34l280 227q11 8 23 7.5t20 -10.5z" />
    <glyph glyph-name="greater" unicode="&#x3e;" horiz-adv-x="628" 
d="M150 643q8 10 20 10.5t23 -7.5l280 -227q22 -18 32.5 -34t10.5 -35t-10.5 -35t-32.5 -34l-280 -227q-11 -8 -23 -7.5t-20 10.5t-6.5 22t11.5 20l293 237q3 2 6 5.5t3 8.5t-3 8.5t-6 5.5l-292 236q-10 8 -12 20.5t6 22.5z" />
    <glyph glyph-name="lessequal" unicode="&#x2264;" horiz-adv-x="628" 
d="M146 -10q-13 0 -21.5 8.5t-8.5 20.5q0 13 8.5 21t21.5 8h336q13 0 21.5 -8t8.5 -21q0 -12 -9 -20.5t-21 -8.5h-336zM505 572q6 -11 3 -23t-14 -18l-309 -178q-6 -4 -9 -7t-3 -8q0 -8 12 -15l309 -178q11 -6 14 -18t-3 -23q-7 -11 -19 -13t-23 5l-297 172q-29 17 -39.5 34
t-10.5 36t10.5 36t39.5 34l297 173q11 6 23 4t19 -13z" />
    <glyph glyph-name="greaterequal" unicode="&#x2265;" horiz-adv-x="628" 
d="M147 -10q-12 0 -21 8.5t-9 20.5q0 13 8.5 21t21.5 8h336q13 0 21.5 -8t8.5 -21q0 -12 -8.5 -20.5t-21.5 -8.5h-336zM124 572q7 11 19 13t23 -4l297 -173q29 -17 39.5 -34t10.5 -36t-10.5 -36t-39.5 -34l-297 -172q-11 -7 -23 -5t-19 13q-6 11 -3 23t14 18l309 178
q12 7 12 15q0 5 -3 8t-9 7l-309 178q-11 6 -14 18t3 23z" />
    <glyph glyph-name="logicalnot" unicode="&#xac;" horiz-adv-x="628" 
d="M567 125q0 -13 -8 -21.5t-21 -8.5q-12 0 -20.5 9t-8.5 21v197h-419q-13 0 -21.5 8.5t-8.5 20.5q0 13 8.5 21t21.5 8h417q29 0 44.5 -17t15.5 -42v-196z" />
    <glyph glyph-name="degree" unicode="&#xb0;" horiz-adv-x="353" 
d="M50 581q0 26 10 49t27.5 40.5t40 27.5t48.5 10t49 -10t40.5 -27.5t27.5 -40.5t10 -49t-10 -48.5t-27.5 -40t-40.5 -27.5t-49 -10t-48.5 10t-40 27.5t-27.5 40t-10 48.5zM100 581q0 -32 22 -54.5t54 -22.5q33 0 55.5 22.5t22.5 54.5t-22.5 55t-55.5 23q-32 0 -54 -23
t-22 -55z" />
    <glyph glyph-name="mu" unicode="&#xb5;" horiz-adv-x="620" 
d="M104 489q0 13 8.5 22t20.5 9t20.5 -9t8.5 -22v-303q0 -64 35.5 -102.5t104.5 -38.5q51 0 90.5 13t64.5 29v402q0 13 8 22t21 9q11 0 20 -9t9 -22v-413q0 -21 -15 -29q-11 -8 -29 -17.5t-43 -18t-57 -14.5t-71 -6q-42 0 -77 10.5t-61 37.5v-185q0 -13 -8.5 -21.5
t-20.5 -8.5q-13 0 -21 8.5t-8 21.5v635z" />
    <glyph glyph-name="mu" unicode="&#x3bc;" horiz-adv-x="620" 
d="M104 489q0 13 8.5 22t20.5 9t20.5 -9t8.5 -22v-303q0 -64 35.5 -102.5t104.5 -38.5q51 0 90.5 13t64.5 29v402q0 13 8 22t21 9q11 0 20 -9t9 -22v-413q0 -21 -15 -29q-11 -8 -29 -17.5t-43 -18t-57 -14.5t-71 -6q-42 0 -77 10.5t-61 37.5v-185q0 -13 -8.5 -21.5
t-20.5 -8.5q-13 0 -21 8.5t-8 21.5v635z" />
    <glyph glyph-name="fl" unicode="&#xfb02;" horiz-adv-x="636" 
d="M113 561q0 33 9 61t27.5 48.5t46.5 32t66 11.5q20 0 45 -3t42 -9q19 -7 19 -27q0 -10 -7 -18t-21 -8t-30 4.5t-52 4.5q-47 0 -67 -27.5t-20 -76.5v-47h151q11 0 20 -8t9 -21q0 -11 -9 -19t-20 -8h-151v-425q0 -13 -8 -21.5t-21 -8.5q-11 0 -20 8.5t-9 21.5v425h-39
q-13 0 -21.5 8t-8.5 19q0 13 8.5 21t21.5 8h39v54zM507 708q12 0 20.5 -9t8.5 -22v-651q0 -12 -8.5 -21t-20.5 -9t-20.5 9t-8.5 21v651q0 13 8 22t21 9z" />
    <glyph glyph-name="ampersand" unicode="&#x26;" horiz-adv-x="681" 
d="M587 334q15 0 21.5 -9.5t6.5 -21.5v-11q0 -48 -14.5 -93.5t-41.5 -84.5l72 -64q11 -10 12 -23t-7 -23t-21 -10t-23 9l-72 65q-38 -35 -88.5 -56t-113.5 -21q-61 0 -108 14.5t-79 40t-48.5 61t-16.5 76.5q0 63 35 106t99 69q-39 32 -69 72t-30 92q0 39 13.5 72t40 56.5
t65 37t89.5 13.5q50 0 89.5 -12.5t67 -35t42 -54.5t14.5 -70q0 -74 -49.5 -120t-160.5 -76l203 -181q20 30 31.5 65.5t11.5 76.5q-1 21 7.5 30.5t21.5 9.5zM159 522q0 -23 9 -42t23.5 -36.5t34 -33.5t40.5 -32q52 13 89 26.5t61 30.5t35 39.5t11 53.5q0 23 -8.5 44
t-27.5 36.5t-48 25t-69 9.5q-41 0 -69.5 -10t-46.5 -26.5t-26 -38.5t-8 -46zM317 49q46 0 86.5 15t72.5 44l-228 208q-68 -22 -96 -53.5t-28 -79.5q0 -60 51 -97t142 -37z" />
    <glyph glyph-name="Q.alt" horiz-adv-x="726" 
d="M333 -7q-53 5 -98.5 28t-79.5 59.5t-54.5 84.5t-24.5 104q-6 80 0 162q4 58 27 108.5t61 88t88.5 59t109.5 21.5t110 -21.5t89.5 -58.5t62 -88t27.5 -109q6 -82 0 -162q-4 -56 -25 -104t-55.5 -84.5t-80 -59.5t-99.5 -28v-125q0 -14 -7.5 -23t-21.5 -9q-13 0 -21 9.5
t-8 22.5v125zM391 50q42 5 77 23t61 46.5t42.5 66t20.5 81.5q7 82 0 165q-5 47 -23.5 87t-49 69t-70.5 45.5t-87 16.5t-86.5 -16.5t-69 -45.5t-48.5 -69t-23 -87q-8 -83 0 -165q4 -44 20 -81.5t42 -66t60.5 -46.5t75.5 -23v131q0 14 8.5 23t20.5 9q14 0 21.5 -9.5t7.5 -22.5
v-131z" />
    <glyph glyph-name="r.alt" horiz-adv-x="371" 
d="M258 527q20 0 41.5 -2t39.5 -7q11 -3 16 -10.5t5 -16.5q0 -10 -6.5 -18.5t-20.5 -8.5t-30 3.5t-38 3.5q-35 0 -63.5 -9t-48.5 -26v-405q0 -13 -8 -22t-21 -9q-12 0 -20.5 9t-8.5 22v411q0 13 4 19t11 13q22 20 59.5 36.5t88.5 16.5z" />
    <glyph glyph-name="zero.onum" horiz-adv-x="627" 
d="M314 529q48 0 90.5 -15t75.5 -43.5t54 -69t26 -91.5q3 -31 2.5 -58t-3.5 -56q-5 -48 -26 -87t-53.5 -67t-75 -43t-90.5 -15q-49 0 -91 15t-74.5 43.5t-53 69.5t-26.5 92q-2 15 -3 28t-1 26t1.5 27.5t3.5 32.5q6 48 26.5 87t52.5 66.5t74 42.5t91 15zM314 475
q-78 0 -129 -45.5t-59 -126.5q-2 -15 -2.5 -26t-0.5 -21.5t0.5 -21t2.5 -24.5q10 -81 60 -126t128 -45q77 0 128.5 45.5t59.5 126.5q1 15 2 26.5t1 21.5t-1 20.5t-2 24.5q-9 81 -59.5 126t-128.5 45z" />
    <glyph glyph-name="one.onum" horiz-adv-x="438" 
d="M270 521q12 0 20.5 -8t8.5 -22v-465q0 -13 -8 -21.5t-21 -8.5q-12 0 -20.5 9.5t-8.5 20.5v419l-152 -67q-12 -5 -24 -1.5t-17 14.5q-5 12 -0.5 23.5t14.5 16.5l193 86q8 4 15 4z" />
    <glyph glyph-name="two.onum" horiz-adv-x="580" 
d="M62 48q0 45 14.5 76t41.5 53.5t65 38.5t85 31q55 18 88 33t50.5 29.5t23 29.5t5.5 32q0 20 -8 38.5t-26 32t-46.5 21.5t-70.5 8q-59 0 -101.5 -22.5t-61.5 -51.5q-6 -10 -14.5 -17t-16.5 -7q-15 0 -22 8.5t-7 19.5q0 15 13 34q13 18 34 34.5t48 29.5t59.5 20.5t68.5 7.5
q55 0 94.5 -12.5t65 -33.5t37.5 -50t12 -62q0 -29 -8.5 -52.5t-30 -43.5t-58 -38t-91.5 -34q-57 -17 -93 -33t-56.5 -32.5t-28 -35.5t-7.5 -42h358q14 0 22.5 -8t8.5 -21t-8.5 -21t-22.5 -8h-368q-21 0 -34.5 12.5t-13.5 35.5z" />
    <glyph glyph-name="three.onum" horiz-adv-x="585" 
d="M278 254q46 3 86 -10t69.5 -38.5t46.5 -62t17 -81.5q0 -118 -92.5 -185.5t-269.5 -67.5q-14 0 -28 0.5t-28 1.5q-13 1 -21.5 8.5t-9.5 19.5q-1 13 7.5 22.5t21.5 7.5q33 -3 64 -3q68 0 123 13t94 38t60 61t21 83q0 32 -11.5 57.5t-32 43t-48 26.5t-60.5 9q-32 0 -45 -3
t-23 -3q-14 0 -23 9t-9 20q0 13 8 23l195 208h-313q-12 0 -21 8.5t-9 20.5q0 13 9 21t21 8h332q20 0 33.5 -13t13.5 -30q0 -22 -14 -38z" />
    <glyph glyph-name="four.onum" horiz-adv-x="661" 
d="M494 0v-160q0 -12 -8.5 -21t-20.5 -9q-13 0 -21.5 8.5t-8.5 21.5v160h-295q-18 0 -34.5 13.5t-16.5 37.5q0 14 4.5 24.5t13.5 23.5l263 368q12 17 26 31t41 14q22 0 39.5 -14.5t17.5 -46.5v-393h110q12 0 20.5 -8t8.5 -21q0 -11 -9 -20t-20 -9h-110zM435 58v396
l-286 -396h286z" />
    <glyph glyph-name="five.onum" horiz-adv-x="600" 
d="M533 78q0 -65 -28.5 -115.5t-83 -85t-133.5 -52t-179 -17.5q-14 0 -23 7.5t-9 21.5q0 15 9 22t19 7q86 0 154.5 13t116.5 39t73.5 66t25.5 94q0 30 -11.5 55t-32 42.5t-49 27.5t-63.5 10q-26 0 -47 -3t-39.5 -8.5t-36 -13.5t-35.5 -18q-16 -8 -27.5 -8.5t-19.5 4t-12 13
t-4 18.5v255q0 32 18 44.5t38 12.5h306q12 0 21 -8.5t9 -20.5t-9 -20.5t-21 -8.5h-306v-224q30 17 69.5 30t95.5 13q47 0 86.5 -14.5t68 -40t44 -60.5t15.5 -77z" />
    <glyph glyph-name="six.onum" horiz-adv-x="662" 
d="M506 647q-13 0 -36 4t-60 4q-56 0 -102 -18t-80 -52t-54.5 -83t-24.5 -110q33 16 82.5 31.5t112.5 15.5q54 0 98 -14t75.5 -41.5t49 -68t17.5 -92.5q0 -47 -15 -89.5t-45 -74.5t-75.5 -51t-106.5 -19q-74 0 -124.5 27.5t-80.5 77.5t-41.5 118.5t-6.5 151.5
q5 84 29.5 149.5t66 109.5t98.5 67t127 23q23 0 48.5 -1.5t49.5 -6.5q14 -2 20.5 -11t6.5 -19q0 -11 -7.5 -19.5t-21.5 -8.5zM344 381q-65 0 -114 -17t-84 -37q-4 -71 8 -123t38 -87t65 -52t88 -17q46 0 80.5 13.5t56.5 37t33 55.5t11 69q0 76 -45.5 117t-136.5 41z" />
    <glyph glyph-name="seven.onum" horiz-adv-x="519" 
d="M161 -193q-14 0 -21 8.5t-7 19.5q0 5 0.5 8.5t1.5 8.5q17 64 40 124.5t57.5 129.5t82 152.5t114.5 193.5h-361q-13 0 -21.5 8.5t-8.5 19.5q0 13 8.5 21.5t21.5 8.5h373q22 0 35.5 -12t13.5 -32q0 -16 -10 -34q-71 -118 -119.5 -202t-82 -150.5t-54.5 -124.5t-36 -124
q-3 -14 -11 -19t-16 -5z" />
    <glyph glyph-name="eight.onum" horiz-adv-x="675" 
d="M335 652q-48 0 -81.5 -9.5t-54.5 -26.5t-31 -39.5t-10 -49.5q0 -63 48 -97.5t129 -34.5q86 0 132 35.5t46 95.5q0 27 -9.5 50.5t-30.5 40t-55 26t-83 9.5zM335 337q-98 0 -146 -41t-48 -105q0 -30 11 -56t35 -45t60.5 -30t87.5 -11q53 0 90.5 11.5t61.5 31t35.5 45
t11.5 53.5q0 68 -53.5 107.5t-145.5 39.5zM335 -9q-62 0 -109.5 14.5t-79 40.5t-47.5 62.5t-16 81.5q0 72 37 117.5t92 59.5q-21 6 -41 18t-36 31.5t-26 46.5t-10 64q0 83 60.5 132.5t175.5 49.5q118 0 178 -49.5t60 -132.5q0 -63 -30.5 -102t-78.5 -58q58 -18 93 -61.5
t35 -114.5q0 -90 -64.5 -145t-192.5 -55z" />
    <glyph glyph-name="nine.onum" horiz-adv-x="655" 
d="M150 -95q66 0 127 7t109 32t79.5 74t40.5 134q-36 -18 -85 -31.5t-106 -13.5q-54 0 -97.5 14.5t-74.5 43t-48 70t-17 95.5q0 50 15.5 93t46 74t75 48.5t103.5 17.5q69 0 117 -22.5t77 -65.5t42 -105.5t13 -141.5q0 -107 -24.5 -180t-75.5 -117.5t-129.5 -64t-186.5 -19.5
q-12 0 -21 7t-10 20q-1 11 7 21t23 10zM319 165q29 0 54 4t47.5 11t44 16.5t44.5 20.5q0 74 -8.5 128.5t-30.5 90t-58.5 52.5t-93.5 17q-94 0 -138 -48.5t-44 -127.5q0 -76 42.5 -120t140.5 -44z" />
    <glyph glyph-name="sterling.alt" horiz-adv-x="589" 
d="M167 354q6 26 12 55.5t13 62.5q25 125 77 181t139 56q33 0 59.5 -8t43.5 -19q11 -7 14 -18t-3 -22q-7 -11 -18.5 -12.5t-24.5 4.5q-16 8 -37 12.5t-44 4.5q-27 0 -49.5 -9t-41 -30t-32.5 -56.5t-25 -88.5q-6 -30 -12.5 -58.5t-12.5 -54.5h183q13 0 21.5 -7t8.5 -20
t-8 -20t-21 -7h-198q-20 -75 -39 -130.5t-36 -88.5q-5 -10 -5 -14q0 -9 11 -9h361q11 0 20 -8.5t9 -20.5q0 -13 -9 -21t-22 -8h-351q-32 0 -54.5 14t-22.5 47q0 22 14 49t25 57q8 23 19.5 55.5t22.5 77.5h-62q-13 0 -21 7t-8 20q0 12 8 19.5t21 7.5h75z" />
    <glyph glyph-name="commaaccent" 
d="M180 -213q-10 -15 -26 -15q-9 0 -17 6.5t-8 20.5q0 9 3.5 16l8 16t8 21.5t3.5 32.5v56q0 13 8.5 21t19.5 8t19.5 -8t8.5 -22v-43q0 -37 -7.5 -63t-20.5 -47z" />
    <glyph glyph-name="caronSlovak" 
d="M188 571q-11 -20 -30 -20q-14 0 -20.5 8t-6.5 20q0 8 4 15.5t8.5 17t8.5 22t4 30.5v18q0 14 7.5 23t20.5 9t21.5 -9t8.5 -23v-18q0 -18 -5.5 -43t-20.5 -50z" />
    <glyph glyph-name="g.alt" horiz-adv-x="540" 
d="M59 -27q11 0 17.5 -6t11.5 -12q9 -12 22 -26.5t33.5 -27.5t50 -21.5t70.5 -8.5q73 0 111 26.5t38 63.5q0 12 -5 25.5t-16.5 24t-31.5 17.5t-50 7h-104q-58 0 -90.5 22t-32.5 59q0 28 17 47t42 26q-51 25 -74.5 67.5t-23.5 88.5q0 36 13.5 68.5t39.5 58t64 40.5t86 15
q35 0 59.5 -6.5t41.5 -13.5h134q11 0 20 -8.5t9 -20.5t-9 -20.5t-20 -8.5h-71q14 -17 24.5 -42t10.5 -60q0 -38 -14 -70.5t-39 -56.5t-60.5 -37.5t-77.5 -13.5h-9q-49 0 -76 -11.5t-27 -33.5q0 -16 15 -23t50 -7h101q36 0 66 -9t52 -26t34.5 -41.5t12.5 -55.5
q0 -32 -13.5 -59t-39.5 -47t-64.5 -31.5t-87.5 -11.5q-56 0 -100.5 13.5t-75 33.5t-46.5 43t-16 41q0 15 8.5 22t19.5 7zM246 223q63 0 102 34.5t39 91.5q0 54 -36.5 87t-102.5 33t-104.5 -33.5t-38.5 -88.5q0 -56 39 -90t102 -34z" />
    <glyph glyph-name="gbreve.alt" horiz-adv-x="540" 
d="M59 -27q11 0 17.5 -6t11.5 -12q9 -12 22 -26.5t33.5 -27.5t50 -21.5t70.5 -8.5q73 0 111 26.5t38 63.5q0 12 -5 25.5t-16.5 24t-31.5 17.5t-50 7h-104q-58 0 -90.5 22t-32.5 59q0 28 17 47t42 26q-51 25 -74.5 67.5t-23.5 88.5q0 36 13.5 68.5t39.5 58t64 40.5t86 15
q35 0 59.5 -6.5t41.5 -13.5h134q11 0 20 -8.5t9 -20.5t-9 -20.5t-20 -8.5h-71q14 -17 24.5 -42t10.5 -60q0 -38 -14 -70.5t-39 -56.5t-60.5 -37.5t-77.5 -13.5h-9q-49 0 -76 -11.5t-27 -33.5q0 -16 15 -23t50 -7h101q36 0 66 -9t52 -26t34.5 -41.5t12.5 -55.5
q0 -32 -13.5 -59t-39.5 -47t-64.5 -31.5t-87.5 -11.5q-56 0 -100.5 13.5t-75 33.5t-46.5 43t-16 41q0 15 8.5 22t19.5 7zM246 223q63 0 102 34.5t39 91.5q0 54 -36.5 87t-102.5 33t-104.5 -33.5t-38.5 -88.5q0 -56 39 -90t102 -34zM245 642q22 0 38 13.5t21 33.5q3 8 10 14
t17 6q11 0 19.5 -8.5t8.5 -19.5q0 -6 -3 -15q-11 -32 -41 -55t-70 -23t-70 23t-41 55q-3 9 -3 15q0 11 8.5 19.5t19.5 8.5q10 0 17.5 -6t9.5 -14q5 -20 21 -33.5t38 -13.5z" />
    <glyph glyph-name="gdotaccent.alt" horiz-adv-x="540" 
d="M59 -27q11 0 17.5 -6t11.5 -12q9 -12 22 -26.5t33.5 -27.5t50 -21.5t70.5 -8.5q73 0 111 26.5t38 63.5q0 12 -5 25.5t-16.5 24t-31.5 17.5t-50 7h-104q-58 0 -90.5 22t-32.5 59q0 28 17 47t42 26q-51 25 -74.5 67.5t-23.5 88.5q0 36 13.5 68.5t39.5 58t64 40.5t86 15
q35 0 59.5 -6.5t41.5 -13.5h134q11 0 20 -8.5t9 -20.5t-9 -20.5t-20 -8.5h-71q14 -17 24.5 -42t10.5 -60q0 -38 -14 -70.5t-39 -56.5t-60.5 -37.5t-77.5 -13.5h-9q-49 0 -76 -11.5t-27 -33.5q0 -16 15 -23t50 -7h101q36 0 66 -9t52 -26t34.5 -41.5t12.5 -55.5
q0 -32 -13.5 -59t-39.5 -47t-64.5 -31.5t-87.5 -11.5q-56 0 -100.5 13.5t-75 33.5t-46.5 43t-16 41q0 15 8.5 22t19.5 7zM246 223q63 0 102 34.5t39 91.5q0 54 -36.5 87t-102.5 33t-104.5 -33.5t-38.5 -88.5q0 -56 39 -90t102 -34zM248 679q16 0 26.5 -11t10.5 -26
q0 -16 -10.5 -26.5t-26.5 -10.5t-26.5 10.5t-10.5 26.5q0 15 10.5 26t26.5 11z" />
    <glyph glyph-name="gcommaaccent.alt" horiz-adv-x="540" 
d="M59 -27q11 0 17.5 -6t11.5 -12q9 -12 22 -26.5t33.5 -27.5t50 -21.5t70.5 -8.5q73 0 111 26.5t38 63.5q0 12 -5 25.5t-16.5 24t-31.5 17.5t-50 7h-104q-58 0 -90.5 22t-32.5 59q0 28 17 47t42 26q-51 25 -74.5 67.5t-23.5 88.5q0 36 13.5 68.5t39.5 58t64 40.5t86 15
q35 0 59.5 -6.5t41.5 -13.5h134q11 0 20 -8.5t9 -20.5t-9 -20.5t-20 -8.5h-71q14 -17 24.5 -42t10.5 -60q0 -38 -14 -70.5t-39 -56.5t-60.5 -37.5t-77.5 -13.5h-9q-49 0 -76 -11.5t-27 -33.5q0 -16 15 -23t50 -7h101q36 0 66 -9t52 -26t34.5 -41.5t12.5 -55.5
q0 -32 -13.5 -59t-39.5 -47t-64.5 -31.5t-87.5 -11.5q-56 0 -100.5 13.5t-75 33.5t-46.5 43t-16 41q0 15 8.5 22t19.5 7zM246 223q63 0 102 34.5t39 91.5q0 54 -36.5 87t-102.5 33t-104.5 -33.5t-38.5 -88.5q0 -56 39 -90t102 -34zM247 568q-10 -15 -26 -15q-9 0 -17 6.5
t-8 20.5q0 9 3.5 16l8 16t8 21.5t3.5 32.5v56q0 13 8.5 21t19.5 8t19.5 -8t8.5 -22v-43q0 -37 -7.5 -63t-20.5 -47z" />
    <glyph glyph-name="ampersand.alt" horiz-adv-x="686" 
d="M515 232q0 62 56 62h80q13 0 22.5 -8t9.5 -21q0 -12 -9 -20.5t-22 -8.5h-77q-2 -59 -22.5 -104.5t-55.5 -76.5t-83 -47.5t-103 -16.5q-63 0 -111.5 14.5t-81 40t-49 61t-16.5 76.5q0 63 35 104t104 66q-45 31 -70.5 69t-25.5 95q0 40 15.5 74t43.5 58.5t67 38t86 13.5
q49 0 88.5 -13.5t67.5 -37.5t42.5 -57t14.5 -72q0 -43 -13.5 -74t-40 -53.5t-66 -37.5t-91.5 -27q-57 -13 -95 -27t-61.5 -31.5t-33 -39t-9.5 -48.5q0 -61 51.5 -97.5t148.5 -36.5q48 0 85.5 14t63 38.5t39.5 58t16 72.5zM154 517q0 -29 10.5 -50.5t27 -38t36.5 -29
t38 -22.5q57 11 94.5 23.5t60.5 29t32.5 38.5t9.5 52q0 23 -9 45t-27.5 39.5t-48 28t-69.5 10.5q-39 0 -68 -10t-48.5 -27.5t-29 -40.5t-9.5 -48z" />
    <glyph glyph-name="racute.alt" horiz-adv-x="371" 
d="M258 527q20 0 41.5 -2t39.5 -7q11 -3 16 -10.5t5 -16.5q0 -10 -6.5 -18.5t-20.5 -8.5t-30 3.5t-38 3.5q-35 0 -63.5 -9t-48.5 -26v-405q0 -13 -8 -22t-21 -9q-12 0 -20.5 9t-8.5 22v411q0 13 4 19t11 13q22 20 59.5 36.5t88.5 16.5zM279 692q8 4 14 4q11 0 18.5 -7.5
t7.5 -18.5q0 -17 -14 -24l-136 -70q-2 -1 -5 -2t-8 -1q-11 0 -18.5 7.5t-7.5 18.5q0 8 4.5 14t9.5 9z" />
    <glyph glyph-name="rcaron.alt" horiz-adv-x="371" 
d="M258 527q20 0 41.5 -2t39.5 -7q11 -3 16 -10.5t5 -16.5q0 -10 -6.5 -18.5t-20.5 -8.5t-30 3.5t-38 3.5q-35 0 -63.5 -9t-48.5 -26v-405q0 -13 -8 -22t-21 -9q-12 0 -20.5 9t-8.5 22v411q0 13 4 19t11 13q22 20 59.5 36.5t88.5 16.5zM238 582q-13 -10 -25 -10
q-15 0 -26 10l-87 64q-5 3 -8.5 8.5t-3.5 13.5q0 11 7 18.5t19 7.5q11 0 18 -6l81 -61l81 61q7 6 17 6q13 0 19.5 -7.5t6.5 -18.5q0 -15 -11 -22z" />
    <glyph glyph-name="rcommaaccent.alt" horiz-adv-x="371" 
d="M258 527q20 0 41.5 -2t39.5 -7q11 -3 16 -10.5t5 -16.5q0 -10 -6.5 -18.5t-20.5 -8.5t-30 3.5t-38 3.5q-35 0 -63.5 -9t-48.5 -26v-405q0 -13 -8 -22t-21 -9q-12 0 -20.5 9t-8.5 22v411q0 13 4 19t11 13q22 20 59.5 36.5t88.5 16.5zM130 -213q-10 -15 -26 -15
q-9 0 -17 6.5t-8 20.5q0 9 3.5 16l8 16t8 21.5t3.5 32.5v56q0 13 8.5 21t19.5 8t19.5 -8t8.5 -22v-43q0 -37 -7.5 -63t-20.5 -47z" />
    <glyph glyph-name="hyphen" unicode="-" horiz-adv-x="345" 
d="M286 287q0 -13 -8.5 -21t-21.5 -8h-167q-13 0 -21.5 8.5t-8.5 20.5q0 13 8.5 20.5t21.5 7.5h167q13 0 21.5 -7.5t8.5 -20.5z" />
    <glyph glyph-name="B" unicode="B" horiz-adv-x="669" 
d="M168 59h224q79 0 116 34.5t37 102.5q0 66 -39 101.5t-100 35.5h-238v-274zM389 391q72 0 104.5 33t32.5 93q0 124 -137 124h-221v-250h221zM606 198q0 -55 -16.5 -93t-44.5 -61t-65.5 -33.5t-78.5 -10.5h-235q-28 0 -42 16.5t-14 39.5v587q0 23 14 39.5t42 16.5h222
q48 0 85 -14.5t62 -39t38 -57t13 -67.5q0 -36 -7.5 -63t-21 -45.5t-31 -30.5t-36.5 -19v-1q55 -12 85.5 -56t30.5 -108z" />
    <glyph glyph-name="uni00A0" unicode="&#xa0;" horiz-adv-x="267" 
 />
    <glyph glyph-name="A" unicode="A" horiz-adv-x="669" 
d="M642 31q0 -11 -7.5 -21t-21.5 -10q-20 0 -28 19l-84 229h-335l-82 -229q-8 -19 -28 -19q-17 0 -24.5 13t-2.5 28l218 598q12 33 32.5 51.5t54.5 18.5t55 -18t33 -51l218 -599q2 -6 2 -10zM188 306h291l-115 322q-8 25 -30 25q-20 0 -30 -26z" />
    </font>
</defs>
</svg>
