<?xml version="1.0" encoding="UTF-8"?>
<svg xmlns="http://www.w3.org/2000/svg" xmlns:xlink="http://www.w3.org/1999/xlink" version="1.2" >
<font id="Rubrik ExtraLight">
<font-face  font-family="Rubrik" units-per-em="1000" ascent="750" descent="-250" font-style="normal" font-weight="100" font-stretch="normal" cap-height="702" x-height="518" underline-position="-100" underline-thickness="50" />
<missing-glyph  horiz-adv-x="301" />
<glyph glyph-name="uni00A0" unicode="&#xa0;" horiz-adv-x="262" />
<glyph glyph-name="A" unicode="A" horiz-adv-x="663" d="M631 27 L405 645 C391 684 367 707 331 707 C294 707 271 684 257 645 L31 27 C27 15 34 1 48 1 C56 1 63 5 66 13 L157 263 L505 263 L596 13 C599 5 606 0 613 0 C627 0 635 14 631 27 Z M296 643 C302 660 311 671 331 671 C348 671 360 660 366 643 L491 300 L171 300 Z " />
<glyph glyph-name="B" unicode="B" horiz-adv-x="668" d="M601 192 C601 291 537 342 481 362 C529 382 581 435 581 522 C581 632 513 697 384 697 L155 697 C130 697 118 680 118 660 L118 37 C118 16 130 0 155 0 L397 0 C526 0 601 72 601 192 Z M155 341 L407 341 C496 341 563 283 563 191 C563 97 508 37 393 37 L155 37 Z M155 378 L155 660 L392 660 C488 660 543 614 543 521 C543 435 486 378 392 378 Z " />
<glyph glyph-name="C" unicode="C" horiz-adv-x="662" d="M355 28 C223 28 130 128 119 262 C114 321 114 379 119 438 C130 571 228 670 355 670 C451 670 534 610 566 525 C569 517 574 510 585 510 C594 510 603 517 603 528 C603 531 602 537 598 546 C557 637 465 706 355 706 C201 706 91 586 81 438 C79 405 78 374 78 343 C78 316 79 289 81 262 C91 110 201 -8 354 -8 C465 -8 557 61 598 152 C602 161 603 167 603 170 C603 181 594 188 585 188 C574 188 569 181 566 173 C534 88 451 28 355 28 Z " />
<glyph glyph-name="D" unicode="D" horiz-adv-x="720" d="M602 290 C594 139 512 37 337 37 L155 37 L155 660 L337 660 C511 660 593 560 602 410 C604 375 604 325 602 290 Z M340 0 C528 0 629 125 638 291 C640 324 640 366 639 401 C631 571 532 697 340 697 L154 697 C131 697 118 681 118 660 L118 37 C118 17 130 0 154 0 Z " />
<glyph glyph-name="E" unicode="E" horiz-adv-x="622" d="M155 697 C130 697 118 680 118 660 L118 37 C118 16 130 0 155 0 L524 0 C535 0 543 8 543 18 C543 28 534 37 524 37 L155 37 L155 333 L514 333 C524 333 533 341 533 352 C533 362 524 370 514 370 L155 370 L155 660 L522 660 C532 660 541 668 541 678 C541 689 533 697 522 697 Z " />
<glyph glyph-name="F" unicode="F" horiz-adv-x="586" d="M118 15 C118 5 126 -4 137 -4 C147 -4 155 5 155 15 L155 323 L506 323 C516 323 525 331 525 341 C525 352 517 360 506 360 L155 360 L155 660 L525 660 C535 660 544 668 544 678 C544 689 536 697 525 697 L154 697 C130 697 118 680 118 661 Z " />
<glyph glyph-name="G" unicode="G" horiz-adv-x="702" d="M620 316 C620 338 607 355 581 355 L397 355 C386 355 377 347 377 336 C377 326 386 317 397 317 L583 317 L583 228 C583 107 483 29 357 29 C228 29 131 131 120 263 C115 322 115 379 120 438 C132 568 230 670 356 670 C451 670 539 619 572 531 C575 523 580 516 591 516 C600 516 609 523 609 534 C609 536 608 543 604 552 C559 653 471 706 356 706 C206 706 93 585 82 431 C78 378 78 321 82 268 C93 110 206 -8 360 -8 C523 -8 620 113 620 234 Z " />
<glyph glyph-name="H" unicode="H" horiz-adv-x="759" d="M118 16 C118 4 125 -4 136 -4 C147 -4 155 5 155 16 L155 332 L604 332 L604 15 C604 5 613 -4 623 -4 C634 -4 641 4 641 15 L641 683 C641 694 634 702 623 702 C613 702 604 694 604 683 L604 369 L155 369 L155 683 C155 694 147 702 136 702 C126 702 118 694 118 683 Z " />
<glyph glyph-name="I" unicode="I" horiz-adv-x="273" d="M118 15 C118 4 125 -4 136 -4 C147 -4 155 4 155 15 L155 683 C155 694 147 702 136 702 C126 702 118 694 118 683 Z " />
<glyph glyph-name="J" unicode="J" horiz-adv-x="491" d="M48 82 C76 31 135 -8 202 -8 C299 -8 378 67 378 178 L378 683 C378 694 370 702 359 702 C349 702 341 694 341 683 L341 182 C341 82 275 29 201 29 C144 29 104 61 78 106 C73 114 67 117 60 117 C50 117 42 108 42 99 C42 91 45 88 48 82 Z " />
<glyph glyph-name="K" unicode="K" horiz-adv-x="617" d="M155 336 L163 336 C187 336 197 334 221 311 L557 1 C560 -2 565 -4 570 -4 C575 -4 579 -2 583 2 C590 10 590 22 582 29 L227 356 L570 668 C580 678 580 688 573 696 C570 700 565 702 561 702 C556 702 551 699 546 695 L221 398 C195 374 187 373 163 373 L155 373 L155 683 C155 694 147 702 136 702 C126 702 118 694 118 683 L118 15 C118 5 126 -4 136 -4 C147 -4 155 4 155 15 Z " />
<glyph glyph-name="L" unicode="L" horiz-adv-x="548" d="M118 37 C118 16 131 0 155 0 L523 0 C534 0 543 8 543 19 C543 30 533 37 523 37 L155 37 L155 683 C155 694 147 702 136 702 C126 702 118 694 118 683 Z " />
<glyph glyph-name="M" unicode="M" horiz-adv-x="907" d="M802 10 C804 1 812 -5 821 -5 C834 -5 841 7 839 18 L739 661 C734 692 712 711 685 711 C654 711 638 689 632 666 L469 48 C467 41 463 36 455 36 C447 36 443 41 441 48 L274 666 C268 689 252 711 221 711 C194 711 172 692 167 661 L70 18 C68 8 73 -5 89 -5 C95 -5 104 -1 106 10 L205 657 C206 666 212 674 221 674 C229 674 235 669 238 658 L403 45 C410 20 423 -1 455 -1 C485 -1 500 19 507 45 L668 658 C671 669 677 674 685 674 C692 674 700 669 702 657 Z " />
<glyph glyph-name="N" unicode="N" horiz-adv-x="770" d="M580 21 C586 12 596 -2 617 -2 C639 -2 652 14 652 36 L652 683 C652 694 644 702 633 702 C623 702 615 694 615 683 L615 37 L613 37 L190 680 C184 689 174 703 153 703 C131 703 118 687 118 665 L118 16 C118 6 126 -3 136 -3 C147 -3 155 5 155 16 L155 662 L157 662 Z " />
<glyph glyph-name="O" unicode="O" horiz-adv-x="725" d="M362 -8 C516 -8 632 110 643 268 C647 320 647 378 643 431 C632 586 516 706 362 706 C208 706 93 585 82 431 C78 378 78 321 82 268 C94 110 208 -8 362 -8 Z M362 29 C230 29 133 128 120 261 C114 320 114 378 120 436 C133 569 230 669 362 669 C493 669 592 569 605 436 C611 378 611 320 605 261 C592 128 494 29 362 29 Z " />
<glyph glyph-name="P" unicode="P" horiz-adv-x="640" d="M155 324 L155 660 L372 660 C489 660 544 590 544 491 C544 394 494 324 366 324 Z M362 287 C496 287 581 361 581 492 C581 621 496 697 370 697 L155 697 C131 697 118 680 118 660 L118 15 C118 4 126 -4 136 -4 C146 -4 155 4 155 15 L155 287 Z " />
<glyph glyph-name="Q" unicode="Q" horiz-adv-x="726" d="M646 -93 C646 -88 644 -83 641 -79 L535 52 C596 101 637 178 643 268 C647 320 647 378 643 431 C632 586 516 706 362 706 C208 706 93 585 82 431 C78 378 78 321 82 268 C94 110 208 -8 362 -8 C414 -8 462 5 503 29 L611 -104 C615 -109 621 -112 627 -112 C638 -112 646 -103 646 -93 Z M362 29 C230 29 133 128 120 261 C114 320 114 378 120 436 C133 569 230 669 362 669 C493 669 592 569 605 436 C611 378 611 320 605 261 C597 186 564 122 512 80 L390 231 C383 239 371 241 363 234 C355 227 353 215 360 206 L479 58 C445 39 405 29 362 29 Z " />
<glyph glyph-name="R" unicode="R" horiz-adv-x="678" d="M602 28 L387 300 C509 314 583 371 583 494 C583 623 501 697 369 697 L155 697 C131 697 118 680 118 660 L118 16 C118 6 126 -3 136 -3 C146 -3 155 6 155 16 L155 299 L309 299 C337 299 347 290 364 268 L573 4 C576 0 583 -3 589 -3 C605 -3 611 16 602 28 Z M155 336 L155 660 L376 660 C488 660 546 592 546 494 C546 399 493 336 358 336 Z " />
<glyph glyph-name="S" unicode="S" horiz-adv-x="606" d="M119 524 C119 599 170 669 312 669 C372 669 430 648 468 622 C477 616 483 615 486 615 C496 615 504 622 504 634 C504 640 500 646 496 649 C454 683 384 706 312 706 C169 706 82 635 82 524 C82 398 202 360 318 336 C432 312 521 288 521 191 C521 87 444 29 315 29 C216 29 157 57 103 95 C97 99 92 100 89 100 C77 100 70 91 70 81 C70 74 73 67 81 62 C147 18 217 -8 319 -8 C470 -8 558 70 558 191 C558 315 448 346 326 372 C219 395 119 421 119 524 Z " />
<glyph glyph-name="T" unicode="T" horiz-adv-x="585" d="M275 16 C275 4 282 -4 293 -4 C304 -4 312 5 312 16 L312 660 L541 660 C551 660 561 669 561 679 C561 690 552 697 541 697 L44 697 C33 697 24 690 24 679 C24 669 33 660 44 660 L275 660 Z " />
<glyph glyph-name="U" unicode="U" horiz-adv-x="748" d="M642 683 C642 694 634 702 623 702 C613 702 605 694 605 683 L605 278 C605 126 506 29 374 29 C242 29 144 126 144 278 L144 683 C144 694 136 702 125 702 C115 702 107 694 107 683 L107 270 C107 105 220 -8 374 -8 C528 -8 642 105 642 270 Z " />
<glyph glyph-name="V" unicode="V" horiz-adv-x="648" d="M270 38 C281 7 298 -8 324 -8 C350 -8 366 7 378 38 L619 673 C624 687 616 701 601 701 C594 701 587 698 583 688 L339 40 C336 31 332 27 324 27 C316 27 312 32 309 40 L65 689 C62 697 55 702 47 702 C33 702 26 688 30 676 Z " />
<glyph glyph-name="W" unicode="W" horiz-adv-x="906" d="M193 28 C199 5 217 -8 237 -8 C258 -8 276 4 282 27 L462 660 C463 664 468 664 469 660 L647 28 C653 5 671 -8 691 -8 C712 -8 731 4 736 27 L887 674 C888 678 889 682 889 685 C889 693 883 703 870 703 C862 703 854 697 852 688 L699 36 C697 27 686 27 683 36 L509 663 C503 685 489 701 467 701 C443 701 430 685 424 663 L245 36 C242 27 231 27 229 36 L81 689 C79 697 72 703 63 703 C50 703 42 691 45 679 Z " />
<glyph glyph-name="X" unicode="X" horiz-adv-x="631" d="M588 14 C588 18 587 23 583 28 L337 347 L584 670 C593 682 586 701 570 701 C564 701 559 698 556 694 L314 377 L72 694 C69 698 64 701 58 701 C42 701 35 682 44 670 L290 348 L45 28 C41 23 40 18 40 14 C40 4 48 -3 58 -3 C64 -3 70 -1 73 4 L313 316 L555 4 C558 -1 564 -3 570 -3 C580 -3 588 4 588 14 Z " />
<glyph glyph-name="Y" unicode="Y" horiz-adv-x="636" d="M597 703 C592 703 586 700 583 696 L318 366 L53 696 C50 700 44 702 39 702 C30 702 21 694 21 685 C21 681 22 677 25 673 L281 354 C296 336 300 325 300 309 L300 15 C300 5 308 -4 318 -4 C329 -4 337 5 337 15 L337 309 C337 325 340 336 354 354 L611 672 C614 676 616 681 616 685 C616 695 607 703 597 703 Z " />
<glyph glyph-name="Z" unicode="Z" horiz-adv-x="579" d="M88 697 C77 697 68 689 68 678 C68 668 77 660 88 660 L495 660 L76 57 C71 50 68 43 68 32 C68 15 83 0 107 0 L514 0 C525 0 534 8 534 19 C534 30 525 37 514 37 L107 37 L526 640 C531 647 534 654 534 665 C534 682 519 697 495 697 Z " />
<glyph glyph-name="Agrave" unicode="&#xc0;" horiz-adv-x="663" d="M631 27 L405 645 C391 684 367 707 331 707 C294 707 271 684 257 645 L31 27 C27 15 34 1 48 1 C56 1 63 5 66 13 L157 263 L505 263 L596 13 C599 5 606 0 613 0 C627 0 635 14 631 27 Z M296 643 C302 660 311 671 331 671 C348 671 360 660 366 643 L491 300 L171 300 Z M364 755 C368 753 371 752 376 752 C385 752 394 759 394 770 C394 778 390 784 382 788 L247 857 C243 859 240 860 235 860 C226 860 217 853 217 842 C217 834 221 828 229 824 Z " />
<glyph glyph-name="Aacute" unicode="&#xc1;" horiz-adv-x="663" d="M631 27 L405 645 C391 684 367 707 331 707 C294 707 271 684 257 645 L31 27 C27 15 34 1 48 1 C56 1 63 5 66 13 L157 263 L505 263 L596 13 C599 5 606 0 613 0 C627 0 635 14 631 27 Z M296 643 C302 660 311 671 331 671 C348 671 360 660 366 643 L491 300 L171 300 Z M436 824 C444 828 448 834 448 842 C448 853 439 860 430 860 C425 860 422 859 418 857 L283 788 C275 784 271 778 271 770 C271 759 280 752 289 752 C294 752 297 753 301 755 Z " />
<glyph glyph-name="Acircumflex" unicode="&#xc2;" horiz-adv-x="663" d="M631 27 L405 645 C391 684 367 707 331 707 C294 707 271 684 257 645 L31 27 C27 15 34 1 48 1 C56 1 63 5 66 13 L157 263 L505 263 L596 13 C599 5 606 0 613 0 C627 0 635 14 631 27 Z M296 643 C302 660 311 671 331 671 C348 671 360 660 366 643 L491 300 L171 300 Z M331 816 L412 756 C417 753 421 752 425 752 C436 752 444 761 444 771 C444 779 439 784 436 786 L355 846 C347 852 340 855 331 855 C322 855 315 852 307 846 L226 786 C223 784 218 779 218 771 C218 761 226 752 237 752 C241 752 245 753 250 756 Z " />
<glyph glyph-name="Atilde" unicode="&#xc3;" horiz-adv-x="663" d="M631 27 L405 645 C391 684 367 707 331 707 C294 707 271 684 257 645 L31 27 C27 15 34 1 48 1 C56 1 63 5 66 13 L157 263 L505 263 L596 13 C599 5 606 0 613 0 C627 0 635 14 631 27 Z M296 643 C302 660 311 671 331 671 C348 671 360 660 366 643 L491 300 L171 300 Z M382 794 C350 794 325 831 280 831 C258 831 233 819 215 804 C211 800 207 795 207 787 C207 778 214 769 226 769 C244 769 255 794 279 794 C307 794 335 757 381 757 C403 757 425 769 444 782 C452 788 455 793 455 801 C455 811 446 818 437 818 C420 818 406 794 382 794 Z " />
<glyph glyph-name="Adieresis" unicode="&#xc4;" horiz-adv-x="663" d="M631 27 L405 645 C391 684 367 707 331 707 C294 707 271 684 257 645 L31 27 C27 15 34 1 48 1 C56 1 63 5 66 13 L157 263 L505 263 L596 13 C599 5 606 0 613 0 C627 0 635 14 631 27 Z M296 643 C302 660 311 671 331 671 C348 671 360 660 366 643 L491 300 L171 300 Z M260 823 C244 823 231 810 231 794 C231 777 244 764 260 764 C277 764 290 777 290 794 C290 810 277 823 260 823 Z M402 823 C385 823 372 810 372 794 C372 777 385 764 402 764 C418 764 431 777 431 794 C431 810 418 823 402 823 Z " />
<glyph glyph-name="Amacron" unicode="&#x100;" horiz-adv-x="663" d="M631 27 L405 645 C391 684 367 707 331 707 C294 707 271 684 257 645 L31 27 C27 15 34 1 48 1 C56 1 63 5 66 13 L157 263 L505 263 L596 13 C599 5 606 0 613 0 C627 0 635 14 631 27 Z M296 643 C302 660 311 671 331 671 C348 671 360 660 366 643 L491 300 L171 300 Z M246 813 C235 813 227 805 227 795 C227 785 235 777 246 777 L416 777 C426 777 434 785 434 795 C434 805 426 813 416 813 Z " />
<glyph glyph-name="Abreve" unicode="&#x102;" horiz-adv-x="663" d="M631 27 L405 645 C391 684 367 707 331 707 C294 707 271 684 257 645 L31 27 C27 15 34 1 48 1 C56 1 63 5 66 13 L157 263 L505 263 L596 13 C599 5 606 0 613 0 C627 0 635 14 631 27 Z M296 643 C302 660 311 671 331 671 C348 671 360 660 366 643 L491 300 L171 300 Z M397 843 C390 811 363 791 329 791 C295 791 268 812 261 843 C259 853 254 860 243 860 C233 860 225 853 225 841 C225 835 226 830 228 824 C240 785 281 753 329 753 C377 753 418 785 430 824 C432 830 433 835 433 841 C433 853 425 860 415 860 C404 860 399 853 397 843 Z " />
<glyph glyph-name="Aring" unicode="&#xc5;" horiz-adv-x="663" d="M631 27 L405 645 C391 684 367 707 331 707 C294 707 271 684 257 645 L31 27 C27 15 34 1 48 1 C56 1 63 5 66 13 L157 263 L505 263 L596 13 C599 5 606 0 613 0 C627 0 635 14 631 27 Z M296 643 C302 660 311 671 331 671 C348 671 360 660 366 643 L491 300 L171 300 Z M248 835 C248 791 286 753 331 753 C375 753 412 791 412 835 C412 879 375 916 331 916 C286 916 248 879 248 835 Z M277 835 C277 864 301 888 331 888 C360 888 384 864 384 835 C384 806 360 781 331 781 C301 781 277 806 277 835 Z " />
<glyph glyph-name="Aogonek" unicode="&#x104;" horiz-adv-x="663" d="M642 -136 C637 -136 631 -137 627 -141 C612 -152 595 -157 580 -157 C552 -157 523 -137 523 -100 C523 -64 549 -29 617 0 C623 2 632 10 632 22 C632 25 631 28 630 31 L405 645 C391 684 367 707 331 707 C294 707 271 684 257 645 L31 27 C25 12 36 0 47 0 C55 0 62 3 66 13 L157 263 L505 263 L590 28 C521 -1 485 -50 485 -100 C485 -157 532 -194 580 -194 C603 -194 627 -188 649 -172 C656 -167 660 -160 660 -153 C660 -143 651 -136 642 -136 Z M296 643 C302 660 311 671 331 671 C348 671 360 660 366 643 L491 300 L171 300 Z " />
<glyph glyph-name="AE" unicode="&#xc6;" horiz-adv-x="1021" d="M476 643 C486 656 500 660 512 660 L517 660 L517 309 L256 309 Z M37 -3 C43 -3 48 -1 52 5 L232 274 L517 274 L517 37 C517 16 529 0 554 0 L923 0 C934 0 942 8 942 18 C942 28 933 37 923 37 L554 37 L554 333 L913 333 C923 333 932 341 932 352 C932 362 923 370 913 370 L554 370 L554 660 L921 660 C931 660 940 668 940 678 C940 689 932 697 921 697 L530 697 C495 697 467 691 443 656 L23 28 C20 24 19 19 19 14 C19 4 27 -3 37 -3 Z " />
<glyph glyph-name="Cacute" unicode="&#x106;" horiz-adv-x="658" d="M355 28 C223 28 130 128 119 262 C114 321 114 379 119 438 C130 571 228 670 355 670 C451 670 534 610 566 525 C569 517 574 510 585 510 C594 510 603 517 603 528 C603 531 602 537 598 546 C557 637 465 706 355 706 C201 706 91 586 81 438 C79 405 78 374 78 343 C78 316 79 289 81 262 C91 110 201 -8 354 -8 C465 -8 557 61 598 152 C602 161 603 167 603 170 C603 181 594 188 585 188 C574 188 569 181 566 173 C534 88 451 28 355 28 Z M449 824 C457 828 461 834 461 842 C461 853 452 860 443 860 C438 860 435 859 431 857 L296 788 C288 784 284 778 284 770 C284 759 293 752 302 752 C307 752 310 753 314 755 Z " />
<glyph glyph-name="Ccaron" unicode="&#x10c;" horiz-adv-x="658" d="M355 28 C223 28 130 128 119 262 C114 321 114 379 119 438 C130 571 228 670 355 670 C451 670 534 610 566 525 C569 517 574 510 585 510 C594 510 603 517 603 528 C603 531 602 537 598 546 C557 637 465 706 355 706 C201 706 91 586 81 438 C79 405 78 374 78 343 C78 316 79 289 81 262 C91 110 201 -8 354 -8 C465 -8 557 61 598 152 C602 161 603 167 603 170 C603 181 594 188 585 188 C574 188 569 181 566 173 C534 88 451 28 355 28 Z M265 850 C260 853 256 854 252 854 C241 854 233 845 233 835 C233 827 238 822 241 820 L322 760 C330 754 337 751 346 751 C355 751 362 754 370 760 L451 820 C454 822 459 827 459 835 C459 845 451 854 440 854 C436 854 432 853 427 850 L346 790 Z " />
<glyph glyph-name="Cdotaccent" unicode="&#x10a;" horiz-adv-x="658" d="M355 28 C223 28 130 128 119 262 C114 321 114 379 119 438 C130 571 228 670 355 670 C451 670 534 610 566 525 C569 517 574 510 585 510 C594 510 603 517 603 528 C603 531 602 537 598 546 C557 637 465 706 355 706 C201 706 91 586 81 438 C79 405 78 374 78 343 C78 316 79 289 81 262 C91 110 201 -8 354 -8 C465 -8 557 61 598 152 C602 161 603 167 603 170 C603 181 594 188 585 188 C574 188 569 181 566 173 C534 88 451 28 355 28 Z M355 823 C338 823 325 810 325 794 C325 777 338 764 355 764 C372 764 385 777 385 794 C385 810 372 823 355 823 Z " />
<glyph glyph-name="Ccedilla" unicode="&#xc7;" horiz-adv-x="662" d="M298 -73 C292 -87 302 -100 316 -100 C325 -100 334 -93 347 -93 C370 -93 388 -107 388 -130 C388 -157 357 -182 298 -201 C285 -205 283 -214 283 -220 C283 -231 296 -240 309 -236 C384 -212 424 -174 424 -129 C424 -86 385 -56 339 -60 L357 -11 C357 -10 357 -9 358 -8 C467 -6 557 62 598 152 C602 161 603 167 603 170 C603 181 594 188 585 188 C574 188 569 181 566 173 C534 88 451 28 355 28 C223 28 130 128 119 262 C116 291 115 321 115 350 C115 379 116 408 119 438 C130 571 228 670 355 670 C451 670 534 610 566 525 C569 517 574 510 585 510 C594 510 603 517 603 528 C603 531 602 537 598 546 C557 637 465 706 355 706 C201 706 91 586 81 438 C79 405 78 374 78 343 C78 316 79 289 81 262 C90 121 185 9 321 -6 Z " />
<glyph glyph-name="Dcaron" unicode="&#x10e;" horiz-adv-x="720" d="M602 290 C594 139 512 37 337 37 L155 37 L155 660 L337 660 C511 660 593 560 602 410 C604 375 604 325 602 290 Z M340 0 C528 0 629 125 638 291 C640 324 640 366 639 401 C631 571 532 697 340 697 L154 697 C131 697 118 681 118 660 L118 37 C118 17 130 0 154 0 Z M268 850 C263 853 259 854 255 854 C244 854 236 845 236 835 C236 827 241 822 244 820 L325 760 C333 754 340 751 349 751 C358 751 365 754 373 760 L454 820 C457 822 462 827 462 835 C462 845 454 854 443 854 C439 854 435 853 430 850 L349 790 Z " />
<glyph glyph-name="Dcroat" unicode="&#x110;" horiz-adv-x="720" d="M340 0 C528 0 629 125 638 291 C640 324 640 366 639 401 C631 571 532 697 340 697 L154 697 C131 697 118 681 118 660 L118 363 L30 363 C19 363 10 356 10 344 C10 334 19 326 30 326 L118 326 L118 37 C118 17 130 0 154 0 Z M602 290 C594 139 512 37 337 37 L155 37 L155 326 L352 326 C363 326 372 334 372 344 C372 355 363 363 352 363 L155 363 L155 660 L337 660 C511 660 593 560 602 410 C604 375 604 325 602 290 Z " />
<glyph glyph-name="Egrave" unicode="&#xc8;" horiz-adv-x="622" d="M155 697 C130 697 118 680 118 660 L118 37 C118 16 130 0 155 0 L524 0 C535 0 543 8 543 18 C543 28 534 37 524 37 L155 37 L155 333 L514 333 C524 333 533 341 533 352 C533 362 524 370 514 370 L155 370 L155 660 L522 660 C532 660 541 668 541 678 C541 689 533 697 522 697 Z M384 755 C388 753 391 752 396 752 C405 752 414 759 414 770 C414 778 410 784 402 788 L267 857 C263 859 260 860 255 860 C246 860 237 853 237 842 C237 834 241 828 249 824 Z " />
<glyph glyph-name="Eacute" unicode="&#xc9;" horiz-adv-x="622" d="M155 697 C130 697 118 680 118 660 L118 37 C118 16 130 0 155 0 L524 0 C535 0 543 8 543 18 C543 28 534 37 524 37 L155 37 L155 333 L514 333 C524 333 533 341 533 352 C533 362 524 370 514 370 L155 370 L155 660 L522 660 C532 660 541 668 541 678 C541 689 533 697 522 697 Z M372 824 C380 828 384 834 384 842 C384 853 375 860 366 860 C361 860 358 859 354 857 L219 788 C211 784 207 778 207 770 C207 759 216 752 225 752 C230 752 233 753 237 755 Z " />
<glyph glyph-name="Ecircumflex" unicode="&#xca;" horiz-adv-x="622" d="M155 697 C130 697 118 680 118 660 L118 37 C118 16 130 0 155 0 L524 0 C535 0 543 8 543 18 C543 28 534 37 524 37 L155 37 L155 333 L514 333 C524 333 533 341 533 352 C533 362 524 370 514 370 L155 370 L155 660 L522 660 C532 660 541 668 541 678 C541 689 533 697 522 697 Z M333 816 L414 756 C419 753 423 752 427 752 C438 752 446 761 446 771 C446 779 441 784 438 786 L357 846 C349 852 342 855 333 855 C324 855 317 852 309 846 L228 786 C225 784 220 779 220 771 C220 761 228 752 239 752 C243 752 247 753 252 756 Z " />
<glyph glyph-name="Ecaron" unicode="&#x11a;" horiz-adv-x="622" d="M155 697 C130 697 118 680 118 660 L118 37 C118 16 130 0 155 0 L524 0 C535 0 543 8 543 18 C543 28 534 37 524 37 L155 37 L155 333 L514 333 C524 333 533 341 533 352 C533 362 524 370 514 370 L155 370 L155 660 L522 660 C532 660 541 668 541 678 C541 689 533 697 522 697 Z M264 850 C259 853 255 854 251 854 C240 854 232 845 232 835 C232 827 237 822 240 820 L321 760 C329 754 336 751 345 751 C354 751 361 754 369 760 L450 820 C453 822 458 827 458 835 C458 845 450 854 439 854 C435 854 431 853 426 850 L345 790 Z " />
<glyph glyph-name="Edieresis" unicode="&#xcb;" horiz-adv-x="622" d="M155 697 C130 697 118 680 118 660 L118 37 C118 16 130 0 155 0 L524 0 C535 0 543 8 543 18 C543 28 534 37 524 37 L155 37 L155 333 L514 333 C524 333 533 341 533 352 C533 362 524 370 514 370 L155 370 L155 660 L522 660 C532 660 541 668 541 678 C541 689 533 697 522 697 Z M266 822 C250 822 237 809 237 793 C237 776 250 763 266 763 C283 763 296 776 296 793 C296 809 283 822 266 822 Z M408 822 C391 822 378 809 378 793 C378 776 391 763 408 763 C424 763 437 776 437 793 C437 809 424 822 408 822 Z " />
<glyph glyph-name="Emacron" unicode="&#x112;" horiz-adv-x="622" d="M155 697 C130 697 118 680 118 660 L118 37 C118 16 130 0 155 0 L524 0 C535 0 543 8 543 18 C543 28 534 37 524 37 L155 37 L155 333 L514 333 C524 333 533 341 533 352 C533 362 524 370 514 370 L155 370 L155 660 L522 660 C532 660 541 668 541 678 C541 689 533 697 522 697 Z M251 813 C240 813 232 805 232 795 C232 785 240 777 251 777 L421 777 C431 777 439 785 439 795 C439 805 431 813 421 813 Z " />
<glyph glyph-name="Edotaccent" unicode="&#x116;" horiz-adv-x="622" d="M155 697 C130 697 118 680 118 660 L118 37 C118 16 130 0 155 0 L524 0 C535 0 543 8 543 18 C543 28 534 37 524 37 L155 37 L155 333 L514 333 C524 333 533 341 533 352 C533 362 524 370 514 370 L155 370 L155 660 L522 660 C532 660 541 668 541 678 C541 689 533 697 522 697 Z M348 823 C331 823 318 810 318 794 C318 777 331 764 348 764 C365 764 378 777 378 794 C378 810 365 823 348 823 Z " />
<glyph glyph-name="Eogonek" unicode="&#x118;" horiz-adv-x="622" d="M553 -136 C548 -136 542 -137 538 -141 C523 -152 506 -157 491 -157 C463 -157 434 -137 434 -100 C434 -64 462 -22 532 2 C539 4 543 11 543 18 C543 28 534 37 524 37 L155 37 L155 333 L514 333 C524 333 533 341 533 352 C533 362 524 370 514 370 L155 370 L155 660 L522 660 C532 660 541 668 541 678 C541 689 533 697 522 697 L155 697 C130 697 118 680 118 660 L118 37 C118 16 130 0 155 0 L457 0 C415 -26 396 -64 396 -100 C396 -157 443 -194 491 -194 C514 -194 538 -188 560 -172 C567 -167 571 -160 571 -153 C571 -143 562 -136 553 -136 Z " />
<glyph glyph-name="Gbreve" unicode="&#x11e;" horiz-adv-x="702" d="M620 316 C620 338 607 355 581 355 L397 355 C386 355 377 347 377 336 C377 326 386 317 397 317 L583 317 L583 228 C583 107 483 29 357 29 C228 29 131 131 120 263 C115 322 115 379 120 438 C132 568 230 670 356 670 C451 670 539 619 572 531 C575 523 580 516 591 516 C600 516 609 523 609 534 C609 536 608 543 604 552 C559 653 471 706 356 706 C206 706 93 585 82 431 C78 378 78 321 82 268 C93 110 206 -8 360 -8 C523 -8 620 113 620 234 Z M430 843 C423 811 396 791 362 791 C328 791 301 812 294 843 C292 853 287 860 276 860 C266 860 258 853 258 841 C258 835 259 830 261 824 C273 785 314 753 362 753 C410 753 451 785 463 824 C465 830 466 835 466 841 C466 853 458 860 448 860 C437 860 432 853 430 843 Z " />
<glyph glyph-name="Gdotaccent" unicode="&#x120;" horiz-adv-x="702" d="M620 316 C620 338 607 355 581 355 L397 355 C386 355 377 347 377 336 C377 326 386 317 397 317 L583 317 L583 228 C583 107 483 29 357 29 C228 29 131 131 120 263 C115 322 115 379 120 438 C132 568 230 670 356 670 C451 670 539 619 572 531 C575 523 580 516 591 516 C600 516 609 523 609 534 C609 536 608 543 604 552 C559 653 471 706 356 706 C206 706 93 585 82 431 C78 378 78 321 82 268 C93 110 206 -8 360 -8 C523 -8 620 113 620 234 Z M362 822 C345 822 332 809 332 793 C332 776 345 763 362 763 C379 763 392 776 392 793 C392 809 379 822 362 822 Z " />
<glyph glyph-name="Gcommaaccent" unicode="&#x122;" horiz-adv-x="702" d="M620 316 C620 338 607 355 581 355 L397 355 C386 355 377 347 377 336 C377 326 386 317 397 317 L583 317 L583 228 C583 107 483 29 357 29 C228 29 131 131 120 263 C115 322 115 379 120 438 C132 568 230 670 356 670 C451 670 539 619 572 531 C575 523 580 516 591 516 C600 516 609 523 609 534 C609 536 608 543 604 552 C559 653 471 706 356 706 C206 706 93 585 82 431 C78 378 78 321 82 268 C93 110 206 -8 360 -8 C523 -8 620 113 620 234 Z M372 -49 C372 -38 363 -30 353 -30 C343 -30 335 -38 335 -49 L335 -102 C335 -137 333 -152 307 -188 C306 -190 303 -194 303 -200 C303 -209 310 -218 321 -218 C329 -218 335 -212 338 -208 C358 -179 372 -151 372 -107 Z " />
<glyph glyph-name="Igrave" unicode="&#xcc;" horiz-adv-x="276" d="M119 15 C119 4 126 -4 137 -4 C148 -4 156 4 156 15 L156 683 C156 694 148 702 137 702 C127 702 119 694 119 683 Z M173 755 C177 753 180 752 185 752 C194 752 203 759 203 770 C203 778 199 784 191 788 L56 857 C52 859 49 860 44 860 C35 860 26 853 26 842 C26 834 30 828 38 824 Z " />
<glyph glyph-name="Iacute" unicode="&#xcd;" horiz-adv-x="276" d="M119 15 C119 4 126 -4 137 -4 C148 -4 156 4 156 15 L156 683 C156 694 148 702 137 702 C127 702 119 694 119 683 Z M239 824 C247 828 251 834 251 842 C251 853 242 860 233 860 C228 860 225 859 221 857 L86 788 C78 784 74 778 74 770 C74 759 83 752 92 752 C97 752 100 753 104 755 Z " />
<glyph glyph-name="Icircumflex" unicode="&#xce;" horiz-adv-x="276" d="M119 15 C119 4 126 -4 137 -4 C148 -4 156 4 156 15 L156 683 C156 694 148 702 137 702 C127 702 119 694 119 683 Z M139 816 L220 756 C225 753 229 752 233 752 C244 752 252 761 252 771 C252 779 247 784 244 786 L163 846 C155 852 148 855 139 855 C130 855 123 852 115 846 L34 786 C31 784 26 779 26 771 C26 761 34 752 45 752 C49 752 53 753 58 756 Z " />
<glyph glyph-name="Idieresis" unicode="&#xcf;" horiz-adv-x="276" d="M119 15 C119 4 126 -4 137 -4 C148 -4 156 4 156 15 L156 683 C156 694 148 702 137 702 C127 702 119 694 119 683 Z M66 823 C50 823 37 810 37 794 C37 777 50 764 66 764 C83 764 96 777 96 794 C96 810 83 823 66 823 Z M208 823 C191 823 178 810 178 794 C178 777 191 764 208 764 C224 764 237 777 237 794 C237 810 224 823 208 823 Z " />
<glyph glyph-name="Iogonek" unicode="&#x12e;" horiz-adv-x="273" d="M165 -136 C160 -136 154 -137 150 -141 C135 -152 118 -157 103 -157 C75 -157 46 -137 46 -100 C46 -64 74 -26 140 -4 C152 0 155 9 155 15 L155 683 C155 694 147 702 136 702 C126 702 118 694 118 683 L118 26 C46 -3 9 -50 9 -100 C9 -157 55 -194 103 -194 C126 -194 150 -188 172 -172 C179 -167 183 -160 183 -153 C183 -143 174 -136 165 -136 Z " />
<glyph glyph-name="Imacron" unicode="&#x12a;" horiz-adv-x="276" d="M119 15 C119 4 126 -4 137 -4 C148 -4 156 4 156 15 L156 683 C156 694 148 702 137 702 C127 702 119 694 119 683 Z M53 813 C42 813 34 805 34 795 C34 785 42 777 53 777 L223 777 C233 777 241 785 241 795 C241 805 233 813 223 813 Z " />
<glyph glyph-name="Idotaccent" unicode="&#x130;" horiz-adv-x="276" d="M119 15 C119 4 126 -4 137 -4 C148 -4 156 4 156 15 L156 683 C156 694 148 702 137 702 C127 702 119 694 119 683 Z M137 823 C120 823 107 810 107 794 C107 777 120 764 137 764 C154 764 167 777 167 794 C167 810 154 823 137 823 Z " />
<glyph glyph-name="Kcommaaccent" unicode="&#x136;" horiz-adv-x="611" d="M155 336 L163 336 C187 336 197 334 221 311 L557 1 C560 -2 565 -4 570 -4 C575 -4 579 -2 583 2 C590 10 590 22 582 29 L227 356 L570 668 C580 678 580 688 573 696 C570 700 565 702 561 702 C556 702 551 699 546 695 L221 398 C195 374 187 373 163 373 L155 373 L155 683 C155 694 147 702 136 702 C126 702 118 694 118 683 L118 15 C118 5 126 -4 136 -4 C147 -4 155 4 155 15 Z M342 -49 C342 -38 333 -30 323 -30 C313 -30 305 -38 305 -49 L305 -102 C305 -137 303 -152 277 -188 C276 -190 273 -194 273 -200 C273 -209 280 -218 291 -218 C299 -218 305 -212 308 -208 C328 -179 342 -151 342 -107 Z " />
<glyph glyph-name="Lacute" unicode="&#x139;" horiz-adv-x="558" d="M115 37 C115 16 128 0 152 0 L520 0 C531 0 540 8 540 19 C540 30 530 37 520 37 L152 37 L152 683 C152 694 144 702 133 702 C123 702 115 694 115 683 Z M295 827 C303 831 307 837 307 845 C307 856 298 863 289 863 C284 863 281 862 277 860 L142 791 C134 787 130 781 130 773 C130 762 139 755 148 755 C153 755 156 756 160 758 Z " />
<glyph glyph-name="Lcaron" unicode="&#x13d;" horiz-adv-x="560" d="M118 37 C118 16 131 0 155 0 L523 0 C534 0 543 8 543 19 C543 30 533 37 523 37 L155 37 L155 683 C155 694 147 702 136 702 C126 702 118 694 118 683 Z M353 680 C353 691 344 699 334 699 C324 699 316 691 316 680 L316 641 C316 606 310 594 296 569 C295 567 292 563 292 557 C292 548 299 539 310 539 C318 539 324 545 327 549 C338 566 353 592 353 636 Z " />
<glyph glyph-name="Lcommaaccent" unicode="&#x13b;" horiz-adv-x="560" d="M118 37 C118 16 131 0 155 0 L523 0 C534 0 543 8 543 19 C543 30 533 37 523 37 L155 37 L155 683 C155 694 147 702 136 702 C126 702 118 694 118 683 Z M351 -49 C351 -38 342 -30 332 -30 C322 -30 314 -38 314 -49 L314 -102 C314 -137 312 -152 286 -188 C285 -190 282 -194 282 -200 C282 -209 289 -218 300 -218 C308 -218 314 -212 317 -208 C337 -179 351 -151 351 -107 Z " />
<glyph glyph-name="Lslash" unicode="&#x141;" horiz-adv-x="548" d="M118 37 C118 16 131 0 155 0 L523 0 C534 0 543 8 543 19 C543 30 533 37 523 37 L155 37 L155 332 L290 418 C299 423 303 435 298 443 C292 453 280 455 271 449 L155 376 L155 683 C155 694 147 702 136 702 C126 702 118 694 118 683 L118 352 L36 301 C30 297 26 291 26 285 C26 269 43 262 56 270 L118 309 Z " />
<glyph glyph-name="Nacute" unicode="&#x143;" horiz-adv-x="770" d="M580 21 C586 12 596 -2 617 -2 C639 -2 652 14 652 36 L652 683 C652 694 644 702 633 702 C623 702 615 694 615 683 L615 37 L613 37 L190 680 C184 689 174 703 153 703 C131 703 118 687 118 665 L118 16 C118 6 126 -3 136 -3 C147 -3 155 5 155 16 L155 662 L157 662 Z M467 824 C475 828 479 834 479 842 C479 853 470 860 461 860 C456 860 453 859 449 857 L314 788 C306 784 302 778 302 770 C302 759 311 752 320 752 C325 752 328 753 332 755 Z " />
<glyph glyph-name="Ncaron" unicode="&#x147;" horiz-adv-x="770" d="M580 21 C586 12 596 -2 617 -2 C639 -2 652 14 652 36 L652 683 C652 694 644 702 633 702 C623 702 615 694 615 683 L615 37 L613 37 L190 680 C184 689 174 703 153 703 C131 703 118 687 118 665 L118 16 C118 6 126 -3 136 -3 C147 -3 155 5 155 16 L155 662 L157 662 Z M297 850 C292 853 288 854 284 854 C273 854 265 845 265 835 C265 827 270 822 273 820 L354 760 C362 754 369 751 378 751 C387 751 394 754 402 760 L483 820 C486 822 491 827 491 835 C491 845 483 854 472 854 C468 854 464 853 459 850 L378 790 Z " />
<glyph glyph-name="Ntilde" unicode="&#xd1;" horiz-adv-x="770" d="M580 21 C586 12 596 -2 617 -2 C639 -2 652 14 652 36 L652 683 C652 694 644 702 633 702 C623 702 615 694 615 683 L615 37 L613 37 L190 680 C184 689 174 703 153 703 C131 703 118 687 118 665 L118 16 C118 6 126 -3 136 -3 C147 -3 155 5 155 16 L155 662 L157 662 Z M430 796 C398 796 373 833 328 833 C306 833 281 821 263 806 C259 802 255 797 255 789 C255 780 262 771 274 771 C292 771 303 796 327 796 C355 796 383 759 429 759 C451 759 473 771 492 784 C500 790 503 795 503 803 C503 813 494 820 485 820 C468 820 454 796 430 796 Z " />
<glyph glyph-name="Ncommaaccent" unicode="&#x145;" horiz-adv-x="770" d="M580 21 C586 12 596 -2 617 -2 C639 -2 652 14 652 36 L652 683 C652 694 644 702 633 702 C623 702 615 694 615 683 L615 37 L613 37 L190 680 C184 689 174 703 153 703 C131 703 118 687 118 665 L118 16 C118 6 126 -3 136 -3 C147 -3 155 5 155 16 L155 662 L157 662 Z M408 -49 C408 -38 399 -30 389 -30 C379 -30 371 -38 371 -49 L371 -102 C371 -137 369 -152 343 -188 C342 -190 339 -194 339 -200 C339 -209 346 -218 357 -218 C365 -218 371 -212 374 -208 C394 -179 408 -151 408 -107 Z " />
<glyph glyph-name="Ograve" unicode="&#xd2;" horiz-adv-x="725" d="M362 -8 C516 -8 632 110 643 268 C647 320 647 378 643 431 C632 586 516 706 362 706 C208 706 93 585 82 431 C78 378 78 321 82 268 C94 110 208 -8 362 -8 Z M362 29 C230 29 133 128 120 261 C114 320 114 378 120 436 C133 569 230 669 362 669 C493 669 592 569 605 436 C611 378 611 320 605 261 C592 128 494 29 362 29 Z M404 755 C408 753 411 752 416 752 C425 752 434 759 434 770 C434 778 430 784 422 788 L287 857 C283 859 280 860 275 860 C266 860 257 853 257 842 C257 834 261 828 269 824 Z " />
<glyph glyph-name="Oacute" unicode="&#xd3;" horiz-adv-x="725" d="M362 -8 C516 -8 632 110 643 268 C647 320 647 378 643 431 C632 586 516 706 362 706 C208 706 93 585 82 431 C78 378 78 321 82 268 C94 110 208 -8 362 -8 Z M362 29 C230 29 133 128 120 261 C114 320 114 378 120 436 C133 569 230 669 362 669 C493 669 592 569 605 436 C611 378 611 320 605 261 C592 128 494 29 362 29 Z M460 824 C468 828 472 834 472 842 C472 853 463 860 454 860 C449 860 446 859 442 857 L307 788 C299 784 295 778 295 770 C295 759 304 752 313 752 C318 752 321 753 325 755 Z " />
<glyph glyph-name="Ocircumflex" unicode="&#xd4;" horiz-adv-x="725" d="M362 -8 C516 -8 632 110 643 268 C647 320 647 378 643 431 C632 586 516 706 362 706 C208 706 93 585 82 431 C78 378 78 321 82 268 C94 110 208 -8 362 -8 Z M362 29 C230 29 133 128 120 261 C114 320 114 378 120 436 C133 569 230 669 362 669 C493 669 592 569 605 436 C611 378 611 320 605 261 C592 128 494 29 362 29 Z M361 816 L442 756 C447 753 451 752 455 752 C466 752 474 761 474 771 C474 779 469 784 466 786 L385 846 C377 852 370 855 361 855 C352 855 345 852 337 846 L256 786 C253 784 248 779 248 771 C248 761 256 752 267 752 C271 752 275 753 280 756 Z " />
<glyph glyph-name="Otilde" unicode="&#xd5;" horiz-adv-x="725" d="M362 -8 C516 -8 632 110 643 268 C647 320 647 378 643 431 C632 586 516 706 362 706 C208 706 93 585 82 431 C78 378 78 321 82 268 C94 110 208 -8 362 -8 Z M362 29 C230 29 133 128 120 261 C114 320 114 378 120 436 C133 569 230 669 362 669 C493 669 592 569 605 436 C611 378 611 320 605 261 C592 128 494 29 362 29 Z M415 792 C383 792 358 829 313 829 C291 829 266 817 248 802 C244 798 240 793 240 785 C240 776 247 767 259 767 C277 767 288 792 312 792 C340 792 368 755 414 755 C436 755 458 767 477 780 C485 786 488 791 488 799 C488 809 479 816 470 816 C453 816 439 792 415 792 Z " />
<glyph glyph-name="Odieresis" unicode="&#xd6;" horiz-adv-x="725" d="M362 -8 C516 -8 632 110 643 268 C647 320 647 378 643 431 C632 586 516 706 362 706 C208 706 93 585 82 431 C78 378 78 321 82 268 C94 110 208 -8 362 -8 Z M362 29 C230 29 133 128 120 261 C114 320 114 378 120 436 C133 569 230 669 362 669 C493 669 592 569 605 436 C611 378 611 320 605 261 C592 128 494 29 362 29 Z M291 823 C275 823 262 810 262 794 C262 777 275 764 291 764 C308 764 321 777 321 794 C321 810 308 823 291 823 Z M433 823 C416 823 403 810 403 794 C403 777 416 764 433 764 C449 764 462 777 462 794 C462 810 449 823 433 823 Z " />
<glyph glyph-name="Omacron" unicode="&#x14c;" horiz-adv-x="725" d="M362 -8 C516 -8 632 110 643 268 C647 320 647 378 643 431 C632 586 516 706 362 706 C208 706 93 585 82 431 C78 378 78 321 82 268 C94 110 208 -8 362 -8 Z M362 29 C230 29 133 128 120 261 C114 320 114 378 120 436 C133 569 230 669 362 669 C493 669 592 569 605 436 C611 378 611 320 605 261 C592 128 494 29 362 29 Z M278 813 C267 813 259 805 259 795 C259 785 267 777 278 777 L448 777 C458 777 466 785 466 795 C466 805 458 813 448 813 Z " />
<glyph glyph-name="Ohungarumlaut" unicode="&#x150;" horiz-adv-x="725" d="M362 -8 C516 -8 632 110 643 268 C647 320 647 378 643 431 C632 586 516 706 362 706 C208 706 93 585 82 431 C78 378 78 321 82 268 C94 110 208 -8 362 -8 Z M362 29 C230 29 133 128 120 261 C114 320 114 378 120 436 C133 569 230 669 362 669 C493 669 592 569 605 436 C611 378 611 320 605 261 C592 128 494 29 362 29 Z M395 832 C401 836 405 842 405 849 C405 859 398 867 386 867 C381 867 378 865 372 861 L278 787 C272 783 268 777 268 770 C268 760 275 752 287 752 C292 752 295 754 301 758 Z M514 832 C520 836 524 842 524 849 C524 859 517 867 505 867 C500 867 497 865 491 861 L397 787 C391 783 387 777 387 770 C387 760 394 752 406 752 C411 752 414 754 420 758 Z " />
<glyph glyph-name="Oslash" unicode="&#xd8;" horiz-adv-x="723" d="M360 -8 C514 -8 630 110 641 268 C645 320 645 378 641 431 C635 517 596 592 536 642 L554 677 C562 692 551 706 540 706 C530 706 525 702 520 692 L506 665 C464 691 414 706 360 706 C206 706 91 585 80 431 C76 378 76 321 80 268 C87 177 127 100 189 50 L174 20 C168 7 176 -8 189 -8 C197 -8 204 -4 208 4 L220 29 C261 5 308 -8 360 -8 Z M118 261 C112 320 112 378 118 436 C131 569 228 669 360 669 C408 669 452 655 489 631 L206 84 C157 126 125 188 118 261 Z M360 29 C314 29 273 41 237 62 L519 609 C565 567 596 506 603 436 C609 378 609 320 603 261 C590 128 492 29 360 29 Z " />
<glyph glyph-name="OE" unicode="&#x152;" horiz-adv-x="1043" d="M539 39 C477 31 442 29 390 29 C210 29 125 134 117 285 C115 322 115 366 117 403 C125 555 210 669 390 669 C444 669 478 667 539 660 Z M945 0 C956 0 964 8 964 18 C964 28 955 37 945 37 L576 37 L576 333 L935 333 C945 333 954 341 954 352 C954 362 945 370 935 370 L576 370 L576 660 L943 660 C953 660 962 668 962 678 C962 689 954 697 943 697 L546 697 C533 697 470 706 390 706 C186 706 86 570 80 396 C79 364 79 324 80 293 C87 119 185 -8 389 -8 C470 -8 533 0 546 0 Z " />
<glyph glyph-name="Racute" unicode="&#x154;" horiz-adv-x="678" d="M602 28 L387 300 C509 314 583 371 583 494 C583 623 501 697 369 697 L155 697 C131 697 118 680 118 660 L118 16 C118 6 126 -3 136 -3 C146 -3 155 6 155 16 L155 299 L309 299 C337 299 347 290 364 268 L573 4 C576 0 583 -3 589 -3 C605 -3 611 16 602 28 Z M155 336 L155 660 L376 660 C488 660 546 592 546 494 C546 399 493 336 358 336 Z M426 824 C434 828 438 834 438 842 C438 853 429 860 420 860 C415 860 412 859 408 857 L273 788 C265 784 261 778 261 770 C261 759 270 752 279 752 C284 752 287 753 291 755 Z " />
<glyph glyph-name="Rcaron" unicode="&#x158;" horiz-adv-x="678" d="M602 28 L387 300 C509 314 583 371 583 494 C583 623 501 697 369 697 L155 697 C131 697 118 680 118 660 L118 16 C118 6 126 -3 136 -3 C146 -3 155 6 155 16 L155 299 L309 299 C337 299 347 290 364 268 L573 4 C576 0 583 -3 589 -3 C605 -3 611 16 602 28 Z M155 336 L155 660 L376 660 C488 660 546 592 546 494 C546 399 493 336 358 336 Z M257 850 C252 853 248 854 244 854 C233 854 225 845 225 835 C225 827 230 822 233 820 L314 760 C322 754 329 751 338 751 C347 751 354 754 362 760 L443 820 C446 822 451 827 451 835 C451 845 443 854 432 854 C428 854 424 853 419 850 L338 790 Z " />
<glyph glyph-name="Rcommaaccent" unicode="&#x156;" horiz-adv-x="678" d="M602 28 L387 300 C509 314 583 371 583 494 C583 623 501 697 369 697 L155 697 C131 697 118 680 118 660 L118 16 C118 6 126 -3 136 -3 C146 -3 155 6 155 16 L155 299 L309 299 C337 299 347 290 364 268 L573 4 C576 0 583 -3 589 -3 C605 -3 611 16 602 28 Z M155 336 L155 660 L376 660 C488 660 546 592 546 494 C546 399 493 336 358 336 Z M355 -49 C355 -38 346 -30 336 -30 C326 -30 318 -38 318 -49 L318 -102 C318 -137 316 -152 290 -188 C289 -190 286 -194 286 -200 C286 -209 293 -218 304 -218 C312 -218 318 -212 321 -208 C341 -179 355 -151 355 -107 Z " />
<glyph glyph-name="Sacute" unicode="&#x15a;" horiz-adv-x="606" d="M119 524 C119 599 170 669 312 669 C372 669 430 648 468 622 C477 616 483 615 486 615 C496 615 504 622 504 634 C504 640 500 646 496 649 C454 683 384 706 312 706 C169 706 82 635 82 524 C82 398 202 360 318 336 C432 312 521 288 521 191 C521 87 444 29 315 29 C216 29 157 57 103 95 C97 99 92 100 89 100 C77 100 70 91 70 81 C70 74 73 67 81 62 C147 18 217 -8 319 -8 C470 -8 558 70 558 191 C558 315 448 346 326 372 C219 395 119 421 119 524 Z M395 824 C403 828 407 834 407 842 C407 853 398 860 389 860 C384 860 381 859 377 857 L242 788 C234 784 230 778 230 770 C230 759 239 752 248 752 C253 752 256 753 260 755 Z " />
<glyph glyph-name="Scaron" unicode="&#x160;" horiz-adv-x="606" d="M119 524 C119 599 170 669 312 669 C372 669 430 648 468 622 C477 616 483 615 486 615 C496 615 504 622 504 634 C504 640 500 646 496 649 C454 683 384 706 312 706 C169 706 82 635 82 524 C82 398 202 360 318 336 C432 312 521 288 521 191 C521 87 444 29 315 29 C216 29 157 57 103 95 C97 99 92 100 89 100 C77 100 70 91 70 81 C70 74 73 67 81 62 C147 18 217 -8 319 -8 C470 -8 558 70 558 191 C558 315 448 346 326 372 C219 395 119 421 119 524 Z M217 848 C212 851 208 852 204 852 C193 852 185 843 185 833 C185 825 190 820 193 818 L274 758 C282 752 289 749 298 749 C307 749 314 752 322 758 L403 818 C406 820 411 825 411 833 C411 843 403 852 392 852 C388 852 384 851 379 848 L298 788 Z " />
<glyph glyph-name="Scedilla" unicode="&#x15e;" horiz-adv-x="606" d="M244 -73 C238 -87 248 -100 262 -100 C271 -100 280 -93 293 -93 C316 -93 334 -107 334 -130 C334 -157 303 -182 244 -201 C231 -205 229 -214 229 -220 C229 -231 242 -240 255 -236 C330 -212 370 -174 370 -129 C370 -86 331 -56 285 -60 L303 -11 C303 -10 303 -9 304 -8 L319 -8 C470 -8 558 70 558 191 C558 315 448 346 326 372 C219 395 119 421 119 524 C119 599 170 669 312 669 C372 669 430 648 468 622 C477 616 483 615 486 615 C496 615 504 622 504 634 C504 640 500 646 496 649 C454 683 384 706 312 706 C169 706 82 635 82 524 C82 398 202 360 318 336 C432 312 521 288 521 191 C521 87 444 29 315 29 C216 29 157 57 103 95 C97 99 92 100 89 100 C77 100 70 91 70 81 C70 74 73 67 81 62 C135 26 192 2 267 -5 Z " />
<glyph glyph-name="Scommaaccent" unicode="&#x218;" horiz-adv-x="606" d="M119 524 C119 599 170 669 312 669 C372 669 430 648 468 622 C477 616 483 615 486 615 C496 615 504 622 504 634 C504 640 500 646 496 649 C454 683 384 706 312 706 C169 706 82 635 82 524 C82 398 202 360 318 336 C432 312 521 288 521 191 C521 87 444 29 315 29 C216 29 157 57 103 95 C97 99 92 100 89 100 C77 100 70 91 70 81 C70 74 73 67 81 62 C147 18 217 -8 319 -8 C470 -8 558 70 558 191 C558 315 448 346 326 372 C219 395 119 421 119 524 Z M331 -49 C331 -38 322 -30 312 -30 C302 -30 294 -38 294 -49 L294 -102 C294 -137 292 -152 266 -188 C265 -190 262 -194 262 -200 C262 -209 269 -218 280 -218 C288 -218 294 -212 297 -208 C317 -179 331 -151 331 -107 Z " />
<glyph glyph-name="Tcaron" unicode="&#x164;" horiz-adv-x="585" d="M275 16 C275 4 282 -4 293 -4 C304 -4 312 5 312 16 L312 660 L541 660 C551 660 561 669 561 679 C561 690 552 697 541 697 L44 697 C33 697 24 690 24 679 C24 669 33 660 44 660 L275 660 Z M212 850 C207 853 203 854 199 854 C188 854 180 845 180 835 C180 827 185 822 188 820 L269 760 C277 754 284 751 293 751 C302 751 309 754 317 760 L398 820 C401 822 406 827 406 835 C406 845 398 854 387 854 C383 854 379 853 374 850 L293 790 Z " />
<glyph glyph-name="Tcommaaccent" unicode="&#x162;" horiz-adv-x="585" d="M275 16 C275 4 282 -4 293 -4 C304 -4 312 5 312 16 L312 660 L541 660 C551 660 561 669 561 679 C561 690 552 697 541 697 L44 697 C33 697 24 690 24 679 C24 669 33 660 44 660 L275 660 Z M312 -116 C312 -105 303 -97 293 -97 C283 -97 275 -105 275 -116 L275 -169 C275 -204 273 -219 247 -255 C246 -257 243 -261 243 -267 C243 -276 250 -285 261 -285 C269 -285 275 -279 278 -275 C298 -246 312 -218 312 -174 Z " />
<glyph glyph-name="Ugrave" unicode="&#xd9;" horiz-adv-x="748" d="M642 683 C642 694 634 702 623 702 C613 702 605 694 605 683 L605 278 C605 126 506 29 374 29 C242 29 144 126 144 278 L144 683 C144 694 136 702 125 702 C115 702 107 694 107 683 L107 270 C107 105 220 -8 374 -8 C528 -8 642 105 642 270 Z M451 755 C455 753 458 752 463 752 C472 752 481 759 481 770 C481 778 477 784 469 788 L334 857 C330 859 327 860 322 860 C313 860 304 853 304 842 C304 834 308 828 316 824 Z " />
<glyph glyph-name="Uacute" unicode="&#xda;" horiz-adv-x="748" d="M642 683 C642 694 634 702 623 702 C613 702 605 694 605 683 L605 278 C605 126 506 29 374 29 C242 29 144 126 144 278 L144 683 C144 694 136 702 125 702 C115 702 107 694 107 683 L107 270 C107 105 220 -8 374 -8 C528 -8 642 105 642 270 Z M438 824 C446 828 450 834 450 842 C450 853 441 860 432 860 C427 860 424 859 420 857 L285 788 C277 784 273 778 273 770 C273 759 282 752 291 752 C296 752 299 753 303 755 Z " />
<glyph glyph-name="Ucircumflex" unicode="&#xdb;" horiz-adv-x="748" d="M642 683 C642 694 634 702 623 702 C613 702 605 694 605 683 L605 278 C605 126 506 29 374 29 C242 29 144 126 144 278 L144 683 C144 694 136 702 125 702 C115 702 107 694 107 683 L107 270 C107 105 220 -8 374 -8 C528 -8 642 105 642 270 Z M373 816 L454 756 C459 753 463 752 467 752 C478 752 486 761 486 771 C486 779 481 784 478 786 L397 846 C389 852 382 855 373 855 C364 855 357 852 349 846 L268 786 C265 784 260 779 260 771 C260 761 268 752 279 752 C283 752 287 753 292 756 Z " />
<glyph glyph-name="Udieresis" unicode="&#xdc;" horiz-adv-x="748" d="M642 683 C642 694 634 702 623 702 C613 702 605 694 605 683 L605 278 C605 126 506 29 374 29 C242 29 144 126 144 278 L144 683 C144 694 136 702 125 702 C115 702 107 694 107 683 L107 270 C107 105 220 -8 374 -8 C528 -8 642 105 642 270 Z M303 823 C287 823 274 810 274 794 C274 777 287 764 303 764 C320 764 333 777 333 794 C333 810 320 823 303 823 Z M445 823 C428 823 415 810 415 794 C415 777 428 764 445 764 C461 764 474 777 474 794 C474 810 461 823 445 823 Z " />
<glyph glyph-name="Umacron" unicode="&#x16a;" horiz-adv-x="748" d="M642 683 C642 694 634 702 623 702 C613 702 605 694 605 683 L605 278 C605 126 506 29 374 29 C242 29 144 126 144 278 L144 683 C144 694 136 702 125 702 C115 702 107 694 107 683 L107 270 C107 105 220 -8 374 -8 C528 -8 642 105 642 270 Z M289 812 C278 812 270 804 270 794 C270 784 278 776 289 776 L459 776 C469 776 477 784 477 794 C477 804 469 812 459 812 Z " />
<glyph glyph-name="Uring" unicode="&#x16e;" horiz-adv-x="748" d="M642 683 C642 694 634 702 623 702 C613 702 605 694 605 683 L605 278 C605 126 506 29 374 29 C242 29 144 126 144 278 L144 683 C144 694 136 702 125 702 C115 702 107 694 107 683 L107 270 C107 105 220 -8 374 -8 C528 -8 642 105 642 270 Z M292 835 C292 791 330 753 375 753 C419 753 456 791 456 835 C456 879 419 916 375 916 C330 916 292 879 292 835 Z M321 835 C321 864 345 888 375 888 C404 888 428 864 428 835 C428 806 404 781 375 781 C345 781 321 806 321 835 Z " />
<glyph glyph-name="Uhungarumlaut" unicode="&#x170;" horiz-adv-x="748" d="M642 683 C642 694 634 702 623 702 C613 702 605 694 605 683 L605 278 C605 126 506 29 374 29 C242 29 144 126 144 278 L144 683 C144 694 136 702 125 702 C115 702 107 694 107 683 L107 270 C107 105 220 -8 374 -8 C528 -8 642 105 642 270 Z M418 832 C424 836 428 842 428 849 C428 859 421 867 409 867 C404 867 401 865 395 861 L301 787 C295 783 291 777 291 770 C291 760 298 752 310 752 C315 752 318 754 324 758 Z M537 832 C543 836 547 842 547 849 C547 859 540 867 528 867 C523 867 520 865 514 861 L420 787 C414 783 410 777 410 770 C410 760 417 752 429 752 C434 752 437 754 443 758 Z " />
<glyph glyph-name="Uogonek" unicode="&#x172;" horiz-adv-x="748" d="M484 -134 C479 -134 473 -135 469 -139 C454 -150 437 -155 422 -155 C394 -155 365 -135 365 -98 C365 -63 395 -14 450 2 C564 34 642 133 642 270 L642 683 C642 694 634 702 623 702 C613 702 605 694 605 683 L605 278 C605 126 506 29 374 29 C242 29 144 126 144 278 L144 683 C144 694 136 702 125 702 C115 702 107 694 107 683 L107 270 C107 105 220 -8 374 -8 C343 -34 327 -65 327 -98 C327 -155 374 -192 422 -192 C445 -192 469 -186 491 -170 C498 -165 502 -158 502 -151 C502 -141 493 -134 484 -134 Z " />
<glyph glyph-name="Wgrave" unicode="&#x1e80;" horiz-adv-x="935" d="M197 28 C203 5 221 -8 241 -8 C262 -8 280 4 286 27 L466 660 C467 664 472 664 473 660 L651 28 C657 5 675 -8 695 -8 C716 -8 735 4 740 27 L891 674 C892 678 893 682 893 685 C893 693 887 703 874 703 C866 703 858 697 856 688 L703 36 C701 27 690 27 687 36 L513 663 C507 685 493 701 471 701 C447 701 434 685 428 663 L249 36 C246 27 235 27 233 36 L85 689 C83 697 76 703 67 703 C54 703 46 691 49 679 Z M503 755 C507 753 510 752 515 752 C524 752 533 759 533 770 C533 778 529 784 521 788 L386 857 C382 859 379 860 374 860 C365 860 356 853 356 842 C356 834 360 828 368 824 Z " />
<glyph glyph-name="Wacute" unicode="&#x1e82;" horiz-adv-x="935" d="M197 28 C203 5 221 -8 241 -8 C262 -8 280 4 286 27 L466 660 C467 664 472 664 473 660 L651 28 C657 5 675 -8 695 -8 C716 -8 735 4 740 27 L891 674 C892 678 893 682 893 685 C893 693 887 703 874 703 C866 703 858 697 856 688 L703 36 C701 27 690 27 687 36 L513 663 C507 685 493 701 471 701 C447 701 434 685 428 663 L249 36 C246 27 235 27 233 36 L85 689 C83 697 76 703 67 703 C54 703 46 691 49 679 Z M568 824 C576 828 580 834 580 842 C580 853 571 860 562 860 C557 860 554 859 550 857 L415 788 C407 784 403 778 403 770 C403 759 412 752 421 752 C426 752 429 753 433 755 Z " />
<glyph glyph-name="Wcircumflex" unicode="&#x174;" horiz-adv-x="935" d="M197 28 C203 5 221 -8 241 -8 C262 -8 280 4 286 27 L466 660 C467 664 472 664 473 660 L651 28 C657 5 675 -8 695 -8 C716 -8 735 4 740 27 L891 674 C892 678 893 682 893 685 C893 693 887 703 874 703 C866 703 858 697 856 688 L703 36 C701 27 690 27 687 36 L513 663 C507 685 493 701 471 701 C447 701 434 685 428 663 L249 36 C246 27 235 27 233 36 L85 689 C83 697 76 703 67 703 C54 703 46 691 49 679 Z M466 816 L547 756 C552 753 556 752 560 752 C571 752 579 761 579 771 C579 779 574 784 571 786 L490 846 C482 852 475 855 466 855 C457 855 450 852 442 846 L361 786 C358 784 353 779 353 771 C353 761 361 752 372 752 C376 752 380 753 385 756 Z " />
<glyph glyph-name="Wdieresis" unicode="&#x1e84;" horiz-adv-x="935" d="M197 28 C203 5 221 -8 241 -8 C262 -8 280 4 286 27 L466 660 C467 664 472 664 473 660 L651 28 C657 5 675 -8 695 -8 C716 -8 735 4 740 27 L891 674 C892 678 893 682 893 685 C893 693 887 703 874 703 C866 703 858 697 856 688 L703 36 C701 27 690 27 687 36 L513 663 C507 685 493 701 471 701 C447 701 434 685 428 663 L249 36 C246 27 235 27 233 36 L85 689 C83 697 76 703 67 703 C54 703 46 691 49 679 Z M396 822 C380 822 367 809 367 793 C367 776 380 763 396 763 C413 763 426 776 426 793 C426 809 413 822 396 822 Z M538 822 C521 822 508 809 508 793 C508 776 521 763 538 763 C554 763 567 776 567 793 C567 809 554 822 538 822 Z " />
<glyph glyph-name="Ygrave" unicode="&#x1ef2;" horiz-adv-x="636" d="M597 703 C592 703 586 700 583 696 L318 366 L53 696 C50 700 44 702 39 702 C30 702 21 694 21 685 C21 681 22 677 25 673 L281 354 C296 336 300 325 300 309 L300 15 C300 5 308 -4 318 -4 C329 -4 337 5 337 15 L337 309 C337 325 340 336 354 354 L611 672 C614 676 616 681 616 685 C616 695 607 703 597 703 Z M340 755 C344 753 347 752 352 752 C361 752 370 759 370 770 C370 778 366 784 358 788 L223 857 C219 859 216 860 211 860 C202 860 193 853 193 842 C193 834 197 828 205 824 Z " />
<glyph glyph-name="Yacute" unicode="&#xdd;" horiz-adv-x="636" d="M597 703 C592 703 586 700 583 696 L318 366 L53 696 C50 700 44 702 39 702 C30 702 21 694 21 685 C21 681 22 677 25 673 L281 354 C296 336 300 325 300 309 L300 15 C300 5 308 -4 318 -4 C329 -4 337 5 337 15 L337 309 C337 325 340 336 354 354 L611 672 C614 676 616 681 616 685 C616 695 607 703 597 703 Z M396 824 C404 828 408 834 408 842 C408 853 399 860 390 860 C385 860 382 859 378 857 L243 788 C235 784 231 778 231 770 C231 759 240 752 249 752 C254 752 257 753 261 755 Z " />
<glyph glyph-name="Ycircumflex" unicode="&#x176;" horiz-adv-x="636" d="M597 703 C592 703 586 700 583 696 L318 366 L53 696 C50 700 44 702 39 702 C30 702 21 694 21 685 C21 681 22 677 25 673 L281 354 C296 336 300 325 300 309 L300 15 C300 5 308 -4 318 -4 C329 -4 337 5 337 15 L337 309 C337 325 340 336 354 354 L611 672 C614 676 616 681 616 685 C616 695 607 703 597 703 Z M317 816 L398 756 C403 753 407 752 411 752 C422 752 430 761 430 771 C430 779 425 784 422 786 L341 846 C333 852 326 855 317 855 C308 855 301 852 293 846 L212 786 C209 784 204 779 204 771 C204 761 212 752 223 752 C227 752 231 753 236 756 Z " />
<glyph glyph-name="Ydieresis" unicode="&#x178;" horiz-adv-x="636" d="M597 703 C592 703 586 700 583 696 L318 366 L53 696 C50 700 44 702 39 702 C30 702 21 694 21 685 C21 681 22 677 25 673 L281 354 C296 336 300 325 300 309 L300 15 C300 5 308 -4 318 -4 C329 -4 337 5 337 15 L337 309 C337 325 340 336 354 354 L611 672 C614 676 616 681 616 685 C616 695 607 703 597 703 Z M247 772 C231 772 218 759 218 743 C218 726 231 713 247 713 C264 713 277 726 277 743 C277 759 264 772 247 772 Z M389 772 C372 772 359 759 359 743 C359 726 372 713 389 713 C405 713 418 726 418 743 C418 759 405 772 389 772 Z " />
<glyph glyph-name="Zacute" unicode="&#x179;" horiz-adv-x="579" d="M88 697 C77 697 68 689 68 678 C68 668 77 660 88 660 L495 660 L76 57 C71 50 68 43 68 32 C68 15 83 0 107 0 L514 0 C525 0 534 8 534 19 C534 30 525 37 514 37 L107 37 L526 640 C531 647 534 654 534 665 C534 682 519 697 495 697 Z M391 824 C399 828 403 834 403 842 C403 853 394 860 385 860 C380 860 377 859 373 857 L238 788 C230 784 226 778 226 770 C226 759 235 752 244 752 C249 752 252 753 256 755 Z " />
<glyph glyph-name="Zcaron" unicode="&#x17d;" horiz-adv-x="579" d="M88 697 C77 697 68 689 68 678 C68 668 77 660 88 660 L495 660 L76 57 C71 50 68 43 68 32 C68 15 83 0 107 0 L514 0 C525 0 534 8 534 19 C534 30 525 37 514 37 L107 37 L526 640 C531 647 534 654 534 665 C534 682 519 697 495 697 Z M221 850 C216 853 212 854 208 854 C197 854 189 845 189 835 C189 827 194 822 197 820 L278 760 C286 754 293 751 302 751 C311 751 318 754 326 760 L407 820 C410 822 415 827 415 835 C415 845 407 854 396 854 C392 854 388 853 383 850 L302 790 Z " />
<glyph glyph-name="Zdotaccent" unicode="&#x17b;" horiz-adv-x="579" d="M88 697 C77 697 68 689 68 678 C68 668 77 660 88 660 L495 660 L76 57 C71 50 68 43 68 32 C68 15 83 0 107 0 L514 0 C525 0 534 8 534 19 C534 30 525 37 514 37 L107 37 L526 640 C531 647 534 654 534 665 C534 682 519 697 495 697 Z M292 823 C275 823 262 810 262 794 C262 777 275 764 292 764 C309 764 322 777 322 794 C322 810 309 823 292 823 Z " />
<glyph glyph-name="Eth" unicode="&#xd0;" horiz-adv-x="720" d="M340 0 C528 0 629 125 638 291 C640 324 640 366 639 401 C631 571 532 697 340 697 L154 697 C131 697 118 681 118 660 L118 363 L30 363 C19 363 10 356 10 344 C10 334 19 326 30 326 L118 326 L118 37 C118 17 130 0 154 0 Z M602 290 C594 139 512 37 337 37 L155 37 L155 326 L352 326 C363 326 372 334 372 344 C372 355 363 363 352 363 L155 363 L155 660 L337 660 C511 660 593 560 602 410 C604 375 604 325 602 290 Z " />
<glyph glyph-name="Thorn" unicode="&#xde;" horiz-adv-x="641" d="M362 146 C490 146 582 221 582 352 C582 481 485 559 370 559 L155 559 L155 690 C155 700 146 709 136 709 C125 709 118 701 118 690 L118 16 C118 4 126 -3 136 -3 C147 -3 155 5 155 16 L155 146 Z M155 183 L155 522 L370 522 C487 522 545 447 545 350 C545 252 492 183 364 183 Z " />
<glyph glyph-name="a" unicode="a" horiz-adv-x="566" d="M469 349 C469 472 395 522 282 522 C221 522 158 505 126 488 C119 484 114 477 114 469 C114 454 130 445 144 452 C180 469 231 485 282 485 C379 485 432 443 432 348 L432 283 C367 301 309 310 264 310 C145 310 73 246 73 156 C73 54 141 -9 270 -9 C360 -9 423 23 458 48 C467 54 469 61 469 70 Z M270 28 C160 28 110 77 110 156 C110 229 172 273 263 273 C321 273 367 264 432 245 L432 78 C405 56 349 28 270 28 Z " />
<glyph glyph-name="b" unicode="b" horiz-adv-x="602" d="M513 329 C503 454 434 522 312 522 C246 522 186 501 145 483 L145 684 C145 696 137 705 127 705 C116 705 108 696 108 684 L108 72 C108 65 108 57 118 50 C140 35 225 -9 306 -9 C435 -9 503 63 513 188 C516 223 516 293 513 329 Z M474 181 C463 82 411 28 306 28 C248 28 172 59 145 78 L145 443 C174 460 245 485 313 485 C420 485 467 429 474 336 C477 300 478 219 474 181 Z " />
<glyph glyph-name="c" unicode="c" horiz-adv-x="556" d="M300 28 C192 28 132 97 126 184 C123 220 124 300 126 332 C132 425 199 487 300 487 C361 487 427 455 450 379 C453 367 459 361 470 361 C478 361 488 368 488 380 C488 416 432 524 300 524 C177 524 93 444 88 329 C86 289 86 228 88 188 C92 77 172 -9 300 -9 C432 -9 488 99 488 135 C488 147 478 154 470 154 C459 154 453 148 450 136 C427 60 361 28 300 28 Z " />
<glyph glyph-name="d" unicode="d" horiz-adv-x="600" d="M88 329 C85 293 85 223 88 188 C98 63 166 -9 295 -9 C376 -9 461 35 483 50 C493 57 493 65 493 72 L493 684 C493 696 485 705 474 705 C464 705 456 696 456 684 L456 483 C415 501 355 522 289 522 C167 522 98 454 88 329 Z M127 181 C123 219 124 300 127 336 C134 429 181 485 288 485 C356 485 427 460 456 443 L456 77 C429 58 353 28 295 28 C190 28 138 82 127 181 Z " />
<glyph glyph-name="e" unicode="e" horiz-adv-x="574" d="M500 316 C500 432 422 522 298 522 C181 522 95 447 88 320 C86 289 85 245 86 209 C92 77 163 -9 303 -9 C353 -9 423 8 455 24 C463 28 467 36 467 42 C467 51 460 60 449 60 C446 60 443 60 439 58 C382 34 337 28 301 28 C195 28 123 96 123 213 L123 240 L448 240 C484 240 500 260 500 289 Z M123 277 C120 409 179 485 298 485 C401 485 469 414 463 293 C462 281 457 277 447 277 Z " />
<glyph glyph-name="f" unicode="f" horiz-adv-x="355" d="M116 504 L71 504 C60 504 51 496 51 485 C51 474 60 467 71 467 L116 467 L116 16 C116 5 124 -4 134 -4 C145 -4 153 5 153 16 L153 467 L313 467 C323 467 333 474 333 485 C333 496 323 504 313 504 L153 504 L153 559 C153 629 179 673 255 673 C296 673 317 664 330 664 C343 664 349 674 349 681 C349 690 345 696 332 700 C316 705 288 710 255 710 C157 710 116 648 116 559 Z " />
<glyph glyph-name="g" unicode="g" horiz-adv-x="600" d="M492 446 C492 461 488 467 476 475 C441 498 368 522 294 522 C168 522 94 452 86 325 C84 295 84 231 86 201 C94 78 167 2 291 2 C357 2 412 23 455 45 L455 37 C455 -72 388 -143 290 -143 C239 -143 187 -128 150 -101 C143 -96 135 -91 128 -91 C117 -91 109 -99 109 -110 C109 -118 115 -125 127 -133 C156 -152 213 -179 291 -179 C422 -179 492 -83 492 42 Z M292 485 C362 485 427 462 455 444 L455 90 C431 70 375 39 293 39 C175 39 132 105 124 194 C121 231 120 295 124 333 C133 424 178 485 292 485 Z " />
<glyph glyph-name="h" unicode="h" horiz-adv-x="618" d="M145 685 C145 695 137 705 127 705 C116 705 108 695 108 685 L108 15 C108 4 116 -4 127 -4 C138 -4 145 4 145 15 L145 386 C184 441 257 486 331 486 C429 486 481 424 481 328 L481 16 C481 4 490 -4 500 -4 C510 -4 518 4 518 16 L518 330 C518 458 437 523 329 523 C259 523 188 485 145 437 Z " />
<glyph glyph-name="i" unicode="i" horiz-adv-x="261" d="M163 664 C163 682 149 697 131 697 C112 697 98 682 98 664 C98 646 112 631 131 631 C149 631 163 646 163 664 Z M130 515 C119 515 112 506 112 495 L112 16 C112 5 119 -4 130 -4 C141 -4 149 5 149 16 L149 495 C149 506 140 515 130 515 Z " />
<glyph glyph-name="j" unicode="j" horiz-adv-x="251" d="M36 -192 C42 -192 47 -190 52 -184 C108 -119 139 -64 139 56 L139 496 C139 507 130 515 120 515 C109 515 102 506 102 495 L102 48 C102 -45 82 -96 24 -159 C19 -164 18 -169 18 -174 C18 -184 26 -192 36 -192 Z M153 664 C153 682 139 697 121 697 C102 697 88 682 88 664 C88 646 102 631 121 631 C139 631 153 646 153 664 Z " />
<glyph glyph-name="k" unicode="k" horiz-adv-x="512" d="M481 16 C481 21 479 26 474 31 L238 266 L464 484 C469 489 472 495 472 501 C472 511 463 519 454 519 C449 519 443 516 439 512 L230 311 C210 291 200 285 170 285 L145 285 L145 686 C145 697 138 705 126 705 C116 705 108 697 108 686 L108 14 C108 4 116 -4 127 -4 C138 -4 145 4 145 15 L145 248 L169 248 C200 248 210 241 230 221 L448 3 C452 -1 457 -3 462 -3 C472 -3 481 6 481 16 Z " />
<glyph glyph-name="l" unicode="l" horiz-adv-x="253" d="M126 705 C115 705 108 696 108 685 L108 16 C108 5 116 -4 127 -4 C139 -4 145 5 145 16 L145 685 C145 696 138 705 126 705 Z " />
<glyph glyph-name="m" unicode="m" horiz-adv-x="888" d="M788 334 C788 458 729 523 611 523 C530 523 475 484 441 451 C414 493 369 523 289 523 C223 523 164 503 126 474 C113 464 109 458 109 445 L109 16 C109 5 117 -4 127 -4 C139 -4 146 5 146 16 L146 443 C173 464 219 486 289 486 C374 486 430 440 430 335 L430 16 C430 5 438 -4 449 -4 C460 -4 467 5 467 16 L467 331 C467 362 464 389 456 415 C481 443 537 486 611 486 C700 486 751 441 751 334 L751 16 C751 5 758 -4 769 -4 C780 -4 788 5 788 16 Z " />
<glyph glyph-name="n" unicode="n" horiz-adv-x="620" d="M519 330 C519 459 440 522 318 522 C223 522 155 489 127 472 C113 464 110 457 110 443 L110 16 C110 5 118 -4 128 -4 C140 -4 147 5 147 16 L147 440 C182 462 249 485 317 485 C415 485 482 441 482 329 L482 16 C482 5 490 -4 501 -4 C513 -4 519 5 519 16 Z " />
<glyph glyph-name="o" unicode="o" horiz-adv-x="591" d="M296 522 C178 522 91 444 87 329 C85 289 85 229 87 189 C91 75 178 -9 296 -9 C413 -9 499 75 504 189 C506 229 506 289 504 329 C499 444 413 522 296 522 Z M296 485 C396 485 460 422 465 334 C468 294 469 223 465 183 C457 90 392 28 296 28 C199 28 134 90 126 183 C123 224 124 294 126 334 C131 422 196 485 296 485 Z " />
<glyph glyph-name="p" unicode="p" horiz-adv-x="603" d="M513 184 C516 220 516 290 513 325 C503 450 435 522 306 522 C225 522 140 478 118 463 C108 456 108 448 108 441 L108 -171 C108 -183 116 -192 127 -192 C137 -192 145 -183 145 -171 L145 30 C186 12 246 -9 312 -9 C434 -9 503 59 513 184 Z M474 332 C478 294 477 213 474 177 C467 84 420 28 313 28 C245 28 175 53 146 70 L146 436 C173 455 248 485 306 485 C411 485 463 431 474 332 Z " />
<glyph glyph-name="q" unicode="q" horiz-adv-x="600" d="M89 184 C99 59 168 -9 290 -9 C356 -9 416 12 457 30 L457 -171 C457 -183 465 -192 475 -192 C486 -192 494 -183 494 -171 L494 441 C494 448 494 456 484 463 C462 478 377 522 296 522 C167 522 99 450 89 325 C86 290 86 220 89 184 Z M128 332 C139 431 191 485 296 485 C354 485 430 455 457 436 L457 70 C428 53 357 28 289 28 C182 28 135 84 128 177 C125 213 124 294 128 332 Z " />
<glyph glyph-name="r" unicode="r" horiz-adv-x="359" d="M335 513 C319 517 289 522 255 522 C158 522 104 470 104 374 L104 15 C104 4 112 -4 122 -4 C133 -4 141 4 141 15 L141 373 C141 450 176 484 255 485 C294 485 320 477 335 477 C346 477 352 487 352 494 C352 503 346 510 335 513 Z " />
<glyph glyph-name="s" unicode="s" horiz-adv-x="475" d="M65 64 C65 58 67 52 73 48 C121 10 180 -9 251 -9 C356 -9 422 52 422 139 C422 326 114 238 114 378 C114 448 163 485 248 485 C286 485 322 474 356 451 C365 445 377 443 384 451 C392 461 391 473 380 481 C349 502 301 522 248 522 C144 522 77 465 77 378 C77 199 385 285 385 139 C385 77 332 28 250 28 C192 28 136 45 98 77 C93 81 88 83 83 83 C73 83 65 75 65 64 Z " />
<glyph glyph-name="t" unicode="t" horiz-adv-x="393" d="M333 14 C345 19 349 27 349 34 C349 49 333 55 320 49 C294 38 261 29 234 29 C166 29 139 74 139 129 L139 467 L312 467 C323 467 332 474 332 486 C332 496 323 504 312 504 L139 504 L139 596 C139 607 133 615 121 615 C111 615 102 607 102 596 L102 133 C102 53 141 -8 234 -8 C273 -8 305 1 333 14 Z " />
<glyph glyph-name="u" unicode="u" horiz-adv-x="620" d="M100 183 C100 60 189 -9 304 -9 C405 -9 468 34 497 52 C507 58 510 67 510 76 L510 495 C510 506 502 515 491 515 C480 515 473 506 473 495 L473 81 C435 54 381 28 302 28 C206 28 137 86 137 183 L137 496 C137 506 129 515 119 515 C110 515 100 507 100 496 Z " />
<glyph glyph-name="v" unicode="v" horiz-adv-x="494" d="M249 -6 C269 -6 284 6 293 30 L469 489 C470 492 471 495 471 498 C471 509 462 516 453 516 C442 516 437 510 434 502 L255 36 C253 31 245 30 243 36 L64 502 C61 510 56 516 45 516 C36 516 27 509 27 498 C27 495 28 492 29 489 L205 30 C214 6 229 -6 249 -6 Z " />
<glyph glyph-name="w" unicode="w" horiz-adv-x="815" d="M450 481 C443 506 429 518 409 518 C388 518 373 506 366 481 L233 28 C232 25 231 23 228 23 C225 23 224 25 223 28 L81 504 C78 515 69 518 63 518 C51 518 41 506 45 492 L185 21 C192 -3 210 -15 229 -15 C250 -15 263 -3 270 21 L403 476 C405 481 411 481 413 476 L546 21 C553 -3 566 -15 587 -15 C606 -15 624 -3 631 21 L771 492 C775 506 765 518 753 518 C747 518 738 515 735 504 L593 28 C592 25 591 23 588 23 C585 23 584 25 583 28 Z " />
<glyph glyph-name="x" unicode="x" horiz-adv-x="533" d="M473 15 C473 19 472 24 468 29 L290 263 L456 484 C466 497 456 514 441 514 C435 514 430 511 427 507 L267 293 L106 507 C103 511 98 514 92 514 C77 514 68 496 78 483 L244 263 L66 28 C62 23 61 18 61 14 C61 4 69 -3 79 -3 C85 -3 91 -1 94 4 L267 232 L440 5 C443 0 449 -2 455 -2 C465 -2 473 5 473 15 Z " />
<glyph glyph-name="y" unicode="y" horiz-adv-x="492" d="M237 29 C201 -68 152 -124 101 -149 C93 -153 89 -159 89 -166 C89 -179 100 -184 107 -184 C113 -184 118 -183 128 -178 C178 -150 237 -72 272 15 L462 489 C466 500 458 513 446 513 C435 513 432 507 428 499 L261 88 C259 84 258 82 256 82 C253 82 252 84 250 88 L67 500 C64 507 59 513 48 513 C35 513 27 500 32 486 Z " />
<glyph glyph-name="z" unicode="z" horiz-adv-x="514" d="M109 504 C98 504 89 496 89 485 C89 475 98 467 109 467 L418 467 L79 57 C74 50 71 43 71 32 C71 15 86 0 110 0 L429 0 C440 0 449 8 449 19 C449 30 440 37 429 37 L110 37 L449 447 C455 454 457 461 457 472 C457 489 442 504 418 504 Z " />
<glyph glyph-name="agrave" unicode="&#xe0;" horiz-adv-x="566" d="M469 349 C469 472 395 522 282 522 C221 522 158 505 126 488 C119 484 114 477 114 469 C114 454 130 445 144 452 C180 469 231 485 282 485 C379 485 432 443 432 348 L432 283 C367 301 309 310 264 310 C145 310 73 246 73 156 C73 54 141 -9 270 -9 C360 -9 423 23 458 48 C467 54 469 61 469 70 Z M270 28 C160 28 110 77 110 156 C110 229 172 273 263 273 C321 273 367 264 432 245 L432 78 C405 56 349 28 270 28 Z M354 591 C358 589 361 588 366 588 C375 588 384 595 384 606 C384 614 380 620 372 624 L237 693 C233 695 230 696 225 696 C216 696 207 689 207 678 C207 670 211 664 219 660 Z " />
<glyph glyph-name="aacute" unicode="&#xe1;" horiz-adv-x="566" d="M469 349 C469 472 395 522 282 522 C221 522 158 505 126 488 C119 484 114 477 114 469 C114 454 130 445 144 452 C180 469 231 485 282 485 C379 485 432 443 432 348 L432 283 C367 301 309 310 264 310 C145 310 73 246 73 156 C73 54 141 -9 270 -9 C360 -9 423 23 458 48 C467 54 469 61 469 70 Z M270 28 C160 28 110 77 110 156 C110 229 172 273 263 273 C321 273 367 264 432 245 L432 78 C405 56 349 28 270 28 Z M350 660 C358 664 362 670 362 678 C362 689 353 696 344 696 C339 696 336 695 332 693 L197 624 C189 620 185 614 185 606 C185 595 194 588 203 588 C208 588 211 589 215 591 Z " />
<glyph glyph-name="acircumflex" unicode="&#xe2;" horiz-adv-x="566" d="M469 349 C469 472 395 522 282 522 C221 522 158 505 126 488 C119 484 114 477 114 469 C114 454 130 445 144 452 C180 469 231 485 282 485 C379 485 432 443 432 348 L432 283 C367 301 309 310 264 310 C145 310 73 246 73 156 C73 54 141 -9 270 -9 C360 -9 423 23 458 48 C467 54 469 61 469 70 Z M270 28 C160 28 110 77 110 156 C110 229 172 273 263 273 C321 273 367 264 432 245 L432 78 C405 56 349 28 270 28 Z M283 639 L364 579 C369 576 373 575 377 575 C388 575 396 584 396 594 C396 602 391 607 388 609 L307 669 C299 675 292 678 283 678 C274 678 267 675 259 669 L178 609 C175 607 170 602 170 594 C170 584 178 575 189 575 C193 575 197 576 202 579 Z " />
<glyph glyph-name="atilde" unicode="&#xe3;" horiz-adv-x="566" d="M469 349 C469 472 395 522 282 522 C221 522 158 505 126 488 C119 484 114 477 114 469 C114 454 130 445 144 452 C180 469 231 485 282 485 C379 485 432 443 432 348 L432 283 C367 301 309 310 264 310 C145 310 73 246 73 156 C73 54 141 -9 270 -9 C360 -9 423 23 458 48 C467 54 469 61 469 70 Z M270 28 C160 28 110 77 110 156 C110 229 172 273 263 273 C321 273 367 264 432 245 L432 78 C405 56 349 28 270 28 Z M336 632 C304 632 279 669 234 669 C212 669 187 657 169 642 C165 638 161 633 161 625 C161 616 168 607 180 607 C198 607 209 632 233 632 C261 632 289 595 335 595 C357 595 379 607 398 620 C406 626 409 631 409 639 C409 649 400 656 391 656 C374 656 360 632 336 632 Z " />
<glyph glyph-name="adieresis" unicode="&#xe4;" horiz-adv-x="566" d="M469 349 C469 472 395 522 282 522 C221 522 158 505 126 488 C119 484 114 477 114 469 C114 454 130 445 144 452 C180 469 231 485 282 485 C379 485 432 443 432 348 L432 283 C367 301 309 310 264 310 C145 310 73 246 73 156 C73 54 141 -9 270 -9 C360 -9 423 23 458 48 C467 54 469 61 469 70 Z M270 28 C160 28 110 77 110 156 C110 229 172 273 263 273 C321 273 367 264 432 245 L432 78 C405 56 349 28 270 28 Z M213 661 C197 661 184 648 184 632 C184 615 197 602 213 602 C230 602 243 615 243 632 C243 648 230 661 213 661 Z M355 661 C338 661 325 648 325 632 C325 615 338 602 355 602 C371 602 384 615 384 632 C384 648 371 661 355 661 Z " />
<glyph glyph-name="amacron" unicode="&#x101;" horiz-adv-x="566" d="M469 349 C469 472 395 522 282 522 C221 522 158 505 126 488 C119 484 114 477 114 469 C114 454 130 445 144 452 C180 469 231 485 282 485 C379 485 432 443 432 348 L432 283 C367 301 309 310 264 310 C145 310 73 246 73 156 C73 54 141 -9 270 -9 C360 -9 423 23 458 48 C467 54 469 61 469 70 Z M270 28 C160 28 110 77 110 156 C110 229 172 273 263 273 C321 273 367 264 432 245 L432 78 C405 56 349 28 270 28 Z M199 650 C188 650 180 642 180 632 C180 622 188 614 199 614 L369 614 C379 614 387 622 387 632 C387 642 379 650 369 650 Z " />
<glyph glyph-name="abreve" unicode="&#x103;" horiz-adv-x="566" d="M469 349 C469 472 395 522 282 522 C221 522 158 505 126 488 C119 484 114 477 114 469 C114 454 130 445 144 452 C180 469 231 485 282 485 C379 485 432 443 432 348 L432 283 C367 301 309 310 264 310 C145 310 73 246 73 156 C73 54 141 -9 270 -9 C360 -9 423 23 458 48 C467 54 469 61 469 70 Z M270 28 C160 28 110 77 110 156 C110 229 172 273 263 273 C321 273 367 264 432 245 L432 78 C405 56 349 28 270 28 Z M354 679 C347 647 320 627 286 627 C252 627 225 648 218 679 C216 689 211 696 200 696 C190 696 182 689 182 677 C182 671 183 666 185 660 C197 621 238 589 286 589 C334 589 375 621 387 660 C389 666 390 671 390 677 C390 689 382 696 372 696 C361 696 356 689 354 679 Z " />
<glyph glyph-name="aring" unicode="&#xe5;" horiz-adv-x="566" d="M469 349 C469 472 395 522 282 522 C221 522 158 505 126 488 C119 484 114 477 114 469 C114 454 130 445 144 452 C180 469 231 485 282 485 C379 485 432 443 432 348 L432 283 C367 301 309 310 264 310 C145 310 73 246 73 156 C73 54 141 -9 270 -9 C360 -9 423 23 458 48 C467 54 469 61 469 70 Z M270 28 C160 28 110 77 110 156 C110 229 172 273 263 273 C321 273 367 264 432 245 L432 78 C405 56 349 28 270 28 Z M201 648 C201 604 239 566 284 566 C328 566 365 604 365 648 C365 692 328 729 284 729 C239 729 201 692 201 648 Z M230 648 C230 677 254 701 284 701 C313 701 337 677 337 648 C337 619 313 594 284 594 C254 594 230 619 230 648 Z " />
<glyph glyph-name="aogonek" unicode="&#x105;" horiz-adv-x="566" d="M451 -109 C446 -109 440 -110 436 -114 C421 -125 404 -130 389 -130 C361 -130 332 -110 332 -73 C332 -40 358 -4 401 17 C427 30 442 36 458 48 C467 54 469 61 469 70 L469 349 C469 472 395 522 282 522 C221 522 158 505 126 488 C119 484 114 477 114 469 C114 454 130 445 144 452 C180 469 231 485 282 485 C379 485 432 443 432 348 L432 283 C367 301 309 310 264 310 C145 310 73 246 73 156 C73 54 141 -9 270 -9 C286 -9 302 -8 317 -6 C301 -27 294 -50 294 -73 C294 -130 341 -167 389 -167 C412 -167 436 -161 458 -145 C465 -140 469 -133 469 -126 C469 -116 460 -109 451 -109 Z M270 28 C160 28 110 77 110 156 C110 229 172 273 263 273 C321 273 367 264 432 245 L432 78 C405 56 349 28 270 28 Z " />
<glyph glyph-name="ae" unicode="&#xe6;" horiz-adv-x="921" d="M846 316 C846 432 768 522 643 522 C555 522 488 477 459 416 C435 495 364 522 282 522 C221 522 158 505 126 488 C119 484 114 477 114 469 C114 454 130 445 144 452 C180 469 231 485 282 485 C379 485 432 443 432 348 L432 283 C367 301 309 310 264 310 C145 310 73 246 73 156 C73 54 141 -9 270 -9 C360 -9 423 23 477 66 C513 19 571 -9 649 -9 C699 -9 769 8 801 24 C809 28 813 35 813 42 C813 51 806 60 795 60 C792 60 789 60 785 58 C728 34 683 28 647 28 C541 28 469 97 469 214 L469 240 L794 240 C830 240 846 260 846 289 Z M270 28 C160 28 110 78 110 156 C110 229 172 273 263 273 C321 273 367 264 432 245 C429 188 439 140 457 99 C406 56 349 28 270 28 Z M793 277 L469 277 C466 409 525 485 644 485 C743 485 809 421 809 307 C809 290 809 277 793 277 Z " />
<glyph glyph-name="cacute" unicode="&#x107;" horiz-adv-x="556" d="M300 28 C192 28 132 97 126 184 C123 220 124 300 126 332 C132 425 199 487 300 487 C361 487 427 455 450 379 C453 367 459 361 470 361 C478 361 488 368 488 380 C488 416 432 524 300 524 C177 524 93 444 88 329 C86 289 86 228 88 188 C92 77 172 -9 300 -9 C432 -9 488 99 488 135 C488 147 478 154 470 154 C459 154 453 148 450 136 C427 60 361 28 300 28 Z M382 660 C390 664 394 670 394 678 C394 689 385 696 376 696 C371 696 368 695 364 693 L229 624 C221 620 217 614 217 606 C217 595 226 588 235 588 C240 588 243 589 247 591 Z " />
<glyph glyph-name="ccaron" unicode="&#x10d;" horiz-adv-x="556" d="M300 28 C192 28 132 97 126 184 C123 220 124 300 126 332 C132 425 199 487 300 487 C361 487 427 455 450 379 C453 367 459 361 470 361 C478 361 488 368 488 380 C488 416 432 524 300 524 C177 524 93 444 88 329 C86 289 86 228 88 188 C92 77 172 -9 300 -9 C432 -9 488 99 488 135 C488 147 478 154 470 154 C459 154 453 148 450 136 C427 60 361 28 300 28 Z M213 686 C208 689 204 690 200 690 C189 690 181 681 181 671 C181 663 186 658 189 656 L270 596 C278 590 285 587 294 587 C303 587 310 590 318 596 L399 656 C402 658 407 663 407 671 C407 681 399 690 388 690 C384 690 380 689 375 686 L294 626 Z " />
<glyph glyph-name="cdotaccent" unicode="&#x10b;" horiz-adv-x="556" d="M300 28 C192 28 132 97 126 184 C123 220 124 300 126 332 C132 425 199 487 300 487 C361 487 427 455 450 379 C453 367 459 361 470 361 C478 361 488 368 488 380 C488 416 432 524 300 524 C177 524 93 444 88 329 C86 289 86 228 88 188 C92 77 172 -9 300 -9 C432 -9 488 99 488 135 C488 147 478 154 470 154 C459 154 453 148 450 136 C427 60 361 28 300 28 Z M296 661 C279 661 266 648 266 632 C266 615 279 602 296 602 C313 602 326 615 326 632 C326 648 313 661 296 661 Z " />
<glyph glyph-name="ccedilla" unicode="&#xe7;" horiz-adv-x="556" d="M300 28 C192 28 132 97 126 184 C123 220 124 300 126 332 C132 425 199 487 300 487 C361 487 427 455 450 379 C453 367 459 361 470 361 C478 361 488 368 488 380 C488 416 432 524 300 524 C177 524 93 444 88 329 C86 289 86 228 88 188 C91 84 161 2 274 -8 L252 -73 C246 -87 256 -100 270 -100 C279 -100 288 -93 301 -93 C324 -93 342 -107 342 -130 C342 -157 311 -182 252 -201 C239 -205 237 -214 237 -220 C237 -231 250 -240 263 -236 C338 -212 378 -174 378 -129 C378 -86 339 -56 293 -60 L311 -11 L311 -9 C435 -3 488 100 488 135 C488 147 478 154 470 154 C459 154 453 148 450 136 C427 60 361 28 300 28 Z " />
<glyph glyph-name="dcaron" unicode="&#x10f;" horiz-adv-x="578" d="M88 329 C85 293 85 223 88 188 C98 63 166 -9 295 -9 C376 -9 461 35 483 50 C493 57 493 65 493 72 L493 684 C493 696 485 705 474 705 C464 705 456 696 456 684 L456 483 C415 501 355 522 289 522 C167 522 98 454 88 329 Z M127 181 C123 219 124 300 127 336 C134 429 181 485 288 485 C356 485 427 460 456 443 L456 77 C429 58 353 28 295 28 C190 28 138 82 127 181 Z M624 679 C624 690 615 698 605 698 C595 698 587 690 587 679 L587 640 C587 605 581 593 567 568 C566 566 563 562 563 556 C563 547 570 538 581 538 C589 538 595 544 598 548 C609 565 624 591 624 635 Z " />
<glyph glyph-name="dcroat" unicode="&#x111;" horiz-adv-x="600" d="M88 329 C85 293 85 223 88 188 C98 63 166 -9 295 -9 C376 -9 461 35 483 50 C493 57 493 65 493 72 L493 587 L532 587 C543 587 552 595 552 605 C552 616 543 624 532 624 L493 624 L493 684 C493 696 485 705 474 705 C464 705 456 696 456 684 L456 624 L335 624 C324 624 315 617 315 605 C315 595 324 587 335 587 L456 587 L456 483 C415 501 355 522 289 522 C167 522 98 454 88 329 Z M127 181 C123 219 124 300 127 336 C134 429 181 485 288 485 C356 485 427 460 456 443 L456 77 C429 58 353 28 295 28 C190 28 138 82 127 181 Z " />
<glyph glyph-name="egrave" unicode="&#xe8;" horiz-adv-x="574" d="M500 316 C500 432 422 522 298 522 C181 522 95 447 88 320 C86 289 85 245 86 209 C92 77 163 -9 303 -9 C353 -9 423 8 455 24 C463 28 467 36 467 42 C467 51 460 60 449 60 C446 60 443 60 439 58 C382 34 337 28 301 28 C195 28 123 96 123 213 L123 240 L448 240 C484 240 500 260 500 289 Z M123 277 C120 409 179 485 298 485 C401 485 469 414 463 293 C462 281 457 277 447 277 Z M349 591 C353 589 356 588 361 588 C370 588 379 595 379 606 C379 614 375 620 367 624 L232 693 C228 695 225 696 220 696 C211 696 202 689 202 678 C202 670 206 664 214 660 Z " />
<glyph glyph-name="eacute" unicode="&#xe9;" horiz-adv-x="574" d="M500 316 C500 432 422 522 298 522 C181 522 95 447 88 320 C86 289 85 245 86 209 C92 77 163 -9 303 -9 C353 -9 423 8 455 24 C463 28 467 36 467 42 C467 51 460 60 449 60 C446 60 443 60 439 58 C382 34 337 28 301 28 C195 28 123 96 123 213 L123 240 L448 240 C484 240 500 260 500 289 Z M123 277 C120 409 179 485 298 485 C401 485 469 414 463 293 C462 281 457 277 447 277 Z M378 660 C386 664 390 670 390 678 C390 689 381 696 372 696 C367 696 364 695 360 693 L225 624 C217 620 213 614 213 606 C213 595 222 588 231 588 C236 588 239 589 243 591 Z " />
<glyph glyph-name="ecircumflex" unicode="&#xea;" horiz-adv-x="574" d="M500 316 C500 432 422 522 298 522 C181 522 95 447 88 320 C86 289 85 245 86 209 C92 77 163 -9 303 -9 C353 -9 423 8 455 24 C463 28 467 36 467 42 C467 51 460 60 449 60 C446 60 443 60 439 58 C382 34 337 28 301 28 C195 28 123 96 123 213 L123 240 L448 240 C484 240 500 260 500 289 Z M123 277 C120 409 179 485 298 485 C401 485 469 414 463 293 C462 281 457 277 447 277 Z M285 652 L366 592 C371 589 375 588 379 588 C390 588 398 597 398 607 C398 615 393 620 390 622 L309 682 C301 688 294 691 285 691 C276 691 269 688 261 682 L180 622 C177 620 172 615 172 607 C172 597 180 588 191 588 C195 588 199 589 204 592 Z " />
<glyph glyph-name="ecaron" unicode="&#x11b;" horiz-adv-x="574" d="M500 316 C500 432 422 522 298 522 C181 522 95 447 88 320 C86 289 85 245 86 209 C92 77 163 -9 303 -9 C353 -9 423 8 455 24 C463 28 467 36 467 42 C467 51 460 60 449 60 C446 60 443 60 439 58 C382 34 337 28 301 28 C195 28 123 96 123 213 L123 240 L448 240 C484 240 500 260 500 289 Z M123 277 C120 409 179 485 298 485 C401 485 469 414 463 293 C462 281 457 277 447 277 Z M212 685 C207 688 203 689 199 689 C188 689 180 680 180 670 C180 662 185 657 188 655 L269 595 C277 589 284 586 293 586 C302 586 309 589 317 595 L398 655 C401 657 406 662 406 670 C406 680 398 689 387 689 C383 689 379 688 374 685 L293 625 Z " />
<glyph glyph-name="edieresis" unicode="&#xeb;" horiz-adv-x="574" d="M500 316 C500 432 422 522 298 522 C181 522 95 447 88 320 C86 289 85 245 86 209 C92 77 163 -9 303 -9 C353 -9 423 8 455 24 C463 28 467 36 467 42 C467 51 460 60 449 60 C446 60 443 60 439 58 C382 34 337 28 301 28 C195 28 123 96 123 213 L123 240 L448 240 C484 240 500 260 500 289 Z M123 277 C120 409 179 485 298 485 C401 485 469 414 463 293 C462 281 457 277 447 277 Z M226 661 C210 661 197 648 197 632 C197 615 210 602 226 602 C243 602 256 615 256 632 C256 648 243 661 226 661 Z M368 661 C351 661 338 648 338 632 C338 615 351 602 368 602 C384 602 397 615 397 632 C397 648 384 661 368 661 Z " />
<glyph glyph-name="emacron" unicode="&#x113;" horiz-adv-x="574" d="M500 316 C500 432 422 522 298 522 C181 522 95 447 88 320 C86 289 85 245 86 209 C92 77 163 -9 303 -9 C353 -9 423 8 455 24 C463 28 467 36 467 42 C467 51 460 60 449 60 C446 60 443 60 439 58 C382 34 337 28 301 28 C195 28 123 96 123 213 L123 240 L448 240 C484 240 500 260 500 289 Z M123 277 C120 409 179 485 298 485 C401 485 469 414 463 293 C462 281 457 277 447 277 Z M202 651 C191 651 183 643 183 633 C183 623 191 615 202 615 L372 615 C382 615 390 623 390 633 C390 643 382 651 372 651 Z " />
<glyph glyph-name="edotaccent" unicode="&#x117;" horiz-adv-x="574" d="M500 316 C500 432 422 522 298 522 C181 522 95 447 88 320 C86 289 85 245 86 209 C92 77 163 -9 303 -9 C353 -9 423 8 455 24 C463 28 467 36 467 42 C467 51 460 60 449 60 C446 60 443 60 439 58 C382 34 337 28 301 28 C195 28 123 96 123 213 L123 240 L448 240 C484 240 500 260 500 289 Z M123 277 C120 409 179 485 298 485 C401 485 469 414 463 293 C462 281 457 277 447 277 Z M299 660 C282 660 269 647 269 631 C269 614 282 601 299 601 C316 601 329 614 329 631 C329 647 316 660 299 660 Z " />
<glyph glyph-name="eogonek" unicode="&#x119;" horiz-adv-x="574" d="M461 -120 C456 -120 451 -122 444 -127 C429 -138 414 -141 399 -141 C371 -141 342 -121 342 -84 C342 -49 367 -8 428 13 C438 16 447 20 455 24 C463 28 467 36 467 42 C467 51 460 60 449 60 C446 60 443 60 439 58 C382 34 337 28 301 28 C195 28 123 96 123 213 L123 240 L448 240 C484 240 500 260 500 289 L500 316 C500 432 422 522 298 522 C181 522 95 447 88 320 C86 289 85 245 86 209 C92 77 163 -9 303 -9 C313 -9 324 -8 335 -7 C314 -30 304 -57 304 -84 C304 -141 351 -178 399 -178 C422 -178 447 -172 468 -156 C475 -151 479 -144 479 -138 C479 -127 471 -120 461 -120 Z M123 277 C120 409 179 485 298 485 C401 485 469 414 463 293 C462 281 457 277 447 277 Z " />
<glyph glyph-name="gbreve" unicode="&#x11f;" horiz-adv-x="600" d="M492 446 C492 461 488 467 476 475 C441 498 368 522 294 522 C168 522 94 452 86 325 C84 295 84 231 86 201 C94 78 167 2 291 2 C357 2 412 23 455 45 L455 37 C455 -72 388 -143 290 -143 C239 -143 187 -128 150 -101 C143 -96 135 -91 128 -91 C117 -91 109 -99 109 -110 C109 -118 115 -125 127 -133 C156 -152 213 -179 291 -179 C422 -179 492 -83 492 42 Z M292 485 C362 485 427 462 455 444 L455 90 C431 70 375 39 293 39 C175 39 132 105 124 194 C121 231 120 295 124 333 C133 424 178 485 292 485 Z M366 679 C359 647 332 627 298 627 C264 627 237 648 230 679 C228 689 223 696 212 696 C202 696 194 689 194 677 C194 671 195 666 197 660 C209 621 250 589 298 589 C346 589 387 621 399 660 C401 666 402 671 402 677 C402 689 394 696 384 696 C373 696 368 689 366 679 Z " />
<glyph glyph-name="gdotaccent" unicode="&#x121;" horiz-adv-x="600" d="M492 446 C492 461 488 467 476 475 C441 498 368 522 294 522 C168 522 94 452 86 325 C84 295 84 231 86 201 C94 78 167 2 291 2 C357 2 412 23 455 45 L455 37 C455 -72 388 -143 290 -143 C239 -143 187 -128 150 -101 C143 -96 135 -91 128 -91 C117 -91 109 -99 109 -110 C109 -118 115 -125 127 -133 C156 -152 213 -179 291 -179 C422 -179 492 -83 492 42 Z M292 485 C362 485 427 462 455 444 L455 90 C431 70 375 39 293 39 C175 39 132 105 124 194 C121 231 120 295 124 333 C133 424 178 485 292 485 Z M298 661 C281 661 268 648 268 632 C268 615 281 602 298 602 C315 602 328 615 328 632 C328 648 315 661 298 661 Z " />
<glyph glyph-name="gcommaaccent" unicode="&#x123;" horiz-adv-x="600" d="M492 446 C492 461 488 467 476 475 C441 498 368 522 294 522 C168 522 94 452 86 325 C84 295 84 231 86 201 C94 78 167 2 291 2 C357 2 412 23 455 45 L455 37 C455 -72 388 -143 290 -143 C239 -143 187 -128 150 -101 C143 -96 135 -91 128 -91 C117 -91 109 -99 109 -110 C109 -118 115 -125 127 -133 C156 -152 213 -179 291 -179 C422 -179 492 -83 492 42 Z M292 485 C362 485 427 462 455 444 L455 90 C431 70 375 39 293 39 C175 39 132 105 124 194 C121 231 120 295 124 333 C133 424 178 485 292 485 Z M333 715 C333 726 324 734 314 734 C304 734 296 726 296 715 L296 662 C296 627 294 612 268 576 C267 574 264 570 264 564 C264 555 271 546 282 546 C290 546 296 552 299 556 C319 585 333 613 333 657 Z " />
<glyph glyph-name="igrave" unicode="&#xec;" horiz-adv-x="261" d="M169 591 C173 589 176 588 181 588 C190 588 199 595 199 606 C199 614 195 620 187 624 L52 693 C48 695 45 696 40 696 C31 696 22 689 22 678 C22 670 26 664 34 660 Z M132 515 C121 515 113 506 113 495 L113 17 C113 5 121 -3 132 -3 C143 -3 150 5 150 17 L150 495 C150 506 142 515 132 515 Z " />
<glyph glyph-name="iacute" unicode="&#xed;" horiz-adv-x="261" d="M236 660 C244 664 248 670 248 678 C248 689 239 696 230 696 C225 696 222 695 218 693 L83 624 C75 620 71 614 71 606 C71 595 80 588 89 588 C94 588 97 589 101 591 Z M132 515 C121 515 113 506 113 495 L113 17 C113 5 121 -3 132 -3 C143 -3 150 5 150 17 L150 495 C150 506 142 515 132 515 Z " />
<glyph glyph-name="icircumflex" unicode="&#xee;" horiz-adv-x="261" d="M132 515 C121 515 113 506 113 495 L113 17 C113 5 121 -3 132 -3 C143 -3 150 5 150 17 L150 495 C150 506 142 515 132 515 Z M137 652 L218 592 C223 589 227 588 231 588 C242 588 250 597 250 607 C250 615 245 620 242 622 L161 682 C153 688 146 691 137 691 C128 691 121 688 113 682 L32 622 C29 620 24 615 24 607 C24 597 32 588 43 588 C47 588 51 589 56 592 Z " />
<glyph glyph-name="idieresis" unicode="&#xef;" horiz-adv-x="261" d="M66 661 C50 661 37 648 37 632 C37 615 50 602 66 602 C83 602 96 615 96 632 C96 648 83 661 66 661 Z M208 661 C191 661 178 648 178 632 C178 615 191 602 208 602 C224 602 237 615 237 632 C237 648 224 661 208 661 Z M132 515 C121 515 113 506 113 495 L113 17 C113 5 121 -3 132 -3 C143 -3 150 5 150 17 L150 495 C150 506 142 515 132 515 Z " />
<glyph glyph-name="imacron" unicode="&#x12b;" horiz-adv-x="261" d="M47 651 C36 651 28 643 28 633 C28 623 36 615 47 615 L217 615 C227 615 235 623 235 633 C235 643 227 651 217 651 Z M132 515 C121 515 113 506 113 495 L113 17 C113 5 121 -3 132 -3 C143 -3 150 5 150 17 L150 495 C150 506 142 515 132 515 Z " />
<glyph glyph-name="iogonek" unicode="&#x12f;" horiz-adv-x="261" d="M163 664 C163 682 149 697 131 697 C112 697 98 682 98 664 C98 646 112 631 131 631 C149 631 163 646 163 664 Z M160 -136 C155 -136 149 -137 145 -141 C130 -152 113 -157 98 -157 C70 -157 41 -137 41 -100 C41 -64 67 -28 131 -4 C141 0 150 5 150 20 L150 495 C150 506 141 515 131 515 C120 515 113 506 113 495 L113 30 C41 1 3 -50 3 -100 C3 -157 50 -194 98 -194 C121 -194 145 -188 167 -172 C174 -167 178 -160 178 -153 C178 -143 169 -136 160 -136 Z " />
<glyph glyph-name="dotlessi" unicode="&#x131;" horiz-adv-x="261" d="M132 515 C121 515 113 506 113 495 L113 17 C113 5 121 -3 132 -3 C143 -3 150 5 150 17 L150 495 C150 506 142 515 132 515 Z " />
<glyph glyph-name="kcommaaccent" unicode="&#x137;" horiz-adv-x="509" d="M481 16 C481 21 479 26 474 31 L238 266 L464 484 C469 489 472 495 472 501 C472 511 463 519 454 519 C449 519 443 516 439 512 L230 311 C210 291 200 285 170 285 L145 285 L145 686 C145 697 138 705 126 705 C116 705 108 697 108 686 L108 14 C108 4 116 -4 127 -4 C138 -4 145 4 145 15 L145 248 L169 248 C200 248 210 241 230 221 L448 3 C452 -1 457 -3 462 -3 C472 -3 481 6 481 16 Z M300 -49 C300 -38 291 -30 281 -30 C271 -30 263 -38 263 -49 L263 -102 C263 -137 261 -152 235 -188 C234 -190 231 -194 231 -200 C231 -209 238 -218 249 -218 C257 -218 263 -212 266 -208 C286 -179 300 -151 300 -107 Z " />
<glyph glyph-name="lacute" unicode="&#x13a;" horiz-adv-x="261" d="M131 705 C120 705 113 696 113 685 L113 16 C113 5 121 -4 132 -4 C144 -4 150 5 150 16 L150 685 C150 696 143 705 131 705 Z M204 825 C212 829 216 835 216 843 C216 854 207 861 198 861 C193 861 190 860 186 858 L51 789 C43 785 39 779 39 771 C39 760 48 753 57 753 C62 753 65 754 69 756 Z " />
<glyph glyph-name="lcaron" unicode="&#x13e;" horiz-adv-x="248" d="M127 705 C116 705 109 696 109 685 L109 16 C109 5 117 -4 128 -4 C140 -4 146 5 146 16 L146 685 C146 696 139 705 127 705 Z M294 679 C294 690 285 698 275 698 C265 698 257 690 257 679 L257 640 C257 605 251 593 237 568 C236 566 233 562 233 556 C233 547 240 538 251 538 C259 538 265 544 268 548 C279 565 294 591 294 635 Z " />
<glyph glyph-name="lcommaaccent" unicode="&#x13c;" horiz-adv-x="293" d="M163 705 C152 705 145 696 145 685 L145 16 C145 5 153 -4 164 -4 C176 -4 182 5 182 16 L182 685 C182 696 175 705 163 705 Z M179 -49 C179 -38 170 -30 160 -30 C150 -30 142 -38 142 -49 L142 -102 C142 -137 140 -152 114 -188 C113 -190 110 -194 110 -200 C110 -209 117 -218 128 -218 C136 -218 142 -212 145 -208 C165 -179 179 -151 179 -107 Z " />
<glyph glyph-name="lslash" unicode="&#x142;" horiz-adv-x="290" d="M143 705 C132 705 125 696 125 685 L125 366 L39 312 C33 308 29 302 29 296 C29 280 46 273 59 281 L125 323 L125 16 C125 5 133 -4 144 -4 C156 -4 162 5 162 16 L162 346 L253 405 C259 409 263 415 263 422 C263 438 245 443 234 436 L162 390 L162 685 C162 696 155 705 143 705 Z " />
<glyph glyph-name="nacute" unicode="&#x144;" horiz-adv-x="620" d="M519 330 C519 459 440 522 318 522 C223 522 155 489 127 472 C113 464 110 457 110 443 L110 16 C110 5 118 -4 128 -4 C140 -4 147 5 147 16 L147 440 C182 462 249 485 317 485 C415 485 482 441 482 329 L482 16 C482 5 490 -4 501 -4 C513 -4 519 5 519 16 Z M372 660 C380 664 384 670 384 678 C384 689 375 696 366 696 C361 696 358 695 354 693 L219 624 C211 620 207 614 207 606 C207 595 216 588 225 588 C230 588 233 589 237 591 Z " />
<glyph glyph-name="ncaron" unicode="&#x148;" horiz-adv-x="620" d="M519 330 C519 459 440 522 318 522 C223 522 155 489 127 472 C113 464 110 457 110 443 L110 16 C110 5 118 -4 128 -4 C140 -4 147 5 147 16 L147 440 C182 462 249 485 317 485 C415 485 482 441 482 329 L482 16 C482 5 490 -4 501 -4 C513 -4 519 5 519 16 Z M230 686 C225 689 221 690 217 690 C206 690 198 681 198 671 C198 663 203 658 206 656 L287 596 C295 590 302 587 311 587 C320 587 327 590 335 596 L416 656 C419 658 424 663 424 671 C424 681 416 690 405 690 C401 690 397 689 392 686 L311 626 Z " />
<glyph glyph-name="ntilde" unicode="&#xf1;" horiz-adv-x="620" d="M519 330 C519 459 440 522 318 522 C223 522 155 489 127 472 C113 464 110 457 110 443 L110 16 C110 5 118 -4 128 -4 C140 -4 147 5 147 16 L147 440 C182 462 249 485 317 485 C415 485 482 441 482 329 L482 16 C482 5 490 -4 501 -4 C513 -4 519 5 519 16 Z M363 632 C331 632 306 669 261 669 C239 669 214 657 196 642 C192 638 188 633 188 625 C188 616 195 607 207 607 C225 607 236 632 260 632 C288 632 316 595 362 595 C384 595 406 607 425 620 C433 626 436 631 436 639 C436 649 427 656 418 656 C401 656 387 632 363 632 Z " />
<glyph glyph-name="ncommaaccent" unicode="&#x146;" horiz-adv-x="620" d="M519 330 C519 459 440 522 318 522 C223 522 155 489 127 472 C113 464 110 457 110 443 L110 16 C110 5 118 -4 128 -4 C140 -4 147 5 147 16 L147 440 C182 462 249 485 317 485 C415 485 482 441 482 329 L482 16 C482 5 490 -4 501 -4 C513 -4 519 5 519 16 Z M332 -49 C332 -38 323 -30 313 -30 C303 -30 295 -38 295 -49 L295 -102 C295 -137 293 -152 267 -188 C266 -190 263 -194 263 -200 C263 -209 270 -218 281 -218 C289 -218 295 -212 298 -208 C318 -179 332 -151 332 -107 Z " />
<glyph glyph-name="ograve" unicode="&#xf2;" horiz-adv-x="591" d="M296 522 C178 522 91 444 87 329 C85 289 85 229 87 189 C91 75 178 -9 296 -9 C413 -9 499 75 504 189 C506 229 506 289 504 329 C499 444 413 522 296 522 Z M296 485 C396 485 460 422 465 334 C468 294 469 223 465 183 C457 90 392 28 296 28 C199 28 134 90 126 183 C123 224 124 294 126 334 C131 422 196 485 296 485 Z M367 591 C371 589 374 588 379 588 C388 588 397 595 397 606 C397 614 393 620 385 624 L250 693 C246 695 243 696 238 696 C229 696 220 689 220 678 C220 670 224 664 232 660 Z " />
<glyph glyph-name="oacute" unicode="&#xf3;" horiz-adv-x="591" d="M296 522 C178 522 91 444 87 329 C85 289 85 229 87 189 C91 75 178 -9 296 -9 C413 -9 499 75 504 189 C506 229 506 289 504 329 C499 444 413 522 296 522 Z M296 485 C396 485 460 422 465 334 C468 294 469 223 465 183 C457 90 392 28 296 28 C199 28 134 90 126 183 C123 224 124 294 126 334 C131 422 196 485 296 485 Z M365 660 C373 664 377 670 377 678 C377 689 368 696 359 696 C354 696 351 695 347 693 L212 624 C204 620 200 614 200 606 C200 595 209 588 218 588 C223 588 226 589 230 591 Z " />
<glyph glyph-name="ocircumflex" unicode="&#xf4;" horiz-adv-x="591" d="M296 522 C178 522 91 444 87 329 C85 289 85 229 87 189 C91 75 178 -9 296 -9 C413 -9 499 75 504 189 C506 229 506 289 504 329 C499 444 413 522 296 522 Z M296 485 C396 485 460 422 465 334 C468 294 469 223 465 183 C457 90 392 28 296 28 C199 28 134 90 126 183 C123 224 124 294 126 334 C131 422 196 485 296 485 Z M295 651 L376 591 C381 588 385 587 389 587 C400 587 408 596 408 606 C408 614 403 619 400 621 L319 681 C311 687 304 690 295 690 C286 690 279 687 271 681 L190 621 C187 619 182 614 182 606 C182 596 190 587 201 587 C205 587 209 588 214 591 Z " />
<glyph glyph-name="otilde" unicode="&#xf5;" horiz-adv-x="591" d="M296 522 C178 522 91 444 87 329 C85 289 85 229 87 189 C91 75 178 -9 296 -9 C413 -9 499 75 504 189 C506 229 506 289 504 329 C499 444 413 522 296 522 Z M296 485 C396 485 460 422 465 334 C468 294 469 223 465 183 C457 90 392 28 296 28 C199 28 134 90 126 183 C123 224 124 294 126 334 C131 422 196 485 296 485 Z M348 632 C316 632 291 669 246 669 C224 669 199 657 181 642 C177 638 173 633 173 625 C173 616 180 607 192 607 C210 607 221 632 245 632 C273 632 301 595 347 595 C369 595 391 607 410 620 C418 626 421 631 421 639 C421 649 412 656 403 656 C386 656 372 632 348 632 Z " />
<glyph glyph-name="odieresis" unicode="&#xf6;" horiz-adv-x="591" d="M296 522 C178 522 91 444 87 329 C85 289 85 229 87 189 C91 75 178 -9 296 -9 C413 -9 499 75 504 189 C506 229 506 289 504 329 C499 444 413 522 296 522 Z M296 485 C396 485 460 422 465 334 C468 294 469 223 465 183 C457 90 392 28 296 28 C199 28 134 90 126 183 C123 224 124 294 126 334 C131 422 196 485 296 485 Z M225 661 C209 661 196 648 196 632 C196 615 209 602 225 602 C242 602 255 615 255 632 C255 648 242 661 225 661 Z M367 661 C350 661 337 648 337 632 C337 615 350 602 367 602 C383 602 396 615 396 632 C396 648 383 661 367 661 Z " />
<glyph glyph-name="omacron" unicode="&#x14d;" horiz-adv-x="591" d="M296 522 C178 522 91 444 87 329 C85 289 85 229 87 189 C91 75 178 -9 296 -9 C413 -9 499 75 504 189 C506 229 506 289 504 329 C499 444 413 522 296 522 Z M296 485 C396 485 460 422 465 334 C468 294 469 223 465 183 C457 90 392 28 296 28 C199 28 134 90 126 183 C123 224 124 294 126 334 C131 422 196 485 296 485 Z M211 651 C200 651 192 643 192 633 C192 623 200 615 211 615 L381 615 C391 615 399 623 399 633 C399 643 391 651 381 651 Z " />
<glyph glyph-name="ohungarumlaut" unicode="&#x151;" horiz-adv-x="582" d="M296 522 C178 522 91 444 87 329 C85 289 85 229 87 189 C91 75 178 -9 296 -9 C413 -9 499 75 504 189 C506 229 506 289 504 329 C499 444 413 522 296 522 Z M296 485 C396 485 460 422 465 334 C468 294 469 223 465 183 C457 90 392 28 296 28 C199 28 134 90 126 183 C123 224 124 294 126 334 C131 422 196 485 296 485 Z M305 668 C311 672 315 678 315 685 C315 695 308 703 296 703 C291 703 288 701 282 697 L188 623 C182 619 178 613 178 606 C178 596 185 588 197 588 C202 588 205 590 211 594 Z M424 668 C430 672 434 678 434 685 C434 695 427 703 415 703 C410 703 407 701 401 697 L307 623 C301 619 297 613 297 606 C297 596 304 588 316 588 C321 588 324 590 330 594 Z " />
<glyph glyph-name="oslash" unicode="&#xf8;" horiz-adv-x="589" d="M295 522 C177 522 90 444 86 329 C84 289 84 229 86 189 C87 149 99 112 118 82 L76 33 C69 25 68 13 77 6 C86 -1 96 2 104 11 L141 54 C178 14 232 -9 295 -9 C412 -9 498 75 503 189 C505 229 505 289 503 329 C501 369 489 405 470 434 L513 484 C516 488 518 494 518 498 C518 515 496 519 485 507 L447 463 C410 500 356 522 295 522 Z M467 252 C467 226 466 201 464 183 C456 90 391 28 295 28 C240 28 195 48 165 82 L444 404 C466 363 467 316 467 252 Z M295 485 C349 485 393 466 422 435 L144 113 C125 151 123 191 123 250 C123 280 124 312 125 334 C130 422 195 485 295 485 Z " />
<glyph glyph-name="oe" unicode="&#x153;" horiz-adv-x="956" d="M505 277 C502 409 561 485 680 485 C783 485 851 414 845 293 C844 281 839 277 829 277 Z M487 114 C517 37 582 -9 685 -9 C735 -9 805 8 837 24 C845 28 849 36 849 42 C849 51 842 60 831 60 C828 60 825 60 821 58 C764 34 719 28 683 28 C577 28 505 96 505 213 L505 240 L830 240 C866 240 882 260 882 289 L882 316 C882 432 804 522 680 522 C591 522 520 479 488 402 C457 476 386 522 296 522 C178 522 91 444 87 329 C85 289 85 229 87 189 C91 75 178 -9 296 -9 C386 -9 456 40 487 114 Z M296 485 C396 485 460 422 465 334 C468 294 469 223 465 183 C457 90 392 28 296 28 C199 28 134 90 126 183 C123 224 124 294 126 334 C131 422 196 485 296 485 Z " />
<glyph glyph-name="racute" unicode="&#x155;" horiz-adv-x="366" d="M335 513 C319 517 289 522 255 522 C158 522 104 470 104 374 L104 15 C104 4 112 -4 122 -4 C133 -4 141 4 141 15 L141 373 C141 450 176 484 255 485 C294 485 320 477 335 477 C346 477 352 487 352 494 C352 503 346 510 335 513 Z M295 659 C303 663 307 669 307 677 C307 688 298 695 289 695 C284 695 281 694 277 692 L142 623 C134 619 130 613 130 605 C130 594 139 587 148 587 C153 587 156 588 160 590 Z " />
<glyph glyph-name="rcaron" unicode="&#x159;" horiz-adv-x="366" d="M335 513 C319 517 289 522 255 522 C158 522 104 470 104 374 L104 15 C104 4 112 -4 122 -4 C133 -4 141 4 141 15 L141 373 C141 450 176 484 255 485 C294 485 320 477 335 477 C346 477 352 487 352 494 C352 503 346 510 335 513 Z M149 685 C144 688 140 689 136 689 C125 689 117 680 117 670 C117 662 122 657 125 655 L206 595 C214 589 221 586 230 586 C239 586 246 589 254 595 L335 655 C338 657 343 662 343 670 C343 680 335 689 324 689 C320 689 316 688 311 685 L230 625 Z " />
<glyph glyph-name="rcommaaccent" unicode="&#x157;" horiz-adv-x="366" d="M335 513 C319 517 289 522 255 522 C158 522 104 470 104 374 L104 15 C104 4 112 -4 122 -4 C133 -4 141 4 141 15 L141 373 C141 450 176 484 255 485 C294 485 320 477 335 477 C346 477 352 487 352 494 C352 503 346 510 335 513 Z M142 -49 C142 -38 133 -30 123 -30 C113 -30 105 -38 105 -49 L105 -102 C105 -137 103 -152 77 -188 C76 -190 73 -194 73 -200 C73 -209 80 -218 91 -218 C99 -218 105 -212 108 -208 C128 -179 142 -151 142 -107 Z " />
<glyph glyph-name="sacute" unicode="&#x15b;" horiz-adv-x="478" d="M73 64 C73 58 75 52 81 48 C129 10 188 -9 259 -9 C364 -9 430 52 430 139 C430 326 122 238 122 378 C122 448 171 485 256 485 C294 485 330 474 364 451 C373 445 385 443 392 451 C400 461 399 473 388 481 C357 502 309 522 256 522 C152 522 85 465 85 378 C85 199 393 285 393 139 C393 77 340 28 258 28 C200 28 144 45 106 77 C101 81 96 83 91 83 C81 83 73 75 73 64 Z M315 660 C323 664 327 670 327 678 C327 689 318 696 309 696 C304 696 301 695 297 693 L162 624 C154 620 150 614 150 606 C150 595 159 588 168 588 C173 588 176 589 180 591 Z " />
<glyph glyph-name="scaron" unicode="&#x161;" horiz-adv-x="478" d="M73 64 C73 58 75 52 81 48 C129 10 188 -9 259 -9 C364 -9 430 52 430 139 C430 326 122 238 122 378 C122 448 171 485 256 485 C294 485 330 474 364 451 C373 445 385 443 392 451 C400 461 399 473 388 481 C357 502 309 522 256 522 C152 522 85 465 85 378 C85 199 393 285 393 139 C393 77 340 28 258 28 C200 28 144 45 106 77 C101 81 96 83 91 83 C81 83 73 75 73 64 Z M154 674 C149 677 145 678 141 678 C130 678 122 669 122 659 C122 651 127 646 130 644 L211 584 C219 578 226 575 235 575 C244 575 251 578 259 584 L340 644 C343 646 348 651 348 659 C348 669 340 678 329 678 C325 678 321 677 316 674 L235 614 Z " />
<glyph glyph-name="scedilla" unicode="&#x15f;" horiz-adv-x="478" d="M65 64 C65 58 67 52 73 48 C115 15 165 -3 224 -8 L202 -73 C196 -87 206 -100 220 -100 C229 -100 238 -93 251 -93 C274 -93 292 -107 292 -130 C292 -157 261 -182 202 -201 C189 -205 187 -214 187 -220 C187 -231 200 -240 213 -236 C288 -212 328 -174 328 -129 C328 -86 289 -56 243 -60 L261 -9 C360 -5 422 55 422 139 C422 326 114 238 114 378 C114 448 163 485 248 485 C286 485 322 474 356 451 C365 445 377 443 384 451 C392 461 391 473 380 481 C349 502 301 522 248 522 C144 522 77 465 77 378 C77 199 385 285 385 139 C385 77 332 28 250 28 C192 28 136 45 98 77 C93 81 88 83 83 83 C73 83 65 75 65 64 Z " />
<glyph glyph-name="scommaaccent" unicode="&#x219;" horiz-adv-x="478" d="M73 64 C73 58 75 52 81 48 C129 10 188 -9 259 -9 C364 -9 430 52 430 139 C430 326 122 238 122 378 C122 448 171 485 256 485 C294 485 330 474 364 451 C373 445 385 443 392 451 C400 461 399 473 388 481 C357 502 309 522 256 522 C152 522 85 465 85 378 C85 199 393 285 393 139 C393 77 340 28 258 28 C200 28 144 45 106 77 C101 81 96 83 91 83 C81 83 73 75 73 64 Z M274 -49 C274 -38 265 -30 255 -30 C245 -30 237 -38 237 -49 L237 -102 C237 -137 235 -152 209 -188 C208 -190 205 -194 205 -200 C205 -209 212 -218 223 -218 C231 -218 237 -212 240 -208 C260 -179 274 -151 274 -107 Z " />
<glyph glyph-name="germandbls" unicode="&#xdf;" horiz-adv-x="637" d="M302 660 C386 660 428 618 428 556 C428 495 337 460 337 384 C337 257 565 262 565 149 C565 66 507 30 423 30 C348 30 308 64 285 83 C271 93 253 84 253 69 C253 62 258 56 262 52 C308 12 359 -7 423 -7 C523 -7 602 45 602 149 C602 286 374 291 374 381 C374 448 467 478 467 557 C467 645 395 697 296 697 C178 697 108 630 108 505 L108 16 C108 5 117 -3 127 -3 C138 -3 145 5 145 16 L145 507 C145 617 206 660 302 660 Z " />
<glyph glyph-name="tcaron" unicode="&#x165;" horiz-adv-x="396" d="M336 14 C348 19 352 27 352 34 C352 49 336 55 323 49 C297 38 264 29 237 29 C169 29 142 74 142 129 L142 467 L315 467 C326 467 335 474 335 486 C335 496 326 504 315 504 L142 504 L142 596 C142 607 136 615 124 615 C114 615 105 607 105 596 L105 133 C105 53 144 -8 237 -8 C276 -8 308 1 336 14 Z M260 679 C260 690 251 698 241 698 C231 698 223 690 223 679 L223 640 C223 605 217 593 203 568 C202 566 199 562 199 556 C199 547 206 538 217 538 C225 538 231 544 234 548 C245 565 260 591 260 635 Z " />
<glyph glyph-name="tcommaaccent" unicode="&#x163;" horiz-adv-x="390" d="M336 14 C348 19 352 27 352 34 C352 49 336 55 323 49 C297 38 264 29 237 29 C169 29 142 74 142 129 L142 467 L315 467 C326 467 335 474 335 486 C335 496 326 504 315 504 L142 504 L142 596 C142 607 136 615 124 615 C114 615 105 607 105 596 L105 133 C105 53 144 -8 237 -8 C276 -8 308 1 336 14 Z M253 -49 C253 -38 244 -30 234 -30 C224 -30 216 -38 216 -49 L216 -102 C216 -137 214 -152 188 -188 C187 -190 184 -194 184 -200 C184 -209 191 -218 202 -218 C210 -218 216 -212 219 -208 C239 -179 253 -151 253 -107 Z " />
<glyph glyph-name="ugrave" unicode="&#xf9;" horiz-adv-x="620" d="M99 183 C99 60 188 -9 303 -9 C404 -9 467 34 496 52 C506 58 509 67 509 76 L509 495 C509 506 501 515 490 515 C479 515 472 506 472 495 L472 81 C434 54 380 28 301 28 C205 28 136 86 136 183 L136 496 C136 506 128 515 118 515 C109 515 99 507 99 496 Z M381 591 C385 589 388 588 393 588 C402 588 411 595 411 606 C411 614 407 620 399 624 L264 693 C260 695 257 696 252 696 C243 696 234 689 234 678 C234 670 238 664 246 660 Z " />
<glyph glyph-name="uacute" unicode="&#xfa;" horiz-adv-x="620" d="M99 183 C99 60 188 -9 303 -9 C404 -9 467 34 496 52 C506 58 509 67 509 76 L509 495 C509 506 501 515 490 515 C479 515 472 506 472 495 L472 81 C434 54 380 28 301 28 C205 28 136 86 136 183 L136 496 C136 506 128 515 118 515 C109 515 99 507 99 496 Z M374 660 C382 664 386 670 386 678 C386 689 377 696 368 696 C363 696 360 695 356 693 L221 624 C213 620 209 614 209 606 C209 595 218 588 227 588 C232 588 235 589 239 591 Z " />
<glyph glyph-name="ucircumflex" unicode="&#xfb;" horiz-adv-x="620" d="M99 183 C99 60 188 -9 303 -9 C404 -9 467 34 496 52 C506 58 509 67 509 76 L509 495 C509 506 501 515 490 515 C479 515 472 506 472 495 L472 81 C434 54 380 28 301 28 C205 28 136 86 136 183 L136 496 C136 506 128 515 118 515 C109 515 99 507 99 496 Z M312 652 L393 592 C398 589 402 588 406 588 C417 588 425 597 425 607 C425 615 420 620 417 622 L336 682 C328 688 321 691 312 691 C303 691 296 688 288 682 L207 622 C204 620 199 615 199 607 C199 597 207 588 218 588 C222 588 226 589 231 592 Z " />
<glyph glyph-name="udieresis" unicode="&#xfc;" horiz-adv-x="620" d="M99 183 C99 60 188 -9 303 -9 C404 -9 467 34 496 52 C506 58 509 67 509 76 L509 495 C509 506 501 515 490 515 C479 515 472 506 472 495 L472 81 C434 54 380 28 301 28 C205 28 136 86 136 183 L136 496 C136 506 128 515 118 515 C109 515 99 507 99 496 Z M239 661 C223 661 210 648 210 632 C210 615 223 602 239 602 C256 602 269 615 269 632 C269 648 256 661 239 661 Z M381 661 C364 661 351 648 351 632 C351 615 364 602 381 602 C397 602 410 615 410 632 C410 648 397 661 381 661 Z " />
<glyph glyph-name="umacron" unicode="&#x16b;" horiz-adv-x="620" d="M99 183 C99 60 188 -9 303 -9 C404 -9 467 34 496 52 C506 58 509 67 509 76 L509 495 C509 506 501 515 490 515 C479 515 472 506 472 495 L472 81 C434 54 380 28 301 28 C205 28 136 86 136 183 L136 496 C136 506 128 515 118 515 C109 515 99 507 99 496 Z M228 651 C217 651 209 643 209 633 C209 623 217 615 228 615 L398 615 C408 615 416 623 416 633 C416 643 408 651 398 651 Z " />
<glyph glyph-name="uring" unicode="&#x16f;" horiz-adv-x="620" d="M99 183 C99 60 188 -9 303 -9 C404 -9 467 34 496 52 C506 58 509 67 509 76 L509 495 C509 506 501 515 490 515 C479 515 472 506 472 495 L472 81 C434 54 380 28 301 28 C205 28 136 86 136 183 L136 496 C136 506 128 515 118 515 C109 515 99 507 99 496 Z M231 671 C231 627 269 589 314 589 C358 589 395 627 395 671 C395 715 358 752 314 752 C269 752 231 715 231 671 Z M260 671 C260 700 284 724 314 724 C343 724 367 700 367 671 C367 642 343 617 314 617 C284 617 260 642 260 671 Z " />
<glyph glyph-name="uhungarumlaut" unicode="&#x171;" horiz-adv-x="620" d="M99 183 C99 60 188 -9 303 -9 C404 -9 467 34 496 52 C506 58 509 67 509 76 L509 495 C509 506 501 515 490 515 C479 515 472 506 472 495 L472 81 C434 54 380 28 301 28 C205 28 136 86 136 183 L136 496 C136 506 128 515 118 515 C109 515 99 507 99 496 Z M347 669 C353 673 357 679 357 686 C357 696 350 704 338 704 C333 704 330 702 324 698 L230 624 C224 620 220 614 220 607 C220 597 227 589 239 589 C244 589 247 591 253 595 Z M466 669 C472 673 476 679 476 686 C476 696 469 704 457 704 C452 704 449 702 443 698 L349 624 C343 620 339 614 339 607 C339 597 346 589 358 589 C363 589 366 591 372 595 Z " />
<glyph glyph-name="uogonek" unicode="&#x173;" horiz-adv-x="620" d="M493 -109 C488 -109 482 -110 478 -114 C463 -125 446 -130 431 -130 C403 -130 374 -110 374 -73 C374 -37 401 -2 466 34 C469 36 487 45 497 52 C507 58 510 67 510 76 L510 495 C510 506 502 515 491 515 C480 515 473 506 473 495 L473 81 C435 54 381 28 302 28 C206 28 137 86 137 183 L137 496 C137 506 129 515 119 515 C110 515 100 507 100 496 L100 183 C100 41 218 -29 360 -4 C344 -26 336 -49 336 -73 C336 -130 383 -167 431 -167 C454 -167 478 -161 500 -145 C507 -140 511 -133 511 -126 C511 -116 502 -109 493 -109 Z " />
<glyph glyph-name="wgrave" unicode="&#x1e81;" horiz-adv-x="815" d="M450 481 C443 506 429 518 409 518 C388 518 373 506 366 481 L233 28 C232 25 231 23 228 23 C225 23 224 25 223 28 L81 504 C78 515 69 518 63 518 C51 518 41 506 45 492 L185 21 C192 -3 210 -15 229 -15 C250 -15 263 -3 270 21 L403 476 C405 481 411 481 413 476 L546 21 C553 -3 566 -15 587 -15 C606 -15 624 -3 631 21 L771 492 C775 506 765 518 753 518 C747 518 738 515 735 504 L593 28 C592 25 591 23 588 23 C585 23 584 25 583 28 Z M454 590 C458 588 461 587 466 587 C475 587 484 594 484 605 C484 613 480 619 472 623 L337 692 C333 694 330 695 325 695 C316 695 307 688 307 677 C307 669 311 663 319 659 Z " />
<glyph glyph-name="wacute" unicode="&#x1e83;" horiz-adv-x="815" d="M450 481 C443 506 429 518 409 518 C388 518 373 506 366 481 L233 28 C232 25 231 23 228 23 C225 23 224 25 223 28 L81 504 C78 515 69 518 63 518 C51 518 41 506 45 492 L185 21 C192 -3 210 -15 229 -15 C250 -15 263 -3 270 21 L403 476 C405 481 411 481 413 476 L546 21 C553 -3 566 -15 587 -15 C606 -15 624 -3 631 21 L771 492 C775 506 765 518 753 518 C747 518 738 515 735 504 L593 28 C592 25 591 23 588 23 C585 23 584 25 583 28 Z M476 659 C484 663 488 669 488 677 C488 688 479 695 470 695 C465 695 462 694 458 692 L323 623 C315 619 311 613 311 605 C311 594 320 587 329 587 C334 587 337 588 341 590 Z " />
<glyph glyph-name="wcircumflex" unicode="&#x175;" horiz-adv-x="815" d="M450 481 C443 506 429 518 409 518 C388 518 373 506 366 481 L233 28 C232 25 231 23 228 23 C225 23 224 25 223 28 L81 504 C78 515 69 518 63 518 C51 518 41 506 45 492 L185 21 C192 -3 210 -15 229 -15 C250 -15 263 -3 270 21 L403 476 C405 481 411 481 413 476 L546 21 C553 -3 566 -15 587 -15 C606 -15 624 -3 631 21 L771 492 C775 506 765 518 753 518 C747 518 738 515 735 504 L593 28 C592 25 591 23 588 23 C585 23 584 25 583 28 Z M407 651 L488 591 C493 588 497 587 501 587 C512 587 520 596 520 606 C520 614 515 619 512 621 L431 681 C423 687 416 690 407 690 C398 690 391 687 383 681 L302 621 C299 619 294 614 294 606 C294 596 302 587 313 587 C317 587 321 588 326 591 Z " />
<glyph glyph-name="wdieresis" unicode="&#x1e85;" horiz-adv-x="815" d="M450 481 C443 506 429 518 409 518 C388 518 373 506 366 481 L233 28 C232 25 231 23 228 23 C225 23 224 25 223 28 L81 504 C78 515 69 518 63 518 C51 518 41 506 45 492 L185 21 C192 -3 210 -15 229 -15 C250 -15 263 -3 270 21 L403 476 C405 481 411 481 413 476 L546 21 C553 -3 566 -15 587 -15 C606 -15 624 -3 631 21 L771 492 C775 506 765 518 753 518 C747 518 738 515 735 504 L593 28 C592 25 591 23 588 23 C585 23 584 25 583 28 Z M336 661 C320 661 307 648 307 632 C307 615 320 602 336 602 C353 602 366 615 366 632 C366 648 353 661 336 661 Z M478 661 C461 661 448 648 448 632 C448 615 461 602 478 602 C494 602 507 615 507 632 C507 648 494 661 478 661 Z " />
<glyph glyph-name="ygrave" unicode="&#x1ef3;" horiz-adv-x="492" d="M237 29 C201 -68 152 -124 101 -149 C93 -153 89 -159 89 -166 C89 -179 100 -184 107 -184 C113 -184 118 -183 128 -178 C178 -150 237 -72 272 15 L462 489 C466 500 458 513 446 513 C435 513 432 507 428 499 L261 88 C259 84 258 82 256 82 C253 82 252 84 250 88 L67 500 C64 507 59 513 48 513 C35 513 27 500 32 486 Z M296 591 C300 589 303 588 308 588 C317 588 326 595 326 606 C326 614 322 620 314 624 L179 693 C175 695 172 696 167 696 C158 696 149 689 149 678 C149 670 153 664 161 660 Z " />
<glyph glyph-name="yacute" unicode="&#xfd;" horiz-adv-x="492" d="M237 29 C201 -68 152 -124 101 -149 C93 -153 89 -159 89 -166 C89 -179 100 -184 107 -184 C113 -184 118 -183 128 -178 C178 -150 237 -72 272 15 L462 489 C466 500 458 513 446 513 C435 513 432 507 428 499 L261 88 C259 84 258 82 256 82 C253 82 252 84 250 88 L67 500 C64 507 59 513 48 513 C35 513 27 500 32 486 Z M367 661 C375 665 379 671 379 679 C379 690 370 697 361 697 C356 697 353 696 349 694 L214 625 C206 621 202 615 202 607 C202 596 211 589 220 589 C225 589 228 590 232 592 Z " />
<glyph glyph-name="ycircumflex" unicode="&#x177;" horiz-adv-x="492" d="M237 29 C201 -68 152 -124 101 -149 C93 -153 89 -159 89 -166 C89 -179 100 -184 107 -184 C113 -184 118 -183 128 -178 C178 -150 237 -72 272 15 L462 489 C466 500 458 513 446 513 C435 513 432 507 428 499 L261 88 C259 84 258 82 256 82 C253 82 252 84 250 88 L67 500 C64 507 59 513 48 513 C35 513 27 500 32 486 Z M254 652 L335 592 C340 589 344 588 348 588 C359 588 367 597 367 607 C367 615 362 620 359 622 L278 682 C270 688 263 691 254 691 C245 691 238 688 230 682 L149 622 C146 620 141 615 141 607 C141 597 149 588 160 588 C164 588 168 589 173 592 Z " />
<glyph glyph-name="ydieresis" unicode="&#xff;" horiz-adv-x="492" d="M237 29 C201 -68 152 -124 101 -149 C93 -153 89 -159 89 -166 C89 -179 100 -184 107 -184 C113 -184 118 -183 128 -178 C178 -150 237 -72 272 15 L462 489 C466 500 458 513 446 513 C435 513 432 507 428 499 L261 88 C259 84 258 82 256 82 C253 82 252 84 250 88 L67 500 C64 507 59 513 48 513 C35 513 27 500 32 486 Z M183 661 C167 661 154 648 154 632 C154 615 167 602 183 602 C200 602 213 615 213 632 C213 648 200 661 183 661 Z M325 661 C308 661 295 648 295 632 C295 615 308 602 325 602 C341 602 354 615 354 632 C354 648 341 661 325 661 Z " />
<glyph glyph-name="zacute" unicode="&#x17a;" horiz-adv-x="497" d="M96 504 C85 504 76 496 76 485 C76 475 85 467 96 467 L405 467 L66 57 C61 50 58 43 58 32 C58 15 73 0 97 0 L416 0 C427 0 436 8 436 19 C436 30 427 37 416 37 L97 37 L436 447 C442 454 444 461 444 472 C444 489 429 504 405 504 Z M325 660 C333 664 337 670 337 678 C337 689 328 696 319 696 C314 696 311 695 307 693 L172 624 C164 620 160 614 160 606 C160 595 169 588 178 588 C183 588 186 589 190 591 Z " />
<glyph glyph-name="zcaron" unicode="&#x17e;" horiz-adv-x="497" d="M96 504 C85 504 76 496 76 485 C76 475 85 467 96 467 L405 467 L66 57 C61 50 58 43 58 32 C58 15 73 0 97 0 L416 0 C427 0 436 8 436 19 C436 30 427 37 416 37 L97 37 L436 447 C442 454 444 461 444 472 C444 489 429 504 405 504 Z M157 686 C152 689 148 690 144 690 C133 690 125 681 125 671 C125 663 130 658 133 656 L214 596 C222 590 229 587 238 587 C247 587 254 590 262 596 L343 656 C346 658 351 663 351 671 C351 681 343 690 332 690 C328 690 324 689 319 686 L238 626 Z " />
<glyph glyph-name="zdotaccent" unicode="&#x17c;" horiz-adv-x="497" d="M96 504 C85 504 76 496 76 485 C76 475 85 467 96 467 L405 467 L66 57 C61 50 58 43 58 32 C58 15 73 0 97 0 L416 0 C427 0 436 8 436 19 C436 30 427 37 416 37 L97 37 L436 447 C442 454 444 461 444 472 C444 489 429 504 405 504 Z M234 660 C217 660 204 647 204 631 C204 614 217 601 234 601 C251 601 264 614 264 631 C264 647 251 660 234 660 Z " />
<glyph glyph-name="eth" unicode="&#xf0;" horiz-adv-x="581" d="M291 547 C294 547 298 548 302 550 L385 589 C434 538 453 481 452 405 C424 454 357 489 288 489 C177 489 91 414 86 302 C84 264 84 219 86 181 C91 71 174 -9 286 -9 C397 -9 489 69 489 194 L491 395 C491 494 470 554 421 606 L481 635 C488 639 493 645 493 653 C493 668 476 676 464 670 L391 635 C370 653 345 671 317 690 C313 693 308 694 304 694 C294 694 285 687 285 675 C285 668 288 662 298 656 C319 644 338 630 354 617 L285 584 C277 580 272 574 272 566 C272 555 281 547 291 547 Z M286 452 C378 452 444 390 450 305 C452 266 453 217 450 178 C442 90 379 28 286 28 C196 28 131 90 124 178 C121 218 122 266 124 306 C129 390 192 452 286 452 Z " />
<glyph glyph-name="thorn" unicode="&#xfe;" horiz-adv-x="602" d="M145 439 C174 456 245 481 313 481 C420 481 467 425 474 332 C478 294 477 213 474 177 C467 84 420 28 313 28 C245 28 174 53 145 70 Z M108 -171 C108 -183 116 -192 127 -192 C137 -192 145 -183 145 -171 L145 30 C186 12 246 -9 312 -9 C434 -9 503 59 513 184 C516 220 516 290 513 325 C503 450 434 518 312 518 C246 518 186 497 145 479 L145 685 C145 697 137 706 127 706 C116 706 108 697 108 685 Z " />
<glyph glyph-name="grave" unicode="&#x60;" horiz-adv-x="322" d="M222 756 C226 754 229 753 234 753 C243 753 252 760 252 771 C252 779 248 785 240 789 L105 858 C101 860 98 861 93 861 C84 861 75 854 75 843 C75 835 79 829 87 825 Z " />
<glyph glyph-name="acute" unicode="&#xb4;" horiz-adv-x="322" d="M240 825 C248 829 252 835 252 843 C252 854 243 861 234 861 C229 861 226 860 222 858 L87 789 C79 785 75 779 75 771 C75 760 84 753 93 753 C98 753 101 754 105 756 Z " />
<glyph glyph-name="circumflex" unicode="&#x2c6;" horiz-adv-x="322" d="M160 814 L241 754 C246 751 250 750 254 750 C265 750 273 759 273 769 C273 777 268 782 265 784 L184 844 C176 850 169 853 160 853 C151 853 144 850 136 844 L55 784 C52 782 47 777 47 769 C47 759 55 750 66 750 C70 750 74 751 79 754 Z " />
<glyph glyph-name="caron" unicode="&#x2c7;" horiz-adv-x="322" d="M79 848 C74 851 70 852 66 852 C55 852 47 843 47 833 C47 825 52 820 55 818 L136 758 C144 752 151 749 160 749 C169 749 176 752 184 758 L265 818 C268 820 273 825 273 833 C273 843 265 852 254 852 C250 852 246 851 241 848 L160 788 Z " />
<glyph glyph-name="tilde" unicode="&#x2dc;" horiz-adv-x="322" d="M216 790 C184 790 159 827 114 827 C92 827 67 815 49 800 C45 796 41 791 41 783 C41 774 48 765 60 765 C78 765 89 790 113 790 C141 790 169 753 215 753 C237 753 259 765 278 778 C286 784 289 789 289 797 C289 807 280 814 271 814 C254 814 240 790 216 790 Z " />
<glyph glyph-name="dieresis" unicode="&#xa8;" horiz-adv-x="322" d="M90 823 C74 823 61 810 61 794 C61 777 74 764 90 764 C107 764 120 777 120 794 C120 810 107 823 90 823 Z M232 823 C215 823 202 810 202 794 C202 777 215 764 232 764 C248 764 261 777 261 794 C261 810 248 823 232 823 Z " />
<glyph glyph-name="macron" unicode="&#xaf;" horiz-adv-x="322" d="M79 809 C68 809 60 801 60 791 C60 781 68 773 79 773 L249 773 C259 773 267 781 267 791 C267 801 259 809 249 809 Z " />
<glyph glyph-name="breve" unicode="&#x2d8;" horiz-adv-x="322" d="M229 848 C222 816 195 796 161 796 C127 796 100 817 93 848 C91 858 86 865 75 865 C65 865 57 858 57 846 C57 840 58 835 60 829 C72 790 113 758 161 758 C209 758 250 790 262 829 C264 835 265 840 265 846 C265 858 257 865 247 865 C236 865 231 858 229 848 Z " />
<glyph glyph-name="ring" unicode="&#x2da;" horiz-adv-x="325" d="M89 830 C89 786 127 748 172 748 C216 748 253 786 253 830 C253 874 216 911 172 911 C127 911 89 874 89 830 Z M118 830 C118 859 142 883 172 883 C201 883 225 859 225 830 C225 801 201 776 172 776 C142 776 118 801 118 830 Z " />
<glyph glyph-name="hungarumlaut" unicode="&#x2dd;" horiz-adv-x="322" d="M163 832 C169 836 173 842 173 849 C173 859 166 867 154 867 C149 867 146 865 140 861 L46 787 C40 783 36 777 36 770 C36 760 43 752 55 752 C60 752 63 754 69 758 Z M282 832 C288 836 292 842 292 849 C292 859 285 867 273 867 C268 867 265 865 259 861 L165 787 C159 783 155 777 155 770 C155 760 162 752 174 752 C179 752 182 754 188 758 Z " />
<glyph glyph-name="dotaccent" unicode="&#x2d9;" horiz-adv-x="322" d="M161 823 C144 823 131 810 131 794 C131 777 144 764 161 764 C178 764 191 777 191 794 C191 810 178 823 161 823 Z " />
<glyph glyph-name="cedilla" unicode="&#xb8;" horiz-adv-x="322" d="M121 -73 C115 -87 125 -100 139 -100 C148 -100 157 -93 170 -93 C193 -93 211 -107 211 -130 C211 -157 180 -182 121 -201 C108 -205 106 -214 106 -220 C106 -231 119 -240 132 -236 C207 -212 247 -174 247 -129 C247 -86 208 -56 162 -60 L180 -11 C181 -8 183 -3 183 1 C183 11 178 19 166 19 C156 19 150 12 147 3 Z " />
<glyph glyph-name="ogonek" unicode="&#x2db;" horiz-adv-x="322" d="M241 -136 C236 -136 230 -137 226 -141 C211 -152 194 -157 179 -157 C151 -157 122 -137 122 -100 C122 -64 150 -24 216 0 C228 4 231 13 231 19 C231 37 213 38 201 33 C124 3 84 -48 84 -100 C84 -157 131 -194 179 -194 C202 -194 226 -188 248 -172 C255 -167 259 -160 259 -153 C259 -143 250 -136 241 -136 Z " />
<glyph glyph-name="comma" unicode="&#x2c;" horiz-adv-x="199" d="M124 76 C124 87 115 95 105 95 C95 95 87 87 87 76 L87 23 C87 -12 85 -27 59 -63 C58 -65 55 -69 55 -75 C55 -84 62 -93 73 -93 C81 -93 87 -87 90 -83 C110 -54 124 -26 124 18 Z " />
<glyph glyph-name="semicolon" unicode="&#x3b;" horiz-adv-x="288" d="M181 76 C181 87 172 95 162 95 C152 95 144 87 144 76 L144 23 C144 -12 142 -27 116 -63 C115 -65 112 -69 112 -75 C112 -84 119 -93 130 -93 C138 -93 144 -87 147 -83 C167 -54 181 -26 181 18 Z M181 475 C181 486 172 494 162 494 C152 494 144 486 144 475 L144 369 C144 358 152 350 162 350 C172 350 181 358 181 369 Z " />
<glyph glyph-name="colon" unicode="&#x3a;" horiz-adv-x="288" d="M163 114 C163 125 154 133 144 133 C134 133 126 125 126 114 L126 8 C126 -3 134 -11 144 -11 C154 -11 163 -3 163 8 Z M163 475 C163 486 154 494 144 494 C134 494 126 486 126 475 L126 369 C126 358 134 350 144 350 C154 350 163 358 163 369 Z " />
<glyph glyph-name="period" unicode="&#x2e;" horiz-adv-x="254" d="M118 114 C118 125 109 133 99 133 C89 133 81 125 81 114 L81 8 C81 -3 89 -11 99 -11 C109 -11 118 -3 118 8 Z " />
<glyph glyph-name="ellipsis" unicode="&#x2026;" horiz-adv-x="605" d="M523 114 C523 125 514 133 504 133 C494 133 486 125 486 114 L486 8 C486 -3 494 -11 504 -11 C514 -11 523 -3 523 8 Z M322 114 C322 125 313 133 303 133 C293 133 285 125 285 114 L285 8 C285 -3 293 -11 303 -11 C313 -11 322 -3 322 8 Z M119 114 C119 125 110 133 100 133 C90 133 82 125 82 114 L82 8 C82 -3 90 -11 100 -11 C110 -11 119 -3 119 8 Z " />
<glyph glyph-name="uni00AD" unicode="&#xad;" horiz-adv-x="350" d="M285 287 C285 297 276 305 265 305 L85 305 C74 305 65 298 65 286 C65 276 74 268 85 268 L265 268 C276 268 285 276 285 287 Z " />
<glyph glyph-name="exclam" unicode="&#x21;" horiz-adv-x="195" d="M82 243 C82 233 89 225 98 225 C107 225 113 232 113 243 L117 677 C117 689 110 697 98 697 C86 697 78 688 78 677 Z M116 115 C116 126 107 134 97 134 C87 134 79 126 79 115 L79 9 C79 -2 87 -10 97 -10 C107 -10 116 -2 116 9 Z " />
<glyph glyph-name="exclamdown" unicode="&#xa1;" horiz-adv-x="195" d="M78 22 C78 11 86 2 98 2 C110 2 117 10 117 22 L113 456 C113 467 107 474 98 474 C89 474 82 466 82 456 Z M116 690 C116 701 107 709 97 709 C87 709 79 701 79 690 L79 584 C79 573 87 565 97 565 C107 565 116 573 116 584 Z " />
<glyph glyph-name="question" unicode="&#x3f;" horiz-adv-x="563" d="M105 588 C149 644 195 671 286 671 C387 671 447 612 447 520 C447 424 405 381 252 314 C242 310 236 304 236 294 C236 283 245 275 255 275 C261 275 266 277 270 279 C417 351 484 393 484 521 C484 634 409 708 286 708 C191 708 122 675 75 612 C71 606 70 603 70 598 C70 586 79 579 88 579 C91 579 98 579 105 588 Z M274 114 C274 125 265 133 255 133 C245 133 237 125 237 114 L237 8 C237 -3 245 -11 255 -11 C265 -11 274 -3 274 8 Z " />
<glyph glyph-name="questiondown" unicode="&#xbf;" horiz-adv-x="563" d="M445 111 C401 55 355 28 264 28 C163 28 103 87 103 179 C103 275 145 318 298 385 C308 389 314 395 314 405 C314 416 305 424 295 424 C289 424 284 422 280 420 C133 348 66 306 66 178 C66 65 141 -9 264 -9 C359 -9 428 24 475 87 C479 93 480 96 480 101 C480 113 471 120 462 120 C459 120 452 120 445 111 Z M276 585 C276 574 285 566 295 566 C305 566 313 574 313 585 L313 691 C313 702 305 710 295 710 C285 710 276 702 276 691 Z " />
<glyph glyph-name="quoteleft" unicode="&#x2018;" horiz-adv-x="199" d="M73 529 C73 518 82 510 92 510 C102 510 110 518 110 529 L110 582 C110 617 112 632 138 668 C139 670 142 674 142 680 C142 689 135 698 124 698 C116 698 110 692 107 688 C87 659 73 631 73 587 Z " />
<glyph glyph-name="quoteright" unicode="&#x2019;" horiz-adv-x="199" d="M135 679 C135 690 126 698 116 698 C106 698 98 690 98 679 L98 626 C98 591 96 576 70 540 C69 538 66 534 66 528 C66 519 73 510 84 510 C92 510 98 516 101 520 C121 549 135 577 135 621 Z " />
<glyph glyph-name="quotedblleft" unicode="&#x201c;" horiz-adv-x="295" d="M68 530 C68 519 77 511 87 511 C97 511 105 519 105 530 L105 583 C105 618 107 633 133 669 C134 671 137 675 137 681 C137 690 130 699 119 699 C111 699 105 693 102 689 C82 660 68 632 68 588 Z M174 530 C174 519 183 511 193 511 C203 511 211 519 211 530 L211 583 C211 618 213 633 239 669 C240 671 243 675 243 681 C243 690 236 699 225 699 C217 699 211 693 208 689 C188 660 174 632 174 588 Z " />
<glyph glyph-name="quotedblright" unicode="&#x201d;" horiz-adv-x="295" d="M137 681 C137 692 128 700 118 700 C108 700 100 692 100 681 L100 628 C100 593 98 578 72 542 C71 540 68 536 68 530 C68 521 75 512 86 512 C94 512 100 518 103 522 C123 551 137 579 137 623 Z M243 681 C243 692 234 700 224 700 C214 700 206 692 206 681 L206 628 C206 593 204 578 178 542 C177 540 174 536 174 530 C174 521 181 512 192 512 C200 512 206 518 209 522 C229 551 243 579 243 623 Z " />
<glyph glyph-name="quotesinglbase" unicode="&#x201a;" horiz-adv-x="199" d="M124 76 C124 87 115 95 105 95 C95 95 87 87 87 76 L87 23 C87 -12 85 -27 59 -63 C58 -65 55 -69 55 -75 C55 -84 62 -93 73 -93 C81 -93 87 -87 90 -83 C110 -54 124 -26 124 18 Z " />
<glyph glyph-name="quotedblbase" unicode="&#x201e;" horiz-adv-x="295" d="M137 76 C137 87 128 95 118 95 C108 95 100 87 100 76 L100 23 C100 -12 98 -27 72 -63 C71 -65 68 -69 68 -75 C68 -84 75 -93 86 -93 C94 -93 100 -87 103 -83 C123 -54 137 -26 137 18 Z M243 76 C243 87 234 95 224 95 C214 95 206 87 206 76 L206 23 C206 -12 204 -27 178 -63 C177 -65 174 -69 174 -75 C174 -84 181 -93 192 -93 C200 -93 206 -87 209 -83 C229 -54 243 -26 243 18 Z " />
<glyph glyph-name="guilsinglleft" unicode="&#x2039;" horiz-adv-x="356" d="M227 517 C223 517 218 515 214 512 L84 396 C70 384 55 368 55 346 C55 324 70 308 84 296 L214 180 C218 177 223 175 227 175 C236 175 245 183 245 193 C245 199 242 205 237 209 L111 322 C98 334 93 338 93 346 C93 354 98 358 111 370 L237 483 C242 487 245 493 245 499 C245 509 236 517 227 517 Z " />
<glyph glyph-name="guilsinglright" unicode="&#x203a;" horiz-adv-x="356" d="M129 175 C133 175 138 177 142 180 L272 296 C286 308 301 324 301 346 C301 368 286 384 272 396 L142 512 C138 515 133 517 129 517 C120 517 111 509 111 499 C111 493 114 487 119 483 L245 370 C258 358 263 354 263 346 C263 338 258 334 245 322 L119 209 C114 205 111 199 111 193 C111 183 120 175 129 175 Z " />
<glyph glyph-name="guillemotleft" unicode="&#xab;" horiz-adv-x="516" d="M93 346 C93 354 98 358 111 370 L237 483 C245 490 248 501 241 510 C234 518 223 519 214 512 L84 396 C70 384 55 368 55 346 C55 324 70 308 84 296 L214 180 C223 173 234 174 241 182 C248 191 245 202 237 209 L111 322 C98 334 93 338 93 346 Z M388 517 C384 517 379 515 375 512 L245 396 C231 384 216 368 216 346 C216 324 231 308 245 296 L375 180 C379 177 384 175 388 175 C397 175 406 183 406 193 C406 199 403 205 398 209 L272 322 C259 334 254 338 254 346 C254 354 259 358 272 370 L398 483 C403 487 406 493 406 499 C406 509 397 517 388 517 Z " />
<glyph glyph-name="guillemotright" unicode="&#xbb;" horiz-adv-x="516" d="M424 346 C424 338 419 334 406 322 L280 209 C272 202 269 191 276 182 C283 174 294 173 303 180 L433 296 C447 308 462 324 462 346 C462 368 447 384 433 396 L303 512 C294 519 283 518 276 510 C269 501 272 490 280 483 L406 370 C419 358 424 354 424 346 Z M129 175 C133 175 138 177 142 180 L272 296 C286 308 301 324 301 346 C301 368 286 384 272 396 L142 512 C138 515 133 517 129 517 C120 517 111 509 111 499 C111 493 114 487 119 483 L245 370 C258 358 263 354 263 346 C263 338 258 334 245 322 L119 209 C114 205 111 199 111 193 C111 183 120 175 129 175 Z " />
<glyph glyph-name="slash" unicode="&#x2f;" horiz-adv-x="319" d="M310 731 C300 735 290 730 285 718 L0 -6 C-3 -15 0 -27 10 -31 C21 -35 31 -29 34 -20 L320 705 C324 715 321 727 310 731 Z " />
<glyph glyph-name="bar" unicode="&#x7c;" horiz-adv-x="307" d="M150 835 C140 835 132 826 132 815 L132 -120 C132 -130 139 -140 150 -140 C161 -140 169 -131 169 -120 L169 815 C169 826 162 835 150 835 Z " />
<glyph glyph-name="endash" unicode="&#x2013;" horiz-adv-x="608" d="M59 285 C59 275 68 267 79 267 L529 267 C540 267 549 275 549 285 C549 296 540 304 529 304 L79 304 C68 304 59 297 59 285 Z " />
<glyph glyph-name="emdash" unicode="&#x2014;" horiz-adv-x="972" d="M59 285 C59 276 68 267 79 267 L893 267 C903 267 913 275 913 285 C913 296 904 304 893 304 L79 304 C68 304 59 297 59 285 Z " />
<glyph glyph-name="bullet" unicode="&#x2022;" horiz-adv-x="472" d="M110 350 C110 281 167 224 236 224 C305 224 362 281 362 350 C362 419 305 476 236 476 C167 476 110 419 110 350 Z " />
<glyph glyph-name="periodcentered" unicode="&#xb7;" horiz-adv-x="254" d="M146 422 C146 433 137 441 127 441 C117 441 109 433 109 422 L109 316 C109 305 117 297 127 297 C137 297 146 305 146 316 Z " />
<glyph glyph-name="parenleft" unicode="&#x28;" horiz-adv-x="343" d="M319 794 C314 794 309 792 305 788 C167 665 100 487 100 309 C100 131 167 -47 305 -170 C309 -174 314 -176 319 -176 C329 -176 337 -167 337 -158 C337 -152 334 -147 329 -142 C194 -22 137 152 137 309 C137 466 194 640 329 760 C334 765 337 770 337 776 C337 785 329 794 319 794 Z " />
<glyph glyph-name="parenright" unicode="&#x29;" horiz-adv-x="343" d="M24 -176 C29 -176 34 -174 38 -170 C176 -47 243 131 243 309 C243 487 176 665 38 788 C34 792 29 794 24 794 C14 794 6 785 6 776 C6 770 9 765 14 760 C149 640 206 466 206 309 C206 152 149 -22 14 -142 C9 -147 6 -152 6 -158 C6 -167 14 -176 24 -176 Z " />
<glyph glyph-name="bracketleft" unicode="&#x5b;" horiz-adv-x="339" d="M327 -156 C327 -146 319 -138 307 -138 L150 -138 L150 756 L307 756 C317 756 327 765 327 775 C327 786 318 793 307 793 L150 793 C126 793 113 775 113 757 L113 -138 C113 -157 126 -175 151 -175 L307 -175 C318 -175 327 -167 327 -156 Z " />
<glyph glyph-name="bracketright" unicode="&#x5d;" horiz-adv-x="339" d="M13 -156 C13 -167 22 -175 33 -175 L189 -175 C214 -175 227 -157 227 -138 L227 757 C227 775 214 793 190 793 L33 793 C22 793 13 786 13 775 C13 765 23 756 33 756 L190 756 L190 -138 L33 -138 C21 -138 13 -146 13 -156 Z " />
<glyph glyph-name="braceleft" unicode="&#x7b;" horiz-adv-x="336" d="M110 -106 C110 -143 140 -174 177 -174 L303 -174 C314 -174 323 -166 323 -156 C323 -146 314 -137 303 -137 L178 -137 C161 -137 147 -123 147 -106 L147 166 C147 251 107 295 79 315 C107 334 147 378 147 464 L147 724 C147 741 161 755 178 755 L303 755 C314 755 323 764 323 774 C323 784 314 792 303 792 L177 792 C140 792 110 761 110 724 L110 464 C110 399 88 369 54 343 C46 336 37 328 37 315 C37 301 46 292 54 286 C88 260 110 228 110 167 Z " />
<glyph glyph-name="braceright" unicode="&#x7d;" horiz-adv-x="336" d="M225 167 C225 228 247 260 281 286 C289 292 298 301 298 315 C298 328 289 336 281 343 C247 369 225 399 225 464 L225 724 C225 761 195 792 158 792 L32 792 C21 792 12 784 12 774 C12 764 21 755 32 755 L157 755 C174 755 188 741 188 724 L188 464 C188 378 228 334 256 315 C228 295 188 251 188 166 L188 -106 C188 -123 174 -137 157 -137 L32 -137 C21 -137 12 -146 12 -156 C12 -166 21 -174 32 -174 L158 -174 C195 -174 225 -143 225 -106 Z " />
<glyph glyph-name="asterisk" unicode="&#x2a;" horiz-adv-x="366" d="M40 606 C40 600 43 594 50 590 L150 532 L50 474 C43 470 39 464 39 458 C39 443 56 436 68 443 L166 502 L166 387 C166 376 173 367 184 367 C195 367 202 376 202 387 L202 502 L300 443 C312 436 328 442 328 458 C328 464 325 470 318 474 L217 532 L318 590 C325 594 328 600 328 606 C328 622 312 628 300 621 L202 561 L202 677 C202 688 194 697 184 697 C173 697 166 688 166 677 L166 561 L68 621 C55 629 40 621 40 606 Z " />
<glyph glyph-name="dagger" unicode="&#x2020;" horiz-adv-x="431" d="M234 471 L234 689 C234 700 228 709 216 709 C205 709 197 700 197 689 L197 471 L34 471 C23 471 14 464 14 452 C14 442 23 434 34 434 L197 434 L197 -120 C197 -130 206 -140 216 -140 C227 -140 234 -131 234 -120 L234 434 L397 434 C408 434 417 442 417 452 C417 464 408 471 397 471 Z " />
<glyph glyph-name="daggerdbl" unicode="&#x2021;" horiz-adv-x="431" d="M234 471 L234 689 C234 700 228 709 216 709 C205 709 197 700 197 689 L197 471 L34 471 C23 471 14 464 14 452 C14 442 23 434 34 434 L197 434 L197 135 L34 135 C23 135 14 128 14 116 C14 106 23 98 34 98 L197 98 L197 -120 C197 -130 206 -140 216 -140 C227 -140 234 -131 234 -120 L234 98 L397 98 C408 98 417 106 417 116 C417 128 408 135 397 135 L234 135 L234 434 L397 434 C408 434 417 442 417 452 C417 464 408 471 397 471 Z " />
<glyph glyph-name="section" unicode="&#xa7;" horiz-adv-x="589" d="M484 259 C484 332 443 364 316 397 C209 424 147 444 147 540 C147 600 193 671 306 671 C354 671 403 657 452 627 C458 624 464 618 472 618 C483 618 491 626 491 635 C491 643 488 647 484 651 C452 676 388 708 303 708 C189 708 109 637 109 537 C109 489 122 453 150 426 C129 404 114 370 114 342 C114 273 155 236 282 203 C389 176 453 161 453 66 C453 5 408 -66 294 -66 C247 -66 183 -54 135 -24 C129 -20 120 -14 113 -14 C102 -14 95 -22 95 -31 C95 -38 98 -42 102 -46 C135 -72 211 -103 296 -103 C410 -103 490 -32 490 67 C490 116 479 147 449 175 C469 198 484 233 484 259 Z M417 198 C385 212 340 228 292 239 C179 265 151 297 151 339 C151 363 165 390 179 403 C211 389 256 373 304 362 C417 336 445 304 445 262 C445 238 431 211 417 198 Z " />
<glyph glyph-name="paragraph" unicode="&#xb6;" horiz-adv-x="667" d="M402 -192 C413 -192 420 -183 420 -172 L420 660 L512 660 L512 -172 C512 -182 520 -192 530 -192 C540 -192 549 -182 549 -172 L549 661 C549 684 544 698 509 698 L341 698 C226 698 129 621 129 493 C129 361 221 287 344 287 L383 287 L383 -172 C383 -183 391 -192 402 -192 Z M169 491 C169 583 221 660 345 660 L383 660 L383 324 L344 324 C221 324 169 400 169 491 Z " />
<glyph glyph-name="asciicircum" unicode="&#x5e;" horiz-adv-x="676" d="M392 669 C377 705 360 717 338 717 C316 717 299 705 284 669 L167 391 C162 379 171 365 185 365 C193 365 200 369 203 377 L324 669 C326 674 330 681 338 681 C346 681 350 674 352 669 L473 377 C476 369 483 365 491 365 C505 365 514 379 509 391 Z " />
<glyph glyph-name="asciitilde" unicode="&#x7e;" horiz-adv-x="615" d="M494 366 C458 347 434 338 407 338 C333 338 286 391 210 391 C181 391 151 381 107 361 C98 357 90 351 90 339 C90 332 96 323 108 323 C112 323 117 324 123 327 C158 346 180 353 208 353 C283 353 329 300 405 300 C429 300 459 310 510 332 C519 336 525 342 525 352 C525 360 518 370 507 370 C503 370 499 369 494 366 Z " />
<glyph glyph-name="brokenbar" unicode="&#xa6;" horiz-adv-x="307" d="M149 311 C139 311 131 302 131 291 L131 -120 C131 -130 138 -140 149 -140 C160 -140 168 -131 168 -120 L168 291 C168 302 161 311 149 311 Z M149 835 C139 835 131 826 131 815 L131 404 C131 394 138 384 149 384 C160 384 168 393 168 404 L168 815 C168 826 161 835 149 835 Z " />
<glyph glyph-name="backslash" unicode="&#x5c;" horiz-adv-x="312" d="M5 731 C-6 727 -9 715 -5 705 L281 -20 C284 -29 294 -35 305 -31 C315 -27 318 -15 315 -6 L30 718 C25 730 15 735 5 731 Z " />
<glyph glyph-name="underscore" unicode="&#x5f;" horiz-adv-x="472" d="M472 -154 L0 -154 L0 -191 L472 -191 Z " />
<glyph glyph-name="quotesingle" unicode="&#x27;" horiz-adv-x="205" d="M121 681 C121 692 112 700 102 700 C92 700 84 692 84 681 L84 529 C84 518 92 510 102 510 C112 510 121 518 121 529 Z " />
<glyph glyph-name="quotedbl" unicode="&#x22;" horiz-adv-x="315" d="M121 681 C121 692 112 700 102 700 C92 700 84 692 84 681 L84 529 C84 518 92 510 102 510 C112 510 121 518 121 529 Z M231 681 C231 692 222 700 212 700 C202 700 194 692 194 681 L194 529 C194 518 202 510 212 510 C222 510 231 518 231 529 Z " />
<glyph glyph-name="at" unicode="&#x40;" horiz-adv-x="843" d="M501 117 C497 117 492 116 487 114 C465 106 444 102 424 102 C349 102 292 155 292 238 L292 304 C292 388 348 439 424 439 C500 439 554 375 554 304 L554 178 C554 115 604 71 659 71 C714 71 763 115 763 178 L763 361 C763 558 613 701 422 701 C230 701 94 558 80 375 C76 321 75 214 80 159 C97 -60 262 -159 418 -159 C464 -159 516 -148 551 -131 C560 -127 564 -120 564 -113 C564 -98 548 -93 536 -98 C499 -114 458 -123 417 -123 C279 -123 132 -34 117 156 C111 221 111 308 117 377 C132 546 260 664 422 664 C592 664 726 540 726 355 L726 174 C726 138 697 107 659 107 C621 107 591 138 591 175 L591 305 C591 401 520 476 424 476 C326 476 255 401 255 305 L255 239 C255 132 330 65 424 65 C455 65 479 70 504 80 C513 84 519 91 519 99 C519 110 511 117 501 117 Z " />
<glyph glyph-name="copyright" unicode="&#xa9;" horiz-adv-x="822" d="M281 310 C279 342 278 363 281 395 C287 471 337 525 410 525 C471 525 511 491 529 448 C532 441 538 435 547 435 C557 435 565 442 565 454 C565 458 562 466 560 471 C535 528 472 562 410 562 C315 562 251 489 244 397 C242 365 241 339 244 308 C251 216 315 143 410 143 C472 143 535 177 560 234 C562 239 565 247 565 251 C565 263 557 270 547 270 C538 270 532 264 529 257 C511 214 471 180 410 180 C337 180 287 234 281 310 Z M410 -8 C564 -8 696 110 707 268 C711 320 711 378 707 431 C696 586 564 706 410 706 C256 706 125 585 114 431 C110 378 110 321 114 268 C125 110 256 -8 410 -8 Z M410 29 C278 29 165 128 152 261 C146 320 146 378 152 436 C165 569 278 669 410 669 C541 669 656 569 669 436 C675 378 675 320 669 261 C656 128 542 29 410 29 Z " />
<glyph glyph-name="registered" unicode="&#xae;" horiz-adv-x="611" d="M240 460 L240 563 L316 563 C355 563 374 543 374 512 C374 482 355 460 314 460 Z M302 234 C204 234 130 294 121 409 C119 433 119 479 121 503 C130 618 204 678 302 678 C400 678 474 618 483 503 C485 479 485 433 483 409 C474 294 400 234 302 234 Z M388 327 C391 324 395 319 403 319 C410 319 417 325 417 333 C417 338 414 343 412 345 L335 433 C374 442 405 460 405 513 C405 566 363 594 317 594 L238 594 C220 594 210 581 210 566 L210 335 C210 327 217 320 225 320 C234 320 240 327 240 335 L240 431 L288 431 C299 431 302 428 308 421 Z M302 709 C186 709 101 637 89 502 C87 478 87 434 89 411 C101 275 186 203 302 203 C418 203 503 275 515 411 C517 434 517 478 515 502 C503 637 418 709 302 709 Z " />
<glyph glyph-name="trademark" unicode="&#x2122;" horiz-adv-x="587" d="M132 477 C132 469 138 463 146 463 C153 463 159 469 159 477 L159 674 L226 674 C234 674 240 680 240 688 C240 696 234 701 226 701 L64 701 C56 701 50 696 50 688 C50 680 56 674 64 674 L132 674 Z M499 475 C500 468 506 464 512 464 C523 464 527 473 526 482 L497 677 C494 695 482 703 468 703 C454 703 442 695 439 679 L397 495 C397 494 395 492 393 492 C391 492 390 494 390 495 L347 679 C343 695 332 703 318 703 C303 703 291 695 289 677 L260 481 C259 473 263 464 274 464 C280 464 286 468 287 475 L314 672 C314 674 315 676 318 676 C320 676 321 674 321 673 L365 491 C369 474 379 466 393 466 C407 466 417 474 421 491 L464 673 C465 674 466 676 468 676 C470 676 471 674 472 672 Z " />
<glyph glyph-name="ordfeminine" unicode="&#xaa;" horiz-adv-x="480" d="M426 296 C426 300 424 305 421 310 C401 338 385 374 385 446 L385 640 C385 649 383 651 379 656 C357 673 296 705 219 705 C118 705 58 644 53 548 C51 515 51 464 53 431 C58 340 110 275 215 275 C272 275 326 304 363 339 C368 325 381 296 389 286 C394 279 400 277 406 277 C417 277 426 285 426 296 Z M218 312 C128 312 95 362 90 436 C88 464 88 515 90 542 C95 617 131 668 218 668 C273 668 328 647 348 630 L348 522 C348 473 347 421 353 381 C321 343 268 312 218 312 Z " />
<glyph glyph-name="ordmasculine" unicode="&#xba;" horiz-adv-x="482" d="M241 281 C331 281 405 346 413 440 C415 469 416 513 413 542 C404 635 331 701 241 701 C151 701 78 635 69 542 C66 513 67 469 69 440 C77 346 151 281 241 281 Z M241 318 C168 318 112 367 106 443 C104 473 103 509 106 539 C112 612 168 664 241 664 C314 664 370 612 376 539 C379 509 378 473 376 443 C370 367 314 318 241 318 Z " />
<glyph glyph-name="numbersign" unicode="&#x23;" horiz-adv-x="589" d="M125 463 C125 453 134 445 145 445 L217 445 L159 268 L79 268 C68 268 59 261 59 249 C59 239 68 231 79 231 L147 231 L77 17 C73 6 79 -9 94 -9 C102 -9 109 -4 111 3 L186 231 L319 231 L249 17 C245 6 251 -9 266 -9 C274 -9 281 -4 283 3 L358 231 L444 231 C455 231 464 239 464 249 C464 260 455 268 444 268 L370 268 L428 445 L510 445 C521 445 530 453 530 463 C530 474 521 482 510 482 L440 482 L505 681 C510 693 504 708 488 708 C480 708 474 703 470 694 L401 482 L268 482 L333 681 C338 693 332 708 316 708 C308 708 302 703 298 694 L229 482 L145 482 C134 482 125 475 125 463 Z M256 445 L389 445 L331 268 L198 268 Z " />
<glyph glyph-name="currency" unicode="&#xa4;" horiz-adv-x="624" d="M552 610 C546 610 541 607 537 603 L441 505 C408 537 370 560 312 560 C254 560 216 537 183 505 L87 603 C83 607 78 610 72 610 C63 610 54 600 54 591 C54 586 56 581 60 577 L159 476 C144 449 133 414 132 381 C131 360 131 341 132 320 C133 287 144 254 159 227 L60 126 C56 122 54 117 54 112 C54 103 63 93 72 93 C78 93 83 96 87 100 L183 198 C216 166 254 143 312 143 C370 143 408 166 441 198 L537 100 C541 96 546 93 552 93 C561 93 570 103 570 112 C570 117 568 122 564 126 L465 227 C480 254 491 287 492 320 C493 341 493 360 492 381 C491 414 480 449 465 476 L564 577 C568 581 570 586 570 591 C570 600 561 610 552 610 Z M455 315 C449 238 389 180 312 180 C235 180 175 238 169 315 C168 338 167 365 169 388 C175 465 235 523 312 523 C389 523 449 465 455 388 C457 365 456 338 455 315 Z " />
<glyph glyph-name="Euro" unicode="&#x20ac;" horiz-adv-x="653" d="M427 299 C427 310 418 318 407 318 L180 318 L180 383 L407 383 C418 383 427 389 427 401 C427 412 418 420 407 420 L180 420 C180 560 257 671 400 671 C479 671 524 654 574 606 C579 601 584 598 590 598 C599 598 607 606 607 615 C607 620 606 625 601 630 C548 682 483 708 400 708 C234 708 142 576 142 420 L81 420 C70 420 61 413 61 401 C61 392 70 383 81 383 L142 383 L142 318 L81 318 C70 318 61 311 61 299 C61 290 70 281 81 281 L142 281 C142 125 234 -7 400 -7 C483 -7 548 19 601 71 C606 76 607 81 607 86 C607 95 599 103 590 103 C584 103 579 100 574 95 C524 47 479 30 400 30 C257 30 180 143 180 281 L407 281 C418 281 427 287 427 299 Z " />
<glyph glyph-name="dollar" unicode="&#x24;" horiz-adv-x="608" d="M299 643 C353 643 407 624 442 599 C449 594 453 593 458 593 C466 593 475 599 475 611 C475 616 471 622 467 625 C434 652 386 672 323 679 L323 767 C323 779 315 787 305 787 C295 787 286 779 286 767 L286 679 C160 674 85 615 85 509 C85 420 141 365 284 338 C455 306 498 267 498 195 C498 100 425 54 313 54 C234 54 163 82 116 117 C103 127 83 121 83 104 C83 96 87 91 94 86 C144 51 207 24 286 19 L286 -69 C286 -79 294 -89 304 -89 C314 -89 323 -80 323 -69 L323 17 C437 16 535 83 535 193 C535 293 474 341 287 376 C187 395 122 432 122 508 C122 571 156 643 299 643 Z " />
<glyph glyph-name="cent" unicode="&#xa2;" horiz-adv-x="524" d="M159 296 C156 333 156 365 159 403 C166 486 217 545 306 545 C364 545 414 511 433 464 C436 454 443 446 453 446 C463 446 471 454 471 464 C471 469 470 473 468 478 C446 532 388 576 324 583 L324 689 C324 700 315 709 305 709 C295 709 286 701 286 689 L286 583 C190 572 128 504 119 404 C118 388 117 371 117 355 C117 335 117 316 119 297 C128 196 190 128 286 117 L286 11 C286 -1 295 -9 305 -9 C315 -9 324 0 324 11 L324 117 C388 124 446 168 468 222 C470 227 471 231 471 236 C471 246 463 254 453 254 C443 254 436 246 433 236 C414 189 364 155 306 155 C217 155 166 213 159 296 Z " />
<glyph glyph-name="sterling" unicode="&#xa3;" horiz-adv-x="545" d="M108 307 C110 295 111 282 111 269 C111 198 81 112 45 55 C40 47 37 38 37 28 C37 14 48 0 67 0 L475 0 C487 0 495 8 495 18 C495 30 486 37 475 37 L78 37 C120 112 148 196 148 271 C148 283 148 295 146 307 L316 307 C326 307 336 314 336 326 C336 335 327 344 316 344 L139 344 C126 410 109 463 109 516 C109 586 152 672 275 672 C347 672 389 649 437 601 C441 597 447 593 453 593 C464 593 472 601 472 612 C472 619 466 626 461 631 C427 667 369 709 275 709 C144 709 71 620 71 514 C71 464 89 403 101 344 L33 344 C22 344 13 336 13 326 C13 315 23 307 33 307 Z " />
<glyph glyph-name="florin" unicode="&#x192;" horiz-adv-x="554" d="M27 -202 C35 -202 42 -197 45 -188 L206 339 L396 339 C409 339 415 348 415 357 C415 366 408 374 396 374 L217 374 L280 581 C297 635 327 672 399 672 C459 672 492 651 513 632 C526 621 545 624 545 642 C545 647 544 651 540 655 C512 683 464 709 395 709 C329 709 271 674 249 602 L178 374 L108 374 C98 374 90 367 90 356 C90 345 100 339 108 339 L167 339 L10 -175 C5 -189 11 -202 27 -202 Z " />
<glyph glyph-name="yen" unicode="&#xa5;" horiz-adv-x="636" d="M597 703 C592 703 586 700 583 696 L318 366 L53 696 C50 700 44 702 39 702 C30 702 21 694 21 685 C21 681 22 677 25 673 L281 354 C296 336 300 325 300 309 L300 288 L145 288 C135 288 126 280 126 269 C126 260 133 251 146 251 L300 251 L300 15 C300 5 308 -4 318 -4 C329 -4 337 5 337 15 L337 251 L492 251 C505 251 512 260 512 269 C512 280 503 288 493 288 L337 288 L337 309 C337 325 340 336 354 354 L611 672 C614 676 616 681 616 685 C616 695 607 703 597 703 Z " />
<glyph glyph-name="zero" unicode="0" horiz-adv-x="681" d="M340 -9 C485 -9 580 105 586 260 C588 313 588 394 586 446 C581 602 485 709 340 709 C198 709 97 599 93 448 C92 394 91 315 93 260 C99 105 196 -9 340 -9 Z M340 28 C218 28 142 120 132 252 C128 311 129 395 132 453 C139 585 218 672 340 672 C463 672 540 585 548 453 C551 395 553 311 548 252 C538 120 463 28 340 28 Z " />
<glyph glyph-name="one" unicode="1" horiz-adv-x="419" d="M75 564 C79 564 84 566 88 568 L232 654 L232 16 C232 4 240 -4 250 -4 C261 -4 269 4 269 16 L269 669 C269 692 256 700 242 700 C237 700 229 698 221 693 L68 600 C61 596 57 590 57 583 C57 572 66 564 75 564 Z " />
<glyph glyph-name="two" unicode="2" horiz-adv-x="573" d="M64 32 C65 13 79 0 99 0 L477 0 C488 0 497 7 497 18 C497 30 488 37 477 37 L101 37 C101 107 115 147 245 242 C404 358 483 400 483 527 C483 626 410 709 271 709 C174 709 106 656 74 609 C70 603 69 599 69 595 C69 584 79 577 87 577 C95 577 101 582 105 587 C142 636 195 672 271 672 C396 672 445 597 445 527 C445 427 389 394 216 267 C111 190 64 130 64 42 Z " />
<glyph glyph-name="three" unicode="3" horiz-adv-x="578" d="M433 639 C441 648 445 658 445 666 C445 685 432 697 412 697 L71 697 C60 697 51 690 51 679 C51 668 60 660 71 660 L401 660 L211 443 C206 438 204 431 204 424 C204 411 213 400 233 400 C236 400 254 401 279 401 C376 401 450 344 450 248 C450 108 321 35 125 35 C108 35 90 36 72 37 C61 38 52 29 52 19 C52 6 62 -1 74 -1 C87 -1 99 -2 112 -2 C355 -2 487 90 487 248 C487 363 396 438 279 438 C270 438 262 438 253 437 Z " />
<glyph glyph-name="four" unicode="4" horiz-adv-x="657" d="M581 182 C590 182 599 190 599 201 C599 211 591 219 581 219 L489 219 L489 671 C489 687 479 700 460 700 C442 700 433 690 422 676 L75 241 C66 229 64 221 64 213 C64 190 86 182 96 182 L452 182 L452 16 C452 5 459 -4 470 -4 C482 -4 489 6 489 16 L489 182 Z M104 219 L452 654 L452 219 Z " />
<glyph glyph-name="five" unicode="5" horiz-adv-x="594" d="M306 451 C249 451 190 431 139 398 L139 660 L459 660 C469 660 479 666 479 678 C479 689 470 697 459 697 L137 697 C119 697 102 687 102 662 L102 384 C102 359 126 348 145 360 C192 393 250 414 309 414 C426 414 486 340 486 256 C486 105 332 32 102 32 C89 32 81 26 81 13 C81 1 90 -5 103 -5 C375 -5 522 91 522 259 C522 360 451 451 306 451 Z " />
<glyph glyph-name="six" unicode="6" horiz-adv-x="656" d="M497 668 C510 668 517 677 517 687 C517 696 510 704 498 706 C479 710 441 713 402 713 C202 713 93 578 93 335 C93 117 173 -12 342 -12 C497 -12 574 92 574 216 C574 359 481 429 339 429 C244 429 175 399 131 378 C144 574 235 675 402 675 C456 675 485 668 497 668 Z M339 392 C473 392 537 330 537 216 C537 110 476 25 342 25 C198 25 130 134 130 336 C180 364 247 392 339 392 Z " />
<glyph glyph-name="seven" unicode="7" horiz-adv-x="512" d="M62 697 C51 697 42 689 42 678 C42 668 51 660 62 660 L441 660 C247 334 177 209 135 21 C133 10 135 -5 152 -5 C160 -5 169 0 171 12 C209 197 302 357 475 645 C480 653 483 661 483 669 C483 686 469 697 449 697 Z " />
<glyph glyph-name="eight" unicode="8" horiz-adv-x="669" d="M331 30 C186 30 124 102 124 189 C124 282 193 348 331 348 C469 348 538 282 538 189 C538 102 476 30 331 30 Z M331 709 C181 709 103 634 103 529 C103 440 160 390 223 367 C150 346 86 288 86 189 C86 72 169 -7 331 -7 C492 -7 576 72 576 189 C576 288 512 346 439 367 C502 390 559 440 559 529 C559 634 481 709 331 709 Z M331 672 C468 672 520 605 520 529 C520 438 446 385 331 385 C216 385 142 438 142 529 C142 605 194 672 331 672 Z " />
<glyph glyph-name="nine" unicode="9" horiz-adv-x="648" d="M145 32 C132 31 125 23 125 13 C125 4 132 -6 147 -5 C412 7 557 93 557 385 C557 609 481 711 313 711 C158 711 81 607 81 483 C81 340 170 261 315 261 C409 261 473 294 517 316 C501 120 385 43 145 32 Z M315 298 C183 298 118 369 118 483 C118 589 179 674 313 674 C448 674 518 599 518 399 C518 386 518 372 517 357 C467 329 407 298 315 298 Z " />
<glyph glyph-name="onesuperior" unicode="&#xb9;" horiz-adv-x="320" d="M162 263 C162 252 169 243 180 243 C191 243 198 250 198 263 L198 675 C198 691 188 698 178 698 C170 698 159 691 155 689 L64 638 C58 635 55 628 55 622 C55 606 70 600 84 608 L162 651 Z " />
<glyph glyph-name="twosuperior" unicode="&#xb2;" horiz-adv-x="468" d="M85 277 C85 258 98 246 116 246 L357 246 C369 246 378 253 378 264 C378 275 369 282 357 282 L121 282 C121 327 141 369 226 418 C333 480 369 515 369 580 C369 652 319 708 224 708 C156 708 113 672 92 639 C88 632 87 628 87 624 C87 612 96 608 103 608 C111 608 116 612 122 620 C142 647 169 672 225 672 C300 672 333 630 333 580 C333 509 268 487 197 441 C120 391 85 351 85 282 Z " />
<glyph glyph-name="threesuperior" unicode="&#xb3;" horiz-adv-x="439" d="M130 235 C279 235 370 299 370 403 C370 471 320 525 242 525 C234 525 225 524 216 523 L331 633 C342 644 346 653 346 664 C346 681 335 694 307 694 L94 694 C82 694 73 687 73 675 C73 663 82 657 94 657 L304 657 L179 534 C174 528 168 522 168 511 C168 497 179 488 192 488 C206 488 210 491 240 491 C296 491 334 457 334 402 C334 318 250 271 127 271 C118 271 110 273 94 273 C83 273 75 267 75 254 C75 233 108 235 130 235 Z " />
<glyph glyph-name="fraction" unicode="&#x2044;" horiz-adv-x="300" d="M303 731 C293 735 283 730 278 718 L-7 -6 C-10 -15 -7 -27 3 -31 C14 -35 24 -29 27 -20 L313 705 C317 715 314 727 303 731 Z " />
<glyph glyph-name="onequarter" unicode="&#xbc;" horiz-adv-x="930" d="M777 147 L777 425 C777 440 769 457 747 457 C733 457 723 449 711 434 L489 163 C479 151 477 143 477 137 C477 122 487 111 503 111 L741 111 L741 20 C741 8 749 0 760 0 C772 0 777 10 777 20 L777 111 L825 111 C836 111 845 117 845 128 C845 140 836 147 825 147 Z M741 415 L741 147 L522 147 Z M162 263 C162 252 169 243 180 243 C191 243 198 250 198 263 L198 675 C198 691 188 698 178 698 C170 698 159 691 155 689 L64 638 C58 635 55 628 55 622 C55 606 70 600 84 608 L162 651 Z M553 735 C543 739 533 734 528 722 L243 -2 C240 -11 243 -23 253 -27 C264 -31 274 -25 277 -16 L563 709 C567 719 564 731 553 735 Z " />
<glyph glyph-name="onehalf" unicode="&#xbd;" horiz-adv-x="907" d="M525 731 C515 735 505 730 500 718 L215 -6 C212 -15 215 -27 225 -31 C236 -35 246 -29 249 -20 L535 705 C539 715 536 727 525 731 Z M162 263 C162 252 169 243 180 243 C191 243 198 250 198 263 L198 675 C198 691 188 698 178 698 C170 698 159 691 155 689 L64 638 C58 635 55 628 55 622 C55 606 70 600 84 608 L162 651 Z M525 31 C525 12 538 0 556 0 L797 0 C809 0 818 7 818 18 C818 29 809 36 797 36 L561 36 C561 81 581 123 666 172 C773 234 809 269 809 334 C809 406 759 462 664 462 C596 462 553 426 532 393 C528 386 527 382 527 378 C527 366 536 362 543 362 C551 362 556 366 562 374 C582 401 609 426 665 426 C740 426 773 384 773 334 C773 263 708 241 637 195 C560 145 525 105 525 36 Z " />
<glyph glyph-name="threequarters" unicode="&#xbe;" horiz-adv-x="1058" d="M920 147 L920 425 C920 440 912 457 890 457 C876 457 866 449 854 434 L632 163 C622 151 620 143 620 137 C620 122 630 111 646 111 L884 111 L884 20 C884 8 892 0 903 0 C915 0 920 10 920 20 L920 111 L968 111 C979 111 988 117 988 128 C988 140 979 147 968 147 Z M884 415 L884 147 L665 147 Z M130 235 C279 235 370 299 370 403 C370 471 320 525 242 525 C234 525 225 524 216 523 L331 633 C342 644 346 653 346 664 C346 681 335 694 307 694 L94 694 C82 694 73 687 73 675 C73 663 82 657 94 657 L304 657 L179 534 C174 528 168 522 168 511 C168 497 179 488 192 488 C206 488 210 491 240 491 C296 491 334 457 334 402 C334 318 250 271 127 271 C118 271 110 273 94 273 C83 273 75 267 75 254 C75 233 108 235 130 235 Z M671 731 C661 735 651 730 646 718 L361 -6 C358 -15 361 -27 371 -31 C382 -35 392 -29 395 -20 L681 705 C685 715 682 727 671 731 Z " />
<glyph glyph-name="percent" unicode="&#x25;" horiz-adv-x="672" d="M117 125 C110 117 109 105 117 98 C125 92 136 93 143 101 L564 583 C570 590 570 602 562 609 C556 614 543 613 536 605 Z M188 383 C265 383 326 443 329 519 C330 535 330 557 329 573 C326 649 265 709 188 709 C111 709 50 649 47 573 C46 557 46 535 47 519 C50 443 111 383 188 383 Z M188 676 C245 676 291 634 294 572 C295 554 295 537 294 520 C291 458 245 416 188 416 C131 416 85 458 82 520 C81 537 81 554 82 572 C85 634 131 676 188 676 Z M489 -4 C566 -4 627 56 630 132 C631 148 631 170 630 186 C627 262 566 322 489 322 C412 322 351 262 348 186 C347 170 347 148 348 132 C351 56 412 -4 489 -4 Z M489 289 C546 289 592 247 595 185 C596 167 596 150 595 133 C592 71 546 29 489 29 C432 29 386 71 383 133 C382 150 382 167 383 185 C386 247 432 289 489 289 Z " />
<glyph glyph-name="perthousand" unicode="&#x2030;" horiz-adv-x="997" d="M817 321 C740 321 678 256 676 180 C675 164 675 147 676 131 C679 54 740 -10 817 -10 C893 -10 950 54 955 131 C956 147 956 163 955 180 C951 256 893 321 817 321 Z M117 125 C110 117 109 105 117 98 C125 92 136 93 143 101 L564 583 C570 590 570 602 562 609 C556 614 543 613 536 605 Z M188 383 C265 383 326 443 329 519 C330 535 330 557 329 573 C326 649 265 709 188 709 C111 709 50 649 47 573 C46 557 46 535 47 519 C50 443 111 383 188 383 Z M188 676 C245 676 291 634 294 572 C295 554 295 537 294 520 C291 458 245 416 188 416 C131 416 85 458 82 520 C81 537 81 554 82 572 C85 634 131 676 188 676 Z M489 -4 C566 -4 627 56 630 132 C631 148 631 170 630 186 C627 262 566 322 489 322 C412 322 351 262 348 186 C347 170 347 148 348 132 C351 56 412 -4 489 -4 Z M489 289 C546 289 592 247 595 185 C596 167 596 150 595 133 C592 71 546 29 489 29 C432 29 386 71 383 133 C382 150 382 167 383 185 C386 247 432 289 489 289 Z M814 289 C871 289 917 247 920 185 C921 167 921 150 920 133 C917 71 871 29 814 29 C757 29 711 71 708 133 C707 150 707 167 708 185 C711 247 757 289 814 289 Z " />
<glyph glyph-name="plus" unicode="&#x2b;" horiz-adv-x="628" d="M297 116 C297 103 303 95 315 95 C327 95 334 104 334 116 L334 332 L546 332 C557 332 568 339 568 350 C568 362 558 369 546 369 L334 369 L334 584 C334 596 327 605 315 605 C304 605 297 596 297 584 L297 369 L81 369 C69 369 60 362 60 350 C60 339 69 332 81 332 L297 332 Z " />
<glyph glyph-name="minus" unicode="&#x2212;" horiz-adv-x="628" d="M546 332 C557 332 568 339 568 350 C568 362 558 369 546 369 L81 369 C69 369 60 362 60 350 C60 339 69 332 81 332 Z " />
<glyph glyph-name="plusminus" unicode="&#xb1;" horiz-adv-x="628" d="M546 0 C557 0 568 7 568 18 C568 30 558 37 546 37 L81 37 C69 37 60 30 60 18 C60 7 69 0 81 0 Z M297 116 C297 103 303 95 315 95 C327 95 334 104 334 116 L334 332 L546 332 C557 332 568 339 568 350 C568 362 558 369 546 369 L334 369 L334 584 C334 596 327 605 315 605 C304 605 297 596 297 584 L297 369 L81 369 C69 369 60 362 60 350 C60 339 69 332 81 332 L297 332 Z " />
<glyph glyph-name="multiply" unicode="&#xd7;" horiz-adv-x="628" d="M507 136 C517 126 527 125 535 133 C544 142 542 153 534 162 L341 351 L532 541 C540 549 542 562 535 570 C527 579 514 576 506 567 L315 378 L120 571 C111 579 100 581 91 572 C84 564 85 553 94 544 L289 351 L95 159 C86 150 84 138 93 130 C101 123 112 124 121 133 L315 325 Z " />
<glyph glyph-name="divide" unicode="&#xf7;" horiz-adv-x="628" d="M279 519 C279 500 295 484 314 484 C333 484 349 500 349 519 C349 538 333 553 314 553 C295 553 279 538 279 519 Z M279 182 C279 163 295 147 314 147 C333 147 349 163 349 182 C349 201 333 217 314 217 C295 217 279 201 279 182 Z M546 332 C557 332 568 339 568 350 C568 362 558 369 546 369 L81 369 C69 369 60 362 60 350 C60 339 69 332 81 332 Z " />
<glyph glyph-name="equal" unicode="&#x3d;" horiz-adv-x="628" d="M539 413 C550 413 561 420 561 431 C561 443 551 450 539 450 L88 450 C76 450 67 443 67 431 C67 420 76 413 88 413 Z M539 250 C550 250 561 257 561 268 C561 280 551 287 539 287 L88 287 C76 287 67 280 67 268 C67 257 76 250 88 250 Z " />
<glyph glyph-name="less" unicode="&#x3c;" horiz-adv-x="628" d="M455 650 C451 650 446 648 442 645 L143 400 C129 388 114 372 114 350 C114 328 129 312 143 300 L443 55 C447 52 452 50 456 50 C465 50 474 58 474 68 C474 74 471 80 466 84 L170 326 C156 337 152 342 152 350 C152 358 157 362 170 374 L465 616 C470 620 473 626 473 632 C473 642 464 650 455 650 Z " />
<glyph glyph-name="greater" unicode="&#x3e;" horiz-adv-x="628" d="M177 50 C181 50 186 52 190 55 L490 300 C504 312 519 328 519 350 C519 372 504 388 490 400 L191 645 C187 648 182 650 178 650 C169 650 160 642 160 632 C160 626 163 620 168 616 L463 374 C477 363 481 358 481 350 C481 342 476 338 463 326 L167 84 C162 80 159 74 159 68 C159 58 168 50 177 50 Z " />
<glyph glyph-name="lessequal" unicode="&#x2264;" horiz-adv-x="628" d="M169 302 C161 307 155 310 155 317 C155 324 161 327 169 332 L499 529 C507 534 510 546 505 555 C500 563 489 566 480 561 L147 358 C126 345 119 331 119 317 C119 303 127 288 147 276 L480 73 C488 68 500 70 505 79 C510 88 507 100 499 105 Z M487 -9 C498 -9 509 -2 509 9 C509 21 499 28 487 28 L140 28 C128 28 119 21 119 9 C119 -2 128 -9 140 -9 Z " />
<glyph glyph-name="greaterequal" unicode="&#x2265;" horiz-adv-x="628" d="M130 105 C122 100 119 88 124 79 C129 70 141 68 149 73 L482 276 C502 288 510 303 510 317 C510 331 503 345 482 358 L149 561 C140 566 129 563 124 555 C119 546 122 534 130 529 L460 332 C468 327 474 324 474 317 C474 310 468 307 460 302 Z M489 -9 C501 -9 510 -2 510 9 C510 21 501 28 489 28 L142 28 C130 28 120 21 120 9 C120 -2 131 -9 142 -9 Z " />
<glyph glyph-name="logicalnot" unicode="&#xac;" horiz-adv-x="628" d="M568 340 C568 357 556 371 536 371 L81 371 C69 371 60 364 60 352 C60 341 69 334 81 334 L531 334 L531 117 C531 105 539 96 550 96 C562 96 568 104 568 117 Z " />
<glyph glyph-name="degree" unicode="&#xb0;" horiz-adv-x="386" d="M80 587 C80 526 131 475 193 475 C255 475 306 526 306 587 C306 649 255 701 193 701 C131 701 80 649 80 587 Z M114 587 C114 631 150 667 193 667 C237 667 272 631 272 587 C272 544 237 508 193 508 C150 508 114 544 114 587 Z " />
<glyph glyph-name="&amp;#xb5;" unicode="&#xb5;" horiz-adv-x="624" d="M100 -171 C100 -183 108 -192 119 -192 C129 -192 137 -183 137 -171 L137 66 C173 17 233 -9 304 -9 C405 -9 468 34 497 52 C507 58 510 67 510 76 L510 495 C510 506 502 515 491 515 C480 515 473 506 473 495 L473 81 C435 54 381 28 302 28 C206 28 137 86 137 183 L137 496 C137 506 129 515 119 515 C110 515 100 507 100 496 Z " />
<glyph glyph-name="&amp;#x3bc;" unicode="&#x3bc;" horiz-adv-x="624" d="M100 -171 C100 -183 108 -192 119 -192 C129 -192 137 -183 137 -171 L137 66 C173 17 233 -9 304 -9 C405 -9 468 34 497 52 C507 58 510 67 510 76 L510 495 C510 506 502 515 491 515 C480 515 473 506 473 495 L473 81 C435 54 381 28 302 28 C206 28 137 86 137 183 L137 496 C137 506 129 515 119 515 C110 515 100 507 100 496 Z " />
<glyph glyph-name="fi" unicode="&#xfb01;" horiz-adv-x="620" d="M116 504 L71 504 C60 504 51 496 51 485 C51 474 60 467 71 467 L116 467 L116 16 C116 5 124 -4 134 -4 C145 -4 153 5 153 16 L153 467 L313 467 C323 467 333 474 333 485 C333 496 323 504 313 504 L153 504 L153 559 C153 629 179 673 255 673 C296 673 317 664 330 664 C343 664 349 674 349 681 C349 690 345 696 332 700 C316 705 288 710 255 710 C157 710 116 648 116 559 Z M522 664 C522 682 508 697 490 697 C471 697 457 682 457 664 C457 646 471 631 490 631 C508 631 522 646 522 664 Z M489 515 C478 515 471 506 471 495 L471 16 C471 5 478 -4 489 -4 C500 -4 508 5 508 16 L508 495 C508 506 499 515 489 515 Z " />
<glyph glyph-name="fl" unicode="&#xfb02;" horiz-adv-x="612" d="M116 504 L71 504 C60 504 51 496 51 485 C51 474 60 467 71 467 L116 467 L116 16 C116 5 124 -4 134 -4 C145 -4 153 5 153 16 L153 467 L313 467 C323 467 333 474 333 485 C333 496 323 504 313 504 L153 504 L153 559 C153 629 179 673 255 673 C296 673 317 664 330 664 C343 664 349 674 349 681 C349 690 345 696 332 700 C316 705 288 710 255 710 C157 710 116 648 116 559 Z M485 705 C474 705 467 696 467 685 L467 16 C467 5 475 -4 486 -4 C498 -4 504 5 504 16 L504 685 C504 696 497 705 485 705 Z " />
<glyph glyph-name="ampersand" unicode="&#x26;" horiz-adv-x="678" d="M587 325 C576 325 569 316 569 301 C569 228 561 188 518 126 L282 336 C465 383 518 438 518 531 C518 628 441 698 311 698 C176 698 106 618 106 528 C106 452 158 398 212 353 C116 321 71 259 71 171 C71 70 154 -8 317 -8 C402 -8 473 24 522 74 L606 0 C614 -7 624 -7 631 1 C639 10 636 21 629 28 L545 102 C585 156 606 224 606 292 L606 303 C606 316 600 325 587 325 Z M143 529 C143 597 199 662 308 662 C429 662 481 597 481 531 C481 437 409 402 254 365 C192 412 143 459 143 529 Z M319 29 C185 29 108 89 108 172 C108 248 142 296 242 325 L495 99 C450 55 389 29 319 29 Z " />
<glyph glyph-name="Q.alt" horiz-adv-x="722" d="M643 268 C647 320 647 378 643 431 C632 586 516 706 362 706 C208 706 93 585 82 431 C78 377 78 320 82 268 C93 116 199 1 344 -7 L344 -144 C344 -155 351 -164 362 -164 C373 -164 380 -155 380 -144 L380 -7 C525 1 632 116 643 268 Z M362 190 C351 190 344 181 344 170 L344 29 C221 38 132 134 120 261 C114 320 114 378 120 436 C133 569 230 669 362 669 C493 669 592 569 605 436 C611 378 611 320 605 261 C592 134 503 38 380 29 L380 170 C380 181 372 190 362 190 Z " />
<glyph glyph-name="r.alt" horiz-adv-x="366" d="M264 522 C193 522 144 496 119 472 C110 464 104 457 104 440 L104 21 C104 9 111 1 122 1 C133 1 141 9 141 21 L141 442 C170 469 214 485 264 485 C297 485 324 476 336 476 C349 476 354 487 354 494 C354 502 349 509 338 512 C314 518 287 522 264 522 Z " />
<glyph glyph-name="zero.onum" horiz-adv-x="626" d="M313 525 C186 525 87 445 75 317 C70 270 70 244 73 200 C86 63 186 -16 313 -16 C440 -16 540 63 552 191 C555 229 557 269 553 308 C540 445 440 525 313 525 Z M313 488 C418 488 504 423 515 309 C519 266 519 245 515 200 C505 85 418 20 313 20 C208 20 122 85 111 199 C107 243 107 264 111 308 C121 423 208 488 313 488 Z " />
<glyph glyph-name="one.onum" horiz-adv-x="419" d="M62 396 C66 396 71 398 75 400 L241 480 L241 16 C241 4 249 -4 259 -4 C270 -4 278 4 278 16 L278 495 C278 518 265 526 251 526 C246 526 238 523 230 519 L55 432 C48 429 45 422 45 415 C45 404 52 396 62 396 Z " />
<glyph glyph-name="two.onum" horiz-adv-x="573" d="M65 31 C65 13 78 0 97 0 L479 0 C491 0 501 6 501 18 C501 30 491 37 479 37 L102 37 C102 133 133 160 294 207 C442 250 483 301 483 369 C483 454 422 524 282 524 C181 524 110 482 68 421 C64 415 63 410 63 405 C63 398 67 387 82 387 C91 387 97 393 101 400 C131 452 196 487 282 487 C402 487 446 433 446 371 C446 325 423 283 285 243 C107 191 65 151 65 38 Z " />
<glyph glyph-name="three.onum" horiz-adv-x="578" d="M432 449 C441 460 443 469 443 476 C443 492 430 504 410 504 L71 504 C60 504 51 497 51 485 C51 474 60 467 71 467 L399 467 L202 239 C197 234 195 227 195 222 C195 211 204 202 217 202 C231 202 240 207 284 207 C378 207 449 153 449 58 C449 -76 331 -152 140 -152 C119 -152 97 -151 74 -149 C58 -148 52 -158 52 -168 C52 -179 62 -185 72 -186 C96 -188 118 -189 140 -189 C369 -189 486 -94 486 58 C486 172 393 245 281 245 C272 245 263 245 254 244 Z " />
<glyph glyph-name="four.onum" horiz-adv-x="657" d="M611 0 C620 0 629 8 629 19 C629 29 621 37 611 37 L489 37 L489 493 C489 509 479 522 460 522 C442 522 433 512 422 498 L77 59 C68 47 66 39 66 31 C66 8 88 0 98 0 L452 0 L452 -172 C452 -183 459 -192 470 -192 C482 -192 489 -182 489 -172 L489 0 Z M106 37 L452 476 L452 37 Z " />
<glyph glyph-name="five.onum" horiz-adv-x="594" d="M306 258 C249 258 190 238 139 205 L139 467 L459 467 C469 467 479 473 479 485 C479 496 470 504 459 504 L137 504 C119 504 102 494 102 469 L102 191 C102 166 126 155 145 167 C192 200 250 221 309 221 C426 221 486 147 486 63 C486 -88 332 -161 102 -161 C89 -161 81 -167 81 -180 C81 -192 90 -198 103 -198 C375 -198 522 -102 522 66 C522 167 451 258 306 258 Z " />
<glyph glyph-name="six.onum" horiz-adv-x="656" d="M497 668 C510 668 517 677 517 687 C517 696 510 704 498 706 C479 710 441 713 402 713 C202 713 93 578 93 335 C93 117 173 -12 342 -12 C497 -12 574 92 574 216 C574 359 481 429 339 429 C244 429 175 399 131 378 C144 574 235 675 402 675 C456 675 485 668 497 668 Z M339 392 C473 392 537 330 537 216 C537 110 476 25 342 25 C198 25 130 134 130 336 C180 364 247 392 339 392 Z " />
<glyph glyph-name="seven.onum" horiz-adv-x="512" d="M62 504 C51 504 42 496 42 485 C42 475 51 467 62 467 L441 467 C247 141 177 16 135 -172 C133 -183 135 -198 152 -198 C160 -198 169 -193 171 -181 C209 4 302 164 475 452 C480 460 483 468 483 476 C483 493 469 504 449 504 Z " />
<glyph glyph-name="eight.onum" horiz-adv-x="669" d="M331 30 C186 30 124 102 124 189 C124 282 193 348 331 348 C469 348 538 282 538 189 C538 102 476 30 331 30 Z M331 709 C181 709 103 634 103 529 C103 440 160 390 223 367 C150 346 86 288 86 189 C86 72 169 -7 331 -7 C492 -7 576 72 576 189 C576 288 512 346 439 367 C502 390 559 440 559 529 C559 634 481 709 331 709 Z M331 672 C468 672 520 605 520 529 C520 438 446 385 331 385 C216 385 142 438 142 529 C142 605 194 672 331 672 Z " />
<glyph glyph-name="nine.onum" horiz-adv-x="648" d="M145 -153 C132 -154 125 -162 125 -172 C125 -181 132 -191 147 -190 C412 -178 557 -92 557 200 C557 424 481 526 313 526 C158 526 81 422 81 298 C81 155 170 76 315 76 C409 76 473 109 517 131 C501 -65 385 -142 145 -153 Z M315 113 C183 113 118 184 118 298 C118 404 179 489 313 489 C448 489 518 414 518 214 C518 201 518 187 517 172 C467 144 407 113 315 113 Z " />
<glyph glyph-name="sterling.alt" horiz-adv-x="590" d="M88 343 C77 343 69 335 69 324 C69 312 78 306 89 306 L159 306 C142 240 126 191 114 160 C93 106 81 83 77 74 C73 66 70 59 69 50 C65 18 87 0 122 0 L504 0 C516 0 525 8 525 18 C525 30 515 37 505 37 L117 37 C111 37 106 39 106 46 C106 50 108 54 111 60 C136 107 166 193 195 306 L405 306 C418 306 426 312 426 324 C426 335 418 343 405 343 L205 343 C215 383 224 426 234 472 C265 626 317 672 407 672 C439 672 463 665 486 654 C498 648 511 649 516 660 C522 672 515 683 505 688 C478 701 444 709 407 709 C295 709 229 640 196 473 C187 425 178 381 168 343 Z " />
<glyph glyph-name="commaaccent" horiz-adv-x="322" d="M190 -49 C190 -38 181 -30 171 -30 C161 -30 153 -38 153 -49 L153 -102 C153 -137 151 -152 125 -188 C124 -190 121 -194 121 -200 C121 -209 128 -218 139 -218 C147 -218 153 -212 156 -208 C176 -179 190 -151 190 -107 Z " />
<glyph glyph-name="caronSlovak" horiz-adv-x="322" d="M193 679 C193 690 184 698 174 698 C164 698 156 690 156 679 L156 640 C156 605 150 593 136 568 C135 566 132 562 132 556 C132 547 139 538 150 538 C158 538 164 544 167 548 C178 565 193 591 193 635 Z " />
<glyph glyph-name="g.alt" horiz-adv-x="547" d="M66 -32 C56 -32 48 -39 48 -51 C48 -59 52 -67 58 -77 C88 -126 153 -187 276 -187 C393 -187 480 -130 480 -42 C480 24 434 84 318 84 L203 84 C162 84 138 96 138 121 C138 152 175 169 239 169 L250 169 C355 169 447 229 447 341 C447 396 425 438 399 467 L489 467 C499 467 507 476 507 486 C507 496 499 504 489 504 L350 504 C327 512 298 522 255 522 C128 522 60 434 60 344 C60 276 98 217 160 188 C139 183 100 162 100 119 C100 79 133 46 209 46 L321 46 C413 46 441 -1 441 -42 C441 -100 379 -149 276 -149 C186 -149 119 -111 86 -49 C81 -39 76 -32 66 -32 Z M253 203 C161 203 99 260 99 343 C99 426 161 485 255 485 C352 485 408 423 408 344 C408 260 345 203 253 203 Z " />
<glyph glyph-name="gbreve.alt" horiz-adv-x="547" d="M66 -32 C56 -32 48 -39 48 -51 C48 -59 52 -67 58 -77 C88 -126 153 -187 276 -187 C393 -187 480 -130 480 -42 C480 24 434 84 318 84 L203 84 C162 84 138 96 138 121 C138 152 175 169 239 169 L250 169 C355 169 447 229 447 341 C447 396 425 438 399 467 L489 467 C499 467 507 476 507 486 C507 496 499 504 489 504 L350 504 C327 512 298 522 255 522 C128 522 60 434 60 344 C60 276 98 217 160 188 C139 183 100 162 100 119 C100 79 133 46 209 46 L321 46 C413 46 441 -1 441 -42 C441 -100 379 -149 276 -149 C186 -149 119 -111 86 -49 C81 -39 76 -32 66 -32 Z M253 203 C161 203 99 260 99 343 C99 426 161 485 255 485 C352 485 408 423 408 344 C408 260 345 203 253 203 Z M326 676 C319 644 292 624 258 624 C224 624 197 645 190 676 C188 686 183 693 172 693 C162 693 154 686 154 674 C154 668 155 663 157 657 C169 618 210 586 258 586 C306 586 347 618 359 657 C361 663 362 668 362 674 C362 686 354 693 344 693 C333 693 328 686 326 676 Z " />
<glyph glyph-name="gdotaccent.alt" horiz-adv-x="547" d="M66 -32 C56 -32 48 -39 48 -51 C48 -59 52 -67 58 -77 C88 -126 153 -187 276 -187 C393 -187 480 -130 480 -42 C480 24 434 84 318 84 L203 84 C162 84 138 96 138 121 C138 152 175 169 239 169 L250 169 C355 169 447 229 447 341 C447 396 425 438 399 467 L489 467 C499 467 507 476 507 486 C507 496 499 504 489 504 L350 504 C327 512 298 522 255 522 C128 522 60 434 60 344 C60 276 98 217 160 188 C139 183 100 162 100 119 C100 79 133 46 209 46 L321 46 C413 46 441 -1 441 -42 C441 -100 379 -149 276 -149 C186 -149 119 -111 86 -49 C81 -39 76 -32 66 -32 Z M253 203 C161 203 99 260 99 343 C99 426 161 485 255 485 C352 485 408 423 408 344 C408 260 345 203 253 203 Z M253 662 C236 662 223 649 223 633 C223 616 236 603 253 603 C270 603 283 616 283 633 C283 649 270 662 253 662 Z " />
<glyph glyph-name="gcommaaccent.alt" horiz-adv-x="547" d="M66 -32 C56 -32 48 -39 48 -51 C48 -59 52 -67 58 -77 C88 -126 153 -187 276 -187 C393 -187 480 -130 480 -42 C480 24 434 84 318 84 L203 84 C162 84 138 96 138 121 C138 152 175 169 239 169 L250 169 C355 169 447 229 447 341 C447 396 425 438 399 467 L489 467 C499 467 507 476 507 486 C507 496 499 504 489 504 L350 504 C327 512 298 522 255 522 C128 522 60 434 60 344 C60 276 98 217 160 188 C139 183 100 162 100 119 C100 79 133 46 209 46 L321 46 C413 46 441 -1 441 -42 C441 -100 379 -149 276 -149 C186 -149 119 -111 86 -49 C81 -39 76 -32 66 -32 Z M253 203 C161 203 99 260 99 343 C99 426 161 485 255 485 C352 485 408 423 408 344 C408 260 345 203 253 203 Z M275 721 C275 732 266 740 256 740 C246 740 238 732 238 721 L238 668 C238 633 236 618 210 582 C209 580 206 576 206 570 C206 561 213 552 224 552 C232 552 238 558 241 562 C261 591 275 619 275 663 Z " />
<glyph glyph-name="ampersand.alt" horiz-adv-x="678" d="M526 227 C522 115 447 29 308 29 C171 29 93 87 93 174 C93 256 145 299 299 329 C454 359 515 405 515 519 C515 624 436 699 307 699 C184 699 100 620 100 520 C100 438 142 390 216 347 C116 320 56 264 56 174 C56 70 144 -8 310 -8 C460 -8 563 84 563 243 L658 243 C669 243 678 250 678 262 C678 273 668 280 657 280 L565 280 C537 280 526 266 526 243 Z M137 519 C137 597 192 662 308 662 C430 662 478 592 478 519 C478 426 433 389 262 359 C207 389 137 430 137 519 Z " />
<glyph glyph-name="racute.alt" horiz-adv-x="366" d="M264 522 C193 522 144 496 119 472 C110 464 104 457 104 440 L104 21 C104 9 111 1 122 1 C133 1 141 9 141 21 L141 442 C170 469 214 485 264 485 C297 485 324 476 336 476 C349 476 354 487 354 494 C354 502 349 509 338 512 C314 518 287 522 264 522 Z M318 656 C326 660 330 666 330 674 C330 685 321 692 312 692 C307 692 304 691 300 689 L165 620 C157 616 153 610 153 602 C153 591 162 584 171 584 C176 584 179 585 183 587 Z " />
<glyph glyph-name="rcaron.alt" horiz-adv-x="366" d="M264 522 C193 522 144 496 119 472 C110 464 104 457 104 440 L104 21 C104 9 111 1 122 1 C133 1 141 9 141 21 L141 442 C170 469 214 485 264 485 C297 485 324 476 336 476 C349 476 354 487 354 494 C354 502 349 509 338 512 C314 518 287 522 264 522 Z M135 688 C130 691 126 692 122 692 C111 692 103 683 103 673 C103 665 108 660 111 658 L192 598 C200 592 207 589 216 589 C225 589 232 592 240 598 L321 658 C324 660 329 665 329 673 C329 683 321 692 310 692 C306 692 302 691 297 688 L216 628 Z " />
<glyph glyph-name="rcommaaccent.alt" horiz-adv-x="366" d="M264 522 C193 522 144 496 119 472 C110 464 104 457 104 440 L104 21 C104 9 111 1 122 1 C133 1 141 9 141 21 L141 442 C170 469 214 485 264 485 C297 485 324 476 336 476 C349 476 354 487 354 494 C354 502 349 509 338 512 C314 518 287 522 264 522 Z M142 -49 C142 -38 133 -30 123 -30 C113 -30 105 -38 105 -49 L105 -102 C105 -137 103 -152 77 -188 C76 -190 73 -194 73 -200 C73 -209 80 -218 91 -218 C99 -218 105 -212 108 -208 C128 -179 142 -151 142 -107 Z " />
<glyph glyph-name="hyphen" unicode="&#x2d;" horiz-adv-x="350" d="M285 287 C285 297 276 305 265 305 L85 305 C74 305 65 298 65 286 C65 276 74 268 85 268 L265 268 C276 268 285 276 285 287 Z " />
<glyph glyph-name="space" unicode="&#x20;" horiz-adv-x="262" />
</font>
</svg>
